<svg width="13" height="14" viewBox="0 0 13 14" fill="none" xmlns="http://www.w3.org/2000/svg">
<path fill-rule="evenodd" clip-rule="evenodd" d="M12.7042 10.4773L10.7092 8.44263C10.3122 8.03852 9.64621 8.04355 9.22521 8.45271L8.19621 9.45443C8.13221 9.41815 8.06621 9.38086 7.99621 9.34055C7.35821 8.97876 6.48521 8.48294 5.57121 7.54874C4.65421 6.61554 4.17621 5.73173 3.82721 5.08676C3.79021 5.01924 3.75421 4.95273 3.71921 4.89025L4.41021 4.21907L4.75021 3.88852C5.17121 3.47735 5.19121 2.81525 4.79421 2.41013L2.79921 0.374434C2.40321 -0.029681 1.73621 -0.0256502 1.31521 0.385519L0.739207 0.948862L0.754207 0.964986C0.561207 1.20484 0.398208 1.48298 0.276208 1.78329C0.163208 2.06849 0.092207 2.3416 0.057207 2.61672C-0.234793 4.81567 0.751208 6.83927 3.45921 9.60156C7.20321 13.42 10.2592 13.1701 10.3912 13.158C10.6792 13.1267 10.9542 13.0622 11.2352 12.9564C11.5372 12.8425 11.8192 12.6884 12.0642 12.5019L12.0772 12.512L12.6602 11.9567C13.0812 11.5466 13.1002 10.8834 12.7042 10.4773Z" fill="white"/>
</svg>
