<svg width="18" height="18" viewBox="0 0 18 18" fill="none" xmlns="http://www.w3.org/2000/svg">
<path fill-rule="evenodd" clip-rule="evenodd" d="M12.2338 10.7657H11.4606L11.1866 10.5015C12.1457 9.38575 12.7231 7.93727 12.7231 6.36156C12.7231 2.84802 9.8751 0 6.36156 0C2.84802 0 0 2.84802 0 6.36156C0 9.8751 2.84802 12.7231 6.36156 12.7231C7.93727 12.7231 9.38575 12.1457 10.5015 11.1866L10.7657 11.4606V12.2338L15.6592 17.1175L17.1175 15.6592L12.2338 10.7657ZM6.36151 10.7657C3.92454 10.7657 1.95735 8.79853 1.95735 6.36156C1.95735 3.9246 3.92454 1.95741 6.36151 1.95741C8.79848 1.95741 10.7657 3.9246 10.7657 6.36156C10.7657 8.79853 8.79848 10.7657 6.36151 10.7657Z" fill="#006543"/>
</svg>
