<svg width="22" height="15" viewBox="0 0 22 15" fill="none" xmlns="http://www.w3.org/2000/svg">
<path d="M20.8647 1.6725C20.2903 0.65925 19.6669 0.472875 18.3977 0.402C17.1297 0.316688 13.9413 0.28125 11.1791 0.28125C8.41164 0.28125 5.22193 0.316688 3.95532 0.400688C2.6887 0.472875 2.06399 0.657937 1.48429 1.6725C0.892669 2.68444 0.588257 4.42744 0.588257 7.49606C0.588257 7.49869 0.588257 7.5 0.588257 7.5C0.588257 7.50262 0.588257 7.50394 0.588257 7.50394V7.50656C0.588257 10.5621 0.892669 12.3182 1.48429 13.3196C2.06399 14.3329 2.68737 14.5166 3.95399 14.6019C5.22193 14.6754 8.41164 14.7188 11.1791 14.7188C13.9413 14.7188 17.1297 14.6754 18.399 14.6032C19.6683 14.5179 20.2916 14.3342 20.8661 13.3209C21.463 12.3195 21.7647 10.5634 21.7647 7.50787C21.7647 7.50787 21.7647 7.50394 21.7647 7.50131C21.7647 7.50131 21.7647 7.49869 21.7647 7.49738C21.7647 4.42744 21.463 2.68444 20.8647 1.6725ZM8.52943 11.4375V3.5625L15.1471 7.5L8.52943 11.4375Z" fill="white"/>
</svg>
