<svg width="21" height="19" viewBox="0 0 21 19" fill="none" xmlns="http://www.w3.org/2000/svg">
<path d="M10.4538 0.59375C8.23845 0.59375 6.41229 2.375 6.41229 4.60156C6.41229 6.79844 8.20851 8.60938 10.4538 8.60938C12.6991 8.60938 14.4953 6.82812 14.4953 4.60156C14.4953 2.375 12.6691 0.59375 10.4538 0.59375ZM10.4538 5.9375C9.70536 5.9375 9.10662 5.34375 9.10662 4.60156C9.10662 3.85938 9.70536 3.26562 10.4538 3.26562C11.2022 3.26562 11.8009 3.85938 11.8009 4.60156C11.8009 5.34375 11.2022 5.9375 10.4538 5.9375Z" fill="white"/>
<path d="M15.4233 11.3109C14.4055 11.875 13.2978 12.2609 12.1901 12.4391L15.3335 16.2687C15.6927 16.7141 15.7826 17.3375 15.4533 17.8125C14.9443 18.5844 13.8666 18.6141 13.3277 17.9312L10.4238 14.3984L7.54989 17.9312C7.28046 18.2578 6.92122 18.4062 6.53203 18.4062C6.14285 18.4062 5.75367 18.2281 5.48424 17.8719C5.15493 17.4266 5.18487 16.6844 5.54412 16.2391L8.65756 12.3797C7.54989 12.1719 6.44222 11.8156 5.4543 11.2516C4.82563 10.8953 4.61607 10.1234 4.97531 9.47031C5.33456 8.84687 6.14285 8.63906 6.77153 8.99531C9.04674 10.2719 11.8908 10.2719 14.1959 9.02499C14.8246 8.66874 15.6329 8.90624 15.9622 9.52968C16.2915 10.1828 16.052 10.9547 15.4233 11.3109Z" fill="white"/>
</svg>
