<svg width="23" height="14" viewBox="0 0 23 14" fill="none" xmlns="http://www.w3.org/2000/svg">
<path d="M12.3605 14C4.78083 14 0.457483 8.74474 0.277344 0H4.07413C4.19884 6.41842 6.99793 9.13714 9.21504 9.6977V0H12.7901V5.53553C14.9795 5.2973 17.2797 2.77477 18.0557 0H21.6308C21.3384 1.43908 20.7555 2.80165 19.9186 4.0025C19.0817 5.20335 18.0088 6.21663 16.767 6.97898C18.1532 7.67555 19.3775 8.6615 20.3592 9.87175C21.3409 11.082 22.0577 12.489 22.4622 14H18.5269C18.1637 12.6876 17.4256 11.5128 16.4051 10.6228C15.3846 9.73284 14.1271 9.16727 12.7901 8.997V14H12.3605Z" fill="white"/>
</svg>
