<svg width="31" height="34" viewBox="0 0 31 34" fill="none" xmlns="http://www.w3.org/2000/svg">
<path d="M4.13369 33.5938C3.5664 33.5927 3.00916 33.4458 2.51677 33.1674C1.40802 32.5467 0.71875 31.3417 0.71875 30.0336V3.56035C0.71875 2.24856 1.40802 1.04722 2.51677 0.426471C3.02088 0.140228 3.59356 -0.00697252 4.17495 0.000253812C4.75634 0.00748015 5.3251 0.168869 5.82176 0.467551L28.722 14.0109C29.1993 14.3065 29.5927 14.7171 29.8655 15.2041C30.1382 15.6911 30.2812 16.2386 30.2812 16.7951C30.2812 17.3517 30.1382 17.8991 29.8655 18.3861C29.5927 18.8731 29.1993 19.2837 28.722 19.5794L5.81807 33.1264C5.30979 33.43 4.72763 33.5915 4.13369 33.5938Z" fill="white"/>
</svg>
