<svg width="51" height="51" viewBox="0 0 51 51" fill="none" xmlns="http://www.w3.org/2000/svg">
<g clip-path="url(#clip0_0_816)">
<path d="M17.7856 40.5884C17.7856 42.2361 19.1262 43.5767 20.7739 43.5767C22.4217 43.5767 23.7622 42.2361 23.7622 40.5884C23.7622 38.9406 22.4217 37.6001 20.7739 37.6001C19.1262 37.6001 17.7856 38.9406 17.7856 40.5884ZM22.2681 40.5884C22.2681 41.4122 21.5978 42.0825 20.7739 42.0825C19.9501 42.0825 19.2798 41.4122 19.2798 40.5884C19.2798 39.7645 19.9501 39.0942 20.7739 39.0942C21.5978 39.0942 22.2681 39.7645 22.2681 40.5884Z" fill="#006543"/>
<path d="M8.33331 40.5884C8.33331 42.2361 9.67386 43.5767 11.3216 43.5767C12.9693 43.5767 14.3099 42.2361 14.3099 40.5884C14.3099 38.9406 12.9693 37.6001 11.3216 37.6001C9.67386 37.6001 8.33331 38.9406 8.33331 40.5884ZM12.8157 40.5884C12.8157 41.4122 12.1455 42.0825 11.3216 42.0825C10.4977 42.0825 9.82745 41.4122 9.82745 40.5884C9.82745 39.7645 10.4977 39.0942 11.3216 39.0942C12.1455 39.0942 12.8157 39.7645 12.8157 40.5884Z" fill="#006543"/>
<path d="M36.6901 40.5884C36.6901 42.2361 38.0307 43.5767 39.6784 43.5767C41.3261 43.5767 42.6667 42.2361 42.6667 40.5884C42.6667 38.9406 41.3261 37.6001 39.6784 37.6001C38.0307 37.6001 36.6901 38.9406 36.6901 40.5884ZM41.1725 40.5884C41.1725 41.4122 40.5023 42.0825 39.6784 42.0825C38.8545 42.0825 38.1843 41.4122 38.1843 40.5884C38.1843 39.7645 38.8545 39.0942 39.6784 39.0942C40.5023 39.0942 41.1725 39.7645 41.1725 40.5884Z" fill="#006543"/>
<path d="M27.2379 40.5884C27.2379 42.2361 28.5785 43.5767 30.2262 43.5767C31.8739 43.5767 33.2145 42.2361 33.2145 40.5884C33.2145 38.9406 31.8739 37.6001 30.2262 37.6001C28.5785 37.6001 27.2379 38.9406 27.2379 40.5884ZM31.7203 40.5884C31.7203 41.4122 31.0501 42.0825 30.2262 42.0825C29.4023 42.0825 28.7321 41.4122 28.7321 40.5884C28.7321 39.7645 29.4023 39.0942 30.2262 39.0942C31.0501 39.0942 31.7203 39.7645 31.7203 40.5884Z" fill="#006543"/>
<path d="M24.7529 45.8179H26.2471V47.312H24.7529V45.8179Z" fill="#006543"/>
<path d="M43.6574 45.8179H45.1516V47.312H43.6574V45.8179Z" fill="#006543"/>
<path d="M34.2053 45.8179H35.6994V47.312H34.2053V45.8179Z" fill="#006543"/>
<path d="M5.84845 45.8179H7.34259V47.312H5.84845V45.8179Z" fill="#006543"/>
<path d="M15.3006 45.8179H16.7947V47.312H15.3006V45.8179Z" fill="#006543"/>
<path d="M43.6574 48.8062H45.1516V50.3003H43.6574V48.8062Z" fill="#006543"/>
<path d="M0 29.3823V48.0591C0 49.2948 1.00546 50.3003 2.24121 50.3003H42.1633V48.8062H2.24121C1.82923 48.8062 1.49414 48.4711 1.49414 48.0591V36.4633H6.59544C7.81097 36.4633 8.696 35.8911 9.47694 35.3863C10.1195 34.9709 10.6744 34.6121 11.3217 34.6121C11.9688 34.6121 12.5237 34.9709 13.1664 35.3863C13.9473 35.8911 14.8324 36.4633 16.0479 36.4633C17.2634 36.4633 18.1484 35.8911 18.9294 35.3863C19.5719 34.9709 20.1269 34.6121 20.7741 34.6121C21.4212 34.6121 21.9761 34.9709 22.6188 35.3863C23.3997 35.8911 24.2849 36.4633 25.5003 36.4633C26.7158 36.4633 27.6009 35.8911 28.3818 35.3863C29.0244 34.9709 29.5793 34.6121 30.2266 34.6121C30.8736 34.6121 31.4286 34.9709 32.0712 35.3863C32.8522 35.8911 33.7373 36.4633 34.9527 36.4633C36.1682 36.4633 37.0533 35.8911 37.8342 35.3863C38.4768 34.9709 39.0317 34.6121 39.6789 34.6121C40.3261 34.6121 40.881 34.9709 41.5237 35.3863C42.3046 35.8911 43.1896 36.4633 44.4052 36.4633H49.5059V48.0592C49.5059 48.4711 49.1708 48.8063 48.7588 48.8063H46.6457V50.3004H48.7588C49.9945 50.3004 51 49.295 51 48.0592V29.3824H0L0 29.3823ZM44.4046 34.9691C43.63 34.9691 43.0295 34.5809 42.3343 34.1315C41.5994 33.6564 40.7664 33.1179 39.6784 33.1179C38.5904 33.1179 37.7574 33.6564 37.0225 34.1315C36.3273 34.5809 35.7269 34.9691 34.9523 34.9691C34.1778 34.9691 33.5773 34.5809 32.8821 34.1315C32.1472 33.6564 31.3143 33.1179 30.2263 33.1179C29.1382 33.1179 28.3053 33.6564 27.5704 34.1315C26.8752 34.5809 26.2747 34.9691 25.5001 34.9691C24.7255 34.9691 24.1251 34.5809 23.4299 34.1315C22.695 33.6564 21.8621 33.1179 20.774 33.1179C19.686 33.1179 18.8531 33.6564 18.1181 34.1315C17.423 34.5809 16.8224 34.9691 16.0479 34.9691C15.2733 34.9691 14.6729 34.5809 13.9777 34.1315C13.2428 33.6564 12.4098 33.1179 11.3218 33.1179C10.2338 33.1179 9.40083 33.6564 8.66592 34.1315C7.97074 34.5809 7.3702 34.9691 6.59563 34.9691H1.49414V30.8766H49.5059V34.9691H44.4046Z" fill="#006543"/>
<path d="M14.1828 23.8918C15.614 23.8918 16.847 23.5774 17.8638 22.9585C18.1486 23.5001 18.4865 24.0006 18.8795 24.4516C20.4125 26.2111 22.7019 27.141 25.5 27.141C28.2981 27.141 30.5874 26.2111 32.1205 24.4516C32.5135 24.0005 32.8515 23.5001 33.1361 22.9585C34.153 23.5775 35.386 23.8918 36.8172 23.8918C38.9236 23.8918 40.6505 23.1877 41.8112 21.8557C42.8448 20.6696 43.391 19.0486 43.391 17.1679C43.391 14.4645 40.9314 10.5918 38.9549 7.48012C38.3954 6.59907 37.8668 5.76694 37.4642 5.06957L36.8172 3.94896L36.1702 5.06957C35.7676 5.76684 35.2392 6.59887 34.6799 7.47962C33.8355 8.8092 32.9055 10.2741 32.1158 11.7245C30.9594 9.48575 29.4978 7.18338 28.191 5.12585C27.4244 3.91888 26.7003 2.77885 26.1469 1.82031L25.5 0.699707L24.853 1.82031C24.2996 2.77875 23.5755 3.91878 22.8089 5.12585C21.5022 7.18338 20.0406 9.48585 18.8841 11.7245C18.0944 10.2741 17.1645 8.8092 16.3201 7.47962C15.7608 6.59877 15.2324 5.76684 14.8297 5.06957L14.1828 3.94896L13.5358 5.06957C13.1333 5.76674 12.605 6.59857 12.0455 7.47932C11.5228 8.30249 10.9821 9.15365 10.4518 10.0363L11.7325 10.8059C12.2533 9.93907 12.7888 9.09588 13.3068 8.28038C13.6124 7.79917 13.9089 7.3324 14.1828 6.89103C14.4567 7.3326 14.7532 7.79947 15.0588 8.28068C16.0809 9.89007 17.2314 11.7019 18.0744 13.403C17.296 15.1533 16.7871 16.8132 16.7871 18.2231C16.7871 19.4241 16.9553 20.5433 17.2796 21.5575C16.4655 22.1147 15.4269 22.3976 14.1828 22.3976C12.4974 22.3976 11.1962 21.885 10.3153 20.8741C9.52224 19.964 9.10309 18.6824 9.10309 17.1679C9.10309 16.0146 9.72126 14.3496 10.9929 12.0775L9.68899 11.3477C8.26996 13.8834 7.60895 15.7328 7.60895 17.1679C7.60895 19.0485 8.15521 20.6695 9.18875 21.8557C10.3494 23.1877 12.0762 23.8918 14.1828 23.8918ZM35.9411 8.28068C36.2467 7.79937 36.5433 7.3325 36.8172 6.89103C37.0912 7.3327 37.3879 7.79986 37.6937 8.28128C39.4676 11.0741 41.8969 14.8991 41.8969 17.168C41.8969 18.6825 41.4777 19.9641 40.6846 20.8742C39.8038 21.8851 38.5026 22.3977 36.8172 22.3977C35.5731 22.3977 34.5345 22.1148 33.7204 21.5576C34.0447 20.5434 34.2129 19.4242 34.2129 18.2232C34.2129 16.8132 33.704 15.1534 32.9256 13.4031C33.7686 11.7019 34.9191 9.89007 35.9411 8.28068ZM24.0702 5.92691C24.5763 5.13013 25.0641 4.36224 25.5 3.65073C25.936 4.36214 26.4237 5.13013 26.9298 5.92691C29.509 9.98768 32.7187 15.0414 32.7187 18.2231C32.7187 20.3607 32.1223 22.1751 30.994 23.47C29.7354 24.9144 27.887 25.6469 25.5 25.6469C23.1129 25.6469 21.2645 24.9144 20.0059 23.47C18.8777 22.1751 18.2813 20.3607 18.2813 18.2231C18.2812 15.0414 21.491 9.98768 24.0702 5.92691Z" fill="#006543"/>
<path d="M26.4983 11.7061L27.8265 11.0218L28.5108 12.3501L27.1826 13.0343L26.4983 11.7061Z" fill="#006543"/>
<path d="M25.129 9.04785L26.4573 8.36349L27.1417 9.69178L25.8133 10.3761L25.129 9.04785Z" fill="#006543"/>
<path d="M6.9067 23.7847L5.74366 22.8466L4.58929 24.2778V18.2671H3.09514V24.2778L1.94077 22.8466L0.777832 23.7847L3.84222 27.5842L6.9067 23.7847Z" fill="#006543"/>
<path d="M50.2221 23.7847L49.0592 22.8466L47.9048 24.2778V18.2671H46.4107V24.2778L45.2563 22.8466L44.0933 23.7847L47.1577 27.5842L50.2221 23.7847Z" fill="#006543"/>
</g>
<defs>
<clipPath id="clip0_0_816">
<rect width="51" height="51" fill="white"/>
</clipPath>
</defs>
</svg>
