<svg width="13" height="13" viewBox="0 0 13 13" fill="none" xmlns="http://www.w3.org/2000/svg">
<path d="M10.2491 0.833984H3.74056C3.04766 0.833984 2.48398 1.39936 2.48398 2.09434V2.48457H2.08959C1.39669 2.48457 0.833008 3.04995 0.833008 3.74532V10.2501C0.833008 10.9451 1.39669 11.5105 2.08959 11.5105H8.59832C9.29346 11.5105 9.85888 10.9451 9.85888 10.2501V9.85989H10.2491C10.9442 9.85989 11.5098 9.29451 11.5098 8.59915V2.09431C11.5098 1.39936 10.9442 0.833984 10.2491 0.833984ZM9.08745 10.2501C9.08745 10.5198 8.86805 10.739 8.59832 10.739H2.08959C1.82213 10.739 1.60444 10.5198 1.60444 10.2501V3.74528C1.60444 3.47559 1.82217 3.25596 2.08959 3.25596H2.86969H8.59832C8.86802 3.25596 9.08745 3.47555 9.08745 3.74528V9.4741V10.2501ZM10.7384 8.59911C10.7384 8.8688 10.519 9.08842 10.2491 9.08842H9.85884V3.74528C9.85884 3.04995 9.29346 2.48453 8.59829 2.48453H3.25537V2.09431C3.25537 1.82461 3.47311 1.60537 3.74052 1.60537H10.2491C10.5189 1.60537 10.7384 1.82461 10.7384 2.09431V8.59911Z" fill="#BDBDBD"/>
</svg>
