<svg width="29" height="29" viewBox="0 0 29 29" fill="none" xmlns="http://www.w3.org/2000/svg">
<path d="M14.4998 23.0792C15.61 23.0792 16.5341 22.2286 16.6276 21.1223L18.071 3.88369C18.155 2.88389 17.816 1.89554 17.1374 1.15735C16.4596 0.420111 15.5024 0 14.4998 0C13.4972 0 12.54 0.420111 11.8622 1.15735C11.1834 1.89554 10.8446 2.88389 10.9286 3.88369L12.372 21.1223C12.4655 22.2286 13.3896 23.0792 14.4998 23.0792Z" fill="white"/>
<path d="M14.4999 24.3477C13.215 24.3477 12.1738 25.3888 12.1738 26.6737C12.1738 27.9585 13.215 28.9997 14.4999 28.9997C15.7848 28.9997 16.826 27.9585 16.826 26.6737C16.826 25.3888 15.7848 24.3477 14.4999 24.3477Z" fill="white"/>
</svg>
