<svg width="8" height="5" viewBox="0 0 8 5" fill="none" xmlns="http://www.w3.org/2000/svg">
<path d="M4.2809 4.62324L7.39598 1.52382C7.46809 1.45213 7.50781 1.35644 7.50781 1.2544C7.50781 1.15236 7.46809 1.05667 7.39598 0.984983L7.16663 0.756732C7.01718 0.608207 6.77429 0.608207 6.62506 0.756732L4.0092 3.3594L1.39044 0.753844C1.31833 0.682158 1.22221 0.642578 1.11971 0.642578C1.0171 0.642578 0.920979 0.682158 0.848815 0.753844L0.619521 0.982095C0.547414 1.05384 0.50769 1.14948 0.50769 1.25151C0.50769 1.35355 0.547414 1.44924 0.619521 1.52093L3.73745 4.62324C3.80979 4.6951 3.90636 4.73456 4.00903 4.73434C4.1121 4.73456 4.20862 4.6951 4.2809 4.62324Z" fill="#444444"/>
</svg>
