<svg width="319" height="330" viewBox="0 0 319 330" fill="none" xmlns="http://www.w3.org/2000/svg">
<path d="M23.607 218.549L24.5926 214.617H27.5862L25.8666 221.458H5.6313L0.0884972 199.393H31.3974L29.6778 206.234H26.6836L27.6082 202.546L27.2639 202.459L27.1469 201.913H4.36276H3.72154L3.87785 202.535L7.90277 218.549L7.99781 218.927H8.38769H23.122H23.5121L23.607 218.549ZM-4.0533 191.973L-3.9583 192.351H-3.56836H35.0781H35.468L35.563 191.973L36.406 188.617H39.3995L37.8228 194.883H-6.31306L-7.88983 188.617H-4.89626L-4.0533 191.973Z" stroke="#258389" stroke-opacity="0.3"/>
<path d="M209.064 218.549L210.05 214.617H213.043L211.324 221.458H191.088L185.546 199.393H216.854L215.135 206.234H212.141L213.065 202.546L212.721 202.459L212.604 201.913H189.82H189.179L189.335 202.535L193.36 218.549L193.455 218.927H193.845H208.579H208.969L209.064 218.549ZM181.404 191.973L181.499 192.351H181.889H220.535H220.925L221.02 191.973L221.863 188.617H224.857L223.28 194.883H179.144L177.567 188.617H180.561L181.404 191.973Z" stroke="#258389" stroke-opacity="0.3"/>
<path d="M23.6078 72.1283L24.5953 68.073H27.5906L25.8639 75.1452H5.63402L0.0840454 52.401H31.4018L29.6751 59.4731H26.6791L27.609 55.6545L27.2671 55.5712L27.1469 55.0252H4.36276H3.726L3.87703 55.6438L7.90196 72.1286L7.99508 72.51H8.38769H23.122H23.5149L23.6078 72.1283ZM-4.05411 44.771L-3.96102 45.1525H-3.56836H35.0781H35.4707L35.5638 44.771L36.4087 41.3086H39.404L37.82 47.7877H-6.31033L-7.89429 41.3086H-4.89899L-4.05411 44.771Z" stroke="#258389" stroke-opacity="0.3"/>
<path d="M209.065 72.1283L210.052 68.073H213.048L211.321 75.1452H191.091L185.541 52.401H216.859L215.132 59.4731H212.136L213.066 55.6545L212.724 55.5712L212.604 55.0252H189.82H189.183L189.334 55.6438L193.359 72.1286L193.452 72.51H193.845H208.579H208.972L209.065 72.1283ZM181.403 44.771L181.496 45.1525H181.889H220.535H220.928L221.021 44.771L221.866 41.3086H224.861L223.277 47.7877H179.147L177.563 41.3086H180.558L181.403 44.771Z" stroke="#258389" stroke-opacity="0.3"/>
<path d="M23.6078 146.777L24.5953 142.721H27.5906L25.8639 149.794H5.63402L0.0840454 127.049H31.4018L29.6751 134.122H26.6791L27.609 130.303L27.2671 130.22L27.1469 129.674H4.36276H3.726L3.87703 130.292L7.90196 146.777L7.99508 147.158H8.38769H23.122H23.5149L23.6078 146.777ZM-4.05411 119.419L-3.96102 119.801H-3.56836H35.0781H35.4707L35.5638 119.419L36.4087 115.957H39.404L37.82 122.436H-6.31033L-7.89429 115.957H-4.89899L-4.05411 119.419Z" stroke="#258389" stroke-opacity="0.3"/>
<path d="M209.065 146.777L210.052 142.721H213.048L211.321 149.794H191.091L185.541 127.049H216.859L215.132 134.122H212.136L213.066 130.303L212.724 130.22L212.604 129.674H189.82H189.183L189.334 130.292L193.359 146.777L193.452 147.158H193.845H208.579H208.972L209.065 146.777ZM181.403 119.419L181.496 119.801H181.889H220.535H220.928L221.021 119.419L221.866 115.957H224.861L223.277 122.436H179.147L177.563 115.957H180.558L181.403 119.419Z" stroke="#258389" stroke-opacity="0.3"/>
<path d="M116.337 218.549L117.323 214.617H120.317L118.597 221.458H98.3618L92.819 199.393H124.128L122.408 206.234H119.414L120.339 202.546L119.994 202.459L119.877 201.913H97.0932H96.452L96.6083 202.535L100.633 218.549L100.728 218.927H101.118H115.852H116.243L116.337 218.549ZM88.6772 191.973L88.7722 192.351H89.1621H127.809H128.198L128.293 191.973L129.136 188.617H132.13L130.553 194.883H86.4174L84.8406 188.617H87.8342L88.6772 191.973Z" stroke="#258389" stroke-opacity="0.3"/>
<path d="M301.795 218.549L302.78 214.617H305.774L304.054 221.458H283.819L278.276 199.393H309.585L307.865 206.234H304.871L305.796 202.546L305.451 202.459L305.334 201.913H282.55H281.909L282.065 202.535L286.09 218.549L286.185 218.927H286.575H301.31H301.7L301.795 218.549ZM274.134 191.973L274.229 192.351H274.619H313.266H313.656L313.75 191.973L314.593 188.617H317.587L316.01 194.883H271.874L270.298 188.617H273.291L274.134 191.973Z" stroke="#258389" stroke-opacity="0.3"/>
<path d="M116.338 72.1283L117.326 68.073H120.321L118.594 75.1452H98.3645L92.8145 52.401H124.132L122.406 59.4731H119.41L120.339 55.6545L119.998 55.5712L119.877 55.0252H97.0932H96.4565L96.6075 55.6438L100.632 72.1286L100.726 72.51H101.118H115.852H116.245L116.338 72.1283ZM88.6764 44.771L88.7694 45.1525H89.1621H127.809H128.201L128.294 44.771L129.139 41.3086H132.134L130.551 47.7877H86.4201L84.8362 41.3086H87.8315L88.6764 44.771Z" stroke="#258389" stroke-opacity="0.3"/>
<path d="M116.337 143.898L117.323 139.967H120.317L118.597 146.808H98.3618L92.819 124.742H124.128L122.408 131.584H119.414L120.339 127.895L119.994 127.809L119.877 127.263H97.0932H96.452L96.6083 127.885L100.633 143.899L100.728 144.277H101.118H115.852H116.243L116.337 143.898ZM88.6772 117.323L88.7722 117.701H89.1621H127.809H128.198L128.293 117.323L129.136 113.967H132.13L130.553 120.232H86.4174L84.8406 113.967H87.8342L88.6772 117.323Z" stroke="#258389" stroke-opacity="0.3"/>
<path d="M301.795 143.898L302.78 139.967H305.774L304.054 146.808H283.819L278.276 124.742H309.585L307.865 131.584H304.871L305.796 127.895L305.451 127.809L305.334 127.263H282.55H281.909L282.065 127.885L286.09 143.899L286.185 144.277H286.575H301.31H301.7L301.795 143.898ZM274.134 117.323L274.229 117.701H274.619H313.266H313.656L313.75 117.323L314.593 113.967H317.587L316.01 120.232H271.874L270.298 113.967H273.291L274.134 117.323Z" stroke="#258389" stroke-opacity="0.3"/>
<path d="M145.893 112.897L144.907 116.828L141.914 116.828L143.633 109.987L163.869 109.987L169.412 132.053L138.103 132.053L139.822 125.211L142.816 125.211L141.892 128.9L142.236 128.986L142.353 129.532L165.137 129.532L165.778 129.532L165.622 128.91L161.597 112.896L161.502 112.518L161.112 112.518L146.378 112.518L145.988 112.518L145.893 112.897ZM173.553 139.472L173.458 139.094L173.068 139.094L134.422 139.094L134.032 139.094L133.937 139.472L133.094 142.828L130.1 142.828L131.677 136.563L175.813 136.563L177.39 142.828L174.396 142.828L173.553 139.472Z" stroke="#258389" stroke-opacity="0.3"/>
<path d="M53.1625 185.555L52.1769 189.487L49.1834 189.487L50.9029 182.645L71.1382 182.645L76.681 204.711L45.3722 204.711L47.0917 197.869L50.086 197.869L49.1613 201.558L49.5056 201.644L49.6226 202.19L72.4068 202.19L73.048 202.19L72.8917 201.568L68.8668 185.555L68.7717 185.176L68.3818 185.176L53.6475 185.176L53.2574 185.176L53.1625 185.555ZM80.8228 212.13L80.7278 211.752L80.3379 211.752L41.6915 211.752L41.3015 211.752L41.2065 212.13L40.3636 215.486L37.37 215.486L38.9468 209.221L83.0826 209.221L84.6594 215.486L81.6658 215.486L80.8228 212.13Z" stroke="#258389" stroke-opacity="0.3"/>
<path d="M238.62 185.555L237.634 189.487L234.64 189.487L236.36 182.645L256.595 182.645L262.138 204.711L230.829 204.711L232.549 197.869L235.543 197.869L234.618 201.558L234.963 201.644L235.08 202.19L257.864 202.19L258.505 202.19L258.349 201.568L254.324 185.555L254.229 185.176L253.839 185.176L239.105 185.176L238.714 185.176L238.62 185.555ZM266.28 212.13L266.185 211.752L265.795 211.752L227.148 211.752L226.759 211.752L226.664 212.13L225.821 215.486L222.827 215.486L224.404 209.221L268.54 209.221L270.116 215.486L267.123 215.486L266.28 212.13Z" stroke="#258389" stroke-opacity="0.3"/>
<path d="M53.1625 38.2462L52.1769 42.178L49.1834 42.178L50.9029 35.3364L71.1382 35.3364L76.681 57.4023L45.3722 57.4023L47.0917 50.5608L50.086 50.5608L49.1613 54.2494L49.5056 54.3356L49.6226 54.8816L72.4068 54.8816L73.048 54.8816L72.8917 54.2597L68.8668 38.2459L68.7717 37.8678L68.3818 37.8678L53.6475 37.8678L53.2574 37.8678L53.1625 38.2462ZM80.8228 64.8219L80.7278 64.4437L80.3379 64.4437L41.6915 64.4437L41.3015 64.4437L41.2065 64.8219L40.3636 68.1777L37.37 68.1777L38.9468 61.9123L83.0826 61.9123L84.6594 68.1777L81.6658 68.1777L80.8228 64.8219Z" stroke="#258389" stroke-opacity="0.3"/>
<path d="M145.892 187.653L144.905 191.708L141.909 191.708L143.636 184.636L163.866 184.636L169.416 207.38L138.098 207.38L139.825 200.308L142.821 200.308L141.891 204.127L142.233 204.21L142.353 204.756L165.137 204.756L165.774 204.756L165.623 204.137L161.598 187.653L161.505 187.271L161.112 187.271L146.378 187.271L145.985 187.271L145.892 187.653ZM173.554 215.01L173.461 214.629L173.068 214.629L134.422 214.629L134.029 214.629L133.936 215.01L133.091 218.473L130.096 218.473L131.68 211.994L175.81 211.994L177.394 218.473L174.399 218.473L173.554 215.01Z" stroke="#258389" stroke-opacity="0.3"/>
<path d="M145.892 225.477L144.905 229.532L141.909 229.532L143.636 222.46L163.866 222.46L169.416 245.205L138.098 245.205L139.825 238.132L142.821 238.132L141.891 241.951L142.233 242.034L142.353 242.58L165.137 242.58L165.774 242.58L165.623 241.962L161.598 225.477L161.505 225.095L161.112 225.095L146.378 225.095L145.985 225.095L145.892 225.477ZM173.554 252.834L173.461 252.453L173.068 252.453L134.422 252.453L134.029 252.453L133.936 252.834L133.091 256.297L130.096 256.297L131.68 249.818L175.81 249.818L177.394 256.297L174.399 256.297L173.554 252.834Z" stroke="#258389" stroke-opacity="0.3"/>
<path d="M145.892 261.721L144.905 265.777L141.909 265.777L143.636 258.704L163.866 258.704L169.416 281.449L138.098 281.449L139.825 274.376L142.821 274.376L141.891 278.195L142.233 278.278L142.353 278.824L165.137 278.824L165.774 278.824L165.623 278.206L161.598 261.721L161.505 261.34L161.112 261.34L146.378 261.34L145.985 261.34L145.892 261.721ZM173.554 289.079L173.461 288.697L173.068 288.697L134.422 288.697L134.029 288.697L133.936 289.079L133.091 292.541L130.096 292.541L131.68 286.062L175.81 286.062L177.394 292.541L174.399 292.541L173.554 289.079Z" stroke="#258389" stroke-opacity="0.3"/>
<path d="M145.893 38.2462L144.907 42.178L141.914 42.178L143.633 35.3364L163.869 35.3364L169.412 57.4023L138.103 57.4023L139.822 50.5608L142.816 50.5608L141.892 54.2494L142.236 54.3356L142.353 54.8816L165.137 54.8816L165.778 54.8816L165.622 54.2597L161.597 38.2459L161.502 37.8678L161.112 37.8678L146.378 37.8678L145.988 37.8678L145.893 38.2462ZM173.553 64.8219L173.458 64.4437L173.068 64.4437L134.422 64.4437L134.032 64.4437L133.937 64.8219L133.094 68.1777L130.1 68.1777L131.677 61.9123L175.813 61.9123L177.39 68.1777L174.396 68.1777L173.553 64.8219Z" stroke="#258389" stroke-opacity="0.3"/>
<path d="M53.1625 112.897L52.1769 116.828L49.1834 116.828L50.9029 109.987L71.1382 109.987L76.681 132.053L45.3722 132.053L47.0917 125.211L50.086 125.211L49.1613 128.9L49.5056 128.986L49.6226 129.532L72.4068 129.532L73.048 129.532L72.8917 128.91L68.8668 112.896L68.7717 112.518L68.3818 112.518L53.6475 112.518L53.2574 112.518L53.1625 112.897ZM80.8228 139.472L80.7278 139.094L80.3379 139.094L41.6915 139.094L41.3015 139.094L41.2065 139.472L40.3636 142.828L37.37 142.828L38.9468 136.563L83.0826 136.563L84.6594 142.828L81.6658 142.828L80.8228 139.472Z" stroke="#258389" stroke-opacity="0.3"/>
<path d="M238.62 112.897L237.634 116.828L234.64 116.828L236.36 109.987L256.595 109.987L262.138 132.053L230.829 132.053L232.549 125.211L235.543 125.211L234.618 128.9L234.963 128.986L235.08 129.532L257.864 129.532L258.505 129.532L258.349 128.91L254.324 112.896L254.229 112.518L253.839 112.518L239.105 112.518L238.714 112.518L238.62 112.897ZM266.28 139.472L266.185 139.094L265.795 139.094L227.148 139.094L226.759 139.094L226.664 139.472L225.821 142.828L222.827 142.828L224.404 136.563L268.54 136.563L270.116 142.828L267.123 142.828L266.28 139.472Z" stroke="#258389" stroke-opacity="0.3"/>
<path d="M23.6078 253.279L24.5953 249.223H27.5906L25.8639 256.296H5.63402L0.0840454 233.551H31.4018L29.6751 240.624H26.6791L27.609 236.805L27.2671 236.722L27.1469 236.176H4.36276H3.726L3.87703 236.794L7.90196 253.279L7.99508 253.66H8.38769H23.122H23.5149L23.6078 253.279ZM-4.05411 225.921L-3.96102 226.303H-3.56836H35.0781H35.4707L35.5638 225.921L36.4087 222.459H39.404L37.82 228.938H-6.31033L-7.89429 222.459H-4.89899L-4.05411 225.921Z" stroke="#258389" stroke-opacity="0.3"/>
<path d="M209.065 253.279L210.052 249.223H213.048L211.321 256.296H191.091L185.541 233.551H216.859L215.132 240.624H212.136L213.066 236.805L212.724 236.722L212.604 236.176H189.82H189.183L189.334 236.794L193.359 253.279L193.452 253.66H193.845H208.579H208.972L209.065 253.279ZM181.403 225.921L181.496 226.303H181.889H220.535H220.928L221.021 225.921L221.866 222.459H224.861L223.277 228.938H179.147L177.563 222.459H180.558L181.403 225.921Z" stroke="#258389" stroke-opacity="0.3"/>
<path d="M209.065 290.226L210.052 286.171H213.048L211.321 293.243H191.091L185.541 270.499H216.859L215.132 277.571H212.136L213.066 273.752L212.724 273.669L212.604 273.123H189.82H189.183L189.334 273.741L193.359 290.226L193.452 290.608H193.845H208.579H208.972L209.065 290.226ZM181.403 262.869L181.496 263.25H181.889H220.535H220.928L221.021 262.869L221.866 259.406H224.861L223.277 265.885H179.147L177.563 259.406H180.558L181.403 262.869Z" stroke="#258389" stroke-opacity="0.3"/>
<path d="M23.607 106.076L24.5926 102.144H27.5862L25.8666 108.986H5.6313L0.0884972 86.92H31.3974L29.6778 93.7615H26.6836L27.6082 90.0729L27.2639 89.9866L27.1469 89.4407H4.36276H3.72154L3.87785 90.0625L7.90277 106.076L7.99781 106.454H8.38769H23.122H23.5121L23.607 106.076ZM-4.0533 79.5004L-3.9583 79.8786H-3.56836H35.0781H35.468L35.563 79.5004L36.406 76.1445H39.3995L37.8228 82.41H-6.31306L-7.88983 76.1445H-4.89626L-4.0533 79.5004Z" stroke="#258389" stroke-opacity="0.3"/>
<path d="M209.064 106.076L210.05 102.144H213.043L211.324 108.986H191.088L185.546 86.92H216.854L215.135 93.7615H212.141L213.065 90.0729L212.721 89.9866L212.604 89.4407H189.82H189.179L189.335 90.0625L193.36 106.076L193.455 106.454H193.845H208.579H208.969L209.064 106.076ZM181.404 79.5004L181.499 79.8786H181.889H220.535H220.925L221.02 79.5004L221.863 76.1445H224.857L223.28 82.41H179.144L177.567 76.1445H180.561L181.404 79.5004Z" stroke="#258389" stroke-opacity="0.3"/>
<path d="M23.607 180.726L24.5926 176.795H27.5862L25.8666 183.636H5.6313L0.0884972 161.57H31.3974L29.6778 168.412H26.6836L27.6082 164.723L27.2639 164.637L27.1469 164.091H4.36276H3.72154L3.87785 164.713L7.90277 180.727L7.99781 181.105H8.38769H23.122H23.5121L23.607 180.726ZM-4.0533 154.151L-3.9583 154.529H-3.56836H35.0781H35.468L35.563 154.151L36.406 150.795H39.3995L37.8228 157.06H-6.31306L-7.88983 150.795H-4.89626L-4.0533 154.151Z" stroke="#258389" stroke-opacity="0.3"/>
<path d="M209.064 180.726L210.05 176.795H213.043L211.324 183.636H191.088L185.546 161.57H216.854L215.135 168.412H212.141L213.065 164.723L212.721 164.637L212.604 164.091H189.82H189.179L189.335 164.713L193.36 180.727L193.455 181.105H193.845H208.579H208.969L209.064 180.726ZM181.404 154.151L181.499 154.529H181.889H220.535H220.925L221.02 154.151L221.863 150.795H224.857L223.28 157.06H179.144L177.567 150.795H180.561L181.404 154.151Z" stroke="#258389" stroke-opacity="0.3"/>
<path d="M116.338 253.279L117.326 249.223H120.321L118.594 256.296H98.3645L92.8145 233.551H124.132L122.406 240.624H119.41L120.339 236.805L119.998 236.722L119.877 236.176H97.0932H96.4565L96.6075 236.794L100.632 253.279L100.726 253.66H101.118H115.852H116.245L116.338 253.279ZM88.6764 225.921L88.7694 226.303H89.1621H127.809H128.201L128.294 225.921L129.139 222.459H132.134L130.551 228.938H86.4201L84.8362 222.459H87.8315L88.6764 225.921Z" stroke="#258389" stroke-opacity="0.3"/>
<path d="M116.338 290.353L117.326 286.298H120.321L118.594 293.37H98.3645L92.8145 270.626H124.132L122.406 277.698H119.41L120.339 273.879L119.998 273.796L119.877 273.25H97.0932H96.4565L96.6075 273.868L100.632 290.353L100.726 290.735H101.118H115.852H116.245L116.338 290.353ZM88.6764 262.996L88.7694 263.377H89.1621H127.809H128.201L128.294 262.996L129.139 259.533H132.134L130.551 266.012H86.4201L84.8362 259.533H87.8315L88.6764 262.996Z" stroke="#258389" stroke-opacity="0.3"/>
<path d="M116.338 326.484L117.326 322.429H120.321L118.594 329.501H98.3645L92.8145 306.756H124.132L122.406 313.829H119.41L120.339 310.01L119.998 309.927L119.877 309.381H97.0932H96.4565L96.6075 309.999L100.632 326.484L100.726 326.865H101.118H115.852H116.245L116.338 326.484ZM88.6764 299.126L88.7694 299.508H89.1621H127.809H128.201L128.294 299.126L129.139 295.664H132.134L130.551 302.143H86.4201L84.8362 295.664H87.8315L88.6764 299.126Z" stroke="#258389" stroke-opacity="0.3"/>
<path d="M301.795 253.279L302.783 249.223H305.778L304.051 256.296H283.822L278.272 233.551H309.589L307.863 240.624H304.867L305.796 236.805L305.455 236.722L305.334 236.176H282.55H281.913L282.065 236.794L286.089 253.279L286.183 253.66H286.575H301.31H301.702L301.795 253.279ZM274.133 225.921L274.226 226.303H274.619H313.266H313.658L313.751 225.921L314.596 222.459H317.591L316.008 228.938H271.877L270.293 222.459H273.289L274.133 225.921Z" stroke="#258389" stroke-opacity="0.3"/>
<path d="M116.337 106.076L117.323 102.144H120.317L118.597 108.986H98.3618L92.819 86.92H124.128L122.408 93.7615H119.414L120.339 90.0729L119.994 89.9866L119.877 89.4407H97.0932H96.452L96.6083 90.0625L100.633 106.076L100.728 106.454H101.118H115.852H116.243L116.337 106.076ZM88.6772 79.5004L88.7722 79.8786H89.1621H127.809H128.198L128.293 79.5004L129.136 76.1445H132.13L130.553 82.41H86.4174L84.8406 76.1445H87.8342L88.6772 79.5004Z" stroke="#258389" stroke-opacity="0.3"/>
<path d="M301.795 106.076L302.78 102.144H305.774L304.054 108.986H283.819L278.276 86.92H309.585L307.865 93.7615H304.871L305.796 90.0729L305.451 89.9866L305.334 89.4407H282.55H281.909L282.065 90.0625L286.09 106.076L286.185 106.454H286.575H301.31H301.7L301.795 106.076ZM274.134 79.5004L274.229 79.8786H274.619H313.266H313.656L313.75 79.5004L314.593 76.1445H317.587L316.01 82.41H271.874L270.298 76.1445H273.291L274.134 79.5004Z" stroke="#258389" stroke-opacity="0.3"/>
<path d="M301.795 71.9413L302.78 68.0095H305.774L304.054 74.8511H283.819L278.276 52.7852H309.585L307.865 59.6267H304.871L305.796 55.9381L305.451 55.8518L305.334 55.3059H282.55H281.909L282.065 55.9278L286.09 71.9416L286.185 72.3197H286.575H301.31H301.7L301.795 71.9413ZM274.134 45.3656L274.229 45.7438H274.619H313.266H313.656L313.75 45.3656L314.593 42.0098H317.587L316.01 48.2752H271.874L270.298 42.0098H273.291L274.134 45.3656Z" stroke="#258389" stroke-opacity="0.3"/>
<path d="M116.338 178.628L117.326 174.573H120.321L118.594 181.645H98.3645L92.8145 158.901H124.132L122.406 165.973H119.41L120.339 162.154L119.998 162.071L119.877 161.525H97.0932H96.4565L96.6075 162.144L100.632 178.629L100.726 179.01H101.118H115.852H116.245L116.338 178.628ZM88.6764 151.271L88.7694 151.652H89.1621H127.809H128.201L128.294 151.271L129.139 147.809H132.134L130.551 154.288H86.4201L84.8362 147.809H87.8315L88.6764 151.271Z" stroke="#258389" stroke-opacity="0.3"/>
<path d="M301.795 178.628L302.783 174.573H305.778L304.051 181.645H283.822L278.272 158.901H309.589L307.863 165.973H304.867L305.796 162.154L305.455 162.071L305.334 161.525H282.55H281.913L282.065 162.144L286.089 178.629L286.183 179.01H286.575H301.31H301.702L301.795 178.628ZM274.133 151.271L274.226 151.652H274.619H313.266H313.658L313.751 151.271L314.596 147.809H317.591L316.008 154.288H271.877L270.293 147.809H273.289L274.133 151.271Z" stroke="#258389" stroke-opacity="0.3"/>
<path d="M145.893 79.0548L144.907 82.9866L141.914 82.9866L143.633 76.145L163.869 76.145L169.412 98.2109L138.103 98.2109L139.822 91.3693L142.816 91.3693L141.892 95.058L142.236 95.1442L142.353 95.6902L165.137 95.6902L165.778 95.6902L165.622 95.0683L161.597 79.0545L161.502 78.6764L161.112 78.6764L146.378 78.6764L145.988 78.6764L145.893 79.0548ZM173.553 105.63L173.458 105.252L173.068 105.252L134.422 105.252L134.032 105.252L133.937 105.63L133.094 108.986L130.1 108.986L131.677 102.721L175.813 102.721L177.39 108.986L174.396 108.986L173.553 105.63Z" stroke="#258389" stroke-opacity="0.3"/>
<path d="M53.1617 150.825L52.1742 154.88L49.1789 154.88L50.9057 147.808L71.1355 147.808L76.6855 170.552L45.3677 170.552L47.0945 163.48L50.0904 163.48L49.1605 167.299L49.5024 167.382L49.6226 167.928L72.4068 167.928L73.0435 167.928L72.8925 167.309L68.8676 150.825L68.7744 150.443L68.3818 150.443L53.6475 150.443L53.2547 150.443L53.1617 150.825ZM80.8236 178.182L80.7306 177.801L80.3379 177.801L41.6915 177.801L41.2988 177.801L41.2057 178.182L40.3608 181.645L37.3655 181.645L38.9495 175.165L83.0799 175.165L84.6638 181.645L81.6685 181.645L80.8236 178.182Z" stroke="#258389" stroke-opacity="0.3"/>
<path d="M238.619 150.825L237.631 154.88L234.636 154.88L236.363 147.808L256.593 147.808L262.143 170.552L230.825 170.552L232.551 163.48L235.547 163.48L234.618 167.299L234.959 167.382L235.08 167.928L257.864 167.928L258.501 167.928L258.35 167.309L254.325 150.825L254.231 150.443L253.839 150.443L239.105 150.443L238.712 150.443L238.619 150.825ZM266.281 178.182L266.188 177.801L265.795 177.801L227.148 177.801L226.756 177.801L226.663 178.182L225.818 181.645L222.823 181.645L224.407 175.165L268.537 175.165L270.121 181.645L267.126 181.645L266.281 178.182Z" stroke="#258389" stroke-opacity="0.3"/>
<path d="M53.1617 3.51624L52.1742 7.57148L49.1789 7.57148L50.9057 0.499314L71.1355 0.499316L76.6855 23.2436L45.3677 23.2436L47.0945 16.1714L50.0904 16.1714L49.1605 19.99L49.5024 20.0733L49.6226 20.6193L72.4068 20.6193L73.0435 20.6193L72.8925 20.0007L68.8676 3.51594L68.7744 3.13454L68.3818 3.13454L53.6475 3.13453L53.2547 3.13453L53.1617 3.51624ZM80.8236 30.8735L80.7306 30.492L80.3379 30.492L41.6915 30.492L41.2988 30.492L41.2057 30.8735L40.3608 34.3359L37.3655 34.3359L38.9495 27.8568L83.0799 27.8568L84.6638 34.3359L81.6685 34.3359L80.8236 30.8735Z" stroke="#258389" stroke-opacity="0.3"/>
<path d="M145.893 153.703L144.907 157.635L141.914 157.635L143.633 150.793L163.869 150.793L169.412 172.859L138.103 172.859L139.822 166.018L142.816 166.018L141.892 169.706L142.236 169.793L142.353 170.339L165.137 170.339L165.778 170.339L165.622 169.717L161.597 153.703L161.502 153.325L161.112 153.325L146.378 153.325L145.988 153.325L145.893 153.703ZM173.553 180.279L173.458 179.901L173.068 179.901L134.422 179.901L134.032 179.901L133.937 180.279L133.094 183.635L130.1 183.635L131.677 177.369L175.813 177.369L177.39 183.635L174.396 183.635L173.553 180.279Z" stroke="#258389" stroke-opacity="0.3"/>
<path d="M145.892 3.51624L144.905 7.57148L141.909 7.57148L143.636 0.499314L163.866 0.499316L169.416 23.2436L138.098 23.2436L139.825 16.1714L142.821 16.1714L141.891 19.99L142.233 20.0733L142.353 20.6193L165.137 20.6193L165.774 20.6193L165.623 20.0007L161.598 3.51594L161.505 3.13454L161.112 3.13454L146.378 3.13453L145.985 3.13453L145.892 3.51624ZM173.554 30.8735L173.461 30.492L173.068 30.492L134.422 30.492L134.029 30.492L133.936 30.8735L133.091 34.3359L130.096 34.3359L131.68 27.8568L175.81 27.8568L177.394 34.3359L174.399 34.3359L173.554 30.8735Z" stroke="#258389" stroke-opacity="0.3"/>
<path d="M53.1617 225.475L52.1742 229.53L49.1789 229.53L50.9057 222.458L71.1355 222.458L76.6855 245.203L45.3677 245.203L47.0945 238.13L50.0904 238.13L49.1605 241.949L49.5024 242.032L49.6226 242.578L72.4068 242.578L73.0435 242.578L72.8925 241.96L68.8676 225.475L68.7744 225.094L68.3818 225.094L53.6475 225.094L53.2547 225.094L53.1617 225.475ZM80.8236 252.833L80.7306 252.451L80.3379 252.451L41.6915 252.451L41.2988 252.451L41.2057 252.832L40.3608 256.295L37.3655 256.295L38.9495 249.816L83.0799 249.816L84.6638 256.295L81.6685 256.295L80.8236 252.833Z" stroke="#258389" stroke-opacity="0.3"/>
<path d="M53.1617 260.1L52.1742 264.155L49.1789 264.155L50.9057 257.083L71.1355 257.083L76.6855 279.828L45.3677 279.828L47.0945 272.755L50.0904 272.755L49.1605 276.574L49.5024 276.657L49.6226 277.203L72.4068 277.203L73.0435 277.203L72.8925 276.585L68.8676 260.1L68.7744 259.719L68.3818 259.719L53.6475 259.719L53.2547 259.719L53.1617 260.1ZM80.8236 287.458L80.7306 287.076L80.3379 287.076L41.6915 287.076L41.2988 287.076L41.2057 287.457L40.3608 290.92L37.3655 290.92L38.9495 284.441L83.0799 284.441L84.6638 290.92L81.6685 290.92L80.8236 287.458Z" stroke="#258389" stroke-opacity="0.3"/>
<path d="M238.619 225.477L237.631 229.532L234.636 229.532L236.363 222.46L256.593 222.46L262.143 245.205L230.825 245.205L232.551 238.132L235.547 238.132L234.618 241.951L234.959 242.034L235.08 242.58L257.864 242.58L258.501 242.58L258.35 241.962L254.325 225.477L254.231 225.095L253.839 225.095L239.105 225.095L238.712 225.095L238.619 225.477ZM266.281 252.834L266.188 252.453L265.795 252.453L227.148 252.453L226.756 252.453L226.663 252.834L225.818 256.297L222.823 256.297L224.407 249.818L268.537 249.818L270.121 256.297L267.126 256.297L266.281 252.834Z" stroke="#258389" stroke-opacity="0.3"/>
<path d="M53.1625 79.0548L52.1769 82.9866L49.1834 82.9866L50.9029 76.145L71.1382 76.145L76.681 98.2109L45.3722 98.2109L47.0917 91.3693L50.086 91.3693L49.1613 95.058L49.5056 95.1442L49.6226 95.6902L72.4068 95.6902L73.048 95.6902L72.8917 95.0683L68.8668 79.0545L68.7717 78.6764L68.3818 78.6764L53.6475 78.6764L53.2574 78.6764L53.1625 79.0548ZM80.8228 105.63L80.7278 105.252L80.3379 105.252L41.6915 105.252L41.3015 105.252L41.2065 105.63L40.3636 108.986L37.37 108.986L38.9468 102.721L83.0826 102.721L84.6594 108.986L81.6658 108.986L80.8228 105.63Z" stroke="#258389" stroke-opacity="0.3"/>
<path d="M238.62 79.0548L237.634 82.9866L234.64 82.9866L236.36 76.145L256.595 76.145L262.138 98.2109L230.829 98.2109L232.549 91.3693L235.543 91.3693L234.618 95.058L234.963 95.1442L235.08 95.6902L257.864 95.6902L258.505 95.6902L258.349 95.0683L254.324 79.0545L254.229 78.6764L253.839 78.6764L239.105 78.6764L238.714 78.6764L238.62 79.0548ZM266.28 105.63L266.185 105.252L265.795 105.252L227.148 105.252L226.759 105.252L226.664 105.63L225.821 108.986L222.827 108.986L224.404 102.721L268.54 102.721L270.116 108.986L267.123 108.986L266.28 105.63Z" stroke="#258389" stroke-opacity="0.3"/>
</svg>
