<svg width="379" height="269" viewBox="0 0 379 269" fill="none" xmlns="http://www.w3.org/2000/svg">
<path d="M218.047 117.699L219.551 110.847H224.453L221.772 123.029H191.633L183.323 85.2544H230.065L227.383 97.4361H222.481L223.938 90.7979L223.619 90.7278L223.485 90.1727H189.938H189.316L189.45 90.7802L195.376 117.7L195.462 118.092H195.864H217.558H217.961L218.047 117.699ZM177.772 73.0251L177.858 73.4177H178.26H235.162H235.564L235.65 73.0251L236.945 67.1406H241.847L239.375 78.3539H174.047L171.575 67.1406H176.477L177.772 73.0251Z" stroke="#258389" stroke-opacity="0.3"/>
<path d="M218.047 239.602L219.551 232.749H224.453L221.772 244.931H191.633L183.323 207.157H230.065L227.383 219.338H222.481L223.938 212.7L223.619 212.63L223.485 212.075H189.938H189.316L189.45 212.683L195.376 239.602L195.462 239.995H195.864H217.558H217.961L218.047 239.602ZM177.772 194.927L177.858 195.32H178.26H235.162H235.564L235.65 194.927L236.945 189.043H241.847L239.375 200.256H174.047L171.575 189.043H176.477L177.772 194.927Z" stroke="#258389" stroke-opacity="0.3"/>
<path d="M81.5155 117.699L83.0201 110.847H87.9221L85.2403 123.029H55.1022L46.7913 85.2544H93.5336L90.8519 97.4361H85.9493L87.4068 90.7979L87.0874 90.7278L86.9533 90.1727H53.4066H52.7846L52.9183 90.7802L58.8445 117.7L58.9309 118.092H59.3328H81.0272H81.4293L81.5155 117.699ZM41.2408 73.0251L41.3271 73.4177H41.7291H98.6309H99.0328L99.1192 73.0251L100.414 67.1406H105.316L102.844 78.3539H37.5158L35.0441 67.1406H39.9461L41.2408 73.0251Z" stroke="#258389" stroke-opacity="0.3"/>
<path d="M81.5149 234.899L83.0176 228.25H87.9182L85.2429 240.056H55.0997L46.7953 203.389H93.5297L90.8544 215.194H85.9532L87.4061 208.766L87.0839 208.693L86.9533 208.138H53.4066H52.7806L52.919 208.749L58.8452 234.899L58.9334 235.289H59.3328H81.0272H81.4268L81.5149 234.899ZM41.2414 191.501L41.3297 191.891H41.7291H98.6309H99.0303L99.1185 191.501L100.411 185.793H105.312L102.847 196.657H37.5133L35.048 185.793H39.9486L41.2414 191.501Z" stroke="#258389" stroke-opacity="0.3"/>
<path d="M354.577 234.899L356.08 228.25H360.981L358.305 240.056H328.162L319.858 203.389H366.592L363.917 215.194H359.016L360.469 208.766L360.146 208.693L360.016 208.138H326.469H325.843L325.981 208.749L331.908 234.899L331.996 235.289H332.395H354.09H354.489L354.577 234.899ZM314.304 191.501L314.392 191.891H314.792H371.693H372.093L372.181 191.501L373.474 185.793H378.374L375.909 196.657H310.576L308.111 185.793H313.011L314.304 191.501Z" stroke="#258389" stroke-opacity="0.3"/>
<path d="M125.485 184.447L123.982 191.095L119.082 191.095L121.757 179.29L151.9 179.29L160.205 215.957L113.47 215.957L116.146 204.151L121.047 204.151L119.594 210.58L119.916 210.652L120.047 211.207L153.593 211.207L154.219 211.207L154.081 210.597L148.155 184.446L148.067 184.057L147.667 184.057L125.973 184.057L125.573 184.057L125.485 184.447ZM165.759 227.845L165.67 227.455L165.271 227.455L108.369 227.455L107.97 227.455L107.881 227.845L106.589 233.553L101.688 233.553L104.153 222.688L169.487 222.688L171.952 233.553L167.051 233.553L165.759 227.845Z" stroke="#258389" stroke-opacity="0.3"/>
<path d="M-11.0461 62.5443L-12.5488 69.193L-17.4494 69.193L-14.7741 57.3879L15.3691 57.3879L23.6735 94.0542L-23.0609 94.0542L-20.3856 82.249L-15.4845 82.249L-16.9373 88.6773L-16.6152 88.7501L-16.4846 89.3049L17.0621 89.3049L17.6881 89.3049L17.5498 88.6944L11.6236 62.544L11.5353 62.1545L11.1359 62.1545L-10.5584 62.1545L-10.958 62.1545L-11.0461 62.5443ZM29.2273 105.942L29.1391 105.553L28.7397 105.553L-28.1621 105.553L-28.5616 105.553L-28.6498 105.942L-29.9426 111.65L-34.8432 111.65L-32.378 100.786L32.9555 100.786L35.4207 111.65L30.5201 111.65L29.2273 105.942Z" stroke="#258389" stroke-opacity="0.3"/>
<path d="M125.485 62.5443L123.982 69.193L119.082 69.193L121.757 57.3879L151.9 57.3879L160.205 94.0542L113.47 94.0542L116.146 82.249L121.047 82.249L119.594 88.6773L119.916 88.7501L120.047 89.3049L153.593 89.3049L154.219 89.3049L154.081 88.6944L148.155 62.544L148.067 62.1545L147.667 62.1545L125.973 62.1545L125.573 62.1545L125.485 62.5443ZM165.759 105.942L165.67 105.553L165.271 105.553L108.369 105.553L107.97 105.553L107.881 105.942L106.589 111.65L101.688 111.65L104.153 100.786L169.487 100.786L171.952 111.65L167.051 111.65L165.759 105.942Z" stroke="#258389" stroke-opacity="0.3"/>
<path d="M-11.0461 184.447L-12.5488 191.095L-17.4494 191.095L-14.7741 179.29L15.3691 179.29L23.6735 215.957L-23.0609 215.957L-20.3856 204.151L-15.4845 204.151L-16.9373 210.58L-16.6152 210.652L-16.4846 211.207L17.0621 211.207L17.6881 211.207L17.5498 210.597L11.6236 184.446L11.5353 184.057L11.1359 184.057L-10.5584 184.057L-10.958 184.057L-11.0461 184.447ZM29.2273 227.845L29.1391 227.455L28.7397 227.455L-28.1621 227.455L-28.5616 227.455L-28.6498 227.845L-29.9426 233.553L-34.8432 233.553L-32.378 222.688L32.9555 222.688L35.4207 233.553L30.5201 233.553L29.2273 227.845Z" stroke="#258389" stroke-opacity="0.3"/>
<path d="M262.016 184.447L260.514 191.095L255.613 191.095L258.288 179.29L288.432 179.29L296.736 215.957L250.002 215.957L252.677 204.151L257.578 204.151L256.125 210.58L256.447 210.652L256.578 211.207L290.125 211.207L290.751 211.207L290.612 210.597L284.686 184.446L284.598 184.057L284.198 184.057L262.504 184.057L262.104 184.057L262.016 184.447ZM302.29 227.845L302.202 227.455L301.802 227.455L244.9 227.455L244.501 227.455L244.413 227.845L243.12 233.553L238.219 233.553L240.685 222.688L306.018 222.688L308.483 233.553L303.583 233.553L302.29 227.845Z" stroke="#258389" stroke-opacity="0.3"/>
<path d="M218.046 173.133L219.549 166.485H224.449L221.774 178.29H191.631L183.327 141.624H230.061L227.386 153.429H222.484L223.937 147L223.615 146.928L223.485 146.373H189.938H189.312L189.45 146.983L195.376 173.134L195.465 173.523H195.864H217.558H217.958L218.046 173.133ZM177.773 129.735L177.861 130.125H178.26H235.162H235.562L235.65 129.735L236.943 124.027H241.843L239.378 134.892H174.045L171.579 124.027H176.48L177.773 129.735Z" stroke="#258389" stroke-opacity="0.3"/>
<path d="M218.046 295.036L219.549 288.387H224.449L221.774 300.192H191.631L183.327 263.526H230.061L227.386 275.331H222.484L223.937 268.903L223.615 268.83L223.485 268.275H189.938H189.312L189.45 268.886L195.376 295.036L195.465 295.426H195.864H217.558H217.958L218.046 295.036ZM177.773 251.638L177.861 252.027H178.26H235.162H235.562L235.65 251.638L236.943 245.93H241.843L239.378 256.794H174.045L171.579 245.93H176.48L177.773 251.638Z" stroke="#258389" stroke-opacity="0.3"/>
<path d="M81.5149 173.133L83.0176 166.485H87.9182L85.2429 178.29H55.0997L46.7953 141.624H93.5297L90.8544 153.429H85.9532L87.4061 147L87.0839 146.928L86.9533 146.373H53.4066H52.7806L52.919 146.983L58.8452 173.134L58.9334 173.523H59.3328H81.0272H81.4268L81.5149 173.133ZM41.2414 129.735L41.3297 130.125H41.7291H98.6309H99.0303L99.1185 129.735L100.411 124.027H105.312L102.847 134.892H37.5133L35.048 124.027H39.9486L41.2414 129.735Z" stroke="#258389" stroke-opacity="0.3"/>
<path d="M354.577 173.133L356.08 166.485H360.981L358.305 178.29H328.162L319.858 141.624H366.592L363.917 153.429H359.016L360.469 147L360.146 146.928L360.016 146.373H326.469H325.843L325.981 146.983L331.908 173.134L331.996 173.523H332.395H354.09H354.489L354.577 173.133ZM314.304 129.735L314.392 130.125H314.792H371.693H372.093L372.181 129.735L373.474 124.027H378.374L375.909 134.892H310.576L308.111 124.027H313.011L314.304 129.735Z" stroke="#258389" stroke-opacity="0.3"/>
<path d="M354.577 117.391L356.08 110.743H360.981L358.305 122.548H328.162L319.858 85.8814H366.592L363.917 97.6865H359.016L360.469 91.2583L360.146 91.1855L360.016 90.6306H326.469H325.843L325.981 91.2411L331.908 117.392L331.996 117.781H332.395H354.09H354.489L354.577 117.391ZM314.304 73.9933L314.392 74.3829H314.792H371.693H372.093L372.181 73.9933L373.474 68.2852H378.374L375.909 79.1495H310.576L308.111 68.2852H313.011L314.304 73.9933Z" stroke="#258389" stroke-opacity="0.3"/>
<path d="M81.5155 291.614L83.0201 284.761H87.9221L85.2403 296.943H55.1022L46.7913 259.168H93.5336L90.8519 271.35H85.9493L87.4068 264.712L87.0874 264.642L86.9533 264.087H53.4066H52.7846L52.9183 264.694L58.8445 291.614L58.9309 292.006H59.3328H81.0272H81.4293L81.5155 291.614ZM41.2408 246.939L41.3271 247.332H41.7291H98.6309H99.0328L99.1192 246.939L100.414 241.055H105.316L102.844 252.268H37.5158L35.0441 241.055H39.9461L41.2408 246.939Z" stroke="#258389" stroke-opacity="0.3"/>
<path d="M354.578 291.614L356.083 284.761H360.985L358.303 296.943H328.165L319.854 259.168H366.596L363.914 271.35H359.012L360.469 264.712L360.15 264.642L360.016 264.087H326.469H325.847L325.981 264.694L331.907 291.614L331.993 292.006H332.395H354.09H354.492L354.578 291.614ZM314.303 246.939L314.39 247.332H314.792H371.693H372.095L372.182 246.939L373.476 241.055H378.378L375.907 252.268H310.578L308.107 241.055H313.009L314.303 246.939Z" stroke="#258389" stroke-opacity="0.3"/>
<path d="M125.485 129.185L123.982 135.834L119.082 135.834L121.757 124.028L151.9 124.028L160.205 160.695L113.47 160.695L116.146 148.89L121.047 148.89L119.594 155.318L119.916 155.391L120.047 155.946L153.593 155.946L154.219 155.946L154.081 155.335L148.155 129.185L148.067 128.795L147.667 128.795L125.973 128.795L125.573 128.795L125.485 129.185ZM165.759 172.583L165.67 172.193L165.271 172.193L108.369 172.193L107.97 172.193L107.881 172.583L106.589 178.291L101.688 178.291L104.153 167.427L169.487 167.427L171.952 178.291L167.051 178.291L165.759 172.583Z" stroke="#258389" stroke-opacity="0.3"/>
<path d="M-11.0468 246.385L-12.5514 253.237L-17.4534 253.237L-14.7716 241.055L15.3666 241.055L23.6774 278.83L-23.0649 278.83L-20.3831 266.648L-15.4805 266.648L-16.938 273.286L-16.6186 273.356L-16.4846 273.911L17.0621 273.911L17.6842 273.911L17.5504 273.304L11.6243 246.384L11.5378 245.992L11.1359 245.992L-10.5584 245.992L-10.9605 245.992L-11.0468 246.385ZM29.228 291.059L29.1416 290.666L28.7397 290.666L-28.1621 290.666L-28.5641 290.666L-28.6505 291.059L-29.9451 296.943L-34.8471 296.943L-32.3754 285.73L32.953 285.73L35.4247 296.943L30.5226 296.943L29.228 291.059Z" stroke="#258389" stroke-opacity="0.3"/>
<path d="M262.016 246.385L260.511 253.237L255.609 253.237L258.291 241.055L288.429 241.055L296.74 278.83L249.998 278.83L252.679 266.648L257.582 266.648L256.124 273.286L256.444 273.356L256.578 273.911L290.125 273.911L290.747 273.911L290.613 273.304L284.687 246.384L284.6 245.992L284.198 245.992L262.504 245.992L262.102 245.992L262.016 246.385ZM302.29 291.059L302.204 290.666L301.802 290.666L244.9 290.666L244.498 290.666L244.412 291.059L243.117 296.943L238.215 296.943L240.687 285.73L306.015 285.73L308.487 296.943L303.585 296.943L302.29 291.059Z" stroke="#258389" stroke-opacity="0.3"/>
<path d="M-11.0468 5.82983L-12.5514 12.6826L-17.4534 12.6826L-14.7716 0.500774L15.3666 0.500776L23.6774 38.2749L-23.0649 38.2749L-20.3831 26.0931L-15.4805 26.0932L-16.938 32.7314L-16.6186 32.8015L-16.4846 33.3566L17.0621 33.3566L17.6842 33.3566L17.5504 32.7491L11.6243 5.82956L11.5378 5.43706L11.1359 5.43706L-10.5584 5.43706L-10.9605 5.43706L-11.0468 5.82983ZM29.228 50.5042L29.1416 50.1116L28.7397 50.1116L-28.1621 50.1116L-28.5641 50.1116L-28.6505 50.5042L-29.9451 56.3887L-34.8471 56.3887L-32.3754 45.1753L32.953 45.1753L35.4247 56.3887L30.5226 56.3887L29.228 50.5042Z" stroke="#258389" stroke-opacity="0.3"/>
<path d="M125.485 251.087L123.982 257.736L119.082 257.736L121.757 245.931L151.9 245.931L160.205 282.597L113.47 282.597L116.146 270.792L121.047 270.792L119.594 277.22L119.916 277.293L120.047 277.848L153.593 277.848L154.219 277.848L154.081 277.237L148.155 251.087L148.067 250.698L147.667 250.698L125.973 250.698L125.573 250.698L125.485 251.087ZM165.759 294.485L165.67 294.096L165.271 294.096L108.369 294.096L107.97 294.096L107.881 294.485L106.589 300.193L101.688 300.193L104.153 289.329L169.487 289.329L171.952 300.193L167.051 300.193L165.759 294.485Z" stroke="#258389" stroke-opacity="0.3"/>
<path d="M125.484 5.82983L123.98 12.6826L119.078 12.6826L121.76 0.500774L151.898 0.500776L160.209 38.2749L113.466 38.2749L116.148 26.0931L121.051 26.0932L119.593 32.7314L119.913 32.8015L120.047 33.3566L153.593 33.3566L154.215 33.3566L154.082 32.7491L148.156 5.82956L148.069 5.43706L147.667 5.43706L125.973 5.43706L125.571 5.43706L125.484 5.82983ZM165.759 50.5042L165.673 50.1116L165.271 50.1116L108.369 50.1116L107.967 50.1116L107.881 50.5042L106.586 56.3887L101.684 56.3887L104.156 45.1753L169.484 45.1753L171.956 56.3887L167.054 56.3887L165.759 50.5042Z" stroke="#258389" stroke-opacity="0.3"/>
<path d="M-11.0461 129.185L-12.5488 135.834L-17.4494 135.834L-14.7741 124.028L15.3691 124.028L23.6735 160.695L-23.0609 160.695L-20.3856 148.89L-15.4845 148.89L-16.9373 155.318L-16.6152 155.391L-16.4846 155.946L17.0621 155.946L17.6881 155.946L17.5498 155.335L11.6236 129.185L11.5353 128.795L11.1359 128.795L-10.5584 128.795L-10.958 128.795L-11.0461 129.185ZM29.2273 172.583L29.1391 172.193L28.7397 172.193L-28.1621 172.193L-28.5616 172.193L-28.6498 172.583L-29.9426 178.291L-34.8432 178.291L-32.378 167.427L32.9555 167.427L35.4207 178.291L30.5201 178.291L29.2273 172.583Z" stroke="#258389" stroke-opacity="0.3"/>
<path d="M262.016 129.185L260.514 135.834L255.613 135.834L258.288 124.028L288.432 124.028L296.736 160.695L250.002 160.695L252.677 148.89L257.578 148.89L256.125 155.318L256.447 155.391L256.578 155.946L290.125 155.946L290.751 155.946L290.612 155.335L284.686 129.185L284.598 128.795L284.198 128.795L262.504 128.795L262.104 128.795L262.016 129.185ZM302.29 172.583L302.202 172.193L301.802 172.193L244.9 172.193L244.501 172.193L244.413 172.583L243.12 178.291L238.219 178.291L240.685 167.427L306.018 167.427L308.483 178.291L303.583 178.291L302.29 172.583Z" stroke="#258389" stroke-opacity="0.3"/>
</svg>
