<svg width="10" height="10" viewBox="0 0 10 10" fill="none" xmlns="http://www.w3.org/2000/svg">
<g clip-path="url(#clip0_282_18695)">
<path d="M9.75002 4.32999C9.74971 4.32976 9.74948 4.32946 9.74926 4.32923L5.67004 0.250168C5.49616 0.0762178 5.26499 -0.0195312 5.0191 -0.0195312C4.7732 -0.0195312 4.54203 0.0762178 4.36808 0.250168L0.290996 4.32717C0.289623 4.32854 0.288173 4.32999 0.286876 4.33137C-0.0701804 4.69048 -0.06957 5.27314 0.288631 5.63134C0.452282 5.79507 0.668347 5.88983 0.899442 5.89982C0.908902 5.90074 0.918363 5.90119 0.927899 5.90119H1.09041V8.90306C1.09041 9.49716 1.57381 9.98048 2.16791 9.98048H3.76383C3.92565 9.98048 4.0568 9.84926 4.0568 9.68752V7.334C4.0568 7.06292 4.27736 6.84243 4.54844 6.84243H5.48975C5.76083 6.84243 5.98132 7.06292 5.98132 7.334V9.68752C5.98132 9.84926 6.11247 9.98048 6.27429 9.98048H7.87021C8.46439 9.98048 8.94771 9.49716 8.94771 8.90306V5.90119H9.09847C9.34429 5.90119 9.57546 5.80544 9.74948 5.63142C10.1081 5.27268 10.1082 4.68896 9.75002 4.32999V4.32999ZM9.33513 5.21714C9.27188 5.28039 9.18781 5.31526 9.09847 5.31526H8.65474C8.49292 5.31526 8.36177 5.4464 8.36177 5.60822V8.90306C8.36177 9.17406 8.14128 9.39455 7.87021 9.39455H6.56726V7.334C6.56726 6.73989 6.08393 6.2565 5.48975 6.2565H4.54844C3.95426 6.2565 3.47086 6.73989 3.47086 7.334V9.39455H2.16791C1.89691 9.39455 1.67634 9.17406 1.67634 8.90306V5.60822C1.67634 5.4464 1.5452 5.31526 1.38338 5.31526H0.947278C0.942701 5.31495 0.938199 5.31472 0.933545 5.31464C0.846265 5.31312 0.764401 5.27848 0.703061 5.21706C0.572598 5.0866 0.572598 4.87428 0.703061 4.74374C0.703137 4.74374 0.703137 4.74366 0.703213 4.74358L0.703442 4.74335L4.78251 0.664445C4.84568 0.601197 4.92968 0.566407 5.0191 0.566407C5.10844 0.566407 5.19244 0.601197 5.25568 0.664445L9.33383 4.74252C9.33444 4.74313 9.33513 4.74374 9.33574 4.74435C9.46552 4.87504 9.46529 5.08691 9.33513 5.21714V5.21714Z" fill="#BDBDBD"/>
</g>
<defs>
<clipPath id="clip0_282_18695">
<rect width="10" height="10" fill="white"/>
</clipPath>
</defs>
</svg>
