<svg width="6" height="6" viewBox="0 0 6 6" fill="none" xmlns="http://www.w3.org/2000/svg">
<path d="M3.66752 2.76588L0.997446 0.0958529C0.93569 0.0340485 0.853252 0 0.76535 0C0.677448 0 0.59501 0.0340485 0.533255 0.0958529L0.336622 0.292437C0.208672 0.420533 0.208672 0.628727 0.336622 0.756628L2.57875 2.99876L0.334134 5.24337C0.272379 5.30518 0.238281 5.38757 0.238281 5.47542C0.238281 5.56337 0.272379 5.64576 0.334134 5.70761L0.530767 5.90415C0.592571 5.96595 0.674961 6 0.762862 6C0.850764 6 0.933203 5.96595 0.994958 5.90415L3.66752 3.23168C3.72942 3.16968 3.76342 3.0869 3.76323 2.9989C3.76342 2.91056 3.72942 2.82783 3.66752 2.76588Z" fill="#BDBDBD"/>
</svg>
