<svg width="16" height="14" viewBox="0 0 16 14" fill="none" xmlns="http://www.w3.org/2000/svg">
<path d="M14.522 12H2.40039C1.84811 12 1.40039 12.4477 1.40039 13C1.40039 13.5523 1.84811 14 2.40039 14H14.522C15.0743 14 15.522 13.5523 15.522 13C15.522 12.4477 15.0743 12 14.522 12Z" fill="#01AA78"/>
<path d="M14.5209 8H5.6582C5.10592 8 4.6582 8.44772 4.6582 9C4.6582 9.55228 5.10592 10 5.6582 10H14.5209C15.0732 10 15.5209 9.55228 15.5209 9C15.5209 8.44772 15.0732 8 14.5209 8Z" fill="#01AA78"/>
<path d="M14.5223 4H1.31445C0.762168 4 0.314453 4.44772 0.314453 5C0.314453 5.55228 0.762168 6 1.31445 6H14.5223C15.0745 6 15.5223 5.55228 15.5223 5C15.5223 4.44772 15.0745 4 14.5223 4Z" fill="#01AA78"/>
<path d="M14.5216 0H3.48633C2.93404 0 2.48633 0.447715 2.48633 1C2.48633 1.55228 2.93404 2 3.48633 2H14.5216C15.0739 2 15.5216 1.55228 15.5216 1C15.5216 0.447715 15.0739 0 14.5216 0Z" fill="#01AA78"/>
</svg>
