<svg width="8" height="14" viewBox="0 0 8 14" fill="none" xmlns="http://www.w3.org/2000/svg">
<path d="M7.78279 6.45372L1.72295 0.223656C1.5828 0.0794462 1.3957 -2.44032e-07 1.1962 -2.09151e-07C0.996706 -1.7427e-07 0.809609 0.0794464 0.669453 0.223657L0.223188 0.682352C-0.0671996 0.981244 -0.0671995 1.46703 0.223188 1.76547L5.31178 6.9971L0.217544 12.2345C0.0773872 12.3787 2.19798e-06 12.571 2.23382e-06 12.776C2.2697e-06 12.9812 0.0773874 13.1734 0.217544 13.3178L0.663809 13.7763C0.804076 13.9206 0.991063 14 1.19056 14C1.39006 14 1.57715 13.9206 1.71731 13.7763L7.78279 7.54059C7.92328 7.39592 8.00044 7.20277 8 6.99744C8.00044 6.79131 7.92328 6.59827 7.78279 6.45372Z" fill="white"/>
</svg>
