<svg width="24" height="24" viewBox="0 0 24 24" fill="none" xmlns="http://www.w3.org/2000/svg">
<path d="M20.1444 18.73L16.9013 15.4869C17.8842 14.2002 18.4232 12.6395 18.4235 10.9927C18.4235 9.00805 17.6505 7.14209 16.2469 5.73877C14.8436 4.33545 12.9779 3.5625 10.993 3.5625C9.00842 3.5625 7.14246 4.33545 5.73914 5.73877C2.84216 8.63598 2.84216 13.3498 5.73914 16.2466C7.14246 17.6501 9.00842 18.4231 10.993 18.4231C12.6399 18.4229 14.2006 17.8838 15.4872 16.9009L18.7303 20.144C18.9254 20.3393 19.1815 20.437 19.4374 20.437C19.6932 20.437 19.9493 20.3393 20.1444 20.144C20.535 19.7537 20.535 19.1204 20.1444 18.73ZM7.1532 14.8325C5.03601 12.7153 5.03625 9.27026 7.1532 7.15283C8.17883 6.12744 9.5426 5.5625 10.993 5.5625C12.4437 5.5625 13.8072 6.12744 14.8329 7.15283C15.8585 8.17846 16.4235 9.54223 16.4235 10.9927C16.4235 12.4434 15.8585 13.8069 14.8329 14.8325C13.8072 15.8581 12.4437 16.4231 10.993 16.4231C9.5426 16.4231 8.17883 15.8581 7.1532 14.8325Z" fill="white"/>
</svg>
