<svg width="18" height="18" viewBox="0 0 18 18" fill="none" xmlns="http://www.w3.org/2000/svg">
<path d="M4.21875 6.09375H0V17.2284H4.21875V6.09375Z" fill="#0AA880"/>
<path d="M17.6165 10.747C17.6165 10.3453 17.4832 9.97422 17.2587 9.67546C17.7073 9.35044 18 8.82271 18 8.22769C18 7.24237 17.1983 6.44073 16.213 6.44073H12.1509L12.7162 4.48805V3.55244C12.7162 1.82841 11.3136 0.425781 9.58954 0.425781C9.17149 0.425781 8.83143 0.765883 8.83143 1.18389V3.25811C8.54951 3.7093 6.98393 5.46606 5.27344 7.30663V16.5348L6.73305 17.0821C7.60061 17.4075 8.51031 17.5724 9.43689 17.5724H15.0626C16.0479 17.5724 16.8495 16.7708 16.8495 15.7854C16.8495 15.384 16.7164 15.013 16.492 14.7143C16.9406 14.3893 17.233 13.8612 17.233 13.2662C17.233 12.8645 17.0997 12.4934 16.8752 12.1947C17.3238 11.8698 17.6165 11.342 17.6165 10.747Z" fill="#0AA880"/>
</svg>
