<svg width="54" height="54" viewBox="0 0 54 54" fill="none" xmlns="http://www.w3.org/2000/svg">
<path d="M49.95 54H4.05C1.8171 54 0 52.1829 0 49.95V4.05C0 1.8171 1.8171 0 4.05 0H49.95C52.1829 0 54 1.8171 54 4.05V49.95C54 52.1829 52.1829 54 49.95 54ZM4.05 1.8C2.8098 1.8 1.8 2.8098 1.8 4.05V49.95C1.8 51.1902 2.8098 52.2 4.05 52.2H49.95C51.1911 52.2 52.2 51.1902 52.2 49.95V4.05C52.2 2.8098 51.1902 1.8 49.95 1.8H4.05Z" fill="#0AA880"/>
<path d="M8.09961 8.99961H4.49961C4.00281 8.99961 3.59961 8.59641 3.59961 8.09961V4.49961C3.59961 4.00281 4.00281 3.59961 4.49961 3.59961H8.09961C8.59641 3.59961 8.99961 4.00281 8.99961 4.49961V8.09961C8.99961 8.59641 8.59641 8.99961 8.09961 8.99961ZM5.39961 7.19961H7.19961V5.39961H5.39961V7.19961Z" fill="#0AA880"/>
<path d="M15.3008 8.99961H11.7008C11.204 8.99961 10.8008 8.59641 10.8008 8.09961V4.49961C10.8008 4.00281 11.204 3.59961 11.7008 3.59961H15.3008C15.7976 3.59961 16.2008 4.00281 16.2008 4.49961V8.09961C16.2008 8.59641 15.7976 8.99961 15.3008 8.99961ZM12.6008 7.19961H14.4008V5.39961H12.6008V7.19961Z" fill="#0AA880"/>
<path d="M22.5 8.99961H18.9C18.4032 8.99961 18 8.59641 18 8.09961V4.49961C18 4.00281 18.4032 3.59961 18.9 3.59961H22.5C22.9968 3.59961 23.4 4.00281 23.4 4.49961V8.09961C23.4 8.59641 22.9968 8.99961 22.5 8.99961ZM19.8 7.19961H21.6V5.39961H19.8V7.19961Z" fill="#0AA880"/>
<path d="M53.1 12.6H0.9C0.4032 12.6 0 12.1968 0 11.7V4.05C0 1.8171 1.8171 0 4.05 0H49.95C52.1829 0 54 1.8171 54 4.05V11.7C54 12.1968 53.5968 12.6 53.1 12.6ZM1.8 10.8H52.2V4.05C52.2 2.8098 51.1902 1.8 49.95 1.8H4.05C2.8098 1.8 1.8 2.8098 1.8 4.05V10.8Z" fill="#0AA880"/>
<path d="M24.2996 34.2004H4.49961C4.00281 34.2004 3.59961 33.7972 3.59961 33.3004V15.3004C3.59961 14.8036 4.00281 14.4004 4.49961 14.4004H24.2996C24.7964 14.4004 25.1996 14.8036 25.1996 15.3004V33.3004C25.1996 33.7972 24.7964 34.2004 24.2996 34.2004ZM5.39961 32.4004H23.3996V16.2004H5.39961V32.4004Z" fill="#0AA880"/>
<path d="M14.3998 34.2002C14.1694 34.2002 13.939 34.112 13.7635 33.9365L8.99984 29.1728L5.13613 33.0365C4.78423 33.3884 4.21543 33.3884 3.86353 33.0365C3.51163 32.6846 3.51163 32.1158 3.86353 31.7639L8.36354 27.2639C8.71544 26.912 9.28424 26.912 9.63614 27.2639L15.0361 32.6639C15.388 33.0158 15.388 33.5846 15.0361 33.9365C14.8606 34.112 14.6302 34.2002 14.3998 34.2002Z" fill="#0AA880"/>
<path d="M10.7992 25.2C8.81382 25.2 7.19922 23.5854 7.19922 21.6C7.19922 19.6146 8.81382 18 10.7992 18C12.7846 18 14.3992 19.6146 14.3992 21.6C14.3992 23.5854 12.7846 25.2 10.7992 25.2ZM10.7992 19.8C9.80652 19.8 8.99922 20.6073 8.99922 21.6C8.99922 22.5927 9.80652 23.4 10.7992 23.4C11.7919 23.4 12.5992 22.5927 12.5992 21.6C12.5992 20.6073 11.7919 19.8 10.7992 19.8Z" fill="#0AA880"/>
<path d="M24.3009 32.4006C24.0705 32.4006 23.8401 32.3124 23.6646 32.1369L18.0288 26.5011L13.0734 31.9029C12.7377 32.2701 12.1689 32.2944 11.8017 31.9578C11.4354 31.6221 11.4102 31.0524 11.7468 30.6861L17.3367 24.5922C17.5023 24.4113 17.7354 24.306 17.9802 24.3006C18.2286 24.2898 18.4626 24.3906 18.6363 24.5643L24.9363 30.8643C25.2882 31.2162 25.2882 31.785 24.9363 32.1369C24.7617 32.3124 24.5313 32.4006 24.3009 32.4006Z" fill="#0AA880"/>
<path d="M49.5008 50.3996H29.7008C29.204 50.3996 28.8008 49.9964 28.8008 49.4996V31.4996C28.8008 31.0028 29.204 30.5996 29.7008 30.5996H49.5008C49.9976 30.5996 50.4008 31.0028 50.4008 31.4996V49.4996C50.4008 49.9964 49.9976 50.3996 49.5008 50.3996ZM30.6008 48.5996H48.6008V32.3996H30.6008V48.5996Z" fill="#0AA880"/>
<path d="M39.5991 50.4004C39.3687 50.4004 39.1383 50.3122 38.9628 50.1367L34.1991 45.373L30.3354 49.2367C29.9835 49.5886 29.4147 49.5886 29.0628 49.2367C28.7109 48.8848 28.7109 48.316 29.0628 47.9641L33.5628 43.4641C33.9147 43.1122 34.4835 43.1122 34.8354 43.4641L40.2354 48.8641C40.5873 49.216 40.5873 49.7848 40.2354 50.1367C40.0599 50.3122 39.8295 50.4004 39.5991 50.4004Z" fill="#0AA880"/>
<path d="M36.0004 41.4002C34.015 41.4002 32.4004 39.7856 32.4004 37.8002C32.4004 35.8148 34.015 34.2002 36.0004 34.2002C37.9858 34.2002 39.6004 35.8148 39.6004 37.8002C39.6004 39.7856 37.9858 41.4002 36.0004 41.4002ZM36.0004 36.0002C35.0077 36.0002 34.2004 36.8075 34.2004 37.8002C34.2004 38.7929 35.0077 39.6002 36.0004 39.6002C36.9931 39.6002 37.8004 38.7929 37.8004 37.8002C37.8004 36.8075 36.9931 36.0002 36.0004 36.0002Z" fill="#0AA880"/>
<path d="M49.5001 48.6007C49.2697 48.6007 49.0393 48.5125 48.8638 48.337L43.228 42.7012L38.2726 48.103C37.9369 48.4702 37.3681 48.4945 37.0009 48.1579C36.6346 47.8222 36.6094 47.2525 36.946 46.8862L42.5359 40.7923C42.7015 40.6114 42.9346 40.5061 43.1794 40.5007C43.4197 40.4908 43.6618 40.5907 43.8355 40.7644L50.1355 47.0644C50.4874 47.4163 50.4874 47.9851 50.1355 48.337C49.9609 48.5125 49.7305 48.6007 49.5001 48.6007Z" fill="#0AA880"/>
<path d="M44.1008 19.8H29.7008C29.204 19.8 28.8008 19.3968 28.8008 18.9C28.8008 18.4032 29.204 18 29.7008 18H44.1008C44.5976 18 45.0008 18.4032 45.0008 18.9C45.0008 19.3968 44.5976 19.8 44.1008 19.8Z" fill="#0AA880"/>
<path d="M49.5008 19.8H47.7008C47.204 19.8 46.8008 19.3968 46.8008 18.9C46.8008 18.4032 47.204 18 47.7008 18H49.5008C49.9976 18 50.4008 18.4032 50.4008 18.9C50.4008 19.3968 49.9976 19.8 49.5008 19.8Z" fill="#0AA880"/>
<path d="M44.1008 27.0002H29.7008C29.204 27.0002 28.8008 26.597 28.8008 26.1002C28.8008 25.6034 29.204 25.2002 29.7008 25.2002H44.1008C44.5976 25.2002 45.0008 25.6034 45.0008 26.1002C45.0008 26.597 44.5976 27.0002 44.1008 27.0002Z" fill="#0AA880"/>
<path d="M49.5008 27.0002H47.7008C47.204 27.0002 46.8008 26.597 46.8008 26.1002C46.8008 25.6034 47.204 25.2002 47.7008 25.2002H49.5008C49.9976 25.2002 50.4008 25.6034 50.4008 26.1002C50.4008 26.597 49.9976 27.0002 49.5008 27.0002Z" fill="#0AA880"/>
<path d="M49.4992 23.3996H35.0992C34.6024 23.3996 34.1992 22.9964 34.1992 22.4996C34.1992 22.0028 34.6024 21.5996 35.0992 21.5996H49.4992C49.996 21.5996 50.3992 22.0028 50.3992 22.4996C50.3992 22.9964 49.996 23.3996 49.4992 23.3996Z" fill="#0AA880"/>
<path d="M31.5008 23.3996H29.7008C29.204 23.3996 28.8008 22.9964 28.8008 22.4996C28.8008 22.0028 29.204 21.5996 29.7008 21.5996H31.5008C31.9976 21.5996 32.4008 22.0028 32.4008 22.4996C32.4008 22.9964 31.9976 23.3996 31.5008 23.3996Z" fill="#0AA880"/>
<path d="M18.8996 39.5998H4.49961C4.00281 39.5998 3.59961 39.1966 3.59961 38.6998C3.59961 38.203 4.00281 37.7998 4.49961 37.7998H18.8996C19.3964 37.7998 19.7996 38.203 19.7996 38.6998C19.7996 39.1966 19.3964 39.5998 18.8996 39.5998Z" fill="#0AA880"/>
<path d="M24.2996 39.5998H22.4996C22.0028 39.5998 21.5996 39.1966 21.5996 38.6998C21.5996 38.203 22.0028 37.7998 22.4996 37.7998H24.2996C24.7964 37.7998 25.1996 38.203 25.1996 38.6998C25.1996 39.1966 24.7964 39.5998 24.2996 39.5998Z" fill="#0AA880"/>
<path d="M18.8996 46.8H4.49961C4.00281 46.8 3.59961 46.3968 3.59961 45.9C3.59961 45.4032 4.00281 45 4.49961 45H18.8996C19.3964 45 19.7996 45.4032 19.7996 45.9C19.7996 46.3968 19.3964 46.8 18.8996 46.8Z" fill="#0AA880"/>
<path d="M24.2996 46.8H22.4996C22.0028 46.8 21.5996 46.3968 21.5996 45.9C21.5996 45.4032 22.0028 45 22.4996 45H24.2996C24.7964 45 25.1996 45.4032 25.1996 45.9C25.1996 46.3968 24.7964 46.8 24.2996 46.8Z" fill="#0AA880"/>
<path d="M24.3 43.2004H9.9C9.4032 43.2004 9 42.7972 9 42.3004C9 41.8036 9.4032 41.4004 9.9 41.4004H24.3C24.7968 41.4004 25.2 41.8036 25.2 42.3004C25.2 42.7972 24.7968 43.2004 24.3 43.2004Z" fill="#0AA880"/>
<path d="M6.29961 43.2004H4.49961C4.00281 43.2004 3.59961 42.7972 3.59961 42.3004C3.59961 41.8036 4.00281 41.4004 4.49961 41.4004H6.29961C6.79641 41.4004 7.19961 41.8036 7.19961 42.3004C7.19961 42.7972 6.79641 43.2004 6.29961 43.2004Z" fill="#0AA880"/>
</svg>
