<svg width="20" height="20" viewBox="0 0 20 20" fill="none" xmlns="http://www.w3.org/2000/svg">
<g clip-path="url(#clip0_1511_6478)">
<path d="M16.4283 10C16.0338 10 15.7141 10.3198 15.7141 10.7143V17.8571C15.7141 18.2515 15.3943 18.5713 14.9998 18.5713H2.14283C1.74833 18.5713 1.42854 18.2515 1.42854 17.8571V3.57154C1.42854 3.17704 1.74833 2.85725 2.14283 2.85725H10.7141C11.1086 2.85725 11.4284 2.53746 11.4284 2.14296C11.4284 1.74846 11.1086 1.42871 10.7141 1.42871H2.14283C0.959376 1.42871 0 2.38809 0 3.57154V17.8571C0 19.0405 0.959376 19.9999 2.14283 19.9999H14.9998C16.1833 19.9999 17.1426 19.0405 17.1426 17.8571V10.7143C17.1426 10.3198 16.8228 10 16.4283 10Z" fill="#0AA880"/>
<path d="M19.1994 0.800977C18.6866 0.288038 17.991 -7.24037e-05 17.2656 1.13005e-05C16.5399 -0.00208131 15.8435 0.286531 15.3321 0.801438L5.92361 10.2091C5.84556 10.2878 5.78667 10.3834 5.75147 10.4884L4.32294 14.7741C4.19826 15.1483 4.40061 15.5528 4.7749 15.6774C4.84751 15.7016 4.92356 15.714 5.00006 15.7141C5.07673 15.7139 5.15295 15.7016 5.22577 15.6777L9.51143 14.2491C9.61669 14.214 9.71232 14.1548 9.79071 14.0763L19.1991 4.66782C20.267 3.60009 20.2671 1.86883 19.1994 0.800977ZM18.1892 3.65851L8.90357 12.9441L6.12932 13.8705L7.05287 11.0998L16.342 1.81426C16.8527 1.30458 17.6799 1.30542 18.1896 1.8161C18.433 2.06006 18.5702 2.39031 18.5713 2.73496C18.5722 3.08146 18.4346 3.41393 18.1892 3.65851Z" fill="#0AA880"/>
</g>
<defs>
<clipPath id="clip0_1511_6478">
<rect width="20" height="20" fill="white"/>
</clipPath>
</defs>
</svg>
