<svg width="20" height="20" viewBox="0 0 20 20" fill="none" xmlns="http://www.w3.org/2000/svg">
<g clip-path="url(#clip0_1813_1457)">
<path d="M16.2172 2.89479H12.9606V2.30268C12.9606 1.32164 12.1654 0.526367 11.1843 0.526367H8.81589C7.83485 0.526367 7.03958 1.32164 7.03958 2.30268V2.89479H3.783C2.96549 2.89479 2.30273 3.55754 2.30273 4.37505V5.55926C2.30273 5.88629 2.56781 6.15137 2.89484 6.15137H17.1054C17.4324 6.15137 17.6975 5.88629 17.6975 5.55926V4.37505C17.6975 3.55754 17.0347 2.89479 16.2172 2.89479ZM8.22379 2.30268C8.22379 1.97628 8.48949 1.71058 8.81589 1.71058H11.1843C11.5107 1.71058 11.7764 1.97628 11.7764 2.30268V2.89479H8.22379V2.30268Z" fill="#0AA880"/>
<path d="M3.42624 7.33594C3.32058 7.33594 3.23639 7.42424 3.24143 7.52978L3.72991 17.7822C3.77506 18.731 4.55442 19.4741 5.50401 19.4741H14.4959C15.4455 19.4741 16.2248 18.731 16.27 17.7822L16.7584 7.52978C16.7635 7.42424 16.6793 7.33594 16.5736 7.33594H3.42624ZM12.3684 8.8162C12.3684 8.48906 12.6333 8.2241 12.9605 8.2241C13.2876 8.2241 13.5526 8.48906 13.5526 8.8162V16.5136C13.5526 16.8407 13.2876 17.1057 12.9605 17.1057C12.6333 17.1057 12.3684 16.8407 12.3684 16.5136V8.8162ZM9.40783 8.8162C9.40783 8.48906 9.6728 8.2241 9.99994 8.2241C10.3271 8.2241 10.592 8.48906 10.592 8.8162V16.5136C10.592 16.8407 10.3271 17.1057 9.99994 17.1057C9.6728 17.1057 9.40783 16.8407 9.40783 16.5136V8.8162ZM6.44731 8.8162C6.44731 8.48906 6.71227 8.2241 7.03941 8.2241C7.36655 8.2241 7.63152 8.48906 7.63152 8.8162V16.5136C7.63152 16.8407 7.36655 17.1057 7.03941 17.1057C6.71227 17.1057 6.44731 16.8407 6.44731 16.5136V8.8162Z" fill="#0AA880"/>
</g>
<defs>
<clipPath id="clip0_1813_1457">
<rect width="18.9474" height="18.9474" fill="white" transform="translate(0.526367 0.526367)"/>
</clipPath>
</defs>
</svg>
