<svg width="141" height="297" viewBox="0 0 141 297" fill="none" xmlns="http://www.w3.org/2000/svg">
<path d="M52.7101 196.256L53.4968 192.775H55.7301L54.3609 198.817H38.1444L33.6797 179.104H58.8159L57.4468 185.146H55.2129L55.9498 181.885L55.609 181.808L55.4813 181.266H37.0336H36.4077L36.546 181.876L39.8049 196.256L39.8931 196.646H40.2925H52.2224H52.622L52.7101 196.256ZM30.1244 172.391L30.2126 172.781H30.6121H61.9029H62.3023L62.3905 172.391L63.0617 169.428H65.295L64.0415 174.952H28.4734L27.2199 169.428H29.4532L30.1244 172.391Z" stroke="#258389" stroke-opacity="0.3"/>
<path d="M52.7108 64.7705L53.4994 61.1789H55.734L54.3584 67.4277H38.147L33.6758 47.1054H58.8199L57.4442 53.3542H55.209L55.9504 49.9771L55.6124 49.9029L55.4813 49.36H37.0336H36.4116L36.5453 49.9675L39.8042 64.7708L39.8906 65.1633H40.2925H52.2224H52.6246L52.7108 64.7705ZM30.1237 40.2038L30.2101 40.5963H30.6121H61.9029H62.3048L62.3912 40.2038L63.0643 37.1445H65.299L64.039 42.8608H28.476L27.216 37.1445H29.4507L30.1237 40.2038Z" stroke="#258389" stroke-opacity="0.3"/>
<path d="M52.7108 131.808L53.4994 128.216H55.734L54.3584 134.465H38.147L33.6758 114.143H58.8199L57.4442 120.391H55.209L55.9504 117.014L55.6124 116.94L55.4813 116.397H37.0336H36.4116L36.5453 117.005L39.8042 131.808L39.8906 132.2H40.2925H52.2224H52.6246L52.7108 131.808ZM30.1237 107.241L30.2101 107.633H30.6121H61.9029H62.3048L62.3912 107.241L63.0643 104.182H65.299L64.039 109.898H28.476L27.216 104.182H29.4507L30.1237 107.241Z" stroke="#258389" stroke-opacity="0.3"/>
<path d="M127.788 196.256L128.575 192.775H130.808L129.439 198.817H113.223L108.758 179.104H133.894L132.525 185.146H130.291L131.028 181.885L130.687 181.808L130.559 181.266H112.112H111.486L111.624 181.876L114.883 196.256L114.971 196.646H115.371H127.301H127.7L127.788 196.256ZM105.203 172.391L105.291 172.781H105.69H136.981H137.38L137.469 172.391L138.14 169.428H140.373L139.12 174.952H103.552L102.298 169.428H104.531L105.203 172.391Z" stroke="#258389" stroke-opacity="0.3"/>
<path d="M127.788 129.221L128.575 125.74H130.808L129.439 131.782H113.223L108.758 112.069H133.894L132.525 118.111H130.291L131.028 114.85L130.687 114.773L130.559 114.23H112.112H111.486L111.624 114.841L114.883 129.221L114.971 129.611H115.371H127.301H127.7L127.788 129.221ZM105.203 105.356L105.291 105.746H105.69H136.981H137.38L137.469 105.356L138.14 102.393H140.373L139.12 107.917H103.552L102.298 102.393H104.531L105.203 105.356Z" stroke="#258389" stroke-opacity="0.3"/>
<path d="M1.3719 101.379L0.5852 104.859L-1.64807 104.859L-0.278903 98.8177L15.9376 98.8177L20.4023 118.531L-4.73389 118.531L-3.36473 112.489L-1.13086 112.489L-1.86773 115.749L-1.52701 115.826L-1.39926 116.369L17.0484 116.369L17.6744 116.369L17.536 115.759L14.2772 101.378L14.1889 100.989L13.7895 100.989L1.8596 100.989L1.46 100.989L1.3719 101.379ZM23.9576 125.243L23.8694 124.854L23.47 124.854L-7.82085 124.854L-8.22027 124.854L-8.3085 125.243L-8.97971 128.207L-11.213 128.207L-9.95947 122.683L25.6086 122.683L26.8621 128.207L24.6288 128.207L23.9576 125.243Z" stroke="#258389" stroke-opacity="0.3"/>
<path d="M76.45 166.627L75.6633 170.107L73.4301 170.107L74.7992 164.066L91.0157 164.066L95.4805 183.779L70.3442 183.779L71.7134 177.737L73.9473 177.737L73.2104 180.997L73.5511 181.074L73.6789 181.617L92.1265 181.617L92.7525 181.617L92.6142 181.007L89.3553 166.626L89.267 166.237L88.8677 166.237L76.9377 166.237L76.5381 166.237L76.45 166.627ZM99.0358 190.491L98.9475 190.102L98.5481 190.102L67.2573 190.102L66.8579 190.102L66.7696 190.491L66.0984 193.455L63.8651 193.455L65.1187 187.931L100.687 187.931L101.94 193.455L99.707 193.455L99.0358 190.491Z" stroke="#258389" stroke-opacity="0.3"/>
<path d="M1.37123 168.511L0.582674 172.102L-1.65201 172.102L-0.27637 165.854L15.9351 165.854L20.4063 186.176L-4.73783 186.176L-3.3622 179.927L-1.12692 179.927L-1.8684 183.304L-1.53037 183.378L-1.39926 183.921L17.0484 183.921L17.6704 183.921L17.5367 183.314L14.2778 168.51L14.1914 168.118L13.7895 168.118L1.8596 168.118L1.45747 168.118L1.37123 168.511ZM23.9583 193.077L23.8719 192.685L23.47 192.685L-7.82085 192.685L-8.2228 192.685L-8.30917 193.077L-8.98224 196.137L-11.2169 196.137L-9.95694 190.42L25.6061 190.42L26.8661 196.137L24.6314 196.137L23.9583 193.077Z" stroke="#258389" stroke-opacity="0.3"/>
<path d="M1.37123 202.476L0.582674 206.067L-1.65201 206.067L-0.27637 199.818L15.9351 199.818L20.4063 220.141L-4.73783 220.141L-3.3622 213.892L-1.12692 213.892L-1.8684 217.269L-1.53037 217.343L-1.39926 217.886L17.0484 217.886L17.6704 217.886L17.5367 217.279L14.2778 202.475L14.1914 202.083L13.7895 202.083L1.8596 202.083L1.45747 202.083L1.37123 202.476ZM23.9583 227.042L23.8719 226.65L23.47 226.65L-7.82085 226.65L-8.2228 226.65L-8.30917 227.042L-8.98224 230.102L-11.2169 230.102L-9.95694 224.385L25.6061 224.385L26.8661 230.102L24.6314 230.102L23.9583 227.042Z" stroke="#258389" stroke-opacity="0.3"/>
<path d="M1.37123 235.022L0.582674 238.614L-1.65201 238.614L-0.27637 232.365L15.9351 232.365L20.4063 252.688L-4.73783 252.688L-3.3622 246.439L-1.12692 246.439L-1.8684 249.816L-1.53037 249.89L-1.39926 250.433L17.0484 250.433L17.6704 250.433L17.5367 249.825L14.2778 235.022L14.1914 234.63L13.7895 234.63L1.8596 234.63L1.45747 234.63L1.37123 235.022ZM23.9583 259.589L23.8719 259.197L23.47 259.197L-7.82085 259.197L-8.2228 259.197L-8.30917 259.589L-8.98224 262.648L-11.2169 262.648L-9.95694 256.932L25.6061 256.932L26.8661 262.648L24.6314 262.648L23.9583 259.589Z" stroke="#258389" stroke-opacity="0.3"/>
<path d="M1.3719 34.3434L0.5852 37.8242L-1.64807 37.8242L-0.278903 31.7825L15.9376 31.7825L20.4023 51.4956L-4.73389 51.4956L-3.36473 45.4539L-1.13086 45.4539L-1.86773 48.7142L-1.52701 48.7912L-1.39926 49.334L17.0484 49.334L17.6744 49.334L17.536 48.7235L14.2772 34.3431L14.1889 33.9536L13.7895 33.9536L1.8596 33.9536L1.46 33.9536L1.3719 34.3434ZM23.9576 58.2083L23.8694 57.8187L23.47 57.8187L-7.82085 57.8187L-8.22027 57.8187L-8.3085 58.2082L-8.97971 61.1719L-11.213 61.1719L-9.95947 55.6475L25.6086 55.6475L26.8621 61.1719L24.6288 61.1719L23.9576 58.2083Z" stroke="#258389" stroke-opacity="0.3"/>
<path d="M76.45 101.379L75.6633 104.859L73.4301 104.859L74.7992 98.8177L91.0157 98.8177L95.4805 118.531L70.3442 118.531L71.7134 112.489L73.9473 112.489L73.2104 115.749L73.5511 115.826L73.6789 116.369L92.1265 116.369L92.7525 116.369L92.6142 115.759L89.3553 101.378L89.267 100.989L88.8677 100.989L76.9377 100.989L76.5381 100.989L76.45 101.379ZM99.0358 125.243L98.9475 124.854L98.5481 124.854L67.2573 124.854L66.8579 124.854L66.7696 125.243L66.0984 128.207L63.8651 128.207L65.1187 122.683L100.687 122.683L101.94 128.207L99.707 128.207L99.0358 125.243Z" stroke="#258389" stroke-opacity="0.3"/>
<path d="M52.7108 227.444L53.4994 223.853H55.734L54.3584 230.102H38.147L33.6758 209.779H58.8199L57.4442 216.028H55.209L55.9504 212.651L55.6124 212.577L55.4813 212.034H37.0336H36.4116L36.5453 212.641L39.8042 227.445L39.8906 227.837H40.2925H52.2224H52.6246L52.7108 227.444ZM30.1237 202.878L30.2101 203.27H30.6121H61.9029H62.3048L62.3912 202.878L63.0643 199.818H65.299L64.039 205.535H28.476L27.216 199.818H29.4507L30.1237 202.878Z" stroke="#258389" stroke-opacity="0.3"/>
<path d="M52.7108 260.622L53.4994 257.03H55.734L54.3584 263.279H38.147L33.6758 242.957H58.8199L57.4442 249.206H55.209L55.9504 245.829L55.6124 245.754L55.4813 245.212H37.0336H36.4116L36.5453 245.819L39.8042 260.622L39.8906 261.015H40.2925H52.2224H52.6246L52.7108 260.622ZM30.1237 236.055L30.2101 236.448H30.6121H61.9029H62.3048L62.3912 236.055L63.0643 232.996H65.299L64.039 238.712H28.476L27.216 232.996H29.4507L30.1237 236.055Z" stroke="#258389" stroke-opacity="0.3"/>
<path d="M52.7101 95.2581L53.4968 91.7774H55.7301L54.3609 97.8191H38.1444L33.6797 78.106H58.8159L57.4468 84.1477H55.2129L55.9498 80.8874L55.609 80.8104L55.4813 80.2676H37.0336H36.4077L36.546 80.8781L39.8049 95.2584L39.8931 95.6479H40.2925H52.2224H52.622L52.7101 95.2581ZM30.1244 71.3933L30.2126 71.7829H30.6121H61.9029H62.3023L62.3905 71.3933L63.0617 68.4297H65.295L64.0415 73.954H28.4734L27.2199 68.4297H29.4532L30.1244 71.3933Z" stroke="#258389" stroke-opacity="0.3"/>
<path d="M52.7101 162.293L53.4968 158.813H55.7301L54.3609 164.854H38.1444L33.6797 145.141H58.8159L57.4468 151.183H55.2129L55.9498 147.923L55.609 147.846L55.4813 147.303H37.0336H36.4077L36.546 147.913L39.8049 162.294L39.8931 162.683H40.2925H52.2224H52.622L52.7101 162.293ZM30.1244 138.428L30.2126 138.818H30.6121H61.9029H62.3023L62.3905 138.428L63.0617 135.465H65.295L64.0415 140.989H28.4734L27.2199 135.465H29.4532L30.1244 138.428Z" stroke="#258389" stroke-opacity="0.3"/>
<path d="M127.789 227.444L128.577 223.853H130.812L129.437 230.102H113.225L108.754 209.779H133.898L132.522 216.028H130.287L131.029 212.651L130.691 212.577L130.559 212.034H112.112H111.49L111.623 212.641L114.882 227.445L114.969 227.837H115.371H127.301H127.703L127.789 227.444ZM105.202 202.878L105.288 203.27H105.69H136.981H137.383L137.469 202.878L138.142 199.818H140.377L139.117 205.535H103.554L102.294 199.818H104.529L105.202 202.878Z" stroke="#258389" stroke-opacity="0.3"/>
<path d="M127.788 95.2581L128.575 91.7774H130.808L129.439 97.8191H113.223L108.758 78.106H133.894L132.525 84.1477H130.291L131.028 80.8874L130.687 80.8104L130.559 80.2676H112.112H111.486L111.624 80.8781L114.883 95.2584L114.971 95.6479H115.371H127.301H127.7L127.788 95.2581ZM105.203 71.3933L105.291 71.7829H105.69H136.981H137.38L137.469 71.3933L138.14 68.4297H140.373L139.12 73.954H103.552L102.298 68.4297H104.531L105.203 71.3933Z" stroke="#258389" stroke-opacity="0.3"/>
<path d="M127.788 64.6038L128.575 61.1231H130.808L129.439 67.1648H113.223L108.758 47.4517H133.894L132.525 53.4934H130.291L131.028 50.2331L130.687 50.1561L130.559 49.6133H112.112H111.486L111.624 50.2238L114.883 64.6041L114.971 64.9936H115.371H127.301H127.7L127.788 64.6038ZM105.203 40.739L105.291 41.1286H105.69H136.981H137.38L137.469 40.739L138.14 37.7754H140.373L139.12 43.2997H103.552L102.298 37.7754H104.531L105.203 40.739Z" stroke="#258389" stroke-opacity="0.3"/>
<path d="M127.789 160.409L128.577 156.818H130.812L129.437 163.066H113.225L108.754 142.744H133.898L132.522 148.993H130.287L131.029 145.616L130.691 145.542L130.559 144.999H112.112H111.49L111.623 145.606L114.882 160.409L114.969 160.802H115.371H127.301H127.703L127.789 160.409ZM105.202 135.842L105.288 136.235H105.69H136.981H137.383L137.469 135.842L138.142 132.783H140.377L139.117 138.499H103.554L102.294 132.783H104.529L105.202 135.842Z" stroke="#258389" stroke-opacity="0.3"/>
<path d="M1.3719 70.9899L0.5852 74.4707L-1.64807 74.4707L-0.278903 68.429L15.9376 68.429L20.4023 88.142L-4.73389 88.142L-3.36473 82.1004L-1.13086 82.1004L-1.86773 85.3607L-1.52701 85.4377L-1.39926 85.9805L17.0484 85.9805L17.6744 85.9805L17.536 85.37L14.2772 70.9896L14.1889 70.6001L13.7895 70.6001L1.8596 70.6001L1.46 70.6001L1.3719 70.9899ZM23.9576 94.8547L23.8694 94.4652L23.47 94.4652L-7.82085 94.4652L-8.22027 94.4652L-8.3085 94.8547L-8.97971 97.8184L-11.213 97.8184L-9.95947 92.294L25.6086 92.294L26.8621 97.8184L24.6288 97.8184L23.9576 94.8547Z" stroke="#258389" stroke-opacity="0.3"/>
<path d="M76.4494 135.44L75.6608 139.032L73.4261 139.032L74.8018 132.783L91.0132 132.783L95.4844 153.105L70.3403 153.105L71.7159 146.857L73.9512 146.857L73.2097 150.234L73.5478 150.308L73.6789 150.851L92.1265 150.851L92.7486 150.851L92.6148 150.243L89.356 135.44L89.2696 135.048L88.8677 135.048L76.9377 135.048L76.5356 135.048L76.4494 135.44ZM99.0364 160.007L98.9501 159.615L98.5481 159.615L67.2573 159.615L66.8553 159.615L66.769 160.007L66.0959 163.066L63.8612 163.066L65.1212 157.35L100.684 157.35L101.944 163.066L99.7095 163.066L99.0364 160.007Z" stroke="#258389" stroke-opacity="0.3"/>
<path d="M1.3719 138.025L0.5852 141.506L-1.64807 141.506L-0.278903 135.464L15.9376 135.464L20.4023 155.177L-4.73389 155.177L-3.36473 149.136L-1.13086 149.136L-1.86773 152.396L-1.52701 152.473L-1.39926 153.016L17.0484 153.016L17.6744 153.016L17.536 152.405L14.2772 138.025L14.1889 137.635L13.7895 137.635L1.8596 137.635L1.46 137.635L1.3719 138.025ZM23.9576 161.89L23.8694 161.5L23.47 161.5L-7.82085 161.5L-8.22027 161.5L-8.3085 161.89L-8.97971 164.854L-11.213 164.854L-9.95947 159.329L25.6086 159.329L26.8621 164.854L24.6288 164.854L23.9576 161.89Z" stroke="#258389" stroke-opacity="0.3"/>
<path d="M1.37123 3.15721L0.582674 6.7488L-1.65201 6.7488L-0.27637 0.500017L15.9351 0.500018L20.4063 20.8223L-4.73783 20.8223L-3.3622 14.5735L-1.12692 14.5735L-1.8684 17.9506L-1.53037 18.0249L-1.39926 18.5677L17.0484 18.5677L17.6704 18.5677L17.5367 17.9602L14.2778 3.15694L14.1914 2.76444L13.7895 2.76444L1.8596 2.76444L1.45747 2.76444L1.37123 3.15721ZM23.9583 27.724L23.8719 27.3314L23.47 27.3314L-7.82085 27.3314L-8.2228 27.3314L-8.30917 27.724L-8.98224 30.7832L-11.2169 30.7832L-9.95694 25.067L25.6061 25.067L26.8661 30.7832L24.6314 30.7832L23.9583 27.724Z" stroke="#258389" stroke-opacity="0.3"/>
<path d="M76.4494 202.476L75.6608 206.067L73.4261 206.067L74.8018 199.818L91.0132 199.818L95.4844 220.141L70.3403 220.141L71.7159 213.892L73.9512 213.892L73.2097 217.269L73.5478 217.343L73.6789 217.886L92.1265 217.886L92.7486 217.886L92.6148 217.279L89.356 202.475L89.2696 202.083L88.8677 202.083L76.9377 202.083L76.5356 202.083L76.4494 202.476ZM99.0364 227.042L98.9501 226.65L98.5481 226.65L67.2573 226.65L66.8553 226.65L66.769 227.042L66.0959 230.102L63.8612 230.102L65.1212 224.385L100.684 224.385L101.944 230.102L99.7095 230.102L99.0364 227.042Z" stroke="#258389" stroke-opacity="0.3"/>
<path d="M76.45 70.9899L75.6633 74.4707L73.4301 74.4707L74.7992 68.429L91.0157 68.429L95.4805 88.142L70.3442 88.142L71.7134 82.1004L73.9473 82.1004L73.2104 85.3607L73.5511 85.4377L73.6789 85.9805L92.1265 85.9805L92.7525 85.9805L92.6142 85.37L89.3553 70.9896L89.267 70.6001L88.8677 70.6001L76.9377 70.6001L76.5381 70.6001L76.45 70.9899ZM99.0358 94.8547L98.9475 94.4652L98.5481 94.4652L67.2573 94.4652L66.8579 94.4652L66.7696 94.8547L66.0984 97.8184L63.8651 97.8184L65.1187 92.294L100.687 92.294L101.94 97.8184L99.707 97.8184L99.0358 94.8547Z" stroke="#258389" stroke-opacity="0.3"/>
</svg>
