<svg width="24" height="24" viewBox="0 0 24 24" fill="none" xmlns="http://www.w3.org/2000/svg">
<path d="M19.3475 17.937L16.1044 14.6939C17.0873 13.4072 17.6264 11.8466 17.6266 10.1997C17.6266 8.21509 16.8536 6.34912 15.4501 4.9458C14.0468 3.54248 12.181 2.76953 10.1962 2.76953C8.21155 2.76953 6.34558 3.54248 4.94226 4.9458C2.04529 7.84302 2.04529 12.5569 4.94226 15.4536C6.34558 16.8572 8.21155 17.6301 10.1962 17.6301C11.843 17.6299 13.4037 17.0909 14.6904 16.108L17.9335 19.3511C18.1285 19.5464 18.3846 19.644 18.6405 19.644C18.8964 19.644 19.1525 19.5464 19.3475 19.3511C19.7382 18.9607 19.7382 18.3274 19.3475 17.937ZM6.35632 14.0396C4.23914 11.9224 4.23938 8.47729 6.35632 6.35986C7.38196 5.33447 8.74573 4.76953 10.1962 4.76953C11.6469 4.76953 13.0104 5.33447 14.036 6.35986C15.0616 7.3855 15.6266 8.74927 15.6266 10.1997C15.6266 11.6504 15.0616 13.0139 14.036 14.0396C13.0104 15.0652 11.6469 15.6301 10.1962 15.6301C8.74573 15.6301 7.38196 15.0652 6.35632 14.0396Z" fill="#ABABAB"/>
</svg>
