<svg width="42" height="42" viewBox="0 0 42 42" fill="none" xmlns="http://www.w3.org/2000/svg">
<path d="M3.27997 1.31445C2.20063 1.31445 1.3125 2.20133 1.3125 3.28066C1.3125 3.45488 1.38171 3.62192 1.5049 3.74511C1.62809 3.8683 1.79517 3.93753 1.96939 3.93753C2.14361 3.93753 2.31069 3.8683 2.43388 3.74511C2.55708 3.62192 2.62628 3.45488 2.62628 3.28066C2.62628 2.90574 2.90506 2.62183 3.27997 2.62183H38.7213C39.0962 2.62183 39.375 2.90574 39.375 3.28066V36.0918C39.375 36.4667 39.0962 36.7507 38.7213 36.7507H3.27997C2.90505 36.7507 2.62628 36.4667 2.62628 36.0918V5.90691C2.62628 5.73269 2.55708 5.56565 2.43388 5.44246C2.31069 5.31927 2.14361 5.25005 1.96939 5.25005C1.79517 5.25005 1.62809 5.31927 1.5049 5.44246C1.38171 5.56565 1.3125 5.73269 1.3125 5.90691V36.0918C1.3125 37.1712 2.20063 38.0632 3.27997 38.0632H3.93878V40.0306C3.93812 40.2047 4.00661 40.3718 4.1292 40.4954C4.25178 40.6189 4.41842 40.6888 4.59247 40.6894H9.84375C10.0178 40.6888 10.1844 40.6189 10.307 40.4954C10.4296 40.3718 10.4981 40.2047 10.4974 40.0306V38.0632H31.4974V40.0306C31.4971 40.1173 31.514 40.2033 31.547 40.2834C31.5801 40.3636 31.6287 40.4364 31.6901 40.4976C31.7515 40.5589 31.8244 40.6074 31.9046 40.6403C31.9849 40.6732 32.0708 40.6899 32.1575 40.6894H37.4088C37.5829 40.6888 37.7495 40.6189 37.8721 40.4954C37.9947 40.3718 38.0632 40.2047 38.0625 40.0306V38.0632H38.7213C39.8006 38.0632 40.6875 37.1712 40.6875 36.0918V3.28066C40.6875 2.20133 39.8007 1.31445 38.7213 1.31445H3.27997ZM4.59247 3.93427C4.22992 3.93558 3.93739 4.23184 3.93878 4.59439V34.7793C3.93739 35.1419 4.22992 35.4369 4.59247 35.4382H36.095C36.4576 35.4368 36.7501 35.1419 36.7487 34.7793V33.4656C36.7487 32.5904 35.4362 32.5904 35.4362 33.4656V34.1256H5.25128V5.24808H35.4362V7.87312H33.47C33.3834 7.87279 33.2976 7.88955 33.2175 7.92255C33.1374 7.95554 33.0647 8.00406 33.0034 8.0653C32.9422 8.12655 32.8937 8.19936 32.8607 8.27944C32.8277 8.35952 32.8109 8.44534 32.8112 8.53195V12.4656C32.8109 12.5522 32.8277 12.638 32.8607 12.7181C32.8937 12.7982 32.9422 12.8709 33.0034 12.9321C33.0647 12.9934 33.1374 13.0419 33.2175 13.0749C33.2976 13.1079 33.3834 13.1247 33.47 13.1244H37.4088C37.5829 13.1237 37.7495 13.0539 37.8721 12.9303C37.9947 12.8068 38.0632 12.6396 38.0625 12.4656V8.53195C38.0632 8.35791 37.9947 8.19067 37.8721 8.06712C37.7495 7.94357 37.5829 7.87381 37.4088 7.87312H36.7487V4.59439C36.7501 4.23184 36.4576 3.93556 36.095 3.93427H4.59247ZM34.1237 9.18564H36.7487V11.8119H34.1237V9.18564ZM26.2513 13.1244C22.6347 13.1244 19.6875 16.0728 19.6875 19.6894C19.6875 23.306 22.6347 26.2481 26.2513 26.2481C29.8679 26.2481 32.8112 23.306 32.8112 19.6894C32.8112 16.0728 29.8679 13.1244 26.2513 13.1244ZM36.0861 14.4279C35.7235 14.4329 35.4321 14.7293 35.4362 15.0918V26.2481H33.47C33.3834 26.2478 33.2976 26.2646 33.2175 26.2976C33.1375 26.3306 33.0647 26.3791 33.0035 26.4404C32.9422 26.5016 32.8937 26.5743 32.8607 26.6544C32.8277 26.7345 32.8109 26.8203 32.8112 26.9069V30.8457C32.8119 31.0197 32.8817 31.1864 33.0053 31.3089C33.1288 31.4315 33.296 31.5001 33.47 31.4994H37.4088C37.582 31.4987 37.7478 31.4296 37.8703 31.3071C37.9927 31.1847 38.0618 31.0189 38.0625 30.8457V26.9069C38.0632 26.7329 37.9947 26.5657 37.8721 26.4422C37.7495 26.3186 37.5829 26.2488 37.4088 26.2481H36.7487V15.0918C36.7529 14.7236 36.4543 14.4238 36.0861 14.4279ZM25.5925 14.483V15.7507C25.5905 15.8381 25.6061 15.925 25.6382 16.0063C25.6703 16.0876 25.7183 16.1616 25.7795 16.2241C25.8406 16.2866 25.9136 16.3363 25.9942 16.3702C26.0747 16.4041 26.1613 16.4216 26.2487 16.4216C26.3361 16.4216 26.4227 16.4041 26.5033 16.3702C26.5839 16.3363 26.6569 16.2866 26.718 16.2241C26.7791 16.1616 26.8271 16.0876 26.8593 16.0063C26.8914 15.925 26.9069 15.8381 26.905 15.7507V14.483C27.866 14.6018 28.7428 14.9776 29.4684 15.5417L28.5725 16.4377C28.5094 16.498 28.4589 16.5702 28.4241 16.6503C28.3892 16.7303 28.3707 16.8165 28.3696 16.9038C28.3684 16.9911 28.3847 17.0777 28.4175 17.1586C28.4503 17.2395 28.4989 17.3131 28.5605 17.375C28.622 17.4369 28.6953 17.4859 28.776 17.5192C28.8568 17.5524 28.9433 17.5691 29.0306 17.5685C29.1179 17.5679 29.2042 17.5499 29.2845 17.5154C29.3647 17.481 29.4373 17.4309 29.4979 17.3681L30.3964 16.4697C30.9582 17.1945 31.3332 18.0707 31.4526 19.0293H30.1849C30.0111 19.0299 29.8446 19.0994 29.7219 19.2225C29.5992 19.3456 29.5303 19.5124 29.5303 19.6862C29.5303 19.86 29.5992 20.0267 29.7219 20.1499C29.8446 20.273 30.0111 20.3424 30.1849 20.343H31.4526C31.3339 21.3034 30.9592 22.1799 30.3964 22.9053L29.4979 22.0094C29.4371 21.9458 29.3641 21.895 29.2833 21.8602C29.2025 21.8254 29.1155 21.8072 29.0275 21.8067C29.0048 21.8072 28.9821 21.8088 28.9596 21.8116C28.8355 21.8249 28.7178 21.8732 28.6202 21.9509C28.5226 22.0287 28.4492 22.1326 28.4085 22.2506C28.3679 22.3686 28.3617 22.4957 28.3908 22.6171C28.4198 22.7384 28.4829 22.849 28.5725 22.9358L29.4697 23.833C28.7438 24.3966 27.8664 24.773 26.905 24.8917V23.6228C26.9058 23.5356 26.8892 23.449 26.8562 23.3682C26.8232 23.2874 26.7745 23.214 26.7128 23.1523C26.6511 23.0906 26.5777 23.0419 26.4969 23.0089C26.4161 22.9759 26.3296 22.9593 26.2423 22.9601C26.0683 22.9618 25.902 23.0327 25.7802 23.1569C25.6583 23.2812 25.5908 23.4488 25.5925 23.6228V24.8917C24.6328 24.7724 23.757 24.3957 23.0316 23.833L23.9313 22.9358C24.0254 22.8433 24.0894 22.7246 24.1151 22.5952C24.1407 22.4658 24.1267 22.3317 24.075 22.2103C24.0232 22.089 23.9361 21.986 23.8249 21.9149C23.7138 21.8438 23.5838 21.8078 23.452 21.8117C23.2815 21.8168 23.1197 21.8881 23.0008 22.0104L22.1049 22.9055C21.541 22.1799 21.1638 21.3037 21.0449 20.3431H22.3138C22.4002 20.3434 22.4859 20.3267 22.5658 20.2938C22.6457 20.2609 22.7184 20.2125 22.7796 20.1515C22.8408 20.0904 22.8894 20.0179 22.9225 19.9381C22.9557 19.8583 22.9727 19.7727 22.9727 19.6863C22.9727 19.5998 22.9557 19.5143 22.9225 19.4344C22.8894 19.3546 22.8408 19.2821 22.7796 19.221C22.7184 19.16 22.6457 19.1117 22.5658 19.0788C22.4859 19.0459 22.4002 19.0291 22.3138 19.0294H21.0449C21.1645 18.0705 21.542 17.1947 22.1049 16.4697L23.0008 17.3682C23.0619 17.4295 23.1344 17.4781 23.2143 17.5114C23.2942 17.5446 23.3798 17.5617 23.4663 17.5618C23.5528 17.5618 23.6385 17.5449 23.7184 17.5118C23.7984 17.4787 23.871 17.4302 23.9322 17.3691C23.9933 17.3079 24.0419 17.2352 24.0749 17.1553C24.108 17.0754 24.125 16.9897 24.1249 16.9032C24.1248 16.8167 24.1077 16.7311 24.0745 16.6512C24.0413 16.5713 23.9926 16.4988 23.9313 16.4377L23.0316 15.5417C23.7569 14.9784 24.6329 14.6026 25.5925 14.483L25.5925 14.483ZM12.4688 15.093C9.93946 15.093 7.875 17.1575 7.875 19.6868C7.875 21.4685 8.91405 23.0675 10.4974 23.823V26.9069C10.4974 27.9862 11.3907 28.8731 12.47 28.8731C13.5494 28.8731 14.4362 27.9862 14.4362 26.9069V23.8242C16.0217 23.0696 17.0625 21.47 17.0625 19.6868C17.0625 17.1575 14.998 15.093 12.4688 15.093ZM12.4688 16.4056C14.2887 16.4056 15.75 17.8668 15.75 19.6868C15.75 20.7407 15.2488 21.7038 14.4362 22.3118V19.6894C14.4362 18.61 13.5494 17.7168 12.47 17.7168C11.3907 17.7168 10.4974 18.61 10.4974 19.6894V22.3092C9.68708 21.7011 9.1875 20.739 9.1875 19.6868C9.1875 17.8668 10.6488 16.4056 12.4688 16.4056ZM26.2513 17.7168C25.1717 17.7168 24.28 18.6098 24.28 19.6894C24.28 20.7689 25.1717 21.6556 26.2513 21.6556C27.3308 21.6556 28.2187 20.7689 28.2187 19.6894C28.2187 18.6098 27.3308 17.7168 26.2513 17.7168ZM12.47 19.0293C12.8449 19.0293 13.1237 19.3144 13.1237 19.6894V26.9069C13.1237 27.2818 12.8449 27.5605 12.47 27.5605C12.0951 27.5605 11.8099 27.2818 11.8099 26.9069V19.6894C11.8099 19.3144 12.0951 19.0293 12.47 19.0293ZM26.2513 19.0293C26.6215 19.0293 26.905 19.3191 26.905 19.6894C26.905 20.0596 26.6215 20.343 26.2513 20.343C25.8811 20.343 25.5925 20.0596 25.5925 19.6894C25.5925 19.3191 25.8811 19.0293 26.2513 19.0293ZM34.1237 27.5605H36.7487V30.1868H34.1237V27.5605ZM5.25128 38.0631H9.19006V39.3769H5.25128V38.0631ZM32.8112 38.0631H36.7487V39.3769H32.8112V38.0631Z" fill="#0AA880"/>
</svg>
