<svg width="26" height="26" viewBox="0 0 26 26" fill="none" xmlns="http://www.w3.org/2000/svg">
<g clip-path="url(#clip0_282_14849)">
<path d="M25.9999 11.6999H23.3999V9.09985H20.8V11.6999H18.2V14.2999H20.8V16.8999H23.3999V14.2999H25.9999V11.6999Z" fill="#33B5A5"/>
<path d="M7.8 14.3H12.87C12.35 16.51 10.27 18.2 7.8 18.2C4.94 18.2 2.6 15.86 2.6 13C2.6 10.14 4.94 7.79995 7.8 7.79995C9.23 7.79995 10.53 8.31995 11.44 9.35995L13.26 7.53995C11.83 6.10995 9.88 5.19995 7.8 5.19995C3.51 5.19995 0 8.70995 0 13C0 17.29 3.51 20.8 7.8 20.8C12.09 20.8 15.6 17.29 15.6 13V11.7H7.8V14.3Z" fill="#33B5A5"/>
</g>
<defs>
<clipPath id="clip0_282_14849">
<rect width="26" height="26" fill="white"/>
</clipPath>
</defs>
</svg>
