<svg width="11" height="11" viewBox="0 0 11 11" fill="none" xmlns="http://www.w3.org/2000/svg">
<path d="M1.66165 11H9.33721C10.1418 11 10.7957 10.3461 10.7957 9.54147V2.27332C10.7957 1.46869 10.1418 0.814799 9.33721 0.814799H8.7587V0.4074C8.7587 0.183323 8.57534 0 8.35126 0C8.12719 0 7.94386 0.183323 7.94386 0.4074V0.814799H3.05499V0.4074C3.05499 0.183323 2.87164 0 2.64756 0C2.42348 0 2.24016 0.183323 2.24016 0.4074V0.814799H1.66165C0.85702 0.814799 0.203125 1.46869 0.203125 2.27332V9.54147C0.203125 10.3461 0.85702 11 1.66165 11ZM1.01796 2.27332C1.01796 1.91889 1.30721 1.62963 1.66165 1.62963H2.24016V2.03703C2.24016 2.26111 2.42348 2.44443 2.64756 2.44443C2.87164 2.44443 3.05496 2.26111 3.05496 2.03703V1.62963H7.94386V2.03703C7.94386 2.26111 8.12719 2.44443 8.35126 2.44443C8.57534 2.44443 8.75866 2.26111 8.75866 2.03703V1.62963H9.33717C9.69161 1.62963 9.98086 1.91889 9.98086 2.27332V3.46296H1.01796V2.27332ZM1.01796 4.27776H9.98093V9.54147C9.98093 9.8959 9.69168 10.1852 9.33724 10.1852H1.66165C1.30721 10.1852 1.01796 9.8959 1.01796 9.54147V4.27776Z" fill="#707070"/>
</svg>
