<svg width="20" height="21" viewBox="0 0 20 21" fill="none" xmlns="http://www.w3.org/2000/svg">
<g clip-path="url(#clip0_294_3073)">
<path d="M19.6912 2.98474C19.4469 2.68597 19.081 2.52148 18.6608 2.52148C18.4323 2.52148 18.1903 2.56955 17.9416 2.66461L1.01199 9.12716C0.113557 9.47003 -0.00744541 9.98455 0.000336565 10.2607C0.00811854 10.5369 0.158112 11.0438 1.07456 11.3354C1.08005 11.3371 1.08554 11.3388 1.09103 11.3403L4.60269 12.3452L6.5018 17.7758C6.76074 18.5162 7.34195 18.9761 8.01883 18.9761C8.44562 18.9761 8.86539 18.7973 9.23282 18.4591L11.4049 16.4592L14.5554 18.9959C14.5557 18.9962 14.5562 18.9964 14.5565 18.9967L14.5864 19.0208C14.5891 19.0229 14.592 19.0252 14.5948 19.0274C14.9449 19.299 15.3272 19.4424 15.7006 19.4426H15.7007C16.4302 19.4426 17.0111 18.9025 17.1804 18.067L19.9543 4.37009C20.0656 3.82031 19.9723 3.32837 19.6912 2.98474ZM5.77747 12.1544L12.5525 8.6932L8.33392 13.1758C8.2648 13.2492 8.21582 13.339 8.19171 13.4369L7.37826 16.7318L5.77747 12.1544ZM8.4389 17.597C8.41083 17.6228 8.3826 17.6458 8.35437 17.667L9.10907 14.6104L10.4819 15.7159L8.4389 17.597ZM18.8057 4.13739L16.0318 17.8344C16.0051 17.9655 15.9198 18.2705 15.7006 18.2705C15.5922 18.2705 15.4561 18.2115 15.3168 18.1042L11.7469 15.2298C11.7464 15.2293 11.7458 15.2288 11.7452 15.2285L9.621 13.518L15.7216 7.03564C15.9169 6.82812 15.9346 6.51028 15.7636 6.28232C15.5924 6.05435 15.2822 5.98263 15.0284 6.11233L4.99454 11.2384L1.43512 10.22L18.3596 3.75943C18.5025 3.7048 18.6023 3.69336 18.6608 3.69336C18.6966 3.69336 18.7604 3.69763 18.7841 3.72678C18.8152 3.76477 18.8549 3.89432 18.8057 4.13739Z" fill="white"/>
</g>
<defs>
<clipPath id="clip0_294_3073">
<rect width="20" height="20" fill="white" transform="translate(0 0.998047)"/>
</clipPath>
</defs>
</svg>
