<svg width="40" height="40" viewBox="0 0 40 40" fill="none" xmlns="http://www.w3.org/2000/svg">
<g clip-path="url(#clip0_282_21920)">
<path d="M28.3329 15.002H11.6673C11.2073 15.002 10.834 15.3753 10.834 15.8353V29.1677C10.834 31.181 12.2672 32.8625 14.1671 33.2508V37.5005C14.1671 38.8788 15.2887 40.0004 16.667 40.0004C18.0452 40.0004 19.1668 38.8788 19.1668 37.5005V33.3342H20.8333V37.5005C20.8333 38.8788 21.9549 40.0004 23.3332 40.0004C24.7114 40.0004 25.833 38.8788 25.833 37.5005V33.2508C27.7329 32.8642 29.1661 31.181 29.1661 29.1677V15.8353C29.1661 15.3736 28.7929 15.002 28.3329 15.002Z" fill="white"/>
<path d="M24.3614 4.44076L25.7663 1.16262C25.9479 0.739291 25.7513 0.251042 25.3279 0.0693354C24.9096 -0.114012 24.4146 0.0826939 24.2347 0.507666L22.8297 3.78745C21.9382 3.49747 20.9882 3.33584 20.0016 3.33584C19.015 3.33584 18.0651 3.49747 17.1734 3.78745L15.7653 0.507666C15.5853 0.0826939 15.0903 -0.115652 14.672 0.0693354C14.2487 0.250964 14.0537 0.740931 14.2354 1.16262L15.6403 4.44076C12.7789 5.99402 10.834 9.02546 10.834 12.5019C10.834 12.9618 11.2073 13.3352 11.6673 13.3352H28.3328C28.7928 13.3352 29.1661 12.9618 29.1661 12.5019C29.166 9.02546 27.2212 5.99402 24.3614 4.44076ZM16.6669 10.002C16.2069 10.002 15.8336 9.6287 15.8336 9.16873C15.8336 8.70876 16.2069 8.33543 16.6669 8.33543C17.1268 8.33543 17.5002 8.70876 17.5002 9.16873C17.5002 9.6287 17.1268 10.002 16.6669 10.002ZM23.3332 10.002C22.8732 10.002 22.4998 9.6287 22.4998 9.16873C22.4998 8.70876 22.8732 8.33543 23.3332 8.33543C23.7931 8.33543 24.1665 8.70876 24.1665 9.16873C24.1665 9.6287 23.7931 10.002 23.3332 10.002Z" fill="white"/>
<path d="M33.3319 15.002C31.9536 15.002 30.832 16.1235 30.832 17.5018V25.8346C30.832 27.2129 31.9536 28.3344 33.3319 28.3344C34.7101 28.3344 35.8317 27.2129 35.8317 25.8346V17.5018C35.8317 16.1236 34.7101 15.002 33.3319 15.002Z" fill="white"/>
<path d="M6.6678 15.002C5.28954 15.002 4.16797 16.1235 4.16797 17.5018V25.8346C4.16797 27.2129 5.28954 28.3344 6.6678 28.3344C8.04607 28.3344 9.16764 27.2129 9.16764 25.8346V17.5018C9.16764 16.1236 8.04607 15.002 6.6678 15.002Z" fill="white"/>
</g>
<defs>
<clipPath id="clip0_282_21920">
<rect width="40" height="40" fill="white"/>
</clipPath>
</defs>
</svg>
