<svg width="41" height="41" viewBox="0 0 41 41" fill="none" xmlns="http://www.w3.org/2000/svg">
<g clip-path="url(#clip0_282_21900)">
<path d="M31.7341 22.9828C30.6063 17.3068 35.9937 13.9779 35.9937 13.9779C35.9937 13.9779 33.8947 10.9411 30.367 10.1599C26.8411 9.37693 25.0764 10.3552 23.3151 11.0888C21.5521 11.8243 20.6724 11.8243 20.6724 11.8243C18.1283 11.8243 16.2685 9.1306 11.4212 10.357C8.08183 11.1997 4.5664 15.0547 3.93124 19.6557C3.29608 24.2584 4.66672 30.1315 7.3094 34.6832C9.95207 39.2384 12.6441 40.9504 14.5548 40.9996C16.4656 41.0471 18.3728 39.6308 20.6724 39.2859C22.9738 38.9446 24.3902 40.1199 26.6475 40.7551C28.8961 41.3885 29.6843 40.8008 32.2742 38.598C34.8711 36.3951 37.2218 30.077 37.2218 30.077C37.2218 30.077 32.8619 28.6623 31.7341 22.9828Z" fill="white"/>
<path d="M26.7417 6.48707C29.2401 3.94121 28.3939 0 28.3939 0C28.3939 0 24.8855 0.615828 22.5349 3.06144C20.186 5.50884 20.5748 9.37436 20.5748 9.37436C20.5748 9.37436 24.2433 9.03129 26.7417 6.48707Z" fill="white"/>
</g>
<defs>
<clipPath id="clip0_282_21900">
<rect width="41" height="41" fill="white"/>
</clipPath>
</defs>
</svg>
