<svg width="47" height="43" viewBox="0 0 47 43" fill="none" xmlns="http://www.w3.org/2000/svg">
<path d="M23.4993 33.5723C27.5595 33.5532 31.2771 31.2931 33.1627 27.6973H13.8359C15.7215 31.2931 19.4391 33.5532 23.4993 33.5723Z" fill="white"/>
<path d="M26.8566 14.2684C26.8557 13.3417 26.1047 12.5908 25.178 12.5898H22.6602V15.947H25.178C26.1047 15.9461 26.8557 15.1951 26.8566 14.2684Z" fill="white"/>
<path d="M15.9463 14.4043L15.1523 16.7854H16.7403L15.9463 14.4043Z" fill="white"/>
<path d="M9.23118 27.6957C8.38793 27.6928 7.54789 27.5917 6.72801 27.3945L4.13672 28.4621L6.21521 33.5023L9.758 32.0393C10.1211 31.8898 10.5394 32.0117 10.7651 32.3331C11.7998 33.8109 13.0852 35.0961 14.5632 36.1306C14.8858 36.356 15.0082 36.7756 14.8574 37.1391L13.3952 40.6741L18.4318 42.7621L19.8952 39.225C20.0458 38.8609 20.4293 38.6506 20.8173 38.7193C22.5906 39.0353 24.406 39.0328 26.1784 38.712C26.5665 38.6427 26.9506 38.8523 27.1025 39.216L28.5737 42.7592L33.6033 40.6737L32.1402 37.1301C31.9898 36.7654 32.1136 36.3452 32.4378 36.1203C33.9162 35.0911 35.2011 33.8086 36.233 32.332C36.4586 32.0105 36.8774 31.8888 37.2402 32.0395L40.782 33.5049L42.8718 28.4655L40.9874 27.6811C40.8928 27.6845 40.8001 27.6955 40.7047 27.6955H35.0216C33.0266 32.2824 28.501 35.2491 23.499 35.2491C18.4971 35.2491 13.9715 32.2824 11.9765 27.6955L9.23118 27.6957Z" fill="white"/>
<path d="M9.23214 26.0182H40.7054C44.1818 26.0182 47 23.1999 47 19.7235C47 16.2471 44.1818 13.4289 40.7054 13.4289H40.6214C40.2657 13.4289 39.9485 13.2045 39.8301 12.8691C38.7002 9.66458 35.6615 7.52999 32.2637 7.55387C32.1817 7.55387 32.1002 7.55429 32.0187 7.55999C31.6505 7.58342 31.3095 7.36576 31.1757 7.02193C29.5617 2.78954 25.5001 -0.00510056 20.9704 6.98926e-06C16.4408 0.00511453 12.3855 2.80891 10.781 7.04492C10.6472 7.40092 10.2903 7.62204 9.91188 7.58341C9.68594 7.56215 9.45907 7.55229 9.23214 7.55387C4.13337 7.55387 0 11.6872 0 16.786C0 21.8848 4.13337 26.0182 9.23214 26.0182ZM29.375 10.911H34.4107C34.8742 10.911 35.25 11.2868 35.25 11.7503C35.25 12.2138 34.8742 12.5896 34.4107 12.5896H32.7321V20.9824H34.4107C34.8742 20.9824 35.25 21.3582 35.25 21.8217C35.25 22.2852 34.8742 22.661 34.4107 22.661H29.375C28.9115 22.661 28.5357 22.2852 28.5357 21.8217C28.5357 21.3582 28.9115 20.9824 29.375 20.9824H31.0536V12.5896H29.375C28.9115 12.5896 28.5357 12.2138 28.5357 11.7503C28.5357 11.2868 28.9115 10.911 29.375 10.911ZM21.8214 10.911H25.1786C27.0327 10.911 28.5357 12.4141 28.5357 14.2682C28.5357 16.1223 27.0327 17.6253 25.1786 17.6253H22.6607V21.8217C22.6607 22.2852 22.285 22.661 21.8214 22.661C21.3579 22.661 20.9821 22.2852 20.9821 21.8217V11.7503C20.9821 11.2868 21.3579 10.911 21.8214 10.911ZM13.4716 7.28832C15.3202 1.74282 19.947 1.67887 20.1429 1.67887C20.6064 1.67773 20.9831 2.05257 20.9842 2.51609C20.9853 2.97962 20.6105 3.3563 20.147 3.35744C19.9842 3.35987 16.5156 3.46436 15.0641 7.81942C14.9692 8.10388 14.7298 8.31612 14.436 8.3762C14.1422 8.43627 13.8387 8.33504 13.6398 8.11065C13.4409 7.88625 13.3768 7.57278 13.4716 7.28832ZM11.7931 21.5562L15.1502 11.4847C15.1566 11.4655 15.1715 11.4526 15.1792 11.4344C15.27 11.2339 15.4307 11.0734 15.6312 10.9828C15.6493 10.9753 15.662 10.9605 15.6809 10.9542C15.7121 10.9484 15.7437 10.9445 15.7755 10.9425C15.8878 10.9142 16.0053 10.9142 16.1176 10.9425C16.1493 10.9445 16.1808 10.9484 16.212 10.9541C16.2309 10.9604 16.2435 10.9751 16.2616 10.9826C16.462 11.0735 16.6227 11.234 16.7137 11.4343C16.7213 11.4527 16.7363 11.4656 16.7427 11.4847L20.0998 21.5561C20.2465 21.9958 20.0089 22.4712 19.5691 22.6179C19.1294 22.7645 18.654 22.5269 18.5073 22.0872L17.2998 18.4646H14.5931L13.3855 22.0873C13.2389 22.527 12.7635 22.7646 12.3237 22.618C11.884 22.4713 11.6464 21.9959 11.7931 21.5562ZM6.01147 9.95901C6.28262 9.8309 6.60152 9.85718 6.84804 10.0279C7.09457 10.1987 7.23126 10.488 7.20663 10.7869C7.182 11.0858 6.99979 11.3488 6.72864 11.4769C4.67669 12.4503 3.36553 14.5149 3.35714 16.786C3.35199 18.1222 3.81087 19.4187 4.65543 20.4542C4.85102 20.6865 4.90591 21.0062 4.79896 21.2904C4.692 21.5746 4.4399 21.7789 4.13971 21.8245C3.83952 21.8702 3.53807 21.7502 3.35144 21.5107C1.89741 19.7108 1.3514 17.3424 1.87063 15.0876C2.38985 12.8328 3.91669 10.9417 6.01147 9.95901Z" fill="white"/>
</svg>
