<svg width="8" height="13" viewBox="0 0 8 13" fill="none" xmlns="http://www.w3.org/2000/svg">
<path d="M7.33504 5.99274L1.99489 0.207681C1.87138 0.0737718 1.7065 0 1.5307 0C1.3549 0 1.19002 0.0737718 1.06651 0.207681L0.673244 0.633613C0.417344 0.911155 0.417344 1.36224 0.673244 1.63936L5.1575 6.4973L0.668268 11.3606C0.544757 11.4945 0.476562 11.6731 0.476562 11.8634C0.476562 12.054 0.544757 12.2325 0.668268 12.3665L1.06153 12.7923C1.18514 12.9262 1.34992 13 1.52572 13C1.70153 13 1.86641 12.9262 1.98992 12.7923L7.33504 7.00198C7.45885 6.86764 7.52685 6.68829 7.52646 6.49762C7.52685 6.30622 7.45885 6.12697 7.33504 5.99274Z" fill="#38B8B9"/>
</svg>
