<svg width="7" height="4" viewBox="0 0 7 4" fill="none" xmlns="http://www.w3.org/2000/svg">
<path d="M3.77314 0.108606L6.88817 3.13852C6.96028 3.2086 7 3.30215 7 3.4019C7 3.50165 6.96028 3.5952 6.88817 3.66527L6.65882 3.88841C6.50938 4.0336 6.26649 4.0336 6.11727 3.88841L3.50145 1.34411L0.882733 3.89123C0.810628 3.96131 0.714507 4 0.612011 4C0.509402 4 0.413281 3.96131 0.341119 3.89123L0.111828 3.6681C0.0397234 3.59796 5.90914e-09 3.50447 7.09862e-09 3.40472C8.28811e-09 3.30497 0.0397234 3.21143 0.111828 3.14135L3.22971 0.108606C3.30204 0.0383613 3.39861 -0.000220342 3.50128 9.11953e-07C3.60434 -0.000220339 3.70086 0.0383613 3.77314 0.108606Z" fill="#444444"/>
</svg>
