<svg width="22" height="22" viewBox="0 0 22 22" fill="none" xmlns="http://www.w3.org/2000/svg">
<g clip-path="url(#clip0_282_19090)">
<path d="M12.8797 5.23124L15.472 2.63888C16.5468 1.56414 18.2872 1.56414 19.3611 2.63867C20.4351 3.71272 20.4351 5.45335 19.3613 6.52719L14.1757 11.7128C13.1018 12.7867 11.3612 12.7867 10.2874 11.7128C9.92939 11.3548 9.34896 11.3548 8.99098 11.7128C8.63301 12.0708 8.63301 12.6512 8.99098 13.0092C10.7808 14.799 13.6822 14.799 15.472 13.0092L20.6576 7.82361C22.4475 6.03378 22.4475 3.13238 20.6576 1.34255C18.868 -0.448225 15.9664 -0.448225 14.1756 1.34255L11.5833 3.93491C11.2253 4.29289 11.2253 4.87331 11.5833 5.23129C11.9412 5.58926 12.5217 5.58922 12.8797 5.23124Z" fill="#2DB18D"/>
<path d="M1.34381 20.6576C3.13364 22.4475 6.03598 22.4475 7.82581 20.6576L10.9361 17.5474C11.294 17.1894 11.294 16.609 10.9361 16.251C10.5781 15.893 9.99768 15.893 9.6397 16.251L6.52943 19.3613C5.4556 20.4351 3.71406 20.4351 2.64018 19.3613C1.56634 18.2874 1.56634 16.5468 2.64018 15.4729L8.34371 9.76938C9.41759 8.6955 11.1582 8.6955 12.232 9.76938C12.59 10.1274 13.1704 10.1274 13.5284 9.76938C13.8864 9.4114 13.8864 8.83098 13.5284 8.473C11.7386 6.68317 8.83717 6.68317 7.04734 8.473L1.34381 14.1765C-0.446026 15.9664 -0.446026 18.8678 1.34381 20.6576Z" fill="#2DB18D"/>
</g>
<defs>
<clipPath id="clip0_282_19090">
<rect width="22" height="22" fill="white" transform="translate(22 22) rotate(-180)"/>
</clipPath>
</defs>
</svg>
