<svg width="23" height="24" viewBox="0 0 23 24" fill="none" xmlns="http://www.w3.org/2000/svg">
<path fill-rule="evenodd" clip-rule="evenodd" d="M11.5 2.602C9.31685 2.602 7.54706 4.34943 7.54706 6.505C7.54706 8.66056 9.31685 10.408 11.5 10.408C13.6831 10.408 15.4529 8.66056 15.4529 6.505C15.4529 4.34943 13.6831 2.602 11.5 2.602ZM4.91176 6.505C4.91176 2.91239 7.86142 0 11.5 0C15.1386 0 18.0882 2.91239 18.0882 6.505C18.0882 10.0976 15.1386 13.01 11.5 13.01C7.86142 13.01 4.91176 10.0976 4.91176 6.505ZM4.42571 17.3985C6.48479 16.2284 8.9708 15.612 11.5 15.612C14.0292 15.612 16.5152 16.2284 18.5743 17.3985C20.6326 18.5681 22.1977 20.2569 22.9228 22.2609C23.1677 22.9376 22.8106 23.6821 22.1253 23.9238C21.44 24.1655 20.686 23.813 20.4412 23.1364C19.9651 21.8208 18.8834 20.5762 17.2598 19.6537C15.637 18.7315 13.6117 18.214 11.5 18.214C9.38825 18.214 7.363 18.7315 5.74017 19.6537C4.11658 20.5762 3.03486 21.8208 2.55884 23.1364C2.31401 23.813 1.55999 24.1655 0.874698 23.9238C0.189404 23.6821 -0.167661 22.9376 0.077171 22.2609C0.802316 20.2569 2.36738 18.5681 4.42571 17.3985Z" fill="#D6D0DA"/>
</svg>
