<svg width="24" height="24" viewBox="0 0 24 24" fill="none" xmlns="http://www.w3.org/2000/svg">
<path fill-rule="evenodd" clip-rule="evenodd" d="M22.9923 10.0305C23.5488 10.0305 24 10.4817 24 11.0382C24 17.2474 18.5129 22.0775 12 22.0775C11.1505 22.0775 10.3245 21.9937 9.52651 21.8398C8.98007 21.7345 8.6225 21.2061 8.72784 20.6597C8.83319 20.1132 9.36157 19.7556 9.90801 19.861C10.5854 19.9916 11.2837 20.0622 12 20.0622C17.5835 20.0622 21.9847 15.9592 21.9847 11.0382C21.9847 10.4817 22.4358 10.0305 22.9923 10.0305Z" fill="#D6D0DA"/>
<path fill-rule="evenodd" clip-rule="evenodd" d="M1.00763 10.0305C1.56413 10.0305 2.01526 10.4817 2.01526 11.0382C2.01526 13.9552 3.55086 16.5567 5.97359 18.2198C6.4324 18.5347 6.54903 19.162 6.23409 19.6208C5.91915 20.0796 5.2919 20.1962 4.8331 19.8813C1.93309 17.8906 0 14.7002 0 11.0382C0 10.4817 0.451132 10.0305 1.00763 10.0305Z" fill="#D6D0DA"/>
<path fill-rule="evenodd" clip-rule="evenodd" d="M5.40452 18.0429C5.96101 18.0436 6.41162 18.4952 6.41097 19.0517C6.41027 19.6557 6.41078 20.3801 6.41134 21.1701C6.41176 21.7494 6.41219 22.364 6.41219 22.9924C6.41219 23.5489 5.96106 24 5.40456 24C4.84806 24 4.39693 23.5489 4.39693 22.9924C4.39693 22.3677 4.3965 21.7542 4.39608 21.175C4.39552 20.3826 4.395 19.6544 4.39571 19.0494C4.39636 18.4929 4.84802 18.0423 5.40452 18.0429Z" fill="#D6D0DA"/>
<path fill-rule="evenodd" clip-rule="evenodd" d="M12 2.01526C6.41627 2.01526 2.01526 6.11724 2.01526 11.0382C2.01526 11.5947 1.56413 12.0457 1.00763 12.0457C0.451132 12.0457 0 11.5947 0 11.0382C0 4.8288 5.48721 0 12 0C18.5129 0 23.9999 4.83014 23.9999 11.0393C23.9999 11.5958 23.5488 12.047 22.9923 12.047C22.4358 12.047 21.9847 11.5958 21.9847 11.0393C21.9847 6.11827 17.5835 2.01526 12 2.01526Z" fill="#D6D0DA"/>
<path fill-rule="evenodd" clip-rule="evenodd" d="M10.6181 20.3965C10.8661 20.8948 10.6632 21.4996 10.165 21.7476L5.85351 23.8932C5.3553 24.1411 4.75042 23.9383 4.50248 23.44C4.25454 22.9418 4.45743 22.337 4.95564 22.089L9.26708 19.9434C9.7653 19.6954 10.3702 19.8983 10.6181 20.3965Z" fill="#D6D0DA"/>
<path fill-rule="evenodd" clip-rule="evenodd" d="M11.0702 10.3664C11.5833 9.85141 12.4167 9.85141 12.9298 10.3664C13.4407 10.8793 13.4407 11.7093 12.9298 12.2222C12.4167 12.7372 11.5833 12.7372 11.0702 12.2222C10.5593 11.7093 10.5593 10.8793 11.0702 10.3664Z" fill="#D6D0DA"/>
<path fill-rule="evenodd" clip-rule="evenodd" d="M15.9557 10.3664C16.4688 9.85141 17.3022 9.85141 17.8153 10.3664C18.3262 10.8793 18.3262 11.7093 17.8153 12.2222C17.3022 12.7372 16.4688 12.7372 15.9557 12.2222C15.4448 11.7093 15.4448 10.8793 15.9557 10.3664Z" fill="#D6D0DA"/>
<path fill-rule="evenodd" clip-rule="evenodd" d="M6.18472 10.3664C6.69778 9.85141 7.53122 9.85141 8.04428 10.3664C8.5552 10.8793 8.5552 11.7093 8.04428 12.2222C7.53122 12.7372 6.69778 12.7372 6.18472 12.2222C5.67379 11.7093 5.67379 10.8793 6.18472 10.3664Z" fill="#D6D0DA"/>
</svg>
