<svg width="18" height="18" viewBox="0 0 18 18" fill="none" xmlns="http://www.w3.org/2000/svg">
<path d="M9 18C4.0293 18 0 13.9707 0 9C0 4.0293 4.0293 0 9 0C13.9707 0 18 4.0293 18 9C18 13.9707 13.9707 18 9 18ZM9 16.2C10.9096 16.2 12.7409 15.4414 14.0912 14.0912C15.4414 12.7409 16.2 10.9096 16.2 9C16.2 7.09044 15.4414 5.25909 14.0912 3.90883C12.7409 2.55857 10.9096 1.8 9 1.8C7.09044 1.8 5.25909 2.55857 3.90883 3.90883C2.55857 5.25909 1.8 7.09044 1.8 9C1.8 10.9096 2.55857 12.7409 3.90883 14.0912C5.25909 15.4414 7.09044 16.2 9 16.2ZM4.5 9.9H6.3C6.3 10.6161 6.58446 11.3028 7.09081 11.8092C7.59716 12.3155 8.28392 12.6 9 12.6C9.71608 12.6 10.4028 12.3155 10.9092 11.8092C11.4155 11.3028 11.7 10.6161 11.7 9.9H13.5C13.5 11.0935 13.0259 12.2381 12.182 13.082C11.3381 13.9259 10.1935 14.4 9 14.4C7.80653 14.4 6.66193 13.9259 5.81802 13.082C4.97411 12.2381 4.5 11.0935 4.5 9.9ZM5.4 8.1C5.04196 8.1 4.69858 7.95777 4.44541 7.70459C4.19223 7.45142 4.05 7.10804 4.05 6.75C4.05 6.39196 4.19223 6.04858 4.44541 5.79541C4.69858 5.54223 5.04196 5.4 5.4 5.4C5.75804 5.4 6.10142 5.54223 6.35459 5.79541C6.60777 6.04858 6.75 6.39196 6.75 6.75C6.75 7.10804 6.60777 7.45142 6.35459 7.70459C6.10142 7.95777 5.75804 8.1 5.4 8.1ZM12.6 8.1C12.242 8.1 11.8986 7.95777 11.6454 7.70459C11.3922 7.45142 11.25 7.10804 11.25 6.75C11.25 6.39196 11.3922 6.04858 11.6454 5.79541C11.8986 5.54223 12.242 5.4 12.6 5.4C12.958 5.4 13.3014 5.54223 13.5546 5.79541C13.8078 6.04858 13.95 6.39196 13.95 6.75C13.95 7.10804 13.8078 7.45142 13.5546 7.70459C13.3014 7.95777 12.958 8.1 12.6 8.1Z" fill="#9F9F9F"/>
</svg>
