<svg width="11" height="9" viewBox="0 0 11 9" fill="none" xmlns="http://www.w3.org/2000/svg">
<path d="M1.7558 0.308332C1.56749 0.114724 1.30999 0.00384906 1.03994 9.83323e-05C0.769888 -0.0036524 0.509406 0.100029 0.315798 0.288333C0.12219 0.476636 0.0113153 0.734138 0.00756454 1.00419C0.00381382 1.27424 0.107495 1.53472 0.295798 1.72833L2.6358 4.01833L0.295798 6.30833C0.20207 6.4013 0.127675 6.5119 0.0769067 6.63376C0.026138 6.75561 0 6.88632 0 7.01833C0 7.15034 0.026138 7.28105 0.0769067 7.40291C0.127675 7.52477 0.20207 7.63537 0.295798 7.72833C0.388761 7.82206 0.499362 7.89645 0.621222 7.94722C0.743081 7.99799 0.873786 8.02413 1.0058 8.02413C1.13781 8.02413 1.26852 7.99799 1.39038 7.94722C1.51223 7.89645 1.62284 7.82206 1.7158 7.72833L4.7158 4.72833C4.80953 4.63537 4.88392 4.52477 4.93469 4.40291C4.98546 4.28105 5.0116 4.15034 5.0116 4.01833C5.0116 3.88632 4.98546 3.75561 4.93469 3.63376C4.88392 3.5119 4.80953 3.40129 4.7158 3.30833L1.7558 0.308332ZM10.2558 3.30833L7.2558 0.308332C7.06749 0.120028 6.8121 0.0142404 6.5458 0.0142404C6.2795 0.0142404 6.0241 0.120028 5.8358 0.308332C5.64749 0.496636 5.54171 0.75203 5.54171 1.01833C5.54171 1.28463 5.64749 1.54003 5.8358 1.72833L8.1358 4.01833L5.8358 6.30833C5.74207 6.4013 5.66768 6.5119 5.61691 6.63376C5.56614 6.75561 5.54 6.88632 5.54 7.01833C5.54 7.15034 5.56614 7.28105 5.61691 7.40291C5.66768 7.52477 5.74207 7.63537 5.8358 7.72833C5.92876 7.82206 6.03936 7.89645 6.16122 7.94722C6.28308 7.99799 6.41379 8.02413 6.5458 8.02413C6.67781 8.02413 6.80852 7.99799 6.93038 7.94722C7.05223 7.89645 7.16284 7.82206 7.2558 7.72833L10.2558 4.72833C10.3522 4.63804 10.4297 4.52954 10.484 4.40911C10.5382 4.28868 10.568 4.1587 10.5718 4.02667C10.5755 3.89464 10.553 3.76319 10.5056 3.63989C10.4583 3.5166 10.387 3.40391 10.2958 3.30833H10.2558Z" fill="#F7A491"/>
</svg>
