<svg width="52" height="54" viewBox="0 0 52 54" fill="none" xmlns="http://www.w3.org/2000/svg">
<path d="M25.1563 0.500082C24.4896 0.697999 23.6876 1.43758 23.3959 2.12508C23.1146 2.78133 23.0834 3.73967 23.323 4.31258L23.4896 4.70842L21.9271 6.23967C21.0626 7.09383 20.3126 7.80217 20.2605 7.81258C20.2084 7.83342 19.9688 7.78133 19.7396 7.68758C19.1251 7.43758 18.1355 7.46883 17.5105 7.77092C16.8646 8.06258 16.198 8.78133 15.948 9.42717C15.7188 10.0313 15.7709 11.1459 16.0521 11.7397C16.7501 13.1876 18.5521 13.8126 20.0001 13.1042C21.3542 12.4376 21.9896 10.8647 21.4792 9.42717L21.323 8.98967L22.9376 7.43758L24.5521 5.8855L25.0938 6.073C25.3959 6.17717 25.8438 6.2605 26.1042 6.2605C26.5417 6.2605 26.7709 6.198 27.6251 5.84383L27.948 5.71883L32.2813 9.04175L36.6251 12.3647L36.5417 12.7292C36.3959 13.448 36.4792 14.2709 36.7813 14.8647C37.2917 15.9167 38.2396 16.4792 39.4792 16.4792C41.4688 16.4688 42.8751 14.4167 42.1667 12.5417L41.9688 12.0417L43.2917 10.6772L44.6146 9.30217L45.0209 9.448C45.2501 9.53133 45.7292 9.59383 46.1042 9.59383C46.9792 9.60425 47.6771 9.29175 48.2605 8.62508C49.948 6.70842 48.6146 3.7605 46.0521 3.7605C44.0417 3.7605 42.6355 5.68758 43.2709 7.573L43.4792 8.18758L42.1771 9.573C41.4584 10.3334 40.8646 10.9584 40.8438 10.9584C40.8334 10.9584 40.6459 10.8855 40.448 10.8022C39.8438 10.5522 38.7396 10.5938 38.1355 10.9063C37.8542 11.0417 37.5834 11.1251 37.5209 11.0938C37.4063 11.0209 33.3855 7.92717 30.4896 5.68758C29.4688 4.90633 28.8855 4.37508 28.9063 4.28133C28.9271 4.198 28.9688 3.84383 29.0001 3.48967C29.0626 2.56258 28.8126 1.87508 28.1459 1.21883C27.323 0.406332 26.2813 0.145916 25.1563 0.500082ZM26.6771 2.04175C27.7084 2.47925 27.7084 4.05217 26.6771 4.54175C25.7396 4.98967 24.7292 4.34383 24.7292 3.30217C24.7292 2.75008 24.9376 2.3855 25.4063 2.10425C25.8021 1.85425 26.1876 1.84383 26.6771 2.04175ZM46.8751 5.55217C47.4584 6.0105 47.6251 6.78133 47.2501 7.3855C46.698 8.30217 45.2709 8.23967 44.823 7.28133C44.6042 6.83342 44.6042 6.58342 44.7917 6.11467C45.1042 5.3855 46.2605 5.073 46.8751 5.55217ZM19.7188 9.54175C20.0001 9.84383 20.0626 10.0001 20.0626 10.3855C20.0626 11.2709 19.5417 11.823 18.698 11.823C17.573 11.823 16.9167 10.448 17.6355 9.60425C18.0001 9.16675 18.2396 9.073 18.8542 9.12508C19.2917 9.15633 19.4271 9.21883 19.7188 9.54175ZM40.2084 12.4272C41.2709 13.2605 40.7709 14.9167 39.448 14.9167C38.6042 14.9167 38.0417 14.3751 38.0417 13.573C38.0417 12.7188 38.5626 12.2188 39.448 12.2084C39.7813 12.2084 40.0105 12.2709 40.2084 12.4272Z" fill="white"/>
<path d="M23.7292 11.8231C23.6042 11.896 23.4167 12.0731 23.3125 12.2085C23.1562 12.4481 23.1354 12.9168 23.1042 17.6043C23.0833 21.8856 23.0521 22.7398 22.9375 22.6981C22.8542 22.6668 22.5937 22.5835 22.3542 22.5106C22.125 22.4377 21.8854 22.3023 21.8333 22.2085C21.6354 21.8439 21.0729 21.6877 19.9687 21.6877H18.9271L18.7083 21.1981L18.4896 20.7085L19.2187 19.9793C20.0521 19.1252 20.1667 18.9273 20.1667 18.3856C20.1667 17.8231 19.6354 17.1148 18.4167 16.0523C17.4479 15.1981 16.8854 15.2814 15.6875 16.4377L14.9687 17.1356L14.4687 16.9273L13.9687 16.7293L13.9167 15.5314C13.8646 14.2398 13.7812 14.0314 13.25 13.7085C12.9792 13.5418 12.7083 13.5106 11.5208 13.5106C9.9375 13.5106 9.64583 13.6043 9.26042 14.1773C9.05208 14.4898 9.02083 14.6564 9.02083 15.6356V16.7398L8.57292 16.9168C8.33333 17.021 8.09375 17.1043 8.04167 17.1043C7.98958 17.1043 7.58333 16.7606 7.14583 16.3335C5.92708 15.146 5.48958 15.1564 4.125 16.4377C2.92708 17.5731 2.5625 18.2814 2.88542 18.9064C2.94792 19.0314 3.33333 19.4689 3.72917 19.8752L4.45833 20.6148L4.27083 21.1564L4.07292 21.6877H2.97917C2.08333 21.6877 1.82292 21.7293 1.55208 21.896C0.916667 22.2814 0.84375 22.5106 0.84375 24.1356C0.84375 25.4168 0.875 25.6356 1.05208 25.9585C1.38542 26.5314 1.8125 26.6877 3.03125 26.6877H4.08333L4.26042 27.1773L4.4375 27.6564L3.70833 28.4064C2.69792 29.4585 2.54167 29.9689 3.03125 30.6877C3.17708 30.896 3.29167 31.1148 3.29167 31.1564C3.29167 31.2085 3.13542 31.6668 2.9375 32.1668C1.83333 35.0418 1.63542 38.5939 2.39583 41.6148C3.90625 47.5731 8.69792 52.1252 14.7292 53.3543C18.4167 54.1043 22.625 53.4064 25.7812 51.521C27.5937 50.4481 28.0104 49.9689 27.5937 49.4168C27.2292 48.9273 26.8542 48.9793 25.7604 49.6877C24.4792 50.5106 23.6979 50.896 22.4271 51.3231C20.6354 51.9168 19.8021 52.0523 17.8229 52.0523C15.8437 52.0523 15.0104 51.9168 13.2187 51.3231C8.1875 49.646 4.52083 45.2918 3.64583 39.9168C3.44792 38.7189 3.51042 35.9898 3.76042 34.8648C3.90625 34.1981 4.39583 32.5835 4.51042 32.3856C4.54167 32.3335 4.66667 32.396 4.79167 32.5106C5.11458 32.8127 5.61458 32.9481 6 32.8335C6.17708 32.7814 6.3125 32.7606 6.3125 32.7814C6.3125 32.8023 6.17708 33.2293 6.01042 33.7398C5.47917 35.3231 5.34375 36.3127 5.40625 38.1981C5.46875 40.2085 5.73958 41.3752 6.52083 43.0106C8.65625 47.5002 12.9583 50.2293 17.8542 50.2293C23.8958 50.2293 29.0104 45.9064 30.125 39.8648C30.375 38.4689 30.2812 36.0523 29.9271 34.6773C29.3437 32.4689 28.2708 30.6043 26.6354 28.9689C26.0833 28.4168 25.2604 27.7189 24.8125 27.4168C24.1042 26.9481 22.75 26.2502 22.125 26.0314C21.9687 25.9793 21.9583 25.9168 22.0417 25.6981C22.1042 25.5418 22.1458 25.1148 22.1458 24.7502C22.1458 23.9585 22.0417 23.9793 23.4375 24.5627C25.1667 25.2918 26.7083 26.3752 28.1458 27.8543C30.0625 29.8439 31.3021 32.1981 31.9062 35.021C32.1667 36.271 32.1667 39.3023 31.8958 40.5314C31.4583 42.5627 30.7708 44.146 29.5937 45.9168C29.1458 46.5835 28.8125 47.1877 28.8125 47.3335C28.8125 47.6668 29.2187 48.0418 29.5833 48.0418C29.9479 48.0418 30.3542 47.6356 31.0625 46.5627C32.4375 44.4793 33.2917 42.1252 33.6562 39.3648L33.7187 38.8752H42.2083H50.6979L50.9479 38.6148C51.2812 38.2918 51.2812 37.896 50.9479 37.5731C50.7187 37.3439 50.6146 37.3127 49.8542 37.3127H49.0208V33.9793C49.0208 30.7814 49.0104 30.6356 48.8125 30.4377C48.5 30.1252 47.9479 30.1564 47.6771 30.5002C47.4687 30.771 47.4583 30.896 47.4583 34.0418V37.3127H46.0521H44.6458L44.6667 26.8648L44.6979 16.4273L46.0833 16.396L47.4583 16.3648V21.9273C47.4583 27.396 47.4583 27.5002 47.6771 27.771C47.9479 28.1148 48.5 28.146 48.8125 27.8335C49.0208 27.6252 49.0208 27.4898 49.0208 21.6564C49.0208 15.9273 49.0104 15.6877 48.8125 15.3648C48.5104 14.8752 48.0729 14.7918 45.8021 14.8335C43.6771 14.8648 43.5208 14.9064 43.2396 15.5002C43.1042 15.7918 43.0833 17.2398 43.0833 26.5731V37.3127H42.7187H42.3542V28.896C42.3542 20.7189 42.3437 20.4793 42.1458 20.1564C42.0312 19.9689 41.8125 19.7814 41.6562 19.7398C41.5 19.6877 40.4375 19.6564 39.3125 19.6564C37.3958 19.6564 37.25 19.6668 36.9687 19.8752C36.8125 19.9898 36.6146 20.2085 36.5521 20.3439C36.4479 20.5314 36.4167 22.521 36.4167 28.9481V37.3127H36.0521H35.6875V26.7814C35.6875 19.2398 35.6562 16.1981 35.5729 16.0314C35.2812 15.4585 35.1875 15.4377 32.7708 15.4377C30.8646 15.4377 30.4896 15.4585 30.2812 15.6043C29.7604 15.9793 29.75 16.0731 29.75 21.8648L29.7396 27.2606L29.3854 26.8439L29.0208 26.4273V22.7293C29.0208 18.5418 29.0208 18.5627 28.3021 18.5627C28.0312 18.5627 27.8437 18.6356 27.7083 18.7814C27.5208 18.9898 27.5104 19.2189 27.4792 22.0106C27.4583 23.6668 27.4271 25.021 27.4062 25.021C27.375 25.021 27.1354 24.8648 26.8646 24.6668C26.5833 24.4689 25.9896 24.1043 25.5312 23.8543L24.6979 23.396L24.6667 18.3231L24.6458 13.2502H26.0417H27.4375L27.4792 14.5939C27.5104 15.7398 27.5417 15.9689 27.7083 16.1564C27.9687 16.4377 28.5312 16.4481 28.8125 16.1668C29 15.9793 29.0208 15.8231 29.0208 14.1773V12.396L28.6667 12.0418L28.3125 11.6877H26.1458C24.6042 11.6981 23.8958 11.7293 23.7292 11.8231ZM12.3229 15.6981C12.3854 17.0523 12.4583 17.4168 12.7917 17.7918C12.9583 17.9793 13.1458 18.146 13.2083 18.146C13.2604 18.146 13.625 18.2814 14.0208 18.4585C15.2083 18.9793 15.5833 18.8648 16.7812 17.6356L17.2917 17.1043L17.8958 17.6981C18.2292 18.0314 18.5 18.3439 18.5 18.4064C18.5 18.4689 18.1667 18.8439 17.7708 19.2398C17 20.0002 16.8125 20.3752 16.9479 20.9064C17.1146 21.5731 17.5937 22.5835 17.8854 22.8856C18.1875 23.1877 18.2187 23.1981 19.3854 23.2293L20.5833 23.271V24.1981V25.1252H19.4687C17.9687 25.1252 17.8333 25.2085 17.3333 26.4377C16.7083 27.9585 16.7292 28.0523 17.7187 29.0731C18.1458 29.521 18.5 29.9168 18.5 29.9689C18.5 30.021 18.2292 30.3335 17.9062 30.6668L17.3125 31.271L16.5208 30.4898C15.6979 29.6981 15.4062 29.5418 14.8229 29.6356C14.4583 29.6877 13.2396 30.1877 12.8854 30.4377C12.5417 30.6773 12.3646 31.3231 12.3542 32.3335V33.2293L11.9271 33.3023C11.6979 33.3439 11.3021 33.3439 11.0521 33.3127L10.6042 33.2398L10.5625 32.1043C10.5417 31.1564 10.5 30.9273 10.3125 30.6773C10.0312 30.3127 8.41667 29.6043 7.84375 29.6043C7.47917 29.6043 7.35417 29.6877 6.625 30.396C5.67708 31.3127 5.625 31.3231 4.90625 30.521L4.4375 30.0002L5.20833 29.1773C6.23958 28.1043 6.27083 27.9377 5.71875 26.6043C5.16667 25.2606 5.07292 25.1877 3.57292 25.1252L2.40625 25.0731L2.375 24.1564L2.34375 23.2502H3.46875C5.05208 23.2502 5.10417 23.2189 5.78125 21.6148C6.28125 20.4481 6.21875 20.2085 5.13542 19.1043L4.38542 18.3439L5.04167 17.7085L5.69792 17.0731L6.51042 17.8752C7.55208 18.9168 7.79167 18.9585 9.16667 18.3856C10.4271 17.8543 10.5208 17.7085 10.5625 16.3439C10.5833 15.7606 10.6146 15.2189 10.6354 15.146C10.6771 15.0523 10.9062 15.021 11.4896 15.0418L12.3021 15.0731L12.3229 15.6981ZM34.125 27.1564C34.125 36.8335 34.1146 37.3127 33.9375 37.3127C33.7812 37.3127 33.7396 37.146 33.625 36.1356C33.3958 33.9689 32.8437 32.1668 31.8229 30.2502L31.3125 29.2918V23.146V17.0002H32.7187H34.125V27.1564ZM40.7917 29.2398V37.3127H39.3854H37.9792V29.3127C37.9792 24.9064 38.0104 21.271 38.0521 21.2398C38.0833 21.1981 38.7187 21.1668 39.4583 21.1668H40.7917V29.2398ZM20.875 27.271C21.3542 27.4064 21.9167 27.6148 22.1354 27.7189C22.4896 27.9064 22.5208 27.9585 22.4792 28.271C22.3958 29.0002 23.2604 29.4273 23.8021 28.9377C24.0104 28.7502 24.0312 28.7502 24.5729 29.1773C25.1771 29.6356 26.0833 30.5627 26.5625 31.1877L26.8542 31.5731L26.6354 31.8543C26.3437 32.2293 26.3646 32.5731 26.6875 32.896C26.9062 33.1252 27.0104 33.1564 27.3125 33.0939C27.6562 33.0314 27.6771 33.0523 27.875 33.4793C28.1771 34.1564 28.5729 35.6252 28.6562 36.3439L28.7292 37.0002H27.5208C26.4479 37.0002 26.2917 37.021 26.1042 37.2085C25.7917 37.521 25.8229 38.0731 26.1667 38.3439C26.4062 38.5314 26.5937 38.5627 27.5729 38.5627C28.6771 38.5627 28.7083 38.5731 28.7083 38.7918C28.7083 39.271 28.3125 40.9273 28.0104 41.6877L27.7187 42.4689L27.3125 42.4377C26.5625 42.3648 26.1562 43.1043 26.625 43.6981L26.8333 43.9585L26.4375 44.4689C25.9271 45.1148 25.1458 45.8856 24.5 46.396L23.9896 46.8023L23.7604 46.5835C23.2292 46.0939 22.375 46.5314 22.4896 47.2502C22.5417 47.5939 22.5312 47.6043 21.9479 47.8648C21.3229 48.1356 19.9271 48.5002 19.1042 48.6148L18.6042 48.6773V47.4898C18.6042 46.4481 18.5833 46.2814 18.3958 46.0835C18.1146 45.7814 17.5312 45.7814 17.25 46.0627C17.0625 46.2502 17.0417 46.4064 17.0417 47.4689C17.0417 48.5002 17.0208 48.6668 16.875 48.6668C16.4375 48.6668 14.5521 48.2085 13.8854 47.9481C13.1458 47.646 13.1354 47.646 13.1667 47.2918C13.2396 46.5418 12.3646 46.0523 11.8854 46.5835C11.7812 46.6981 11.6458 46.7502 11.5625 46.7085C11.1146 46.4585 9.94792 45.3752 9.42708 44.7293L8.8125 43.9585L9.02083 43.6981C9.29167 43.3543 9.28125 43.0418 9.01042 42.6877C8.82292 42.4481 8.71875 42.4064 8.35417 42.4377L7.92708 42.4689L7.625 41.6877C7.33333 40.9273 6.9375 39.271 6.9375 38.7918C6.9375 38.5731 6.96875 38.5627 8.07292 38.5627C9.05208 38.5627 9.23958 38.5314 9.47917 38.3439C9.82292 38.0731 9.85417 37.521 9.54167 37.2085C9.35417 37.021 9.19792 37.0002 8.125 37.0002H6.90625L6.97917 36.396C7.09375 35.4273 7.45833 34.1981 7.9375 33.1668C8.40625 32.146 8.76042 31.5835 8.92708 31.5835C8.97917 31.5835 9.02083 32.0835 9.02083 32.6981C9.02083 33.9481 9.16667 34.3543 9.71875 34.6356C10.125 34.8439 11.4271 34.9377 12.4062 34.8231C13.1667 34.7293 13.2604 34.6981 13.5729 34.3543L13.9167 33.9793V32.8439C13.9167 31.6043 13.9167 31.6148 14.6042 31.3439L15.0312 31.1773L15.8021 31.9585C17.0208 33.1877 17.4896 33.1877 18.7812 31.9689C19.8542 30.9585 20.1667 30.5106 20.1667 30.0002C20.1667 29.4481 20.0521 29.2606 19.2083 28.396L18.4896 27.6564L18.6771 27.271L18.8646 26.8752L19.4375 26.9481C19.75 26.9898 20.3958 27.1356 20.875 27.271Z" fill="white"/>
<path d="M10.1347 19.1356C7.84299 19.7606 6.30133 21.7814 6.30133 24.1564C6.28049 28.7814 11.8222 31.1251 15.1138 27.896C16.218 26.8127 16.8117 25.2814 16.6867 23.8022C16.5097 21.5627 14.9472 19.6981 12.8013 19.1356C12.0826 18.9481 10.8222 18.9481 10.1347 19.1356ZM12.9992 20.8439C14.1763 21.4064 14.9992 22.5627 15.1242 23.8335C15.2597 25.0835 14.5826 26.5002 13.5409 27.1981C12.5097 27.8752 11.1034 28.021 10.0409 27.5418C9.39508 27.2606 8.54091 26.4585 8.22841 25.8439C7.43674 24.2814 7.93674 22.1877 9.32216 21.2293C10.0826 20.6981 10.6555 20.5314 11.6242 20.5731C12.2701 20.6043 12.6451 20.6772 12.9992 20.8439Z" fill="white"/>
<path d="M10.5314 22.0627C9.29184 22.7398 8.84392 24.0418 9.43767 25.2293C10.4898 27.3023 13.5731 26.6564 13.7814 24.3231C13.8231 23.8023 13.7918 23.646 13.5314 23.146C13.0835 22.3023 12.5418 21.9585 11.5939 21.9273C11.0523 21.9064 10.7606 21.9377 10.5314 22.0627ZM12.0418 23.6877C12.646 24.3439 11.7085 25.3127 11.021 24.7293C10.6877 24.4585 10.6356 24.0731 10.896 23.7398C11.1877 23.3752 11.7293 23.3543 12.0418 23.6877Z" fill="white"/>
<path d="M17.2812 37.2294C16.8229 37.7398 13.8125 42.9794 13.8125 43.271C13.8125 43.6773 14.1458 43.9794 14.5833 43.9794C15.0417 43.9794 15.0833 43.9273 16.7292 41.1356C17.4271 39.9481 18.0417 38.9481 18.0937 38.9169C18.1458 38.896 18.9167 39.3023 19.8229 39.8231C21.625 40.8752 22.0104 40.9898 22.3646 40.5523C22.625 40.2294 22.6146 39.8856 22.3333 39.5627C21.9687 39.1773 18.125 37.0002 17.7812 37.0002C17.6146 37.0002 17.4062 37.1044 17.2812 37.2294Z" fill="white"/>
<path d="M35.948 40.6981C35.4688 41.1669 35.573 41.3961 36.8022 42.6356L37.9167 43.7711L36.8022 44.9065C35.573 46.1461 35.448 46.4273 35.9272 46.8752C36.4376 47.3544 36.6563 47.2294 38.2709 45.6148C40.2292 43.6565 40.2292 43.8856 38.2605 41.9273C36.6355 40.3023 36.4376 40.1981 35.948 40.6981Z" fill="white"/>
<path d="M41.3642 40.6981C40.885 41.1669 40.9892 41.396 42.2183 42.646L43.3329 43.771L42.2704 44.844C41.0829 46.0315 40.9371 46.344 41.3121 46.8231C41.4683 47.021 41.6246 47.1044 41.8746 47.1044C42.1663 47.1044 42.3954 46.9169 43.7496 45.5523C45.1767 44.1148 45.2913 43.969 45.2288 43.6981C45.1871 43.5106 44.6142 42.8648 43.6663 41.9169C42.0413 40.3023 41.8538 40.1981 41.3642 40.6981Z" fill="white"/>
<path d="M46.9794 40.5627C46.6982 40.6981 46.4898 41.1252 46.5836 41.4169C46.6148 41.5315 47.1253 42.1148 47.6982 42.6981L48.7503 43.771L47.7607 44.7815C47.2086 45.344 46.7086 45.9065 46.6357 46.0315C46.3753 46.5315 46.7815 47.1044 47.4065 47.1044C47.6669 47.1044 47.9482 46.8752 49.1982 45.6148C50.4169 44.3856 50.6878 44.0627 50.6878 43.8127C50.6878 43.5731 50.4169 43.2502 49.1461 41.9794C47.594 40.4273 47.4482 40.3335 46.9794 40.5627Z" fill="white"/>
</svg>
