<svg width="22" height="18" viewBox="0 0 22 18" fill="none" xmlns="http://www.w3.org/2000/svg">
<path fill-rule="evenodd" clip-rule="evenodd" d="M21.1297 2.19854C20.367 2.5368 19.5459 2.76552 18.6856 2.86905C19.5642 2.34179 20.2389 1.50877 20.5562 0.515639C19.7338 1.00317 18.8235 1.35709 17.8535 1.54729C17.0774 0.720283 15.9719 0.203857 14.7481 0.203857C12.398 0.203857 10.4921 2.10825 10.4921 4.45805C10.4921 4.7927 10.5311 5.11652 10.6031 5.4283C7.067 5.25135 3.93234 3.55641 1.83362 0.982709C1.46634 1.61109 1.25769 2.34179 1.25769 3.12184C1.25769 4.59769 2.00932 5.90019 3.1502 6.66219C2.45225 6.64052 1.79579 6.44912 1.22352 6.13011C1.22352 6.14817 1.22352 6.16623 1.22352 6.18429C1.22352 8.24517 2.68897 9.96418 4.63639 10.3554C4.27887 10.4529 3.90428 10.5047 3.51504 10.5047C3.24171 10.5047 2.97449 10.4782 2.71459 10.4276C3.25636 12.1178 4.82796 13.348 6.68996 13.3829C5.23306 14.5229 3.3979 15.2031 1.40411 15.2031C1.06124 15.2031 0.722027 15.1838 0.388916 15.1441C2.27166 16.3515 4.50827 17.0557 6.91204 17.0557C14.7383 17.0557 19.0187 10.5733 19.0187 4.9516C19.0187 4.76622 19.0139 4.58445 19.0065 4.40147C19.8375 3.80199 20.5598 3.05202 21.1297 2.19974V2.19854Z" fill="white"/>
</svg>
