<?xml version="1.0" encoding="UTF-8"?>
<svg width="18px" height="18px" viewBox="0 0 18 18" version="1.1" xmlns="http://www.w3.org/2000/svg" xmlns:xlink="http://www.w3.org/1999/xlink">
    <!-- Generator: Sketch 52.6 (67491) - http://www.bohemiancoding.com/sketch -->
    <title>Group 3</title>
    <desc>Created with Sketch.</desc>
    <defs>
        <polygon id="path-1" points="0 0 18 0 18 18 0 18"></polygon>
    </defs>
    <g id="Symbols" stroke="none" stroke-width="1" fill="none" fill-rule="evenodd">
        <g id="MENU-+-INFO" transform="translate(-1441.000000, -76.000000)">
            <g id="Group-3" transform="translate(1441.000000, 76.000000)">
                <mask id="mask-2" fill="white">
                    <use xlink:href="#path-1"></use>
                </mask>
                <g id="Clip-2"></g>
                <path d="M13.77675,10.01475 C13.404,10.38825 12.98325,10.71375 12.53325,10.992 C14.68725,12.3975 15.81675,14.80425 16.2615,16.50075 L1.722,16.50075 C2.151,14.78325 3.2655,12.37425 5.45175,10.98225 C4.9995,10.70175 4.58025,10.374 4.20825,9.999 C1.01475,12.303 0,16.37775 0,18 L18,18 C18,16.39425 16.91925,12.333 13.77675,10.01475 M9,0 C6.1005,0 3.75,2.3505 3.75,5.25075 C3.75,8.15025 6.1005,10.50075 9,10.50075 C11.8995,10.50075 14.25,8.15025 14.25,5.25075 C14.25,2.3505 11.8995,0 9,0 M9,1.5 C11.06775,1.5 12.75,3.183 12.75,5.25075 C12.75,7.31775 11.06775,9.00075 9,9.00075 C6.93225,9.00075 5.25,7.31775 5.25,5.25075 C5.25,3.183 6.93225,1.5 9,1.5" id="Fill-1" fill="#000000" opacity="0.149999991" mask="url(#mask-2)"></path>
            </g>
        </g>
    </g>
</svg>