<svg width="24" height="25" viewBox="0 0 24 25" fill="none" xmlns="http://www.w3.org/2000/svg">
<path d="M8.25 19.29C8.66421 19.29 9 18.9543 9 18.54C9 18.1258 8.66421 17.79 8.25 17.79C7.83579 17.79 7.5 18.1258 7.5 18.54C7.5 18.9543 7.83579 19.29 8.25 19.29Z" stroke="#D9B5A5" stroke-width="1.3" stroke-linecap="round" stroke-linejoin="round"/>
<path d="M18.75 19.29C19.1642 19.29 19.5 18.9543 19.5 18.54C19.5 18.1258 19.1642 17.79 18.75 17.79C18.3358 17.79 18 18.1258 18 18.54C18 18.9543 18.3358 19.29 18.75 19.29Z" stroke="#D9B5A5" stroke-width="1.3" stroke-linecap="round" stroke-linejoin="round"/>
<path d="M2.25 2.79004H5.25L7.5 15.54H19.5" stroke="#D9B5A5" stroke-width="1.3" stroke-linecap="round" stroke-linejoin="round"/>
<path d="M7.5 12.54H19.1925C19.2792 12.5401 19.3633 12.5101 19.4304 12.4551C19.4975 12.4002 19.5434 12.3237 19.5605 12.2386L20.9105 5.48863C20.9214 5.4342 20.92 5.37804 20.9066 5.32418C20.8931 5.27033 20.8679 5.22013 20.8327 5.17721C20.7975 5.1343 20.7532 5.09973 20.703 5.07601C20.6528 5.05228 20.598 5.04 20.5425 5.04004H6" stroke="#D9B5A5" stroke-width="1.3" stroke-linecap="round" stroke-linejoin="round"/>
</svg>
