<svg width="25" height="25" viewBox="0 0 25 25" fill="none" xmlns="http://www.w3.org/2000/svg">
<path d="M17.07 22.0402C17.3356 22.0417 17.5989 21.9903 17.8444 21.889C18.0899 21.7877 18.3128 21.6385 18.5 21.4502L21.21 18.7402C21.3963 18.5528 21.5008 18.2994 21.5008 18.0352C21.5008 17.771 21.3963 17.5175 21.21 17.3302L17.21 13.3302C17.0227 13.1439 16.7692 13.0394 16.505 13.0394C16.2408 13.0394 15.9874 13.1439 15.8 13.3302L14.2 14.9202C13.0923 14.6248 12.0663 14.0811 11.2 13.3302C10.4512 12.4625 9.90766 11.437 9.61003 10.3302L11.2 8.73018C11.3863 8.54282 11.4908 8.28937 11.4908 8.02518C11.4908 7.761 11.3863 7.50754 11.2 7.32018L7.20003 3.32018C7.01267 3.13393 6.75922 3.02939 6.49503 3.02939C6.23085 3.02939 5.9774 3.13393 5.79003 3.32018L3.09003 6.04018C2.90167 6.22742 2.75248 6.45031 2.65118 6.69583C2.54988 6.94135 2.4985 7.20459 2.50003 7.47018C2.59076 11.3125 4.12611 14.9795 6.80003 17.7402C9.56075 20.4141 13.2277 21.9495 17.07 22.0402V22.0402ZM6.50003 5.45018L9.09003 8.04018L7.80003 9.33018C7.67785 9.44463 7.58636 9.58792 7.53395 9.74691C7.48153 9.9059 7.46987 10.0755 7.50003 10.2402C7.8738 11.9106 8.66514 13.4588 9.80003 14.7402C11.0804 15.8765 12.6291 16.6681 14.3 17.0402C14.4622 17.0741 14.6303 17.0672 14.7891 17.02C14.9479 16.9729 15.0926 16.887 15.21 16.7702L16.5 15.4502L19.09 18.0402L17.09 20.0402C13.7738 19.9548 10.6095 18.6313 8.22003 16.3302C5.91295 13.9397 4.58564 10.7713 4.50003 7.45018L6.50003 5.45018ZM20.5 11.0402H22.5C22.526 9.85118 22.3109 8.66924 21.8678 7.56559C21.4247 6.46194 20.7627 5.45943 19.9217 4.61848C19.0808 3.77753 18.0783 3.11555 16.9746 2.67243C15.871 2.22932 14.689 2.01425 13.5 2.04018V4.04018C14.4279 4.00808 15.3525 4.16719 16.2163 4.50761C17.0801 4.84804 17.8647 5.3625 18.5212 6.01902C19.1777 6.67554 19.6922 7.46009 20.0326 8.32389C20.373 9.18769 20.5321 10.1123 20.5 11.0402Z" fill="#D9B5A5"/>
<path d="M13.5 8.04004C15.6 8.04004 16.5 8.94004 16.5 11.04H18.5C18.5 7.82004 16.72 6.04004 13.5 6.04004V8.04004Z" fill="#D9B5A5"/>
</svg>
