<svg width="24" height="25" viewBox="0 0 24 25" fill="none" xmlns="http://www.w3.org/2000/svg">
<path d="M18.3643 11.02C19.9263 12.581 19.9263 15.114 18.3643 16.676L12.7073 22.333C12.3173 22.723 11.6833 22.723 11.2933 22.333L5.63634 16.676C4.07434 15.114 4.07434 12.581 5.63634 11.019C7.19834 9.45704 9.73134 9.45704 11.2933 11.019L11.9993 11.726L12.7073 11.019C14.2693 9.45704 16.8023 9.45704 18.3643 11.019V11.02ZM7.05034 12.432C6.27034 13.213 6.27034 14.48 7.05034 15.261L12.0003 20.211L16.9503 15.261C17.7303 14.48 17.7303 13.213 16.9503 12.432C16.1693 11.652 14.9023 11.652 14.1203 12.434L11.9983 14.552L9.87834 12.432C9.09834 11.652 7.83134 11.652 7.05034 12.432ZM12.0003 1.04004C14.2103 1.04004 16.0003 2.83004 16.0003 5.04004C16.0003 7.25004 14.2103 9.04004 12.0003 9.04004C9.79034 9.04004 8.00034 7.25004 8.00034 5.04004C8.00034 2.83004 9.79034 1.04004 12.0003 1.04004ZM12.0003 3.04004C10.8953 3.04004 10.0003 3.93504 10.0003 5.04004C10.0003 6.14504 10.8953 7.04004 12.0003 7.04004C13.1053 7.04004 14.0003 6.14504 14.0003 5.04004C14.0003 3.93504 13.1053 3.04004 12.0003 3.04004Z" fill="#D9B5A5"/>
</svg>
