<svg width="106" height="29" viewBox="0 0 106 29" fill="none" xmlns="http://www.w3.org/2000/svg">
<g clip-path="url(#clip0_622_887)">
<path fill-rule="evenodd" clip-rule="evenodd" d="M9.92015 0.135619C10.8597 0.130154 13.6519 -0.114341 14.8346 3.76647C15.6313 6.38063 16.9004 10.6627 18.6419 16.6128H19.3511C21.2187 10.3398 22.5016 6.05772 23.1999 3.76647C24.3949 -0.154766 27.3826 0.135695 28.5776 0.135695L37.7976 0.135707V28.02H28.4003V11.5873H27.7702L22.5316 28.02H15.4613L10.2228 11.5751H9.59263V28.02H0.195312V0.135707L9.92015 0.135619ZM51.292 0.135707V16.5806H52.0417L58.4139 3.05808C59.6508 0.367061 62.2872 0.135707 62.2872 0.135707H71.381V28.02H61.7874V11.5751H61.0377L54.7905 25.0977C53.5535 27.7765 50.7922 28.02 50.7922 28.02H41.6984V0.135707H51.292ZM104.541 13.3865C103.202 17.0733 99 19.7137 94.3473 19.7137H84.2865V28.02H75.1636V13.3865H104.541Z" fill="#00DC88"/>
<path fill-rule="evenodd" clip-rule="evenodd" d="M94.7876 0.135742H74.6855C75.164 6.34374 80.6629 11.6582 86.3554 11.6582H105.175C106.261 6.49862 102.522 0.135742 94.7876 0.135742Z" fill="url(#paint0_linear_622_887)"/>
</g>
<defs>
<linearGradient id="paint0_linear_622_887" x1="105.36" y1="7.38386" x2="74.6855" y2="7.38386" gradientUnits="userSpaceOnUse">
<stop stop-color="#1F5CD7"/>
<stop offset="1" stop-color="#02AEFF"/>
</linearGradient>
<clipPath id="clip0_622_887">
<rect width="105" height="28" fill="white" transform="translate(0.189453 0.130859)"/>
</clipPath>
</defs>
</svg>
