<svg width="153" height="51" viewBox="0 0 153 51" fill="none" xmlns="http://www.w3.org/2000/svg">
<g clip-path="url(#clip0_622_850)">
<path d="M54.4129 23.5193L55.1285 21.1925L52.7609 21.268C52.561 21.268 51.107 21.2262 49.6966 20.1874C49.8017 20.1979 49.9067 20.2125 50.0141 20.2125C51.4659 20.2125 52.8702 19.3246 53.4333 18.0554L54.4521 15.7623C53.1755 15.779 52.0083 15.6157 52.0083 15.6157C51.9979 15.6136 51.0781 15.4941 50.0141 14.3905C49.2509 13.5989 48.3065 13.18 47.2835 13.18C46.8361 13.18 46.436 13.2617 46.0916 13.3727C46.1452 13.1864 46.1967 12.9978 46.2258 12.803C46.5514 10.6565 45.1904 9.01877 45.1904 9.02084L43.4107 6.78209L42.3074 9.41253C42.3032 9.42093 42.0248 10.0366 41.5258 10.3382C41.3752 9.56541 41.0061 8.69621 40.2163 7.8649C38.7272 6.29839 36.9146 6.06591 35.9659 6.06591C35.5266 6.06591 35.2132 6.11412 35.1368 6.12665L32.9881 6.55594C33.1117 6.06797 33.3757 5.21986 33.8583 4.45547L35.0441 2.57895L32.06 2.92451L31.1093 0.874307L29.2698 1.8377L27.5684 0.130859L25.8711 1.8377L24.0254 0.874307L23.0767 2.92451L20.0948 2.57895L21.2825 4.45547C21.7651 5.21986 22.0291 6.06591 22.1509 6.55388L20.1008 6.14345L20.0308 6.13078C19.9276 6.11412 19.6163 6.06591 19.1749 6.06591C18.2263 6.06591 16.4136 6.30046 14.9287 7.8649C14.1368 8.69415 13.7677 9.56541 13.6151 10.3382C13.1202 10.0408 12.8437 9.43346 12.8437 9.43346L11.7384 6.78842L9.92987 9.04178C9.70911 9.33292 8.61826 10.8721 8.91517 12.8072C8.94617 12.9999 8.99562 13.1885 9.04927 13.3748C8.70694 13.2638 8.30681 13.1821 7.85937 13.1821C6.83645 13.1821 5.89197 13.601 5.12687 14.3926C4.06674 15.4921 3.15111 15.6157 3.15946 15.6157C3.15946 15.6157 2.1922 15.7916 0.69502 15.7643L1.70757 18.0575C2.27064 19.3287 3.67698 20.2146 5.12687 20.2146C5.23617 20.2146 5.34128 20.1999 5.44856 20.1895C4.04208 21.2283 2.58817 21.2701 2.41282 21.2722L0 21.1925L0.730059 23.5172C1.09718 24.715 2.32414 26.7003 4.67525 26.914C4.41945 28.003 3.85233 29.2219 2.60676 29.7476L0.810518 30.4994L1.79004 32.2314C2.34274 33.1654 3.63992 34.2586 5.48764 34.2586C5.88779 34.2565 6.27337 34.2167 6.64466 34.1371C6.73954 34.5643 6.85909 34.9915 6.99939 35.4146C7.54993 37.0774 7.07566 38.2376 7.06947 38.2501L6.18267 40.1371L8.16247 40.667C8.18726 40.6753 8.78525 40.8408 9.53391 40.8408C9.87421 40.8408 10.1979 40.8051 10.5032 40.7318C10.7341 40.6774 10.9548 40.6042 11.1672 40.5162C11.4229 40.9832 11.7343 41.4084 12.0973 41.7894C13.3656 43.111 15.1619 43.7811 17.4385 43.7811H17.4468L19.0719 43.7601L15.7145 45.1759L18.2635 46.4262C19.1894 46.8848 20.2886 47.4271 21.4063 47.8418L21.0887 48.7257L21.9673 49.1319C22.0456 49.1674 23.7346 49.9361 26.5435 50.0994C26.5435 50.0994 27.222 50.1309 27.5951 50.1309C27.9684 50.1309 28.6386 50.0972 28.6386 50.0972C31.429 49.9298 33.1055 49.1695 33.184 49.1319L34.0645 48.7235L33.7428 47.8375C34.8936 47.4103 36.0319 46.847 36.9187 46.4073L39.4202 45.1738L36.073 43.7559L37.7044 43.7768C39.9832 43.7768 41.7815 43.1068 43.0476 41.7831C43.4086 41.4041 43.7201 40.9789 43.9779 40.512C44.1903 40.5999 44.4129 40.6732 44.6439 40.7277C44.947 40.801 45.2709 40.8365 45.6111 40.8365C46.3473 40.8365 46.9516 40.6711 46.968 40.667L48.9561 40.1328L48.0899 38.2816C48.0693 38.2335 47.595 37.0753 48.1457 35.4103C48.2858 34.9853 48.4033 34.5582 48.4982 34.1329C48.8716 34.2125 49.2613 34.2544 49.6635 34.2544C52.0164 34.2544 53.1445 32.5726 53.3632 32.2084L54.3324 30.4951L52.5362 29.7455C51.2885 29.2198 50.7235 27.9989 50.4698 26.9119C52.7878 26.711 54.0334 24.7255 54.4129 23.5193ZM22.3074 7.35599L22.2829 7.36219L22.3034 7.33507L22.3074 7.35599Z" fill="white"/>
<path d="M27.5714 7.25391C25.67 7.25597 24.2451 7.88842 23.9336 8.63187L27.5714 10.0894L31.2093 8.63187C30.8999 7.88842 29.4749 7.25597 27.5714 7.25391Z" fill="white"/>
<path d="M27.6072 45.8395H27.6031H27.5721H27.537H27.535C26.3821 45.8479 24.7963 45.607 24.0312 45.3809L23.1113 47.9086C23.7177 48.1285 25.7718 48.5473 27.5721 48.5473C29.3683 48.5473 31.4244 48.1265 32.0287 47.9086L31.1109 45.3809C30.3438 45.6092 28.7599 45.8479 27.6072 45.8395Z" fill="white"/>
<path d="M34.5665 43.3271C33.8819 43.7209 32.3537 44.3114 31.4648 44.5858L32.2114 46.6737C33.5869 46.2925 34.7211 45.8465 35.6595 45.369L34.1107 44.8454L34.5665 43.3271Z" fill="white"/>
<path d="M20.5754 43.3271L21.0332 44.8454L19.4824 45.369C20.4187 45.8465 21.5591 46.2925 22.9285 46.6737L23.675 44.5858C22.7902 44.3114 21.26 43.7188 20.5754 43.3271Z" fill="white"/>
<path d="M27.5695 4.83655C29.0028 4.83655 30.4092 5.18418 31.4898 5.79569C31.5889 5.45853 31.727 5.05017 31.9147 4.62294L31.5064 4.67321L31.0775 4.71922L30.896 4.32339L30.3494 3.15065L29.3533 3.67842L28.9657 3.8795L28.6563 3.56947L27.5737 2.48047L26.493 3.56947L26.1836 3.8795L25.796 3.67842L24.7937 3.15065L24.2535 4.32339L24.0678 4.71922L23.6388 4.67321L23.2305 4.62294C23.4182 5.05224 23.5543 5.45853 23.6553 5.79569C24.738 5.18418 26.1403 4.83655 27.5695 4.83655Z" fill="white"/>
<path d="M49.4527 18.3908C49.6384 18.4558 49.828 18.4852 50.0158 18.4852C50.8261 18.4852 51.6099 17.9531 51.88 17.3438C51.88 17.3438 50.3931 17.2516 48.7948 15.6035C48.2856 15.0693 47.7473 14.9102 47.2853 14.9102C46.5676 14.9102 46.0293 15.2955 46.0293 15.2955C47.9597 16.3385 48.3535 18.0138 49.4527 18.3908Z" fill="white"/>
<path d="M5.12595 18.4852C5.31356 18.4852 5.50331 18.4558 5.68485 18.3908C6.78809 18.0138 7.18405 16.3385 9.1144 15.2955C9.1144 15.2955 8.57395 14.9102 7.86047 14.9102C7.39645 14.9102 6.85817 15.0693 6.34671 15.6035C4.75061 17.2516 3.26367 17.3438 3.26367 17.3438C3.5297 17.9531 4.31543 18.4852 5.12595 18.4852Z" fill="white"/>
<path d="M49.9757 25.199C50.0087 25.2011 50.0375 25.2011 50.0726 25.2011C52.0956 25.2011 52.7825 23.0001 52.7825 23.0001H52.7432C52.3721 23.0001 49.3631 22.9121 47.2369 20.1665C45.8367 18.3613 44.69 16.7738 42.4235 16.1499L42.2009 16.1101L42.1513 15.8797C42.0895 15.5277 42.3267 15.1989 42.865 14.843C45.9913 12.7634 43.8692 10.112 43.8692 10.112C43.8692 10.112 42.9763 12.2336 40.978 12.2336C40.9305 12.2336 40.8789 12.2315 40.8295 12.2315C40.6027 12.2188 40.384 12.2104 40.1633 12.1624L39.7942 12.0891C39.7942 12.0891 40.3635 10.5163 38.9899 9.07124C37.9546 7.98018 36.6946 7.7959 35.9666 7.7959C35.5995 7.7959 35.3664 7.84396 35.3664 7.84396C36.0573 8.76136 36.5564 10.2817 35.7584 11.2199C35.0696 12.0261 33.3867 12.066 33.3867 13.268C33.3867 13.777 33.8549 14.3718 34.6962 14.9057C37.2267 16.5246 39.7385 18.6712 40.782 21.5487C42.0874 25.1383 40.6171 27.5195 38.5178 28.8849C38.5178 28.8849 39.1755 29.5005 40.1304 29.578C40.3242 29.597 40.514 29.6053 40.6914 29.6053C42.7062 29.6053 43.7476 28.646 43.7476 28.646C43.7476 28.646 43.5764 29.9719 42.5267 31.2032C41.5595 32.3403 40.2891 33.0084 38.3526 33.0377C38.3526 33.0377 38.2908 33.9508 39.1487 34.7403C39.6972 35.2387 40.9656 35.4021 40.9656 35.4021C40.9656 35.4021 38.5919 35.8901 38.33 39.4503C38.1877 41.3792 37.703 42.0492 37.703 42.0492H37.7465C43.2547 42.0492 43.1124 37.2513 43.1124 37.2513C43.1124 37.2513 43.4959 38.6711 45.0324 39.042C45.2179 39.0922 45.4159 39.111 45.6056 39.111C46.1007 39.111 46.5295 38.9937 46.5295 38.9937C46.5295 38.9937 45.7253 37.2702 46.5233 34.8598C47.1854 32.8597 47.0781 31.3771 47.0781 31.3771C47.0781 31.3771 47.8205 32.5163 49.6602 32.5268H49.6786C51.211 32.5268 51.879 31.3477 51.879 31.3477C48.2062 29.8001 48.5692 24.8032 48.5692 24.8032C48.5692 24.8032 49.0456 25.1633 49.9757 25.199ZM48.8702 30.4178C47.3771 29.6702 46.4326 27.6849 46.2038 26.9686C45.9562 30.9057 44.0631 33.6387 41.8502 36.2691C40.7016 37.6325 40.3016 38.9582 40.3016 38.9582C40.3016 38.9582 40.5222 37.4566 41.5161 36.2335C43.5805 33.7142 45.5418 30.5791 45.6882 26.9539C45.7892 24.4242 45.1478 22.3718 44.1477 20.6818C44.7065 22.443 44.6282 24.6001 42.7288 26.6127C42.7288 26.6127 46.5089 22.0114 41.2234 17.2953C39.1075 15.5006 36.7936 14.3927 35.6017 13.6074C39.9076 15.0335 42.0092 13.4628 42.0092 13.4628C40.6335 14.6733 38.8538 14.6524 37.7504 14.4785C38.0495 14.6273 38.361 14.7822 38.6971 14.9645C42.3267 16.9665 45.5892 20.2607 46.146 24.8242V24.7884C46.9915 29.268 48.8702 30.4178 48.8702 30.4178Z" fill="white"/>
<path d="M14.1723 35.4021C14.1723 35.4021 15.4406 35.2408 15.9892 34.7403C16.8449 33.9508 16.7853 33.0377 16.7853 33.0377C14.8467 33.0105 13.5784 32.3403 12.605 31.2053C11.5635 29.9738 11.3903 28.6482 11.3903 28.6482C11.3903 28.6482 12.4317 29.6074 14.4445 29.6074C14.6261 29.6074 14.8137 29.5989 15.0075 29.5801C15.9624 29.5027 16.6223 28.887 16.6223 28.887C14.5228 27.5215 13.0505 25.1383 14.3538 21.5487C15.3994 18.6733 17.9091 16.5246 20.4397 14.9057C21.281 14.3718 21.7491 13.7791 21.7491 13.268C21.7491 12.066 20.0683 12.0261 19.3795 11.2199C18.5815 10.2817 19.0826 8.75916 19.7714 7.84396C19.7714 7.84396 19.5424 7.7959 19.1732 7.7959C18.4474 7.7959 17.1873 7.98018 16.1521 9.07124C14.7745 10.5163 15.3458 12.0891 15.3458 12.0891L14.9766 12.1624C14.756 12.2104 14.5352 12.2188 14.3105 12.2315C14.259 12.2315 14.2135 12.2336 14.1641 12.2336C12.1616 12.2336 11.2728 10.1141 11.2728 10.1141C11.2728 10.1141 9.15068 12.7655 12.275 14.845C12.8133 15.201 13.0485 15.53 12.9866 15.8817L12.9369 16.1121L12.7101 16.1519C10.4479 16.7759 9.29921 18.3634 7.89892 20.1685C5.7768 22.91 2.77206 23.0001 2.39685 23.0001H2.35547C2.35547 23.0001 3.04228 25.2011 5.06533 25.2011C5.09836 25.2011 5.1272 25.2011 5.16224 25.199C6.0923 25.1654 6.57074 24.8032 6.57074 24.8032C6.57074 24.8032 6.92964 29.798 3.26087 31.3477C3.26087 31.3477 3.92908 32.5268 5.4613 32.5268H5.47989C7.32142 32.5163 8.06186 31.3771 8.06186 31.3771C8.06186 31.3771 7.95458 32.8597 8.61456 34.8598C9.41254 37.2702 8.61241 38.9937 8.61241 38.9937C8.61241 38.9937 9.04139 39.111 9.53425 39.111C9.72603 39.111 9.92199 39.0922 10.1055 39.042C11.6398 38.6711 12.0255 37.2513 12.0255 37.2513C12.0255 37.2513 11.8852 42.0492 17.3936 42.0492H17.4327C17.4327 42.0492 16.9502 41.3792 16.8099 39.4503C16.546 35.8901 14.1723 35.4021 14.1723 35.4021ZM13.2877 36.2691C11.0748 33.6387 9.18371 30.9057 8.93411 26.9686C8.70527 27.6828 7.76482 29.6702 6.27182 30.4178C6.27182 30.4178 8.14838 29.268 8.99192 24.7884V24.8242C9.55083 20.2629 12.8113 16.9665 16.4428 14.9645C16.7749 14.7802 17.0904 14.6252 17.3874 14.4785C16.2841 14.6524 14.5043 14.6733 13.1288 13.4628C13.1288 13.4628 15.2302 15.0335 19.5342 13.6074C18.3423 14.3927 16.0304 15.5006 13.9145 17.2953C8.62682 22.0114 12.409 26.6127 12.409 26.6127C10.5077 24.598 10.4314 22.443 10.9902 20.6818C9.98802 22.3738 9.34866 24.4242 9.45177 26.9539C9.5961 30.5791 11.5573 33.7142 13.6175 36.2335C14.6137 37.4545 14.8385 38.9582 14.8385 38.9582C14.8385 38.9582 14.4341 37.6325 13.2877 36.2691Z" fill="white"/>
<path d="M23.4991 17.8599C23.5898 17.9585 23.6784 18.0651 23.7631 18.172C23.7837 18.1971 23.8022 18.2202 23.8228 18.2496C23.9013 18.3563 23.9817 18.4694 24.058 18.5845C24.0744 18.6076 24.0911 18.6348 24.1095 18.6621C24.2024 18.8045 24.289 18.951 24.3755 19.1018C25.1695 20.4945 26.442 21.326 27.57 21.328C28.7001 21.326 29.9685 20.4945 30.7666 19.1018C30.8553 18.9469 30.9439 18.7961 31.0366 18.6557C31.0511 18.6348 31.0656 18.6161 31.0779 18.595C31.1563 18.4757 31.2388 18.3583 31.3255 18.2453C31.3439 18.2202 31.3604 18.1993 31.377 18.1783C31.4656 18.0673 31.5564 17.9585 31.6492 17.8578C31.6656 17.8411 31.678 17.8265 31.6924 17.814C32.0966 17.3929 32.5792 17.0725 33.2102 16.8945L32.9298 16.7291H32.9134L31.7955 16.0694L30.6469 15.4014L27.5783 17.0976L27.57 17.0914L27.5638 17.0976L24.4931 15.4014L23.3465 16.0673L22.2267 16.727H22.2143L21.9297 16.8924C22.5628 17.0704 23.0433 17.3867 23.4496 17.8076C23.468 17.8244 23.4805 17.8432 23.4991 17.8599ZM26.3285 17.7239H27.6277H28.9249V18.6286C28.6198 18.2496 28.0258 18.327 28.0258 18.327V19.6317C28.0258 19.6317 28.0485 20.2725 28.269 20.5512H27.6277H26.9843C27.2091 20.2747 27.2297 19.6317 27.2297 19.6317V18.327C27.2297 18.327 26.6378 18.2496 26.3285 18.6286V17.7239Z" fill="white"/>
<path d="M27.3046 15.9699V10.6737L23.9844 9.53027L24.8608 14.6632L27.3046 15.9699ZM26.5911 11.9742V12.8244L26.4302 12.7491C26.422 12.7427 26.1869 12.6883 25.7744 12.3574C25.0939 11.8214 25.0816 11.3271 25.0816 11.3271L26.5911 11.9742Z" fill="white"/>
<path d="M30.2837 14.6632L31.1561 9.53027L27.8379 10.6737V15.9699L30.2837 14.6632ZM28.5515 11.9742L30.0609 11.3291C30.0609 11.3291 30.0487 11.8235 29.3661 12.3596C28.9557 12.6904 28.7185 12.7448 28.7102 12.7512L28.5494 12.8265V11.9742H28.5515Z" fill="white"/>
<path d="M22.609 28.248C22.9328 28.3675 23.3247 28.3927 23.5247 28.3927C23.533 28.3675 23.5432 28.3361 23.5536 28.2983C23.5721 28.2376 23.5887 28.1791 23.6011 28.112C23.6568 27.8188 23.6774 27.4858 23.6814 27.2721C23.5453 27.1864 23.3535 27.0335 23.2464 26.8052C23.1226 26.5414 22.9473 26.4199 22.6894 26.4199C22.3554 26.4199 21.9966 26.623 21.8439 26.7193C21.7224 27.4502 22.2522 28.1141 22.609 28.248Z" fill="white"/>
<path d="M29.9541 25.4375C29.3375 26.1182 28.1311 27.3036 28.0712 27.3644L27.9991 27.4397L24.186 27.379C24.1838 27.7622 24.122 28.089 24.0622 28.3276C24.0519 28.3674 24.0416 28.4093 24.0312 28.4512L28.5682 29.2784C29.0405 28.9433 30.3397 27.98 30.843 27.603C30.4758 27.0585 30.4407 26.4134 30.5232 25.9591C30.2841 25.802 30.1005 25.626 29.9541 25.4375Z" fill="white"/>
<path d="M30.4704 20.7808C29.5918 21.6666 28.7484 21.9933 27.9957 22.0687C27.8595 22.0834 27.7214 22.0918 27.5811 22.0918H27.5707H27.5625C27.4223 22.0918 27.2821 22.0834 27.1459 22.0687C27.014 22.0561 26.8759 22.0351 26.7378 22.0038C26.6881 22.2026 26.6262 22.6194 26.8036 23.0132C26.9624 23.3713 27.2863 23.6372 27.7585 23.8133L27.9172 23.876L27.9194 24.0498C27.9194 24.1021 27.9565 25.2289 29.167 25.5409C29.365 25.3336 29.5444 25.1472 29.6765 24.9923C29.4289 24.4017 29.5587 23.7985 29.9176 23.5032C29.9012 23.566 29.7445 25.0446 30.9118 25.5934L31.1035 25.6855L31.0457 25.8927C31.0271 25.9556 30.6374 27.386 32.0501 27.9179L32.2996 28.0142L32.1882 28.2614C32.1635 28.3158 31.6088 29.6143 32.9142 30.3514H35.7456V28.0687C34.7393 27.943 34.3123 27.1221 34.2031 26.5399C33.735 26.4583 33.372 26.253 33.1244 25.918C32.5305 25.1242 33.042 24.3974 33.0482 24.3576C33.0461 24.364 33.0482 25.1388 33.5184 25.6163C33.7514 25.8467 34.0278 26.0247 34.4464 26.0645L34.6526 26.0834L34.6712 26.297C34.6752 26.343 34.7888 27.3901 35.7476 27.5556L35.7456 22.8938C35.7456 22.1713 35.954 21.4446 36.2035 20.7744H30.4704V20.7808Z" fill="white"/>
<path d="M22.8497 22.9158L22.7734 25.8853L23.1053 25.9356L23.9179 23.0873L23.5055 22.2119L22.8497 22.9158Z" fill="white"/>
<path d="M31.8072 36.535C31.8321 36.535 31.8609 36.5392 31.8877 36.5455C32.393 36.692 32.5208 38.5433 33.4075 38.7088C33.4942 38.7276 33.5746 38.7319 33.6447 38.7319C33.9005 38.7319 34.053 38.6208 34.218 38.4241C34.218 38.4241 33.7726 37.712 33.4385 37.2323C32.9951 36.6042 32.6508 35.8438 31.8258 35.8438C31.8072 35.8438 31.7825 35.8438 31.7619 35.8459C31.4897 35.8607 31.3226 35.9947 31.3226 35.9947C30.9885 35.7811 30.6772 35.7078 30.3945 35.7078C29.877 35.7078 29.4749 35.9485 29.2747 35.9485H29.2665L27.4228 35.7643C27.1341 35.7372 26.9073 35.4419 26.8248 35.3266C26.8043 35.2952 26.7939 35.2763 26.7939 35.2763C26.7939 35.226 26.7939 35.1737 26.7898 35.1277C26.7279 33.5968 25.5607 32.9413 25.1461 32.9308C25.1461 32.9308 25.1956 32.6397 25.0822 32.5286L24.6759 33.0292L23.3416 32.3486L24.2923 33.4775L23.486 34.3968C23.3849 34.5014 23.3973 34.6438 23.4386 34.7026L23.7871 35.0147L24.2284 34.7424C24.2511 34.7255 24.2903 34.7214 24.3397 34.7214C24.4614 34.7214 24.645 34.7528 24.81 34.7528C24.9894 34.7528 25.1461 34.713 25.1647 34.5412C25.109 35.1088 24.5914 36.0952 24.9317 36.8701L25.1833 37.4544L23.554 37.2156L22.791 38.5245C22.5559 38.9601 22.5188 39.4313 22.7457 39.6869L23.0302 40.0491C23.0302 40.0491 23.4303 39.6177 23.521 39.335L23.3911 39.1905C23.2818 39.0691 23.288 38.9601 23.3541 38.8281L23.8325 38.0219L25.7565 38.4826L25.8576 38.3068C25.9875 38.0868 26.1752 38.0198 26.3814 38.0198C26.4659 38.0198 26.5526 38.0303 26.6433 38.0449C27.0002 38.1161 27.5879 38.2125 28.1756 38.2125C28.8211 38.2125 29.4604 38.0952 29.8005 37.7077C30.4977 38.757 31.9103 38.9246 31.799 39.4565L31.4278 41.2534C31.6732 41.2429 31.9103 41.2261 32.1351 41.1947L32.4878 39.3245C32.527 39.1213 32.5641 38.847 32.5641 38.847C32.4279 38.7067 32.0981 38.4094 31.9125 38.0492C31.6628 37.5632 31.799 37.3099 31.566 36.6774C31.5742 36.6816 31.6443 36.535 31.8072 36.535ZM24.61 33.9088C24.5151 33.9068 24.4471 33.8251 24.451 33.7286C24.4594 33.6366 24.5358 33.5632 24.6284 33.5717C24.7233 33.5758 24.7914 33.6596 24.7873 33.7517C24.779 33.8439 24.7007 33.9152 24.61 33.9088Z" fill="white"/>
<path d="M21.9838 38.2357C21.9838 38.2357 22.621 37.9697 22.6787 37.7791L22.5942 37.5634C22.5343 37.4231 22.5426 37.2702 22.6581 37.1864L23.3468 36.7027L24.4977 36.9267C24.4977 36.9267 24.2893 36.6628 24.31 36.309L23.2129 36.0723L22.1776 36.7131C21.7342 37.0503 21.7011 37.6011 21.8476 37.9279L21.9838 38.2357Z" fill="white"/>
<path d="M30.1172 41.28C30.3234 41.2715 30.5502 41.2673 30.7998 41.2673C30.7998 41.2673 31.3917 39.5103 31.4246 39.4537C31.0927 39.3051 30.4038 38.9343 30.1378 38.7646C30.3131 39.0308 30.74 39.3365 30.6555 39.571L30.1172 41.28Z" fill="white"/>
<path d="M35.7506 30.8594H19.3906V37.1085C19.3906 39.6635 21.2117 41.2634 23.8988 41.2634C26.1446 41.2634 26.7364 41.3515 27.5717 42.1934C28.1471 41.611 28.6235 41.3933 29.601 41.3117L29.6236 41.2154L30.1392 39.5966C30.1103 39.5609 29.2669 38.587 29.2669 38.587C28.9328 38.7001 28.6524 38.719 28.1801 38.719C27.6954 38.719 27.149 38.6625 26.5571 38.5495C26.4972 38.5347 26.4416 38.5305 26.3858 38.5305C26.3136 38.5305 26.3075 38.5368 26.289 38.5724L26.1858 38.7442L25.9982 39.0583L25.6456 38.9767L24.0761 38.6018L23.8616 38.9619L23.8946 38.9997L24.0864 39.2132L24.0019 39.4918C23.8863 39.8561 23.511 40.2814 23.3977 40.3985L23.0057 40.8257L22.6491 40.3672L22.381 40.0258C22.0983 39.7054 22.0325 39.2132 22.1912 38.698C22.187 38.7023 22.1808 38.7044 22.1748 38.7044L21.7314 38.8907L21.5312 38.4509L21.391 38.1389C21.1499 37.5902 21.2383 36.7882 21.8882 36.3044L23.1523 35.5798L24.3546 35.8206C24.3835 35.7033 24.4267 35.2845 24.4617 35.1776C24.4391 35.1755 24.4165 35.1694 24.3937 35.1694L23.7008 35.431L23.0326 34.962C23.0326 34.962 22.7707 34.7065 23.0078 34.4509L23.6554 33.4561L22.0159 31.3661L24.536 32.4174L24.7031 32.2058L25.0433 31.7934L25.429 32.166C25.5382 32.2729 25.6001 32.4049 25.631 32.5369C26.326 32.8111 27.5696 33.6216 27.6788 34.939L27.2891 35.0981V35.1086C27.3778 35.2153 27.452 35.2593 27.4747 35.2635L29.273 35.4435C29.3184 35.4353 29.3762 35.4144 29.4401 35.3955C29.6628 35.3179 29.999 35.207 30.3969 35.207C30.7208 35.207 31.0341 35.2824 31.3352 35.4248C31.4466 35.3829 31.5828 35.3515 31.7396 35.3409L31.826 35.3389C32.7892 35.3389 33.2676 36.0698 33.6513 36.652C33.7151 36.7525 33.779 36.849 33.8451 36.9431C34.1812 37.4248 34.6204 38.1306 34.639 38.1598L34.837 38.474L34.5936 38.7608C34.406 38.9808 34.1255 39.2383 33.643 39.2383C33.544 39.2383 33.4347 39.2279 33.3172 39.2049C33.2141 39.186 33.1213 39.1546 33.0306 39.1169C33.0161 39.2132 32.9975 39.3284 32.9789 39.4269L32.6634 41.098C34.5504 40.6269 35.7486 39.1798 35.7486 37.1106L35.7506 30.8594Z" fill="#FFDD2D"/>
<path d="M19.3911 30.3575H32.1132C31.478 29.6916 31.4864 28.8476 31.6492 28.2989C31.4636 28.2088 31.311 28.0998 31.1749 27.9826C30.6779 28.3553 29.1601 29.4779 28.7642 29.7584L28.6797 29.8172L23.6868 28.8999H23.5858C23.4662 28.8999 23.2909 28.8957 23.0991 28.8726C23.0455 29.101 22.8517 29.258 22.6289 29.258C22.6041 29.258 22.5752 29.2559 22.5484 29.2496C22.4185 29.2266 22.3052 29.1595 22.2289 29.0487C22.1505 28.9397 22.1196 28.8098 22.1422 28.6758L22.1608 28.5669C21.6452 28.1983 21.1709 27.3752 21.3812 26.5082L21.4018 26.4162L21.4741 26.3638C21.4844 26.3554 21.5709 26.2968 21.6988 26.2214L21.3359 26.1648C21.1998 26.1397 21.1091 26.0119 21.1298 25.8758C21.1524 25.7376 21.2802 25.6392 21.4142 25.6664L22.2783 25.8046L22.3567 22.7134L23.6436 21.3313L24.4458 23.0466L23.5981 26.0203L24.3613 26.1418C24.4952 26.1627 24.5881 26.2905 24.5675 26.4307C24.5468 26.5543 24.4438 26.6402 24.3221 26.6402C24.3096 26.6402 24.2952 26.6402 24.2828 26.6381L23.662 26.5355C23.6704 26.5543 23.6826 26.5648 23.691 26.5858C23.7569 26.724 23.9034 26.8245 23.99 26.8664L27.797 26.9271C27.9578 26.7679 28.358 26.37 28.7683 25.9491C27.8321 25.589 27.4917 24.7679 27.4339 24.2234C26.9102 23.9972 26.5493 23.658 26.3493 23.2161C26.1059 22.6696 26.1925 22.1229 26.2564 21.857C25.7491 21.6684 25.2151 21.3251 24.6706 20.7764H18.9375C19.183 21.4466 19.3911 22.1732 19.3911 22.8957V30.3575Z" fill="#FFDD2D"/>
<path d="M24.6309 33.572C24.538 33.5635 24.4597 33.6367 24.4535 33.7289C24.4473 33.8252 24.5174 33.9068 24.6123 33.909C24.7029 33.9174 24.7835 33.8461 24.7916 33.752C24.7916 33.6598 24.7258 33.5739 24.6309 33.572Z" fill="black"/>
<path d="M35.7276 44.9032L34.7851 44.5367L35.045 43.5483L35.3316 42.4697C35.3316 42.4697 33.6611 43.389 31.3081 44.0801C30.64 44.2748 30.1347 44.3629 30.1347 44.3629V45.0959C30.1347 45.0959 28.8768 45.3179 27.6043 45.3179H27.5898H27.5713H27.5465H27.5321C26.2598 45.3179 25.0017 45.0959 25.0017 45.0959V44.3629C25.0017 44.3629 24.4943 44.2748 23.8283 44.0801C21.4752 43.389 19.8068 42.4697 19.8068 42.4697L20.0893 43.5483L20.3553 44.5367L19.4108 44.9032L18.3633 45.3011C19.5656 45.8896 21.2297 46.7482 22.7539 47.1713L22.395 48.1682C22.395 48.1682 24.3273 49.0624 27.5465 49.0707V49.0729H27.5569H27.5713H27.5837H27.5919V49.0707C30.8153 49.0624 32.7455 48.1682 32.7455 48.1682L32.3845 47.1713C33.9085 46.7482 35.5771 45.8896 36.7731 45.3011L35.7276 44.9032ZM19.481 45.3682L21.0318 44.8445L20.574 43.3262C21.2565 43.7199 22.789 44.3106 23.6756 44.5849L22.9271 46.6729C21.5576 46.2895 20.4172 45.8435 19.481 45.3682ZM27.5713 48.5471C25.7709 48.5471 23.7148 48.1263 23.1107 47.9084L24.0303 45.3807C24.7934 45.6068 26.3814 45.8478 27.5341 45.8393H27.5362H27.5713H27.6022H27.6064C28.7592 45.8478 30.3429 45.6068 31.1102 45.3807L32.0278 47.9084C31.4236 48.1284 29.3696 48.5471 27.5713 48.5471ZM32.2114 46.6729L31.4649 44.5849C32.3537 44.3106 33.8817 43.7199 34.5665 43.3262L34.1108 44.8445L35.6595 45.3682C34.7211 45.8435 33.5868 46.2895 32.2114 46.6729Z" fill="black"/>
<path d="M27.5714 5.44849C29.4893 5.44849 31.0235 6.09345 31.8712 6.78251C31.8712 6.78251 32.1227 5.24327 32.9827 3.88405L31.438 4.06213L30.6297 2.31754L29.0768 3.13013L27.5714 1.61816L26.07 3.13013L24.5151 2.31754L23.7087 4.06213L22.1641 3.88405C23.024 5.24327 23.2756 6.78251 23.2756 6.78251C24.1252 6.09345 25.6554 5.44849 27.5714 5.44849ZM23.6385 4.67363L24.0675 4.71963L24.2532 4.32394L24.7934 3.15107L25.7957 3.67677L26.1834 3.87785L26.4928 3.56783L27.5734 2.47882L28.6561 3.56783L28.9655 3.87785L29.3531 3.67677L30.3493 3.15107L30.8958 4.32394L31.0772 4.71963L31.5061 4.67363L31.9145 4.62336C31.7268 5.05265 31.5886 5.45896 31.4895 5.7961C30.4089 5.1846 29.0025 4.83698 27.5693 4.83698C26.1423 4.83698 24.7377 5.1846 23.653 5.7961C23.5521 5.45896 23.4159 5.05059 23.2281 4.62336L23.6385 4.67363Z" fill="black"/>
<path d="M50.0722 25.8737C52.5533 25.8737 53.3823 23.3104 53.4172 23.2014L53.6936 22.2988L52.7635 22.3281H52.7595C52.4316 22.3281 49.6949 22.2549 47.7543 19.7502L47.5707 19.5177C46.3025 17.88 45.1002 16.3239 42.9513 15.6139C43.0131 15.5575 43.1018 15.4862 43.2235 15.4066C44.3639 14.6443 45.028 13.7187 45.195 12.6444C45.4384 11.0277 44.4238 9.73962 44.3784 9.68728L43.6875 8.82029L43.2566 9.84856C43.2277 9.91342 42.5016 11.5595 40.9756 11.5595H40.8622C40.7571 11.5532 40.658 11.549 40.5591 11.5407C40.6127 10.8056 40.4806 9.66841 39.4661 8.60255C38.2472 7.31866 36.75 7.12598 35.9665 7.12598C35.5477 7.12598 35.2695 7.17846 35.2404 7.18258L34.197 7.39207L34.8404 8.25272C35.3457 8.91656 35.8035 10.1418 35.2611 10.7826C35.0879 10.9858 34.7312 11.1512 34.3888 11.3166C33.6855 11.6455 32.7266 12.1019 32.7266 13.2664C32.7266 14.0203 33.302 14.8077 34.3454 15.4779C37.4348 17.4507 39.3402 19.5092 40.1631 21.7814C41.4355 25.2768 39.7754 27.2706 38.1627 28.3198L37.4389 28.793L38.072 29.3836C38.1565 29.459 38.932 30.1523 40.0765 30.2528C40.2931 30.2674 40.5012 30.2801 40.6952 30.2801C41.4293 30.2801 42.0543 30.1627 42.5615 30.0057C42.4212 30.2549 42.2501 30.5082 42.0336 30.7637C41.1118 31.8486 39.9775 32.3428 38.3463 32.368L37.7399 32.3784L37.6925 32.9961C37.6863 33.1199 37.641 34.2653 38.7092 35.2391C38.8721 35.39 39.0701 35.5135 39.2763 35.6161C38.5525 36.2779 37.8162 37.4296 37.674 39.4045C37.5544 41.0528 37.1666 41.6621 37.1625 41.6685L36.4923 42.7073L37.7029 42.7239C39.7033 42.7239 41.2355 42.1627 42.2975 41.0528C42.9245 40.3951 43.2834 39.6538 43.4958 38.9962C43.8443 39.2978 44.2939 39.5617 44.8795 39.7019C45.1022 39.7542 45.3456 39.7836 45.6075 39.7836C46.1726 39.7836 46.6449 39.6621 46.6985 39.6495L47.4718 39.4403L47.1295 38.7073C47.1047 38.6486 46.4593 37.1783 47.1541 35.08C47.4532 34.1732 47.6058 33.3606 47.68 32.7281C48.1667 32.9857 48.8185 33.1992 49.6619 33.2015C51.5756 33.2015 52.4191 31.7502 52.4584 31.6893L52.8357 31.0235L52.1367 30.7303C49.8558 29.7689 49.3506 27.1868 49.2494 25.7878C49.4557 25.8276 49.6908 25.8654 49.9567 25.8737H50.0722ZM51.8809 31.348C51.8809 31.348 51.2127 32.527 49.6804 32.527H49.6619C47.8224 32.5165 47.0799 31.3773 47.0799 31.3773C47.0799 31.3773 47.1872 32.8601 46.5232 34.8602C45.725 37.2705 46.5294 38.9941 46.5294 38.9941C46.5294 38.9941 46.1004 39.1113 45.6055 39.1113C45.4158 39.1113 45.2177 39.0925 45.0322 39.0421C43.4958 38.6715 43.1122 37.2517 43.1122 37.2517C43.1122 37.2517 43.2544 42.0495 37.7461 42.0495H37.7029C37.7029 42.0495 38.1875 41.3794 38.3318 39.4507C38.5937 35.8905 40.9675 35.4025 40.9675 35.4025C40.9675 35.4025 39.7012 35.2412 39.1526 34.7407C38.2946 33.9511 38.3544 33.0381 38.3544 33.0381C40.2931 33.0109 41.5614 32.3407 42.5286 31.2035C43.5762 29.972 43.7494 28.6464 43.7494 28.6464C43.7494 28.6464 42.7079 29.6056 40.6932 29.6056C40.5158 29.6056 40.3261 29.5972 40.1321 29.5784C39.1794 29.5009 38.5195 28.8852 38.5195 28.8852C40.6167 27.5198 42.0893 25.1365 40.7839 21.5469C39.7384 18.6716 37.2265 16.5229 34.6981 14.9041C33.8567 14.37 33.3885 13.7774 33.3885 13.2664C33.3885 12.0643 35.0714 12.0265 35.7623 11.2183C36.5582 10.2799 36.0591 8.75749 35.3683 7.8423C35.3683 7.8423 35.6014 7.79409 35.9685 7.79409C36.6964 7.79409 37.9565 7.98044 38.9917 9.06945C40.3673 10.5145 39.796 12.0873 39.796 12.0873L40.1652 12.1606C40.3859 12.2088 40.6045 12.2172 40.8313 12.2277C40.8808 12.2277 40.9303 12.2298 40.9797 12.2298C42.9781 12.2298 43.8711 10.1082 43.8711 10.1082C43.8711 10.1082 45.9953 12.7616 42.8688 14.8391C42.3305 15.1951 42.0933 15.524 42.1553 15.8758L42.2048 16.1062L42.4274 16.146C44.6939 16.77 45.8405 18.3575 47.2408 20.1627C49.367 22.9082 52.3759 22.9962 52.747 22.9962H52.7863C52.7863 22.9962 52.0995 25.1973 50.0764 25.1973C50.0434 25.1973 50.0145 25.1973 49.9795 25.1952C49.0494 25.1617 48.573 24.7993 48.573 24.7993C48.573 24.7993 48.2081 29.7983 51.8809 31.348Z" fill="black"/>
<path d="M45.7146 15.8909C46.6404 16.3913 47.1787 17.0615 47.651 17.6564C48.115 18.2365 48.5563 18.7955 49.245 19.028C49.4904 19.1139 49.7503 19.1537 50.0143 19.1537C51.0495 19.1537 52.089 18.5107 52.4828 17.6207L52.8788 16.7285L51.9199 16.67C51.8744 16.6678 50.6413 16.5547 49.2678 15.1285C48.7027 14.5443 48.0201 14.2363 47.2838 14.2363C46.3848 14.2363 45.7186 14.6929 45.6443 14.739L44.7617 15.3695L45.7146 15.8909ZM47.286 14.9108C47.7478 14.9108 48.2861 15.0699 48.7956 15.6039C50.3937 17.2522 51.8807 17.3442 51.8807 17.3442C51.6105 17.9516 50.8269 18.4856 50.0163 18.4856C49.8288 18.4856 49.641 18.4563 49.4533 18.3914C48.3542 18.0145 47.9602 16.339 46.0279 15.2961C46.0279 15.2961 46.5684 14.9108 47.286 14.9108Z" fill="black"/>
<path d="M46.1479 24.7887V24.8222C45.5911 20.2609 42.3286 16.9667 38.699 14.9624C38.3629 14.7802 38.0536 14.6253 37.7524 14.4766C38.8578 14.6503 40.6375 14.6713 42.011 13.4609C42.011 13.4609 39.9095 15.0316 35.6035 13.6054C36.7956 14.3907 39.1115 15.4986 41.2253 17.2933C46.511 22.0095 42.7287 26.6106 42.7287 26.6106C44.6281 24.598 44.7064 22.441 44.1476 20.6798C45.1477 22.3698 45.787 24.4221 45.688 26.952C45.5417 30.5771 43.5804 33.7121 41.516 36.2316C40.5241 37.4546 40.3015 38.9563 40.3015 38.9563C40.3015 38.9563 40.7014 37.6304 41.8501 36.2671C44.063 33.6368 45.954 30.9038 46.2015 26.9667C46.4304 27.6808 47.3729 29.6682 48.868 30.4157C48.8721 30.418 46.9934 29.2682 46.1479 24.7887Z" fill="black"/>
<path d="M17.9786 41.6655C17.9766 41.6592 17.593 41.0499 17.4693 39.4016C17.325 37.4267 16.5907 36.275 15.8648 35.6132C16.0752 35.5127 16.269 35.3891 16.432 35.2362C17.4982 34.2624 17.4527 33.1167 17.4465 32.9932L17.4053 32.3754L16.7949 32.3648C15.1678 32.3378 14.0314 31.8435 13.1096 30.7608C12.8951 30.5053 12.722 30.2519 12.5817 30.0027C13.0889 30.1597 13.7097 30.2769 14.4459 30.2769C14.644 30.2769 14.8482 30.2644 15.0647 30.2499C16.2092 30.1493 16.9847 29.4582 17.0712 29.3807L17.7043 28.7901L16.9805 28.3168C15.3616 27.2655 13.7076 25.2718 14.978 21.7785C15.8008 19.5063 17.7043 17.4478 20.7977 15.475C21.8413 14.8047 22.4124 14.0173 22.4124 13.2635C22.4124 12.099 21.4556 11.6404 20.7524 11.3137C20.41 11.1483 20.0533 10.9829 19.8801 10.7796C19.3356 10.1409 19.7954 8.91363 20.2987 8.24979L20.9463 7.38899L19.8986 7.17965C19.8677 7.17538 19.5934 7.12305 19.1727 7.12305C18.389 7.12305 16.896 7.31572 15.675 8.59947C14.6584 9.66755 14.5244 10.8047 14.5759 11.5378C14.4769 11.5461 14.378 11.5503 14.2748 11.5566H14.1635C12.6333 11.5566 11.9095 9.91049 11.8806 9.84563L11.4494 8.81736L10.7524 9.68435C10.7133 9.73668 9.69457 11.0267 9.94202 12.6415C10.107 13.7158 10.771 14.6414 11.9114 15.4037C12.0351 15.4833 12.1218 15.5545 12.1837 15.611C10.0369 16.321 8.83662 17.8791 7.56828 19.5168L7.38472 19.7493C5.44629 22.254 2.70341 22.3272 2.37551 22.3272L1.44141 22.2979L1.72591 23.2006C1.75892 23.3095 2.58589 25.8729 5.06879 25.8729L5.18847 25.8686C5.45033 25.8602 5.68551 25.8246 5.89589 25.7828C5.79265 27.1796 5.28739 29.7618 3.00449 30.7252L2.30745 31.0184L2.68495 31.6844C2.72201 31.7452 3.56757 33.1963 5.48538 33.1963C6.32271 33.1943 6.97434 32.9807 7.46315 32.7231C7.53741 33.3556 7.68997 34.1682 7.98903 35.075C8.68406 37.1734 8.03647 38.6435 8.01167 38.7021L7.66935 39.4351L8.44483 39.6445C8.49632 39.6571 8.97274 39.7786 9.53568 39.7786C9.79969 39.7786 10.0431 39.7492 10.2617 39.6969C10.8495 39.5566 11.3031 39.2927 11.6474 38.9912C11.8578 39.6487 12.2187 40.3901 12.8437 41.0478C13.9076 42.1577 15.4378 42.7189 17.4384 42.7189L18.6509 42.7021L17.9786 41.6655ZM17.3929 42.0487C11.8846 42.0487 12.025 37.2509 12.025 37.2509C12.025 37.2509 11.6414 38.6707 10.105 39.0413C9.9214 39.0916 9.72544 39.1105 9.53366 39.1105C9.03877 39.1105 8.61182 38.9933 8.61182 38.9933C8.61182 38.9933 9.41196 37.2696 8.61384 34.8592C7.954 32.8592 8.06127 31.3764 8.06127 31.3764C8.06127 31.3764 7.32084 32.5157 5.47931 32.5262H5.46071C3.92849 32.5262 3.26029 31.3471 3.26029 31.3471C6.93108 29.7994 6.57016 24.8026 6.57016 24.8026C6.57016 24.8026 6.09387 25.1629 5.16165 25.1984C5.12864 25.2007 5.09777 25.2007 5.06475 25.2007C3.03953 25.2007 2.35489 22.9995 2.35489 22.9995H2.39613C2.76945 22.9995 5.77419 22.9116 7.90035 20.166C9.30063 18.3609 10.4493 16.7755 12.7116 16.1492L12.9384 16.1094L12.988 15.8791C13.0499 15.5272 12.8147 15.1985 12.2765 14.8425C9.1501 12.7628 11.2742 10.1116 11.2742 10.1116C11.2742 10.1116 12.1631 12.2309 14.1655 12.2309C14.215 12.2309 14.2604 12.2288 14.3119 12.2288C14.5367 12.2163 14.7595 12.2079 14.978 12.1597L15.3472 12.0864C15.3472 12.0864 14.7759 10.5136 16.1535 9.06871C17.1888 7.97751 18.4488 7.79322 19.1747 7.79322C19.5439 7.79322 19.7728 7.84143 19.7728 7.84143C19.0841 8.75869 18.585 10.2791 19.3809 11.2173C20.0697 12.0236 21.7505 12.0634 21.7505 13.2655C21.7505 13.7744 21.2824 14.3691 20.4411 14.9032C17.9105 16.522 15.3988 18.6708 14.3552 21.5461C13.0519 25.1356 14.5223 27.5168 16.6237 28.8842C16.6237 28.8842 15.9638 29.5001 15.009 29.5776C14.8151 29.5963 14.6275 29.6047 14.4459 29.6047C12.4332 29.6047 11.3917 28.6456 11.3917 28.6456C11.3917 28.6456 11.5649 29.9712 12.6065 31.2027C13.5798 32.3398 14.8482 33.0101 16.7867 33.0372C16.7867 33.0372 16.8486 33.9503 15.9906 34.7398C15.4401 35.2383 14.1737 35.4016 14.1737 35.4016C14.1737 35.4016 16.5495 35.8896 16.8093 39.4498C16.9516 41.3786 17.4321 42.0487 17.4321 42.0487H17.3929Z" fill="black"/>
<path d="M5.12602 19.1545C5.39207 19.1545 5.6519 19.1147 5.89719 19.0288C6.59018 18.7963 7.02941 18.2372 7.49342 17.6571C7.96783 17.0624 8.50193 16.3923 9.42781 15.8918L10.3807 15.3724L9.49587 14.742C9.42161 14.6937 8.75759 14.2393 7.86054 14.2393C7.12227 14.2393 6.43762 14.5451 5.87455 15.1314C4.50109 16.5556 3.26994 16.6707 3.22452 16.6728L2.26562 16.7294L2.65956 17.6236C3.05538 18.5095 4.09273 19.1545 5.12602 19.1545ZM6.34679 15.6047C6.85825 15.0707 7.39653 14.9115 7.86054 14.9115C8.57403 14.9115 9.11433 15.2969 9.11433 15.2969C7.18412 16.342 6.78817 18.0152 5.68479 18.3922C5.50339 18.4572 5.31363 18.4865 5.12602 18.4865C4.3155 18.4865 3.5318 17.9545 3.26374 17.345C3.26374 17.343 4.74853 17.2508 6.34679 15.6047Z" fill="black"/>
<path d="M9.45359 26.9539C9.3505 24.4241 9.98985 22.3717 10.992 20.6817C10.4331 22.443 10.5095 24.6001 12.4109 26.6127C12.4109 26.6127 8.62865 22.0116 13.9163 17.2953C16.0323 15.5006 18.3461 14.3927 19.5361 13.6074C15.2321 15.0335 13.1306 13.4629 13.1306 13.4629C14.504 14.6734 16.2838 14.6524 17.3893 14.4764C17.0902 14.6252 16.7767 14.7802 16.4446 14.9624C12.811 16.9665 9.5505 20.2608 8.99159 24.8221V24.7864C8.1482 29.2659 6.27148 30.4157 6.27148 30.4157C7.76463 29.6681 8.70507 27.6828 8.93391 26.9664C9.18351 30.9036 11.0745 33.6367 13.2873 36.267C14.436 37.6304 14.8403 38.956 14.8403 38.956C14.8403 38.956 14.6155 37.4545 13.6194 36.2314C11.5592 33.7163 9.59794 30.579 9.45359 26.9539Z" fill="black"/>
<path d="M26.3281 17.7246V18.6293C26.6355 18.2502 27.2294 18.3276 27.2294 18.3276V19.6323C27.2294 19.6323 27.2087 20.2732 26.984 20.5518H27.6274H28.2687C28.0481 20.2754 28.0253 19.6323 28.0253 19.6323V18.3276C28.0253 18.3276 28.6193 18.2502 28.9245 18.6293V17.7246H27.6274H26.3281Z" fill="black"/>
<path d="M25.7749 12.3584C26.1852 12.6893 26.4224 12.7439 26.4307 12.75L26.5915 12.8255V11.9731L25.082 11.3281C25.082 11.3302 25.0964 11.8223 25.7749 12.3584Z" fill="black"/>
<path d="M29.3653 12.3584C30.048 11.8223 30.0603 11.3281 30.0603 11.3281L28.5508 11.9731V12.8255L28.7095 12.75C28.7199 12.7439 28.9549 12.6893 29.3653 12.3584Z" fill="black"/>
<path d="M32.0843 8.88913C32.0843 7.59699 29.9416 6.43457 27.5762 6.43457H27.5741H27.568H27.5618C25.1964 6.43457 23.0537 7.59699 23.0537 8.88913L23.1012 9.20743L24.0456 14.7132L23.0971 15.2723L20.6429 16.7278H20.6512C20.6512 16.7278 20.0986 17.0147 19.8427 17.1926C18.9086 17.8524 18.7106 18.8137 19.2529 19.2116C19.3871 18.4284 19.9974 17.6073 21.1399 17.6073C21.9628 17.6073 22.5897 18.0389 23.0971 18.6859C23.2269 18.8493 23.3507 19.0231 23.4662 19.2116C23.6084 19.4483 23.7507 19.6556 23.8931 19.8566H17.5723C18.0363 20.8052 18.4775 21.8106 18.4775 22.9016V37.1089C18.4775 40.5476 21.0822 42.1896 23.8992 42.1896C26.077 42.1896 26.3699 42.0891 27.5722 43.3037C28.7683 42.087 29.0611 42.1896 31.2409 42.1896C34.06 42.1896 36.6606 40.5476 36.6606 37.1089V22.9016C36.6606 21.8106 37.1019 20.8052 37.568 19.8566H31.245C31.3853 19.6577 31.5276 19.4483 31.6698 19.2116C31.7874 19.0231 31.909 18.8493 32.0369 18.6859C32.5483 18.0367 33.1732 17.6073 33.9961 17.6073C35.1385 17.6073 35.747 18.4263 35.883 19.2116C36.4255 18.8137 36.2295 17.8524 35.2891 17.1926C35.0375 17.0147 34.4847 16.7278 34.4847 16.7278H34.4931L32.039 15.2723L31.0945 14.7132L32.039 9.20743L32.0843 8.88913ZM23.9837 9.52998L27.304 10.6734V15.9696L24.8603 14.6609L23.9837 9.52998ZM24.6705 20.7801C25.215 21.331 25.7492 21.6724 26.2564 21.8608C26.1903 22.1267 26.1039 22.6754 26.3492 23.2221C26.5492 23.6618 26.9122 24.0011 27.4339 24.2273C27.4917 24.7718 27.8299 25.5907 28.7683 25.9529C28.3579 26.374 27.9577 26.7696 27.7948 26.9309L23.9899 26.8701C23.9034 26.8263 23.7569 26.7277 23.691 26.5875C23.6827 26.5687 23.6704 26.5583 23.6642 26.5373L24.2848 26.6399C24.2994 26.642 24.3116 26.642 24.324 26.642C24.4437 26.642 24.5488 26.5583 24.5695 26.4325C24.5901 26.2923 24.4973 26.1645 24.3633 26.1436L23.6002 26.022L24.4478 23.0503L23.6456 21.335L22.3588 22.7173L22.2803 25.8085L21.4163 25.6701C21.2822 25.6431 21.1544 25.7436 21.1317 25.8796C21.111 26.0158 21.2018 26.1436 21.3378 26.1686L21.7008 26.2252C21.571 26.3006 21.4865 26.3592 21.4761 26.3676L21.4018 26.4199L21.3812 26.5121C21.1709 27.3791 21.6472 28.2021 22.1608 28.5707L22.1422 28.6796C22.1216 28.8137 22.1504 28.9435 22.2288 29.0524C22.303 29.1635 22.4185 29.2304 22.5463 29.2536C22.5733 29.2576 22.602 29.2597 22.6269 29.2597C22.8495 29.2597 23.0435 29.1027 23.0991 28.8744C23.2909 28.8975 23.4662 28.9016 23.5857 28.9016H23.6869L28.6796 29.8168L28.7641 29.7602C29.162 29.4776 30.6779 28.355 31.1749 27.9844C31.311 28.1038 31.4636 28.2126 31.6492 28.3026C31.4883 28.8514 31.478 29.6953 32.1153 30.3613H19.3911V22.9038C19.3911 22.1813 19.1829 21.4545 18.9374 20.7843H24.6705V20.7801ZM30.8408 27.6032C30.3356 27.9801 29.0364 28.9435 28.5661 29.2786L24.0292 28.4514C24.0395 28.4095 24.0497 28.3697 24.0601 28.3278C24.1199 28.0891 24.1797 27.7623 24.1839 27.3791L27.997 27.442L28.0691 27.3666C28.1269 27.3078 29.3354 26.1226 29.952 25.4399C30.0984 25.6263 30.2819 25.8043 30.5211 25.9613C30.4386 26.4136 30.4737 27.0587 30.8408 27.6032ZM23.2455 26.8053C23.3527 27.0336 23.5465 27.1864 23.6806 27.2723C23.6765 27.486 23.6559 27.819 23.6002 28.112C23.5878 28.1771 23.5714 28.2378 23.5527 28.2986C23.5425 28.3362 23.5321 28.3675 23.5239 28.3927C23.3239 28.3927 22.9299 28.3675 22.6082 28.2483C22.2516 28.1143 21.7195 27.4502 21.8431 26.7195C21.9979 26.6231 22.3546 26.4199 22.6887 26.4199C22.9465 26.4178 23.1218 26.5414 23.2455 26.8053ZM22.7732 25.886L22.8495 22.9184L23.5053 22.2126L23.9178 23.0881L23.1052 25.9363L22.7732 25.886ZM30.7996 41.2701C30.5521 41.2701 30.3232 41.2744 30.1169 41.2827L30.6573 39.576C30.7419 39.3394 30.3149 39.0357 30.1396 38.7697C30.4056 38.9393 31.0945 39.31 31.4266 39.4587C31.3915 39.5132 30.7996 41.2701 30.7996 41.2701ZM32.4947 39.331L32.1421 41.199C31.9174 41.2303 31.6781 41.2472 31.4327 41.2576L31.8039 39.4608C31.9152 38.9268 30.5027 38.7614 29.8056 37.7121C29.4653 38.1016 28.8239 38.2168 28.1805 38.2168C27.5928 38.2168 27.0051 38.1206 26.6482 38.0493C26.5575 38.0346 26.4708 38.0241 26.3863 38.0241C26.1801 38.0241 25.9924 38.0891 25.8625 38.311L25.7593 38.487L23.8354 38.0263L23.3569 38.8304C23.2888 38.9602 23.2846 39.0713 23.394 39.1927L23.5239 39.3372C23.4352 39.622 23.0352 40.0513 23.0352 40.0513L22.7486 39.6891C22.5216 39.4315 22.5588 38.9623 22.796 38.5268L23.5589 37.2178L25.1882 37.4567L24.9345 36.8702C24.5943 36.0953 25.1119 35.109 25.1675 34.5414C25.149 34.7132 24.9942 34.7509 24.8128 34.7509C24.6479 34.7509 24.4643 34.7195 24.3426 34.7195C24.2952 34.7195 24.2539 34.7237 24.2313 34.7404L23.7899 35.0125L23.4414 34.7007C23.4001 34.6399 23.3858 34.4995 23.4888 34.3948L24.2952 33.4776L23.3425 32.3488L24.6767 33.0294L25.0829 32.5288C25.1944 32.6398 25.1469 32.931 25.1469 32.931C25.5635 32.9415 26.7307 33.5969 26.7926 35.1258C26.7967 35.1718 26.7967 35.2241 26.7967 35.2744C26.7967 35.2744 26.8071 35.2933 26.8277 35.3246C26.9102 35.4398 27.137 35.7351 27.4256 35.7623L29.2694 35.9466H29.2775C29.4798 35.9466 29.8819 35.7059 30.3974 35.7059C30.6779 35.7059 30.9913 35.7792 31.3254 35.9927C31.3254 35.9927 31.4924 35.8588 31.7647 35.844C31.7853 35.842 31.8081 35.842 31.8287 35.842C32.6557 35.842 32.9979 36.6 33.4414 37.2303C33.7755 37.7099 34.2209 38.422 34.2209 38.422C34.0559 38.621 33.9032 38.7299 33.6476 38.7299C33.5775 38.7299 33.497 38.7236 33.4104 38.7068C32.5236 38.5414 32.3958 36.6901 31.8906 36.5436C31.8638 36.5351 31.8349 36.5331 31.81 36.5331C31.6471 36.5331 31.5751 36.6796 31.5751 36.6796C31.8059 37.31 31.6719 37.5654 31.9194 38.0514C32.1049 38.4115 32.4349 38.709 32.571 38.8492C32.571 38.8535 32.534 39.1258 32.4947 39.331ZM22.5938 37.5634L22.6783 37.7791C22.6227 37.9676 21.9835 38.2357 21.9835 38.2357L21.8452 37.9299C21.6988 37.6033 21.7297 37.0524 22.1752 36.7152L23.2104 36.0744L24.3076 36.3111C24.2869 36.665 24.4952 36.9289 24.4952 36.9289L23.3445 36.7048L22.6557 37.1885C22.5402 37.2702 22.532 37.4231 22.5938 37.5634ZM32.668 41.0964L32.9836 39.4252C33 39.3267 33.0206 39.2116 33.0351 39.1153C33.1237 39.153 33.2186 39.1843 33.3217 39.2032C33.4392 39.2262 33.5485 39.2367 33.6476 39.2367C34.1302 39.2367 34.4106 38.9791 34.5983 38.7593L34.8416 38.4722L34.6436 38.1582C34.6251 38.1267 34.1879 37.4231 33.8497 36.9414C33.7836 36.8472 33.7196 36.7528 33.6558 36.6502C33.2722 36.0682 32.7917 35.3372 31.8287 35.3372L31.742 35.3393C31.5832 35.3498 31.4472 35.3813 31.3379 35.4232C31.0346 35.2787 30.7232 35.2052 30.3994 35.2052C30.0015 35.2052 29.6653 35.3163 29.4426 35.3938C29.3786 35.4126 29.321 35.4336 29.2756 35.442L27.4752 35.2619C27.4525 35.2576 27.3782 35.2137 27.2896 35.1047V35.0965L27.6793 34.9372C27.57 33.62 26.3245 32.8095 25.6295 32.5351C25.5986 32.4032 25.5367 32.2713 25.4275 32.1645L25.0397 31.7917L24.6994 32.2064L24.5324 32.4178L22.0123 31.3665L23.6518 33.4567L23.0042 34.4514C22.767 34.7068 23.029 34.9623 23.029 34.9623L23.6971 35.4293L24.3901 35.1676C24.4148 35.1676 24.4355 35.1739 24.4581 35.176C24.4252 35.2828 24.3818 35.7016 24.3529 35.819L23.1506 35.5781L21.8864 36.3026C21.2368 36.7865 21.1481 37.5886 21.3895 38.1372L21.5297 38.4493L21.7297 38.889L22.171 38.7026C22.1773 38.7007 22.1835 38.6986 22.1874 38.6943C22.0287 39.2095 22.0927 39.6995 22.3772 40.0221L22.6453 40.3655L23.0022 40.8241L23.394 40.3969C23.5095 40.2796 23.8828 39.8545 23.9983 39.49L24.0828 39.2116L23.891 38.9979L23.86 38.9602L24.0746 38.6L25.6439 38.9749L25.9965 39.0566L26.1842 38.7425L26.2874 38.5708C26.3059 38.5352 26.312 38.5289 26.3843 38.5289C26.4399 38.5289 26.4956 38.5352 26.5554 38.5477C27.1473 38.6609 27.6937 38.7173 28.1784 38.7173C28.6486 38.7173 28.929 38.6986 29.2652 38.5853C29.2652 38.5853 30.1087 39.5571 30.1375 39.5949L29.6221 41.2115L29.5992 41.31C28.6218 41.3896 28.1455 41.6073 27.5701 42.1917C26.7348 41.3498 26.1429 41.2618 23.8973 41.2618C21.21 41.2618 19.3891 39.6618 19.3891 37.1068V30.8597H35.747L35.7511 37.1068C35.7531 39.1801 34.555 40.6252 32.668 41.0964ZM36.2047 20.7801C35.9553 21.4503 35.747 22.177 35.747 22.8995L35.7491 27.5613C34.79 27.3979 34.6767 26.3488 34.6725 26.3027L34.6539 26.0891L34.4477 26.0702C34.0311 26.0304 33.7548 25.8503 33.5218 25.6199C33.0516 25.1425 33.0494 24.3675 33.0516 24.3614C33.0455 24.4012 32.534 25.1278 33.1279 25.9215C33.3773 26.2566 33.7383 26.4618 34.2065 26.5435C34.3157 27.1257 34.7426 27.9467 35.7491 28.0722V30.355H32.9196C31.6141 29.6178 32.1668 28.3195 32.1936 28.2649L32.305 28.0178L32.0555 27.9216C30.6428 27.3895 31.0306 25.9572 31.0512 25.8965L31.1088 25.687L30.9171 25.5948C29.7498 25.0462 29.9087 23.5656 29.9232 23.5048C29.5643 23.8001 29.4343 24.4033 29.6818 24.9938C29.5478 25.1488 29.3685 25.3373 29.1724 25.5425C27.9639 25.2304 27.9269 24.1016 27.9269 24.0493L27.9247 23.8754L27.766 23.8126C27.2937 23.6346 26.9699 23.3686 26.8111 23.0106C26.6318 22.6147 26.6956 22.2 26.7452 22.0012C26.8834 22.0325 27.0215 22.0556 27.1535 22.066C27.2896 22.0808 27.4298 22.0891 27.5701 22.0891H27.5783H27.5886C27.7289 22.0891 27.8671 22.0808 28.0032 22.066C28.7558 21.9907 29.5993 21.6619 30.4779 20.7782H36.2047V20.7801ZM31.7957 16.0682L32.9133 16.7278H32.9299L33.2104 16.8933C32.5793 17.0714 32.0968 17.3917 31.6926 17.8126C31.6781 17.8252 31.6638 17.8419 31.6492 17.8567C31.5564 17.9572 31.4636 18.066 31.377 18.177C31.3605 18.1979 31.344 18.221 31.3254 18.2441C31.2388 18.3571 31.1585 18.4723 31.08 18.5938C31.0677 18.6147 31.0532 18.6357 31.0388 18.6545C30.946 18.7948 30.8574 18.9457 30.7687 19.1007C29.9726 20.4933 28.7022 21.3246 27.5722 21.3268C26.4441 21.3246 25.1737 20.4933 24.3777 19.1007C24.291 18.9498 24.2045 18.8033 24.1116 18.6609C24.0931 18.6336 24.0766 18.6063 24.0601 18.5833C23.9818 18.4682 23.9034 18.3551 23.8229 18.2483C23.8024 18.2189 23.7837 18.1959 23.7631 18.1709C23.6765 18.0639 23.5878 17.9572 23.4991 17.8587C23.4807 17.844 23.4682 17.8252 23.4497 17.8085C23.0435 17.3875 22.5629 17.0691 21.9298 16.8933L22.2144 16.7278H22.2267L23.3445 16.0682L24.4931 15.4L27.5618 17.0964L27.568 17.09L27.5762 17.0964L30.6448 15.4L31.7957 16.0682ZM30.2819 14.6629L27.8361 15.9717V10.6734L31.1543 9.52998L30.2819 14.6629ZM27.5701 10.0912L23.9322 8.63146C24.2416 7.888 25.6686 7.25556 27.5701 7.2535C29.4735 7.25556 30.9006 7.888 31.2079 8.63146L27.5701 10.0912Z" fill="black"/>
<path d="M72.6204 32.2553V23.8697H77.4639V20.8183H64.25V23.8697H69.0935V32.2553H72.6204ZM82.4023 20.8183H78.8754V32.2553H82.4023V20.8183ZM84.983 20.8183V32.2553H88.2278V25.9362L94.2704 32.2553H97.28V20.8183H94.0352V27.0895L88.1337 20.8183H84.983ZM104.212 27.9304L108.279 32.2553H112.817L107.151 26.2965L112.605 20.8183H108.326L104.212 25.1192H103.271V20.8183H99.8618V32.2553H103.271V27.9304H104.212ZM119.832 20.5059C115.247 20.5059 112.496 23.1489 112.496 26.5608C112.496 29.9727 115.247 32.6158 119.832 32.6158C124.395 32.6158 127.145 29.9727 127.145 26.5608C127.145 23.1489 124.395 20.5059 119.832 20.5059ZM119.832 29.8286C117.552 29.8286 116.093 28.4349 116.093 26.5608C116.093 24.6867 117.552 23.317 119.832 23.317C122.09 23.317 123.571 24.6867 123.571 26.5608C123.571 28.4349 122.09 29.8286 119.832 29.8286ZM140.074 20.8183H128.764V32.2553H132.173V28.2668H139.58V25.7439H132.173V23.7255H140.074V20.8183ZM152.909 20.8183H141.599V32.2553H145.008V28.2668H152.416V25.7439H145.008V23.7255H152.909V20.8183Z" fill="white"/>
</g>
<defs>
<clipPath id="clip0_622_850">
<rect width="153" height="50" fill="white" transform="translate(0 0.130859)"/>
</clipPath>
</defs>
</svg>
