<svg width="493" height="17" viewBox="0 0 493 17" fill="none" xmlns="http://www.w3.org/2000/svg">
<path d="M221.585 16.04C215.244 16.04 212.112 12.0781 208.979 8.26861C205.847 4.45909 202.944 0.801944 196.985 0.801944C191.026 0.801944 188.123 4.45909 184.99 8.26861C181.935 12.0781 178.726 16.04 172.385 16.04C166.044 16.04 162.912 12.0781 159.779 8.26861C156.647 4.45909 153.744 0.801944 147.785 0.801944C141.826 0.801944 138.923 4.45909 135.79 8.26861C132.735 12.0781 129.526 16.04 123.185 16.04C116.844 16.04 113.712 12.0781 110.579 8.26861C107.447 4.45909 104.544 0.801944 98.5849 0.801944C92.6259 0.801944 89.7228 4.45909 86.5905 8.26861C83.5346 12.0781 80.3259 16.04 73.9849 16.04C67.6439 16.04 64.5116 12.0781 61.3793 8.26861C58.4762 4.45909 55.4967 0.801944 49.5377 0.801944C43.5787 0.801944 40.6756 4.45909 37.5433 8.26861C34.4874 12.0781 31.2787 16.04 24.9377 16.04C18.5967 16.04 15.4644 12.0781 12.3321 8.26861C9.27617 4.45909 6.37307 0.801944 0.414062 0.801944V0.0400391C6.75506 0.0400391 9.88735 4.00194 13.0197 7.81147C16.152 11.621 19.0551 15.2781 25.0141 15.2781C30.9731 15.2781 33.8762 11.621 37.0085 7.81147C40.0644 4.00194 43.2731 0.0400391 49.6141 0.0400391C55.9551 0.0400391 59.0874 4.00194 62.2197 7.81147C65.352 11.621 68.2551 15.2781 74.2141 15.2781C80.1731 15.2781 83.0762 11.621 86.2085 7.81147C89.2644 4.00194 92.4731 0.0400391 98.8141 0.0400391C105.155 0.0400391 108.287 4.00194 111.42 7.81147C114.552 11.621 117.455 15.2781 123.414 15.2781C129.373 15.2781 132.276 11.621 135.408 7.81147C138.464 4.00194 141.673 0.0400391 148.014 0.0400391C154.355 0.0400391 157.487 4.00194 160.62 7.81147C163.752 11.621 166.655 15.2781 172.614 15.2781C178.573 15.2781 181.476 11.621 184.608 7.81147C187.664 4.00194 190.873 0.0400391 197.214 0.0400391C203.555 0.0400391 206.764 4.00194 209.82 7.81147C212.952 11.621 215.855 15.2781 221.814 15.2781C227.773 15.2781 230.676 11.621 233.808 7.81147C236.864 4.00194 240.073 0.0400391 246.414 0.0400391V0.801944C240.455 0.801944 237.552 4.45909 234.42 8.26861C231.135 12.0781 227.926 16.04 221.585 16.04Z" fill="#97B8B6"/>
<path d="M467.585 16.04C461.244 16.04 458.112 12.0781 454.979 8.26861C451.847 4.45909 448.944 0.801944 442.985 0.801944C437.026 0.801944 434.123 4.45909 430.99 8.26861C427.935 12.0781 424.726 16.04 418.385 16.04C412.044 16.04 408.912 12.0781 405.779 8.26861C402.647 4.45909 399.744 0.801944 393.785 0.801944C387.826 0.801944 384.923 4.45909 381.79 8.26861C378.735 12.0781 375.526 16.04 369.185 16.04C362.844 16.04 359.712 12.0781 356.579 8.26861C353.447 4.45909 350.544 0.801944 344.585 0.801944C338.626 0.801944 335.723 4.45909 332.59 8.26861C329.535 12.0781 326.326 16.04 319.985 16.04C313.644 16.04 310.512 12.0781 307.379 8.26861C304.476 4.45909 301.497 0.801944 295.538 0.801944C289.579 0.801944 286.676 4.45909 283.543 8.26861C280.487 12.0781 277.279 16.04 270.938 16.04C264.597 16.04 261.464 12.0781 258.332 8.26861C255.276 4.45909 252.373 0.801944 246.414 0.801944V0.0400391C252.755 0.0400391 255.887 4.00194 259.02 7.81147C262.152 11.621 265.055 15.2781 271.014 15.2781C276.973 15.2781 279.876 11.621 283.008 7.81147C286.064 4.00194 289.273 0.0400391 295.614 0.0400391C301.955 0.0400391 305.087 4.00194 308.22 7.81147C311.352 11.621 314.255 15.2781 320.214 15.2781C326.173 15.2781 329.076 11.621 332.208 7.81147C335.264 4.00194 338.473 0.0400391 344.814 0.0400391C351.155 0.0400391 354.287 4.00194 357.42 7.81147C360.552 11.621 363.455 15.2781 369.414 15.2781C375.373 15.2781 378.276 11.621 381.408 7.81147C384.464 4.00194 387.673 0.0400391 394.014 0.0400391C400.355 0.0400391 403.487 4.00194 406.62 7.81147C409.752 11.621 412.655 15.2781 418.614 15.2781C424.573 15.2781 427.476 11.621 430.608 7.81147C433.664 4.00194 436.873 0.0400391 443.214 0.0400391C449.555 0.0400391 452.764 4.00194 455.82 7.81147C458.952 11.621 461.855 15.2781 467.814 15.2781C473.773 15.2781 476.676 11.621 479.808 7.81147C482.864 4.00194 486.073 0.0400391 492.414 0.0400391V0.801944C486.455 0.801944 483.552 4.45909 480.42 8.26861C477.135 12.0781 473.926 16.04 467.585 16.04Z" fill="#97B8B6"/>
</svg>
