<svg width="37" height="37" viewBox="0 0 37 37" fill="none" xmlns="http://www.w3.org/2000/svg">
<path d="M27.4141 9.04004C28.0354 9.04004 28.5391 8.53636 28.5391 7.91504C28.5391 7.29372 28.0354 6.79004 27.4141 6.79004C26.7927 6.79004 26.2891 7.29372 26.2891 7.91504C26.2891 8.53636 26.7927 9.04004 27.4141 9.04004Z" fill="white"/>
<path d="M29.6638 2.29004C24.8916 2.2954 20.3163 4.19354 16.9418 7.56804C13.5673 10.9425 11.6692 15.5178 11.6638 20.29V22.54H3.78882C3.56635 22.5401 3.34889 22.6061 3.16393 22.7297C2.97897 22.8533 2.83481 23.029 2.74969 23.2346C2.66456 23.4401 2.64228 23.6663 2.68567 23.8845C2.72905 24.1026 2.83616 24.3031 2.99345 24.4604L11.9934 33.4604C12.1508 33.6177 12.3512 33.7248 12.5694 33.7682C12.7876 33.8116 13.0138 33.7893 13.2193 33.7042C13.4248 33.619 13.6005 33.4749 13.7242 33.2899C13.8478 33.105 13.9138 32.8875 13.9138 32.665V24.79H16.1638C20.9361 24.7847 25.5113 22.8865 28.8858 19.512C32.2603 16.1375 34.1585 11.5623 34.1638 6.79004V2.29004H29.6638ZM11.6638 29.9493L6.50457 24.79H11.6638V29.9493ZM13.9138 22.54V20.29C13.9141 16.2284 15.4902 12.3253 18.3103 9.40229L27.0516 18.1435C24.1286 20.9637 20.2255 22.5398 16.1638 22.54H13.9138ZM31.9138 6.79004C31.9136 10.3016 30.7329 13.7111 28.5613 16.4707L19.9832 7.89254C22.7428 5.72098 26.1523 4.54023 29.6638 4.54004H31.9138V6.79004Z" fill="white"/>
</svg>
