<svg width="40" height="41" viewBox="0 0 40 41" fill="none" xmlns="http://www.w3.org/2000/svg">
<path d="M35.4282 18.3097C36.2182 19.343 36.2182 20.738 35.4282 21.7697C32.9399 25.018 26.9699 31.7064 19.9999 31.7064C13.0299 31.7064 7.05986 25.018 4.57152 21.7697C4.18716 21.2749 3.97852 20.6662 3.97852 20.0397C3.97852 19.4132 4.18716 18.8045 4.57152 18.3097C7.05986 15.0614 13.0299 8.37305 19.9999 8.37305C26.9699 8.37305 32.9399 15.0614 35.4282 18.3097V18.3097Z" stroke="#97B8B6" stroke-width="3" stroke-linecap="round" stroke-linejoin="round"/>
<path d="M20 25.0391C22.7614 25.0391 25 22.8005 25 20.0391C25 17.2776 22.7614 15.0391 20 15.0391C17.2386 15.0391 15 17.2776 15 20.0391C15 22.8005 17.2386 25.0391 20 25.0391Z" stroke="#97B8B6" stroke-width="3" stroke-linecap="round" stroke-linejoin="round"/>
</svg>
