<svg width="40" height="41" viewBox="0 0 40 41" fill="none" xmlns="http://www.w3.org/2000/svg">
<path d="M33.1073 14.148C33.3419 13.325 33.3927 12.4604 33.2563 11.6156C33.1198 10.7707 32.7993 9.9661 32.3176 9.25873C31.8358 8.55137 31.2045 7.9585 30.4684 7.52206C29.7322 7.08561 28.9091 6.81626 28.0573 6.73305C27.7155 5.75241 27.0774 4.90227 26.2311 4.30029C25.3849 3.69832 24.3725 3.37429 23.334 3.37305C22.1 3.37723 20.9117 3.84066 20.0007 4.67305C19.0896 3.84066 17.9013 3.37723 16.6673 3.37305C14.499 3.37305 12.6507 4.75805 11.959 6.73138C11.1057 6.81251 10.2807 7.08042 9.5426 7.51609C8.80446 7.95177 8.17123 8.54454 7.68785 9.25236C7.20446 9.96018 6.88276 10.7657 6.74557 11.6118C6.60837 12.4578 6.65904 13.3237 6.89398 14.148C5.82404 14.7173 4.92815 15.5656 4.30137 16.6029C3.6746 17.6402 3.34031 18.8278 3.33398 20.0397C3.33398 21.8314 4.04732 23.5164 5.28732 24.7597C5.09759 25.3912 5.00101 26.047 5.00065 26.7064C5.00065 29.968 7.35398 32.6897 10.5107 33.263C10.9741 34.2872 11.7224 35.1565 12.6663 35.767C13.6102 36.3776 14.7098 36.7037 15.834 36.7064C17.4657 36.7064 18.9407 36.028 20.0007 34.9414C20.5417 35.4995 21.1893 35.9433 21.905 36.2465C22.6207 36.5496 23.39 36.706 24.1673 36.7064C25.2895 36.7043 26.3873 36.3795 27.33 35.7708C28.2727 35.162 29.0204 34.295 29.484 33.273C30.4139 33.1091 31.2985 32.7498 32.0793 32.2188C32.8601 31.6878 33.5194 30.9972 34.0137 30.1927C34.508 29.3881 34.826 28.4878 34.9467 27.5513C35.0674 26.6148 34.9881 25.6633 34.714 24.7597C35.3337 24.1398 35.8251 23.4039 36.1603 22.5941C36.4954 21.7842 36.6677 20.9162 36.6673 20.0397C36.661 18.8278 36.3267 17.6402 35.6999 16.6029C35.0732 15.5656 34.1773 14.7173 33.1073 14.148ZM15.834 33.373C14.649 33.373 13.6173 32.533 13.384 31.3764L13.0307 30.0397H11.6673C9.82898 30.0397 8.33398 28.5447 8.33398 26.7064C8.33398 26.1197 8.47565 25.5697 8.75565 25.0714L9.51565 23.7114L8.20898 22.8614C7.73696 22.5571 7.34861 22.1395 7.07933 21.6466C6.81005 21.1537 6.66841 20.6013 6.66732 20.0397C6.66732 18.4114 7.87232 16.9997 9.47065 16.753L12.2923 16.3197L10.5273 14.0764C10.213 13.6712 10.0307 13.1792 10.0051 12.667C9.97953 12.1548 10.1119 11.6471 10.3842 11.2126C10.6566 10.7781 11.0558 10.4377 11.5279 10.2374C12.0001 10.0372 12.5223 9.9868 13.024 10.093L15.0007 10.3847V8.37305C15.0007 7.93102 15.1762 7.5071 15.4888 7.19454C15.8014 6.88198 16.2253 6.70638 16.6673 6.70638C17.1093 6.70638 17.5333 6.88198 17.8458 7.19454C18.1584 7.5071 18.334 7.93102 18.334 8.37305V30.873C18.334 32.2514 17.2123 33.373 15.834 33.373ZM31.7923 22.8597L30.4857 23.7097L31.2457 25.0697C31.5257 25.5697 31.6673 26.1197 31.6673 26.7064C31.6673 28.5447 30.1723 30.0397 28.2507 30.0397H26.8873L26.6173 31.3764C26.5008 31.9402 26.1935 32.4466 25.7473 32.8102C25.301 33.1739 24.743 33.3727 24.1673 33.373C22.789 33.373 21.6673 32.2514 21.6673 30.873V8.37305C21.6673 7.45305 22.414 6.70638 23.334 6.70638C24.254 6.70638 25.0007 7.45305 25.0007 8.45638V10.468L26.9773 10.093C27.479 9.9868 28.0013 10.0372 28.4734 10.2374C28.9455 10.4377 29.3447 10.7781 29.6171 11.2126C29.8894 11.6471 30.0218 12.1548 29.9962 12.667C29.9706 13.1792 29.7883 13.6712 29.474 14.0764L27.709 16.3214L30.5307 16.7547C31.3115 16.8811 32.022 17.2808 32.5354 17.8825C33.0489 18.4842 33.3319 19.2487 33.334 20.0397C33.334 21.178 32.7573 22.2314 31.7923 22.8597Z" fill="#97B8B6"/>
</svg>
