<svg width="25" height="25" viewBox="0 0 25 25" fill="none" xmlns="http://www.w3.org/2000/svg">
<path d="M17.07 22.09C17.3356 22.0915 17.5989 22.0401 17.8444 21.9388C18.0899 21.8375 18.3128 21.6884 18.5 21.5L21.21 18.79C21.3963 18.6026 21.5008 18.3492 21.5008 18.085C21.5008 17.8208 21.3963 17.5673 21.21 17.38L17.21 13.38C17.0227 13.1937 16.7692 13.0892 16.505 13.0892C16.2408 13.0892 15.9874 13.1937 15.8 13.38L14.2 14.97C13.0923 14.6746 12.0663 14.1309 11.2 13.38C10.4512 12.5123 9.90766 11.4868 9.61003 10.38L11.2 8.77998C11.3863 8.59262 11.4908 8.33917 11.4908 8.07499C11.4908 7.8108 11.3863 7.55735 11.2 7.36999L7.20003 3.36999C7.01267 3.18373 6.75922 3.07919 6.49503 3.07919C6.23085 3.07919 5.9774 3.18373 5.79003 3.36999L3.09003 6.08999C2.90167 6.27723 2.75248 6.50011 2.65118 6.74563C2.54988 6.99115 2.4985 7.25439 2.50003 7.51999C2.59076 11.3623 4.12611 15.0293 6.80003 17.79C9.56075 20.4639 13.2277 21.9993 17.07 22.09ZM6.50003 5.49999L9.09003 8.08999L7.80003 9.37999C7.67785 9.49443 7.58636 9.63772 7.53395 9.79672C7.48153 9.95571 7.46987 10.1253 7.50003 10.29C7.8738 11.9604 8.66514 13.5086 9.80003 14.79C11.0804 15.9263 12.6291 16.7179 14.3 17.09C14.4622 17.1239 14.6303 17.117 14.7891 17.0698C14.9479 17.0227 15.0926 16.9369 15.21 16.82L16.5 15.5L19.09 18.09L17.09 20.09C13.7738 20.0046 10.6095 18.6811 8.22003 16.38C5.91295 13.9895 4.58564 10.8211 4.50003 7.49999L6.50003 5.49999ZM20.5 11.09H22.5C22.526 9.90098 22.3109 8.71904 21.8678 7.61539C21.4247 6.51174 20.7627 5.50923 19.9217 4.66828C19.0808 3.82733 18.0783 3.16535 16.9746 2.72224C15.871 2.27913 14.689 2.06405 13.5 2.08999V4.08999C14.4279 4.05789 15.3525 4.217 16.2163 4.55742C17.0801 4.89784 17.8647 5.41231 18.5212 6.06883C19.1777 6.72535 19.6922 7.50989 20.0326 8.37369C20.373 9.23749 20.5321 10.1621 20.5 11.09Z" fill="#D9B5A5"/>
<path d="M13.5 8.08984C15.6 8.08984 16.5 8.98984 16.5 11.0898H18.5C18.5 7.86984 16.72 6.08984 13.5 6.08984V8.08984Z" fill="#D9B5A5"/>
</svg>
