<svg width="179" height="30" viewBox="0 0 179 30" fill="none" xmlns="http://www.w3.org/2000/svg">
<path d="M23.5442 19.3118H23.3312L23.2944 19.5248C23.154 20.3779 22.9048 21.2086 22.5531 21.996C21.8926 23.5343 20.8032 24.8408 19.4202 25.7531C17.782 26.7883 15.1569 27.3102 11.5694 27.3102H5.75807L22.4262 1.56199L22.4671 1.49937V0.71875H1.0525V0.952518L0.602017 8.22862V8.47075L0.839543 8.49162L1.29003 8.53336H1.52347L1.55214 8.29959C1.6479 7.40126 1.90764 6.52911 2.31796 5.72812C2.74077 4.97171 3.30744 4.30893 3.98477 3.77863C4.88311 3.05743 5.92178 2.53945 7.03172 2.25913C8.5834 1.92458 10.1681 1.77606 11.7536 1.81664H16.8606L0.0409498 27.5647L0 27.6274V28.408H23.6056V28.1784L24.2117 19.6083V19.3536H23.9619L23.5442 19.3118Z" fill="#152E34"/>
<path d="M27.4467 0.693359H27.2051V1.63261H27.4344C28.0286 1.64903 28.6174 1.75163 29.1831 1.93735C29.6182 2.09739 30.0088 2.36236 30.3216 2.70963C30.7183 3.12219 30.9898 3.64248 31.1039 4.20826C31.2703 5.19085 31.3403 6.18792 31.3128 7.18466V21.8746C31.3403 22.8714 31.2703 23.8684 31.1039 24.851C30.9918 25.4145 30.7232 25.9333 30.3298 26.3455C30.0114 26.6861 29.6225 26.9499 29.1913 27.1178C28.6257 27.3111 28.0348 27.4167 27.4385 27.4308H27.2091V28.3701H40.1914V27.4308H39.9621C39.2581 27.4141 38.5634 27.2626 37.9144 26.9841C37.4112 26.7441 36.9852 26.3633 36.6858 25.8863C36.4404 25.4411 36.2805 24.9523 36.2149 24.4461C36.0988 23.5942 36.0481 22.7345 36.0634 21.8746V7.19719C36.0627 6.40087 36.1051 5.60513 36.1903 4.81356C36.2467 4.03866 36.5535 3.30466 37.0626 2.72633C37.3832 2.38154 37.7768 2.11597 38.2134 1.94987C38.7748 1.76377 39.3596 1.66114 39.9498 1.64514H40.1792V0.705882H27.4467V0.693359Z" fill="#152E34"/>
<path d="M63.1875 0.692483H62.9459V1.63174H63.1752C63.7654 1.64774 64.3503 1.75037 64.9116 1.93648C65.3942 2.1197 65.8232 2.42439 66.1591 2.82219C66.4949 3.21999 66.7265 3.69795 66.8324 4.21156C67.0056 5.19194 67.0784 6.18805 67.0495 7.18379V20.8594L51.6018 0.771799L51.5281 0.675781H43.6445V1.61504H43.8738C44.4708 1.62991 45.0625 1.73255 45.6308 1.91978C46.0608 2.08261 46.4469 2.3473 46.757 2.69205C47.1461 3.11386 47.4139 3.63666 47.531 4.20322C47.7031 5.1739 47.7759 6.1602 47.7481 7.14622V21.8571C47.7764 22.85 47.7037 23.8433 47.531 24.8209C47.4147 25.3857 47.1484 25.9071 46.7611 26.328C46.4406 26.6728 46.0469 26.9384 45.6103 27.1044C45.0488 27.2905 44.4641 27.3931 43.8738 27.4092H43.6445V28.3483H53.1457V27.4092H52.9163C52.3262 27.3931 51.7414 27.2905 51.18 27.1044C50.6992 26.9236 50.2709 26.6223 49.9345 26.2283C49.5981 25.8344 49.3645 25.3605 49.2552 24.8502C49.0817 23.8698 49.009 22.8737 49.038 21.878V5.25518L67.029 28.3025L67.1027 28.3943H68.3313V7.17962C68.3034 6.1936 68.3761 5.20729 68.5484 4.23661C68.6646 3.67183 68.931 3.15051 69.3182 2.72962C69.6976 2.3584 70.148 2.07082 70.6412 1.88481C71.1344 1.6988 71.6599 1.61833 72.185 1.64843H72.4267V0.696656H63.1875V0.692483Z" fill="#152E34"/>
<path d="M98.105 19.3118H97.8928L97.8559 19.5248C97.7147 20.3779 97.4656 21.2087 97.1141 21.996C96.4534 23.5343 95.3647 24.8408 93.9816 25.7531C92.3429 26.7883 89.7181 27.3102 86.1306 27.3102H80.3193L96.9877 1.56199L97.0283 1.49937V0.71875H75.6096V0.952518L75.1591 8.22862V8.47075L75.3966 8.49162L75.8472 8.53336H76.0806L76.1092 8.29959C76.205 7.40126 76.4647 6.52911 76.875 5.72812C77.298 4.97178 77.8646 4.30901 78.5419 3.77863C79.4402 3.05743 80.4789 2.53945 81.5888 2.25913C83.1405 1.92458 84.7253 1.77606 86.3108 1.81664H91.4504L74.6308 27.5647L74.5898 27.6274V28.408H98.1954V28.1784L98.8016 19.6083V19.3536H98.5516L98.105 19.3118Z" fill="#152E34"/>
<path d="M102.912 0.691944H102.67V1.6312H102.9C103.494 1.64761 104.083 1.75022 104.648 1.93594C105.084 2.09597 105.474 2.36094 105.787 2.70821C106.183 3.12077 106.455 3.64106 106.569 4.20684C106.735 5.18944 106.805 6.1865 106.778 7.18325V21.8732C106.805 22.87 106.735 23.867 106.569 24.8496C106.457 25.4131 106.188 25.9319 105.795 26.3441C105.477 26.6847 105.087 26.9485 104.656 27.1163C104.091 27.3097 103.5 27.4153 102.903 27.4294H102.675V28.3687H115.64V27.4294H115.411C114.707 27.4128 114.012 27.2613 113.363 26.9827C112.86 26.7425 112.435 26.3618 112.135 25.8848C111.889 25.4397 111.73 24.9509 111.663 24.4447C111.548 23.5928 111.497 22.7331 111.512 21.8732V7.19577C111.506 6.39272 111.545 5.59 111.626 4.79128C111.684 4.01638 111.99 3.28237 112.499 2.70404C112.819 2.35925 113.213 2.09368 113.65 1.92758C114.212 1.74148 114.796 1.63885 115.386 1.62285H115.616V0.683594H102.912V0.691944Z" fill="#152E34"/>
<path d="M150.057 1.43723V0.485452H140.556V1.4247H140.785C141.375 1.44071 141.96 1.54334 142.522 1.72945C143.004 1.91266 143.434 2.21736 143.768 2.61516C144.104 3.01296 144.336 3.49091 144.442 4.00453C144.615 4.98491 144.688 5.98102 144.659 6.97675V20.6523L129.211 0.564768L129.138 0.46875H121.242V1.40801H121.471C122.068 1.42287 122.66 1.52552 123.229 1.71275C123.659 1.87557 124.044 2.14027 124.354 2.48502C124.744 2.90683 125.011 3.42962 125.129 3.99618C125.301 4.96688 125.373 5.95317 125.345 6.93918V21.65C125.374 22.6429 125.301 23.6362 125.129 24.6139C125.012 25.1787 124.746 25.7 124.359 26.1209C124.038 26.4657 123.645 26.7314 123.207 26.8973C122.647 27.0834 122.062 27.1861 121.471 27.2021H121.242V28.1413H130.743V27.2021H130.514C129.924 27.1861 129.339 27.0834 128.778 26.8973C128.295 26.7141 127.866 26.4094 127.53 26.0116C127.194 25.6138 126.963 25.1359 126.857 24.6222C126.683 23.6419 126.61 22.6458 126.64 21.65V5.04814L144.63 28.0954L144.704 28.1872H145.933V6.97259C145.904 5.98656 145.977 5.00025 146.15 4.02958C146.266 3.4648 146.533 2.94348 146.92 2.52259C147.3 2.15137 147.75 1.86379 148.243 1.67778C148.736 1.49176 149.261 1.4113 149.787 1.4414L150.057 1.43723Z" fill="#152E34"/>
<path d="M175.494 5.23061C174.106 3.60335 172.4 2.28836 170.485 1.36922C168.632 0.471654 166.607 0.00402559 164.555 0C162.926 0.00617746 161.311 0.298493 159.78 0.864112C158.192 1.44162 156.703 2.2684 155.365 3.31453C153.616 4.66762 152.187 6.40558 151.188 8.39903C150.229 10.3633 149.739 12.5298 149.754 14.7233C149.751 16.4339 150.05 18.1309 150.639 19.7327C151.217 21.3126 152.078 22.7693 153.178 24.0283C154.554 25.6276 156.253 26.9048 158.158 27.7728C160.074 28.6485 162.152 29.0977 164.252 29.0905C166.352 29.0834 168.427 28.6199 170.338 27.731C172.278 26.834 174.008 25.5278 175.416 23.8988C176.56 22.6083 177.463 21.1158 178.082 19.4948C178.689 17.897 178.999 16.1986 178.999 14.4855C179.01 11.0618 177.758 7.75888 175.494 5.23061ZM167.86 27.155C166.769 27.6882 165.572 27.9528 164.363 27.9273C163.159 27.9517 161.968 27.6842 160.885 27.1466C159.767 26.5283 158.789 25.6745 158.019 24.6419C156.004 22.0537 154.98 18.8227 154.98 15.0406C154.963 12.9793 155.239 10.9263 155.8 8.94589C156.274 7.22007 157.069 5.60314 158.142 4.18281C158.864 3.20754 159.793 2.41241 160.861 1.85764C161.956 1.35786 163.147 1.11396 164.346 1.1438C165.559 1.11408 166.762 1.36081 167.868 1.86598C168.931 2.41332 169.856 3.20503 170.567 4.17865C171.637 5.60664 172.436 7.22645 172.922 8.95425C173.499 10.8966 173.794 12.915 173.795 14.9446C173.795 18.7643 172.77 22.0412 170.755 24.6252C169.979 25.6688 168.992 26.5301 167.86 27.1507V27.155Z" fill="#152E34"/>
</svg>
