<svg width="208" height="34" viewBox="0 0 208 34" fill="none" xmlns="http://www.w3.org/2000/svg">
<path opacity="0.4" d="M28.1067 22.0149H27.8604L27.8178 22.2592C27.6554 23.238 27.3671 24.1912 26.9604 25.0946C26.1963 26.8595 24.9362 28.3584 23.3364 29.4051C21.4416 30.5929 18.4051 31.1916 14.2554 31.1916H7.53343L26.8135 1.65009L26.8609 1.57824V0.682617H2.09048V0.950825L1.5694 9.29887V9.57667L1.84415 9.60062L2.36523 9.64851H2.63525L2.66841 9.3803C2.77918 8.34963 3.07962 7.34898 3.55424 6.42999C4.04331 5.56214 4.69878 4.80171 5.48225 4.19329C6.52136 3.36584 7.7228 2.77156 9.00666 2.44993C10.8015 2.06609 12.6345 1.8957 14.4685 1.94225H20.3757L0.920414 31.4837L0.873047 31.5556V32.4512H28.1778V32.1877L28.8789 22.355V22.0628H28.5899L28.1067 22.0149Z" fill="url(#paint0_linear_331_3134)"/>
<path opacity="0.4" d="M32.6213 0.654297H32.3418V1.73193H32.607C33.2943 1.75076 33.9755 1.86848 34.6298 2.08155C35.133 2.26517 35.5849 2.56918 35.9467 2.96761C36.4055 3.44095 36.7196 4.03789 36.8515 4.68702C37.0441 5.81438 37.1251 6.95833 37.0932 8.10193V24.9561C37.1251 26.0997 37.0441 27.2436 36.8515 28.371C36.722 29.0175 36.4112 29.6127 35.9562 30.0856C35.5879 30.4764 35.138 30.7791 34.6393 30.9717C33.9851 31.1935 33.3016 31.3146 32.6118 31.3308H32.3465V32.4085H47.3632V31.3308H47.0979C46.2836 31.3117 45.4801 31.1379 44.7294 30.8183C44.1473 30.5429 43.6545 30.1061 43.3082 29.5588C43.0243 29.048 42.8393 28.4872 42.7634 27.9064C42.6292 26.929 42.5706 25.9426 42.5882 24.9561V8.11629C42.5875 7.20266 42.6364 6.28969 42.7351 5.3815C42.8003 4.49244 43.1551 3.6503 43.7441 2.98677C44.1148 2.59119 44.5701 2.28649 45.0752 2.09592C45.7246 1.8824 46.401 1.76465 47.0836 1.74629H47.349V0.668665H32.6213V0.654297Z" fill="url(#paint1_linear_331_3134)"/>
<path opacity="0.4" d="M73.9629 0.654905H73.6833V1.73253H73.9487C74.6313 1.75089 75.3078 1.86864 75.9571 2.08217C76.5153 2.29238 77.0116 2.64197 77.4001 3.09837C77.7886 3.55478 78.0565 4.10315 78.1789 4.69243C78.3793 5.81724 78.4635 6.9601 78.43 8.10253V23.7928L60.5616 0.745906L60.4763 0.635742H51.3574V1.71337H51.6226C52.3132 1.73043 52.9976 1.84819 53.6549 2.06301C54.1524 2.24983 54.5989 2.55352 54.9576 2.94906C55.4077 3.43301 55.7174 4.03282 55.853 4.68285C56.052 5.79655 56.1362 6.92815 56.104 8.05943V24.9375C56.1367 26.0767 56.0526 27.2164 55.853 28.338C55.7184 28.986 55.4104 29.5842 54.9623 30.0671C54.5917 30.4627 54.1363 30.7675 53.6312 30.9579C52.9818 31.1714 52.3054 31.2892 51.6226 31.3076H51.3574V32.3851H62.3475V31.3076H62.0822C61.3995 31.2892 60.7231 31.1714 60.0737 30.9579C59.5176 30.7505 59.0222 30.4048 58.6331 29.9528C58.2439 29.5008 57.9737 28.9571 57.8472 28.3716C57.6466 27.2468 57.5625 26.104 57.5961 24.9615V5.88979L78.4063 32.3325L78.4916 32.4378H79.9126V8.09775C79.8804 6.96646 79.9645 5.83485 80.1638 4.72117C80.2982 4.07318 80.6064 3.47506 81.0543 2.99216C81.4932 2.56625 82.0141 2.23631 82.5845 2.02289C83.1551 1.80947 83.7629 1.71715 84.3703 1.75169H84.6498V0.659692H73.9629V0.654905Z" fill="url(#paint2_linear_331_3134)"/>
<path opacity="0.4" d="M114.351 22.0149H114.105L114.062 22.2592C113.899 23.238 113.611 24.1912 113.204 25.0946C112.44 26.8595 111.181 28.3584 109.581 29.4051C107.685 30.5929 104.649 31.1916 100.5 31.1916H93.7777L113.058 1.65009L113.105 1.57824V0.682617H88.3299V0.950825L87.8089 9.29887V9.57667L88.0836 9.60061L88.6047 9.64851H88.8748L88.9079 9.3803C89.0186 8.34962 89.3191 7.34898 89.7937 6.42999C90.2829 5.56222 90.9383 4.80181 91.7217 4.19329C92.7608 3.36584 93.9623 2.77156 95.2461 2.44993C97.041 2.06609 98.8741 1.8957 100.708 1.94225H106.653L87.1978 31.4837L87.1504 31.5556V32.4512H114.455V32.1877L115.156 22.355V22.0628H114.867L114.351 22.0149Z" fill="url(#paint3_linear_331_3134)"/>
<path opacity="0.4" d="M119.91 0.654112H119.631V1.73174H119.897C120.584 1.75057 121.265 1.86829 121.919 2.08138C122.423 2.26498 122.874 2.56899 123.236 2.96743C123.695 3.44077 124.009 4.0377 124.141 4.68684C124.333 5.81419 124.414 6.95815 124.382 8.10174V24.9559C124.414 26.0995 124.333 27.2434 124.141 28.3708C124.011 29.0173 123.7 29.6126 123.246 30.0855C122.877 30.4763 122.427 30.7789 121.929 30.9714C121.274 31.1933 120.591 31.3144 119.901 31.3307H119.636V32.4083H134.633V31.3307H134.369C133.554 31.3116 132.751 31.1378 131.999 30.8182C131.418 30.5425 130.926 30.1058 130.579 29.5585C130.295 29.0479 130.11 28.487 130.033 27.9062C129.9 26.9289 129.841 25.9425 129.858 24.9559V8.11611C129.852 7.19475 129.897 6.27377 129.991 5.35738C130.057 4.46832 130.411 3.62617 131 2.96264C131.371 2.56705 131.826 2.26236 132.331 2.07179C132.981 1.85827 133.657 1.74052 134.34 1.72216H134.606V0.644531H119.91V0.654112Z" fill="url(#paint4_linear_331_3134)"/>
<path opacity="0.4" d="M174.443 1.50862V0.416623H163.453V1.49425H163.719C164.401 1.51261 165.078 1.63036 165.728 1.84389C166.285 2.0541 166.782 2.40368 167.17 2.86009C167.558 3.3165 167.826 3.86486 167.949 4.45415C168.149 5.57896 168.234 6.72182 168.199 7.86425V23.5545L150.331 0.507625L150.246 0.397461H141.113V1.47509H141.378C142.068 1.49215 142.754 1.60991 143.411 1.82473C143.908 2.01154 144.355 2.31524 144.713 2.71078C145.164 3.19473 145.473 3.79454 145.609 4.44457C145.808 5.55827 145.891 6.68987 145.859 7.82115V24.6992C145.893 25.8384 145.808 26.9781 145.609 28.0997C145.474 28.7477 145.166 29.3459 144.719 29.8288C144.347 30.2244 143.892 30.5292 143.387 30.7196C142.738 30.9331 142.061 31.0509 141.378 31.0693H141.113V32.1468H152.103V31.0693H151.838C151.155 31.0509 150.479 30.9331 149.83 30.7196C149.271 30.5094 148.775 30.1598 148.387 29.7034C147.998 29.247 147.73 28.6987 147.608 28.1093C147.407 26.9845 147.323 25.8417 147.357 24.6992V5.65151L168.166 32.0942L168.252 32.1996H169.673V7.85947C169.64 6.72818 169.725 5.59656 169.924 4.48288C170.059 3.8349 170.367 3.23678 170.815 2.75388C171.254 2.32797 171.775 1.99803 172.345 1.78461C172.916 1.57119 173.523 1.47887 174.131 1.51341L174.443 1.50862Z" fill="url(#paint5_linear_331_3134)"/>
<path opacity="0.4" d="M203.87 5.86058C202.263 3.99358 200.29 2.48486 198.075 1.43032C195.932 0.400515 193.59 -0.136006 191.216 -0.140625C189.332 -0.133537 187.464 0.201843 185.693 0.850792C183.856 1.51338 182.134 2.46196 180.586 3.66222C178.563 5.21465 176.911 7.20865 175.755 9.49579C174.646 11.7495 174.078 14.2351 174.096 16.7518C174.092 18.7144 174.439 20.6614 175.12 22.4992C175.788 24.3119 176.783 25.9832 178.057 27.4276C179.648 29.2625 181.613 30.7279 183.817 31.7237C186.034 32.7285 188.437 33.2439 190.866 33.2356C193.295 33.2275 195.695 32.6957 197.906 31.6758C200.149 30.6466 202.15 29.1481 203.779 27.2791C205.102 25.7984 206.147 24.0861 206.863 22.2262C207.565 20.3931 207.924 18.4444 207.924 16.4789C207.936 12.5508 206.489 8.76133 203.87 5.86058ZM195.039 31.0149C193.778 31.6267 192.392 31.9303 190.994 31.901C189.601 31.9291 188.224 31.6221 186.972 31.0053C185.678 30.2959 184.547 29.3164 183.656 28.1317C181.326 25.1621 180.141 21.4551 180.141 17.1158C180.121 14.7509 180.44 12.3954 181.089 10.1232C181.637 8.14314 182.557 6.288 183.799 4.65842C184.633 3.53946 185.708 2.6272 186.944 1.99069C188.21 1.41728 189.587 1.13745 190.975 1.17169C192.377 1.13758 193.769 1.42067 195.049 2.00026C196.278 2.62824 197.348 3.53659 198.17 4.65364C199.408 6.29201 200.333 8.15045 200.894 10.1328C201.562 12.3613 201.903 14.677 201.904 17.0057C201.904 21.3881 200.719 25.1478 198.388 28.1125C197.491 29.3098 196.349 30.298 195.039 31.0101V31.0149Z" fill="url(#paint6_linear_331_3134)"/>
<defs>
<linearGradient id="paint0_linear_331_3134" x1="14.876" y1="31.9482" x2="14.876" y2="-7.71065" gradientUnits="userSpaceOnUse">
<stop stop-color="#FBF8F5"/>
<stop offset="1" stop-color="#FBF8F5" stop-opacity="0"/>
</linearGradient>
<linearGradient id="paint1_linear_331_3134" x1="39.8525" y1="31.9057" x2="39.8525" y2="-7.73517" gradientUnits="userSpaceOnUse">
<stop stop-color="#FBF8F5"/>
<stop offset="1" stop-color="#FBF8F5" stop-opacity="0"/>
</linearGradient>
<linearGradient id="paint2_linear_331_3134" x1="68.0036" y1="31.9343" x2="68.0036" y2="-7.76638" gradientUnits="userSpaceOnUse">
<stop stop-color="#FBF8F5"/>
<stop offset="1" stop-color="#FBF8F5" stop-opacity="0"/>
</linearGradient>
<linearGradient id="paint3_linear_331_3134" x1="101.153" y1="31.9482" x2="101.153" y2="-7.71065" gradientUnits="userSpaceOnUse">
<stop stop-color="#FBF8F5"/>
<stop offset="1" stop-color="#FBF8F5" stop-opacity="0"/>
</linearGradient>
<linearGradient id="paint4_linear_331_3134" x1="127.132" y1="31.9054" x2="127.132" y2="-7.74747" gradientUnits="userSpaceOnUse">
<stop stop-color="#FBF8F5"/>
<stop offset="1" stop-color="#FBF8F5" stop-opacity="0"/>
</linearGradient>
<linearGradient id="paint5_linear_331_3134" x1="157.778" y1="31.6961" x2="157.778" y2="-8.00466" gradientUnits="userSpaceOnUse">
<stop stop-color="#FBF8F5"/>
<stop offset="1" stop-color="#FBF8F5" stop-opacity="0"/>
</linearGradient>
<linearGradient id="paint6_linear_331_3134" x1="191.01" y1="32.7073" x2="191.01" y2="-8.95867" gradientUnits="userSpaceOnUse">
<stop stop-color="#FBF8F5"/>
<stop offset="1" stop-color="#FBF8F5" stop-opacity="0"/>
</linearGradient>
</defs>
</svg>
