<svg width="33" height="32" viewBox="0 0 33 32" fill="none" xmlns="http://www.w3.org/2000/svg">
<path d="M16.4987 4.66634C14.0233 4.66634 11.6494 5.64967 9.89904 7.40001C8.1487 9.15035 7.16537 11.5243 7.16536 13.9997C7.16536 16.475 8.1487 18.849 9.89903 20.5993C11.6494 22.3497 14.0233 23.333 16.4987 23.333C18.9741 23.333 21.348 22.3497 23.0984 20.5993C24.8487 18.849 25.832 16.475 25.832 13.9997C25.832 11.5243 24.8487 9.15035 23.0984 7.40001C21.348 5.64967 18.9741 4.66634 16.4987 4.66634V4.66634Z" stroke="white" stroke-width="1.5" stroke-linecap="round" stroke-linejoin="round"/>
<path d="M27.166 22.2797C25.1713 25.281 21.1433 27.333 16.4993 27.333C11.8553 27.333 7.82735 25.281 5.83268 22.2797" stroke="white" stroke-width="1.5" stroke-linecap="round" stroke-linejoin="round"/>
</svg>
