<?xml version="1.0" encoding="UTF-8"?>
<!DOCTYPE svg PUBLIC "-//W3C//DTD SVG 1.1//EN" "http://www.w3.org/Graphics/SVG/1.1/DTD/svg11.dtd">
<!-- Creator: CorelDRAW X8 -->
<svg xmlns="http://www.w3.org/2000/svg" xml:space="preserve" width="147.588mm" height="36.6622mm" version="1.1" style="shape-rendering:geometricPrecision; text-rendering:geometricPrecision; image-rendering:optimizeQuality; fill-rule:evenodd; clip-rule:evenodd"
viewBox="0 0 14759 3666"
 xmlns:xlink="http://www.w3.org/1999/xlink">
 <defs>
  <style type="text/css">
   <![CDATA[
    .fil0 {fill:#3950B5;fill-rule:nonzero}
   ]]>
  </style>
 </defs>
 <g id="Слой_x0020_1">
  <metadata id="CorelCorpID_0Corel-Layer"/>
  <path class="fil0" d="M5718 1131l-2 163c-27,-47 -65,-87 -114,-116 -49,-30 -101,-45 -158,-45l-185 0c-111,0 -203,45 -274,131 -72,86 -109,198 -109,333l0 378c0,116 37,215 111,294 74,79 163,119 267,116l148 0c64,0 124,-17 178,-52 54,-34 96,-79 123,-135l0 214c0,166 -27,284 -79,356 -52,72 -145,109 -281,109l-432 0 0 86 432 0c168,0 284,-44 350,-136 67,-91 99,-232 99,-422l0 -1269 -74 -5zm-5464 173l930 -931 -72 -72c-100,-96 -100,-98 32,-128 233,-52 467,-105 700,-158 142,-32 152,-23 120,122 -50,220 -99,440 -149,660 -38,171 -38,169 -157,50l-68 -68 -930 931c-116,115 -116,304 0,419l877 877c115,116 304,116 420,0l877 -877c115,-115 115,-304 0,-419l-294 -294 -481 481 92 92c70,70 70,184 0,254l-211 211c-69,69 -184,69 -253,0l-380 -380c-69,-69 -69,-184 0,-253l185 -185 1 -1 25 -25 736 -736 30 -30 0 0 121 -121c70,-70 184,-70 254,0l145 145 234 234 202 202c338,338 338,892 0,1231l-877 877c-339,339 -893,339 -1232,0l-877 -877c-339,-339 -339,-893 0,-1231zm13070 1671l111 0 0 -150 -111 0 0 150zm327 -430c-113,0 -176,66 -176,178l0 73c0,119 63,183 176,183l133 0 0 -97 -133 0c-52,0 -72,-22 -72,-86l0 -73c0,-60 20,-80 72,-80l133 0 0 -98 -133 0zm318 1c-45,0 -81,17 -111,51 -29,34 -43,73 -43,116l0 108c0,44 14,82 43,113 30,31 66,47 111,47l44 0c45,0 81,-16 110,-47 30,-31 44,-69 44,-113l0 -108c0,-43 -14,-82 -44,-116 -30,-34 -66,-51 -110,-51l-44 0zm94 275c0,37 -22,62 -50,62l-44 0c-27,0 -50,-24 -50,-62l0 -108c0,-40 24,-69 50,-69l44 0c25,0 50,30 50,69l0 108zm521 -275c-37,0 -69,12 -96,35 -27,-23 -59,-35 -95,-35l-25 0c-30,0 -59,15 -69,26l-3 -21 -78 0 0 424 103 0 0 -285c0,-27 20,-46 43,-46l29 0c21,0 43,22 43,50l0 281 104 0 0 -281c0,-30 20,-50 44,-50l28 0c23,0 43,21 43,55l0 276 104 0 0 -276c0,-44 -15,-81 -43,-110 -28,-28 -63,-43 -104,-43l-28 0zm-8881 -556c0,87 -29,161 -89,220 -59,59 -128,89 -205,89l-158 0c-79,0 -148,-30 -205,-92 -56,-61 -86,-138 -86,-232l0 -375c0,-74 12,-141 39,-200 28,-59 62,-104 107,-136 44,-32 94,-47 150,-47l186 0c66,0 126,25 175,72 49,47 76,106 81,175l5 526zm773 -864c-76,0 -145,22 -207,66 -62,45 -111,102 -146,171 -34,69 -52,143 -52,222l0 383c0,79 18,151 52,217 35,67 82,119 143,158 62,40 131,60 208,60l155 0c117,0 213,-42 289,-126 77,-84 114,-186 114,-307l0 -382c0,-121 -40,-228 -116,-319 -77,-91 -173,-138 -287,-138l-153 -5zm467 847c0,96 -30,178 -89,244 -59,67 -133,102 -222,102l-156 0c-91,0 -168,-35 -227,-102 -59,-66 -89,-148 -89,-244l0 -383c0,-64 13,-123 40,-180 27,-57 64,-104 113,-139 50,-34 104,-51 163,-51l156 0c86,0 160,37 222,111 62,74 92,160 92,259l-3 383zm1178 -842l-2 163c-28,-47 -65,-87 -114,-116 -49,-30 -101,-45 -158,-45l-185 0c-111,0 -203,45 -274,131 -72,86 -109,198 -109,333l0 378c0,116 37,215 111,294 74,79 163,119 267,116l148 0c64,0 123,-17 178,-52 54,-34 96,-79 123,-135l0 214c0,166 -27,284 -79,356 -52,72 -145,109 -281,109l-432 0 0 86 432 0c168,0 284,-44 350,-136 67,-91 99,-232 99,-422l0 -1269 -74 -5zm-15 859c0,87 -29,161 -89,220 -59,59 -128,89 -205,89l-158 0c-79,0 -148,-30 -205,-92 -56,-61 -86,-138 -86,-232l0 -375c0,-74 12,-141 39,-200 28,-59 62,-104 107,-136 44,-32 93,-47 150,-47l186 0c66,0 125,25 175,72 49,47 76,106 81,175l5 526zm368 -195c0,201 32,349 97,442 64,94 180,141 350,141l445 0 0 -87 -445 0c-136,0 -229,-36 -281,-112 -52,-77 -79,-197 -79,-362l0 -22 839 0 0 -200c0,-153 -39,-269 -121,-351 -81,-81 -197,-121 -348,-121 -133,0 -244,42 -331,126 -86,84 -131,200 -131,348l5 198zm835 -81l-751 0 0 -119c3,-82 20,-151 52,-210 32,-59 77,-104 131,-133 54,-30 116,-45 188,-45 81,0 150,15 207,45 57,29 99,71 126,128 27,57 42,129 45,212l2 122zm457 -855l0 286 -205 0 0 84 205 0 0 766c0,131 27,230 84,296 57,67 148,102 276,102l144 0 0 -84 -144 0c-98,0 -170,-25 -212,-77 -42,-52 -64,-131 -64,-237l0 -766 417 0 0 -84 -417 0 0 -286 -84 0zm1210 267c-121,0 -210,37 -269,108l-15 -89 -227 0 0 1233 304 0 0 -761c0,-138 69,-207 207,-207l220 0 0 -284 -220 0zm375 303l499 0c50,0 82,40 82,112l0 56 -272 0c-111,0 -207,40 -284,117 -76,76 -116,167 -116,276 0,109 40,200 116,277 77,76 173,113 284,113l175 0c70,0 136,-39 163,-71l13 71 225 0 0 -839c0,-112 -37,-205 -109,-282 -72,-76 -163,-114 -277,-114l-499 0 0 284zm581 573c0,47 -50,94 -97,94l-175 0c-52,0 -96,-47 -96,-106 0,-59 44,-109 96,-109l272 0 0 121zm916 -871c-99,0 -170,49 -193,74l-9 -60 -228 0 0 1233 304 0 0 -827c0,-77 59,-136 126,-136l136 0c67,0 123,61 123,160l0 803 304 0 0 -803c0,-128 -42,-234 -126,-318 -81,-84 -183,-126 -301,-126l-136 0zm763 1249l304 0 0 -526 25 0 395 526 373 0 -499 -664 462 -571 -388 0 -338 428 -30 0 0 -921 -304 0 0 1728z"/>
 </g>
</svg>
