<svg width="342" height="62" viewBox="0 0 342 62" fill="none" xmlns="http://www.w3.org/2000/svg">
<rect width="342" height="62" rx="10" fill="black"/>
<path d="M104.314 31.9851C104.331 30.6701 104.68 29.3807 105.33 28.2369C105.979 27.0932 106.907 26.1322 108.027 25.4434C107.315 24.4269 106.376 23.5904 105.285 23.0002C104.193 22.4101 102.979 22.0826 101.739 22.0438C99.0929 21.766 96.5281 23.6269 95.1797 23.6269C93.8055 23.6269 91.7297 22.0714 89.4945 22.1174C88.0486 22.164 86.6395 22.5845 85.4044 23.3377C84.1693 24.0908 83.1504 25.1511 82.447 26.4152C79.3998 31.6909 81.6727 39.4443 84.5918 43.7087C86.0522 45.7969 87.7588 48.1294 89.9922 48.0467C92.1775 47.9561 92.9936 46.6531 95.6317 46.6531C98.2453 46.6531 99.011 48.0467 101.29 47.994C103.635 47.9561 105.112 45.8967 106.521 43.7887C107.57 42.3008 108.378 40.6564 108.914 38.9163C107.551 38.3401 106.389 37.3755 105.571 36.143C104.753 34.9104 104.316 33.4643 104.314 31.9851ZM100.01 19.2391C101.289 17.7042 101.919 15.7313 101.766 13.7395C99.8129 13.9446 98.0085 14.8783 96.7126 16.3543C96.079 17.0754 95.5937 17.9143 95.2845 18.823C94.9753 19.7317 94.8483 20.6925 94.9106 21.6504C95.8877 21.6604 96.8543 21.4487 97.7377 21.031C98.621 20.6133 99.3981 20.0007 100.01 19.2391ZM131.939 42.7604H124.481L122.69 48.0486H119.531L126.595 28.4833H129.877L136.941 48.0486H133.728L131.939 42.7604ZM125.254 40.32H131.165L128.251 31.7376H128.169L125.254 40.32ZM152.197 40.9171C152.197 45.3498 149.824 48.1978 146.244 48.1978C145.337 48.2452 144.435 48.0363 143.641 47.5949C142.847 47.1536 142.194 46.4976 141.755 45.7021H141.688V52.7675H138.76V33.7839H141.594V36.1566H141.648C142.106 35.3649 142.771 34.7123 143.571 34.2682C144.37 33.8242 145.276 33.6052 146.19 33.6347C149.81 33.6347 152.197 36.4966 152.197 40.917V40.9171ZM149.187 40.9171C149.187 38.0291 147.695 36.1304 145.418 36.1304C143.18 36.1304 141.676 38.069 141.676 40.917C141.676 43.7912 143.18 45.7161 145.418 45.7161C147.695 45.7161 149.187 43.8313 149.187 40.917V40.9171ZM167.897 40.9171C167.897 45.3498 165.524 48.1978 161.944 48.1978C161.037 48.2452 160.135 48.0363 159.341 47.5949C158.547 47.1535 157.894 46.4976 157.456 45.7021H157.388V52.7675H154.46V33.7839H157.294V36.1566H157.348C157.806 35.3649 158.471 34.7123 159.271 34.2682C160.07 33.8242 160.976 33.6052 161.89 33.6347C165.51 33.6347 167.897 36.4966 167.897 40.917V40.9171ZM164.887 40.9171C164.887 38.0291 163.395 36.1304 161.118 36.1304C158.88 36.1304 157.376 38.069 157.376 40.917C157.376 43.7912 158.88 45.7161 161.118 45.7161C163.395 45.7161 164.887 43.8313 164.887 40.917V40.9171ZM178.273 42.5973C178.49 44.5374 180.375 45.8114 182.951 45.8114C185.419 45.8114 187.194 44.5374 187.194 42.7879C187.194 41.2692 186.124 40.36 183.588 39.7369L181.052 39.126C177.46 38.2582 175.792 36.578 175.792 33.8515C175.792 30.4757 178.734 28.1571 182.911 28.1571C187.045 28.1571 189.879 30.4757 189.975 33.8515H187.019C186.842 31.8991 185.228 30.7204 182.869 30.7204C180.511 30.7204 178.897 31.9129 178.897 33.6484C178.897 35.0318 179.928 35.8457 182.449 36.4687L184.605 36.9981C188.619 37.9473 190.287 39.5599 190.287 42.4216C190.287 46.0821 187.371 48.3747 182.734 48.3747C178.395 48.3747 175.465 46.1358 175.276 42.5971L178.273 42.5973ZM196.606 30.4083V33.7839H199.319V36.1027H196.606V43.9666C196.606 45.1883 197.149 45.7575 198.342 45.7575C198.664 45.7519 198.985 45.7293 199.305 45.6898V47.9948C198.769 48.0949 198.224 48.1402 197.679 48.13C194.791 48.13 193.664 47.0454 193.664 44.2789V36.1027H191.59V33.7839H193.664V30.4083H196.606ZM200.89 40.9171C200.89 36.4288 203.533 33.6086 207.655 33.6086C211.791 33.6086 214.422 36.4288 214.422 40.9171C214.422 45.4175 211.805 48.2255 207.655 48.2255C203.507 48.2255 200.89 45.4175 200.89 40.9171ZM211.439 40.9171C211.439 37.8383 210.028 36.0211 207.655 36.0211C205.283 36.0211 203.873 37.852 203.873 40.9171C203.873 44.0082 205.283 45.8114 207.655 45.8114C210.028 45.8114 211.439 44.0082 211.439 40.9171ZM216.836 33.7839H219.629V36.2119H219.697C219.885 35.4536 220.33 34.7834 220.955 34.3141C221.579 33.8448 222.347 33.6049 223.128 33.6347C223.465 33.6335 223.802 33.6701 224.131 33.7439V36.4827C223.705 36.3525 223.261 36.2928 222.815 36.3058C222.39 36.2885 221.966 36.3635 221.572 36.5256C221.179 36.6877 220.825 36.9331 220.535 37.2449C220.245 37.5566 220.026 37.9275 219.893 38.3319C219.76 38.7363 219.716 39.1647 219.764 39.5876V48.0486H216.836V33.7839ZM237.631 43.8588C237.237 46.4484 234.715 48.2255 231.489 48.2255C227.339 48.2255 224.763 45.4453 224.763 40.9847C224.763 36.5104 227.353 33.6086 231.365 33.6086C235.312 33.6086 237.794 36.3196 237.794 40.6447V41.6479H227.719V41.8248C227.672 42.3498 227.738 42.8786 227.912 43.3763C228.085 43.8739 228.363 44.3289 228.726 44.711C229.089 45.0932 229.529 45.3938 230.017 45.5928C230.505 45.7918 231.03 45.8847 231.556 45.8653C232.248 45.9302 232.943 45.7699 233.536 45.4084C234.13 45.0469 234.591 44.5034 234.851 43.8588H237.631ZM227.733 39.6015H234.864C234.891 39.1295 234.819 38.6571 234.654 38.214C234.489 37.771 234.234 37.3668 233.906 37.0268C233.577 36.6868 233.182 36.4184 232.745 36.2385C232.308 36.0585 231.838 35.9709 231.365 35.981C230.889 35.9782 230.416 36.0698 229.975 36.2506C229.534 36.4314 229.133 36.6978 228.795 37.0344C228.457 37.371 228.189 37.7711 228.007 38.2117C227.825 38.6524 227.732 39.1247 227.733 39.6015ZM124.887 13.7563C125.501 13.7123 126.117 13.805 126.69 14.0279C127.264 14.2507 127.781 14.5981 128.204 15.045C128.627 15.4918 128.946 16.0271 129.137 16.6121C129.329 17.197 129.388 17.8172 129.31 18.4277C129.31 21.4311 127.687 23.1575 124.887 23.1575H121.491V13.7562L124.887 13.7563ZM122.951 21.8279H124.724C125.162 21.8541 125.601 21.7822 126.009 21.6174C126.416 21.4525 126.781 21.1989 127.078 20.8751C127.375 20.5512 127.596 20.1652 127.725 19.7451C127.854 19.325 127.888 18.8815 127.824 18.4468C127.883 18.0138 127.846 17.573 127.715 17.156C127.584 16.739 127.363 16.3561 127.066 16.0348C126.77 15.7135 126.406 15.4617 126.001 15.2975C125.596 15.1333 125.16 15.0607 124.724 15.0849H122.951V21.8279ZM130.96 19.607C130.915 19.1408 130.968 18.6704 131.116 18.226C131.264 17.7815 131.503 17.3729 131.818 17.0263C132.133 16.6797 132.517 16.4028 132.946 16.2133C133.374 16.0238 133.837 15.9259 134.305 15.9259C134.774 15.9259 135.237 16.0238 135.665 16.2133C136.094 16.4028 136.478 16.6797 136.793 17.0263C137.108 17.3729 137.347 17.7815 137.495 18.226C137.642 18.6704 137.696 19.1408 137.651 19.607C137.697 20.0738 137.644 20.545 137.497 20.9902C137.349 21.4354 137.11 21.8449 136.795 22.1923C136.48 22.5397 136.096 22.8173 135.667 23.0072C135.238 23.1972 134.774 23.2953 134.305 23.2953C133.836 23.2953 133.373 23.1972 132.944 23.0072C132.515 22.8173 132.131 22.5397 131.816 22.1923C131.5 21.8449 131.262 21.4354 131.114 20.9902C130.967 20.545 130.914 20.0738 130.96 19.607ZM136.211 19.607C136.211 18.0691 135.52 17.1698 134.308 17.1698C133.091 17.1698 132.406 18.0691 132.406 19.607C132.406 21.1572 133.091 22.0496 134.308 22.0496C135.52 22.0496 136.211 21.1511 136.211 19.607ZM146.546 23.1574H145.093L143.627 17.9322H143.516L142.056 23.1574H140.618L138.662 16.0626H140.082L141.353 21.4763H141.458L142.916 16.0626H144.26L145.718 21.4763H145.829L147.094 16.0626H148.494L146.546 23.1574ZM150.139 16.0628H151.487V17.1898H151.591C151.769 16.785 152.068 16.4456 152.448 16.219C152.827 15.9924 153.268 15.8899 153.708 15.9257C154.054 15.8998 154.4 15.9518 154.723 16.078C155.045 16.2042 155.335 16.4013 155.571 16.6548C155.806 16.9082 155.982 17.2114 156.085 17.542C156.188 17.8726 156.215 18.222 156.164 18.5645V23.1572H154.764V18.9161C154.764 17.7761 154.268 17.209 153.233 17.209C152.999 17.1981 152.765 17.238 152.547 17.326C152.33 17.414 152.134 17.5479 151.973 17.7187C151.812 17.8894 151.69 18.093 151.615 18.3153C151.54 18.5377 151.514 18.7736 151.539 19.0069V23.1574H150.139V16.0628ZM158.395 13.2931H159.795V23.1574H158.395V13.2931ZM161.742 19.607C161.697 19.1407 161.75 18.6702 161.898 18.2258C162.046 17.7813 162.285 17.3726 162.6 17.026C162.915 16.6793 163.299 16.4024 163.728 16.2128C164.156 16.0233 164.619 15.9254 165.088 15.9254C165.556 15.9254 166.019 16.0233 166.448 16.2128C166.876 16.4024 167.26 16.6793 167.575 17.026C167.89 17.3726 168.13 17.7813 168.277 18.2258C168.425 18.6702 168.479 19.1407 168.434 19.607C168.479 20.0737 168.426 20.5448 168.279 20.9899C168.131 21.435 167.892 21.8443 167.577 22.1915C167.262 22.5387 166.878 22.8162 166.449 23.0061C166.02 23.196 165.557 23.2941 165.088 23.2941C164.619 23.2941 164.155 23.196 163.726 23.0061C163.298 22.8162 162.913 22.5387 162.598 22.1915C162.283 21.8443 162.044 21.435 161.897 20.9899C161.749 20.5448 161.696 20.0737 161.742 19.607ZM166.993 19.607C166.993 18.0691 166.302 17.1698 165.09 17.1698C163.873 17.1698 163.188 18.0691 163.188 19.607C163.188 21.1572 163.873 22.0496 165.09 22.0496C166.302 22.0496 166.993 21.1511 166.993 19.607ZM169.908 21.1511C169.908 19.8739 170.859 19.1377 172.547 19.033L174.468 18.9223V18.3099C174.468 17.5605 173.973 17.1375 173.016 17.1375C172.234 17.1375 171.693 17.4244 171.537 17.9261H170.182C170.325 16.7074 171.471 15.9259 173.081 15.9259C174.859 15.9259 175.862 16.8114 175.862 18.3099V23.1574H174.515V22.1604H174.404C174.179 22.518 173.863 22.8096 173.489 23.0053C173.114 23.201 172.695 23.2938 172.273 23.2743C171.975 23.3053 171.674 23.2735 171.389 23.181C171.104 23.0885 170.842 22.9374 170.619 22.7374C170.396 22.5373 170.218 22.2928 170.096 22.0196C169.973 21.7464 169.909 21.4505 169.908 21.1511ZM174.468 20.5448V19.9516L172.736 20.0624C171.759 20.1277 171.316 20.4602 171.316 21.0855C171.316 21.7241 171.87 22.0958 172.631 22.0958C172.854 22.1184 173.08 22.0958 173.294 22.0295C173.508 21.9632 173.707 21.8545 173.879 21.7098C174.05 21.5651 174.191 21.3873 174.292 21.1872C174.393 20.9871 174.453 20.7686 174.468 20.5448ZM177.703 19.607C177.703 17.3652 178.855 15.9451 180.648 15.9451C181.091 15.9247 181.531 16.0309 181.916 16.2513C182.302 16.4717 182.616 16.7972 182.823 17.1898H182.928V13.293H184.328V23.1572H182.986V22.0362H182.876C182.652 22.4262 182.327 22.7477 181.934 22.9659C181.542 23.1841 181.097 23.2907 180.648 23.2741C178.843 23.2741 177.703 21.8539 177.703 19.6069V19.607ZM179.149 19.607C179.149 21.1117 179.858 22.0173 181.044 22.0173C182.225 22.0173 182.954 21.0988 182.954 19.613C182.954 18.1345 182.217 17.2029 181.044 17.2029C179.866 17.2029 179.149 18.1145 179.149 19.607ZM190.121 19.607C190.076 19.1408 190.13 18.6704 190.277 18.226C190.425 17.7815 190.664 17.3729 190.979 17.0263C191.294 16.6797 191.678 16.4028 192.107 16.2133C192.535 16.0238 192.998 15.9259 193.467 15.9259C193.935 15.9259 194.398 16.0238 194.826 16.2133C195.255 16.4028 195.639 16.6797 195.954 17.0263C196.269 17.3729 196.508 17.7815 196.656 18.226C196.804 18.6704 196.857 19.1408 196.812 19.607C196.858 20.0738 196.805 20.545 196.658 20.9902C196.51 21.4354 196.272 21.8449 195.956 22.1923C195.641 22.5397 195.257 22.8173 194.828 23.0072C194.399 23.1972 193.936 23.2953 193.467 23.2953C192.998 23.2953 192.534 23.1972 192.105 23.0072C191.676 22.8173 191.292 22.5397 190.977 22.1923C190.662 21.8449 190.423 21.4354 190.275 20.9902C190.128 20.545 190.075 20.0738 190.121 19.607ZM195.372 19.607C195.372 18.0691 194.681 17.1698 193.469 17.1698C192.252 17.1698 191.567 18.0691 191.567 19.607C191.567 21.1572 192.252 22.0496 193.469 22.0496C194.681 22.0496 195.372 21.1511 195.372 19.607ZM198.691 16.0628H200.039V17.1898H200.144C200.321 16.785 200.62 16.4456 201 16.219C201.379 15.9924 201.82 15.8899 202.261 15.9257C202.606 15.8998 202.953 15.9518 203.275 16.078C203.597 16.2042 203.887 16.4013 204.123 16.6548C204.359 16.9082 204.535 17.2114 204.637 17.542C204.74 17.8726 204.767 18.222 204.716 18.5645V23.1572H203.316V18.9161C203.316 17.7761 202.821 17.209 201.785 17.209C201.551 17.1981 201.317 17.238 201.099 17.326C200.882 17.414 200.686 17.5479 200.525 17.7187C200.364 17.8894 200.242 18.093 200.167 18.3153C200.092 18.5377 200.066 18.7736 200.091 19.0069V23.1574H198.691L198.691 16.0628ZM212.628 14.2964V16.0951H214.165V17.2744H212.628V20.9225C212.628 21.6657 212.934 21.9912 213.631 21.9912C213.81 21.9905 213.988 21.9797 214.165 21.9587V23.1251C213.914 23.1701 213.659 23.194 213.403 23.1966C211.846 23.1966 211.226 22.6488 211.226 21.2811V17.2744H210.1V16.0949H211.226V14.2966L212.628 14.2964ZM216.078 13.2931H217.466V17.2029H217.576C217.762 16.7943 218.07 16.453 218.457 16.2256C218.844 15.9981 219.292 15.8956 219.74 15.9319C220.083 15.9132 220.426 15.9705 220.745 16.0998C221.064 16.2291 221.35 16.4271 221.583 16.6797C221.817 16.9323 221.991 17.2334 222.095 17.5613C222.199 17.8893 222.229 18.2361 222.183 18.5769V23.1574H220.781V18.9223C220.781 17.789 220.253 17.2152 219.264 17.2152C219.024 17.1954 218.781 17.2285 218.555 17.3121C218.328 17.3957 218.123 17.5278 217.953 17.6991C217.783 17.8704 217.652 18.0769 217.57 18.304C217.488 18.531 217.456 18.7733 217.478 19.0138V23.1574H216.078V13.2931ZM230.347 21.2417C230.157 21.8901 229.745 22.451 229.183 22.8263C228.621 23.2015 227.945 23.3672 227.273 23.2943C226.805 23.3067 226.341 23.2171 225.911 23.032C225.482 22.8468 225.098 22.5704 224.786 22.222C224.475 21.8736 224.242 21.4615 224.106 21.0143C223.969 20.5671 223.932 20.0956 223.995 19.6324C223.933 19.1678 223.971 18.6952 224.108 18.2466C224.244 17.7981 224.475 17.3841 224.785 17.0326C225.095 16.6811 225.477 16.4004 225.906 16.2094C226.334 16.0185 226.798 15.9217 227.267 15.9257C229.241 15.9257 230.432 17.2744 230.432 19.5023V19.9908H225.422V20.0693C225.4 20.3296 225.433 20.5917 225.518 20.8387C225.603 21.0856 225.739 21.3121 225.917 21.5034C226.095 21.6948 226.311 21.8469 226.551 21.9499C226.791 22.0529 227.05 22.1047 227.311 22.1018C227.646 22.142 227.985 22.0817 228.286 21.9285C228.587 21.7754 228.835 21.5363 228.999 21.2417H230.347ZM225.422 18.9554H229.005C229.023 18.7173 228.991 18.4781 228.91 18.2532C228.83 18.0284 228.704 17.8228 228.539 17.6497C228.375 17.4766 228.176 17.3399 227.955 17.2482C227.735 17.1565 227.498 17.112 227.259 17.1175C227.017 17.1144 226.776 17.1599 226.552 17.2512C226.328 17.3425 226.124 17.4778 225.953 17.649C225.782 17.8203 225.646 18.0242 225.555 18.2485C225.464 18.4729 225.419 18.7132 225.422 18.9554Z" fill="white"/>
</svg>
