<svg width="342" height="62" viewBox="0 0 342 62" fill="none" xmlns="http://www.w3.org/2000/svg">
<rect width="342" height="62" rx="10" fill="black"/>
<path d="M140.387 16.1525C140.387 17.3937 140.02 18.3821 139.285 19.1195C138.45 19.9962 137.362 20.4349 136.024 20.4349C134.743 20.4349 133.654 19.9905 132.759 19.1004C131.861 18.2109 131.414 17.1079 131.414 15.7919C131.414 14.4753 131.861 13.3729 132.759 12.4827C133.654 11.5933 134.743 11.1482 136.024 11.1482C136.66 11.1482 137.268 11.2727 137.846 11.521C138.424 11.7699 138.887 12.1003 139.234 12.514L138.454 13.2958C137.866 12.5927 137.057 12.2414 136.024 12.2414C135.09 12.2414 134.282 12.5702 133.6 13.2282C132.919 13.8868 132.578 14.7409 132.578 15.7919C132.578 16.8429 132.919 17.6969 133.6 18.3556C134.282 19.0136 135.09 19.3423 136.024 19.3423C137.015 19.3423 137.841 19.0118 138.503 18.3498C138.932 17.9186 139.181 17.3191 139.247 16.5494H136.024V15.4817H140.325C140.366 15.7138 140.386 15.9366 140.386 16.1525" fill="white"/>
<path d="M140.387 16.1524H140.239C140.238 17.3654 139.884 18.3075 139.18 19.0147L139.179 19.0159L139.178 19.0171C138.37 19.8636 137.331 20.285 136.024 20.2868C134.778 20.285 133.734 19.859 132.863 18.9956C131.993 18.1304 131.563 17.0742 131.562 15.7918C131.563 14.5088 131.993 13.4532 132.863 12.5887C133.734 11.7246 134.778 11.2981 136.024 11.2963C136.641 11.2963 137.228 11.4168 137.788 11.6569C138.348 11.8989 138.791 12.2159 139.121 12.6096L139.234 12.514L139.13 12.4092L138.35 13.1916L138.454 13.2958L138.568 13.201C137.953 12.463 137.09 12.091 136.025 12.0932C135.056 12.092 134.203 12.4388 133.498 13.1217C132.787 13.8069 132.429 14.7091 132.43 15.7918C132.429 16.8747 132.787 17.7768 133.498 18.462C134.203 19.1449 135.056 19.4916 136.024 19.4904C137.048 19.4922 137.921 19.1443 138.608 18.4545C139.067 17.9938 139.327 17.3556 139.395 16.5621L139.409 16.4012H136.172V15.6298H140.325V15.4816L140.179 15.5077C140.22 15.7323 140.239 15.9458 140.239 16.1524H140.535C140.535 15.9273 140.514 15.6958 140.471 15.4551L140.449 15.3335H135.877V16.6975H139.247V16.5493L139.1 16.5366C139.035 17.2821 138.798 17.8434 138.399 18.2451C137.763 18.8793 136.983 19.1923 136.025 19.1941C135.125 19.1929 134.362 18.8827 133.704 18.2491C133.052 17.6177 132.728 16.8115 132.726 15.7918C132.728 14.7721 133.052 13.966 133.704 13.3346C134.362 12.7009 135.125 12.3907 136.025 12.3895C137.025 12.3919 137.78 12.7229 138.341 13.3913L138.445 13.5152L139.339 12.6188L139.435 12.5227L139.347 12.419C138.984 11.9851 138.5 11.6407 137.905 11.385C137.308 11.1285 136.679 11 136.025 11C134.71 10.9989 133.575 11.4618 132.654 12.378C131.731 13.2924 131.265 14.4417 131.266 15.7918C131.265 17.1413 131.731 18.2913 132.655 19.2063C133.575 20.1218 134.71 20.5842 136.025 20.583C137.394 20.5842 138.53 20.1287 139.392 19.2218L139.285 19.1194L139.39 19.2242C140.156 18.4574 140.536 17.4215 140.535 16.1524H140.387H140.387ZM147.205 12.4393H143.163V15.2578H146.808V16.3259H143.163V19.1443H147.205V20.2364H142.024V11.3473H147.205V12.4393Z" fill="white"/>
<path d="M147.204 12.4394V12.2912H143.015V15.406H146.66V16.1774L143.015 16.1778V19.2925H147.056V20.0883H142.171V11.4955H147.056V12.4394H147.204V12.2912V12.4394H147.352V11.1992H141.875V20.3846H147.352V18.9963H143.311V16.4741H146.955V15.1097H143.311V12.5875H147.352V12.4394H147.204ZM152.013 20.2365H150.872V12.4393H148.393V11.3473H154.492V12.4393H152.013V20.2364" fill="white"/>
<path d="M152.013 20.2365V20.0883H151.02V12.2912H148.541V11.4956H154.344V12.2912H151.865V20.2364H152.013V20.0883V20.2364H152.161V12.5875H154.64V11.1992H148.246V12.5875H150.724V20.3845H152.161V20.2364H152.013V20.2365ZM158.905 20.2365V11.3473H160.045V20.2364H158.905" fill="white"/>
<path d="M158.905 20.2365H159.053V11.4955H159.897V20.0883H158.905V20.2364H159.053H158.905V20.3846H160.193V11.1992H158.757V20.3846H158.905V20.2364V20.2365ZM165.103 20.2365H163.962V12.4393H161.483V11.3473H167.582V12.4393H165.103V20.2364" fill="white"/>
<path d="M165.103 20.2365V20.0883H164.11V12.2912H161.631V11.4956H167.434V12.2912H164.955V20.2364H165.103V20.0883V20.2364H165.251V12.5875H167.73V11.1992H161.335V12.5874H163.814V20.3845H165.251V20.2363H165.103V20.2365ZM173.461 18.3435C174.118 19.0095 174.922 19.3423 175.872 19.3423C176.823 19.3423 177.627 19.0095 178.283 18.3435C178.94 17.6774 179.27 16.826 179.27 15.7919C179.27 14.7578 178.94 13.9064 178.283 13.2403C177.627 12.5742 176.823 12.2414 175.872 12.2414C174.922 12.2414 174.118 12.5742 173.461 13.2403C172.805 13.9064 172.476 14.7578 172.476 15.7919C172.476 16.826 172.805 17.6774 173.461 18.3435ZM179.126 19.0876C178.254 19.9863 177.169 20.4349 175.872 20.4349C174.575 20.4349 173.49 19.9863 172.619 19.0876C171.746 18.19 171.312 17.0912 171.312 15.7919C171.312 14.4926 171.746 13.3936 172.619 12.4961C173.49 11.5972 174.575 11.1482 175.872 11.1482C177.162 11.1482 178.244 11.5996 179.121 12.5019C179.996 13.4041 180.434 14.5007 180.434 15.7919C180.434 17.0912 179.997 18.19 179.126 19.0876Z" fill="white"/>
<path d="M173.461 18.3435L173.356 18.4476C174.037 19.1403 174.887 19.4922 175.872 19.4904C176.857 19.4922 177.708 19.1403 178.388 18.4476C179.074 17.7542 179.419 16.8572 179.418 15.7918C179.419 14.7265 179.074 13.8294 178.388 13.136C177.708 12.4433 176.857 12.0915 175.872 12.0932C174.887 12.0915 174.037 12.4433 173.356 13.136C172.672 13.8294 172.326 14.7265 172.328 15.7918C172.326 16.8572 172.672 17.7542 173.356 18.4476L173.461 18.3435L173.567 18.2393C172.939 17.5997 172.625 16.7953 172.624 15.7918C172.625 14.7884 172.939 13.984 173.566 13.3444C174.2 12.705 174.956 12.3913 175.872 12.3896C176.788 12.3913 177.546 12.705 178.178 13.3444C178.806 13.984 179.12 14.7884 179.121 15.7918C179.12 16.7952 178.806 17.5997 178.178 18.2393C177.546 18.8787 176.788 19.1923 175.872 19.1941C174.956 19.1923 174.2 18.8787 173.566 18.2393L173.461 18.3435ZM179.126 19.0876L179.021 18.9847C178.173 19.855 177.135 20.285 175.872 20.2868C174.609 20.285 173.572 19.855 172.725 18.9847L172.721 18.98L172.725 18.9847C171.879 18.1113 171.461 17.0581 171.46 15.7918C171.461 14.5256 171.879 13.4724 172.725 12.5991C173.572 11.7286 174.609 11.2981 175.872 11.2964C177.127 11.2981 178.162 11.7304 179.015 12.6054C179.864 13.4827 180.284 14.5343 180.286 15.7918C180.284 17.0581 179.865 18.1113 179.021 18.9847L179.126 19.0876L179.233 19.1905C180.129 18.2682 180.583 17.124 180.582 15.7918C180.583 14.4672 180.128 13.3254 179.227 12.3989C178.326 11.4687 177.197 10.9984 175.872 11C174.541 10.9984 173.409 11.4665 172.513 12.3931V12.3924C171.615 13.3155 171.163 14.4596 171.164 15.7918C171.163 17.124 171.615 18.2682 172.513 19.1911L172.517 19.1953L172.513 19.1905C173.409 20.1171 174.541 20.5843 175.872 20.5831C177.203 20.5843 178.335 20.1171 179.233 19.1905L179.126 19.0876ZM182.034 20.2364V11.3472H183.422L187.735 18.2623H187.785L187.735 16.5493V11.3472H188.877V20.2363H187.686L183.174 12.9861H183.125L183.174 14.6997V20.2363H182.034" fill="white"/>
<path d="M182.034 20.2365H182.182V11.4955H183.34L187.653 18.4106H187.936L187.883 16.5472V11.4956H188.729V20.0883H187.768L183.256 12.8381H182.973L183.026 14.7023V20.0883H182.034V20.2364H182.182H182.034V20.3846H183.322V14.6975L183.273 12.9822L183.125 12.9862V13.1344H183.174V12.9862L183.048 13.065L187.604 20.3846H189.024V11.1992H187.588V16.5511L187.637 18.2664L187.785 18.2624V18.1143H187.735V18.2624L187.861 18.1838L183.504 11.1992H181.887V20.3846H182.035V20.2364L182.034 20.2365ZM228.421 45.4221H231.181V26.9015H228.421L228.421 45.4221ZM253.28 33.5731L250.116 41.6027H250.022L246.738 33.573H243.765L248.689 44.7959L245.882 51.0386H248.761L256.349 33.573L253.28 33.5731ZM237.628 43.3186C236.723 43.3186 235.463 42.866 235.463 41.7456C235.463 40.3161 237.033 39.7681 238.388 39.7681C239.603 39.7681 240.172 40.0302 240.91 40.388C240.696 42.1032 239.221 43.3186 237.628 43.3186ZM237.961 33.1678C235.963 33.1678 233.893 34.0497 233.037 36.0036L235.486 37.0279C236.01 36.0036 236.985 35.6696 238.008 35.6696C239.436 35.6696 240.887 36.5279 240.91 38.0528V38.2432C240.41 37.9573 239.341 37.5285 238.032 37.5285C235.392 37.5285 232.703 38.9816 232.703 41.6981C232.703 44.1762 234.868 45.7728 237.294 45.7728C239.15 45.7728 240.172 44.9389 240.816 43.9621H240.91V45.3915H243.574V38.2906C243.574 35.003 241.125 33.1678 237.961 33.1678ZM220.904 35.8276H216.978V29.4792H220.904C222.967 29.4792 224.139 31.1903 224.139 32.6533C224.139 34.0886 222.967 35.8276 220.904 35.8276ZM220.833 26.9015H214.219V45.4221H216.978V38.4052H220.833C223.891 38.4052 226.898 36.187 226.898 32.6533C226.898 29.1198 223.891 26.9015 220.833 26.9015ZM184.77 43.322C182.863 43.322 181.267 41.723 181.267 39.5268C181.267 37.3075 182.863 35.6841 184.77 35.6841C186.653 35.6841 188.13 37.3074 188.13 39.5268C188.13 41.723 186.653 43.322 184.77 43.322H184.77ZM187.939 34.6101H187.844C187.225 33.8704 186.033 33.2021 184.532 33.2021C181.386 33.2021 178.503 35.9706 178.503 39.5268C178.503 43.0593 181.386 45.8041 184.532 45.8041C186.033 45.8041 187.225 45.1356 187.844 44.3723H187.939V45.2792C187.939 47.6902 186.653 48.979 184.58 48.979C182.888 48.979 181.839 47.7613 181.41 46.7352L179.003 47.7376C179.694 49.4083 181.529 51.4611 184.58 51.4611C187.82 51.4611 190.561 49.5513 190.561 44.8973V33.584H187.939V34.6101ZM192.467 45.4221H195.231V26.9008H192.467V45.4221ZM199.306 39.3121C199.234 36.8774 201.188 35.6366 202.594 35.6366C203.691 35.6366 204.62 36.1852 204.929 36.9736L199.306 39.3121ZM207.884 37.2119C207.361 35.8033 205.763 33.2021 202.499 33.2021C199.258 33.2021 196.566 35.7558 196.566 39.5031C196.566 43.0356 199.234 45.8041 202.809 45.8041C205.692 45.8041 207.361 44.0378 208.052 43.0117L205.907 41.5794C205.192 42.6298 204.215 43.322 202.809 43.322C201.403 43.322 200.402 42.6773 199.758 41.4127L208.17 37.9278L207.884 37.2119ZM140.868 35.1354V37.8085H147.254C147.064 39.3121 146.563 40.4099 145.801 41.1738C144.872 42.1049 143.418 43.131 140.868 43.131C136.936 43.131 133.862 39.9567 133.862 36.0185C133.862 32.0804 136.936 28.9057 140.868 28.9057C142.989 28.9057 144.538 29.7412 145.682 30.8153L147.564 28.9299C145.968 27.4021 143.847 26.2326 140.868 26.2326C135.483 26.2326 130.955 30.6244 130.955 36.0185C130.955 41.4127 135.483 45.8041 140.868 45.8041C143.776 45.8041 145.968 44.8498 147.683 43.0593C149.446 41.293 149.995 38.8109 149.995 36.8063C149.995 36.1852 149.947 35.6129 149.851 35.1354H140.868ZM157.255 43.322C155.348 43.322 153.704 41.7466 153.704 39.5031C153.704 37.2356 155.348 35.6841 157.255 35.6841C159.161 35.6841 160.806 37.2356 160.806 39.5031C160.806 41.7467 159.161 43.322 157.255 43.322ZM157.255 33.2021C153.776 33.2021 150.94 35.8513 150.94 39.5031C150.94 43.131 153.776 45.8041 157.255 45.8041C160.734 45.8041 163.57 43.131 163.57 39.5031C163.57 35.8513 160.734 33.2021 157.255 33.2021ZM171.03 43.322C169.125 43.322 167.48 41.7466 167.48 39.5031C167.48 37.2356 169.125 35.6841 171.031 35.6841C172.937 35.6841 174.581 37.2356 174.581 39.5031C174.581 41.7467 172.937 43.322 171.031 43.322H171.03ZM171.03 33.2021C167.551 33.2021 164.716 35.8513 164.716 39.5031C164.716 43.131 167.551 45.8041 171.031 45.8041C174.509 45.8041 177.345 43.131 177.345 39.5031C177.345 35.8513 174.509 33.2021 171.031 33.2021H171.03Z" fill="white"/>
<path d="M85.7927 12.253C85.2963 12.7016 85 13.4498 85 14.4429V14.2184V46.9911V46.7752C85 47.6924 85.2541 48.4007 85.6845 48.8569L85.7944 48.9622V48.9627C86.1428 49.2775 86.5895 49.4447 87.1014 49.4442C87.6017 49.4442 88.1645 49.2845 88.7585 48.9471L110.228 36.7287L117.603 32.5312C118.54 31.9983 119.065 31.3108 119.153 30.6105V30.6076C119.065 29.9057 118.54 29.2187 117.603 28.6857L110.228 24.4888L88.7585 12.2703C88.1633 11.9324 87.6001 11.7721 87.0985 11.7721C86.5871 11.7721 86.141 11.9388 85.7928 12.253H85.7927Z" fill="#00C1FF"/>
<path d="M85.7945 48.9622L85.6845 48.8568C85.2541 48.4007 85 47.6924 85 46.7752V46.991V14.2265V14.4429C85 13.4497 85.2963 12.7016 85.7927 12.253L104.119 30.6082L85.7945 48.9622Z" fill="url(#paint0_linear_422_922)"/>
<path d="M110.228 36.7286L104.119 30.6082L110.228 24.4888L117.603 28.6856C118.539 29.2187 119.065 29.9056 119.153 30.6076V30.6104C119.065 31.3107 118.539 31.9983 117.603 32.5312L110.228 36.7286" fill="url(#paint1_linear_422_922)"/>
<path d="M87.1013 49.4441C86.5894 49.4446 86.1427 49.2773 85.7944 48.9625V48.962L104.119 30.608L110.228 36.7285L88.7584 48.947C88.1644 49.2844 87.6016 49.4441 87.1013 49.4441Z" fill="url(#paint2_linear_422_922)"/>
<path d="M104.119 30.6083L85.7925 12.2531C86.1408 11.9388 86.5869 11.7722 87.0982 11.7722C87.5998 11.7722 88.1631 11.9324 88.7583 12.2704L110.227 24.4889L104.119 30.6083" fill="url(#paint3_linear_422_922)"/>
<path d="M87.1019 49.6611C86.59 49.6611 86.1427 49.4939 85.7944 49.1791L85.7938 49.1796C85.7923 49.1782 85.7908 49.1768 85.7892 49.1756L85.6939 49.0824C85.6909 49.0795 85.6881 49.0761 85.6846 49.0727L85.7944 48.9626C86.1428 49.2774 86.5894 49.4447 87.1015 49.4441C87.6016 49.4441 88.1644 49.2844 88.7584 48.947L110.228 36.7286L110.366 36.8664L110.226 36.9456L88.7584 49.1634C88.217 49.4708 87.7022 49.631 87.2371 49.6577C87.1921 49.6599 87.147 49.661 87.1019 49.6611" fill="url(#paint4_linear_422_922)"/>
<path d="M85.6845 49.0726C85.2541 48.6165 85 47.9088 85 46.991V46.7751C85 47.6923 85.2541 48.4006 85.6845 48.8568L85.7944 48.9621L85.6845 49.0726Z" fill="url(#paint5_linear_422_922)"/>
<path d="M110.366 36.8664L110.228 36.7286L117.603 32.5312C118.539 31.9983 119.065 31.3107 119.153 30.6104C119.153 30.8674 119.096 31.1244 118.982 31.3744C118.753 31.8785 118.293 32.3547 117.603 32.7476L110.366 36.8665" fill="url(#paint6_linear_422_922)"/>
<path d="M119.153 30.6077C119.065 29.9057 118.539 29.2188 117.603 28.6857L110.228 24.4888L110.365 24.351H110.366L117.603 28.4698C118.635 29.0578 119.153 29.8326 119.153 30.6077Z" fill="url(#paint7_linear_422_922)"/>
<path d="M85 14.4429V14.2165C85 14.1349 85.0022 14.055 85.0064 13.9775V13.974C85.0064 13.9729 85.0064 13.9718 85.0068 13.9706V13.9619C85.0513 13.1719 85.2963 12.5557 85.6845 12.1442L85.7927 12.2529C85.2963 12.7015 85 13.4497 85 14.4429Z" fill="url(#paint8_linear_422_922)"/>
<path d="M110.228 24.4888L88.7584 12.2702C88.1632 11.9323 87.6 11.772 87.0985 11.772C86.5871 11.772 86.141 11.9387 85.7927 12.2529L85.6846 12.1441C85.7183 12.1083 85.7534 12.0738 85.7898 12.0406C85.7909 12.0394 85.7927 12.0382 85.7938 12.0371C86.1394 11.7252 86.5808 11.5585 87.0875 11.5555H87.0985C87.6 11.5555 88.1632 11.7159 88.7584 12.0539L110.366 24.3505L110.365 24.3509L110.228 24.4888Z" fill="url(#paint9_linear_422_922)"/>
<defs>
<linearGradient id="paint0_linear_422_922" x1="96.7114" y1="13.8802" x2="80.9185" y2="29.6985" gradientUnits="userSpaceOnUse">
<stop stop-color="#00A0FF"/>
<stop offset="0.00657" stop-color="#00A1FF"/>
<stop offset="0.2601" stop-color="#00BEFF"/>
<stop offset="0.5122" stop-color="#00D2FF"/>
<stop offset="0.7604" stop-color="#00DFFF"/>
<stop offset="1" stop-color="#00E3FF"/>
</linearGradient>
<linearGradient id="paint1_linear_422_922" x1="120.294" y1="30.5025" x2="84.504" y2="30.5025" gradientUnits="userSpaceOnUse">
<stop stop-color="#FFE000"/>
<stop offset="0.4087" stop-color="#FFBD00"/>
<stop offset="0.7754" stop-color="#FFA500"/>
<stop offset="1" stop-color="#FF9C00"/>
</linearGradient>
<linearGradient id="paint2_linear_422_922" x1="106.985" y1="36.4271" x2="80.2223" y2="63.0367" gradientUnits="userSpaceOnUse">
<stop stop-color="#FF3A44"/>
<stop offset="1" stop-color="#C31162"/>
</linearGradient>
<linearGradient id="paint3_linear_422_922" x1="81.0693" y1="9.53185" x2="92.9967" y2="21.4094" gradientUnits="userSpaceOnUse">
<stop stop-color="#32A071"/>
<stop offset="0.0685" stop-color="#2DA771"/>
<stop offset="0.4762" stop-color="#15CF74"/>
<stop offset="0.8009" stop-color="#06E775"/>
<stop offset="1" stop-color="#00F076"/>
</linearGradient>
<linearGradient id="paint4_linear_422_922" x1="106.971" y1="40.6727" x2="85.5387" y2="62.1399" gradientUnits="userSpaceOnUse">
<stop stop-color="#CC2E36"/>
<stop offset="1" stop-color="#9C0E4E"/>
</linearGradient>
<linearGradient id="paint5_linear_422_922" x1="87.4413" y1="13.8801" x2="73.528" y2="27.8161" gradientUnits="userSpaceOnUse">
<stop stop-color="#008DE0"/>
<stop offset="0.00657" stop-color="#008DE0"/>
<stop offset="0.2601" stop-color="#00A7E0"/>
<stop offset="0.5122" stop-color="#00B8E0"/>
<stop offset="0.7604" stop-color="#00C4E0"/>
<stop offset="1" stop-color="#00C7E0"/>
</linearGradient>
<linearGradient id="paint6_linear_422_922" x1="120.294" y1="30.6091" x2="84.5039" y2="30.6091" gradientUnits="userSpaceOnUse">
<stop stop-color="#E0C500"/>
<stop offset="0.4087" stop-color="#E0A600"/>
<stop offset="0.7754" stop-color="#E09100"/>
<stop offset="1" stop-color="#E08900"/>
</linearGradient>
<linearGradient id="paint7_linear_422_922" x1="120.294" y1="30.6091" x2="84.5041" y2="30.6091" gradientUnits="userSpaceOnUse">
<stop stop-color="#FFE840"/>
<stop offset="0.4087" stop-color="#FFCE40"/>
<stop offset="0.7754" stop-color="#FFBC40"/>
<stop offset="1" stop-color="#FFB540"/>
</linearGradient>
<linearGradient id="paint8_linear_422_922" x1="87.4262" y1="13.9054" x2="74.0252" y2="26.7465" gradientUnits="userSpaceOnUse">
<stop stop-color="#40B8FF"/>
<stop offset="0.00657" stop-color="#40B9FF"/>
<stop offset="0.2601" stop-color="#40CEFF"/>
<stop offset="0.5122" stop-color="#40DDFF"/>
<stop offset="0.7604" stop-color="#40E7FF"/>
<stop offset="1" stop-color="#40EAFF"/>
</linearGradient>
<linearGradient id="paint9_linear_422_922" x1="81.0428" y1="13.4135" x2="90.6134" y2="22.9996" gradientUnits="userSpaceOnUse">
<stop stop-color="#65B895"/>
<stop offset="0.0685" stop-color="#62BD95"/>
<stop offset="0.4762" stop-color="#50DB97"/>
<stop offset="0.8009" stop-color="#44ED98"/>
<stop offset="1" stop-color="#40F498"/>
</linearGradient>
</defs>
</svg>
