<svg width="83" height="96" viewBox="0 0 83 96" fill="none" xmlns="http://www.w3.org/2000/svg">
<path d="M78.1951 13.6054V76.7035H19.4903V3.93448H68.5243C69.4726 3.93448 70.2408 3.16517 70.2408 2.21797C70.2408 1.26983 69.4724 0.501465 68.5243 0.501465H17.7736C16.8253 0.501465 16.0571 1.27077 16.0571 2.21797V78.4184C16.0571 79.3696 16.827 80.1349 17.7736 80.1349H79.0932L79.0923 80.1367H79.9109C80.8577 80.1367 81.6274 79.3703 81.6274 78.4202V13.6054C81.6274 12.657 80.8581 11.8888 79.9109 11.8888C78.9631 11.8888 78.1951 12.6583 78.1951 13.6054Z" fill="white" stroke="white"/>
<path d="M68.5227 15.3192H79.4104V15.3192H79.9104C80.6034 15.3192 81.2297 14.9026 81.4953 14.2611L81.4956 14.2603C81.76 13.6185 81.6151 12.8821 81.1231 12.39L69.7354 1.00231C69.2465 0.513436 68.5077 0.364661 67.8665 0.630105L67.8665 0.630104L67.8654 0.630567C67.2236 0.898062 66.8062 1.52252 66.8062 2.21722V13.6027C66.8062 14.551 67.5755 15.3192 68.5227 15.3192ZM70.2391 6.35962L75.7663 11.8868H70.2391V6.35962Z" fill="white" stroke="white"/>
<path d="M27.4899 24.5781H70.1937C71.142 24.5781 71.9102 23.8088 71.9102 22.8616C71.9102 21.9135 71.1418 21.1451 70.1937 21.1451H27.4899C26.5398 21.1451 25.7734 21.9148 25.7734 22.8616C25.7734 23.8093 26.54 24.5781 27.4899 24.5781Z" fill="white" stroke="white"/>
<path d="M27.4899 33.8379H70.1937C71.142 33.8379 71.9102 33.0686 71.9102 32.1214C71.9102 31.1732 71.1418 30.4048 70.1937 30.4048H27.4899C26.5398 30.4048 25.7734 31.1745 25.7734 32.1214C25.7734 33.0691 26.54 33.8379 27.4899 33.8379Z" fill="white" stroke="white"/>
<path d="M27.4899 43.0976H70.1937C71.142 43.0976 71.9102 42.3283 71.9102 41.3811C71.9102 40.4329 71.1418 39.6646 70.1937 39.6646H27.4899C26.5398 39.6646 25.7734 40.4342 25.7734 41.3811C25.7734 42.3288 26.54 43.0976 27.4899 43.0976Z" fill="white" stroke="white"/>
<path d="M27.4899 52.3575H70.1937C71.142 52.3575 71.9102 51.5882 71.9102 50.6409C71.9102 49.6928 71.1418 48.9244 70.1937 48.9244H27.4899C26.5398 48.9244 25.7734 49.6941 25.7734 50.6409C25.7734 51.5887 26.54 52.3575 27.4899 52.3575Z" fill="white" stroke="white"/>
<path d="M27.4899 61.6153H70.1937C71.142 61.6153 71.9102 60.846 71.9102 59.8988C71.9102 58.9507 71.1418 58.1823 70.1937 58.1823H27.4899C26.5398 58.1823 25.7734 58.952 25.7734 59.8988C25.7734 60.8466 26.5399 61.6153 27.4899 61.6153Z" fill="white" stroke="white"/>
<path d="M27.4899 70.8751H70.1937C71.142 70.8751 71.9102 70.1058 71.9102 69.1586C71.9102 68.2104 71.1418 67.4421 70.1937 67.4421H27.4899C26.5398 67.4421 25.7734 68.2118 25.7734 69.1586C25.7734 70.1063 26.5399 70.8751 27.4899 70.8751Z" fill="white" stroke="white"/>
<path d="M17.7718 65.2653H17.9719L17.9876 65.2503C18.1155 65.2339 18.2429 65.203 18.3668 65.1578L18.3703 65.1565C19.2577 64.825 19.7092 63.8398 19.3823 62.9506L19.3819 62.9493L4.42196 22.5969L18.3683 17.4266C19.2576 17.0975 19.7086 16.1086 19.3815 15.2218L19.381 15.2204C19.0507 14.3334 18.0656 13.8796 17.1773 14.2073L17.1765 14.2076L1.62159 19.9743C1.62138 19.9744 1.62116 19.9745 1.62095 19.9746C1.19067 20.1331 0.8462 20.4559 0.655935 20.8674L0.655923 20.8674L0.654442 20.8707C0.466812 21.2843 0.449248 21.7536 0.606656 22.1813L0.607066 22.1824L16.163 64.1445C16.419 64.8365 17.0745 65.2653 17.7718 65.2653Z" fill="white" stroke="white"/>
<path d="M28.7046 94.7537H28.9992L29.0154 94.7244C29.1111 94.7066 29.2057 94.6807 29.2987 94.6467L29.3011 94.6459L68.7293 80.0274C68.7295 80.0274 68.7296 80.0273 68.7297 80.0273C69.6208 79.6985 70.0731 78.7096 69.7429 77.8217C69.4144 76.9322 68.4254 76.4817 67.5389 76.8087L67.5382 76.809L29.7172 90.8295L24.8953 77.8225L24.8951 77.8218C24.5646 76.9342 23.5783 76.4821 22.6907 76.8095L22.6907 76.8095L22.6898 76.8099C21.7995 77.1402 21.3469 78.1263 21.6772 79.0167C21.6772 79.0168 21.6772 79.0168 21.6773 79.0169L27.0952 93.6332L27.0953 93.6335C27.3521 94.3249 28.0072 94.7537 28.7046 94.7537Z" fill="white" stroke="white"/>
</svg>
