<svg width="60" height="59" viewBox="0 0 60 59" fill="none" xmlns="http://www.w3.org/2000/svg">
<path d="M53.2048 1.00314L3.12513 51.0828C2.44727 51.7607 1.76937 52.4318 1.0983 53.1096L1.01018 53.1978C0.400106 53.8146 0.0205078 54.7297 0.0205078 55.5973C0.0205078 56.4311 0.386545 57.4207 1.01018 57.9969C1.65414 58.5866 2.50142 59.0272 3.40973 58.9865C4.31127 58.9459 5.15855 58.6408 5.80929 57.9969L55.8889 7.9172C56.5668 7.23934 57.2447 6.56825 57.9158 5.89037L58.0039 5.80225C58.6208 5.18539 58.9936 4.27704 58.9936 3.40269C58.9936 2.56893 58.6275 1.57926 58.0039 1.00314C57.36 0.413406 56.5127 -0.0272009 55.6044 0.0134672C54.7028 0.0541378 53.8555 0.359177 53.2048 1.00314Z" fill="white"/>
<path d="M11.9429 21.0814H10.2144C9.57046 21.0814 8.91294 21.1153 8.26902 21.0339C8.56727 21.0746 8.87231 21.1153 9.17056 21.1559C8.68251 21.0882 8.21479 20.9594 7.76063 20.7696C8.03177 20.8848 8.30291 21 8.56727 21.1085C8.12666 20.9187 7.71318 20.6814 7.33358 20.39C7.56405 20.5662 7.78775 20.7425 8.01821 20.9187C7.61827 20.6069 7.25901 20.2544 6.95398 19.8545C7.13023 20.0849 7.30647 20.3086 7.4827 20.5391C7.19122 20.1527 6.95398 19.746 6.76418 19.3054C6.87941 19.5765 6.99465 19.8477 7.10311 20.112C6.92008 19.6579 6.7913 19.1902 6.71673 18.7021C6.7574 19.0004 6.79807 19.3054 6.83874 19.6037C6.77096 19.0885 6.79129 18.5733 6.79129 18.0581V15.6246V10.0255C6.79129 9.43578 6.76418 8.83927 6.83874 8.25637C6.79807 8.55462 6.7574 8.85966 6.71673 9.15791C6.78452 8.66985 6.9133 8.20214 7.10311 7.74797C6.98787 8.01911 6.87263 8.29026 6.76418 8.55462C6.95397 8.11401 7.19122 7.70052 7.4827 7.32093C7.30646 7.5514 7.13022 7.77509 6.95398 8.00555C7.26579 7.60562 7.61828 7.24636 8.01821 6.94133C7.78774 7.11757 7.56404 7.29382 7.33358 7.47005C7.71996 7.17857 8.12666 6.94133 8.56727 6.75152C8.29613 6.86676 8.02499 6.982 7.76063 7.09045C8.21479 6.90743 8.68251 6.77864 9.17056 6.70407C8.87231 6.74475 8.56727 6.78542 8.26902 6.82609C9.0011 6.73119 9.74676 6.77864 10.4788 6.77864C11.2109 6.77864 11.9634 6.73797 12.6886 6.82609C12.3903 6.78542 12.0853 6.74475 11.7871 6.70407C12.2751 6.77186 12.7428 6.90065 13.197 7.09045C12.9258 6.97522 12.6547 6.85998 12.3903 6.75152C12.831 6.94132 13.2444 7.17857 13.624 7.47005C13.3936 7.29381 13.1699 7.11756 12.9394 6.94133C13.3393 7.25314 13.6986 7.60563 14.0036 8.00555C13.8274 7.77508 13.6511 7.55139 13.4749 7.32093C13.7664 7.7073 14.0036 8.11401 14.1934 8.55462C14.0782 8.28348 13.963 8.01233 13.8545 7.74797C14.0375 8.20214 14.1663 8.66985 14.2409 9.15791C14.2002 8.85966 14.1595 8.55462 14.1189 8.25637C14.1867 8.77153 14.1663 9.28671 14.1663 9.8019V12.2354V17.8345C14.1663 18.4242 14.1934 19.0207 14.1189 19.6037C14.1595 19.3054 14.2002 19.0004 14.2409 18.7021C14.1731 19.1902 14.0443 19.6579 13.8545 20.112C13.9697 19.8409 14.085 19.5698 14.1934 19.3054C14.0036 19.746 13.7664 20.1595 13.4749 20.5391C13.6512 20.3086 13.8274 20.0849 14.0036 19.8545C13.6918 20.2544 13.3393 20.6069 12.9394 20.9187C13.1699 20.7424 13.3936 20.5662 13.624 20.39C13.2377 20.6814 12.831 20.9187 12.3903 21.1085C12.6615 20.9933 12.9326 20.878 13.197 20.7696C12.7428 20.9526 12.2751 21.0814 11.7871 21.1559C12.0853 21.1153 12.3903 21.0746 12.6886 21.0339C12.4446 21.061 12.1938 21.0814 11.943 21.0814C11.0685 21.0882 10.167 21.4542 9.54341 22.071C8.95367 22.6608 8.51307 23.6233 8.55374 24.4706C8.59441 25.345 8.87911 26.2534 9.54341 26.8702C10.2009 27.4735 11.0211 27.8734 11.943 27.8598C14.2477 27.8395 16.3694 26.9583 18.0775 25.4331C18.7893 24.7959 19.4196 23.9825 19.8603 23.1352C20.4771 21.9422 20.7618 20.8441 20.911 19.5155C20.9652 18.9935 20.9516 18.4648 20.9516 17.9428V15.3399V9.65263C20.9516 8.75109 20.8974 7.88349 20.7212 6.98869C20.5314 6.0397 20.1247 5.08395 19.5959 4.26377C18.891 3.17242 18.0844 2.37935 17.054 1.61334C15.5899 0.521992 13.6918 0.00681727 11.8819 0H9.25178C7.54362 0 5.82182 0.399938 4.36441 1.3083C2.45967 2.49454 1.06324 4.31124 0.398995 6.45323C-0.129728 8.14788 0.0193967 10.0323 0.0193967 11.7676V17.7327C0.0193967 18.1598 0.0126182 18.58 0.0193967 19.007C0.0736249 21.2778 0.961618 23.3996 2.50708 25.0603C3.15782 25.7653 3.96449 26.3889 4.82532 26.8159C6.03869 27.4192 7.11642 27.6971 8.45186 27.8327C9.3263 27.9208 10.2278 27.8598 11.1023 27.8598H11.9428C12.8105 27.8598 13.7256 27.4802 14.3424 26.8701C14.9321 26.2804 15.3727 25.3179 15.332 24.4706C15.2914 23.5962 15.0067 22.6878 14.3424 22.071C13.6781 21.4677 12.8578 21.0814 11.9428 21.0814L11.9429 21.0814Z" fill="white"/>
<path d="M49.9918 52.2078H48.2633C47.6194 52.2078 46.9618 52.2417 46.3179 52.1604C46.6162 52.2011 46.9212 52.2417 47.2195 52.2824C46.7314 52.2146 46.2637 52.0858 45.8095 51.896C46.0807 52.0113 46.3518 52.1265 46.6162 52.235C46.1756 52.0452 45.7621 51.8079 45.3825 51.5164C45.613 51.6927 45.8367 51.8689 46.0671 52.0452C45.6672 51.7333 45.3079 51.3809 45.0029 50.9809C45.1791 51.2114 45.3554 51.4351 45.5316 51.6656C45.2401 51.2792 45.0029 50.8725 44.8131 50.4319C44.9283 50.703 45.0436 50.9741 45.152 51.2385C44.969 50.7843 44.8402 50.3166 44.7656 49.8286C44.8063 50.1268 44.847 50.4319 44.8876 50.7301C44.8199 50.215 44.8402 49.6998 44.8402 49.1846V46.7511V41.152C44.8402 40.5622 44.8131 39.9657 44.8876 39.3828C44.847 39.6811 44.8063 39.9861 44.7656 40.2844C44.8334 39.7963 44.9622 39.3286 45.152 38.8744C45.0368 39.1456 44.9215 39.4167 44.8131 39.6811C45.0029 39.2405 45.2401 38.827 45.5316 38.4474C45.3554 38.6779 45.1791 38.9016 45.0029 39.132C45.3147 38.7321 45.6672 38.3728 46.0671 38.0678C45.8366 38.244 45.6129 38.4203 45.3825 38.5965C45.7689 38.305 46.1756 38.0678 46.6162 37.878C46.345 37.9932 46.0739 38.1085 45.8095 38.2169C46.2637 38.0339 46.7314 37.9051 47.2195 37.8305C46.9212 37.8712 46.6162 37.9119 46.3179 37.9526C47.05 37.8577 47.7957 37.9051 48.5277 37.9051C49.2598 37.9051 50.0123 37.8644 50.7375 37.9526C50.4393 37.9119 50.1342 37.8712 49.836 37.8305C50.324 37.8983 50.7917 38.0271 51.2459 38.2169C50.9748 38.1017 50.7036 37.9864 50.4393 37.878C50.8799 38.0678 51.2933 38.305 51.6729 38.5965C51.4425 38.4203 51.2188 38.244 50.9883 38.0678C51.3883 38.3796 51.7407 38.7321 52.0525 39.132C51.8763 38.9015 51.7001 38.6779 51.5238 38.4474C51.8153 38.8338 52.0525 39.2405 52.2423 39.6811C52.1271 39.4099 52.0119 39.1388 51.9034 38.8744C52.0864 39.3286 52.2152 39.7963 52.2898 40.2844C52.2491 39.9861 52.2085 39.6811 52.1678 39.3828C52.2356 39.898 52.2152 40.4132 52.2152 40.9284V43.3619V48.961C52.2152 49.5507 52.2423 50.1472 52.1678 50.7301C52.2085 50.4319 52.2491 50.1268 52.2898 49.8286C52.222 50.3166 52.0932 50.7843 51.9034 51.2385C52.0187 50.9674 52.1339 50.6962 52.2423 50.4319C52.0526 50.8725 51.8153 51.286 51.5238 51.6656C51.7001 51.4351 51.8763 51.2114 52.0525 50.9809C51.7407 51.3809 51.3882 51.7333 50.9883 52.0452C51.2188 51.8689 51.4425 51.6927 51.6729 51.5164C51.2866 51.8079 50.8799 52.0452 50.4393 52.235C50.7104 52.1197 50.9815 52.0045 51.2459 51.896C50.7917 52.0791 50.324 52.2078 49.836 52.2824C50.1342 52.2417 50.4393 52.2011 50.7375 52.1604C50.4935 52.1875 50.2494 52.2078 49.9919 52.2078C49.1174 52.2146 48.2159 52.5807 47.5923 53.1975C47.0026 53.7872 46.562 54.7497 46.6026 55.5971C46.6433 56.4715 46.928 57.3798 47.5923 57.9966C48.2498 58.5999 49.07 58.9998 49.9919 58.9863C52.2966 58.966 54.4183 58.0848 56.1264 56.5596C56.8382 55.9224 57.4685 55.109 57.9092 54.2617C58.526 53.0687 58.8107 51.9706 58.9599 50.642C59.0141 50.12 59.0005 49.5913 59.0005 49.0693V46.4663V40.7791C59.0005 39.8776 58.9463 39.01 58.7701 38.1152C58.5803 37.1662 58.1736 36.2104 57.6448 35.3902C56.9399 34.2989 56.1333 33.5058 55.1029 32.7398C53.6388 31.6485 51.7407 31.1333 49.9308 31.1265H47.3007C45.5925 31.1265 43.8707 31.5264 42.4133 32.4348C40.5086 33.621 39.1122 35.4377 38.4479 37.5797C37.926 39.2607 38.0819 41.1453 38.0819 42.8872V48.8524C38.0819 49.2794 38.0751 49.6997 38.0819 50.1267C38.1361 52.3975 39.0241 54.5192 40.5695 56.1799C41.2203 56.8849 42.027 57.5086 42.8878 57.9356C44.1012 58.5389 45.1789 58.8168 46.5143 58.9523C47.3888 59.0405 48.2903 58.9795 49.1648 58.9795H50.0053C50.8729 58.9795 51.7881 58.5999 52.4048 57.9898C52.9946 57.4001 53.4352 56.4376 53.3945 55.5902C53.3538 54.7158 53.0691 53.8075 52.4048 53.1907C51.727 52.5942 50.9136 52.2078 49.9917 52.2078L49.9918 52.2078Z" fill="white"/>
</svg>
