<svg width="80" height="80" viewBox="0 0 80 80" fill="none" xmlns="http://www.w3.org/2000/svg">
<path d="M68.331 68.331C75.8054 60.7962 80 50.6132 80 40C80 29.3867 75.8054 19.2037 68.331 11.669C60.7962 4.19456 50.6132 0 40 0C29.3867 0 19.2037 4.19456 11.669 11.669C4.19457 19.2038 0 29.3867 0 40C0 50.6132 4.19457 60.7963 11.669 68.331C19.2038 75.8054 29.3867 80 40 80C50.6132 80 60.7963 75.8054 68.331 68.331C68.3021 68.3599 68.331 68.331 68.331 68.331ZM64.5098 60.6308L64.5092 60.6302C63.9884 60.0222 63.238 59.6591 62.4376 59.6284C61.6378 59.5976 60.8611 59.9016 60.2954 60.4679C59.7291 61.0336 59.4251 61.8103 59.4558 62.6101C59.4866 63.4105 59.8496 64.1609 60.4577 64.6817L62.0669 66.2909C56.6318 70.987 49.8559 73.852 42.7006 74.4799V72.1523C42.7006 71.1261 42.1529 70.1776 41.264 69.6638C40.375 69.1507 39.2796 69.1507 38.3906 69.6638C37.5017 70.1776 36.954 71.1261 36.954 72.1523V74.4799C29.815 73.893 23.0415 71.0787 17.5877 66.4345L19.1969 64.8253C19.805 64.3046 20.168 63.5542 20.1988 62.7538C20.2296 61.954 19.9255 61.1773 19.3592 60.6116C18.7935 60.0452 18.0168 59.7412 17.217 59.772C16.4166 59.8028 15.6662 60.1658 15.1454 60.7738L13.5362 62.383C8.86454 56.891 6.04835 50.0624 5.49093 42.874H7.81849C8.84468 42.874 9.7932 42.3262 10.307 41.4373C10.82 40.5484 10.82 39.4529 10.307 38.564C9.79322 37.675 8.84464 37.1273 7.81849 37.1273H5.49093C6.07778 29.9883 8.89213 23.2148 13.5362 17.7611L15.1454 19.3703C15.6835 19.9052 16.4121 20.2053 17.1709 20.2053C17.9303 20.2053 18.6582 19.9052 19.197 19.3703C19.7319 18.8315 20.032 18.1036 20.032 17.3442C20.032 16.5854 19.7319 15.8568 19.197 15.3187L17.5878 13.7095C23.0414 9.06541 29.8149 6.25103 36.954 5.66421V7.99177C36.954 9.01796 37.5018 9.96649 38.3907 10.4802C39.2796 10.9933 40.3751 10.9933 41.264 10.4802C42.153 9.9665 42.7007 9.01793 42.7007 7.99177V5.66421C49.8397 6.25106 56.6132 9.06541 62.0669 13.7095L60.4577 15.3187C59.9228 15.8568 59.6227 16.5854 59.6227 17.3442C59.6227 18.1036 59.9228 18.8315 60.4577 19.3703C60.9965 19.9052 61.7244 20.2053 62.4838 20.2053C63.2426 20.2053 63.9712 19.9052 64.5093 19.3703L66.1185 17.7611C70.8146 23.1961 73.6796 29.9721 74.3074 37.1273H71.9799C70.9537 37.1273 70.0052 37.675 69.4914 38.564C68.9783 39.4529 68.9783 40.5484 69.4914 41.4373C70.0051 42.3262 70.9537 42.874 71.9799 42.874H74.3074C73.7206 50.013 70.9062 56.7864 66.2621 62.2402L64.5098 60.6308Z" fill="white"/>
<path d="M42.7011 38.8211V21.3234C42.7011 20.2965 42.1533 19.348 41.2644 18.8349C40.3754 18.3218 39.28 18.3218 38.3911 18.8349C37.5021 19.348 36.9544 20.2966 36.9544 21.3234V40C36.9499 40.7639 37.2501 41.4976 37.7875 42.0402L45.8039 50.0277C46.3427 50.5633 47.0706 50.8634 47.8301 50.8634C48.5888 50.8634 49.3174 50.5633 49.8555 50.0277C50.391 49.4896 50.6912 48.761 50.6912 48.0023C50.6912 47.2429 50.391 46.515 49.8555 45.9762L42.7011 38.8211Z" fill="white"/>
</svg>
