<svg width="119" height="33" viewBox="0 0 119 33" fill="none" xmlns="http://www.w3.org/2000/svg">
<rect width="89" height="33" rx="16.5" fill="#ED6817"/>
<path d="M17.5849 23V18.584H21.4409V15.864H17.5849V14.76H22.9449V11.8H14.1449V23H17.5849ZM27.7426 23V11.8H24.3026V23H27.7426ZM32.7846 23V17.56L37.1366 23H39.9686V11.8H36.7046V17.208L32.4166 11.8H29.4886V23H32.7846ZM45.1005 23V18.584H48.5245V23H51.9645V11.8H48.5245V15.592H45.1005V11.8H41.6605V23H45.1005ZM53.5325 18.36C53.5325 19.912 54.0125 21.112 54.9885 21.96C55.9645 22.808 57.1805 23.224 58.6525 23.224C60.1245 23.224 61.3405 22.808 62.3005 21.96C63.2765 21.112 63.7565 19.912 63.7565 18.36V11.8H60.3165V18.376C60.3165 19.576 59.5965 20.104 58.6525 20.104C57.7085 20.104 56.9725 19.576 56.9725 18.376V11.8H53.5325V18.36ZM71.2368 23C72.4688 23 73.4608 22.696 74.2128 22.104C74.9648 21.512 75.3488 20.728 75.3488 19.752C75.3488 18.952 75.1088 18.28 74.6448 17.752C74.1808 17.208 73.7008 16.888 73.2208 16.792C73.5248 16.648 73.8128 16.392 74.1168 16.024C74.4208 15.656 74.5648 15.192 74.5648 14.664C74.5648 13.72 74.2288 13.016 73.5568 12.536C72.8848 12.04 72.0368 11.8 70.9968 11.8H65.3168V23H71.2368ZM68.7568 18.376H70.5648C71.1568 18.376 71.5888 18.76 71.5888 19.32C71.5888 19.88 71.1888 20.232 70.5648 20.232H68.7568V18.376ZM68.7568 14.472H70.5008C70.9648 14.472 71.3168 14.792 71.3168 15.256C71.3168 15.656 70.9648 15.976 70.5008 15.976H68.7568V14.472Z" fill="white"/>
<path d="M95.1263 18.36C95.1263 19.912 95.6063 21.112 96.5823 21.96C97.5583 22.808 98.7743 23.224 100.246 23.224C101.718 23.224 102.934 22.808 103.894 21.96C104.87 21.112 105.35 19.912 105.35 18.36V11.8H101.91V18.376C101.91 19.576 101.19 20.104 100.246 20.104C99.3023 20.104 98.5663 19.576 98.5663 18.376V11.8H95.1263V18.36ZM109.631 23L110.447 20.904H114.095L114.895 23H118.591L113.967 11.736H110.687L106.079 23H109.631ZM112.271 15.672L113.087 18.328H111.439L112.271 15.672Z" fill="white"/>
</svg>
