<svg width="78" height="78" viewBox="0 0 78 78" fill="none" xmlns="http://www.w3.org/2000/svg">
<path fill-rule="evenodd" clip-rule="evenodd" d="M64.4304 0H60.3692L78 17.6308V13.5693L64.4304 0ZM78 3.76418L74.2359 0H78V3.76418ZM78 27.4359L50.5638 0H46.5026L78 31.4974V27.4359ZM78 41.3026L36.6971 0H32.6359L78 45.3641V41.3026ZM78 55.1692L22.8304 0H18.7691L78 59.2308V55.1692ZM78 69.0359L8.9639 0H4.90242L78 73.0974V69.0359ZM73.0971 78L0 4.90266V8.96418L69.0359 78H73.0971ZM59.2304 78L0 18.7693V22.8308L55.1692 78H59.2304ZM45.3638 78L0 32.6359V36.6974L41.3026 78H45.3638ZM31.4971 78L0 46.5026V50.5641L27.4359 78H31.4971ZM17.6306 78L0 60.3692V64.4308L13.5691 78H17.6306ZM3.7639 78L0 74.2359V78H3.7639Z" fill="#083263"/>
</svg>
