<svg width="157" height="44" viewBox="0 0 157 44" fill="none" xmlns="http://www.w3.org/2000/svg">
<rect width="117.826" height="43.6882" rx="21.8441" fill="#ED6817"/>
<path d="M23.2802 30.4494V24.6032H28.3851V21.0022H23.2802V19.5406H30.3763V15.6219H18.7261V30.4494H23.2802Z" fill="white"/>
<path d="M36.7279 30.4494V15.6219H32.1738V30.4494H36.7279Z" fill="white"/>
<path d="M43.4029 30.4494V23.2475L49.1645 30.4494H52.9137V15.6219H48.5926V22.7815L42.9157 15.6219H39.0394V30.4494H43.4029Z" fill="white"/>
<path d="M59.7077 30.4494V24.6032H64.2407V30.4494H68.7949V15.6219H64.2407V20.6421H59.7077V15.6219H55.1536V30.4494H59.7077Z" fill="white"/>
<path d="M70.8707 24.3066C70.8707 26.3613 71.5062 27.95 72.7983 29.0726C74.0904 30.1953 75.7002 30.746 77.649 30.746C79.5977 30.746 81.2076 30.1953 82.4785 29.0726C83.7706 27.95 84.4061 26.3613 84.4061 24.3066V15.6219H79.8519V24.3278C79.8519 25.9165 78.8987 26.6155 77.649 26.6155C76.3992 26.6155 75.4249 25.9165 75.4249 24.3278V15.6219H70.8707V24.3066Z" fill="white"/>
<path d="M94.3091 30.4494C95.9401 30.4494 97.2534 30.047 98.2489 29.2632C99.2445 28.4795 99.7529 27.4416 99.7529 26.1495C99.7529 25.0904 99.4352 24.2007 98.8209 23.5017C98.2066 22.7815 97.5711 22.3579 96.9357 22.2308C97.3381 22.0401 97.7194 21.7012 98.1219 21.214C98.5243 20.7268 98.715 20.1126 98.715 19.4136C98.715 18.1638 98.2701 17.2318 97.3805 16.5963C96.4908 15.9397 95.3682 15.6219 93.9913 15.6219H86.4717V30.4494H94.3091ZM91.0258 24.3278H93.4194C94.2032 24.3278 94.7751 24.8362 94.7751 25.5776C94.7751 26.3189 94.2455 26.7849 93.4194 26.7849H91.0258V24.3278ZM91.0258 19.1594H93.3347C93.949 19.1594 94.415 19.583 94.415 20.1973C94.415 20.7268 93.949 21.1505 93.3347 21.1505H91.0258V19.1594Z" fill="white"/>
<path d="M125.936 24.3066C125.936 26.3613 126.571 27.95 127.864 29.0726C129.156 30.1953 130.766 30.746 132.714 30.746C134.663 30.746 136.273 30.1953 137.544 29.0726C138.836 27.95 139.471 26.3613 139.471 24.3066V15.622H134.917V24.3278C134.917 25.9165 133.964 26.6155 132.714 26.6155C131.465 26.6155 130.49 25.9165 130.49 24.3278V15.622H125.936V24.3066Z" fill="#083263"/>
<path d="M145.138 30.4495L146.218 27.6746H151.048L152.107 30.4495H157L150.878 15.5372H146.536L140.436 30.4495H145.138ZM148.633 20.748L149.713 24.2643H147.532L148.633 20.748Z" fill="#083263"/>
</svg>
