<svg width="57" height="57" viewBox="0 0 57 57" fill="none" xmlns="http://www.w3.org/2000/svg">
<path d="M28.1155 56.231C43.6432 56.231 56.231 43.6432 56.231 28.1155C56.231 12.5877 43.6432 0 28.1155 0C12.5877 0 0 12.5877 0 28.1155C0 43.6432 12.5877 56.231 28.1155 56.231Z" fill="url(#paint0_linear_422_526)"/>
<path d="M13.3547 22.3977C13.3547 22.3977 16.7626 18.8233 20.4601 22.3977" stroke="#444444" stroke-width="4.3688" stroke-miterlimit="10" stroke-linecap="round" stroke-linejoin="round"/>
<path d="M35.7715 22.3977C35.7715 22.3977 39.1794 18.8233 42.8769 22.3977" stroke="#444444" stroke-width="4.3688" stroke-miterlimit="10" stroke-linecap="round" stroke-linejoin="round"/>
<path d="M28.1154 42.1402C34.6157 42.1402 39.9926 37.3283 40.8777 31.0727C41.0135 30.112 40.2679 29.2506 39.2977 29.2506H16.9332C15.963 29.2506 15.2174 30.112 15.3532 31.0727C16.2388 37.3288 21.6151 42.1402 28.1154 42.1402Z" fill="#444444"/>
<defs>
<linearGradient id="paint0_linear_422_526" x1="52.4682" y1="14.0554" x2="3.76301" y2="42.1754" gradientUnits="userSpaceOnUse">
<stop stop-color="#F0C766"/>
<stop offset="0.3609" stop-color="#F0C766"/>
<stop offset="0.9544" stop-color="#EAAF65"/>
<stop offset="1" stop-color="#EAAD65"/>
</linearGradient>
</defs>
</svg>
