<svg width="155" height="31" viewBox="0 0 155 31" fill="none" xmlns="http://www.w3.org/2000/svg">
<path d="M15.5 0L18.98 10.7102H30.2414L21.1307 17.3295L24.6107 28.0398L15.5 21.4205L6.38933 28.0398L9.8693 17.3295L0.758624 10.7102H12.02L15.5 0Z" fill="#ED6817"/>
<path d="M46.5 0L49.98 10.7102H61.2414L52.1307 17.3295L55.6107 28.0398L46.5 21.4205L37.3893 28.0398L40.8693 17.3295L31.7586 10.7102H43.02L46.5 0Z" fill="#ED6817"/>
<path d="M77.5 0L80.98 10.7102H92.2414L83.1307 17.3295L86.6107 28.0398L77.5 21.4205L68.3893 28.0398L71.8693 17.3295L62.7586 10.7102H74.02L77.5 0Z" fill="#ED6817"/>
<path d="M108.5 0L111.98 10.7102H123.241L114.131 17.3295L117.611 28.0398L108.5 21.4205L99.3893 28.0398L102.869 17.3295L93.7586 10.7102H105.02L108.5 0Z" fill="#ED6817"/>
<path d="M139.5 0L142.98 10.7102H154.241L145.131 17.3295L148.611 28.0398L139.5 21.4205L130.389 28.0398L133.869 17.3295L124.759 10.7102H136.02L139.5 0Z" fill="#ED6817"/>
</svg>
