<svg width="40" height="40" viewBox="0 0 40 40" fill="none" xmlns="http://www.w3.org/2000/svg">
<path d="M30.0001 13.3334H28.3334V10C28.3334 5.40002 24.6001 1.66669 20.0001 1.66669C15.4001 1.66669 11.6667 5.40002 11.6667 10V13.3334H10.0001C8.16675 13.3334 6.66675 14.8334 6.66675 16.6667V33.3334C6.66675 35.1667 8.16675 36.6667 10.0001 36.6667H30.0001C31.8334 36.6667 33.3334 35.1667 33.3334 33.3334V16.6667C33.3334 14.8334 31.8334 13.3334 30.0001 13.3334ZM20.0001 28.3334C18.1667 28.3334 16.6667 26.8334 16.6667 25C16.6667 23.1667 18.1667 21.6667 20.0001 21.6667C21.8334 21.6667 23.3334 23.1667 23.3334 25C23.3334 26.8334 21.8334 28.3334 20.0001 28.3334ZM25.1667 13.3334H14.8334V10C14.8334 7.15002 17.1501 4.83335 20.0001 4.83335C22.8501 4.83335 25.1667 7.15002 25.1667 10V13.3334Z" fill="#ADADAE"/>
</svg>
