<svg width="79" height="61" viewBox="0 0 79 61" fill="none" xmlns="http://www.w3.org/2000/svg">
<path d="M66.1841 0H12.5856C9.24455 0.00483524 6.04233 1.33583 3.68227 3.70072C1.32221 6.06562 -0.00213531 9.27088 2.73099e-06 12.612V47.6207C-0.00219506 50.9618 1.32221 54.1667 3.68227 56.5319C6.04233 58.8968 9.24455 60.2278 12.5856 60.2327H66.1841C69.5251 60.2278 72.7274 58.8968 75.0874 56.5319C77.4475 54.1666 78.7718 50.9618 78.7697 47.6207V12.612C78.7719 9.27088 77.4475 6.06551 75.0874 3.70072C72.7274 1.33594 69.5251 0.00483872 66.1841 0ZM12.5856 3.94727H66.1841C68.4791 3.94991 70.6786 4.8642 72.2989 6.48929C73.9191 8.11432 74.8273 10.3171 74.8224 12.612V12.9095H3.9295V12.612C3.9251 10.3144 4.835 8.10903 6.45914 6.4831C8.08337 4.85763 10.2874 3.94502 12.5853 3.94727H12.5856ZM66.1841 56.2854H12.5856C10.2906 56.2828 8.09114 55.3685 6.47084 53.7434C4.85065 52.1179 3.94244 49.9156 3.94728 47.6207V24.8652H74.8402V47.6207C74.8446 49.9183 73.9347 52.1236 72.3106 53.7496C70.6863 55.375 68.4824 56.2876 66.1844 56.2854H66.1841ZM40.2598 34.6057H11.2724C10.6469 34.6057 10.0689 34.272 9.75633 33.7305C9.44337 33.1889 9.44337 32.5217 9.75633 31.9801C10.0689 31.4381 10.6469 31.1045 11.2724 31.1045H40.2598C40.8853 31.1045 41.4628 31.4381 41.7759 31.9801C42.0884 32.5217 42.0884 33.1889 41.7759 33.7305C41.4629 34.272 40.8853 34.6057 40.2598 34.6057ZM25.7661 42.4826H11.2724C10.6469 42.4826 10.0689 42.149 9.75633 41.6075C9.44337 41.0659 9.44337 40.3987 9.75633 39.8571C10.0689 39.3151 10.6469 38.9815 11.2724 38.9815H25.7661C26.3916 38.9815 26.9696 39.3151 27.2822 39.8571C27.5947 40.3986 27.5947 41.0659 27.2822 41.6075C26.9697 42.149 26.3916 42.4826 25.7661 42.4826Z" fill="white"/>
</svg>
