<svg width="86" height="89" viewBox="0 0 86 89" fill="none" xmlns="http://www.w3.org/2000/svg">
<path d="M67.9624 50.8175H75.761V55.1855H67.9624V50.8175Z" fill="white"/>
<path d="M46.1211 71.6026H50.4891V79.4012H46.1211V71.6026Z" fill="white"/>
<path d="M59.9121 38.3042L65.4263 32.79L68.5152 35.8789L63.001 41.3931L59.9121 38.3042Z" fill="white"/>
<path d="M63.001 64.6098L68.5152 70.124L65.4263 73.2129L59.9121 67.6987L63.001 64.6098Z" fill="white"/>
<path d="M35.8462 64.7957L46.2042 54.4335L46.2036 33.4908H52.8269V57.054C52.3662 57.5147 40.5325 69.4813 40.5325 69.4813L35.8462 64.7957Z" fill="white"/>
<path d="M49.9671 17.5898V23.8418C66.124 23.8418 79.2708 36.9879 79.2708 53.147C79.2708 69.3054 66.1248 82.4522 49.9671 82.4522C35.1405 82.4522 22.857 71.3772 20.9356 57.0658L25.3954 61.4646L29.8168 57.0432L17.6008 44.8272L5.35303 57.0442L9.77446 61.4657L14.591 56.6491C16.3565 74.6159 31.548 88.7041 49.9699 88.7041C69.5742 88.7041 85.5258 72.7524 85.5258 53.1467C85.5241 33.5396 69.5742 17.5879 49.9685 17.5879L49.9671 17.5898Z" fill="white"/>
<circle cx="19.882" cy="19.882" r="19.882" fill="white"/>
<path d="M15.5669 29.2189V10.3189H12.1919L7.76394 12.6949V16.5019L11.7599 14.4769V29.2189H15.5669ZM24.3864 29.5969C26.6274 29.5969 28.4904 29.0029 30.0024 27.8419C31.5414 26.6539 32.2974 25.0339 32.2974 22.9549C32.2974 21.0919 31.6224 19.5799 30.2724 18.4189C28.9494 17.2579 27.2484 16.6909 25.1694 16.6909C24.5484 16.6909 23.9544 16.7449 23.3604 16.8799L23.7654 13.6669H31.0014V10.3189H20.9034L19.6614 20.6329C21.2004 20.0929 22.7124 19.8229 24.1974 19.8229C26.7894 19.8229 28.4094 21.0919 28.4094 22.9549C28.4094 24.9799 26.6004 26.1139 24.2244 26.1139C22.3344 26.1139 20.6064 25.6009 19.0134 24.6019V28.2469C20.6064 29.1379 22.3884 29.5969 24.3864 29.5969Z" fill="#E18B51"/>
</svg>
