<svg width="88" height="113" viewBox="0 0 88 113" fill="none" xmlns="http://www.w3.org/2000/svg">
<path d="M29.2481 38.755L22.9902 45.0129L21.0502 43.0729V43.0737C20.4621 42.4807 19.6626 42.1481 18.8282 42.1481C17.9938 42.1481 17.1942 42.4807 16.6062 43.0737C16.0239 43.6593 15.6963 44.4531 15.6963 45.2792C15.6963 46.1061 16.0239 46.899 16.6062 47.4855L20.7988 51.6476H20.7996C21.3769 52.2364 22.1648 52.574 22.99 52.5856C23.826 52.5823 24.6256 52.2447 25.2112 51.6476L33.5659 43.3245V43.3237C34.3596 42.5299 34.6698 41.3737 34.3795 40.2889C34.0884 39.2048 33.2415 38.358 32.1575 38.0677C31.0734 37.7766 29.9164 38.0868 29.1227 38.8805L29.2481 38.755Z" fill="white"/>
<path d="M69.0173 37.8483H43.9859C42.8679 37.8483 41.8353 38.4446 41.2762 39.4134C40.7172 40.3813 40.7172 41.574 41.2762 42.5418C41.8352 43.5097 42.8678 44.1061 43.9859 44.1061H69.0173C70.1354 44.1061 71.168 43.5097 71.727 42.5418C72.2861 41.5739 72.2861 40.3812 71.727 39.4134C71.168 38.4446 70.1354 37.8483 69.0173 37.8483Z" fill="white"/>
<path d="M43.9859 53.4926H56.5025C57.6197 53.4926 58.6531 52.8963 59.2122 51.9284C59.7712 50.9604 59.7712 49.7677 59.2122 48.7991C58.6532 47.8311 57.6197 47.2348 56.5025 47.2348H43.9859C42.8679 47.2348 41.8353 47.8311 41.2762 48.7991C40.7172 49.7678 40.7172 50.9606 41.2762 51.9284C41.8352 52.8963 42.8678 53.4926 43.9859 53.4926Z" fill="white"/>
<path d="M29.2481 60.6587L22.9902 66.9167L21.0502 64.9767C20.4621 64.3845 19.6626 64.0511 18.8282 64.0511C17.9938 64.0511 17.1942 64.3845 16.6062 64.9767C16.0239 65.5631 15.6963 66.356 15.6963 67.183C15.6963 68.0091 16.0239 68.802 16.6062 69.3884L20.7988 73.5505H20.7996C21.3769 74.1402 22.1648 74.4778 22.99 74.4894C23.826 74.4861 24.6256 74.1477 25.2112 73.5505L33.5659 65.2274C34.3596 64.4337 34.6698 63.2767 34.3795 62.1926C34.0884 61.1086 33.2415 60.2609 32.1575 59.9706C31.0734 59.6803 29.9164 59.9905 29.1227 60.7843L29.2481 60.6587Z" fill="white"/>
<path d="M69.0173 59.7521H43.9859C42.8679 59.7521 41.8353 60.3484 41.2762 61.3163C40.7172 62.2843 40.7172 63.477 41.2762 64.4456C41.8352 65.4136 42.8678 66.0099 43.9859 66.0099H69.0173C70.1353 66.0099 71.168 65.4136 71.727 64.4456C72.2861 63.4769 72.2861 62.2841 71.727 61.3163C71.168 60.3484 70.1354 59.7521 69.0173 59.7521Z" fill="white"/>
<path d="M43.9859 75.3964H56.5025C57.6197 75.3964 58.6531 74.8001 59.2122 73.8313C59.7712 72.8634 59.7712 71.6707 59.2122 70.7029C58.6532 69.735 57.6197 69.1386 56.5025 69.1386H43.9859C42.8679 69.1386 41.8353 69.735 41.2762 70.7029C40.7172 71.6708 40.7172 72.8635 41.2762 73.8313C41.8352 74.8001 42.8678 75.3964 43.9859 75.3964Z" fill="white"/>
<path d="M29.2481 82.5625L22.9902 88.8204L21.0502 86.8805C20.4621 86.2883 19.6626 85.9548 18.8282 85.9548C17.9938 85.9548 17.1942 86.2883 16.6062 86.8805C16.0239 87.4668 15.6963 88.2598 15.6963 89.0868C15.6963 89.9138 16.0239 90.7066 16.6062 91.2931L20.7988 95.4551L20.7996 95.4543C21.3769 96.044 22.1648 96.3816 22.99 96.3932C23.826 96.3899 24.6256 96.0515 25.2112 95.4543L33.5659 87.1312C34.3596 86.3375 34.6698 85.1805 34.3795 84.0964C34.0884 83.0124 33.2415 82.1656 32.1575 81.8753C31.0734 81.5841 29.9164 81.8943 29.1227 82.6881L29.2481 82.5625Z" fill="white"/>
<path d="M69.0173 81.6537H43.9859C42.8679 81.6537 41.8353 82.25 41.2762 83.218C40.7172 84.1867 40.7172 85.3795 41.2762 86.3473C41.8352 87.3152 42.8678 87.9115 43.9859 87.9115H69.0173C70.1354 87.9115 71.168 87.3152 71.727 86.3473C72.2861 85.3793 72.2861 84.1866 71.727 83.218C71.168 82.25 70.1354 81.6537 69.0173 81.6537Z" fill="white"/>
<path d="M56.5025 91.0428H43.9859C42.8679 91.0428 41.8353 91.6392 41.2762 92.6071C40.7172 93.5759 40.7172 94.7686 41.2762 95.7364C41.8352 96.7043 42.8678 97.3007 43.9859 97.3007H56.5025C57.6197 97.3007 58.6531 96.7043 59.2122 95.7364C59.7712 94.7685 59.7712 93.5758 59.2122 92.6071C58.6532 91.6392 57.6197 91.0428 56.5025 91.0428Z" fill="white"/>
<path d="M76.7459 15.9449H62.7596V12.8156C62.7596 11.9862 62.4295 11.19 61.8431 10.6036C61.2559 10.0164 60.4605 9.6871 59.6302 9.6871H56.0629C55.0958 6.12636 52.6068 3.17457 49.261 1.61948C45.9159 0.0643413 42.0543 0.0643413 38.7093 1.61948C35.3634 3.17461 32.8745 6.12657 31.9074 9.6871H28.34C27.5098 9.6871 26.7144 10.0164 26.1272 10.6036C25.5408 11.19 25.2107 11.9862 25.2107 12.8156V15.9449H11.1928C8.27409 15.9532 5.4773 17.116 3.41368 19.1795C1.34927 21.2439 0.186503 24.0408 0.178223 26.9586V102.057C0.219692 104.953 1.39662 107.719 3.45678 109.756C5.51702 111.792 8.29553 112.938 11.1928 112.945H76.902C79.7992 112.905 82.5635 111.727 84.6006 109.667C86.6376 107.607 87.783 104.829 87.7912 101.932V26.8355C87.7498 23.9325 86.5679 21.1631 84.501 19.1254C82.4341 17.0884 79.6482 15.9454 76.7453 15.9462L76.7459 15.9449ZM43.9858 6.55768C46.2194 6.56017 48.282 7.75203 49.3993 9.68697H38.5722C39.6894 7.75196 41.7523 6.56002 43.9858 6.55768ZM31.4692 15.9449H56.5006L56.5014 22.2029H31.4679L31.4692 15.9449ZM81.5341 101.932C81.5341 103.193 81.0323 104.402 80.1407 105.295C79.2491 106.186 78.039 106.687 76.7774 106.687H11.0682C9.82822 106.655 8.6504 106.139 7.78537 105.251C6.9203 104.363 6.43675 103.172 6.43675 101.932V26.8352C6.46992 25.5953 6.98498 24.4175 7.87327 23.5524C8.7624 22.6874 9.95343 22.2038 11.1935 22.2038H25.2114V25.3331C25.2114 26.1625 25.5415 26.9587 26.1279 27.5451C26.7151 28.1324 27.5105 28.4616 28.3407 28.4616H59.6316C60.4618 28.4616 61.2572 28.1324 61.8444 27.5451C62.4308 26.9588 62.7609 26.1625 62.7609 25.3331V22.2038H76.7481H76.7472C78.0146 22.1955 79.2321 22.6932 80.1313 23.5856C81.0296 24.4789 81.5355 25.6931 81.5355 26.9597L81.5341 101.932Z" fill="white"/>
</svg>
