<?xml version="1.0" encoding="UTF-8"?>
<svg width="222px" height="194px" viewBox="0 0 222 194" version="1.1" xmlns="http://www.w3.org/2000/svg" xmlns:xlink="http://www.w3.org/1999/xlink">
    <!-- Generator: Sketch 52.6 (67491) - http://www.bohemiancoding.com/sketch -->
    <title>iconmonstr-smiley-4</title>
    <desc>Created with Sketch.</desc>
    <g id="NAUKA" stroke="none" stroke-width="1" fill="none" fill-rule="evenodd" opacity="0.100000001">
        <g id="NAUKA-STEP-6.1" transform="translate(-1398.000000, -151.000000)" fill="#D74A25" fill-rule="nonzero">
            <g id="Specjalizacja" transform="translate(300.000000, 151.000000)">
                <g id="iconmonstr-smiley-13">
                    <g id="iconmonstr-smiley-4" transform="translate(1098.000000, -68.000000)">
                        <path d="M131,21.8333333 C191.1945,21.8333333 240.166667,70.8055 240.166667,131 C240.166667,191.1945 191.1945,240.166667 131,240.166667 C70.8055,240.166667 21.8333333,191.1945 21.8333333,131 C21.8333333,70.8055 70.8055,21.8333333 131,21.8333333 Z M131,0 C58.65525,0 0,58.65525 0,131 C0,203.34475 58.65525,262 131,262 C203.34475,262 262,203.34475 262,131 C262,58.65525 203.34475,0 131,0 Z M131.010917,152.833333 C105.55325,152.833333 85.7613333,170.693 75.4123333,183.36725 L80.5540833,189.698917 C94.5929167,180.758167 110.378417,175.419917 131.010917,175.419917 C151.643417,175.419917 167.428917,180.758167 181.46775,189.698917 L186.6095,183.36725 C176.2605,170.693 156.468583,152.833333 131.010917,152.833333 Z M92.7916667,87.3333333 C83.7526667,87.3333333 76.4166667,94.6584167 76.4166667,103.708333 C76.4166667,112.75825 83.7526667,120.083333 92.7916667,120.083333 C101.830667,120.083333 109.166667,112.75825 109.166667,103.708333 C109.166667,94.6584167 101.830667,87.3333333 92.7916667,87.3333333 Z M169.208333,87.3333333 C160.169333,87.3333333 152.833333,94.6584167 152.833333,103.708333 C152.833333,112.75825 160.169333,120.083333 169.208333,120.083333 C178.247333,120.083333 185.583333,112.75825 185.583333,103.708333 C185.583333,94.6584167 178.247333,87.3333333 169.208333,87.3333333 Z" id="Shape"></path>
                    </g>
                </g>
            </g>
        </g>
    </g>
</svg>