<svg width="33" height="31" viewBox="0 0 33 31" fill="none" xmlns="http://www.w3.org/2000/svg">
<path d="M30.0821 10.5273C28.4622 4.53898 22.9946 0.113037 16.4998 0.113037C10.005 0.113037 4.53749 4.53872 2.91749 10.5286C1.71592 10.8864 0.833984 11.9866 0.833984 13.3039V18.4046C0.833984 20.0123 2.1368 21.3138 3.74317 21.3138C5.34955 21.3138 6.65236 20.0123 6.65236 18.4046V13.3039C6.65236 12.0956 5.91436 11.0607 4.86593 10.6198C6.39824 5.64945 11.0334 2.02476 16.4997 2.02476C21.9661 2.02476 26.601 5.64964 28.1335 10.6198C27.0851 11.0607 26.3471 12.0958 26.3471 13.3039V18.4046C26.3471 19.1168 26.6125 19.7591 27.0367 20.2642C25.3346 23.2072 22.4445 25.3784 19.0209 26.1028C18.5641 25.1657 17.6101 24.5132 16.4997 24.5132C14.9495 24.5132 13.6872 25.7743 13.6872 27.3257C13.6872 28.8759 14.9495 30.136 16.4997 30.136C17.8125 30.136 18.9094 29.2292 19.2177 28.0108C23.2519 27.2188 26.6652 24.6965 28.669 21.2531C28.8581 21.2925 29.055 21.3126 29.2551 21.3126C30.8638 21.3126 32.1643 20.011 32.1643 18.4034V13.3027C32.1656 11.9868 31.2859 10.8854 30.082 10.5276L30.0821 10.5273Z" fill="#12BA6A"/>
</svg>
