<svg width="28" height="28" viewBox="0 0 28 28" fill="none" xmlns="http://www.w3.org/2000/svg">
<circle cx="14" cy="14" r="14" fill="#12BA6A"/>
<path d="M14.0352 5.25C9.25769 5.25 5.36395 9.14375 5.36395 13.9213C5.36395 15.4525 5.76645 16.94 6.51895 18.2525L5.29395 22.75L9.88769 21.5425C11.1564 22.2338 12.5827 22.6013 14.0352 22.6013C18.8127 22.6013 22.7064 18.7075 22.7064 13.93C22.7064 11.6113 21.8052 9.4325 20.1689 7.79625C18.5327 6.15125 16.3539 5.25 14.0352 5.25ZM14.0439 6.71125C15.9689 6.71125 17.7714 7.46375 19.1364 8.82875C20.4927 10.1938 21.2452 12.005 21.2452 13.93C21.2452 17.9025 18.0077 21.1313 14.0352 21.1313C12.7402 21.1313 11.4714 20.79 10.3689 20.125L10.1064 19.9763L7.37644 20.6938L8.1027 18.0338L7.9277 17.7538C7.2102 16.625 6.8252 15.2863 6.8252 13.9213C6.83395 9.94875 10.0627 6.71125 14.0439 6.71125ZM10.9639 9.91375C10.8239 9.91375 10.5877 9.96625 10.3864 10.185C10.1939 10.4038 9.62519 10.9375 9.62519 11.9963C9.62519 13.0638 10.4039 14.0875 10.5002 14.2363C10.6227 14.385 12.0402 16.5725 14.2189 17.5C14.7352 17.7363 15.1377 17.8675 15.4527 17.9638C15.9689 18.13 16.4414 18.1038 16.8177 18.0513C17.2377 17.99 18.0952 17.5263 18.2789 17.0188C18.4627 16.5113 18.4627 16.0825 18.4102 15.9863C18.3489 15.8988 18.2089 15.8463 17.9902 15.75C17.7714 15.6275 16.7039 15.1025 16.5114 15.0325C16.3102 14.9625 16.1877 14.9275 16.0214 15.1375C15.8814 15.3563 15.4614 15.8463 15.3389 15.9863C15.2077 16.135 15.0852 16.1525 14.8752 16.0475C14.6477 15.9338 13.9477 15.7063 13.1252 14.9713C12.4777 14.3938 12.0489 13.685 11.9177 13.4663C11.8127 13.2563 11.9089 13.125 12.0139 13.0288C12.1102 12.9325 12.2502 12.775 12.3377 12.6438C12.4514 12.5213 12.4864 12.425 12.5564 12.285C12.6264 12.1363 12.5914 12.0138 12.5389 11.9088C12.4864 11.8125 12.0489 10.7275 11.8652 10.2988C11.6902 9.87875 11.5152 9.93125 11.3752 9.9225C11.2527 9.9225 11.1127 9.91375 10.9639 9.91375Z" fill="white"/>
</svg>
