<svg width="25" height="23" viewBox="0 0 25 23" fill="none" xmlns="http://www.w3.org/2000/svg">
<path d="M12.5 22.6091C12.1441 22.6091 11.8009 22.4802 11.5335 22.246C10.5236 21.3629 9.54989 20.533 8.69082 19.8009L8.68643 19.7971C6.16778 17.6508 3.99284 15.7972 2.47955 13.9713C0.787924 11.9301 0 9.9947 0 7.88041C0 5.8262 0.704382 3.93106 1.98326 2.54385C3.27739 1.14023 5.05313 0.367188 6.98393 0.367188C8.42703 0.367188 9.74863 0.823424 10.9119 1.72312C11.499 2.17726 12.0312 2.73306 12.5 3.38136C12.969 2.73306 13.501 2.17726 14.0882 1.72312C15.2515 0.823424 16.5731 0.367188 18.0162 0.367188C19.9468 0.367188 21.7228 1.14023 23.0169 2.54385C24.2958 3.93106 25 5.8262 25 7.88041C25 9.9947 24.2122 11.9301 22.5206 13.9711C21.0073 15.7972 18.8326 17.6506 16.3143 19.7967C15.4537 20.5299 14.4785 21.3611 13.4662 22.2463C13.199 22.4802 12.8557 22.6091 12.5 22.6091ZM6.98393 1.83165C5.46702 1.83165 4.07352 2.43704 3.05976 3.53643C2.03094 4.65242 1.46427 6.19508 1.46427 7.88041C1.46427 9.65863 2.12516 11.249 3.60698 13.0369C5.03921 14.7652 7.16952 16.5806 9.6361 18.6827L9.64068 18.6865C10.503 19.4214 11.4805 20.2545 12.4979 21.1441C13.5214 20.2528 14.5004 19.4183 15.3644 18.6823C17.8308 16.5802 19.9609 14.7652 21.3932 13.0369C22.8748 11.249 23.5357 9.65863 23.5357 7.88041C23.5357 6.19508 22.969 4.65242 21.9402 3.53643C20.9266 2.43704 19.5329 1.83165 18.0162 1.83165C16.905 1.83165 15.8848 2.18489 14.9839 2.88145C14.1811 3.50248 13.6219 4.28754 13.294 4.83686C13.1254 5.11934 12.8286 5.28795 12.5 5.28795C12.1713 5.28795 11.8746 5.11934 11.7059 4.83686C11.3783 4.28754 10.819 3.50248 10.016 2.88145C9.1152 2.18489 8.09496 1.83165 6.98393 1.83165Z" fill="#F04438"/>
</svg>
