<svg width="20" height="25" viewBox="0 0 20 25" fill="none" xmlns="http://www.w3.org/2000/svg">
<path fill-rule="evenodd" clip-rule="evenodd" d="M2.52067 0.257469C2.27011 0.0957017 1.98289 0.00695556 1.68867 0.000392454C1.39445 -0.00617065 1.10389 0.0696876 0.846987 0.220135C0.590082 0.370582 0.376141 0.590168 0.227248 0.856224C0.0783547 1.12228 -9.37431e-05 1.42516 8.40667e-08 1.73361V23.2664C-9.37431e-05 23.5748 0.0783547 23.8777 0.227248 24.1438C0.376141 24.4098 0.590082 24.6294 0.846987 24.7799C1.10389 24.9303 1.39445 25.0062 1.68867 24.9996C1.98289 24.993 2.27011 24.9043 2.52067 24.7425C6.73751 22.0234 15.1563 16.593 19.2127 13.9761C19.4533 13.8211 19.652 13.604 19.7898 13.3456C19.9276 13.0872 20 12.796 20 12.5C20 12.204 19.9276 11.9128 19.7898 11.6544C19.652 11.396 19.4533 11.1789 19.2127 11.0239C15.1563 8.40702 6.73751 2.97659 2.52067 0.257469Z" fill="white"/>
</svg>
