<svg width="33" height="33" viewBox="0 0 33 33" fill="none" xmlns="http://www.w3.org/2000/svg">
<path d="M13.3321 18.217C13.2331 18.217 11.0551 18.217 10.0651 18.217C9.53707 18.217 9.37207 18.019 9.37207 17.524C9.37207 16.204 9.37207 14.851 9.37207 13.531C9.37207 13.003 9.57007 12.838 10.0651 12.838H13.3321C13.3321 12.739 13.3321 10.825 13.3321 9.93398C13.3321 8.61398 13.5631 7.35998 14.2231 6.20498C14.9161 5.01698 15.9061 4.22498 17.1601 3.76298C17.9851 3.46598 18.8101 3.33398 19.7011 3.33398H22.935C23.397 3.33398 23.595 3.53198 23.595 3.99398V7.75598C23.595 8.21798 23.397 8.41598 22.935 8.41598C22.0441 8.41598 21.1531 8.41598 20.2621 8.44898C19.3711 8.44898 18.9091 8.87798 18.9091 9.80198C18.8761 10.792 18.9091 11.749 18.9091 12.772H22.7371C23.265 12.772 23.463 12.97 23.463 13.498V17.491C23.463 18.019 23.298 18.184 22.7371 18.184C21.5491 18.184 19.0081 18.184 18.9091 18.184V28.942C18.9091 29.503 18.7441 29.701 18.1501 29.701C16.7641 29.701 15.4111 29.701 14.0251 29.701C13.5301 29.701 13.3321 29.503 13.3321 29.008C13.3321 25.543 13.3321 18.316 13.3321 18.217Z" fill="white"/>
</svg>
