<svg width="190" height="251" viewBox="0 0 190 251" fill="none" xmlns="http://www.w3.org/2000/svg">
<g opacity="0.6" clip-path="url(#clip0)">
<path d="M4.13203 119.38C1.84927 119.38 0 117.53 0 115.248C0 99.8078 3.24429 83.448 9.3847 67.9368C15.6219 52.1834 24.889 37.2209 36.1876 24.668C61.7361 -3.72126 96.6877 -19.3547 134.602 -19.3547C158.332 -19.3547 182.059 -12.6425 203.219 0.0533695C217.093 8.37739 229.798 19.2586 239.981 31.4264L238.872 -2.21325C238.796 -4.49371 240.585 -6.40293 242.865 -6.47902C245.12 -6.56665 247.055 -4.7658 247.131 -2.48534L248.632 43.0201C249.644 44.8786 249.086 47.2351 247.293 48.4318C245.974 49.3103 244.334 49.3311 243.031 48.6255L197.519 47.1244C195.239 47.0506 193.452 45.1414 193.528 42.861C193.601 40.5805 195.531 38.8027 197.791 38.8673L236.381 40.1401C216.738 15.0942 180.433 -11.093 134.605 -11.093C59.029 -11.093 8.26176 54.2356 8.26176 115.248C8.26176 117.53 6.41249 119.38 4.13203 119.38Z" fill="white"/>
<path d="M136.341 249.852C112.612 249.852 88.8847 243.142 67.7241 230.446C53.85 222.12 41.1472 211.239 30.9624 199.071L32.0715 232.711C32.1476 234.991 30.3606 236.9 28.0801 236.977C25.7905 237.043 23.8905 235.263 23.8144 232.983L22.3133 187.477C21.2987 185.621 21.8567 183.262 23.6506 182.068C24.9696 181.187 26.609 181.166 27.9118 181.872L73.4241 183.373C75.7046 183.447 77.4939 185.358 77.4178 187.639C77.344 189.919 75.421 191.716 73.152 191.63L34.5618 190.36C54.2051 215.403 90.5126 241.591 136.341 241.591C211.916 241.591 262.681 176.264 262.681 115.252C262.681 112.969 264.531 111.12 266.813 111.12C269.094 111.12 270.945 112.969 270.945 115.252C270.945 130.692 267.699 147.052 261.558 162.563C255.324 178.316 246.054 193.279 234.758 205.832C209.207 234.219 174.255 249.852 136.341 249.852Z" fill="white"/>
<path d="M190.867 178.399H80.0789C71.2914 178.399 64.1433 171.251 64.1433 162.463V68.035C64.1433 59.2499 71.2914 52.1018 80.0789 52.1018H190.867C199.652 52.1018 206.8 59.2499 206.8 68.035V162.463C206.8 171.251 199.652 178.399 190.867 178.399ZM80.0789 60.3636C75.8477 60.3636 72.4051 63.8062 72.4051 68.035V162.463C72.4051 166.694 75.8477 170.135 80.0789 170.135H190.867C195.096 170.135 198.538 166.694 198.538 162.463V68.035C198.538 63.8062 195.096 60.3636 190.867 60.3636H80.0789Z" fill="white"/>
<path d="M183.793 142.489H146.837C144.554 142.489 142.705 140.64 142.705 138.359C142.705 136.077 144.554 134.227 146.837 134.227H183.793C186.075 134.227 187.925 136.077 187.925 138.359C187.925 140.64 186.075 142.489 183.793 142.489Z" fill="white"/>
<path d="M183.793 159.496H146.837C144.554 159.496 142.705 157.647 142.705 155.364C142.705 153.083 144.554 151.234 146.837 151.234H183.793C186.075 151.234 187.925 153.083 187.925 155.364C187.925 157.647 186.075 159.496 183.793 159.496Z" fill="white"/>
<path d="M183.793 108.484H146.837C144.554 108.484 142.705 106.632 142.705 104.352C142.705 102.069 144.554 100.22 146.837 100.22H183.793C186.075 100.22 187.925 102.069 187.925 104.352C187.925 106.632 186.075 108.484 183.793 108.484Z" fill="white"/>
<path d="M183.793 125.486H146.837C144.554 125.486 142.705 123.636 142.705 121.353C142.705 119.073 144.554 117.224 146.837 117.224H183.793C186.075 117.224 187.925 119.073 187.925 121.353C187.925 123.636 186.075 125.486 183.793 125.486Z" fill="white"/>
<path d="M202.668 92.519H68.2753C65.9926 92.519 64.1433 90.6674 64.1433 88.3869C64.1433 86.1042 65.9926 84.2549 68.2753 84.2549H202.668C204.951 84.2549 206.8 86.1042 206.8 88.3869C206.8 90.6674 204.951 92.519 202.668 92.519Z" fill="white"/>
<path d="M113.695 81.5369C108.678 81.5369 104.597 77.4556 104.597 72.4382C104.597 67.4207 108.678 63.3394 113.695 63.3394C118.71 63.3394 122.792 67.4207 122.792 72.4382C122.792 77.4556 118.71 81.5369 113.695 81.5369ZM113.695 71.6034C113.234 71.6034 112.858 71.977 112.858 72.4382C112.858 72.8993 113.234 73.2729 113.695 73.2729C114.156 73.2729 114.53 72.8993 114.53 72.4382C114.53 71.977 114.156 71.6034 113.695 71.6034Z" fill="white"/>
<path d="M91.3846 81.4676C86.3671 81.4676 82.2858 77.384 82.2858 72.3688C82.2858 67.3513 86.3671 63.27 91.3846 63.27C96.4021 63.27 100.483 67.3513 100.483 72.3688C100.483 77.384 96.4021 81.4676 91.3846 81.4676ZM91.3846 71.5318C90.9234 71.5318 90.5499 71.9077 90.5499 72.3688C90.5499 72.83 90.9234 73.2035 91.3846 73.2035C91.8457 73.2035 92.2193 72.83 92.2193 72.3688C92.2193 71.9077 91.8457 71.5318 91.3846 71.5318Z" fill="white"/>
<path d="M136.004 81.6058C130.989 81.6058 126.908 77.5245 126.908 72.5071C126.908 67.4919 130.989 63.4106 136.004 63.4106C141.022 63.4106 145.103 67.4919 145.103 72.5071C145.103 77.5245 141.022 81.6058 136.004 81.6058ZM136.004 71.6724C135.543 71.6724 135.17 72.0459 135.17 72.5071C135.17 72.9683 135.543 73.3418 136.004 73.3418C136.466 73.3418 136.841 72.9683 136.841 72.5071C136.841 72.0459 136.466 71.6724 136.004 71.6724Z" fill="white"/>
<path d="M129.087 159.496H86.4178C84.135 159.496 82.2858 157.646 82.2858 155.363V104.352C82.2858 102.069 84.135 100.22 86.4178 100.22H129.087C131.37 100.22 133.219 102.069 133.219 104.352V155.363C133.219 157.646 131.37 159.496 129.087 159.496ZM90.5498 151.234H124.957V108.484H90.5498V151.234Z" fill="white"/>
</g>
<defs>
<clipPath id="clip0">
<rect width="271" height="271" fill="white" transform="translate(0 -20)"/>
</clipPath>
</defs>
</svg>
