<svg width="171" height="241" viewBox="0 0 171 241" fill="none" xmlns="http://www.w3.org/2000/svg">
<g opacity="0.6">
<path d="M140.234 224.835H-69.2343C-86.1974 224.835 -100 211.032 -100 194.069V16.4759C-100 -0.487164 -86.1974 -14.2898 -69.2343 -14.2898H140.234C157.197 -14.2898 171 -0.487164 171 16.4759V194.069C171 211.032 157.197 224.835 140.234 224.835ZM-69.2343 -5.12554C-81.1448 -5.12554 -90.8357 4.56545 -90.8357 16.4759V194.069C-90.8357 205.98 -81.1448 215.671 -69.2343 215.671H140.234C152.145 215.671 161.836 205.98 161.836 194.069V16.4759C161.836 4.56545 152.145 -5.12554 140.234 -5.12554H-69.2343Z" fill="white"/>
<path d="M129.644 154.878H57.6415C55.11 154.878 53.0593 152.827 53.0593 150.296C53.0593 147.767 55.11 145.713 57.6415 145.713H129.644C132.173 145.713 134.226 147.767 134.226 150.296C134.226 152.827 132.175 154.878 129.644 154.878Z" fill="white"/>
<path d="M129.644 188.007H57.6415C55.11 188.007 53.0593 185.956 53.0593 183.424C53.0593 180.896 55.11 178.842 57.6415 178.842H129.644C132.173 178.842 134.226 180.896 134.226 183.424C134.226 185.956 132.175 188.007 129.644 188.007Z" fill="white"/>
<path d="M129.644 88.6213H57.6415C55.11 88.6213 53.0593 86.5706 53.0593 84.0392C53.0593 81.5103 55.11 79.457 57.6415 79.457H129.644C132.173 79.457 134.226 81.5103 134.226 84.0392C134.226 86.5706 132.175 88.6213 129.644 88.6213Z" fill="white"/>
<path d="M129.644 121.75H57.6415C55.11 121.75 53.0593 119.7 53.0593 117.168C53.0593 114.639 55.11 112.586 57.6415 112.586H129.644C132.173 112.586 134.226 114.639 134.226 117.168C134.226 119.7 132.175 121.75 129.644 121.75Z" fill="white"/>
<path d="M166.418 47.0648H-95.4179C-97.9493 47.0648 -100 45.0141 -100 42.4827C-100 39.9513 -97.9493 37.9006 -95.4179 37.9006H166.418C168.949 37.9006 171 39.9513 171 42.4827C171 45.0141 168.949 47.0648 166.418 47.0648Z" fill="white"/>
<path d="M-0.928993 30.7333C-8.79174 30.7333 -15.1868 24.3383 -15.1868 16.4755C-15.1868 8.61281 -8.79174 2.21777 -0.928993 2.21777C6.93375 2.21777 13.3313 8.61281 13.3313 16.4755C13.3313 24.3383 6.93375 30.7333 -0.928993 30.7333ZM-0.928993 11.382C-3.73912 11.382 -6.02252 13.668 -6.02252 16.4755C-6.02252 19.2831 -3.73657 21.5691 -0.928993 21.5691C1.88114 21.5691 4.16709 19.2831 4.16709 16.4755C4.16709 13.668 1.88114 11.382 -0.928993 11.382Z" fill="white"/>
<path d="M23.0621 188.006H-60.0707C-62.6021 188.006 -64.6528 185.956 -64.6528 183.424V84.0392C-64.6528 81.5103 -62.6021 79.457 -60.0707 79.457H23.0621C25.5936 79.457 27.6443 81.5103 27.6443 84.0392V183.424C27.6443 185.956 25.5936 188.006 23.0621 188.006ZM-55.4886 178.842H18.48V88.6213H-55.4886V178.842Z" fill="white"/>
</g>
</svg>
