<svg width="30" height="30" viewBox="0 0 30 30" fill="none" xmlns="http://www.w3.org/2000/svg">
<path d="M17.9259 24.1377C15.2445 24.1377 12.6398 23.2431 10.5243 21.5954L2.54333 29.5763C1.94712 30.1521 0.997101 30.1356 0.421303 29.5394C-0.14039 28.9578 -0.14039 28.0358 0.421303 27.4543L8.40226 19.4734C4.31363 14.2102 5.26573 6.62906 10.5289 2.54042C15.7921 -1.54821 23.3731 -0.596109 27.4618 4.66707C31.5504 9.93024 30.5983 17.5114 25.3351 21.6C23.2162 23.2461 20.6091 24.139 17.9259 24.1377ZM24.3386 5.65901C20.7969 2.11732 15.0548 2.11725 11.5131 5.65889C7.97142 9.20052 7.97136 14.9426 11.513 18.4843C15.0546 22.026 20.7967 22.0261 24.3384 18.4845C24.3385 18.4844 24.3385 18.4844 24.3386 18.4843C27.8802 14.9685 27.9011 9.24732 24.3852 5.70569C24.3697 5.69009 24.3542 5.67455 24.3386 5.65901Z" fill="#393333"/>
</svg>
