<svg width="30" height="30" viewBox="0 0 30 30" fill="none" xmlns="http://www.w3.org/2000/svg">
<g clip-path="url(#clip0)">
<path fill-rule="evenodd" clip-rule="evenodd" d="M24.4957 24.3967C26.1406 24.1658 27.9275 23.1568 28.4675 21.4978C29.3142 17.2089 29.319 12.7964 28.4818 8.50579C27.9418 6.84315 26.1548 5.83776 24.5099 5.60684C18.5961 4.97802 12.6322 4.97802 6.71834 5.60684C5.05927 5.83776 3.27229 6.82895 2.73229 8.50579C1.89035 12.7955 1.89035 17.208 2.73229 21.4978C3.27229 23.1568 5.05927 24.1658 6.70413 24.3967C12.618 25.0255 18.5819 25.0255 24.4957 24.3967ZM20.7938 15L12.3705 9.82735V20.1762L20.7938 15Z" fill="white"/>
</g>
<defs>
<clipPath id="clip0">
<rect width="30" height="30" fill="white"/>
</clipPath>
</defs>
</svg>
