<svg width="30" height="30" viewBox="0 0 30 30" fill="none" xmlns="http://www.w3.org/2000/svg">
<g clip-path="url(#clip0)">
<path d="M27.452 23.4268C26.8196 23.5157 23.7466 23.4268 23.5867 23.4268C22.7922 23.4349 22.0265 23.1299 21.4551 22.5778C20.805 21.9525 20.2188 21.2668 19.5971 20.6132C19.4092 20.4152 19.2061 20.2322 18.9896 20.066C18.4816 19.6753 17.9807 19.7641 17.7426 20.3609C17.5569 21.008 17.4285 21.6701 17.359 22.3397C17.3539 22.4797 17.3213 22.6173 17.2631 22.7447C17.2048 22.8721 17.122 22.9868 17.0194 23.0821C16.9167 23.1775 16.7963 23.2517 16.665 23.3005C16.5337 23.3492 16.3941 23.3717 16.2541 23.3664C15.8349 23.3878 15.4157 23.3949 15 23.3664C13.4877 23.3604 11.9986 22.9951 10.6551 22.3007C9.20417 21.4898 7.93944 20.3836 6.94264 19.0535C5.34704 16.9481 3.9687 14.6866 2.82869 12.3035C2.7683 12.1863 1.57106 9.63907 1.54264 9.51828C1.4716 9.35258 1.4662 9.16607 1.52755 8.99653C1.5889 8.827 1.7124 8.68713 1.87304 8.60526C2.08619 8.52355 6.03317 8.60526 6.09711 8.60526C6.39084 8.6011 6.67814 8.69137 6.9167 8.86278C7.15526 9.03418 7.33247 9.27766 7.42224 9.55736C8.15225 11.4227 9.14909 13.1723 10.3816 14.7513C10.5545 14.9615 10.7567 15.1457 10.982 15.2984C11.04 15.3547 11.112 15.3944 11.1906 15.4136C11.2691 15.4328 11.3513 15.4307 11.4287 15.4075C11.5062 15.3844 11.5761 15.341 11.6312 15.2818C11.6863 15.2227 11.7246 15.1499 11.7422 15.071C11.8987 14.5562 11.9906 14.024 12.0158 13.4866C12.0371 12.4208 12.0158 11.7103 11.9554 10.6445C11.9769 10.2813 11.8543 9.92426 11.6142 9.6509C11.3741 9.37754 11.0358 9.20989 10.6729 9.18434C10.3603 9.13105 10.3176 8.87526 10.5343 8.61947C10.95 8.09013 11.5255 8.00487 12.1508 7.97289C13.0958 7.9196 14.0443 7.97289 14.9929 7.97289H15.199C15.6154 7.97186 16.0309 8.01352 16.4388 8.09723C16.6774 8.14609 16.8937 8.27071 17.0557 8.45252C17.2177 8.63433 17.3166 8.8636 17.3376 9.10618C17.3854 9.37464 17.4068 9.64711 17.4016 9.91973C17.3767 11.085 17.3199 12.2467 17.3057 13.4084C17.297 13.8687 17.3387 14.3285 17.43 14.7797C17.5686 15.3979 17.9913 15.5542 18.4247 15.1066C18.9649 14.5256 19.4601 13.9045 19.9062 13.2485C20.7076 12.0571 21.3681 10.7767 21.8743 9.43302C22.1479 8.74381 22.3575 8.59105 23.1 8.59105H27.2886C27.5382 8.58723 27.7871 8.61954 28.0275 8.68697C28.1122 8.70955 28.1913 8.74929 28.26 8.80373C28.3287 8.85816 28.3854 8.92613 28.4267 9.00342C28.468 9.08071 28.493 9.16567 28.5001 9.25301C28.5072 9.34036 28.4963 9.42823 28.468 9.51118C28.2239 10.4027 27.8036 11.2363 27.2317 11.9625C26.3791 13.1704 25.4838 14.3463 24.6099 15.5364C24.4985 15.6881 24.3976 15.8471 24.3079 16.0125C23.9811 16.6058 24.0059 16.9362 24.4784 17.4335C25.2387 18.2187 26.0522 18.9505 26.7841 19.7534C27.3231 20.3404 27.8104 20.9727 28.2407 21.6434C28.7807 22.4889 28.4503 23.2847 27.452 23.4268Z" fill="white"/>
</g>
<defs>
<clipPath id="clip0">
<rect width="30" height="30" fill="white"/>
</clipPath>
</defs>
</svg>
