<svg width="450" height="765" viewBox="0 0 450 765" fill="none" xmlns="http://www.w3.org/2000/svg">
<g clip-path="url(#clip0)">
<path d="M231.25 765C103.534 765 3.05176e-05 754.209 3.05176e-05 740.898C3.05176e-05 727.587 103.534 716.797 231.25 716.797C358.966 716.797 462.5 727.587 462.5 740.898C462.5 754.209 358.966 765 231.25 765Z" fill="#F5F5F5"/>
<path d="M95.2001 661.138C95.2001 661.138 101.95 585.427 137.114 512.715C137.114 512.715 85.1929 561.175 83.3715 661.138H95.2001Z" fill="#FFCF5C"/>
<path d="M68.8215 663.859C68.8215 663.859 62.9501 578.615 49.6858 535.982C49.6858 535.982 42.4216 588.877 61.3644 661.46L68.8215 663.859Z" fill="#FFCF5C"/>
<path opacity="0.3" d="M68.8215 663.859C68.8215 663.859 62.9501 578.615 49.6858 535.982C49.6858 535.982 42.4216 588.877 61.3644 661.46L68.8215 663.859Z" fill="#393333"/>
<path d="M74.2644 666.386C74.2644 666.386 83.3715 551.663 57.8715 500.225C57.8715 500.225 55.1287 604.494 61.5144 666.386H74.2644Z" fill="#FFCF5C"/>
<path opacity="0.2" d="M74.2644 666.386C74.2644 666.386 83.3715 551.663 57.8715 500.225C57.8715 500.225 55.1287 604.494 61.5144 666.386H74.2644Z" fill="#393333"/>
<path d="M52.7286 666.987C52.7286 666.987 46.0001 591.276 10.8144 518.564C10.8144 518.564 62.7572 567.025 64.5786 666.987H52.7286Z" fill="#FFCF5C"/>
<path d="M87.0144 672.857C87.0144 672.857 115.279 541.059 110.243 471.261C110.243 471.261 72.443 548.964 74.2644 666.387L87.0144 672.857Z" fill="#FFCF5C"/>
<path opacity="0.1" d="M87.0144 672.857C87.0144 672.857 115.279 541.059 110.243 471.261C110.243 471.261 72.443 548.964 74.2644 666.387L87.0144 672.857Z" fill="white"/>
<path d="M60.8073 739.828H87.143C91.4241 739.821 95.5499 738.223 98.7182 735.345C101.887 732.466 103.871 728.513 104.286 724.253L111.014 654.776H36.893L43.6216 724.253C44.0135 728.529 45.997 732.503 49.1795 735.387C52.3621 738.272 56.5118 739.856 60.8073 739.828Z" fill="#FFCF5C"/>
<path opacity="0.3" d="M63.1002 739.827H84.8288C89.744 739.824 94.4822 737.993 98.122 734.691C101.762 731.389 104.043 726.851 104.522 721.96L110.95 654.776H36.8287L43.2573 721.96C43.7385 726.877 46.041 731.436 49.7125 734.742C53.384 738.048 58.1592 739.862 63.1002 739.827Z" fill="white"/>
<path d="M219.657 275.107L215.5 257.047L220.3 246.699C220.886 245.698 221.113 244.527 220.943 243.379C220.337 239.849 219.55 236.352 218.586 232.903C218.374 232.259 217.92 231.723 217.321 231.407C216.721 231.091 216.022 231.021 215.371 231.21L205.9 233.888C203.907 234.21 202 248.263 202 248.263C201.763 249.198 201.807 250.182 202.129 251.091L204.957 259.939L206.65 281.834L219.657 275.107Z" fill="#FFC3BD"/>
<path d="M260.736 256.405C246.961 265.742 235.481 278.076 227.157 292.483C225.957 288.348 220.236 270.909 221.243 266.003C221.565 264.993 221.646 263.922 221.479 262.875C221.2 261.868 219.979 261.033 219.079 261.568C212.05 260.797 206.221 262.061 199.279 262.982C201.186 278.814 204.357 329.631 230.393 319.305C249.786 311.635 263.886 293.597 271.364 274.08C272.675 271.028 273.346 267.739 273.336 264.418C273.309 262.76 272.909 261.129 272.168 259.646C271.426 258.163 270.36 256.865 269.05 255.848C266.393 253.92 263.393 254.563 260.736 256.405Z" fill="#FFCF5C"/>
<path opacity="0.7" d="M260.736 256.405C246.961 265.742 235.481 278.076 227.157 292.483C225.957 288.348 220.236 270.909 221.243 266.003C221.565 264.993 221.646 263.922 221.479 262.875C221.2 261.868 219.979 261.033 219.079 261.568C212.05 260.797 206.221 262.061 199.279 262.982C201.186 278.814 204.357 329.631 230.393 319.305C249.786 311.635 263.886 293.597 271.364 274.08C272.675 271.028 273.346 267.739 273.336 264.418C273.309 262.76 272.909 261.129 272.168 259.646C271.426 258.163 270.36 256.865 269.05 255.848C266.393 253.92 263.393 254.563 260.736 256.405Z" fill="#393333"/>
<path d="M286.814 416.332C285.029 445.41 285.172 474.574 287.243 503.633C287.243 503.633 292.729 457.251 295.557 438.698L286.814 416.332Z" fill="#393333"/>
<path d="M303.786 248.265C301.107 239.095 302.093 226.07 303.314 217.95L283.064 236.846C284.21 240.346 284.533 244.063 284.007 247.708C283.858 248.55 283.439 249.322 282.813 249.906C282.187 250.489 281.387 250.853 280.536 250.942L272.072 253.32L270.914 259.748L275.929 261.204L282.529 268.338L299.136 261.911L316.964 254.22C314.336 253.291 311.599 252.701 308.821 252.464C307.707 252.219 306.667 251.709 305.791 250.979C304.914 250.248 304.227 249.317 303.786 248.265Z" fill="#FFC3BD"/>
<path opacity="0.2" d="M295.043 227.162L283.364 237.874C283.935 239.97 284.237 242.129 284.264 244.301C286.964 243.692 289.475 242.433 291.577 240.634C293.68 238.834 295.311 236.548 296.329 233.975C297.379 230.783 296.264 227.483 295.043 227.162Z" fill="#393333"/>
<path d="M306.7 203.296C305.436 218.293 305.436 227.033 297.678 234.51C286.043 245.8 267.678 238.452 264.55 223.477C261.678 209.895 264.271 187.807 279.057 182.237C282.308 180.982 285.827 180.582 289.277 181.073C292.727 181.564 295.994 182.93 298.766 185.042C301.538 187.154 303.722 189.94 305.111 193.136C306.5 196.331 307.047 199.829 306.7 203.296Z" fill="#FFC3BD"/>
<path d="M285.871 204.067C285.721 205.267 284.971 206.209 284.179 206.081C283.386 205.952 282.872 204.924 283.022 203.703C283.172 202.482 283.921 201.56 284.714 201.71C285.507 201.86 286.021 202.867 285.871 204.067Z" fill="#263238"/>
<path d="M271.279 202.289C271.129 203.488 270.379 204.431 269.586 204.303C268.793 204.174 268.279 203.146 268.429 201.946C268.579 200.746 269.329 199.804 270.121 199.932C270.914 200.061 271.429 201.068 271.279 202.289Z" fill="#263238"/>
<path d="M287.543 202.096C287.663 202.117 287.787 202.117 287.907 202.096C288.08 202.012 288.214 201.866 288.281 201.686C288.349 201.507 288.346 201.308 288.272 201.132C287.805 200.097 287.103 199.186 286.221 198.472C285.339 197.757 284.302 197.26 283.193 197.018C283.004 196.999 282.814 197.053 282.663 197.168C282.512 197.284 282.41 197.452 282.379 197.64C282.354 197.827 282.402 198.016 282.514 198.168C282.626 198.32 282.793 198.422 282.979 198.454C283.857 198.649 284.676 199.049 285.369 199.623C286.062 200.197 286.609 200.927 286.964 201.753C287.023 201.855 287.107 201.94 287.209 202C287.31 202.06 287.425 202.093 287.543 202.096Z" fill="#263238"/>
<path d="M265.793 199.569C265.909 199.588 266.029 199.578 266.141 199.541C266.253 199.504 266.354 199.44 266.436 199.354C267.015 198.678 267.746 198.149 268.569 197.81C269.392 197.471 270.284 197.332 271.171 197.404C271.359 197.436 271.551 197.391 271.706 197.281C271.861 197.17 271.965 197.003 271.996 196.815C272.028 196.628 271.983 196.435 271.873 196.281C271.762 196.126 271.595 196.021 271.407 195.99C270.275 195.876 269.132 196.034 268.073 196.452C267.014 196.869 266.071 197.534 265.321 198.39C265.193 198.522 265.121 198.699 265.121 198.883C265.121 199.067 265.193 199.244 265.321 199.376C265.381 199.441 265.454 199.491 265.536 199.525C265.617 199.558 265.705 199.573 265.793 199.569Z" fill="#263238"/>
<path d="M301.729 199.59C300.306 203.309 300.222 207.407 301.493 211.18C302.167 210.87 302.895 210.695 303.636 210.666C304.111 210.621 304.59 210.7 305.025 210.895C305.461 211.091 305.839 211.395 306.121 211.78C306.334 212.281 306.443 212.821 306.443 213.365C306.443 213.91 306.334 214.449 306.121 214.951C304.807 219.664 303.379 224.334 301.836 228.962C309.558 221.576 314.454 211.724 315.679 201.111C311.371 200.532 306.143 200.125 301.729 199.59Z" fill="#263238"/>
<path d="M313.664 217.436C311.58 220.573 308.335 222.754 304.643 223.499C299.736 224.442 297.7 219.964 299.393 215.551C300.914 211.588 305.307 206.296 310.107 207.324C314.907 208.353 316.193 213.537 313.664 217.436Z" fill="#FFC3BD"/>
<path d="M274.578 206.06C272.533 209.386 270.03 212.407 267.143 215.037C267.834 215.791 268.68 216.387 269.623 216.783C270.567 217.178 271.585 217.365 272.607 217.329L274.578 206.06Z" fill="#ED893E"/>
<path d="M226.364 686.976L212.586 682.005L204.721 715.233L218.521 720.225L226.364 686.976Z" fill="#FFC3BD"/>
<path d="M327.036 692.332L312.4 693.168L315.1 726.995L329.736 726.16L327.036 692.332Z" fill="#FFC3BD"/>
<path d="M310.707 726.438C307.257 729.887 299.071 733.786 287.821 736.914C285.357 737.6 286.493 743.62 292.643 743.341C298.793 743.063 312.186 741.756 316.621 741.499C323.843 741.092 328.107 741.285 333.764 740.942C333.928 740.964 334.094 740.964 334.257 740.942C334.531 740.868 334.788 740.74 335.012 740.566C335.236 740.391 335.423 740.174 335.563 739.927C335.702 739.68 335.791 739.408 335.825 739.126C335.858 738.844 335.835 738.558 335.757 738.285L332.114 725.431C332.036 725.151 331.863 724.906 331.625 724.738C331.387 724.57 331.098 724.489 330.807 724.51L312.979 725.517C312.136 725.545 311.331 725.872 310.707 726.438Z" fill="#263238"/>
<path d="M201.25 712.984C189.764 714.934 187.686 714.012 176.157 712.041C173.672 711.613 172.943 717.869 178.514 720.118C187.75 723.846 188.05 723.824 195.85 727.017C202.579 729.695 210.186 733.144 215.5 735.393C215.658 735.459 215.824 735.502 215.993 735.522C216.549 735.609 217.118 735.473 217.575 735.144C218.032 734.816 218.341 734.32 218.436 733.765L220.536 720.547C220.578 720.257 220.524 719.961 220.38 719.705C220.237 719.449 220.013 719.248 219.743 719.133L204.914 713.155C203.731 712.767 202.464 712.707 201.25 712.984Z" fill="#263238"/>
<path opacity="0.2" d="M226.386 686.998L222.336 704.137L208.536 699.145L212.586 682.028L226.386 686.998Z" fill="#393333"/>
<path opacity="0.2" d="M328.428 709.771L313.793 710.628L312.4 693.168L327.036 692.332L328.428 709.771Z" fill="#393333"/>
<path d="M204.743 693.617L227.736 702.894C227.736 702.894 256.964 593.762 264.914 555.735C272.864 517.709 300.721 386.489 300.721 386.489L249.293 386.896C249.293 386.896 232.75 503.483 227.586 547.894C222.121 594.148 204.743 693.617 204.743 693.617Z" fill="#263238"/>
<path opacity="0.2" d="M274.3 511.41L289.986 437.263L282.379 431.115C271.964 445.661 271.021 485.274 274.3 511.41Z" fill="#393333"/>
<path d="M327.507 386.339C327.507 386.339 328.278 512.459 330.271 564.626C332.093 610.815 333.443 706.021 333.443 706.021L306.636 707.564C306.636 707.564 295.921 603.81 291.636 556.978C287.886 514.13 270.7 386.703 270.7 386.703L327.507 386.339Z" fill="#263238"/>
<path d="M302.629 698.373L335.8 697.087L335.029 706.578L305.607 708.271L302.629 698.373Z" fill="#FFCF5C"/>
<path d="M204.443 683.334L234.036 695.331L229.107 704.136L203.136 693.639L204.443 683.334Z" fill="#FFCF5C"/>
<path d="M308.393 728.26C307.396 728.386 306.385 728.175 305.521 727.66C305.236 727.451 305.01 727.171 304.867 726.848C304.724 726.524 304.669 726.169 304.707 725.817C304.686 725.612 304.725 725.405 304.82 725.222C304.915 725.039 305.062 724.888 305.243 724.788C306.807 723.867 311.671 726.481 312.25 726.803C312.31 726.83 312.359 726.876 312.39 726.934C312.421 726.993 312.432 727.059 312.421 727.124C312.416 727.192 312.391 727.257 312.349 727.31C312.307 727.363 312.25 727.403 312.186 727.424C310.959 727.852 309.686 728.132 308.393 728.26ZM306.036 725.346C305.887 725.314 305.734 725.314 305.586 725.346C305.522 725.397 305.471 725.462 305.437 725.537C305.404 725.611 305.389 725.693 305.393 725.774C305.374 726.011 305.415 726.25 305.512 726.467C305.609 726.684 305.76 726.873 305.95 727.017C307.62 727.693 309.487 727.693 311.157 727.017C309.573 726.14 307.834 725.579 306.036 725.367V725.346Z" fill="#FFCF5C"/>
<path d="M312.036 727.509H311.886C310.321 726.802 307.193 723.76 307.429 722.067C307.459 721.808 307.582 721.568 307.775 721.391C307.967 721.214 308.217 721.112 308.479 721.103C308.739 721.052 309.007 721.056 309.265 721.115C309.524 721.174 309.767 721.287 309.979 721.446C311.736 722.753 312.357 727.016 312.379 727.123C312.383 727.185 312.372 727.247 312.345 727.303C312.319 727.36 312.279 727.408 312.229 727.445L312.036 727.509ZM308.757 721.767H308.586C308.157 721.767 308.114 722.067 308.114 722.175C307.986 723.117 309.979 725.452 311.564 726.459C311.35 724.805 310.658 723.248 309.571 721.982C309.333 721.818 309.045 721.742 308.757 721.767Z" fill="#FFCF5C"/>
<path d="M202.857 714.633C200.478 714.162 196.428 713.091 195.421 711.249C195.258 710.957 195.172 710.629 195.172 710.295C195.172 709.961 195.258 709.633 195.421 709.342C195.502 709.17 195.625 709.021 195.779 708.908C195.932 708.796 196.111 708.724 196.3 708.699C198.314 708.485 202.729 713.412 203.157 714.012C203.198 714.072 203.219 714.143 203.219 714.216C203.219 714.288 203.198 714.359 203.157 714.419C203.133 714.48 203.092 714.532 203.038 714.57C202.985 714.608 202.922 714.63 202.857 714.633ZM196.428 709.428C196.355 709.433 196.285 709.46 196.228 709.506C196.171 709.552 196.128 709.614 196.107 709.685C196.013 709.867 195.964 710.069 195.964 710.274C195.964 710.479 196.013 710.681 196.107 710.863C196.664 711.956 198.85 713.005 201.978 713.712C200.2 711.784 197.693 709.428 196.493 709.428H196.428Z" fill="#FFCF5C"/>
<path d="M202.857 714.633C202.812 714.636 202.767 714.628 202.726 714.609C202.685 714.59 202.649 714.562 202.621 714.526C201.25 713.112 199.214 708.87 200.071 707.414C200.286 707.092 200.714 706.749 201.636 707.007C201.969 707.105 202.28 707.269 202.548 707.49C202.817 707.711 203.039 707.984 203.2 708.292C203.836 710.27 203.836 712.398 203.2 714.376C203.18 714.434 203.146 714.486 203.101 714.527C203.056 714.568 203.002 714.597 202.943 714.612L202.857 714.633ZM201.036 707.606C200.965 707.599 200.894 707.611 200.829 707.641C200.765 707.671 200.71 707.719 200.671 707.778C200.157 708.656 201.421 711.848 202.686 713.519C203.165 711.921 203.128 710.211 202.578 708.635C202.47 708.404 202.312 708.2 202.116 708.037C201.92 707.874 201.69 707.756 201.443 707.692C201.308 707.67 201.17 707.67 201.036 707.692V707.606Z" fill="#FFCF5C"/>
<path d="M318.314 253.513C318.314 253.513 317.736 253.277 316.536 252.934L314.007 252.613L310.193 251.606C308.907 252.442 290.371 264.46 284.479 266.774L282.657 267.053C279.612 262.114 277.961 256.443 277.879 250.642H275.736C275.042 251.251 274.199 251.665 273.293 251.842L271.536 252.035L266.007 255.912C266.007 255.912 253.836 280.528 249.293 342.399L247.15 389.231L335.264 391.738L318.314 253.513Z" fill="#FFCF5C"/>
<g opacity="0.4">
<path opacity="0.4" d="M280.021 262.082C280.013 262.146 280.013 262.211 280.021 262.275V262.103V262.082Z" fill="#393333"/>
</g>
<path d="M280.021 262.082C280.013 262.146 280.013 262.211 280.021 262.275V262.103V262.082Z" fill="#FFCF5C"/>
<path d="M277.75 250.599C277.75 250.599 265.129 255.505 259.579 289.161C254.029 322.818 255.464 329.287 253.6 376.998C253.129 389.145 253.171 401.206 244.064 399.707C244.064 399.707 243.529 402.042 245.864 349.254C248.2 296.467 244.879 250.641 277.75 250.599Z" fill="#FFCF5C"/>
<g opacity="0.6">
<path opacity="0.6" d="M277.75 250.599C277.75 250.599 265.129 255.505 259.579 289.161C254.029 322.818 255.464 329.287 253.6 376.998C253.129 389.145 253.171 401.206 244.064 399.707C244.064 399.707 243.529 402.042 245.864 349.254C248.2 296.467 244.879 250.641 277.75 250.599Z" fill="#393333"/>
</g>
<path d="M315.186 251.67C315.186 251.67 299.971 259.554 296.8 312.17C293.629 364.786 283.836 400.242 301.536 402.406C319.236 404.57 338.929 395.165 338.929 395.165C338.929 395.165 340.579 399.985 337.964 375.691C335.821 355.403 336.893 371.899 335.607 352.682C334.129 330.466 347.971 269.794 340.386 263.474C332.8 257.154 315.186 251.67 315.186 251.67Z" fill="#FFCF5C"/>
<g opacity="0.6">
<path opacity="0.6" d="M315.186 251.67C315.186 251.67 299.971 259.554 296.8 312.17C293.629 364.786 283.836 400.242 301.536 402.406C319.236 404.57 338.929 395.165 338.929 395.165C338.929 395.165 340.579 399.985 337.964 375.691C335.821 355.403 336.893 371.899 335.607 352.682C334.129 330.466 347.971 269.794 340.386 263.474C332.8 257.154 315.186 251.67 315.186 251.67Z" fill="#393333"/>
</g>
<g opacity="0.3">
<path opacity="0.3" d="M309.926 367.319L320.783 366.073C322.629 365.861 324.316 364.924 325.471 363.469C326.627 362.014 327.157 360.16 326.945 358.314L326.764 356.739L301.984 359.583L302.165 361.158C302.377 363.004 303.314 364.69 304.769 365.846C306.225 367.001 308.08 367.531 309.926 367.319Z" fill="#393333"/>
</g>
<path d="M272.114 307.48L252.186 304.266L246.036 296.211C245.329 295.284 244.321 294.633 243.186 294.368L236.221 292.676C235.456 292.499 234.66 292.499 233.895 292.678C233.13 292.856 232.415 293.207 231.807 293.704L229.278 295.847C228.4 296.556 227.794 297.548 227.564 298.653L226.836 301.931C226.624 302.898 226.7 303.907 227.054 304.832C227.408 305.757 228.025 306.558 228.828 307.137L238.836 314.335C239.615 314.908 240.548 315.236 241.514 315.278L250.278 315.77L273.443 322.069L272.114 307.48Z" fill="#FFC3BD"/>
<path d="M277.364 222.663C278.714 222.397 279.996 221.861 281.134 221.088C282.272 220.315 283.242 219.32 283.986 218.164C284.028 218.08 284.038 217.984 284.014 217.893C283.991 217.802 283.935 217.723 283.857 217.671C283.771 217.631 283.673 217.624 283.582 217.651C283.491 217.679 283.413 217.739 283.364 217.821C282.541 219.057 281.444 220.086 280.158 220.829C278.872 221.572 277.432 222.009 275.95 222.105C275.857 222.105 275.767 222.141 275.7 222.204C275.632 222.268 275.591 222.355 275.586 222.448C275.586 222.545 275.624 222.637 275.692 222.706C275.761 222.774 275.853 222.812 275.95 222.812C276.464 222.834 276.914 222.748 277.364 222.663Z" fill="#263238"/>
<path d="M310.129 251.542L281.65 276.95L280.536 274.936C276.74 267.408 275.723 258.782 277.664 250.578C277.663 254.505 278.39 258.398 279.807 262.061L283.322 254.177C283.389 256.347 283.698 258.502 284.243 260.604L286.15 258.697L291.464 262.982C299.372 258.526 309.207 252.163 310.129 251.542Z" fill="#FFCF5C"/>
<path opacity="0.2" d="M310.129 251.542L281.65 276.95L280.536 274.936C276.74 267.408 275.723 258.782 277.664 250.578C277.663 254.505 278.39 258.398 279.807 262.061L283.322 254.177C283.389 256.347 283.698 258.502 284.243 260.604L286.15 258.697L291.464 262.982C299.372 258.526 309.207 252.163 310.129 251.542Z" fill="white"/>
<path d="M284.436 260.519C280.235 262.724 276.284 265.374 272.65 268.424C273.036 265.467 273.421 262.532 273.786 259.597C274.018 256.451 274.779 253.365 276.036 250.471C276.681 249.025 277.681 247.766 278.944 246.811C280.206 245.856 281.69 245.236 283.257 245.008C283.514 245.008 284.05 244.494 284.307 244.494C283.159 249.779 283.203 255.253 284.436 260.519Z" fill="#FFCF5C"/>
<path opacity="0.6" d="M284.436 260.519C280.235 262.724 276.284 265.374 272.65 268.424C273.036 265.467 273.421 262.532 273.786 259.597C274.018 256.451 274.779 253.365 276.036 250.471C276.681 249.025 277.681 247.766 278.944 246.811C280.206 245.856 281.69 245.236 283.257 245.008C283.514 245.008 284.05 244.494 284.307 244.494C283.159 249.779 283.203 255.253 284.436 260.519Z" fill="white"/>
<path d="M284.436 260.519L294.443 271.016C294.443 271.016 310.364 253.878 310.193 249.014L302.628 242.587L284.436 260.519Z" fill="#FFCF5C"/>
<path opacity="0.6" d="M284.436 260.519L294.443 271.016C294.443 271.016 310.364 253.878 310.193 249.014L302.628 242.587L284.436 260.519Z" fill="white"/>
<path d="M289.557 265.875L284.543 271.166C284.23 271.509 283.844 271.777 283.414 271.952C282.984 272.126 282.52 272.202 282.057 272.173L278.521 271.68C278.243 271.615 277.992 271.464 277.804 271.249C277.616 271.034 277.5 270.765 277.471 270.481L278.95 263.754L284.457 260.54L289.557 265.875Z" fill="white"/>
<path d="M282.314 334.922C282.314 334.922 275.671 351.954 273.164 349.918C270.657 347.883 265.236 336.55 265.236 336.314C266.524 314.128 270.954 292.236 278.393 271.294L282.443 271.808C281.14 292.825 281.097 313.9 282.314 334.922Z" fill="white"/>
<path d="M262.364 304.029C259.943 305.657 255.657 319.732 262.771 321.789C269.929 324.703 301.471 335.929 317.136 333.401C321.25 332.758 325.236 331.387 327.571 327.938C338.364 312.202 344.904 293.944 346.557 274.936C346.964 270.244 346.257 264.224 338.693 262.917C335.775 263.259 332.962 264.215 330.44 265.722C327.917 267.228 325.742 269.251 324.057 271.658C315.679 285.605 315.079 296.788 308.436 311.441L262.364 304.029Z" fill="#FFCF5C"/>
<g opacity="0.6">
<path opacity="0.6" d="M262.364 304.029C259.943 305.657 255.657 319.732 262.771 321.789C269.929 324.703 301.471 335.929 317.136 333.401C321.25 332.758 325.236 331.387 327.571 327.938C338.364 312.202 344.904 293.944 346.557 274.936C346.964 270.244 346.257 264.224 338.693 262.917C335.775 263.259 332.962 264.215 330.44 265.722C327.917 267.228 325.742 269.251 324.057 271.658C315.679 285.605 315.079 296.788 308.436 311.441L262.364 304.029Z" fill="#393333"/>
</g>
<path d="M264.914 195.669C262.257 195.455 260.629 191.706 261.764 189.242C262.9 186.778 264.336 185.322 265.321 183.051C266.641 179.694 268.345 176.502 270.4 173.539C272.463 170.563 275.491 168.39 278.971 167.39C282.464 166.555 285.057 168.89 288.1 170.839C291.175 172.5 294.546 173.541 298.021 173.903C301.499 174.255 304.857 175.366 307.857 177.159C309.326 178.093 310.476 179.453 311.154 181.056C311.832 182.66 312.005 184.431 311.65 186.136C288.314 179.859 294.85 198.347 264.914 195.669Z" fill="#263238"/>
<path d="M214.257 236.374C214.257 233.674 214.257 230.975 214.107 228.297C214.107 227.333 214.107 226.155 214.922 225.705C215.736 225.255 217.321 225.705 217.793 226.84C218.264 227.976 219.314 236.867 219.464 238.216C218.221 239.652 214.279 238.238 214.257 236.374Z" fill="#FFC3BD"/>
<path d="M316.964 201.069C318.328 199.063 319.027 196.68 318.962 194.256C318.898 191.832 318.073 189.49 316.604 187.56C315.136 185.63 313.098 184.21 310.779 183.501C308.459 182.792 305.976 182.83 303.679 183.608C299.093 185.172 294.271 183.051 289.471 182.409C292.75 185.901 292.557 198.048 293.307 198.841C294.114 199.574 295.095 200.09 296.157 200.34C302.564 202.354 310.536 202.097 316.964 201.069Z" fill="#263238"/>
<path d="M383.029 38.7192C383.767 38.8079 384.514 38.6446 385.148 38.2558C385.782 37.8669 386.266 37.2753 386.521 36.5769L399.507 4.61292C399.672 4.20779 399.755 3.77421 399.752 3.33694C399.749 2.89967 399.66 2.46727 399.49 2.06442C399.32 1.66158 399.072 1.29618 398.76 0.989095C398.449 0.682005 398.08 0.439226 397.675 0.274644C397.27 0.110061 396.836 0.0268818 396.399 0.0298625C395.961 0.0328432 395.529 0.121928 395.126 0.292018C394.723 0.462109 394.357 0.709874 394.05 1.02118C393.743 1.33249 393.5 1.70124 393.336 2.10637L380.35 34.0703C380.037 34.8811 380.052 35.782 380.392 36.5819C380.732 37.3818 381.37 38.0179 382.171 38.355C382.438 38.5182 382.726 38.641 383.029 38.7192Z" fill="#FFCF5C"/>
<path d="M277.3 127.113C277.882 127.184 278.473 127.103 279.014 126.877L311.543 113.145C312.308 112.768 312.9 112.114 313.198 111.315C313.496 110.516 313.478 109.634 313.146 108.848C312.815 108.063 312.196 107.434 311.416 107.089C310.636 106.745 309.754 106.712 308.95 106.996L276.422 120.686C275.728 120.962 275.148 121.463 274.772 122.107C274.396 122.752 274.247 123.504 274.348 124.243C274.449 124.982 274.794 125.666 275.329 126.187C275.864 126.707 276.558 127.033 277.3 127.113Z" fill="#FFCF5C"/>
<path d="M414.764 69.0771C415.347 69.1474 415.937 69.0662 416.479 68.8415L447.679 55.6874C448.491 55.3437 449.134 54.6912 449.466 53.8736C449.797 53.056 449.79 52.1402 449.447 51.3277C449.103 50.5152 448.45 49.8725 447.632 49.5411C446.814 49.2096 445.898 49.2165 445.086 49.5603L413.972 62.6929C413.278 62.9693 412.697 63.4696 412.322 64.1142C411.946 64.7588 411.797 65.5106 411.898 66.2498C411.999 66.9891 412.344 67.6733 412.879 68.1934C413.414 68.7135 414.108 69.0397 414.85 69.12L414.764 69.0771Z" fill="#FFCF5C"/>
<path d="M309.764 70.4691C310.612 70.6779 311.509 70.5443 312.259 70.0972C313.009 69.6501 313.553 68.9255 313.773 68.0804C313.993 67.2352 313.871 66.3375 313.433 65.5816C312.996 64.8258 312.278 64.2726 311.436 64.042L278.393 50.7165C277.988 50.5519 277.554 50.4688 277.117 50.4718C276.679 50.4747 276.247 50.5638 275.844 50.7339C275.441 50.904 275.075 51.1518 274.768 51.4631C274.461 51.7744 274.218 52.1431 274.054 52.5482C273.889 52.9534 273.806 53.387 273.809 53.8242C273.812 54.2615 273.901 54.6939 274.071 55.0967C274.241 55.4996 274.489 55.865 274.8 56.1721C275.112 56.4792 275.481 56.7219 275.886 56.8865L308.843 70.2548C309.137 70.3745 309.448 70.4468 309.764 70.4691Z" fill="#FFCF5C"/>
<path d="M446.371 125.935C447.181 126.041 448.002 125.847 448.679 125.389C449.355 124.932 449.841 124.243 450.044 123.452C450.247 122.661 450.153 121.823 449.781 121.096C449.408 120.37 448.782 119.804 448.021 119.507L417.036 106.932C416.63 106.767 416.197 106.684 415.759 106.687C415.322 106.69 414.89 106.779 414.487 106.949C414.084 107.119 413.718 107.367 413.411 107.678C413.104 107.99 412.861 108.358 412.696 108.764C412.532 109.169 412.449 109.602 412.452 110.04C412.455 110.477 412.544 110.909 412.714 111.312C412.884 111.715 413.132 112.08 413.443 112.387C413.755 112.695 414.123 112.937 414.529 113.102L445.536 125.699C445.801 125.818 446.083 125.897 446.371 125.935Z" fill="#FFCF5C"/>
<path d="M339.7 39.7051C340.282 39.7847 340.875 39.7032 341.414 39.4695C342.211 39.129 342.842 38.4888 343.171 37.6871C343.5 36.8854 343.5 35.9865 343.171 35.1847L329.457 2.72806C329.34 2.26513 329.125 1.83281 328.826 1.46061C328.527 1.08841 328.151 0.785085 327.724 0.571286C327.297 0.357487 326.829 0.23825 326.352 0.221718C325.874 0.205186 325.399 0.291748 324.958 0.475489C324.518 0.659229 324.122 0.93583 323.797 1.28644C323.473 1.63705 323.229 2.05342 323.08 2.50716C322.931 2.9609 322.882 3.44133 322.936 3.91571C322.99 4.39009 323.146 4.84726 323.393 5.25604L337.107 37.7127C337.327 38.2427 337.682 38.7056 338.137 39.0552C338.592 39.4049 339.131 39.6289 339.7 39.7051Z" fill="#FFCF5C"/>
<path d="M397.193 175.808C397.777 175.873 398.368 175.784 398.907 175.551C399.704 175.21 400.337 174.571 400.669 173.771C401.001 172.97 401.007 172.071 400.686 171.266L387.529 139.967C387.152 139.202 386.497 138.61 385.698 138.312C384.899 138.014 384.017 138.032 383.231 138.364C382.445 138.695 381.816 139.314 381.472 140.093C381.127 140.873 381.094 141.755 381.379 142.559L394.536 173.709C394.755 174.261 395.116 174.746 395.583 175.115C396.049 175.483 396.605 175.722 397.193 175.808Z" fill="#FFCF5C"/>
<path d="M322.921 72.5251C327.367 62.1308 335.729 53.9052 346.196 49.6287C356.663 45.3523 368.394 45.3692 378.848 49.6758C389.303 53.9823 397.641 62.232 402.057 72.6391C406.473 83.0462 406.611 94.7733 402.443 105.282C395.886 121.2 378.871 126.705 365.564 136.067C361.471 138.96 355.728 153.678 355.728 153.678L322 139.795C322 139.795 328.279 125.291 327.421 120.364C324.593 104.468 316.364 88.55 322.921 72.5251Z" fill="#FFCF5C"/>
<path opacity="0.5" d="M322.921 72.5251C327.367 62.1308 335.729 53.9052 346.196 49.6287C356.663 45.3523 368.394 45.3692 378.848 49.6758C389.303 53.9823 397.641 62.232 402.057 72.6391C406.473 83.0462 406.611 94.7733 402.443 105.282C395.886 121.2 378.871 126.705 365.564 136.067C361.471 138.96 355.728 153.678 355.728 153.678L322 139.795C322 139.795 328.279 125.291 327.421 120.364C324.593 104.468 316.364 88.55 322.921 72.5251Z" fill="white"/>
<path d="M326.757 155.692L341.157 161.626C343.724 162.675 346.601 162.664 349.16 161.596C351.718 160.528 353.749 158.49 354.807 155.928L321.079 142.109C320.042 144.665 320.058 147.525 321.121 150.069C322.185 152.613 324.21 154.634 326.757 155.692Z" fill="#263238"/>
<path d="M329.821 168.804C331.914 169.648 334.255 169.634 336.338 168.764C338.42 167.893 340.074 166.237 340.943 164.155L325.171 157.728C324.339 159.815 324.361 162.145 325.23 164.216C326.1 166.288 327.749 167.935 329.821 168.804Z" fill="#263238"/>
<path opacity="0.5" d="M329.821 168.804C331.914 169.648 334.255 169.634 336.338 168.764C338.42 167.893 340.074 166.237 340.943 164.155L325.171 157.728C324.339 159.815 324.361 162.145 325.23 164.216C326.1 166.288 327.749 167.935 329.821 168.804Z" fill="white"/>
<g opacity="0.7">
<path opacity="0.7" d="M326.757 155.692L341.157 161.626C343.724 162.675 346.601 162.664 349.16 161.596C351.718 160.528 353.749 158.49 354.807 155.928L321.079 142.109C320.042 144.665 320.058 147.525 321.121 150.069C322.185 152.613 324.21 154.634 326.757 155.692Z" fill="white"/>
</g>
<path opacity="0.3" d="M330.636 67.1271C320.457 92.1927 324.614 126.985 343.986 134.868C363.357 142.752 391.986 117.323 400.793 95.599C406.236 82.2307 394.921 65.0062 375.55 57.0366C356.179 49.067 336.057 53.716 330.636 67.1271Z" fill="white"/>
<path opacity="0.4" d="M333.079 96.5196C331.262 100.987 330.812 105.893 331.784 110.617C332.757 115.34 335.109 119.669 338.543 123.056C341.977 126.443 346.339 128.736 351.076 129.644C355.814 130.553 360.714 130.036 365.158 128.159C369.602 126.283 373.389 123.131 376.04 119.102C378.692 115.073 380.089 110.349 380.054 105.526C380.02 100.704 378.555 95.9996 375.846 92.0092C373.137 88.0188 369.306 84.9213 364.836 83.1085C361.87 81.9026 358.695 81.293 355.494 81.3145C352.292 81.336 349.126 81.9881 346.177 83.2337C343.228 84.4792 340.553 86.2937 338.305 88.5734C336.058 90.8531 334.282 93.5533 333.079 96.5196Z" fill="white"/>
<path opacity="0.4" d="M337.643 105.026C334.086 113.788 340.107 119.337 348.872 122.893C357.636 126.449 365.822 126.664 369.379 117.901C372.936 109.139 366.872 103.719 358.107 100.163C349.343 96.6064 341.222 96.2636 337.643 105.026Z" fill="white"/>
<path d="M364.108 108.118L366.109 109.1L346.139 149.799L344.138 148.818L364.108 108.118Z" fill="#FFCF5C"/>
<path d="M345.764 100.831L347.883 101.522L333.818 144.618L331.7 143.927L345.764 100.831Z" fill="#FFCF5C"/>
<path d="M349.107 121.649L361.664 116.336L360.807 114.301L350.286 118.736L345.914 108.41L343.878 109.267L349.107 121.649Z" fill="#FFCF5C"/>
<path d="M349.107 238.365C349.948 238.365 350.755 238.031 351.35 237.437C351.944 236.842 352.278 236.036 352.278 235.195V215.507C352.278 214.654 351.94 213.837 351.337 213.234C350.734 212.632 349.917 212.293 349.064 212.293C348.212 212.293 347.394 212.632 346.791 213.234C346.189 213.837 345.85 214.654 345.85 215.507V235.195C345.853 235.618 345.939 236.036 346.105 236.425C346.271 236.814 346.512 237.166 346.815 237.461C347.118 237.756 347.477 237.988 347.87 238.143C348.264 238.298 348.684 238.374 349.107 238.365Z" fill="#FFCF5C"/>
<path d="M339.228 228.532H358.921C359.774 228.532 360.591 228.194 361.194 227.591C361.797 226.988 362.136 226.171 362.136 225.319C362.136 224.466 361.797 223.649 361.194 223.046C360.591 222.444 359.774 222.105 358.921 222.105H339.228C338.376 222.105 337.558 222.444 336.956 223.046C336.353 223.649 336.014 224.466 336.014 225.319C336.014 226.171 336.353 226.988 336.956 227.591C337.558 228.194 338.376 228.532 339.228 228.532Z" fill="#FFCF5C"/>
<g opacity="0.5">
<path opacity="0.5" d="M349.107 238.365C349.948 238.365 350.755 238.031 351.35 237.437C351.944 236.842 352.278 236.036 352.278 235.195V215.507C352.278 214.654 351.94 213.837 351.337 213.234C350.734 212.632 349.917 212.293 349.064 212.293C348.212 212.293 347.394 212.632 346.791 213.234C346.189 213.837 345.85 214.654 345.85 215.507V235.195C345.853 235.618 345.939 236.036 346.105 236.425C346.271 236.814 346.512 237.166 346.815 237.461C347.118 237.756 347.477 237.988 347.87 238.143C348.264 238.298 348.684 238.374 349.107 238.365Z" fill="white"/>
<path opacity="0.5" d="M339.228 228.532H358.921C359.774 228.532 360.591 228.194 361.194 227.591C361.797 226.988 362.136 226.171 362.136 225.319C362.136 224.466 361.797 223.649 361.194 223.046C360.591 222.444 359.774 222.105 358.921 222.105H339.228C338.376 222.105 337.558 222.444 336.956 223.046C336.353 223.649 336.014 224.466 336.014 225.319C336.014 226.171 336.353 226.988 336.956 227.591C337.558 228.194 338.376 228.532 339.228 228.532Z" fill="white"/>
</g>
<path d="M227.693 189.413C229.011 189.413 230.276 188.889 231.208 187.957C232.14 187.025 232.664 185.761 232.664 184.443V153.764C232.581 152.505 232.023 151.325 231.101 150.462C230.18 149.6 228.965 149.12 227.703 149.12C226.441 149.12 225.227 149.6 224.305 150.462C223.384 151.325 222.826 152.505 222.743 153.764V184.443C222.74 185.095 222.866 185.74 223.113 186.343C223.361 186.946 223.725 187.494 224.185 187.956C224.645 188.418 225.191 188.784 225.793 189.034C226.395 189.284 227.041 189.413 227.693 189.413Z" fill="#FFCF5C"/>
<path d="M212.35 174.074H243.036C243.714 174.119 244.395 174.023 245.036 173.794C245.677 173.565 246.263 173.207 246.76 172.742C247.256 172.277 247.652 171.716 247.923 171.091C248.194 170.467 248.333 169.794 248.333 169.114C248.333 168.434 248.194 167.761 247.923 167.137C247.652 166.513 247.256 165.951 246.76 165.486C246.263 165.021 245.677 164.663 245.036 164.434C244.395 164.205 243.714 164.11 243.036 164.155H212.35C211.091 164.238 209.91 164.796 209.047 165.717C208.185 166.638 207.705 167.853 207.705 169.114C207.705 170.376 208.185 171.591 209.047 172.512C209.91 173.433 211.091 173.991 212.35 174.074Z" fill="#FFCF5C"/>
<g opacity="0.5">
<path opacity="0.5" d="M227.693 189.413C229.011 189.413 230.276 188.889 231.208 187.957C232.14 187.025 232.664 185.761 232.664 184.443V153.764C232.581 152.505 232.023 151.325 231.102 150.462C230.18 149.6 228.966 149.12 227.703 149.12C226.441 149.12 225.227 149.6 224.305 150.462C223.384 151.325 222.826 152.505 222.743 153.764V184.443C222.74 185.095 222.866 185.74 223.113 186.343C223.361 186.946 223.725 187.494 224.185 187.956C224.645 188.418 225.192 188.784 225.794 189.034C226.396 189.284 227.041 189.413 227.693 189.413Z" fill="white"/>
<path opacity="0.5" d="M212.35 174.074H243.036C243.714 174.119 244.395 174.023 245.036 173.794C245.677 173.565 246.263 173.207 246.76 172.742C247.256 172.277 247.652 171.716 247.923 171.091C248.194 170.467 248.333 169.794 248.333 169.114C248.333 168.434 248.194 167.761 247.923 167.137C247.652 166.513 247.256 165.951 246.76 165.486C246.263 165.021 245.677 164.663 245.036 164.434C244.395 164.205 243.714 164.11 243.036 164.155H212.35C211.091 164.238 209.91 164.796 209.047 165.717C208.185 166.638 207.705 167.853 207.705 169.114C207.705 170.376 208.185 171.591 209.047 172.512C209.91 173.433 211.091 173.991 212.35 174.074Z" fill="white"/>
</g>
</g>
<defs>
<clipPath id="clip0">
<rect width="450" height="765" fill="white" transform="matrix(-1 0 0 1 450 0)"/>
</clipPath>
</defs>
</svg>
