<svg width="40" height="40" viewBox="0 0 40 40" fill="none" xmlns="http://www.w3.org/2000/svg">
<path d="M35.4589 37.614H4.54106C2.03729 37.614 0 35.5767 0 33.0729V6.85991C0 4.35614 2.03729 2.31885 4.54106 2.31885H35.4589C37.9627 2.31885 40 4.35614 40 6.85991V33.0729C40 35.5767 37.9627 37.614 35.4589 37.614ZM4.54106 3.6715C2.78306 3.6715 1.35266 5.10191 1.35266 6.85991V33.0729C1.35266 34.8309 2.78306 36.2613 4.54106 36.2613H35.4589C37.2169 36.2613 38.6473 34.8309 38.6473 33.0729V6.85991C38.6473 5.10191 37.2169 3.6715 35.4589 3.6715H4.54106Z" fill="#393333"/>
<path d="M39.3237 11.3749H0.676328C0.302687 11.3749 0 11.0722 0 10.6985C0 10.3249 0.302687 10.0222 0.676328 10.0222H39.3237C39.6973 10.0222 40 10.3249 40 10.6985C40 11.0722 39.6973 11.3749 39.3237 11.3749Z" fill="#393333"/>
<path d="M9.75017 8.96431C8.58962 8.96431 7.64532 8.02039 7.64532 6.85984C7.64532 5.69929 8.58962 4.75537 9.75017 4.75537C10.9107 4.75537 11.8546 5.69929 11.8546 6.85984C11.8546 8.02039 10.9107 8.96431 9.75017 8.96431ZM9.75017 6.10803C9.33539 6.10803 8.99798 6.44544 8.99798 6.85984C8.99798 7.27424 9.33539 7.61165 9.75017 7.61165C10.1646 7.61165 10.502 7.27424 10.502 6.85984C10.502 6.44544 10.1646 6.10803 9.75017 6.10803Z" fill="#393333"/>
<path d="M4.87699 8.96431C3.71682 8.96431 2.77252 8.02039 2.77252 6.85984C2.77252 5.69929 3.71682 4.75537 4.87699 4.75537C6.03754 4.75537 6.98184 5.69929 6.98184 6.85984C6.98184 8.02039 6.03754 8.96431 4.87699 8.96431ZM4.87699 6.10803C4.46259 6.10803 4.12518 6.44544 4.12518 6.85984C4.12518 7.27424 4.46259 7.61165 4.87699 7.61165C5.29177 7.61165 5.62918 7.27424 5.62918 6.85984C5.62918 6.44544 5.29177 6.10803 4.87699 6.10803Z" fill="#393333"/>
<path d="M14.623 8.96431C13.4624 8.96431 12.5185 8.02039 12.5185 6.85984C12.5185 5.69929 13.4624 4.75537 14.623 4.75537C15.7835 4.75537 16.7278 5.69929 16.7278 6.85984C16.7278 8.02039 15.7835 8.96431 14.623 8.96431ZM14.623 6.10803C14.2082 6.10803 13.8712 6.44544 13.8712 6.85984C13.8712 7.27424 14.2086 7.61165 14.623 7.61165C15.0377 7.61165 15.3752 7.27424 15.3752 6.85984C15.3752 6.44544 15.0377 6.10803 14.623 6.10803Z" fill="#393333"/>
<path d="M18.4462 23.3775H3.95416C3.58052 23.3775 3.27783 23.0744 3.27783 22.7011V15.879C3.27783 15.5053 3.58052 15.2026 3.95416 15.2026H18.4462C18.8198 15.2026 19.1225 15.5053 19.1225 15.879V22.7011C19.1225 23.0744 18.8198 23.3775 18.4462 23.3775ZM4.63049 22.0248H17.7698V16.5553H4.63049V22.0248Z" fill="#393333"/>
<path d="M3.96173 23.348C3.70698 23.348 3.46317 23.2035 3.34843 22.9578C3.1903 22.6192 3.33673 22.2169 3.67527 22.0588L18.168 15.2955C18.5066 15.1377 18.9089 15.2838 19.067 15.6223C19.2248 15.9609 19.0787 16.3632 18.7402 16.5213L4.24744 23.2846C4.15497 23.3276 4.0576 23.348 3.96173 23.348Z" fill="#393333"/>
<path d="M18.4538 23.348C18.3579 23.348 18.2605 23.3276 18.168 23.2846L3.67529 16.5213C3.33675 16.3632 3.19069 15.9609 3.34845 15.6223C3.50659 15.2838 3.90891 15.1377 4.24746 15.2955L18.7402 22.0588C19.0788 22.2169 19.2252 22.6192 19.0671 22.9578C18.9523 23.2035 18.7085 23.348 18.4538 23.348Z" fill="#393333"/>
<path d="M36.0477 23.3775H21.5553C21.182 23.3775 20.879 23.0744 20.879 22.7011V15.879C20.879 15.5053 21.182 15.2026 21.5553 15.2026H36.0477C36.4213 15.2026 36.724 15.5053 36.724 15.879V22.7011C36.724 23.0744 36.4213 23.3775 36.0477 23.3775ZM22.2316 22.0248H35.3714V16.5553H22.2316V22.0248Z" fill="#393333"/>
<path d="M36.0382 23.348C35.9424 23.348 35.845 23.3276 35.7525 23.2846L21.2598 16.5213C20.9213 16.3632 20.7748 15.9609 20.933 15.6223C21.0911 15.2838 21.4938 15.1377 21.832 15.2955L36.3247 22.0588C36.6632 22.2169 36.8097 22.6192 36.6515 22.9578C36.5368 23.2035 36.293 23.348 36.0382 23.348Z" fill="#393333"/>
<path d="M18.4446 28.2123C18.4443 28.2123 18.4443 28.2123 18.4443 28.2123L3.95189 28.2047C3.57825 28.2043 3.27556 27.9016 3.27594 27.528C3.27594 27.1547 3.579 26.8521 3.95227 26.8521H3.95265L18.4446 26.8596C18.8183 26.8596 19.121 27.1627 19.121 27.5363C19.1206 27.9096 18.8179 28.2123 18.4446 28.2123Z" fill="#393333"/>
<path d="M12.6475 32.077C12.6472 32.077 12.6472 32.077 12.6468 32.077L3.95151 32.0695C3.57825 32.0691 3.27556 31.766 3.27594 31.3924C3.27632 31.0191 3.57901 30.7168 3.95227 30.7168H3.95265L12.6479 30.7243C13.0216 30.7243 13.3243 31.0278 13.3239 31.401C13.3235 31.7743 13.0208 32.077 12.6475 32.077Z" fill="#393333"/>
<path d="M36.0477 28.2084H21.5553C21.182 28.2084 20.879 27.9057 20.879 27.532C20.879 27.1584 21.182 26.8557 21.5553 26.8557H36.0477C36.4213 26.8557 36.724 27.1584 36.724 27.532C36.724 27.9057 36.4213 28.2084 36.0477 28.2084Z" fill="#393333"/>
<path d="M30.2506 32.0731H21.5553C21.182 32.0731 20.879 31.7704 20.879 31.3968C20.879 31.0231 21.182 30.7205 21.5553 30.7205H30.2506C30.6242 30.7205 30.9269 31.0231 30.9269 31.3968C30.9269 31.7704 30.6242 32.0731 30.2506 32.0731Z" fill="#393333"/>
</svg>
