<svg width="50" height="50" viewBox="0 0 50 50" fill="none" xmlns="http://www.w3.org/2000/svg">
<path d="M47.8956 37.5439L36.8132 26.445C36.6294 26.2703 36.3855 26.1728 36.1319 26.1728C35.8783 26.1728 35.6344 26.2703 35.4505 26.445L33.2527 28.6428L30.6648 26.0603L36.9121 19.7801C39.522 19.6428 43 19.6537 43.1538 19.6318C43.8022 19.5329 45.044 18.5329 49.2473 12.879C49.364 12.7191 49.4292 12.5275 49.4341 12.3296V9.78561C49.4337 9.61625 49.3888 9.44997 49.3039 9.3034C49.2191 9.15684 49.0972 9.03512 48.9506 8.95045C48.8041 8.86392 48.6371 8.81828 48.467 8.81828C48.2969 8.81828 48.13 8.86392 47.9835 8.95045L43.5385 11.5878C43.1593 11.7087 41.4945 12.0988 40.0714 10.0713C38.533 7.87352 39.2198 6.81858 40.1923 5.98891C41.6445 4.95142 43.1523 3.99396 44.7088 3.12078C44.8493 3.03869 44.9671 2.92284 45.0515 2.78372C45.136 2.6446 45.1844 2.48661 45.1923 2.32407C45.1984 2.16177 45.1634 2.00055 45.0903 1.85547C45.0173 1.71039 44.9087 1.58617 44.7747 1.4944C44.6374 1.401 41.2912 -0.835269 35.544 1.39001C31.1044 3.10429 30.4835 5.36253 30.4286 5.61528L29.4835 12.2911L23.1978 18.5823L17.5824 12.9504C17.8258 12.3383 17.9525 11.6861 17.956 11.0274C17.9574 10.3433 17.823 9.66567 17.5609 9.03379C17.2987 8.40191 16.9138 7.82827 16.4286 7.34605C16.3826 7.29782 16.331 7.25539 16.2747 7.21968L6.76373 1.03286C6.57996 0.911242 6.35981 0.856842 6.14054 0.878869C5.92128 0.900896 5.71635 0.997998 5.56044 1.15374L1.60989 5.10429C1.45414 5.2602 1.35704 5.46513 1.33501 5.6844C1.31299 5.90367 1.36739 6.12382 1.48901 6.30759L7.69231 15.8021C7.72969 15.8571 7.77199 15.9086 7.81868 15.9559C8.29979 16.4408 8.87256 16.825 9.50364 17.0863C10.1347 17.3476 10.8115 17.4808 11.4945 17.4779C12.1549 17.479 12.8095 17.354 13.4231 17.1098L19.0385 22.7417L12.1593 29.6208L5.56593 30.5548H5.4945C5.24176 30.6153 2.98901 31.2307 1.26923 35.6757C-0.928574 41.423 1.26923 44.7636 1.37912 44.9065C1.46996 45.0392 1.59229 45.1473 1.73517 45.2212C1.87804 45.295 2.037 45.3322 2.1978 45.3296C2.35946 45.3238 2.51697 45.2769 2.65543 45.1932C2.79388 45.1096 2.9087 44.992 2.98901 44.8515C3.86291 43.2954 4.82035 41.7877 5.85714 40.3351C6.68681 39.3625 7.75824 38.6867 9.94505 40.2087C11.978 41.6428 11.5934 43.3186 11.4615 43.6757L8.82417 48.1208C8.73626 48.2662 8.68872 48.4325 8.68643 48.6024C8.68414 48.7724 8.72719 48.9398 8.81114 49.0876C8.8951 49.2354 9.01693 49.3581 9.16409 49.4431C9.31124 49.5281 9.4784 49.5724 9.64835 49.5713H12.1923C12.3913 49.5678 12.584 49.5004 12.7418 49.379C18.511 45.1153 19.4286 43.8845 19.5055 43.2636C19.5055 43.1318 19.5055 39.6537 19.6429 37.0494L26.5055 30.2197L29.1209 32.7966L26.9231 34.9944C26.7432 35.1756 26.6423 35.4205 26.6423 35.6757C26.6423 35.931 26.7432 36.1759 26.9231 36.357L38.022 47.4504C39.2685 48.6952 40.9581 49.3944 42.7198 49.3944C44.4814 49.3944 46.171 48.6952 47.4176 47.4504L47.9176 46.9504C48.5359 46.3343 49.0265 45.6022 49.3613 44.796C49.6961 43.9899 49.8684 43.1255 49.8684 42.2526C49.8684 41.3797 49.6961 40.5154 49.3613 39.7093C49.0265 38.9031 48.5359 38.171 47.9176 37.5548L47.8956 37.5439ZM31.0714 13.4285C31.2173 13.2786 31.3116 13.0861 31.3407 12.879L32.3132 6.04385C32.3736 5.89001 33.0165 4.45594 36.2363 3.20869C38.0554 2.41723 40.0638 2.16547 42.022 2.48341C40.953 3.10195 39.9235 3.78642 38.9396 4.53286C36.2967 6.7966 37.2418 9.3955 38.4945 11.1812C40.456 13.9669 43.1593 13.8296 44.3077 13.379C44.3517 13.379 47.511 11.4944 47.511 11.4944V12.0439C45.7088 14.4614 43.5385 17.1482 42.8022 17.7417C41.5385 17.6757 38.022 17.8461 36.4451 17.934C36.2069 17.9453 35.9815 18.0452 35.8132 18.2142L29.3077 24.6867L27.6593 23.0384L33.9341 16.7362C34.0363 16.6504 34.1196 16.5442 34.1786 16.4244C34.2376 16.3047 34.271 16.1739 34.2767 16.0405C34.2824 15.9072 34.2602 15.7741 34.2117 15.6497C34.1631 15.5254 34.0891 15.4125 33.9946 15.3183C33.9 15.2241 33.7868 15.1506 33.6622 15.1025C33.5377 15.0544 33.4045 15.0328 33.2711 15.0391C33.1378 15.0453 33.0072 15.0792 32.8877 15.1387C32.7681 15.1982 32.6623 15.2819 32.5769 15.3845L26.2857 21.6702L24.5604 19.9395L31.0714 13.4285ZM11.478 15.5548C10.6422 15.5589 9.83709 15.24 9.23077 14.6647L3.52198 5.91198L6.36813 3.06583L15.1209 8.79111C15.703 9.41378 16.0214 10.2378 16.0091 11.0901C15.9968 11.9425 15.6548 12.7569 15.0549 13.3625L13.7967 14.6208C13.4925 14.9254 13.131 15.1667 12.733 15.3308C12.3351 15.4949 11.9085 15.5785 11.478 15.5768V15.5548ZM18.0385 35.9559C17.869 36.1216 17.7688 36.3455 17.7582 36.5823C17.6703 38.1647 17.5 41.6757 17.5714 42.9395C16.978 43.6757 14.2747 45.8515 11.8681 47.6537H11.3187C11.3187 47.6537 13.1868 44.5054 13.2198 44.4504C13.6868 43.2966 13.8297 40.6043 11.022 38.6373C9.23626 37.3845 6.62637 36.4395 4.36813 39.0823C3.6223 40.0667 2.93785 41.0961 2.31868 42.1647C2.00026 40.206 2.25401 38.197 3.04945 36.379C4.3022 33.1318 5.74176 32.5329 5.88461 32.4504L12.7473 31.4779C12.9551 31.4512 13.1482 31.3565 13.2967 31.2087L20.3956 24.0988L22.1264 25.8241L15.1868 32.7691C15.0966 32.8576 15.0249 32.9632 14.976 33.0797C14.9271 33.1962 14.9019 33.3213 14.9019 33.4477C14.9019 33.5741 14.9271 33.6992 14.976 33.8157C15.0249 33.9322 15.0966 34.0378 15.1868 34.1263C15.2753 34.2165 15.3809 34.2881 15.4974 34.3371C15.6139 34.386 15.739 34.4112 15.8654 34.4112C15.9917 34.4112 16.1168 34.386 16.2334 34.3371C16.3499 34.2881 16.4555 34.2165 16.544 34.1263L23.4835 27.1867L25.1319 28.8351L18.0385 35.9559ZM15.0604 16.0439L15.1593 15.9559L16.4121 14.7032L16.5 14.6043L31.8846 29.9889L30.4451 31.4285L15.0604 16.0439ZM46.5385 45.6043L46.0385 46.1098C45.1509 46.9929 43.9498 47.4886 42.6978 47.4886C41.4458 47.4886 40.2447 46.9929 39.3571 46.1098L28.9451 35.6702L31.1429 33.4724L33.9451 30.6757L36.1429 28.4779L46.5824 38.9175C47.0203 39.3585 47.3666 39.8817 47.6015 40.4571C47.8365 41.0324 47.9553 41.6486 47.9512 42.27C47.9471 42.8915 47.8202 43.506 47.5777 44.0782C47.3353 44.6504 46.9821 45.1691 46.5385 45.6043Z" fill="#393333"/>
<path d="M35.5385 33.7253C35.45 33.6351 35.3444 33.5635 35.2279 33.5145C35.1114 33.4656 34.9863 33.4404 34.8599 33.4404C34.7336 33.4404 34.6085 33.4656 34.4919 33.5145C34.3754 33.5635 34.2698 33.6351 34.1814 33.7253C34.0018 33.9055 33.9011 34.1495 33.9011 34.4039C33.9011 34.6583 34.0018 34.9023 34.1814 35.0825L42.4231 43.3242C42.5126 43.4137 42.6188 43.4847 42.7357 43.5331C42.8526 43.5815 42.9779 43.6064 43.1044 43.6064C43.231 43.6064 43.3563 43.5815 43.4732 43.5331C43.5901 43.4847 43.6963 43.4137 43.7858 43.3242C43.8752 43.2348 43.9462 43.1285 43.9946 43.0116C44.043 42.8947 44.068 42.7694 44.068 42.6429C44.068 42.5164 44.043 42.3911 43.9946 42.2742C43.9462 42.1573 43.8752 42.0511 43.7858 41.9616L35.5385 33.7253Z" fill="#393333"/>
</svg>
