<?xml version="1.0" encoding="utf-8"?>
<!-- Generator: Adobe Illustrator 18.0.0, SVG Export Plug-In . SVG Version: 6.00 Build 0)  -->
<!DOCTYPE svg PUBLIC "-//W3C//DTD SVG 1.1//EN" "http://www.w3.org/Graphics/SVG/1.1/DTD/svg11.dtd">
<svg version="1.1" id="Layer_1" xmlns="http://www.w3.org/2000/svg" xmlns:xlink="http://www.w3.org/1999/xlink" x="0px" y="0px"
	 viewBox="0 0 114.9 28.7" enable-background="new 0 0 114.9 28.7" xml:space="preserve">
<path fill-rule="evenodd" clip-rule="evenodd" fill="#FFFFFF" d="M0.1,2.4C0,2.5,0,2.7,0,2.8v11.1v11.1c0,0.5,0.3,0.9,0.7,1.1
	l11.6-11.7L0.1,2.4z"/>
<polygon fill-rule="evenodd" clip-rule="evenodd" fill="#FFFFFF" points="13.3,15.6 3.3,25.7 16.4,18.6 "/>
<path fill-rule="evenodd" clip-rule="evenodd" fill="#FFFFFF" d="M17.8,17.8l5-2.7c0.4-0.2,0.7-0.6,0.7-0.9c0-0.3-0.2-0.6-0.7-0.9
	l-4.6-2.5l-3.7,3.7L17.8,17.8z"/>
<path fill-rule="evenodd" clip-rule="evenodd" fill="#FFFFFF" d="M13.4,13.5l3.5-3.5L2.1,1.9C1.9,1.8,1.8,1.8,1.5,1.7L13.4,13.5z"/>
<g>
	<path fill="#FFFFFF" d="M41.8,23.8c-0.1,0.2-0.3,0.3-0.5,0.5c-0.2,0.2-0.5,0.4-0.8,0.5s-0.7,0.3-1.2,0.4s-1,0.2-1.7,0.2
		c-0.7,0-1.4-0.1-2-0.4s-1.1-0.6-1.5-1.1c-0.4-0.5-0.8-1-1-1.7c-0.2-0.7-0.4-1.5-0.4-2.3v-0.8c0-0.9,0.1-1.6,0.3-2.3
		s0.5-1.3,0.9-1.7s0.9-0.8,1.5-1.1c0.6-0.2,1.2-0.4,2-0.4c0.7,0,1.3,0.1,1.8,0.3s1,0.4,1.3,0.8c0.4,0.3,0.6,0.7,0.8,1.2
		s0.3,0.9,0.4,1.5h-1.9c0-0.3-0.1-0.6-0.2-0.8s-0.3-0.5-0.4-0.6c-0.2-0.2-0.4-0.3-0.7-0.4c-0.3-0.1-0.6-0.2-1-0.2
		c-0.5,0-0.9,0.1-1.2,0.3s-0.6,0.4-0.9,0.8c-0.2,0.3-0.4,0.7-0.5,1.2c-0.1,0.5-0.2,1-0.2,1.6V20c0,0.6,0.1,1.2,0.2,1.7
		c0.1,0.5,0.3,0.9,0.6,1.2s0.6,0.6,0.9,0.8s0.8,0.3,1.2,0.3c0.3,0,0.6,0,0.9-0.1c0.2,0,0.4-0.1,0.6-0.2c0.2-0.1,0.3-0.1,0.4-0.2
		c0.1-0.1,0.2-0.2,0.3-0.2V21h-2.3v-1.5h4.3V23.8z"/>
	<path fill="#FFFFFF" d="M43.2,21c0-0.6,0.1-1.2,0.3-1.7s0.4-1,0.8-1.4c0.3-0.4,0.7-0.7,1.2-0.9s1-0.3,1.6-0.3
		c0.6,0,1.2,0.1,1.7,0.3s0.9,0.5,1.2,0.9c0.3,0.4,0.6,0.8,0.8,1.4s0.3,1.1,0.3,1.7v0.2c0,0.6-0.1,1.2-0.3,1.7
		c-0.2,0.5-0.4,1-0.8,1.4s-0.7,0.7-1.2,0.9s-1,0.3-1.7,0.3c-0.6,0-1.2-0.1-1.7-0.3s-0.9-0.5-1.2-0.9s-0.6-0.8-0.8-1.4
		c-0.2-0.5-0.3-1.1-0.3-1.7V21z M45.1,21.2c0,0.4,0,0.7,0.1,1.1c0.1,0.3,0.2,0.6,0.4,0.9c0.2,0.3,0.4,0.5,0.6,0.6
		c0.3,0.1,0.6,0.2,0.9,0.2c0.3,0,0.7-0.1,0.9-0.2c0.3-0.1,0.5-0.3,0.6-0.6c0.2-0.3,0.3-0.5,0.4-0.9c0.1-0.3,0.1-0.7,0.1-1.1V21
		c0-0.4,0-0.7-0.1-1.1s-0.2-0.6-0.4-0.9c-0.2-0.3-0.4-0.5-0.6-0.6c-0.3-0.2-0.6-0.2-0.9-0.2s-0.7,0.1-0.9,0.2
		c-0.3,0.2-0.5,0.4-0.6,0.6c-0.2,0.3-0.3,0.5-0.4,0.9s-0.1,0.7-0.1,1.1V21.2z"/>
	<path fill="#FFFFFF" d="M52.1,21c0-0.6,0.1-1.2,0.3-1.7s0.4-1,0.8-1.4c0.3-0.4,0.7-0.7,1.2-0.9s1-0.3,1.6-0.3
		c0.6,0,1.2,0.1,1.7,0.3s0.9,0.5,1.2,0.9c0.3,0.4,0.6,0.8,0.8,1.4s0.3,1.1,0.3,1.7v0.2c0,0.6-0.1,1.2-0.3,1.7
		c-0.2,0.5-0.4,1-0.8,1.4s-0.7,0.7-1.2,0.9s-1,0.3-1.7,0.3c-0.6,0-1.2-0.1-1.7-0.3s-0.9-0.5-1.2-0.9s-0.6-0.8-0.8-1.4
		c-0.2-0.5-0.3-1.1-0.3-1.7V21z M54,21.2c0,0.4,0,0.7,0.1,1.1c0.1,0.3,0.2,0.6,0.4,0.9c0.2,0.3,0.4,0.5,0.6,0.6
		c0.3,0.1,0.6,0.2,0.9,0.2c0.3,0,0.7-0.1,0.9-0.2c0.3-0.1,0.5-0.3,0.6-0.6c0.2-0.3,0.3-0.5,0.4-0.9c0.1-0.3,0.1-0.7,0.1-1.1V21
		c0-0.4,0-0.7-0.1-1.1s-0.2-0.6-0.4-0.9c-0.2-0.3-0.4-0.5-0.6-0.6c-0.3-0.2-0.6-0.2-0.9-0.2s-0.7,0.1-0.9,0.2
		c-0.3,0.2-0.5,0.4-0.6,0.6c-0.2,0.3-0.3,0.5-0.4,0.9S54,20.6,54,21V21.2z"/>
	<path fill="#FFFFFF" d="M61,21c0-0.6,0.1-1.2,0.2-1.8s0.4-1,0.7-1.4c0.3-0.4,0.6-0.7,1.1-0.9c0.4-0.2,0.9-0.3,1.4-0.3
		c0.5,0,1,0.1,1.3,0.3c0.4,0.2,0.7,0.4,1,0.7l0.1-0.9h1.7v8.2c0,0.6-0.1,1.1-0.3,1.5c-0.2,0.4-0.4,0.8-0.8,1.1
		c-0.3,0.3-0.7,0.5-1.2,0.7c-0.5,0.2-1,0.2-1.6,0.2c-0.2,0-0.5,0-0.8-0.1c-0.3,0-0.6-0.1-0.9-0.2c-0.3-0.1-0.6-0.3-0.8-0.4
		c-0.3-0.2-0.5-0.4-0.7-0.6l0.9-1.1c0.3,0.4,0.7,0.6,1,0.8c0.4,0.2,0.7,0.2,1.1,0.2c0.6,0,1.1-0.2,1.5-0.5c0.4-0.3,0.5-0.8,0.5-1.5
		v-0.6c-0.3,0.3-0.6,0.5-0.9,0.7s-0.8,0.2-1.3,0.2c-0.5,0-1-0.1-1.4-0.3s-0.8-0.5-1.1-0.9c-0.3-0.4-0.5-0.8-0.7-1.4S61,21.8,61,21.2
		V21z M62.8,21.2c0,0.4,0,0.7,0.1,1.1c0.1,0.3,0.2,0.6,0.4,0.9s0.4,0.4,0.6,0.6c0.2,0.1,0.5,0.2,0.9,0.2c0.4,0,0.8-0.1,1-0.3
		s0.5-0.4,0.7-0.7v-3.7c-0.2-0.3-0.4-0.5-0.7-0.7s-0.6-0.3-1-0.3c-0.3,0-0.6,0.1-0.9,0.2c-0.3,0.1-0.5,0.3-0.6,0.6S63,19.6,63,20
		s-0.1,0.7-0.1,1.1V21.2z"/>
	<path fill="#FFFFFF" d="M72.1,25.3h-1.9v-12h1.9V25.3z"/>
	<path fill="#FFFFFF" d="M77.7,25.5c-0.6,0-1.2-0.1-1.7-0.3s-0.9-0.5-1.3-0.9c-0.3-0.4-0.6-0.8-0.8-1.3s-0.3-1-0.3-1.6v-0.3
		c0-0.7,0.1-1.3,0.3-1.8s0.5-1,0.8-1.4c0.3-0.4,0.7-0.7,1.2-0.9c0.5-0.2,1-0.3,1.5-0.3c0.6,0,1.1,0.1,1.6,0.3
		c0.5,0.2,0.8,0.5,1.1,0.9c0.3,0.4,0.5,0.8,0.7,1.3c0.1,0.5,0.2,1.1,0.2,1.7v0.8h-5.5c0,0.3,0.1,0.6,0.2,0.9
		c0.1,0.3,0.3,0.5,0.5,0.7c0.2,0.2,0.4,0.4,0.7,0.5c0.3,0.1,0.6,0.2,0.9,0.2c0.5,0,0.9-0.1,1.2-0.3s0.6-0.4,0.9-0.8l1,1
		c-0.1,0.2-0.3,0.4-0.5,0.6c-0.2,0.2-0.4,0.4-0.7,0.5s-0.6,0.3-0.9,0.4S78.1,25.5,77.7,25.5z M77.5,18.2c-0.5,0-0.9,0.2-1.3,0.5
		c-0.3,0.4-0.5,0.9-0.6,1.5h3.6v-0.1c0-0.3-0.1-0.5-0.1-0.7c-0.1-0.2-0.2-0.4-0.3-0.6s-0.3-0.3-0.5-0.4C78,18.3,77.8,18.2,77.5,18.2
		z"/>
	<path fill="#FFFFFF" d="M88.2,21.1v4.2h-2V13.9h4.4c0.7,0,1.2,0.1,1.8,0.3s0.9,0.4,1.3,0.8c0.4,0.3,0.6,0.7,0.8,1.1
		c0.2,0.4,0.3,0.9,0.3,1.4c0,0.6-0.1,1-0.3,1.5s-0.5,0.8-0.8,1.1c-0.4,0.3-0.8,0.5-1.3,0.7c-0.5,0.2-1.1,0.2-1.8,0.2H88.2z
		 M88.2,19.5h2.4c0.4,0,0.7,0,1-0.1s0.5-0.2,0.7-0.4s0.3-0.4,0.4-0.6c0.1-0.2,0.1-0.5,0.1-0.8c0-0.3,0-0.5-0.1-0.8
		c-0.1-0.2-0.2-0.5-0.4-0.7c-0.2-0.2-0.4-0.3-0.7-0.5c-0.3-0.1-0.6-0.2-1-0.2h-2.4V19.5z"/>
	<path fill="#FFFFFF" d="M98.1,25.3h-1.9v-12h1.9V25.3z"/>
	<path fill="#FFFFFF" d="M104.9,25.3c-0.1-0.1-0.1-0.2-0.1-0.4c0-0.1-0.1-0.3-0.1-0.4c-0.1,0.1-0.3,0.3-0.4,0.4
		c-0.2,0.1-0.3,0.2-0.5,0.3s-0.4,0.2-0.6,0.2c-0.2,0-0.4,0.1-0.7,0.1c-0.4,0-0.8-0.1-1.2-0.2s-0.7-0.3-0.9-0.5s-0.5-0.5-0.6-0.8
		c-0.1-0.3-0.2-0.6-0.2-1c0-0.5,0.1-0.9,0.3-1.2c0.2-0.3,0.4-0.6,0.8-0.9s0.7-0.4,1.2-0.5c0.5-0.1,1-0.2,1.6-0.2h1.2v-0.6
		c0-0.4-0.1-0.8-0.4-1.1c-0.2-0.3-0.6-0.4-1.1-0.4c-0.2,0-0.4,0-0.6,0.1c-0.2,0.1-0.3,0.1-0.5,0.2s-0.2,0.2-0.3,0.4
		s-0.1,0.3-0.1,0.5h-1.9c0-0.3,0.1-0.7,0.2-1c0.2-0.3,0.4-0.6,0.7-0.8s0.7-0.4,1.1-0.6c0.4-0.1,0.9-0.2,1.4-0.2
		c0.5,0,0.9,0.1,1.3,0.2c0.4,0.1,0.7,0.3,1,0.5s0.5,0.5,0.7,0.9c0.2,0.4,0.2,0.8,0.2,1.3v3.8c0,0.8,0.1,1.4,0.3,1.8v0.1H104.9z
		 M102.9,24c0.2,0,0.4,0,0.6-0.1c0.2-0.1,0.4-0.1,0.5-0.2s0.3-0.2,0.4-0.3c0.1-0.1,0.2-0.2,0.3-0.4v-1.6h-1c-0.7,0-1.2,0.1-1.6,0.4
		c-0.4,0.2-0.5,0.6-0.5,1c0,0.2,0,0.3,0.1,0.5c0.1,0.1,0.1,0.3,0.3,0.4c0.1,0.1,0.3,0.2,0.4,0.3C102.4,23.9,102.6,24,102.9,24z"/>
	<path fill="#FFFFFF" d="M111.1,22.6l1.7-5.7h2l-3.4,9.7c-0.1,0.2-0.2,0.4-0.3,0.7c-0.1,0.2-0.3,0.5-0.5,0.7
		c-0.2,0.2-0.5,0.4-0.8,0.5c-0.3,0.1-0.7,0.2-1.1,0.2c-0.2,0-0.3,0-0.5,0c-0.2,0-0.3-0.1-0.4-0.1v-1.5c0,0,0.1,0,0.2,0
		c0.1,0,0.1,0,0.2,0c0.2,0,0.4,0,0.6-0.1s0.3-0.1,0.5-0.2c0.1-0.1,0.2-0.2,0.3-0.4c0.1-0.1,0.2-0.3,0.3-0.5l0.3-0.7l-3-8.4h2
		L111.1,22.6z"/>
</g>
<g>
	<path fill="#FFFFFF" d="M38.9,6.4c-0.1,0.1-0.2,0.2-0.3,0.3c-0.1,0.1-0.3,0.2-0.5,0.3c-0.2,0.1-0.5,0.2-0.8,0.3
		c-0.3,0.1-0.6,0.1-1,0.1c-0.4,0-0.9-0.1-1.2-0.2c-0.4-0.2-0.7-0.4-1-0.7c-0.3-0.3-0.5-0.6-0.6-1.1C33.3,5,33.2,4.5,33.2,4V3.5
		c0-0.5,0.1-1,0.2-1.4S33.8,1.3,34,1s0.6-0.5,0.9-0.7c0.4-0.2,0.8-0.2,1.2-0.2c0.4,0,0.8,0.1,1.1,0.2s0.6,0.3,0.8,0.5
		c0.2,0.2,0.4,0.4,0.5,0.7s0.2,0.6,0.3,0.9h-1.2c0-0.2-0.1-0.4-0.1-0.5s-0.2-0.3-0.3-0.4c-0.1-0.1-0.3-0.2-0.4-0.3
		c-0.2-0.1-0.4-0.1-0.6-0.1c-0.3,0-0.5,0.1-0.8,0.2c-0.2,0.1-0.4,0.3-0.5,0.5c-0.1,0.2-0.2,0.5-0.3,0.8c-0.1,0.3-0.1,0.6-0.1,1V4
		c0,0.4,0,0.7,0.1,1c0.1,0.3,0.2,0.6,0.4,0.8c0.2,0.2,0.4,0.4,0.6,0.5c0.2,0.1,0.5,0.2,0.8,0.2c0.2,0,0.4,0,0.5,0
		c0.2,0,0.3-0.1,0.4-0.1c0.1,0,0.2-0.1,0.3-0.1c0.1,0,0.1-0.1,0.2-0.1V4.6h-1.5V3.6h2.7V6.4z"/>
	<path fill="#FFFFFF" d="M42.3,7.4c-0.4,0-0.7-0.1-1.1-0.2c-0.3-0.1-0.6-0.3-0.8-0.5c-0.2-0.2-0.4-0.5-0.5-0.8s-0.2-0.6-0.2-1V4.6
		c0-0.4,0.1-0.8,0.2-1.1s0.3-0.6,0.5-0.9c0.2-0.2,0.5-0.4,0.8-0.5c0.3-0.1,0.6-0.2,0.9-0.2c0.4,0,0.7,0.1,1,0.2
		c0.3,0.1,0.5,0.3,0.7,0.5c0.2,0.2,0.3,0.5,0.4,0.8c0.1,0.3,0.1,0.7,0.1,1V5H41c0,0.2,0.1,0.4,0.1,0.6c0.1,0.2,0.2,0.3,0.3,0.4
		c0.1,0.1,0.3,0.2,0.4,0.3c0.2,0.1,0.4,0.1,0.6,0.1c0.3,0,0.5-0.1,0.8-0.2c0.2-0.1,0.4-0.3,0.6-0.5l0.6,0.6
		c-0.1,0.1-0.2,0.3-0.3,0.4c-0.1,0.1-0.3,0.2-0.4,0.3c-0.2,0.1-0.4,0.2-0.6,0.2C42.8,7.4,42.6,7.4,42.3,7.4z M42.2,2.9
		c-0.3,0-0.6,0.1-0.8,0.3c-0.2,0.2-0.3,0.5-0.4,1h2.3V4.1c0-0.2,0-0.3-0.1-0.5c0-0.1-0.1-0.3-0.2-0.4S42.8,3,42.7,3
		C42.5,2.9,42.4,2.9,42.2,2.9z"/>
	<path fill="#FFFFFF" d="M46.7,0.7V2h0.9v0.9h-0.9v2.9c0,0.1,0,0.2,0,0.3c0,0.1,0.1,0.1,0.1,0.2c0,0,0.1,0.1,0.2,0.1
		c0.1,0,0.1,0,0.2,0s0.2,0,0.2,0c0.1,0,0.1,0,0.2,0v0.9c-0.1,0-0.2,0.1-0.3,0.1c-0.1,0-0.3,0-0.5,0c-0.2,0-0.4,0-0.5-0.1
		c-0.2-0.1-0.3-0.1-0.4-0.3c-0.1-0.1-0.2-0.3-0.3-0.5c-0.1-0.2-0.1-0.4-0.1-0.7v-3h-0.9V2h0.9V0.7H46.7z"/>
	<path fill="#FFFFFF" d="M50.7,0.6c0-0.2,0.1-0.3,0.2-0.5C51,0.1,51.2,0,51.4,0s0.4,0.1,0.5,0.2c0.1,0.1,0.2,0.3,0.2,0.5
		c0,0.2-0.1,0.3-0.2,0.4c-0.1,0.1-0.3,0.2-0.5,0.2S51,1.2,50.9,1.1C50.8,1,50.7,0.8,50.7,0.6z M52,7.3h-1.2V2H52V7.3z"/>
	<path fill="#FFFFFF" d="M54.6,0.7V2h0.9v0.9h-0.9v2.9c0,0.1,0,0.2,0,0.3c0,0.1,0.1,0.1,0.1,0.2c0,0,0.1,0.1,0.2,0.1
		c0.1,0,0.1,0,0.2,0s0.2,0,0.2,0c0.1,0,0.1,0,0.2,0v0.9c-0.1,0-0.2,0.1-0.3,0.1c-0.1,0-0.3,0-0.5,0c-0.2,0-0.4,0-0.5-0.1
		c-0.2-0.1-0.3-0.1-0.4-0.3c-0.1-0.1-0.2-0.3-0.3-0.5c-0.1-0.2-0.1-0.4-0.1-0.7v-3h-0.9V2h0.9V0.7H54.6z"/>
	<path fill="#FFFFFF" d="M58.4,4.6c0-0.4,0.1-0.7,0.2-1.1c0.1-0.3,0.3-0.6,0.5-0.9c0.2-0.2,0.5-0.4,0.8-0.6s0.6-0.2,1-0.2
		c0.4,0,0.7,0.1,1,0.2s0.6,0.3,0.8,0.6c0.2,0.2,0.4,0.5,0.5,0.9s0.2,0.7,0.2,1.1v0.1c0,0.4-0.1,0.7-0.2,1.1
		c-0.1,0.3-0.3,0.6-0.5,0.9c-0.2,0.2-0.5,0.4-0.8,0.6c-0.3,0.1-0.6,0.2-1,0.2c-0.4,0-0.7-0.1-1-0.2c-0.3-0.1-0.6-0.3-0.8-0.6
		c-0.2-0.2-0.4-0.5-0.5-0.9c-0.1-0.3-0.2-0.7-0.2-1.1V4.6z M59.6,4.7c0,0.2,0,0.5,0.1,0.7c0,0.2,0.1,0.4,0.2,0.6
		c0.1,0.2,0.2,0.3,0.4,0.4c0.2,0.1,0.4,0.1,0.6,0.1c0.2,0,0.4,0,0.6-0.1c0.2-0.1,0.3-0.2,0.4-0.4c0.1-0.2,0.2-0.3,0.2-0.6
		c0-0.2,0.1-0.4,0.1-0.7V4.6c0-0.2,0-0.5-0.1-0.7c-0.1-0.2-0.1-0.4-0.2-0.6c-0.1-0.2-0.2-0.3-0.4-0.4c-0.2-0.1-0.4-0.1-0.6-0.1
		s-0.4,0-0.6,0.1c-0.2,0.1-0.3,0.2-0.4,0.4c-0.1,0.2-0.2,0.3-0.2,0.6s-0.1,0.4-0.1,0.7V4.7z"/>
	<path fill="#FFFFFF" d="M65.3,2l0,0.6c0.2-0.2,0.4-0.4,0.7-0.5c0.3-0.1,0.5-0.2,0.9-0.2c0.3,0,0.5,0,0.7,0.1
		c0.2,0.1,0.4,0.2,0.5,0.3s0.3,0.4,0.3,0.6c0.1,0.3,0.1,0.6,0.1,0.9v3.4h-1.2V3.9c0-0.2,0-0.3-0.1-0.5c0-0.1-0.1-0.2-0.2-0.3
		S66.9,3,66.8,2.9c-0.1,0-0.2-0.1-0.4-0.1c-0.2,0-0.5,0.1-0.6,0.2c-0.2,0.1-0.3,0.3-0.4,0.5v3.8h-1.2V2H65.3z"/>
</g>
</svg>
