<?xml version="1.0" encoding="utf-8"?>
<!-- Generator: Adobe Illustrator 18.0.0, SVG Export Plug-In . SVG Version: 6.00 Build 0)  -->
<!DOCTYPE svg PUBLIC "-//W3C//DTD SVG 1.1//EN" "http://www.w3.org/Graphics/SVG/1.1/DTD/svg11.dtd">
<svg version="1.1" id="Layer_1" xmlns="http://www.w3.org/2000/svg" xmlns:xlink="http://www.w3.org/1999/xlink" x="0px" y="0px"
	 viewBox="0 281.2 640 198.8" enable-background="new 0 281.2 640 198.8" xml:space="preserve">
<path fill="#FFFFFF" d="M93.2,281.3H13.7C6.2,281.3,0,287.5,0,295v162.4c0,7.5,6.2,13.7,13.7,13.7h79.5c7.5,0,13.7-4.1,13.7-12.3
	V295C106.9,287.5,100.7,281.3,93.2,281.3z M43.8,292.9h17.8v6.2H43.8V292.9z M52.7,466.3c-4.8,0-8.9-4.1-8.9-8.9
	c0-4.8,4.1-8.9,8.9-8.9s8.9,4.1,8.9,8.9C61.7,462.2,57.5,466.3,52.7,466.3z M95.2,443H8.9V312.1h86.3V443z"/>
<g>
	<path fill="#FFFFFF" d="M221.4,439.6h-30.1l-6.2,17.8h-14.4l29.5-77.4h12.3l29.5,78.1h-14.4L221.4,439.6z M195.4,428.6H218
		l-11-32.2L195.4,428.6z"/>
	<path fill="#FFFFFF" d="M296.1,429.3c0,4.1-0.7,8.2-1.4,11.6c-0.7,3.4-2.7,6.9-4.1,9.6s-4.1,4.8-6.9,6.2c-2.7,1.4-6.2,2.1-9.6,2.1
		s-6.2-0.7-8.9-1.4c-2.7-0.7-4.8-2.7-6.9-4.8V480h-13v-80.2h12.3l0.7,6.2c2.1-2.1,4.1-4.1,6.9-5.5c2.7-1.4,5.5-2.1,8.9-2.1
		s6.9,0.7,9.6,2.1s5.5,3.4,6.9,6.2c2.1,2.7,3.4,5.5,4.1,9.6c0.7,3.4,1.4,7.5,1.4,12.3V429.3L296.1,429.3z M283.1,428.6
		c0-2.7,0-4.8-0.7-7.5c-0.7-2.1-1.4-4.1-2.1-6.2s-2.7-2.7-4.1-4.1c-1.4-0.7-3.4-1.4-6.2-1.4c-2.7,0-5.5,0.7-6.9,2.1
		c-2.1,1.4-3.4,2.7-4.1,4.8v26c1.4,2.1,2.7,3.4,4.1,4.8s4.1,2.1,7.5,2.1c2.1,0,4.1-0.7,6.2-1.4s2.7-2.1,4.1-4.1
		c1.4-2.1,2.1-3.4,2.1-6.2c0.7-2.1,0.7-4.8,0.7-7.5v-1.4L283.1,428.6L283.1,428.6z"/>
	<path fill="#FFFFFF" d="M356.4,429.3c0,4.1-0.7,8.2-1.4,11.6c-0.7,3.4-2.7,6.9-4.1,9.6s-4.1,4.8-6.9,6.2c-2.8,1.4-6.2,2.1-9.6,2.1
		s-6.2-0.7-8.9-1.4c-2.7-0.7-4.8-2.7-6.9-4.8V480h-13v-80.2h12.3l0.7,6.2c2.1-2.1,4.1-4.1,6.9-5.5c2.7-1.4,5.5-2.1,8.9-2.1
		s6.9,0.7,9.6,2.1s5.5,3.4,6.9,6.2c2.1,2.7,3.4,5.5,4.1,9.6c0.7,3.4,1.4,7.5,1.4,12.3V429.3L356.4,429.3z M343.4,428.6
		c0-2.7,0-4.8-0.7-7.5c-0.7-2.1-1.4-4.1-2.1-6.2s-2.7-2.7-4.1-4.1c-1.4-0.7-3.4-1.4-6.2-1.4c-2.7,0-5.5,0.7-6.9,2.1
		s-3.4,2.7-4.1,4.8v26c1.4,2.1,2.7,3.4,4.1,4.8s4.1,2.1,7.5,2.1c2.1,0,4.1-0.7,6.2-1.4s2.7-2.1,4.1-4.1c1.4-2.1,2.1-3.4,2.1-6.2
		c0.7-2.1,0.7-4.8,0.7-7.5v-1.4L343.4,428.6L343.4,428.6z"/>
	<path fill="#FFFFFF" d="M433.1,437.5c0-1.4,0-2.7-0.7-4.1c-0.7-1.4-1.4-2.1-2.7-3.4c-1.4-1.4-2.7-2.1-4.8-2.7s-4.8-2.1-8.2-2.7
		c-3.4-1.4-6.9-2.1-10.3-4.1c-3.4-1.4-6.2-3.4-8.2-4.8c-2.1-2.1-4.1-4.1-5.5-6.9s-2.1-5.5-2.1-8.2c0-3.4,0.7-6.2,2.1-8.9
		c1.4-2.7,3.4-4.8,5.5-6.9c2.1-2.1,5.5-3.4,8.9-4.8s6.9-1.4,11-1.4s8.2,0.7,11.6,2.1s6.2,2.7,8.9,5.5c2.7,2.1,4.1,4.8,5.5,7.5
		c1.4,2.7,2.1,6.2,2.1,8.9h-13.7c0-2.1,0-3.4-0.7-5.5c-0.7-1.4-1.4-2.7-2.7-4.1c-1.4-1.4-2.7-2.1-4.8-2.7c-2.1-0.6-4.1-0.7-6.9-0.7
		c-2.1,0-4.8,0-6.2,0.7c-1.4,0.7-3.4,1.4-4.1,2.1c-0.7,0.7-2.1,2.1-2.7,3.4c-0.7,1.4-0.7,2.7-0.7,4.1c0,2.7,1.4,5.5,4.1,7.5
		c2.7,2.1,6.9,3.4,12.3,5.5c4.1,1.4,8.2,2.7,11.6,4.1c3.4,1.4,6.2,3.4,8.2,5.5c2.1,2.1,3.4,4.1,4.8,6.9c1.4,2.7,1.4,5.5,1.4,8.2
		c0,3.4-0.7,6.2-2.1,8.9s-3.4,4.8-5.5,6.9c-2.7,2.1-5.5,3.4-8.9,4.1s-7.5,1.4-11.6,1.4c-3.4,0-7.5-0.7-11-1.4
		c-3.4-0.7-6.9-2.7-9.6-4.8c-2.7-2.1-5.5-4.8-6.9-7.5c-2.1-2.7-2.7-6.9-2.7-11h13.7c0,2.7,0.7,4.8,1.4,6.2s2.1,3.4,3.4,4.1
		c1.4,0.7,3.4,2.1,5.5,2.7c2.1,0.6,4.1,0.7,6.9,0.7c4.8,0,8.2-0.7,11-2.7C431.8,443.7,433.1,441,433.1,437.5z"/>
	<path fill="#FFFFFF" d="M472.2,386.1v14.4h10.3v9.6h-10.3v32.2c0,1.4,0,2.1,0.7,3.4c0,0.7,0.7,1.4,1.4,2.1c0.7,0.7,1.4,0.7,2.1,0.7
		s1.4,0,2.7,0s2.1,0,2.7,0s1.4,0,2.1-0.7v10.3c-1.4,0-2.1,0.7-3.4,0.7s-2.7,0.7-4.8,0.7c-2.1,0-4.1,0-6.2-0.7s-3.4-1.4-4.8-2.7
		c-1.4-1.3-4.1-3.4-4.8-5.5c-0.7-2.1-1.4-4.8-1.4-7.5v-32.9h-9.6v-9.6h9.6v-14.4C458.5,386.1,472.2,386.1,472.2,386.1z"/>
	<path fill="#FFFFFF" d="M486.6,428.6c0-4.1,0.7-8.2,2.1-11.6c1.4-3.4,2.7-6.9,5.5-9.6c2.1-2.7,4.8-4.8,8.2-6.2
		c3.4-1.4,6.9-2.1,11-2.1s8.2,0.7,11.6,2.1c3.4,1.4,6.2,3.4,8.2,6.2c2,2.8,4.1,5.5,5.5,9.6c1.4,4.1,2.1,7.5,2.1,11.6v1.4
		c0,4.1-0.7,8.2-2.1,11.6c-1.4,3.4-2.7,6.9-5.5,9.6c-2.7,2.7-4.8,4.8-8.2,6.2s-6.9,2.1-11.6,2.1c-4.1,0-8.2-0.7-11.6-2.1
		s-6.2-3.4-8.2-6.2c-2.1-2.7-4.1-5.5-5.5-9.6c-1.4-3.4-2.1-7.5-2.1-11.6v-1.4H486.6z M499.6,429.3c0,2.7,0,4.8,0.7,7.5
		c0.7,2.1,1.4,4.1,2.7,6.2c1.4,2.1,2.7,3.4,4.1,4.1c2.1,0.7,4.1,1.4,6.2,1.4c2.1,0,4.8-0.7,6.2-1.4c2.1-0.7,3.4-2.1,4.1-4.1
		c1.4-2.1,2.1-3.4,2.7-6.2c0.7-2.1,0.7-4.8,0.7-7.5v-1.4c0-2.7,0-4.8-0.7-7.5s-1.4-4.1-2.7-6.2c-1.4-2.1-2.7-3.4-4.1-4.1
		c-2.1-1.4-4.1-1.4-6.2-1.4c-2.1,0-4.8,0.7-6.2,1.4c-2.1,1.4-3.4,2.7-4.1,4.1c-1.4,2.1-2.1,3.4-2.7,6.2c-0.7,2.7-0.7,4.8-0.7,7.5
		L499.6,429.3L499.6,429.3z"/>
	<path fill="#FFFFFF" d="M579.8,412.2c-0.7,0-2.1,0-2.7,0c-0.7,0-2.1,0-2.7,0c-3.4,0-5.5,0.7-7.5,2.1c-2.1,1.4-3.4,2.7-4.1,4.8v39.7
		h-13v-58.2h12.3v6.2c1.4-2.1,3.4-4.1,5.5-5.5s4.8-2.1,7.5-2.1c0.7,0,1.4,0,2.7,0s1.4,0,2.1,0.7L579.8,412.2z"/>
	<path fill="#FFFFFF" d="M611.3,458.8c-4.1,0-8.2-0.7-11.6-2.1c-3.4-1.4-6.2-3.4-8.9-6.2c-2.1-2.7-4.1-5.5-5.5-8.9
		c-1.4-3.4-2.1-6.9-2.1-11v-2.1c0-4.8,0.7-8.9,2.1-12.3c1.4-3.4,3.4-6.9,5.5-9.6c2.1-2.7,4.8-4.8,8.2-6.2s6.9-2.1,10.3-2.1
		c4.1,0,7.5,0.7,11,2.1c3.4,1.4,5.5,3.4,7.5,6.2c2.1,2.7,3.4,5.5,4.8,8.9c0.7,3.4,1.4,7.5,1.4,11.6v5.5h-37.7c0,2.1,0.7,4.1,1.4,6.2
		c0.7,2.1,2.1,3.4,3.4,4.8c1.3,1.4,2.7,2.7,4.8,3.4c2.1,0.7,4.1,1.4,6.2,1.4c3.4,0,6.2-0.7,8.2-2.1c2.1-1.4,4.1-2.7,6.2-5.5l6.9,6.9
		c-0.7,1.4-2.1,2.7-3.4,4.1c-1.3,1.4-2.7,2.7-4.8,3.4c-2.1,0.7-4.1,2.1-6.2,2.7C616.8,458.8,614,458.8,611.3,458.8z M609.2,409.4
		c-3.4,0-6.2,1.4-8.9,3.4c-2.1,2.7-3.4,6.2-4.1,10.3h24.7v-0.7c0-2.1-0.7-3.4-0.7-4.8c-0.7-1.4-1.4-2.7-2.1-4.1
		c-0.7-1.4-2.1-2.1-3.4-2.7C613.3,409.4,612,409.4,609.2,409.4z"/>
</g>
<path fill="#FFFFFF" d="M212.1,323.4h-19.2l-4.1,11.6h-8.9l18.5-48.7h7.5l19.2,48.7h-8.9L212.1,323.4z M195.7,316.5H210l-6.9-19.9
	L195.7,316.5z"/>
<path fill="#FFFFFF" d="M239.5,324.7l7.5-26h8.2L242.9,335H236l-12.3-36.3h8.2L239.5,324.7z"/>
<path fill="#FFFFFF" d="M294.1,289.1c0-1.4,0.7-2.1,1.4-3.4c0.7-0.7,2.1-1.4,3.4-1.4s2.7,0.7,3.4,1.4c0.7,0.7,1.4,2.1,1.4,3.4
	s-0.7,2.1-1.4,2.7c-0.7,0.7-2.1,1.4-3.4,1.4s-2.7-0.7-3.4-1.4C294.1,291.9,294.1,290.5,294.1,289.1z M302.3,335h-8.2v-36.3h8.2V335z
	"/>
<path fill="#FFFFFF" d="M280.8,335c0-0.7-0.7-0.7-0.7-1.4c0-0.7,0-1.4-0.7-2.1c-0.7,0.7-1.4,1.4-2.1,1.4c-0.7,0.7-1.4,0.7-2.1,1.4
	c-0.7,0.7-1.4,0.7-2.7,0.7c-0.7,0-2.1,0-2.7,0c-2.1,0-3.4,0-4.8-0.7c-1.4-0.7-2.7-1.4-4.1-2.1c-1.4-0.7-2.1-2.1-2.7-3.4
	c-0.7-1.4-0.7-2.7-0.7-4.1c0-2.1,0.7-3.4,1.4-5.5c0.7-1.4,2.1-2.7,3.4-3.4c1.4-0.7,3.4-2.1,5.5-2.1c2.1-0.7,4.1-0.7,6.9-0.7h4.8
	v-2.7c0-2.1-0.7-3.4-1.4-4.8c-0.7-0.7-2.7-1.4-4.8-1.4c-0.7,0-2.1,0-2.7,0.7c-0.7,0-1.4,0.7-2.1,1.4c-0.7,0.7-0.7,0.7-1.4,1.4
	c0,0.7-0.7,1.4-0.7,2.1h-8.2c0-1.4,0.7-2.7,1.4-4.1c0.7-1.4,1.4-2.7,2.7-3.4c1.3-0.7,2.7-2.1,4.8-2.7c2.1-0.7,4.1-0.7,6.2-0.7
	s4.1,0,5.5,0.7c2.1,0.7,3.4,1.4,4.1,2.1s2.1,2.1,2.7,4.1c0.7,1.4,1.4,3.4,1.4,5.5V327c0,3.4,0.7,6.2,1.4,7.5v0.7
	C288.3,335,280.8,335,280.8,335z M271.9,328.9c0.7,0,2.1,0,2.7-0.7c0.7,0,1.4-0.7,2.1-0.7c0.7-0.7,1.4-0.7,2.1-1.4s0.7-1.4,1.4-1.4
	v-6.9H276c-2.7,0-5.5,0.7-6.9,1.4c-1.4,1.4-2.1,2.7-2.1,4.1c0,0.7,0,1.4,0.7,2.1c0,0.7,0.7,1.4,1.4,1.4c0.7,0.7,1.4,0.7,2.1,1.4
	C270.5,328.9,271.2,328.9,271.9,328.9z"/>
<path fill="#FFFFFF" d="M391.4,317.2c0,2.7,0,5.5-0.7,7.5c-0.7,2.1-1.4,4.1-2.7,5.5c-1.4,1.4-2.7,2.7-4.1,4.1
	c-2.1,0.7-4.1,1.4-6.2,1.4s-4.1-0.7-5.5-1.4s-2.7-2.1-4.1-3.4l-0.7,4.1h-7.5v-51.4h8.2v18.5c1.4-1.4,2.7-2.1,4.1-2.7
	c1.4-0.7,3.4-1.4,5.5-1.4s4.1,0.7,6.2,1.4c2.1,0.7,3.4,2.1,4.1,4.1c1.4,1.4,2.1,3.4,2.7,6.2C391.4,311.7,391.4,314.5,391.4,317.2
	L391.4,317.2L391.4,317.2z M383.1,316.5c0-1.4,0-3.4-0.7-4.8c0-1.4-0.7-2.7-1.4-3.4s-1.4-2.1-2.7-2.7c-1.4-0.7-2.1-0.7-4.1-0.7
	c-2.1,0-3.4,0.7-4.8,1.4s-1.4,2.1-2.1,3.4v15.1c0.7,1.4,1.4,2.7,2.7,3.4s2.7,1.4,4.8,1.4c1.4,0,2.7,0,4.1-0.7
	c0.7-0.7,2.1-1.4,2.7-2.7c0-1.4,0.7-2.7,0.7-4.1s0.7-2.7,0.7-4.8L383.1,316.5L383.1,316.5z"/>
<path fill="#FFFFFF" d="M405.7,335h-8.2v-51.4h8.2V335z"/>
<path fill="#FFFFFF" d="M429,335.7c-2.7,0-4.8-0.7-7.5-1.4c-2.1-0.7-4.1-2.1-5.5-3.4c-1.4-1.4-2.7-3.4-3.4-5.5s-1.4-4.1-1.4-6.9
	v-2.1c0-2.7,0.7-5.5,1.4-7.5s2.1-4.1,3.4-6.2c1.4-1.4,3.4-2.7,5.5-3.4c2.1-0.7,4.1-1.4,6.2-1.4c2.7,0,4.8,0.7,6.9,1.4
	c2.1,0.7,3.4,2.1,4.8,3.4s2.1,3.4,2.7,5.5c1.4,2.7,1.4,4.8,1.4,7.5v3.4h-24c0,1.4,0.7,2.7,0.7,4.1c1.4,1.4,2.1,2.1,2.7,2.7
	s2.1,1.4,2.7,2.1c1.4,0.7,2.7,0.7,4.1,0.7c2.1,0,3.4-0.7,5.5-1.4c1.4,0,2.7-1.4,3.4-2.7l4.8,4.1c-0.7,0.7-1.4,2.1-2.1,2.7
	c-0.7,0.7-2.1,1.4-2.7,2.1c-1.4,0.7-2.7,1.4-4.1,1.4C432.5,335.7,431.1,335.7,429,335.7z M428.4,304.9c-2.1,0-4.1,0.7-5.5,2.1
	s-2.1,3.4-2.7,6.9H436v-0.7c0-1.4,0-2.1-0.7-3.4c0-0.7-0.7-2.1-1.4-2.7s-1.4-1.4-2.1-2.1C430.4,304.9,429.7,304.9,428.4,304.9z"/>
<path fill="#FFFFFF" d="M462.3,316.5c0-2.7,0.7-4.8,1.4-7.5c0.7-2.1,2.1-4.1,3.4-6.2c1.4-1.4,3.4-2.7,5.5-4.1s4.1-1.4,6.9-1.4
	s4.8,0.7,6.9,1.4s4.1,2.1,5.5,4.1c1.4,1.4,2.7,3.4,3.4,6.2c0.7,2.8,1.4,4.8,1.4,7.5v0.7c0,2.7-0.7,4.8-1.4,7.5
	c-0.7,2.1-2.1,4.1-3.4,6.2c-1.4,1.4-3.4,2.7-5.5,4.1c-2.1,0.7-4.1,1.4-6.9,1.4s-4.8-0.7-6.9-1.4c-2.1-0.7-4.1-2.1-5.5-4.1
	c-1.4-1.4-2.7-3.4-3.4-6.2c-0.7-2.1-1.4-4.8-1.4-7.5V316.5z M470.5,317.2c0,1.4,0,3.4,0.7,4.8c0,1.4,0.7,2.7,1.4,4.1
	c0.7,1.4,1.4,2.1,2.7,2.7c1.4,0.7,2.7,0.7,4.1,0.7s2.7,0,4.1-0.7s2.1-1.4,2.7-2.7c0.7-1.4,1.4-2.1,1.4-4.1c0-1.4,0.7-2.7,0.7-4.8
	v-0.7c0-1.4,0-3.4-0.7-4.8s-0.7-2.7-1.4-4.1c-0.7-1.4-1.4-2.1-2.7-2.7c-1.4-0.7-2.7-0.7-4.1-0.7s-2.7,0-4.1,0.7
	c-1.4,0.7-2.1,1.4-2.7,2.7c-0.7,1.4-1.4,2.1-1.4,4.1c0,2.1-0.7,2.7-0.7,4.8V317.2L470.5,317.2z"/>
<path fill="#FFFFFF" d="M509.6,298.7v4.1c1.4-1.4,2.7-2.7,4.8-3.4c2.1-0.7,3.4-1.4,6.2-1.4c2.1,0,3.4,0,4.8,0.7
	c1.4,0.7,2.7,1.4,3.4,2.1s2.1,2.7,2.1,4.1c0.7,2.1,0.7,4.1,0.7,6.2v23.2h-8.2v-22.6c0-1.4,0-2.1-0.7-3.4c0-0.7-0.7-1.4-1.4-2.1
	s-1.4-0.7-2.1-1.4c-0.7,0-1.4-0.7-2.7-0.7c-1.4,0-3.4,0.7-4.1,1.4c-1.4,0.7-2.1,2.1-2.7,3.4v26h-8.2v-36.3h8.1V298.7z"/>
<path fill="#FFFFFF" d="M562.1,289.8v8.9h6.2v6.2h-6.2v19.9c0,0.7,0,1.4,0,2.1s0.7,0.7,0.7,1.4c0,0,0.7,0.7,1.4,0.7s0.7,0,1.4,0
	s1.4,0,1.4,0c0.7,0,0.7,0,1.4,0v6.2c-0.7,0-1.4,0.7-2.1,0.7s-2.1,0-3.4,0s-2.7,0-3.4-0.7c-1.4-0.7-2.1-0.7-2.7-2.1
	c-0.7-0.7-1.4-1.4-1.4-2.7c-0.7-1.4-0.7-2.7-0.7-4.8V305h-6.2v-6.2h6.2v-8.9L562.1,289.8L562.1,289.8z"/>
<path fill="#FFFFFF" d="M582,302.8c1.4-1.4,2.7-2.7,4.1-3.4c1.4-0.7,3.4-1.4,5.5-1.4s3.4,0,4.8,0.7c1.4,0.7,2.7,1.4,3.4,2.1
	c0.7,1.4,2.1,2.7,2.1,4.1c1.4,2.1,2.1,4.1,2.1,6.9v23.3h-8.2v-23.3c0-2.7-0.7-4.1-1.4-5.5c-1.4-1.4-2.7-1.4-4.8-1.4
	c-1.4,0-3.4,0.7-4.1,1.4c-1.4,0.7-2.1,2.1-2.7,3.4v26h-8.2v-52.1h8.2v19.2H582L582,302.8z"/>
<path fill="#FFFFFF" d="M625.2,335.7c-2.7,0-4.8-0.7-7.5-1.4c-2.1-0.7-4.1-2.1-5.5-3.4c-1.4-1.4-2.7-3.4-3.4-5.5s-1.4-4.1-1.4-6.9
	v-2.1c0-2.7,0.7-5.5,1.4-7.5c0.7-2.1,2.1-4.1,3.4-6.2c1.4-1.4,3.4-2.7,5.5-3.4c2.1-0.7,4.1-1.4,6.2-1.4c2.7,0,4.8,0.7,6.9,1.4
	c2.1,0.7,3.4,2.1,4.8,3.4s2.1,3.4,2.7,5.5c0.7,2.1,0.7,4.8,0.7,6.9v3.4h-23.3c0,1.4,0.7,2.7,0.7,4.1c0.7,1.4,1.4,2.1,2.1,2.7
	c0.7,0.7,2.1,1.4,2.7,2.1c1.4,0.7,2.7,0.7,4.1,0.7c2.1,0,3.4-0.7,5.5-1.4c1.4-0.7,2.7-2.1,4.1-3.4l4.1,4.1c-0.7,0.7-1.4,2.1-2.1,2.7
	s-2.1,1.4-2.7,2.1c-1.4,0.7-2.7,1.4-4.1,1.4C628.6,335.7,626.6,335.7,625.2,335.7z M623.8,304.9c-2.1,0-4.1,0.7-5.5,2.1
	c-1.4,1.4-2.1,3.4-2.7,6.9h15.8v-0.7c0-1.4,0-2.1-0.7-3.4c0-0.7-0.7-2.1-1.4-2.7c-0.7-0.7-1.4-1.4-2.1-2.1
	C626.6,304.9,625.2,304.9,623.8,304.9z"/>
<path fill="#FFFFFF" d="M317.7,335h-8.2v-51.4h8.2V335z"/>
<path fill="#FFFFFF" d="M346.8,335c0-0.7-0.7-0.7-0.7-1.4c0-0.7,0-1.4-0.7-2.1c-0.7,0.7-1.4,1.4-2.1,1.4c-0.7,0.7-1.4,0.7-2.1,1.4
	c-0.7,0.7-1.4,0.7-2.7,0.7c-0.7,0-2.1,0-2.7,0c-2.1,0-3.4,0-4.8-0.7c-1.4-0.7-2.7-1.4-4.1-2.1c-1.4-0.7-2.1-2.1-2.7-3.4
	c-0.7-1.4-0.7-2.7-0.7-4.1c0-2.1,0.7-3.4,1.4-5.5c0.7-1.4,2.1-2.7,3.4-3.4c1.4-0.7,3.4-2.1,5.5-2.1c2.1-0.7,4.1-0.7,6.9-0.7h4.8
	v-2.7c0-2.1-0.7-3.4-1.4-4.8c-0.7-0.7-2.7-1.4-4.8-1.4c-0.7,0-2.1,0-2.7,0.7c-0.7,0-1.4,0.7-2.1,1.4c-0.7,0.7-0.7,0.7-1.4,1.4
	c0,0.7-0.7,1.4-0.7,2.1h-8.2c0-1.4,0.7-2.7,1.4-4.1c0.7-1.4,1.4-2.7,2.7-3.4c1.3-0.7,2.7-2.1,4.8-2.7c2.1-0.7,4.1-0.7,6.2-0.7
	s4.1,0,5.5,0.7c2.1,0.7,3.4,1.4,4.1,2.1s2.1,2.1,2.7,4.1c0.7,1.4,1.4,3.4,1.4,5.5V327c0,3.4,0.7,6.2,1.4,7.5v0.7
	C354.3,335,346.8,335,346.8,335z M337.9,328.9c0.7,0,2.1,0,2.7-0.7c0.7,0,1.4-0.7,2.1-0.7c0.7-0.7,1.4-0.7,2.1-1.4s0.7-1.4,1.4-1.4
	v-6.9H342c-2.7,0-5.5,0.7-6.9,1.4c-1.4,1.4-2.1,2.7-2.1,4.1c0,0.7,0,1.4,0.7,2.1c0,0.7,0.7,1.4,1.4,1.4c0.7,0.7,1.4,0.7,2.1,1.4
	C336.5,328.9,337.2,328.9,337.9,328.9z"/>
</svg>
