<svg width="28" height="35" viewBox="0 0 28 35" fill="none" xmlns="http://www.w3.org/2000/svg">
<path d="M26.5303 12.1654L23.8924 7.57203C23.8616 7.50091 23.8053 7.44127 23.7325 7.40711L14.1361 2.93887C14.1347 2.93831 14.1336 2.93775 14.1324 2.93747C14.1246 2.93411 14.117 2.93103 14.1095 2.92823C14.1061 2.92739 14.1036 2.92599 14.1005 2.92487C14.0921 2.92207 14.0837 2.91983 14.075 2.91787C14.0725 2.91731 14.07 2.91675 14.0675 2.91619C14.0585 2.91395 14.0493 2.91255 14.0398 2.91143C14.0378 2.91115 14.0356 2.91059 14.0336 2.91031C14.0221 2.90919 14.0106 2.90863 13.9992 2.90863C13.9989 2.90863 13.9986 2.90863 13.9983 2.90863C13.9871 2.90863 13.9756 2.90919 13.9647 2.91031C13.9625 2.91059 13.9602 2.91115 13.9583 2.91143C13.9493 2.91255 13.9401 2.91395 13.9308 2.91619C13.928 2.91675 13.9255 2.91731 13.9233 2.91815C13.9146 2.92039 13.9062 2.92263 13.8981 2.92487C13.895 2.92599 13.8922 2.92739 13.8888 2.92823C13.8813 2.93103 13.8734 2.93411 13.8664 2.93747C13.8648 2.93803 13.8634 2.93831 13.862 2.93887L4.26747 7.41327C4.26607 7.41383 4.26467 7.41467 4.26355 7.41551C4.25767 7.41803 4.25207 7.42083 4.24675 7.42363C4.24591 7.42419 4.24507 7.42503 4.24395 7.42559C4.23191 7.43231 4.22043 7.43987 4.20923 7.44827C4.20867 7.44883 4.20783 7.44911 4.20727 7.44967C4.20251 7.45359 4.19775 7.45723 4.19327 7.46143C4.19131 7.46339 4.18907 7.46479 4.18739 7.46675C4.18319 7.47067 4.17899 7.47431 4.17479 7.47851C4.17283 7.48075 4.17087 7.48299 4.16891 7.48467C4.16247 7.49139 4.15659 7.49867 4.15071 7.50595C4.14819 7.50903 4.14567 7.51211 4.14315 7.51547C4.14035 7.51911 4.13783 7.52275 4.13559 7.52667C4.13279 7.53087 4.12999 7.53507 4.12775 7.53899C4.12635 7.54151 4.12467 7.54347 4.12327 7.54543L1.47027 12.1654C1.42519 12.2441 1.41511 12.3385 1.44227 12.425C1.46971 12.5121 1.53215 12.5829 1.61447 12.6213L4.08015 13.7707V20.2922C4.08015 20.4187 4.15323 20.5332 4.26775 20.5864L13.8628 25.0608C13.8642 25.0617 13.8659 25.062 13.867 25.0622C13.8746 25.0662 13.8824 25.0687 13.89 25.072C13.8933 25.0732 13.8958 25.0743 13.8986 25.0748C13.907 25.0779 13.9157 25.0804 13.9244 25.0818C13.9269 25.0824 13.9294 25.0832 13.9317 25.0838C13.9406 25.086 13.9499 25.0874 13.9597 25.0883C13.9616 25.0886 13.9639 25.0891 13.9656 25.0894C13.9768 25.0908 13.9882 25.0916 13.9994 25.0916C13.9997 25.0916 13.9997 25.0916 14 25.0916C14 25.0916 14 25.0916 14.0003 25.0916C14.0118 25.0916 14.0232 25.0911 14.0347 25.0894C14.0367 25.0891 14.0386 25.0886 14.0406 25.0883C14.0498 25.0874 14.0591 25.086 14.0686 25.0838C14.0711 25.0832 14.0736 25.0824 14.0762 25.0816C14.0843 25.0802 14.0932 25.0776 14.1014 25.0748C14.1044 25.0743 14.1072 25.0732 14.11 25.072C14.1179 25.0687 14.1254 25.0662 14.133 25.0625C14.1341 25.062 14.1358 25.0617 14.1372 25.0608L23.7325 20.5867C23.8468 20.5338 23.9196 20.419 23.9196 20.2924V13.7712L26.3864 12.6216C26.4684 12.5832 26.5311 12.5121 26.5583 12.4253C26.5854 12.3385 26.5756 12.2441 26.5303 12.1654ZM14.3245 11.6712V11.5324C14.3245 11.3529 14.1789 11.2078 14 11.2078C13.8211 11.2078 13.6755 11.3532 13.6755 11.5324V11.6721L5.17243 7.70727L13.6749 3.74247V3.88219C13.6749 4.06139 13.8205 4.20671 13.9992 4.20671C14.1786 4.20671 14.3242 4.06083 14.324 3.88191V3.74219L22.8273 7.70167L14.3245 11.6712ZM4.53739 8.12727L13.5425 12.3261L11.214 16.3811L2.20863 12.1825L4.53739 8.12727ZM23.2705 20.0861L14.3245 24.2572L14.324 18.0376C14.324 17.8581 14.1784 17.7128 13.9992 17.7128C13.82 17.7128 13.6749 17.8584 13.6749 18.0376L13.6755 24.2572L4.72891 20.0858V14.0736L11.2098 17.0954C11.2538 17.1158 11.3005 17.1256 11.3464 17.1256C11.4596 17.1256 11.5685 17.0668 11.6284 16.9627L14 12.8327L16.3716 16.9627C16.4318 17.0668 16.5407 17.1256 16.6533 17.1256C16.6995 17.1256 16.7462 17.1158 16.7905 17.0954L23.2708 14.0739V20.0861H23.2705ZM16.7863 16.3811L14.4575 12.3261L23.4634 8.12727L25.7914 12.1825L16.7863 16.3811Z" fill="black"/>
<path d="M13.9992 5.08759C13.8202 5.08759 13.6749 5.23319 13.6749 5.41211L13.6752 6.94231C13.6752 7.12123 13.8205 7.26655 13.9997 7.26655C14.1789 7.26655 14.3242 7.12095 14.3242 6.94231V5.41211C14.3242 5.23291 14.1789 5.08759 13.9992 5.08759Z" fill="black"/>
<path d="M13.9997 8.14743C13.8205 8.14771 13.6755 8.29331 13.6755 8.47251V10.0019C13.6755 10.1816 13.8211 10.3267 13.9997 10.3267C14.1792 10.3267 14.3245 10.1813 14.3245 10.0019L14.3242 8.47223C14.3242 8.29275 14.1789 8.14743 13.9997 8.14743Z" fill="black"/>
</svg>
