<svg width="34" height="42" viewBox="0 0 34 42" fill="none" xmlns="http://www.w3.org/2000/svg">
<path d="M15.4446 5.84416L7.71447 13.6342H4.20447V17.6408H5.41407L7.42287 27.9768C7.49281 28.3004 7.671 28.5899 7.92759 28.7969C8.18417 29.0039 8.50356 29.1157 8.83227 29.1138H24.1845C24.5045 29.1049 24.8121 28.9872 25.0572 28.7797C25.3024 28.5723 25.4706 28.2874 25.5345 27.9714L27.5973 17.6354H28.8042V13.6342H25.2942L17.5722 5.84416L17.1915 6.2304L24.5382 13.6342H8.47857L15.8253 6.2304L15.4446 5.84416ZM25.0107 27.8626C24.9707 28.0565 24.8678 28.2315 24.7183 28.3601C24.5687 28.4886 24.3809 28.5633 24.1845 28.5725H8.83227C8.6278 28.5738 8.42902 28.5047 8.26892 28.3765C8.10883 28.2484 7.99702 28.0689 7.95207 27.868L5.96487 17.6408H27.0384L25.0107 27.8626ZM28.2696 17.0968H4.74717V14.1782H28.2696V17.0968Z" fill="black"/>
<path d="M19.9271 20.1242L19.5437 19.7406L14.4947 24.8298L12.2294 22.4851L11.8433 22.8659L14.4893 25.6022L19.9271 20.1242Z" fill="black"/>
</svg>
