<svg width="32" height="41" viewBox="0 0 32 41" fill="none" xmlns="http://www.w3.org/2000/svg">
<path d="M16 2.07199C15.2093 2.07199 14.491 2.23082 13.9469 2.51599C13.4027 2.80117 13 3.24163 13 3.78324V4.43999H10.6C10.5204 4.44 10.4441 4.47119 10.3879 4.5267C10.3316 4.58221 10.3 4.65749 10.3 4.73599V6.21599H7.29998C6.64034 6.21599 6.09998 6.74917 6.09998 7.39999V26.344C6.09998 26.9948 6.64034 27.528 7.29998 27.528H24.7C25.3596 27.528 25.9 26.9948 25.9 26.344V7.39999C25.9 6.74917 25.3596 6.21599 24.7 6.21599H21.7V4.73599C21.7 4.65749 21.6684 4.58221 21.6121 4.5267C21.5558 4.47119 21.4795 4.44 21.4 4.43999H19V3.78324C19 3.24163 18.5972 2.80117 18.0531 2.51599C17.509 2.23082 16.7906 2.07199 16 2.07199ZM16 2.66399C16.7051 2.66399 17.3399 2.81685 17.7719 3.04324C18.2038 3.26963 18.4 3.54057 18.4 3.78324V4.73599C18.4 4.81449 18.4316 4.88978 18.4879 4.94529C18.5441 5.0008 18.6204 5.03198 18.7 5.03199H21.1V7.99199H10.9V5.03199H13.3C13.3795 5.03198 13.4558 5.0008 13.5121 4.94529C13.5684 4.88978 13.6 4.81449 13.6 4.73599V3.78324C13.6 3.54057 13.7962 3.26963 14.2281 3.04324C14.66 2.81685 15.2948 2.66399 16 2.66399ZM7.29998 6.80799H10.3V8.28799C10.3 8.36649 10.3316 8.44178 10.3879 8.49729C10.4441 8.5528 10.5204 8.58398 10.6 8.58399H21.4C21.4795 8.58398 21.5558 8.5528 21.6121 8.49729C21.6684 8.44178 21.7 8.36649 21.7 8.28799V6.80799H24.7C25.0376 6.80799 25.3 7.06691 25.3 7.39999V26.344C25.3 26.6771 25.0376 26.936 24.7 26.936H7.29998C6.96237 26.936 6.69998 26.6771 6.69998 26.344V7.39999C6.69998 7.06691 6.96237 6.80799 7.29998 6.80799ZM10.9 11.544C10.2408 11.544 9.69998 12.0776 9.69998 12.728C9.69998 13.3784 10.2408 13.912 10.9 13.912C11.5592 13.912 12.1 13.3784 12.1 12.728C12.1 12.0776 11.5592 11.544 10.9 11.544ZM10.9 12.136C11.2349 12.136 11.5 12.3975 11.5 12.728C11.5 13.0585 11.2349 13.32 10.9 13.32C10.5651 13.32 10.3 13.0585 10.3 12.728C10.3 12.3975 10.5651 12.136 10.9 12.136ZM14.4437 12.432C14.3642 12.4394 14.2908 12.4776 14.2398 12.5383C14.1888 12.599 14.1644 12.6772 14.1719 12.7557C14.1793 12.8342 14.2181 12.9066 14.2796 12.9569C14.3411 13.0072 14.4204 13.0314 14.5 13.024H21.4C21.4397 13.0245 21.4792 13.0173 21.5161 13.0027C21.553 12.988 21.5866 12.9663 21.6149 12.9388C21.6432 12.9113 21.6657 12.8784 21.681 12.8422C21.6963 12.8061 21.7042 12.7672 21.7042 12.728C21.7042 12.6888 21.6963 12.6499 21.681 12.6137C21.6657 12.5776 21.6432 12.5447 21.6149 12.5172C21.5866 12.4897 21.553 12.4679 21.5161 12.4533C21.4792 12.4387 21.4397 12.4314 21.4 12.432H14.5C14.4813 12.4303 14.4624 12.4303 14.4437 12.432ZM10.9 15.984C10.2408 15.984 9.69998 16.5176 9.69998 17.168C9.69998 17.8184 10.2408 18.352 10.9 18.352C11.5592 18.352 12.1 17.8184 12.1 17.168C12.1 16.5176 11.5592 15.984 10.9 15.984ZM10.9 16.576C11.2349 16.576 11.5 16.8375 11.5 17.168C11.5 17.4984 11.2349 17.76 10.9 17.76C10.5651 17.76 10.3 17.4984 10.3 17.168C10.3 16.8375 10.5651 16.576 10.9 16.576ZM14.4437 16.872C14.3642 16.8794 14.2908 16.9176 14.2398 16.9783C14.1888 17.039 14.1644 17.1172 14.1719 17.1957C14.1793 17.2742 14.2181 17.3466 14.2796 17.3969C14.3411 17.4472 14.4204 17.4714 14.5 17.464H21.4C21.4397 17.4645 21.4792 17.4573 21.5161 17.4427C21.553 17.428 21.5866 17.4063 21.6149 17.3788C21.6432 17.3513 21.6657 17.3184 21.681 17.2822C21.6963 17.2461 21.7042 17.2072 21.7042 17.168C21.7042 17.1288 21.6963 17.0899 21.681 17.0537C21.6657 17.0176 21.6432 16.9847 21.6149 16.9572C21.5866 16.9297 21.553 16.9079 21.5161 16.8933C21.4792 16.8787 21.4397 16.8714 21.4 16.872H14.5C14.4813 16.8703 14.4624 16.8703 14.4437 16.872ZM10.9 20.424C10.2408 20.424 9.69998 20.9576 9.69998 21.608C9.69998 22.2584 10.2408 22.792 10.9 22.792C11.5592 22.792 12.1 22.2584 12.1 21.608C12.1 20.9576 11.5592 20.424 10.9 20.424ZM10.9 21.016C11.2349 21.016 11.5 21.2775 11.5 21.608C11.5 21.9384 11.2349 22.2 10.9 22.2C10.5651 22.2 10.3 21.9384 10.3 21.608C10.3 21.2775 10.5651 21.016 10.9 21.016ZM14.4437 21.312C14.3642 21.3194 14.2908 21.3576 14.2398 21.4183C14.1888 21.479 14.1644 21.5572 14.1719 21.6357C14.1793 21.7142 14.2181 21.7866 14.2796 21.8369C14.3411 21.8872 14.4204 21.9114 14.5 21.904H21.4C21.4397 21.9046 21.4792 21.8973 21.5161 21.8827C21.553 21.868 21.5866 21.8463 21.6149 21.8188C21.6432 21.7913 21.6657 21.7584 21.681 21.7222C21.6963 21.6861 21.7042 21.6472 21.7042 21.608C21.7042 21.5688 21.6963 21.5299 21.681 21.4937C21.6657 21.4576 21.6432 21.4247 21.6149 21.3972C21.5866 21.3697 21.553 21.3479 21.5161 21.3333C21.4792 21.3187 21.4397 21.3114 21.4 21.312H14.5C14.4813 21.3103 14.4624 21.3103 14.4437 21.312Z" fill="black"/>
</svg>
