<svg width="36" height="46" viewBox="0 0 36 46" fill="none" xmlns="http://www.w3.org/2000/svg">
<path d="M26.244 10.2672C24.084 8.05921 21.24 6.88161 18.216 6.88161C15.192 6.88161 12.312 8.09601 10.188 10.2672C5.76 14.7936 5.76 22.1536 10.188 26.7168C12.348 28.9248 15.192 30.1024 18.216 30.1024C21.24 30.1024 24.12 28.888 26.244 26.7168C28.404 24.5088 29.556 21.6016 29.556 18.5104C29.592 15.3824 28.404 12.4752 26.244 10.2672ZM25.74 26.1648C23.724 28.2256 21.06 29.3664 18.216 29.3664C15.372 29.3664 12.708 28.2256 10.692 26.1648C6.552 21.9328 6.552 15.0144 10.692 10.7824C12.708 8.72161 15.372 7.58081 18.216 7.58081C21.06 7.58081 23.724 8.72161 25.74 10.7824C27.756 12.8432 28.872 15.5664 28.872 18.4736C28.872 21.3808 27.756 24.1408 25.74 26.1648Z" fill="black"/>
<path d="M22.68 14.4256L22.14 13.9104L18.216 17.9584L14.04 13.6896L13.5359 14.2048L17.712 18.4736L13.752 22.5216L14.2559 23.0368L18.216 18.9888L22.248 23.1472L22.752 22.632L18.72 18.4736L22.68 14.4256Z" fill="black"/>
</svg>
