<svg width="36" height="46" viewBox="0 0 36 46" fill="none" xmlns="http://www.w3.org/2000/svg">
<path d="M26.244 10.2672C24.084 8.05921 21.24 6.88161 18.216 6.88161C15.192 6.88161 12.312 8.09601 10.188 10.2672C5.76 14.7936 5.76 22.1536 10.188 26.7168C12.348 28.9248 15.192 30.1024 18.216 30.1024C21.24 30.1024 24.12 28.888 26.244 26.7168C28.404 24.5088 29.556 21.6016 29.556 18.5104C29.592 15.3824 28.404 12.4752 26.244 10.2672ZM25.74 26.1648C23.724 28.2256 21.06 29.3664 18.216 29.3664C15.372 29.3664 12.708 28.2256 10.692 26.1648C6.552 21.9328 6.552 15.0144 10.692 10.7824C12.708 8.72161 15.372 7.58081 18.216 7.58081C21.06 7.58081 23.724 8.72161 25.74 10.7824C27.756 12.8432 28.872 15.5664 28.872 18.4736C28.872 21.3808 27.756 24.1408 25.74 26.1648Z" fill="black"/>
<path d="M25.0278 15.2187L24.4878 14.7035L16.6508 22.717L12.4748 18.4482L11.9708 18.9634L16.1468 23.2322C18.1298 25.2729 16.6508 23.7474 16.6508 23.7474C16.6508 23.7474 20.2132 20.1403 25.0278 15.2187Z" fill="black"/>
</svg>
