<svg width="27" height="24" viewBox="0 0 27 24" fill="none" xmlns="http://www.w3.org/2000/svg">
<path fill-rule="evenodd" clip-rule="evenodd" d="M13.5 19.0063C16.6495 19.0063 19.2027 16.4792 19.2027 13.3619C19.2027 10.2446 16.6495 7.71752 13.5 7.71752C10.3505 7.71752 7.79728 10.2446 7.79728 13.3619C7.79728 16.4792 10.3505 19.0063 13.5 19.0063ZM16.9705 13.3619C16.9705 15.259 15.4167 16.797 13.5 16.797C11.5833 16.797 10.0294 15.259 10.0294 13.3619C10.0294 11.4648 11.5833 9.92685 13.5 9.92685C15.4167 9.92685 16.9705 11.4648 16.9705 13.3619Z" fill="#D6D0DA"/>
<path fill-rule="evenodd" clip-rule="evenodd" d="M4.95094 4.66245L6.09877 2.39027C6.28233 2.02687 6.44942 1.69606 6.61478 1.42751C6.79554 1.13396 7.01143 0.850618 7.32241 0.612085C7.48695 0.485873 7.66452 0.37725 7.85216 0.288029C8.20679 0.119406 8.55938 0.0549932 8.9055 0.0262554C9.22212 -3.40976e-05 9.59575 -1.73903e-05 10.0062 9.66409e-07H16.9937C17.4042 -1.73903e-05 17.7779 -3.40976e-05 18.0945 0.0262554C18.4406 0.0549932 18.7932 0.119406 19.1478 0.288029C19.3355 0.37725 19.513 0.485873 19.6776 0.612085C19.9886 0.850618 20.2045 1.13396 20.3852 1.42751C20.5506 1.69606 20.7177 2.02685 20.9012 2.39026L22.0491 4.66245C22.2922 5.14368 22.7891 5.44766 23.3327 5.44766C25.3581 5.44766 27 7.07278 27 9.07746V17.525C27 18.7436 27.0001 19.7682 26.8893 20.5836C26.7719 21.4478 26.5121 22.2402 25.8671 22.8786C25.2221 23.517 24.4214 23.7742 23.5483 23.8904C22.7245 24 21.6893 24 20.4581 24H6.54185C5.31065 24 4.27554 24 3.45166 23.8904C2.57859 23.7742 1.77793 23.517 1.13293 22.8786C0.487936 22.2402 0.22809 21.4478 0.11071 20.5836C-6.07595e-05 19.7682 -3.24768e-05 18.7436 1.16772e-06 17.525L2.61893e-06 9.07746C2.61893e-06 7.07278 1.64191 5.44766 3.66731 5.44766C4.2109 5.44766 4.70784 5.14368 4.95094 4.66245ZM26.8012 17.5116C26.8012 17.5116 26.8012 17.5117 26.8012 17.5116V17.5116ZM8.81875 2.27947C8.84069 2.26904 8.89889 2.24389 9.09209 2.22785C9.30432 2.21023 9.58366 2.20933 10.0472 2.20933H16.9528C17.4163 2.20933 17.6957 2.21023 17.9079 2.22785C18.1011 2.24389 18.1593 2.26904 18.1812 2.27947C18.2269 2.3012 18.2702 2.32765 18.3102 2.35839C18.3295 2.37314 18.3782 2.41342 18.4791 2.57728C18.59 2.75728 18.7157 3.00418 18.923 3.41458L20.0525 5.65049C20.6738 6.88021 21.9436 7.65699 23.3327 7.65699C24.1253 7.65699 24.7678 8.29296 24.7678 9.07746V17.4477C24.7678 18.7631 24.7655 19.6383 24.677 20.2892C24.5929 20.9083 24.4499 21.1569 24.2887 21.3164C24.1275 21.4759 23.8763 21.6175 23.2509 21.7008C22.5932 21.7883 21.7089 21.7906 20.3799 21.7906H6.62004C5.29105 21.7906 4.4068 21.7883 3.74909 21.7008C3.12365 21.6175 2.87249 21.4759 2.71131 21.3164C2.55013 21.1569 2.40706 20.9083 2.32297 20.2892C2.23454 19.6383 2.23217 18.7631 2.23217 17.4477V9.07746C2.23217 8.29296 2.8747 7.65699 3.66731 7.65699C5.05638 7.65699 6.32624 6.88021 6.94745 5.65049L8.07696 3.41458C8.28428 3.00418 8.41002 2.75728 8.52085 2.57728C8.62175 2.41342 8.67051 2.37314 8.68974 2.35839C8.72981 2.32765 8.77306 2.3012 8.81875 2.27947ZM8.568 2.2029C8.52274 2.23761 8.45911 2.29956 8.35113 2.47491C8.23495 2.6636 8.10498 2.91924 7.89919 3.3266L6.76968 5.56252C6.18213 6.72559 4.9811 7.46027 3.66731 7.46027C2.76493 7.46027 2.03341 8.18431 2.03341 9.07746V17.4477C2.03341 17.4476 2.03341 17.4477 2.03341 17.4477V9.07746C2.03341 8.18431 2.76493 7.46027 3.66731 7.46027C4.9811 7.46027 6.18213 6.72559 6.76968 5.56252L7.89919 3.3266C8.10498 2.91924 8.23495 2.6636 8.35113 2.47491C8.45911 2.29956 8.52274 2.23761 8.568 2.2029Z" fill="#D6D0DA"/>
</svg>
