<svg width="18" height="18" viewBox="0 0 18 18" fill="none" xmlns="http://www.w3.org/2000/svg">
<g clip-path="url(#clip0_1511_9302)">
<path d="M14.25 9.0352C13.8352 9.0352 13.5 9.37125 13.5 9.78516V15.7852C13.5 16.1984 13.164 16.5352 12.75 16.5352H2.25C1.83595 16.5352 1.50005 16.1984 1.50005 15.7852V5.28516C1.50005 4.87193 1.83595 4.5352 2.25 4.5352H8.25005C8.66478 4.5352 9 4.19916 9 3.78525C9 3.3712 8.66478 3.03516 8.25005 3.03516H2.25C1.00951 3.03516 0 4.04466 0 5.28516V15.7852C0 17.0257 1.00951 18.0352 2.25 18.0352H12.75C13.9905 18.0352 15 17.0257 15 15.7852V9.78516C15 9.37042 14.6647 9.0352 14.25 9.0352Z" fill="white"/>
<path d="M7.03185 8.35196C6.97939 8.40442 6.9441 8.47116 6.92913 8.54312L6.3989 11.1952C6.37418 11.3181 6.41318 11.4449 6.50162 11.5341C6.5729 11.6054 6.66889 11.6436 6.76722 11.6436C6.79111 11.6436 6.81597 11.6414 6.84069 11.6362L9.49196 11.106C9.56544 11.0909 9.63218 11.0557 9.68395 11.0031L15.6179 5.06911L12.9667 2.41797L7.03185 8.35196Z" fill="white"/>
<path d="M17.4509 0.583614C16.7198 -0.147663 15.5302 -0.147663 14.7997 0.583614L13.7617 1.62155L16.413 4.27282L17.4509 3.23475C17.805 2.88154 18 2.4105 18 1.90953C18 1.40855 17.805 0.937512 17.4509 0.583614Z" fill="white"/>
</g>
<defs>
<clipPath id="clip0_1511_9302">
<rect width="18" height="18" fill="white"/>
</clipPath>
</defs>
</svg>
