<svg width="20" height="20" viewBox="0 0 20 20" fill="none" xmlns="http://www.w3.org/2000/svg">
<path d="M4.6875 6.77148H0V19.1434H4.6875V6.77148Z" fill="white"/>
<path d="M19.5739 11.9426C19.5739 11.4963 19.4258 11.084 19.1763 10.752C19.6748 10.3909 20 9.80453 20 9.1434C20 8.04859 19.1093 7.15789 18.0145 7.15789H13.501L14.1291 4.98824V3.94867C14.1291 2.03309 12.5706 0.474609 10.655 0.474609C10.1905 0.474609 9.8127 0.8525 9.8127 1.31695V3.62164C9.49945 4.12297 7.75992 6.07492 5.85938 8.12V18.3735L7.48117 18.9817C8.44512 19.3432 9.4559 19.5264 10.4854 19.5264H16.7362C17.831 19.5264 18.7217 18.6357 18.7217 17.5409C18.7217 17.0948 18.5738 16.6826 18.3245 16.3507C18.8229 15.9896 19.1478 15.4029 19.1478 14.7417C19.1478 14.2954 18.9997 13.8831 18.7502 13.5512C19.2487 13.1902 19.5739 12.6038 19.5739 11.9426Z" fill="white"/>
</svg>
