<svg width="250" height="330" viewBox="0 0 250 330" fill="none" xmlns="http://www.w3.org/2000/svg">
<path d="M80.607 218.549L81.5926 214.617H84.5862L82.8666 221.458H62.6313L57.0885 199.393H88.3974L86.6778 206.234H83.6836L84.6082 202.546L84.2639 202.459L84.1469 201.913H61.3628H60.7215L60.8778 202.535L64.9028 218.549L64.9978 218.927H65.3877H80.122H80.5121L80.607 218.549ZM52.9467 191.973L53.0417 192.351H53.4316H92.0781H92.468L92.563 191.973L93.406 188.617H96.3995L94.8228 194.883H50.6869L49.1102 188.617H52.1037L52.9467 191.973Z" stroke="#258389" stroke-opacity="0.3"/>
<path d="M266.064 218.549L267.05 214.617H270.043L268.324 221.458H248.088L242.546 199.393H273.854L272.135 206.234H269.141L270.065 202.546L269.721 202.459L269.604 201.913H246.82H246.179L246.335 202.535L250.36 218.549L250.455 218.927H250.845H265.579H265.969L266.064 218.549ZM238.404 191.973L238.499 192.351H238.889H277.535H277.925L278.02 191.973L278.863 188.617H281.857L280.28 194.883H236.144L234.567 188.617H237.561L238.404 191.973Z" stroke="#258389" stroke-opacity="0.3"/>
<path d="M80.6078 72.1283L81.5953 68.073H84.5906L82.8639 75.1452H62.634L57.084 52.401H88.4018L86.6751 59.4731H83.6791L84.609 55.6545L84.2671 55.5712L84.1469 55.0252H61.3628H60.726L60.877 55.6438L64.902 72.1286L64.9951 72.51H65.3877H80.122H80.5149L80.6078 72.1283ZM52.9459 44.771L53.039 45.1525H53.4316H92.0781H92.4707L92.5638 44.771L93.4087 41.3086H96.404L94.82 47.7877H50.6897L49.1057 41.3086H52.101L52.9459 44.771Z" stroke="#258389" stroke-opacity="0.3"/>
<path d="M266.065 72.1283L267.052 68.073H270.048L268.321 75.1452H248.091L242.541 52.401H273.859L272.132 59.4731H269.136L270.066 55.6545L269.724 55.5712L269.604 55.0252H246.82H246.183L246.334 55.6438L250.359 72.1286L250.452 72.51H250.845H265.579H265.972L266.065 72.1283ZM238.403 44.771L238.496 45.1525H238.889H277.535H277.928L278.021 44.771L278.866 41.3086H281.861L280.277 47.7877H236.147L234.563 41.3086H237.558L238.403 44.771Z" stroke="#258389" stroke-opacity="0.3"/>
<path d="M80.6078 146.777L81.5953 142.721H84.5906L82.8639 149.794H62.634L57.084 127.049H88.4018L86.6751 134.122H83.6791L84.609 130.303L84.2671 130.22L84.1469 129.674H61.3628H60.726L60.877 130.292L64.902 146.777L64.9951 147.158H65.3877H80.122H80.5149L80.6078 146.777ZM52.9459 119.419L53.039 119.801H53.4316H92.0781H92.4707L92.5638 119.419L93.4087 115.957H96.404L94.82 122.436H50.6897L49.1057 115.957H52.101L52.9459 119.419Z" stroke="#258389" stroke-opacity="0.3"/>
<path d="M266.065 146.777L267.052 142.721H270.048L268.321 149.794H248.091L242.541 127.049H273.859L272.132 134.122H269.136L270.066 130.303L269.724 130.22L269.604 129.674H246.82H246.183L246.334 130.292L250.359 146.777L250.452 147.158H250.845H265.579H265.972L266.065 146.777ZM238.403 119.419L238.496 119.801H238.889H277.535H277.928L278.021 119.419L278.866 115.957H281.861L280.277 122.436H236.147L234.563 115.957H237.558L238.403 119.419Z" stroke="#258389" stroke-opacity="0.3"/>
<path d="M173.337 218.549L174.323 214.617H177.317L175.597 221.458H155.362L149.819 199.393H181.128L179.408 206.234H176.414L177.339 202.546L176.994 202.459L176.877 201.913H154.093H153.452L153.608 202.535L157.633 218.549L157.728 218.927H158.118H172.852H173.243L173.337 218.549ZM145.677 191.973L145.772 192.351H146.162H184.809H185.198L185.293 191.973L186.136 188.617H189.13L187.553 194.883H143.417L141.841 188.617H144.834L145.677 191.973Z" stroke="#258389" stroke-opacity="0.3"/>
<path d="M173.338 72.1283L174.326 68.073H177.321L175.594 75.1452H155.364L149.815 52.401H181.132L179.406 59.4731H176.41L177.339 55.6545L176.998 55.5712L176.877 55.0252H154.093H153.456L153.608 55.6438L157.632 72.1286L157.726 72.51H158.118H172.852H173.245L173.338 72.1283ZM145.676 44.771L145.769 45.1525H146.162H184.809H185.201L185.294 44.771L186.139 41.3086H189.134L187.551 47.7877H143.42L141.836 41.3086H144.831L145.676 44.771Z" stroke="#258389" stroke-opacity="0.3"/>
<path d="M173.337 143.898L174.323 139.967H177.317L175.597 146.808H155.362L149.819 124.742H181.128L179.408 131.584H176.414L177.339 127.895L176.994 127.809L176.877 127.263H154.093H153.452L153.608 127.885L157.633 143.899L157.728 144.277H158.118H172.852H173.243L173.337 143.898ZM145.677 117.323L145.772 117.701H146.162H184.809H185.198L185.293 117.323L186.136 113.967H189.13L187.553 120.232H143.417L141.841 113.967H144.834L145.677 117.323Z" stroke="#258389" stroke-opacity="0.3"/>
<path d="M17.4321 112.897L16.4465 116.828L13.4529 116.828L15.1725 109.987L35.4078 109.987L40.9506 132.053L9.64169 132.053L11.3613 125.211L14.3555 125.211L13.4309 128.9L13.7751 128.986L13.8921 129.532L36.6763 129.532L37.3175 129.532L37.1612 128.91L33.1363 112.896L33.0413 112.518L32.6514 112.518L17.9171 112.518L17.5269 112.518L17.4321 112.897ZM45.0924 139.472L44.9974 139.094L44.6074 139.094L5.961 139.094L5.57106 139.094L5.47606 139.472L4.63309 142.828L1.63953 142.828L3.2163 136.563L47.3521 136.563L48.9289 142.828L45.9353 142.828L45.0924 139.472Z" stroke="#258389" stroke-opacity="0.3"/>
<path d="M202.893 112.897L201.907 116.828L198.914 116.828L200.633 109.987L220.869 109.987L226.412 132.053L195.103 132.053L196.822 125.211L199.816 125.211L198.892 128.9L199.236 128.986L199.353 129.532L222.137 129.532L222.778 129.532L222.622 128.91L218.597 112.896L218.502 112.518L218.112 112.518L203.378 112.518L202.988 112.518L202.893 112.897ZM230.553 139.472L230.458 139.094L230.068 139.094L191.422 139.094L191.032 139.094L190.937 139.472L190.094 142.828L187.1 142.828L188.677 136.563L232.813 136.563L234.39 142.828L231.396 142.828L230.553 139.472Z" stroke="#258389" stroke-opacity="0.3"/>
<path d="M110.163 185.555L109.177 189.487L106.183 189.487L107.903 182.645L128.138 182.645L133.681 204.711L102.372 204.711L104.092 197.869L107.086 197.869L106.161 201.558L106.506 201.644L106.623 202.19L129.407 202.19L130.048 202.19L129.892 201.568L125.867 185.555L125.772 185.176L125.382 185.176L110.648 185.176L110.257 185.176L110.163 185.555ZM137.823 212.13L137.728 211.752L137.338 211.752L98.6915 211.752L98.3015 211.752L98.2065 212.13L97.3636 215.486L94.37 215.486L95.9468 209.221L140.083 209.221L141.659 215.486L138.666 215.486L137.823 212.13Z" stroke="#258389" stroke-opacity="0.3"/>
<path d="M110.163 38.2462L109.177 42.178L106.183 42.178L107.903 35.3364L128.138 35.3364L133.681 57.4023L102.372 57.4023L104.092 50.5608L107.086 50.5608L106.161 54.2494L106.506 54.3356L106.623 54.8816L129.407 54.8816L130.048 54.8816L129.892 54.2597L125.867 38.2459L125.772 37.8678L125.382 37.8678L110.648 37.8678L110.257 37.8678L110.163 38.2462ZM137.823 64.8219L137.728 64.4437L137.338 64.4437L98.6915 64.4437L98.3015 64.4437L98.2065 64.8219L97.3636 68.1777L94.37 68.1777L95.9468 61.9123L140.083 61.9123L141.659 68.1777L138.666 68.1777L137.823 64.8219Z" stroke="#258389" stroke-opacity="0.3"/>
<path d="M17.4312 187.653L16.4438 191.708L13.4485 191.708L15.1752 184.636L35.405 184.636L40.955 207.38L9.63724 207.38L11.364 200.308L14.3599 200.308L13.4301 204.127L13.772 204.21L13.8921 204.756L36.6763 204.756L37.3131 204.756L37.162 204.137L33.1371 187.653L33.044 187.271L32.6514 187.271L17.9171 187.271L17.5242 187.271L17.4312 187.653ZM45.0932 215.01L45.0001 214.629L44.6074 214.629L5.961 214.629L5.56833 214.629L5.47525 215.01L4.63037 218.473L1.63506 218.473L3.21903 211.994L47.3494 211.994L48.9334 218.473L45.938 218.473L45.0932 215.01Z" stroke="#258389" stroke-opacity="0.3"/>
<path d="M202.892 187.653L201.905 191.708L198.909 191.708L200.636 184.636L220.866 184.636L226.416 207.38L195.098 207.38L196.825 200.308L199.821 200.308L198.891 204.127L199.233 204.21L199.353 204.756L222.137 204.756L222.774 204.756L222.623 204.137L218.598 187.653L218.505 187.271L218.112 187.271L203.378 187.271L202.985 187.271L202.892 187.653ZM230.554 215.01L230.461 214.629L230.068 214.629L191.422 214.629L191.029 214.629L190.936 215.01L190.091 218.473L187.096 218.473L188.68 211.994L232.81 211.994L234.394 218.473L231.399 218.473L230.554 215.01Z" stroke="#258389" stroke-opacity="0.3"/>
<path d="M17.4312 225.477L16.4438 229.532L13.4485 229.532L15.1752 222.46L35.405 222.46L40.955 245.205L9.63724 245.205L11.364 238.132L14.3599 238.132L13.4301 241.951L13.772 242.034L13.8921 242.58L36.6763 242.58L37.3131 242.58L37.162 241.962L33.1371 225.477L33.044 225.095L32.6514 225.095L17.9171 225.095L17.5242 225.095L17.4312 225.477ZM45.0932 252.834L45.0001 252.453L44.6074 252.453L5.961 252.453L5.56833 252.453L5.47525 252.834L4.63037 256.297L1.63506 256.297L3.21903 249.818L47.3494 249.818L48.9334 256.297L45.938 256.297L45.0932 252.834Z" stroke="#258389" stroke-opacity="0.3"/>
<path d="M202.892 225.477L201.905 229.532L198.909 229.532L200.636 222.46L220.866 222.46L226.416 245.205L195.098 245.205L196.825 238.132L199.821 238.132L198.891 241.951L199.233 242.034L199.353 242.58L222.137 242.58L222.774 242.58L222.623 241.962L218.598 225.477L218.505 225.095L218.112 225.095L203.378 225.095L202.985 225.095L202.892 225.477ZM230.554 252.834L230.461 252.453L230.068 252.453L191.422 252.453L191.029 252.453L190.936 252.834L190.091 256.297L187.096 256.297L188.68 249.818L232.81 249.818L234.394 256.297L231.399 256.297L230.554 252.834Z" stroke="#258389" stroke-opacity="0.3"/>
<path d="M202.892 261.721L201.905 265.777L198.909 265.777L200.636 258.704L220.866 258.704L226.416 281.449L195.098 281.449L196.825 274.376L199.821 274.376L198.891 278.195L199.233 278.278L199.353 278.824L222.137 278.824L222.774 278.824L222.623 278.206L218.598 261.721L218.505 261.34L218.112 261.34L203.378 261.34L202.985 261.34L202.892 261.721ZM230.554 289.079L230.461 288.697L230.068 288.697L191.422 288.697L191.029 288.697L190.936 289.079L190.091 292.541L187.096 292.541L188.68 286.062L232.81 286.062L234.394 292.541L231.399 292.541L230.554 289.079Z" stroke="#258389" stroke-opacity="0.3"/>
<path d="M202.893 38.2462L201.907 42.178L198.914 42.178L200.633 35.3364L220.869 35.3364L226.412 57.4023L195.103 57.4023L196.822 50.5608L199.816 50.5608L198.892 54.2494L199.236 54.3356L199.353 54.8816L222.137 54.8816L222.778 54.8816L222.622 54.2597L218.597 38.2459L218.502 37.8678L218.112 37.8678L203.378 37.8678L202.988 37.8678L202.893 38.2462ZM230.553 64.8219L230.458 64.4437L230.068 64.4437L191.422 64.4437L191.032 64.4437L190.937 64.8219L190.094 68.1777L187.1 68.1777L188.677 61.9123L232.813 61.9123L234.39 68.1777L231.396 68.1777L230.553 64.8219Z" stroke="#258389" stroke-opacity="0.3"/>
<path d="M110.163 112.897L109.177 116.828L106.183 116.828L107.903 109.987L128.138 109.987L133.681 132.053L102.372 132.053L104.092 125.211L107.086 125.211L106.161 128.9L106.506 128.986L106.623 129.532L129.407 129.532L130.048 129.532L129.892 128.91L125.867 112.896L125.772 112.518L125.382 112.518L110.648 112.518L110.257 112.518L110.163 112.897ZM137.823 139.472L137.728 139.094L137.338 139.094L98.6915 139.094L98.3015 139.094L98.2065 139.472L97.3636 142.828L94.37 142.828L95.9468 136.563L140.083 136.563L141.659 142.828L138.666 142.828L137.823 139.472Z" stroke="#258389" stroke-opacity="0.3"/>
<path d="M80.6078 253.279L81.5953 249.223H84.5906L82.8639 256.296H62.634L57.084 233.551H88.4018L86.6751 240.624H83.6791L84.609 236.805L84.2671 236.722L84.1469 236.176H61.3628H60.726L60.877 236.794L64.902 253.279L64.9951 253.66H65.3877H80.122H80.5149L80.6078 253.279ZM52.9459 225.921L53.039 226.303H53.4316H92.0781H92.4707L92.5638 225.921L93.4087 222.459H96.404L94.82 228.938H50.6897L49.1057 222.459H52.101L52.9459 225.921Z" stroke="#258389" stroke-opacity="0.3"/>
<path d="M266.065 253.279L267.052 249.223H270.048L268.321 256.296H248.091L242.541 233.551H273.859L272.132 240.624H269.136L270.066 236.805L269.724 236.722L269.604 236.176H246.82H246.183L246.334 236.794L250.359 253.279L250.452 253.66H250.845H265.579H265.972L266.065 253.279ZM238.403 225.921L238.496 226.303H238.889H277.535H277.928L278.021 225.921L278.866 222.459H281.861L280.277 228.938H236.147L234.563 222.459H237.558L238.403 225.921Z" stroke="#258389" stroke-opacity="0.3"/>
<path d="M266.065 290.226L267.052 286.171H270.048L268.321 293.243H248.091L242.541 270.499H273.859L272.132 277.571H269.136L270.066 273.752L269.724 273.669L269.604 273.123H246.82H246.183L246.334 273.741L250.359 290.226L250.452 290.608H250.845H265.579H265.972L266.065 290.226ZM238.403 262.869L238.496 263.25H238.889H277.535H277.928L278.021 262.869L278.866 259.406H281.861L280.277 265.885H236.147L234.563 259.406H237.558L238.403 262.869Z" stroke="#258389" stroke-opacity="0.3"/>
<path d="M80.607 106.076L81.5926 102.144H84.5862L82.8666 108.986H62.6313L57.0885 86.92H88.3974L86.6778 93.7615H83.6836L84.6082 90.0729L84.2639 89.9866L84.1469 89.4407H61.3628H60.7215L60.8778 90.0625L64.9028 106.076L64.9978 106.454H65.3877H80.122H80.5121L80.607 106.076ZM52.9467 79.5004L53.0417 79.8786H53.4316H92.0781H92.468L92.563 79.5004L93.406 76.1445H96.3995L94.8228 82.41H50.6869L49.1102 76.1445H52.1037L52.9467 79.5004Z" stroke="#258389" stroke-opacity="0.3"/>
<path d="M266.064 106.076L267.05 102.144H270.043L268.324 108.986H248.088L242.546 86.92H273.854L272.135 93.7615H269.141L270.065 90.0729L269.721 89.9866L269.604 89.4407H246.82H246.179L246.335 90.0625L250.36 106.076L250.455 106.454H250.845H265.579H265.969L266.064 106.076ZM238.404 79.5004L238.499 79.8786H238.889H277.535H277.925L278.02 79.5004L278.863 76.1445H281.857L280.28 82.41H236.144L234.567 76.1445H237.561L238.404 79.5004Z" stroke="#258389" stroke-opacity="0.3"/>
<path d="M80.607 180.726L81.5926 176.795H84.5862L82.8666 183.636H62.6313L57.0885 161.57H88.3974L86.6778 168.412H83.6836L84.6082 164.723L84.2639 164.637L84.1469 164.091H61.3628H60.7215L60.8778 164.713L64.9028 180.727L64.9978 181.105H65.3877H80.122H80.5121L80.607 180.726ZM52.9467 154.151L53.0417 154.529H53.4316H92.0781H92.468L92.563 154.151L93.406 150.795H96.3995L94.8228 157.06H50.6869L49.1102 150.795H52.1037L52.9467 154.151Z" stroke="#258389" stroke-opacity="0.3"/>
<path d="M266.064 180.726L267.05 176.795H270.043L268.324 183.636H248.088L242.546 161.57H273.854L272.135 168.412H269.141L270.065 164.723L269.721 164.637L269.604 164.091H246.82H246.179L246.335 164.713L250.36 180.727L250.455 181.105H250.845H265.579H265.969L266.064 180.726ZM238.404 154.151L238.499 154.529H238.889H277.535H277.925L278.02 154.151L278.863 150.795H281.857L280.28 157.06H236.144L234.567 150.795H237.561L238.404 154.151Z" stroke="#258389" stroke-opacity="0.3"/>
<path d="M173.338 253.279L174.326 249.223H177.321L175.594 256.296H155.364L149.815 233.551H181.132L179.406 240.624H176.41L177.339 236.805L176.998 236.722L176.877 236.176H154.093H153.456L153.608 236.794L157.632 253.279L157.726 253.66H158.118H172.852H173.245L173.338 253.279ZM145.676 225.921L145.769 226.303H146.162H184.809H185.201L185.294 225.921L186.139 222.459H189.134L187.551 228.938H143.42L141.836 222.459H144.831L145.676 225.921Z" stroke="#258389" stroke-opacity="0.3"/>
<path d="M173.338 290.353L174.326 286.298H177.321L175.594 293.37H155.364L149.815 270.626H181.132L179.406 277.698H176.41L177.339 273.879L176.998 273.796L176.877 273.25H154.093H153.456L153.608 273.868L157.632 290.353L157.726 290.735H158.118H172.852H173.245L173.338 290.353ZM145.676 262.996L145.769 263.377H146.162H184.809H185.201L185.294 262.996L186.139 259.533H189.134L187.551 266.012H143.42L141.836 259.533H144.831L145.676 262.996Z" stroke="#258389" stroke-opacity="0.3"/>
<path d="M173.338 326.484L174.326 322.429H177.321L175.594 329.501H155.364L149.815 306.756H181.132L179.406 313.829H176.41L177.339 310.01L176.998 309.927L176.877 309.381H154.093H153.456L153.608 309.999L157.632 326.484L157.726 326.865H158.118H172.852H173.245L173.338 326.484ZM145.676 299.126L145.769 299.508H146.162H184.809H185.201L185.294 299.126L186.139 295.664H189.134L187.551 302.143H143.42L141.836 295.664H144.831L145.676 299.126Z" stroke="#258389" stroke-opacity="0.3"/>
<path d="M173.337 106.076L174.323 102.144H177.317L175.597 108.986H155.362L149.819 86.92H181.128L179.408 93.7615H176.414L177.339 90.0729L176.994 89.9866L176.877 89.4407H154.093H153.452L153.608 90.0625L157.633 106.076L157.728 106.454H158.118H172.852H173.243L173.337 106.076ZM145.677 79.5004L145.772 79.8786H146.162H184.809H185.198L185.293 79.5004L186.136 76.1445H189.13L187.553 82.41H143.417L141.841 76.1445H144.834L145.677 79.5004Z" stroke="#258389" stroke-opacity="0.3"/>
<path d="M173.338 178.628L174.326 174.573H177.321L175.594 181.645H155.364L149.815 158.901H181.132L179.406 165.973H176.41L177.339 162.154L176.998 162.071L176.877 161.525H154.093H153.456L153.608 162.144L157.632 178.629L157.726 179.01H158.118H172.852H173.245L173.338 178.628ZM145.676 151.271L145.769 151.652H146.162H184.809H185.201L185.294 151.271L186.139 147.809H189.134L187.551 154.288H143.42L141.836 147.809H144.831L145.676 151.271Z" stroke="#258389" stroke-opacity="0.3"/>
<path d="M17.4321 79.0548L16.4465 82.9866L13.4529 82.9866L15.1725 76.145L35.4078 76.145L40.9506 98.2109L9.64169 98.2109L11.3613 91.3693L14.3555 91.3693L13.4309 95.058L13.7751 95.1442L13.8921 95.6902L36.6763 95.6902L37.3175 95.6902L37.1612 95.0683L33.1363 79.0545L33.0413 78.6764L32.6514 78.6764L17.9171 78.6764L17.5269 78.6764L17.4321 79.0548ZM45.0924 105.63L44.9974 105.252L44.6074 105.252L5.961 105.252L5.57106 105.252L5.47606 105.63L4.63309 108.986L1.63953 108.986L3.2163 102.721L47.3521 102.721L48.9289 108.986L45.9353 108.986L45.0924 105.63Z" stroke="#258389" stroke-opacity="0.3"/>
<path d="M202.893 79.0548L201.907 82.9866L198.914 82.9866L200.633 76.145L220.869 76.145L226.412 98.2109L195.103 98.2109L196.822 91.3693L199.816 91.3693L198.892 95.058L199.236 95.1442L199.353 95.6902L222.137 95.6902L222.778 95.6902L222.622 95.0683L218.597 79.0545L218.502 78.6764L218.112 78.6764L203.378 78.6764L202.988 78.6764L202.893 79.0548ZM230.553 105.63L230.458 105.252L230.068 105.252L191.422 105.252L191.032 105.252L190.937 105.63L190.094 108.986L187.1 108.986L188.677 102.721L232.813 102.721L234.39 108.986L231.396 108.986L230.553 105.63Z" stroke="#258389" stroke-opacity="0.3"/>
<path d="M110.162 150.825L109.174 154.88L106.179 154.88L107.906 147.808L128.136 147.808L133.685 170.552L102.368 170.552L104.094 163.48L107.09 163.48L106.161 167.299L106.502 167.382L106.623 167.928L129.407 167.928L130.044 167.928L129.892 167.309L125.868 150.825L125.774 150.443L125.382 150.443L110.648 150.443L110.255 150.443L110.162 150.825ZM137.824 178.182L137.731 177.801L137.338 177.801L98.6915 177.801L98.2988 177.801L98.2057 178.182L97.3608 181.645L94.3655 181.645L95.9495 175.165L140.08 175.165L141.664 181.645L138.669 181.645L137.824 178.182Z" stroke="#258389" stroke-opacity="0.3"/>
<path d="M110.162 3.51624L109.174 7.57148L106.179 7.57148L107.906 0.499314L128.136 0.499316L133.685 23.2436L102.368 23.2436L104.094 16.1714L107.09 16.1714L106.161 19.99L106.502 20.0733L106.623 20.6193L129.407 20.6193L130.044 20.6193L129.892 20.0007L125.868 3.51594L125.774 3.13454L125.382 3.13454L110.648 3.13453L110.255 3.13453L110.162 3.51624ZM137.824 30.8735L137.731 30.492L137.338 30.492L98.6915 30.492L98.2988 30.492L98.2057 30.8735L97.3608 34.3359L94.3655 34.3359L95.9495 27.8568L140.08 27.8568L141.664 34.3359L138.669 34.3359L137.824 30.8735Z" stroke="#258389" stroke-opacity="0.3"/>
<path d="M17.4321 153.703L16.4465 157.635L13.4529 157.635L15.1725 150.793L35.4078 150.793L40.9506 172.859L9.64169 172.859L11.3613 166.018L14.3555 166.018L13.4309 169.706L13.7751 169.793L13.8921 170.339L36.6763 170.339L37.3175 170.339L37.1612 169.717L33.1363 153.703L33.0413 153.325L32.6514 153.325L17.9171 153.325L17.5269 153.325L17.4321 153.703ZM45.0924 180.279L44.9974 179.901L44.6074 179.901L5.961 179.901L5.57106 179.901L5.47606 180.279L4.63309 183.635L1.63953 183.635L3.2163 177.369L47.3521 177.369L48.9289 183.635L45.9353 183.635L45.0924 180.279Z" stroke="#258389" stroke-opacity="0.3"/>
<path d="M202.893 153.703L201.907 157.635L198.914 157.635L200.633 150.793L220.869 150.793L226.412 172.859L195.103 172.859L196.822 166.018L199.816 166.018L198.892 169.706L199.236 169.793L199.353 170.339L222.137 170.339L222.778 170.339L222.622 169.717L218.597 153.703L218.502 153.325L218.112 153.325L203.378 153.325L202.988 153.325L202.893 153.703ZM230.553 180.279L230.458 179.901L230.068 179.901L191.422 179.901L191.032 179.901L190.937 180.279L190.094 183.635L187.1 183.635L188.677 177.369L232.813 177.369L234.39 183.635L231.396 183.635L230.553 180.279Z" stroke="#258389" stroke-opacity="0.3"/>
<path d="M202.892 3.51624L201.905 7.57148L198.909 7.57148L200.636 0.499314L220.866 0.499316L226.416 23.2436L195.098 23.2436L196.825 16.1714L199.821 16.1714L198.891 19.99L199.233 20.0733L199.353 20.6193L222.137 20.6193L222.774 20.6193L222.623 20.0007L218.598 3.51594L218.505 3.13454L218.112 3.13454L203.378 3.13453L202.985 3.13453L202.892 3.51624ZM230.554 30.8735L230.461 30.492L230.068 30.492L191.422 30.492L191.029 30.492L190.936 30.8735L190.091 34.3359L187.096 34.3359L188.68 27.8568L232.81 27.8568L234.394 34.3359L231.399 34.3359L230.554 30.8735Z" stroke="#258389" stroke-opacity="0.3"/>
<path d="M110.162 225.475L109.174 229.53L106.179 229.53L107.906 222.458L128.136 222.458L133.685 245.203L102.368 245.203L104.094 238.13L107.09 238.13L106.161 241.949L106.502 242.032L106.623 242.578L129.407 242.578L130.044 242.578L129.892 241.96L125.868 225.475L125.774 225.094L125.382 225.094L110.648 225.094L110.255 225.094L110.162 225.475ZM137.824 252.833L137.731 252.451L137.338 252.451L98.6915 252.451L98.2988 252.451L98.2057 252.832L97.3608 256.295L94.3655 256.295L95.9495 249.816L140.08 249.816L141.664 256.295L138.669 256.295L137.824 252.833Z" stroke="#258389" stroke-opacity="0.3"/>
<path d="M110.162 260.1L109.174 264.155L106.179 264.155L107.906 257.083L128.136 257.083L133.685 279.828L102.368 279.828L104.094 272.755L107.09 272.755L106.161 276.574L106.502 276.657L106.623 277.203L129.407 277.203L130.044 277.203L129.892 276.585L125.868 260.1L125.774 259.719L125.382 259.719L110.648 259.719L110.255 259.719L110.162 260.1ZM137.824 287.458L137.731 287.076L137.338 287.076L98.6915 287.076L98.2988 287.076L98.2057 287.457L97.3608 290.92L94.3655 290.92L95.9495 284.441L140.08 284.441L141.664 290.92L138.669 290.92L137.824 287.458Z" stroke="#258389" stroke-opacity="0.3"/>
<path d="M110.163 79.0548L109.177 82.9866L106.183 82.9866L107.903 76.145L128.138 76.145L133.681 98.2109L102.372 98.2109L104.092 91.3693L107.086 91.3693L106.161 95.058L106.506 95.1442L106.623 95.6902L129.407 95.6902L130.048 95.6902L129.892 95.0683L125.867 79.0545L125.772 78.6764L125.382 78.6764L110.648 78.6764L110.257 78.6764L110.163 79.0548ZM137.823 105.63L137.728 105.252L137.338 105.252L98.6915 105.252L98.3015 105.252L98.2065 105.63L97.3636 108.986L94.37 108.986L95.9468 102.721L140.083 102.721L141.659 108.986L138.666 108.986L137.823 105.63Z" stroke="#258389" stroke-opacity="0.3"/>
</svg>
