<svg width="16" height="14" viewBox="0 0 16 14" fill="none" xmlns="http://www.w3.org/2000/svg">
<path d="M14.2075 12H2.08594C1.53365 12 1.08594 12.4477 1.08594 13C1.08594 13.5523 1.53365 14 2.08594 14H14.2075C14.7598 14 15.2075 13.5523 15.2075 13C15.2075 12.4477 14.7598 12 14.2075 12Z" fill="#01AA78"/>
<path d="M14.2084 8H5.3457C4.79342 8 4.3457 8.44772 4.3457 9C4.3457 9.55228 4.79342 10 5.3457 10H14.2084C14.7607 10 15.2084 9.55228 15.2084 9C15.2084 8.44772 14.7607 8 14.2084 8Z" fill="#01AA78"/>
<path d="M14.2078 4H1C0.447715 4 0 4.44772 0 5C0 5.55228 0.447715 6 1 6H14.2078C14.7601 6 15.2078 5.55228 15.2078 5C15.2078 4.44772 14.7601 4 14.2078 4Z" fill="#FF5F73"/>
<path d="M14.2072 0H3.17188C2.61959 0 2.17188 0.447715 2.17188 1C2.17188 1.55228 2.61959 2 3.17188 2H14.2072C14.7595 2 15.2072 1.55228 15.2072 1C15.2072 0.447715 14.7595 0 14.2072 0Z" fill="#FF5F73"/>
</svg>
