<svg width="8" height="13" viewBox="0 0 8 13" fill="none" xmlns="http://www.w3.org/2000/svg">
<path d="M7.49076 6.01225L2.23048 0.449694C2.10882 0.320934 1.94641 0.25 1.77323 0.25C1.60006 0.25 1.43765 0.320934 1.31599 0.449694L0.928603 0.859243C0.67653 1.12611 0.67653 1.55985 0.928603 1.82631L5.34578 6.49741L0.923702 11.1737C0.802038 11.3025 0.734863 11.4741 0.734863 11.6571C0.734863 11.8404 0.802038 12.012 0.923702 12.1409L1.31108 12.5503C1.43284 12.6791 1.59516 12.75 1.76833 12.75C1.94151 12.75 2.10392 12.6791 2.22558 12.5503L7.49076 6.98267C7.61271 6.8535 7.67969 6.68105 7.67931 6.49771C7.67969 6.31367 7.61271 6.14131 7.49076 6.01225Z" fill="#444444"/>
</svg>
