<svg width="11" height="11" viewBox="0 0 11 11" fill="none" xmlns="http://www.w3.org/2000/svg">
<path d="M8.55647 5.07078L3.66133 0.17573C3.54811 0.0624223 3.39698 0 3.23582 0C3.07467 0 2.92353 0.0624223 2.81032 0.17573L2.44982 0.536134C2.21525 0.770977 2.21525 1.15267 2.44982 1.38715L6.56039 5.49772L2.44526 9.61285C2.33204 9.72616 2.26953 9.8772 2.26953 10.0383C2.26953 10.1995 2.33204 10.3506 2.44526 10.464L2.80575 10.8243C2.91906 10.9376 3.07011 11 3.23126 11C3.39242 11 3.54355 10.9376 3.65677 10.8243L8.55647 5.92475C8.66996 5.81108 8.73229 5.65932 8.73193 5.49799C8.73229 5.33603 8.66996 5.18436 8.55647 5.07078Z" fill="#2DB18B"/>
</svg>
