<svg width="183" height="27" viewBox="0 0 183 27" fill="none" xmlns="http://www.w3.org/2000/svg">
<g clip-path="url(#clip0_282_21539)">
<mask id="mask0_282_21539" style="mask-type:alpha" maskUnits="userSpaceOnUse" x="38" y="5" width="145" height="20">
<path fill-rule="evenodd" clip-rule="evenodd" d="M40.6197 11.2445C44.0638 11.2445 47.9689 11.253 49.4605 11.253V12.7256H51.6896C51.6896 11.4573 51.6896 10.1975 51.6896 8.92924C49.1505 8.92924 42.899 8.92073 38.4074 8.92073V8.92924H38.3906V21.9781H38.4074V22.0036C42.9409 22.0036 49.251 22.0122 51.832 22.0122C51.832 20.7524 51.832 19.4841 51.832 18.2243H49.603V19.6884C48.0695 19.6884 44.1057 19.6884 40.6113 19.6799V11.2445H40.6197ZM124.67 5.97559H126.916V8.90371C128.819 8.90371 130.712 8.90371 132.615 8.90371C132.615 11.7722 132.615 19.0755 132.615 21.9441C130.712 21.9441 128.819 21.9355 126.916 21.9441V24.8807C126.17 24.8807 125.416 24.8807 124.67 24.8807V21.9441C122.751 21.9441 120.832 21.9441 118.913 21.9441V8.91222C120.439 8.91222 122.559 8.91222 124.67 8.91222V5.9841V5.97559ZM54.7147 8.92924C54.7147 13.2874 54.7147 17.6455 54.7147 22.0036C55.4606 22.0036 56.198 22.0036 56.9438 22.0036C56.9438 20.5055 56.9438 19.0159 56.9438 17.5178C58.8125 17.5178 60.5137 17.5178 62.3824 17.5178L65.2735 22.0036C66.0612 22.0036 67.0165 22.0036 67.8042 22.0036L64.9802 17.5178H65.0807H67.2763C67.2763 14.6493 67.2763 11.7893 67.2763 8.92073C63.0947 8.92073 58.9047 8.92073 54.7231 8.92073L54.7147 8.92924ZM65.0388 11.253V15.3047C62.3405 15.3047 59.6421 15.3047 56.9354 15.3047C56.9354 13.9513 56.9354 12.6064 56.9354 11.253C59.6338 11.253 62.3321 11.253 65.0304 11.253H65.0388ZM130.386 11.2275V19.7139C127.302 19.7139 124.218 19.7139 121.134 19.7139C121.134 16.8879 121.134 14.0535 121.134 11.2275C124.218 11.2275 127.302 11.2275 130.386 11.2275ZM87.0613 8.92924C87.0613 13.2874 87.0613 17.6455 87.0613 22.0036C87.8071 22.0036 88.5445 22.0036 89.2904 22.0036C89.2904 20.7354 89.2904 19.4586 89.2904 18.1903V17.5263H89.8015C93.0781 17.5263 96.3463 17.5263 99.6228 17.5263C99.6228 14.6578 99.6228 11.7978 99.6228 8.92924C95.4412 8.92924 91.2513 8.92924 87.0697 8.92924H87.0613ZM97.3854 11.253V15.3047C95.2066 15.3047 91.9133 15.3047 89.7932 15.3047H89.282V14.6323C89.282 13.73 89.282 12.8192 89.282 11.9169V11.253H89.7932C91.9217 11.253 95.215 11.253 97.3854 11.253ZM182.978 22.0122C180.9 17.654 178.813 13.2959 176.735 8.93776C175.822 8.93776 174.908 8.93776 173.995 8.93776C171.908 13.2959 169.822 17.654 167.735 22.0122C168.59 22.0122 169.444 22.0122 170.308 22.0122C170.66 21.2376 171.012 20.4715 171.355 19.6969L171.506 19.3734H171.799C174.171 19.3734 176.551 19.3734 178.922 19.3734H179.207L179.358 19.6969C179.71 20.4715 180.07 21.2376 180.422 22.0122C181.277 22.0122 182.123 22.0122 182.978 22.0122ZM175.796 11.9425C176.484 13.4406 177.171 14.9302 177.858 16.4283L178.327 17.4412H177.422C176.048 17.4412 174.665 17.4412 173.291 17.4412H172.386L172.855 16.4283C173.542 14.9302 174.229 13.4406 174.925 11.9425L175.361 10.9977L175.796 11.9425ZM154.553 8.93776C153.648 8.93776 152.752 8.93776 151.847 8.93776C151.847 13.2959 151.847 17.654 151.847 22.0122C152.592 22.0122 153.33 22.0122 154.076 22.0122C154.076 19.1266 154.076 16.241 154.076 13.3555V11.8318L154.93 12.8703C157.444 15.9176 159.958 18.9734 162.472 22.0207C163.377 22.0207 164.274 22.0207 165.179 22.0207C165.171 17.6625 165.179 13.3044 165.179 8.94627C164.433 8.94627 163.696 8.94627 162.95 8.94627C162.95 11.8403 162.95 14.7344 162.95 17.6285V19.1606L162.095 18.1222C159.581 15.0664 157.067 12.0106 154.553 8.94627V8.93776ZM138.246 8.93776C137.341 8.93776 136.444 8.93776 135.539 8.93776C135.539 13.2959 135.539 17.654 135.539 22.0122C136.285 22.0122 137.022 22.0122 137.768 22.0122C137.768 19.1266 137.768 16.241 137.768 13.3555V11.8318L138.623 12.8618C141.137 15.9091 143.651 18.9649 146.165 22.0122C147.07 22.0122 147.967 22.0122 148.872 22.0122C148.872 17.654 148.872 13.2959 148.872 8.93776C148.126 8.93776 147.388 8.93776 146.643 8.93776C146.643 11.8318 146.643 14.7259 146.643 17.62V19.1521L145.788 18.1137C143.274 15.0579 140.76 12.0021 138.246 8.93776ZM102.38 8.93776C102.38 9.71235 102.38 10.4869 102.38 11.2615C104.156 11.2615 105.925 11.2615 107.701 11.2615H108.212V11.934C108.212 15.2962 108.212 18.6584 108.212 22.0207C108.958 22.0207 109.712 22.0207 110.458 22.0207C110.458 18.6584 110.458 15.2962 110.458 11.934V11.2615H110.969C112.746 11.2615 114.514 11.2615 116.291 11.2615C116.291 10.4869 116.291 9.71235 116.291 8.93776C111.656 8.93776 107.022 8.93776 102.388 8.93776H102.38ZM72.4634 8.93776C71.5584 8.94627 70.6534 8.93776 69.7484 8.93776C71.726 11.7637 73.7037 14.5897 75.6813 17.4157L75.8154 17.6115V17.8753C75.8154 19.2543 75.8154 20.6417 75.8154 22.0207C76.5612 22.0207 77.2987 22.0207 78.0445 22.0207C78.0445 20.7013 78.0445 19.382 78.0445 18.0711C78.0361 17.9349 78.0445 17.7987 78.0864 17.6796C78.145 17.4838 78.2121 17.4072 78.3126 17.2625L78.321 17.2454L78.3378 17.2284C80.2736 14.4705 82.2009 11.7127 84.1283 8.95478C83.2149 8.95478 82.3015 8.95478 81.3881 8.95478C80.0305 10.9721 78.6814 12.998 77.3071 15.0068L76.9216 15.5686L76.5445 15.0068C75.1953 12.9895 73.8378 10.9721 72.4718 8.96329L72.4634 8.93776Z" fill="#FEFEFE"/>
</mask>
<g mask="url(#mask0_282_21539)">
<rect x="36.6914" y="1.69434" width="146.767" height="26.2583" fill="white"/>
</g>
<path fill-rule="evenodd" clip-rule="evenodd" d="M25.1934 11.407H9.11233L11.9531 24.1835H22.3526L23.1152 20.7447H25.956L24.5649 27.001H9.73245L5.64304 8.59808H28.646L27.2549 14.8544H24.4141L25.1767 11.4155L25.1934 11.407ZM3.51453 2.98017H30.7912L31.4532 0.000976562H34.294L33.0035 5.79764H1.30223L0.0117188 0.000976562H2.85252L3.51453 2.98017Z" fill="url(#paint0_linear_282_21539)"/>
</g>
<defs>
<linearGradient id="paint0_linear_282_21539" x1="8.94473" y1="25.7838" x2="25.706" y2="1.46169" gradientUnits="userSpaceOnUse">
<stop stop-color="#1EA74B"/>
<stop offset="1" stop-color="#37B7B8"/>
</linearGradient>
<clipPath id="clip0_282_21539">
<rect width="183" height="27" fill="white" transform="translate(0 0.000976562)"/>
</clipPath>
</defs>
</svg>
