<svg width="16" height="16" viewBox="0 0 16 16" fill="none" xmlns="http://www.w3.org/2000/svg">
<g clip-path="url(#clip0_282_15203)">
<path d="M15.0715 2.26116C13.8334 1.02306 11.8189 1.02306 10.5808 2.26116L3.09631 9.74564C2.73643 10.1055 2.53825 10.584 2.53821 11.0929C2.53821 11.6018 2.7364 12.0802 3.09628 12.4401C3.83913 13.183 5.04788 13.183 5.79073 12.4401L11.7783 6.4525L10.8802 5.55437L4.89257 11.5419C4.64497 11.7895 4.24207 11.7896 3.99441 11.5419C3.87447 11.422 3.80838 11.2625 3.80838 11.0929C3.80838 10.9232 3.87447 10.7638 3.99444 10.6438L11.4789 3.15929C12.2218 2.41645 13.4305 2.41645 14.1734 3.15929C14.9162 3.90214 14.9162 5.11086 14.1734 5.85374L6.68883 13.3382C5.45076 14.5763 3.43628 14.5763 2.19812 13.3382C0.960051 12.1001 0.960051 10.0856 2.19812 8.84751L9.68265 1.36297L8.78452 0.464844L1.29999 7.94938C-0.43333 9.6827 -0.43333 12.5031 1.29999 14.2364C2.16665 15.103 3.30506 15.5363 4.4435 15.5363C5.58192 15.5363 6.72033 15.103 7.58696 14.2363L15.0715 6.75181C16.3096 5.51374 16.3096 3.49923 15.0715 2.26116Z" fill="#0AA880"/>
</g>
<defs>
<clipPath id="clip0_282_15203">
<rect width="16" height="16" fill="white"/>
</clipPath>
</defs>
</svg>
