<svg width="22" height="22" viewBox="0 0 22 22" fill="none" xmlns="http://www.w3.org/2000/svg">
<path d="M17.6602 22H4.36855C2.97794 22 1.84766 20.8697 1.84766 19.4791V2.52089C1.84766 1.13028 2.97794 0 4.36855 0H17.6602C19.0508 0 20.181 1.13028 20.181 2.52089V19.4791C20.181 20.8697 19.0508 22 17.6602 22ZM4.36855 1.375C3.73694 1.375 3.22266 1.88928 3.22266 2.52089V19.4791C3.22266 20.1107 3.73694 20.625 4.36855 20.625H17.6602C18.2918 20.625 18.806 20.1107 18.806 19.4791V2.52089C18.806 1.88928 18.2918 1.375 17.6602 1.375H4.36855Z" fill="#33B4A3"/>
<path d="M19.4935 16.5H2.53516C2.15565 16.5 1.84766 16.192 1.84766 15.8125C1.84766 15.433 2.15565 15.125 2.53516 15.125H19.4935C19.873 15.125 20.181 15.433 20.181 15.8125C20.181 16.192 19.873 16.5 19.4935 16.5Z" fill="#33B4A3"/>
<path d="M11.0156 10.084C9.49947 10.084 8.26562 8.85014 8.26562 7.33398C8.26562 5.81783 9.49947 4.58398 11.0156 4.58398C12.5318 4.58398 13.7656 5.81783 13.7656 7.33398C13.7656 8.85014 12.5318 10.084 11.0156 10.084ZM11.0156 5.95898C10.2576 5.95898 9.64062 6.57582 9.64062 7.33398C9.64062 8.09198 10.2576 8.70898 11.0156 8.70898C11.7738 8.70898 12.3906 8.09198 12.3906 7.33398C12.3906 6.57582 11.7738 5.95898 11.0156 5.95898Z" fill="#33B4A3"/>
<path d="M14.9088 16.5H7.11719C6.73769 16.5 6.42969 16.192 6.42969 15.8125V13.9791C6.42969 12.2531 8.35741 11 11.0129 11C13.6686 11 15.5963 12.2531 15.5963 13.9791V15.8125C15.5963 16.192 15.2883 16.5 14.9088 16.5ZM7.80469 15.125H14.2213V13.9791C14.2213 13.2074 12.9948 12.375 11.0129 12.375C9.03114 12.375 7.80469 13.2074 7.80469 13.9791V15.125Z" fill="#33B4A3"/>
</svg>
