<svg width="13" height="13" viewBox="0 0 13 13" fill="none" xmlns="http://www.w3.org/2000/svg">
<g clip-path="url(#clip0_294_892)">
<path d="M9.24219 0.8125C8.72805 0.813098 8.21948 0.919024 7.74785 1.12374C7.27623 1.32846 6.85155 1.62764 6.5 2.00281C5.98482 1.45297 5.31624 1.07071 4.58106 0.905637C3.84589 0.740566 3.07806 0.800315 2.37727 1.07713C1.67648 1.35394 1.07509 1.83503 0.651166 2.45795C0.227244 3.08086 0.000370967 3.81683 0 4.57031C0 8.31188 6.03484 11.9844 6.29688 12.1286C6.36006 12.1666 6.43238 12.1866 6.50609 12.1866C6.5798 12.1866 6.65213 12.1666 6.71531 12.1286C6.96516 11.9844 13 8.31188 13 4.57031C12.9989 3.57401 12.6027 2.61882 11.8982 1.91433C11.1937 1.20983 10.2385 0.813575 9.24219 0.8125ZM6.5 11.3019C5.44984 10.6316 0.8125 7.49938 0.8125 4.57031C0.813021 3.94468 1.01275 3.33546 1.38274 2.83095C1.75274 2.32645 2.27377 1.95286 2.87032 1.76434C3.46688 1.57583 4.10797 1.58217 4.70069 1.78245C5.2934 1.98274 5.80694 2.36655 6.16687 2.87828C6.20437 2.93151 6.25412 2.97495 6.31192 3.00493C6.36971 3.03491 6.43387 3.05056 6.49898 3.05056C6.5641 3.05056 6.62825 3.03491 6.68605 3.00493C6.74385 2.97495 6.79359 2.93151 6.83109 2.87828C7.19073 2.36567 7.70439 1.98103 8.29749 1.78018C8.89059 1.57933 9.53227 1.57274 10.1294 1.76136C10.7265 1.94998 11.2479 2.32399 11.618 2.8291C11.9881 3.33421 12.1876 3.94413 12.1875 4.57031C12.1875 7.49734 7.55016 10.6295 6.5 11.3019Z" fill="#FDD54E"/>
</g>
<defs>
<clipPath id="clip0_294_892">
<rect width="13" height="13" fill="white"/>
</clipPath>
</defs>
</svg>
