<svg width="59" height="59" viewBox="0 0 59 59" fill="none" xmlns="http://www.w3.org/2000/svg">
<path d="M39.8711 36.7598C39.2348 36.7598 38.7188 37.2757 38.7188 37.9121V45.8633C38.7188 49.0403 36.134 51.625 32.957 51.625H20.5154C19.8792 51.625 19.3635 52.1404 19.3631 52.7765L19.3615 55.0676L16.611 52.3173C16.433 51.9086 16.0255 51.625 15.5542 51.625H8.06641C4.88939 51.625 2.30469 49.0403 2.30469 45.8633V28.1172C2.30469 24.9402 4.88939 22.3555 8.06641 22.3555H19.7051C20.3414 22.3555 20.8574 21.8396 20.8574 21.2031C20.8574 20.5667 20.3414 20.0508 19.7051 20.0508H8.06641C3.61859 20.0508 0 23.6694 0 28.1172V45.8633C0 50.3111 3.61859 53.9297 8.06641 53.9297H14.9641L19.6969 58.6625C19.9173 58.8829 20.212 59 20.5119 59C20.6603 59 20.8099 58.9713 20.9523 58.9124C21.3829 58.7343 21.6637 58.3144 21.6641 57.8485L21.6668 53.9297H32.957C37.4048 53.9297 41.0234 50.3111 41.0234 45.8633V37.9121C41.0234 37.2757 40.5074 36.7598 39.8711 36.7598Z" fill="#0AA880"/>
<path d="M42.2513 0H39.3348C30.0995 0 22.5859 7.51351 22.5859 16.7489C22.5859 25.9842 30.0994 33.4976 39.3347 33.4976H42.2511C43.6926 33.4976 45.1193 33.3145 46.5021 32.9527L50.8104 37.2585C51.0309 37.4787 51.3254 37.5958 51.6252 37.5958C51.7738 37.5958 51.9236 37.5671 52.0661 37.508C52.4966 37.3296 52.7773 36.9095 52.7773 36.4434V29.7764C54.6014 28.2993 56.1166 26.4333 57.18 24.3487C58.3878 21.9811 59 19.4241 59 16.7489C59 7.51351 51.4865 0 42.2513 0ZM50.9316 28.2941C50.6427 28.5118 50.4727 28.8526 50.4727 29.2146V33.6626L47.6528 30.8442C47.4333 30.625 47.139 30.5069 46.8381 30.5069C46.7251 30.5069 46.611 30.5236 46.4997 30.5578C45.1281 30.9794 43.6987 31.193 42.2513 31.193H39.3348C31.3701 31.193 24.8906 24.7134 24.8906 16.7489C24.8906 8.78432 31.3703 2.30469 39.3348 2.30469H42.2513C50.2158 2.30469 56.6953 8.78432 56.6953 16.7489C56.6953 21.3272 54.5946 25.5354 50.9316 28.2941Z" fill="#0AA880"/>
<path d="M45.9838 12.6096C45.8175 10.1972 43.8728 8.25247 41.4602 8.08618C40.0926 7.99227 38.7875 8.45355 37.7885 9.38614C36.8033 10.3058 36.2383 11.6059 36.2383 12.9531C36.2383 13.5895 36.7543 14.1055 37.3906 14.1055C38.0269 14.1055 38.543 13.5895 38.543 12.9531C38.543 12.2319 38.8336 11.5634 39.3611 11.071C39.8882 10.5791 40.5771 10.3356 41.3019 10.3856C42.5727 10.4732 43.597 11.4975 43.6846 12.7682C43.7731 14.0515 42.9311 15.1857 41.6826 15.465C40.6711 15.6913 39.9647 16.5703 39.9647 17.6025V20.371C39.9647 21.0074 40.4807 21.5233 41.1171 21.5233C41.7535 21.5233 42.2694 21.0074 42.2693 20.371V17.6945C44.5913 17.1336 46.1491 15.0089 45.9838 12.6096Z" fill="#0AA880"/>
<path d="M41.9319 24.113C41.7176 23.8987 41.4203 23.7754 41.1172 23.7754C40.8141 23.7754 40.5168 23.8987 40.3025 24.113C40.0881 24.3274 39.9648 24.6247 39.9648 24.9277C39.9648 25.232 40.0883 25.5293 40.3025 25.7436C40.5168 25.9579 40.8141 26.0801 41.1172 26.0801C41.4203 26.0801 41.7176 25.9579 41.9319 25.7436C42.1462 25.5281 42.2695 25.232 42.2695 24.9277C42.2695 24.6247 42.1461 24.3274 41.9319 24.113Z" fill="#0AA880"/>
<path d="M31.6895 35.7227H7.375C6.73868 35.7227 6.22266 36.2386 6.22266 36.875C6.22266 37.5114 6.73868 38.0273 7.375 38.0273H31.6895C32.3259 38.0273 32.8418 37.5114 32.8418 36.875C32.8418 36.2386 32.3258 35.7227 31.6895 35.7227Z" fill="#0AA880"/>
<path d="M32.506 42.5134C32.2918 42.2991 31.9945 42.1758 31.6914 42.1758C31.3883 42.1758 31.091 42.2991 30.8767 42.5134C30.6622 42.7278 30.5391 43.0251 30.5391 43.3281C30.5391 43.6312 30.6624 43.9285 30.8767 44.1428C31.091 44.3572 31.3883 44.4805 31.6914 44.4805C31.9945 44.4805 32.2918 44.3572 32.506 44.1428C32.7204 43.9285 32.8438 43.6323 32.8438 43.3281C32.8438 43.0251 32.7203 42.7278 32.506 42.5134Z" fill="#0AA880"/>
<path d="M27.1569 42.1758H7.375C6.73868 42.1758 6.22266 42.6917 6.22266 43.3281C6.22266 43.9646 6.73868 44.4805 7.375 44.4805H27.1569C27.7934 44.4805 28.3093 43.9646 28.3093 43.3281C28.3093 42.6917 27.7933 42.1758 27.1569 42.1758Z" fill="#0AA880"/>
<path d="M24.1992 29.2695H7.375C6.73868 29.2695 6.22266 29.7854 6.22266 30.4219C6.22266 31.0583 6.73868 31.5742 7.375 31.5742H24.1992C24.8357 31.5742 25.3516 31.0583 25.3516 30.4219C25.3516 29.7854 24.8355 29.2695 24.1992 29.2695Z" fill="#0AA880"/>
</svg>
