<svg width="43" height="43" viewBox="0 0 43 43" fill="none" xmlns="http://www.w3.org/2000/svg">
<g clip-path="url(#clip0_282_19020)">
<path d="M23.3312 27.7422C20.4733 27.7422 18.1562 30.0589 18.1562 32.9168C18.1562 35.775 20.473 38.0917 23.3312 38.0917C26.189 38.0917 28.5058 35.7746 28.5058 32.9168C28.5024 30.0603 26.1877 27.7456 23.3312 27.7422ZM23.3312 37.0429C21.0523 37.0429 19.205 35.1956 19.205 32.9168C19.205 30.6383 21.0523 28.791 23.3312 28.791C25.6097 28.791 27.457 30.6383 27.457 32.9168C27.4543 35.1946 25.6087 37.0402 23.3312 37.0429Z" fill="#0AA880"/>
<path d="M42.662 16.5803L32.3531 12.6576L36.3072 11.9308C38.57 11.546 40.1056 9.41638 39.756 7.14779C39.7335 7.00508 39.6532 6.87808 39.5341 6.79649C39.4149 6.7149 39.2678 6.68622 39.1264 6.71694L25.1055 9.77212C24.5726 9.36278 23.9468 9.09103 23.2842 8.98042L14.1565 7.29425C13.2337 7.12457 12.2833 7.18603 11.3902 7.4728L11.2215 7.52708H9.18168L9.79006 4.48386C9.84707 4.19981 9.66271 3.92362 9.37867 3.86661L4.07777 2.80691C3.79407 2.75092 3.51822 2.93493 3.46121 3.21829L0.0103468 20.4784C-0.0466668 20.7624 0.137689 21.0386 0.421732 21.0953L5.72263 22.155C6.00667 22.2117 6.28287 22.0276 6.33954 21.7436L6.87383 19.0711L8.29917 19.2459C9.40564 20.9512 11.227 22.0614 13.2498 22.2636L12.3956 31.0273C12.3813 31.1744 12.4298 31.3209 12.5294 31.4304C12.6288 31.54 12.7698 31.6025 12.9176 31.6025C12.9306 31.6025 12.9432 31.6025 12.9562 31.6011C14.4652 31.4895 15.8629 30.7664 16.8259 29.5995C15.391 32.4034 15.9202 35.8116 18.1376 38.0481C18.1472 38.0597 18.155 38.072 18.1659 38.0826C18.1765 38.0935 18.1888 38.1014 18.2008 38.1109C21.0467 40.936 25.6409 40.9302 28.4796 38.0976C28.4854 38.0925 28.4922 38.0884 28.498 38.0826C28.5021 38.0782 28.5052 38.073 28.5093 38.0686C30.9506 35.6197 31.3368 31.793 29.4338 28.9061C30.1859 29.5326 31.0657 29.9877 32.012 30.2393C32.1858 30.2857 32.3712 30.2396 32.5033 30.1174C32.6351 29.9952 32.6955 29.8139 32.6627 29.6371L30.9906 20.6006L34.0796 24.1928C35.5459 25.9097 38.007 26.3808 40.0038 25.3266C40.1425 25.2539 40.2415 25.1228 40.2735 24.9695C40.3056 24.8162 40.2677 24.6568 40.1698 24.5342L35.2878 18.4331L37.4215 19.335C37.9619 19.5808 38.5485 19.7078 39.1422 19.7078C40.7727 19.7092 42.2574 18.7676 42.9508 17.2918C43.0126 17.1596 43.0163 17.0081 42.9617 16.8729C42.9071 16.738 42.7985 16.6318 42.6623 16.5799L42.662 16.5803ZM36.1307 10.8967C36.1276 10.8967 36.1245 10.8977 36.1218 10.8984L28.087 12.3753L26.0973 10.6294L38.7571 7.87053C38.7175 9.37746 37.6168 10.6458 36.1307 10.8967ZM5.41401 21.0236L1.1414 20.1694L4.3864 3.9383L8.659 4.79248L5.41401 21.0236ZM23.3316 25.611C21.4092 25.6099 19.5646 26.3692 18.2001 27.7229C18.1888 27.7324 18.1765 27.7403 18.1659 27.7509C18.155 27.7614 18.1475 27.7737 18.1379 27.785C17.9338 27.9919 17.7423 28.2107 17.564 28.4405C17.8273 27.8871 17.9963 27.2941 18.0649 26.685L18.5159 22.6838C18.6541 21.4589 18.8422 20.2244 19.0754 19.0131C19.8453 17.6779 21.3532 16.9493 22.8776 17.176C24.4023 17.4031 25.6327 18.5389 25.9805 20.0404L27.1888 25.2556C27.3622 26.0063 27.6633 26.7215 28.0784 27.3705C26.7579 26.2344 25.0735 25.6099 23.3316 25.611ZM28.1095 36.9529L27.9992 36.8426C27.8671 36.7071 27.6725 36.6532 27.4899 36.701C27.3069 36.7491 27.1642 36.8921 27.116 37.0748C27.0682 37.2578 27.1222 37.4524 27.2577 37.5842L27.3687 37.6951C26.379 38.536 25.1503 39.045 23.856 39.1505V38.9931C23.856 38.7036 23.6211 38.4687 23.3316 38.4687C23.0421 38.4687 22.8072 38.7036 22.8072 38.9931V39.1498C21.5137 39.0419 20.2864 38.5326 19.2966 37.6931L19.4056 37.5842C19.6104 37.3793 19.6104 37.0471 19.4056 36.8426C19.2007 36.6378 18.8685 36.6378 18.664 36.8426L18.5551 36.9515C17.7156 35.9615 17.2063 34.7342 17.0984 33.4409H17.2551C17.5446 33.4409 17.7795 33.2061 17.7795 32.9166C17.7795 32.627 17.5446 32.3922 17.2551 32.3922H17.0984C17.2063 31.0989 17.7153 29.8716 18.5548 28.8816L18.6637 28.9905C18.8689 29.1926 19.1987 29.1912 19.4021 28.9874C19.606 28.7839 19.6073 28.4541 19.4052 28.249L19.2963 28.14C20.2864 27.3005 21.5137 26.7912 22.8072 26.6836V26.84C22.8072 27.1295 23.0421 27.3644 23.3316 27.3644C23.6211 27.3644 23.856 27.1295 23.856 26.84V26.6836C25.1492 26.7915 26.3766 27.3005 27.3666 28.14L27.2577 28.249C27.1232 28.3811 27.0703 28.575 27.1184 28.757C27.1666 28.9393 27.3089 29.0813 27.4909 29.1298C27.6729 29.1779 27.8671 29.125 27.9992 28.9905L28.1081 28.8816C28.9476 29.8716 29.4567 31.0989 29.5646 32.3922H29.4082C29.1187 32.3922 28.8838 32.627 28.8838 32.9166C28.8838 33.2064 29.1187 33.4409 29.4082 33.4409H29.5649C29.4621 34.7359 28.9528 35.9649 28.1095 36.9529ZM28.2106 25.0186L27.0024 19.8038C26.5531 17.8643 24.9536 16.4034 22.9817 16.1314C21.0098 15.8596 19.0747 16.8326 18.1171 18.5778C18.0908 18.6253 18.0724 18.6765 18.0618 18.7297C17.816 19.995 17.618 21.2858 17.4739 22.566L17.0229 26.5676C16.8055 28.4859 15.3907 30.0529 13.5041 30.4643L14.346 21.8238C14.36 21.6784 14.3129 21.5336 14.2156 21.4244C14.1183 21.3151 13.98 21.2516 13.8339 21.2489C11.8743 21.2178 10.0703 20.1752 9.06492 18.4931C9.06492 18.4925 9.0598 18.4843 9.05946 18.4843C8.97616 18.3467 8.83448 18.2552 8.67505 18.2354L7.08003 18.0398L8.97206 8.57586H11.3038C11.3584 8.57586 11.4127 8.56733 11.4646 8.5506L11.7118 8.47105C12.4397 8.23719 13.2143 8.18735 13.9664 8.32561L23.0985 10.0125L23.108 10.0138C23.671 10.107 24.1964 10.3559 24.6252 10.7325L27.8296 13.5442C28.4393 14.0806 28.8514 14.806 29.0002 15.6042L31.4672 28.9413C29.8216 28.2233 28.6134 26.7683 28.2106 25.019V25.0186ZM38.9185 24.6492C37.4638 25.1224 35.8675 24.6721 34.8743 23.5086L31.1691 19.1998L30.6133 18.5631L30.191 16.2795L33.2578 17.5755L38.9185 24.6492ZM37.85 18.3778C37.8452 18.3757 37.8411 18.3737 37.8363 18.3716L29.9442 15.0361C29.7663 14.3882 29.4512 13.7859 29.0204 13.2701L30.3641 13.0233L41.7129 17.3406C40.8372 18.5631 39.2203 18.9974 37.85 18.3778Z" fill="#0AA880"/>
<path d="M5.95127 5.71484C5.11518 5.71484 4.4375 6.39286 4.4375 7.22895C4.4375 8.06504 5.11552 8.74272 5.95161 8.74238C6.7877 8.74238 7.46538 8.06436 7.46538 7.22827C7.46401 6.39286 6.78701 5.71587 5.95127 5.71484ZM5.95127 7.6936C5.69453 7.6936 5.48628 7.48568 5.48628 7.22861C5.48628 6.97188 5.69419 6.76362 5.95127 6.76362C6.208 6.76328 6.41625 6.97154 6.4166 7.22827C6.41625 7.485 6.20834 7.69326 5.95127 7.6936Z" fill="#0AA880"/>
</g>
<defs>
<clipPath id="clip0_282_19020">
<rect width="43" height="43" fill="white"/>
</clipPath>
</defs>
</svg>
