<svg width="7" height="7" viewBox="0 0 7 7" fill="none" xmlns="http://www.w3.org/2000/svg">
<g clip-path="url(#clip0_1511_6187)">
<path d="M3.77314 5.44414L6.88817 2.32905C6.96028 2.257 7 2.16083 7 2.05827C7 1.95572 6.96028 1.85954 6.88817 1.78749L6.65882 1.55809C6.50938 1.40881 6.26649 1.40881 6.11727 1.55809L3.50145 4.17391L0.882733 1.55519C0.810628 1.48314 0.714507 1.44336 0.612012 1.44336C0.509403 1.44336 0.413281 1.48314 0.34112 1.55519L0.111829 1.78459C0.0397239 1.8567 4.54568e-07 1.95282 4.50085e-07 2.05537C4.45603e-07 2.15792 0.0397238 2.2541 0.111829 2.32615L3.22971 5.44414C3.30204 5.51636 3.39861 5.55603 3.50128 5.5558C3.60434 5.55603 3.70086 5.51636 3.77314 5.44414Z" fill="white"/>
</g>
<defs>
<clipPath id="clip0_1511_6187">
<rect width="7" height="7" fill="white" transform="translate(7) rotate(90)"/>
</clipPath>
</defs>
</svg>
