<svg width="8" height="10" viewBox="0 0 8 10" fill="none" xmlns="http://www.w3.org/2000/svg">
<path d="M0.91 10V0.64H4.524C5.04833 0.64 5.5055 0.748333 5.8955 0.964999C6.2855 1.18167 6.58883 1.47417 6.8055 1.8425C7.02217 2.2065 7.1305 2.6095 7.1305 3.0515C7.1305 3.55417 6.99617 4.00267 6.7275 4.397C6.45883 4.787 6.09917 5.05783 5.6485 5.2095L5.6355 4.891C6.24217 5.06433 6.71883 5.36767 7.0655 5.801C7.41217 6.23433 7.5855 6.75867 7.5855 7.374C7.5855 7.91567 7.47067 8.38367 7.241 8.778C7.01133 9.168 6.6885 9.46917 6.2725 9.6815C5.8565 9.89383 5.37333 10 4.823 10H0.91ZM1.872 9.0835H4.589C4.97033 9.0835 5.31267 9.01633 5.616 8.882C5.91933 8.74333 6.15767 8.54833 6.331 8.297C6.50867 8.04567 6.5975 7.74233 6.5975 7.387C6.5975 7.04033 6.51733 6.72833 6.357 6.451C6.19667 6.17367 5.97783 5.95267 5.7005 5.788C5.4275 5.619 5.1155 5.5345 4.7645 5.5345H1.872V9.0835ZM1.872 4.631H4.5175C4.8165 4.631 5.0895 4.56383 5.3365 4.4295C5.5835 4.29083 5.7785 4.10233 5.9215 3.864C6.06883 3.62567 6.1425 3.3505 6.1425 3.0385C6.1425 2.5965 5.98867 2.23683 5.681 1.9595C5.37767 1.68217 4.98983 1.5435 4.5175 1.5435H1.872V4.631Z" fill="white"/>
</svg>
