<svg width="17" height="17" viewBox="0 0 17 17" fill="none" xmlns="http://www.w3.org/2000/svg">
<path d="M15.9807 7.48049L9.36942 7.50048V1.01932C9.36942 0.454608 8.91482 0 8.3501 0C7.78557 0 7.33078 0.454608 7.33078 1.01932L7.35076 7.48068H1.01932C0.454608 7.48068 0 7.93528 0 8.5C0 9.06454 0.454608 9.51914 1.01932 9.51914H7.34077V15.9807C7.34077 16.545 7.79538 17 8.36009 17C8.92481 17 9.37942 16.545 9.37942 15.9807V9.51932H15.9807C16.5454 9.51932 17 9.06435 17 8.5C17 7.9351 16.5403 7.48049 15.9807 7.48049Z" fill="white"/>
</svg>
