<svg width="57" height="57" viewBox="0 0 57 57" fill="none" xmlns="http://www.w3.org/2000/svg">
<path d="M17.8125 46.9805V45.6757C19.1082 45.2161 20.0391 43.9787 20.0391 42.5273C20.0391 40.6858 18.5408 39.1875 16.6992 39.1875C16.0854 39.1875 15.5859 38.6881 15.5859 38.0742C15.5859 37.4604 16.0854 36.9609 16.6992 36.9609C17.0527 36.9609 17.3775 37.1235 17.5904 37.4068C17.9596 37.8983 18.6575 37.9977 19.1492 37.6282C19.6408 37.2591 19.7399 36.561 19.3706 36.0695C18.9727 35.5397 18.4256 35.1458 17.8125 34.9279V33.6211C17.8125 33.0063 17.3141 32.5078 16.6992 32.5078C16.0844 32.5078 15.5859 33.0063 15.5859 33.6211V34.9259C14.2902 35.3854 13.3594 36.6228 13.3594 38.0742C13.3594 39.9158 14.8576 41.4141 16.6992 41.4141C17.3131 41.4141 17.8125 41.9135 17.8125 42.5273C17.8125 43.1412 17.3131 43.6406 16.6992 43.6406C16.3458 43.6406 16.0209 43.4781 15.808 43.1948C15.4388 42.7031 14.7408 42.6037 14.2492 42.9733C13.7576 43.3425 13.6585 44.0405 14.0278 44.532C14.4258 45.0618 14.9729 45.4557 15.5859 45.6737V46.9805C15.5859 47.5952 16.0844 48.0938 16.6992 48.0938C17.3141 48.0938 17.8125 47.5952 17.8125 46.9805Z" fill="#0AA880"/>
<path d="M40.3008 0C31.0928 0 23.6016 7.49127 23.6016 16.6992C23.6016 21.2257 25.4126 25.3365 28.3473 28.3473C25.3365 25.4126 21.2257 23.6016 16.6992 23.6016C7.49127 23.6016 0 31.0928 0 40.3008C0 47.4866 4.58126 53.8512 11.3999 56.1382C11.9827 56.334 12.6139 56.0198 12.8094 55.4367C13.0049 54.8539 12.6909 54.2228 12.1079 54.0273C6.19753 52.0448 2.22656 46.5285 2.22656 40.3008C2.22656 32.3204 8.719 25.8281 16.6992 25.8281C24.6794 25.8281 31.1719 32.3204 31.1719 40.3008C31.1719 46.5285 27.2009 52.0448 21.2905 54.0273C20.7076 54.2228 20.3935 54.8539 20.589 55.4367C20.7452 55.9023 21.1791 56.1963 21.6443 56.1963C21.7616 56.1963 21.8811 56.1776 21.9985 56.1382C28.8172 53.8512 33.3984 47.4866 33.3984 40.3008C33.3984 35.7743 31.5874 31.6635 28.6527 28.6527C31.6635 31.5874 35.7743 33.3984 40.3008 33.3984C49.5087 33.3984 57 25.9072 57 16.6992C57 7.49127 49.5087 0 40.3008 0ZM40.3008 31.1719C32.3206 31.1719 25.8281 24.6796 25.8281 16.6992C25.8281 8.71888 32.3206 2.22656 40.3008 2.22656C48.281 2.22656 54.7734 8.71888 54.7734 16.6992C54.7734 24.6796 48.281 31.1719 40.3008 31.1719Z" fill="#0AA880"/>
<path d="M40.3008 4.45312C33.5483 4.45312 28.0547 9.94672 28.0547 16.6992C28.0547 23.4517 33.5483 28.9453 40.3008 28.9453C47.0533 28.9453 52.5469 23.4517 52.5469 16.6992C52.5469 9.94672 47.0533 4.45312 40.3008 4.45312ZM40.3008 26.7188C34.776 26.7188 30.2812 22.224 30.2812 16.6992C30.2812 11.1744 34.776 6.67969 40.3008 6.67969C45.8256 6.67969 50.3203 11.1744 50.3203 16.6992C50.3203 22.224 45.8256 26.7188 40.3008 26.7188Z" fill="#0AA880"/>
<path d="M43.5309 18.0058L43.5081 18.022C43.3803 18.1139 43.2735 18.232 43.1946 18.3681C42.7913 19.0654 42.1528 19.5831 41.4142 19.8456V13.5526C42.1528 13.8152 42.7913 14.3328 43.1946 15.0301C43.5026 15.5623 44.1837 15.7441 44.7157 15.4362C45.248 15.1283 45.4298 14.4473 45.1218 13.915C44.3183 12.526 42.955 11.5633 41.4141 11.2466V10.0195C41.4141 9.40478 40.9156 8.90625 40.3008 8.90625C39.6859 8.90625 39.1875 9.40478 39.1875 10.0195V11.2448C36.6498 11.762 34.7344 14.011 34.7344 16.6992C34.7344 19.3875 36.6498 21.6364 39.1875 22.1536V23.3789C39.1875 23.9937 39.6859 24.4922 40.3008 24.4922C40.9156 24.4922 41.4141 23.9937 41.4141 23.3789V22.151C42.9071 21.8439 44.2337 20.9312 45.0456 19.6111C45.3546 19.2306 45.3846 18.6764 45.0847 18.2593C44.7256 17.7603 44.0299 17.6468 43.5309 18.0058ZM36.961 16.6992C36.961 15.2479 37.8919 14.0104 39.1876 13.5509V19.8476C37.8919 19.388 36.961 18.1505 36.961 16.6992Z" fill="#0AA880"/>
<path d="M28.9453 40.3008C28.9453 33.5483 23.4517 28.0547 16.6992 28.0547C9.94672 28.0547 4.45312 33.5483 4.45312 40.3008C4.45312 47.0533 9.94672 52.5469 16.6992 52.5469C23.4517 52.5469 28.9453 47.0533 28.9453 40.3008ZM6.67969 40.3008C6.67969 34.776 11.1744 30.2812 16.6992 30.2812C22.224 30.2812 26.7188 34.776 26.7188 40.3008C26.7188 45.8256 22.224 50.3203 16.6992 50.3203C11.1744 50.3203 6.67969 45.8256 6.67969 40.3008Z" fill="#0AA880"/>
<path d="M4.77929 19.7138C5.20991 20.1444 5.91773 20.1494 6.3538 19.7138L8.58036 17.4872C9.0151 17.0525 9.0151 16.3475 8.58036 15.9127C8.14563 15.4781 7.4407 15.4781 7.00585 15.9127L6.4147 16.5039C6.41236 13.8564 7.45194 11.2976 9.37447 9.37506C11.8231 6.92618 15.3042 5.90908 18.6864 6.65432C19.2871 6.7868 19.8808 6.40694 20.0131 5.80666C20.1454 5.20616 19.7658 4.61222 19.1654 4.47997C15.0372 3.57019 10.7887 4.81195 7.79995 7.80066C5.57907 10.0217 4.32407 12.9383 4.19838 15.9839L4.12713 15.9127C3.69239 15.4781 2.98746 15.4781 2.55261 15.9127C2.11788 16.3474 2.11788 17.0524 2.55261 17.4872L4.77929 19.7138Z" fill="#0AA880"/>
<path d="M46.2899 46.0266C43.8412 48.4755 40.3598 49.4925 36.978 48.7473C36.3776 48.6151 35.7836 48.9945 35.6513 49.595C35.519 50.1955 35.8986 50.7894 36.499 50.9217C37.3898 51.118 38.2859 51.214 39.1742 51.214C42.4016 51.2139 45.5205 49.9448 47.8644 47.601C50.0853 45.38 51.3403 42.4633 51.466 39.4177L51.5373 39.4889C51.7547 39.7063 52.0396 39.815 52.3245 39.815C52.6094 39.815 52.8944 39.7063 53.1117 39.4889C53.5464 39.0542 53.5464 38.3493 53.1117 37.9144L50.8851 35.6879C50.4432 35.246 49.7351 35.2643 49.3106 35.6879L47.084 37.9144C46.6493 38.3492 46.6493 39.0541 47.084 39.4889C47.5188 39.9236 48.2237 39.9236 48.6585 39.4889L49.2497 38.8978C49.252 41.5453 48.2125 44.104 46.2899 46.0266Z" fill="#0AA880"/>
<path d="M16.6992 57C17.3141 57 17.8125 56.5016 17.8125 55.8867C17.8125 55.2719 17.3141 54.7734 16.6992 54.7734C16.0844 54.7734 15.5859 55.2719 15.5859 55.8867C15.5859 56.5016 16.0844 57 16.6992 57Z" fill="#0AA880"/>
</svg>
