<svg width="18" height="18" viewBox="0 0 18 18" fill="none" xmlns="http://www.w3.org/2000/svg">
<g clip-path="url(#clip0_282_17165)">
<path d="M13.5 1.125V0H17.4375C17.7482 0 18 0.251824 18 0.5625V4.5H16.875V1.91813L11.6494 7.14375L10.8563 6.35063L16.0819 1.125H13.5Z" fill="white"/>
<path d="M0.563281 0H4.50078V1.125H1.91891L7.14453 6.35063L6.35141 7.14375L1.12578 1.91813V4.5H0.000781059V0.5625C0.000781059 0.251824 0.252605 0 0.563281 0Z" fill="white"/>
<path d="M1.12578 16.0811L6.35141 10.8555L7.14453 11.6486L1.91891 16.8742H4.50078V17.9992H0.563281C0.252605 17.9992 0.000781059 17.7474 0.000781059 17.4367V13.4992H1.12578V16.0811Z" fill="white"/>
<path d="M11.6494 10.8516L16.875 16.0828V13.5009H18V17.4384C18 17.7491 17.7482 18.0009 17.4375 18.0009H13.5V16.8759H16.0819L10.8563 11.6503L11.6494 10.8516Z" fill="white"/>
</g>
<defs>
<clipPath id="clip0_282_17165">
<rect width="18" height="18" fill="white" transform="matrix(-1 0 0 1 18 0)"/>
</clipPath>
</defs>
</svg>
