<svg width="16" height="16" viewBox="0 0 16 16" fill="none" xmlns="http://www.w3.org/2000/svg">
<path d="M7.99945 3.46289C6.64817 3.46289 5.54883 4.56223 5.54883 5.91352C5.54883 7.2648 6.64817 8.36414 7.99945 8.36414C9.35073 8.36414 10.4501 7.2648 10.4501 5.91352C10.4501 4.56223 9.35073 3.46289 7.99945 3.46289ZM7.99945 7.14898C7.31814 7.14898 6.76402 6.59464 6.76402 5.91355C6.76402 5.23223 7.31814 4.67811 7.99945 4.67811C8.68058 4.67811 9.23489 5.23223 9.23489 5.91355C9.23489 6.59486 8.68058 7.14898 7.99945 7.14898Z" fill="white"/>
<path d="M8.00017 7.16992C7.66458 7.16992 7.39258 7.44192 7.39258 7.77752V14.9877C7.39258 15.3232 7.66458 15.5952 8.00017 15.5952C8.33577 15.5952 8.60777 15.3232 8.60777 14.9877V7.77752C8.60777 7.44192 8.33577 7.16992 8.00017 7.16992Z" fill="white"/>
<path d="M8.00017 0.404297C7.66458 0.404297 7.39258 0.676297 7.39258 1.01189V4.07011C7.39258 4.4057 7.66458 4.6777 8.00017 4.6777C8.33577 4.6777 8.60777 4.4057 8.60777 4.07011V1.01189C8.60777 0.676297 8.33577 0.404297 8.00017 0.404297Z" fill="white"/>
<path d="M13.5483 7.63477C12.1972 7.63477 11.0977 8.73411 11.0977 10.0854C11.0977 11.4367 12.1972 12.536 13.5483 12.536C14.8996 12.536 15.9989 11.4367 15.9989 10.0854C15.9989 8.73411 14.8994 7.63477 13.5483 7.63477ZM13.5483 11.321C12.8667 11.321 12.3126 10.7667 12.3126 10.0854C12.3126 9.40408 12.867 8.84995 13.5483 8.84995C14.2296 8.84995 14.7837 9.4043 14.7837 10.0854C14.7837 10.7669 14.2294 11.321 13.5483 11.321Z" fill="white"/>
<path d="M13.549 11.3223C13.2134 11.3223 12.9414 11.5943 12.9414 11.9299V14.9881C12.9414 15.3237 13.2134 15.5957 13.549 15.5957C13.8848 15.5957 14.1566 15.3237 14.1566 14.9881V11.9299C14.1566 11.5943 13.8846 11.3223 13.549 11.3223Z" fill="white"/>
<path d="M13.549 0.404297C13.2134 0.404297 12.9414 0.676297 12.9414 1.01189V8.22201C12.9414 8.5576 13.2134 8.82961 13.549 8.82961C13.8848 8.82961 14.1566 8.5576 14.1566 8.22201V1.01189C14.1566 0.676297 13.8846 0.404297 13.549 0.404297Z" fill="white"/>
<path d="M2.45062 7.63477C1.09934 7.63477 0 8.73411 0 10.0854C0 11.4367 1.09934 12.536 2.45062 12.536C3.80191 12.536 4.90125 11.4367 4.90125 10.0854C4.90128 8.73411 3.80194 7.63477 2.45062 7.63477ZM2.45062 11.321C1.76931 11.321 1.21519 10.7667 1.21519 10.0854C1.21519 9.40408 1.76931 8.84995 2.45062 8.84995C3.13194 8.84995 3.68606 9.4043 3.68606 10.0854C3.68606 10.7669 3.13194 11.321 2.45062 11.321Z" fill="white"/>
<path d="M2.45134 11.3223C2.11575 11.3223 1.84375 11.5943 1.84375 11.9299V14.9881C1.84375 15.3237 2.11575 15.5957 2.45134 15.5957C2.78694 15.5957 3.05894 15.3237 3.05894 14.9881V11.9299C3.05894 11.5943 2.78694 11.3223 2.45134 11.3223Z" fill="white"/>
<path d="M2.45134 0.404297C2.11575 0.404297 1.84375 0.676297 1.84375 1.01189V8.22201C1.84375 8.5576 2.11575 8.82961 2.45134 8.82961C2.78694 8.82961 3.05894 8.5576 3.05894 8.22201V1.01189C3.05894 0.676297 2.78694 0.404297 2.45134 0.404297Z" fill="white"/>
</svg>
