<svg width="15" height="15" viewBox="0 0 15 15" fill="none" xmlns="http://www.w3.org/2000/svg">
<path d="M4.55799 10.4417C4.6752 10.5589 4.83414 10.6247 4.99987 10.6247C5.1656 10.6247 5.32454 10.5589 5.44174 10.4417L7.49987 8.38362L9.55799 10.4417C9.67587 10.5556 9.83375 10.6186 9.99762 10.6172C10.1615 10.6157 10.3182 10.55 10.4341 10.4341C10.55 10.3182 10.6157 10.1615 10.6172 9.99762C10.6186 9.83375 10.5556 9.67587 10.4417 9.55799L8.38362 7.49987L10.4417 5.44174C10.5014 5.38409 10.549 5.31512 10.5818 5.23887C10.6146 5.16262 10.6318 5.08061 10.6325 4.99762C10.6332 4.91463 10.6174 4.83233 10.586 4.75552C10.5546 4.67871 10.5082 4.60893 10.4495 4.55025C10.3908 4.49156 10.321 4.44515 10.2442 4.41373C10.1674 4.3823 10.0851 4.36649 10.0021 4.36721C9.91913 4.36793 9.83712 4.38517 9.76086 4.41793C9.68461 4.45068 9.61565 4.4983 9.55799 4.55799L7.49987 6.61612L5.44174 4.55799C5.38409 4.4983 5.31512 4.45068 5.23887 4.41793C5.16262 4.38517 5.08061 4.36793 4.99762 4.36721C4.91463 4.36649 4.83233 4.3823 4.75552 4.41373C4.67871 4.44515 4.60893 4.49156 4.55025 4.55025C4.49156 4.60893 4.44515 4.67871 4.41373 4.75552C4.3823 4.83233 4.36649 4.91463 4.36721 4.99762C4.36793 5.08061 4.38517 5.16262 4.41793 5.23887C4.45068 5.31512 4.4983 5.38409 4.55799 5.44174L6.61612 7.49987L4.55799 9.55799C4.44082 9.6752 4.375 9.83414 4.375 9.99987C4.375 10.1656 4.44082 10.3245 4.55799 10.4417Z" fill="white"/>
</svg>
