<svg width="44" height="44" viewBox="0 0 44 44" fill="none" xmlns="http://www.w3.org/2000/svg">
<path d="M26.479 43.3522H2.53785C2.03787 43.3522 1.55826 43.154 1.20412 42.8011C0.849968 42.4482 0.65015 41.9692 0.648438 41.4693V39.2369C0.648438 39.0653 0.71661 38.9007 0.837957 38.7794C0.959304 38.658 1.12389 38.5898 1.2955 38.5898H11.5255C11.645 38.5902 11.762 38.6236 11.8637 38.6865C11.9653 38.7493 12.0476 38.839 12.1014 38.9457L12.5284 39.7869H16.4884L16.9155 38.9457C16.9693 38.839 17.0515 38.7493 17.1532 38.6865C17.2548 38.6236 17.3719 38.5902 17.4914 38.5898H27.7214C27.893 38.5898 28.0576 38.658 28.1789 38.7794C28.3003 38.9007 28.3684 39.0653 28.3684 39.2369V41.4693C28.3667 41.9692 28.1669 42.4482 27.8128 42.8011C27.4586 43.154 26.979 43.3522 26.479 43.3522ZM1.94256 39.884V41.4693C1.94256 41.6254 2.00459 41.7752 2.11502 41.8856C2.22544 41.996 2.37521 42.0581 2.53138 42.0581H26.4726C26.6293 42.0581 26.7798 41.9963 26.8912 41.886C27.0027 41.7758 27.0661 41.626 27.0678 41.4693V39.884H17.8926L17.472 40.764C17.4168 40.8704 17.3331 40.9595 17.2303 41.0212C17.1275 41.0829 17.0095 41.1148 16.8896 41.1134H12.1273C12.0084 41.1136 11.8918 41.0811 11.7903 41.0195C11.6887 40.9579 11.606 40.8695 11.5514 40.764L11.1243 39.9163L1.94256 39.884Z" fill="#0AA880"/>
<path d="M26.3489 39.8842C26.1773 39.8842 26.0127 39.816 25.8914 39.6947C25.7701 39.5734 25.7019 39.4088 25.7019 39.2372V25.0472C25.7019 24.8138 25.6092 24.5899 25.4441 24.4249C25.2791 24.2599 25.0553 24.1672 24.8219 24.1672H4.19365C3.96026 24.1672 3.73643 24.2599 3.57139 24.4249C3.40636 24.5899 3.31365 24.8138 3.31365 25.0472V39.2372C3.31365 39.4088 3.24548 39.5734 3.12413 39.6947C3.00278 39.816 2.8382 39.8842 2.66659 39.8842C2.49498 39.8842 2.3304 39.816 2.20905 39.6947C2.0877 39.5734 2.01953 39.4088 2.01953 39.2372V25.0472C2.01953 24.4706 2.24859 23.9176 2.65632 23.5098C3.06404 23.1021 3.61704 22.873 4.19365 22.873H24.8219C25.398 22.8748 25.95 23.1044 26.3573 23.5117C26.7647 23.9191 26.9943 24.4711 26.996 25.0472V39.2372C26.996 39.4088 26.9278 39.5734 26.8065 39.6947C26.6851 39.816 26.5206 39.8842 26.3489 39.8842Z" fill="#0AA880"/>
<path d="M18.4359 36.9399H10.5807C10.409 36.9399 10.2445 36.8717 10.1231 36.7503C10.0018 36.629 9.93359 36.4644 9.93359 36.2928V34.3516C9.93359 33.7373 10.1776 33.1481 10.6121 32.7136C11.0465 32.2792 11.6357 32.0352 12.2501 32.0352H16.7795C17.3938 32.0352 17.983 32.2792 18.4175 32.7136C18.8519 33.1481 19.0959 33.7373 19.0959 34.3516V36.2928C19.096 36.3789 19.0788 36.4641 19.0455 36.5434C19.0122 36.6228 18.9633 36.6947 18.9019 36.755C18.8404 36.8152 18.7675 36.8626 18.6875 36.8944C18.6075 36.9261 18.522 36.9416 18.4359 36.9399ZM11.2277 35.6457H17.7889V34.3516C17.7889 34.0805 17.6812 33.8204 17.4894 33.6287C17.2977 33.437 17.0377 33.3293 16.7665 33.3293H12.2371C11.966 33.3293 11.7059 33.437 11.5142 33.6287C11.3225 33.8204 11.2148 34.0805 11.2148 34.3516L11.2277 35.6457Z" fill="#0AA880"/>
<path d="M14.5075 31.4348C13.952 31.4348 13.4091 31.2701 12.9473 30.9616C12.4855 30.653 12.1255 30.2144 11.913 29.7013C11.7004 29.1881 11.6448 28.6235 11.7532 28.0787C11.8615 27.534 12.129 27.0336 12.5217 26.6409C12.9145 26.2481 13.4149 25.9807 13.9596 25.8723C14.5043 25.764 15.069 25.8196 15.5821 26.0321C16.0953 26.2447 16.5338 26.6046 16.8424 27.0664C17.151 27.5282 17.3157 28.0712 17.3157 28.6266C17.3157 29.3714 17.0198 30.0857 16.4932 30.6123C15.9665 31.139 15.2522 31.4348 14.5075 31.4348ZM14.5075 27.1125C14.208 27.1125 13.9153 27.2013 13.6663 27.3677C13.4173 27.534 13.2232 27.7705 13.1086 28.0472C12.994 28.3238 12.964 28.6283 13.0224 28.922C13.0809 29.2157 13.2251 29.4855 13.4368 29.6972C13.6486 29.909 13.9184 30.0532 14.2121 30.1116C14.5058 30.17 14.8102 30.1401 15.0869 30.0255C15.3636 29.9109 15.6 29.7168 15.7664 29.4678C15.9328 29.2188 16.0216 28.9261 16.0216 28.6266C16.0216 28.4278 15.9824 28.2309 15.9063 28.0472C15.8302 27.8635 15.7187 27.6966 15.5781 27.556C15.4375 27.4154 15.2706 27.3038 15.0869 27.2277C14.9032 27.1516 14.7063 27.1125 14.5075 27.1125Z" fill="#0AA880"/>
<path d="M41.4712 21.1256H17.53C17.0301 21.1256 16.5505 20.9275 16.1963 20.5745C15.8422 20.2216 15.6423 19.7427 15.6406 19.2427V17.0103C15.6406 16.8387 15.7088 16.6741 15.8301 16.5528C15.9515 16.4315 16.1161 16.3633 16.2877 16.3633H26.5306C26.6501 16.3636 26.7672 16.3971 26.8688 16.4599C26.9705 16.5227 27.0527 16.6125 27.1065 16.7192L27.5336 17.5603H31.4936L31.9206 16.7192C31.9744 16.6125 32.0567 16.5227 32.1583 16.4599C32.26 16.3971 32.377 16.3636 32.4965 16.3633H42.7071C42.8787 16.3633 43.0433 16.4315 43.1646 16.5528C43.286 16.6741 43.3542 16.8387 43.3542 17.0103V19.2427C43.3525 19.7416 43.1535 20.2195 42.8008 20.5722C42.448 20.925 41.9701 21.1239 41.4712 21.1256ZM16.9283 17.6574V19.2427C16.93 19.3995 16.9934 19.5492 17.1049 19.6595C17.2164 19.7697 17.3668 19.8315 17.5236 19.8315H41.4647C41.6209 19.8315 41.7707 19.7695 41.8811 19.6591C41.9915 19.5486 42.0536 19.3989 42.0536 19.2427V17.6574H32.8783L32.4512 18.505C32.3966 18.6105 32.3139 18.699 32.2123 18.7606C32.1107 18.8222 31.9942 18.8547 31.8753 18.8545H27.1194C26.9995 18.8559 26.8816 18.824 26.7787 18.7623C26.6759 18.7006 26.5923 18.6115 26.5371 18.505L26.11 17.6574H16.9283Z" fill="#0AA880"/>
<path d="M41.3333 17.6577C41.1617 17.6577 40.9971 17.5895 40.8758 17.4681C40.7544 17.3468 40.6863 17.1822 40.6863 17.0106V2.8206C40.6863 2.58721 40.5935 2.36338 40.4285 2.19835C40.2635 2.03332 40.0396 1.9406 39.8063 1.9406H19.178C18.9446 1.9406 18.7208 2.03332 18.5558 2.19835C18.3907 2.36338 18.298 2.58721 18.298 2.8206V17.0106C18.298 17.1822 18.2299 17.3468 18.1085 17.4681C17.9872 17.5895 17.8226 17.6577 17.651 17.6577C17.4794 17.6577 17.3148 17.5895 17.1934 17.4681C17.0721 17.3468 17.0039 17.1822 17.0039 17.0106V2.8206C17.0056 2.24452 17.2352 1.69251 17.6426 1.28515C18.0499 0.877798 18.6019 0.648191 19.178 0.646484H39.8063C40.3829 0.646484 40.9359 0.875543 41.3436 1.28327C41.7513 1.69099 41.9804 2.24399 41.9804 2.8206V17.0106C41.9804 17.1822 41.9122 17.3468 41.7909 17.4681C41.6695 17.5895 41.5049 17.6577 41.3333 17.6577Z" fill="#0AA880"/>
<path d="M32.3975 15.3218H26.5739C26.1689 15.3218 25.7805 15.1609 25.4941 14.8745C25.2078 14.5882 25.0469 14.1997 25.0469 13.7947V9.26534C25.0469 8.86034 25.2078 8.47193 25.4941 8.18555C25.7805 7.89917 26.1689 7.73828 26.5739 7.73828H32.3975C32.8025 7.73828 33.1909 7.89917 33.4773 8.18555C33.7636 8.47193 33.9245 8.86034 33.9245 9.26534V13.8271C33.9161 14.2265 33.7515 14.6066 33.466 14.886C33.1805 15.1655 32.7969 15.3219 32.3975 15.3218ZM26.5739 9.00005C26.5122 9.00005 26.4529 9.02459 26.4092 9.06827C26.3655 9.11196 26.341 9.17121 26.341 9.23299V13.7947C26.341 13.8565 26.3655 13.9158 26.4092 13.9595C26.4529 14.0031 26.5122 14.0277 26.5739 14.0277H32.3975C32.4592 14.0277 32.5185 14.0031 32.5622 13.9595C32.6059 13.9158 32.6304 13.8565 32.6304 13.7947V9.26534C32.6304 9.20356 32.6059 9.14431 32.5622 9.10062C32.5185 9.05694 32.4592 9.0324 32.3975 9.0324L26.5739 9.00005Z" fill="#0AA880"/>
<path d="M31.8614 8.99971H27.1314C26.9598 8.99971 26.7952 8.93154 26.6739 8.81019C26.5525 8.68884 26.4844 8.52426 26.4844 8.35265V5.99088C26.5203 5.21619 26.8533 4.48511 27.4143 3.94958C27.9752 3.41405 28.7209 3.11523 29.4964 3.11523C30.272 3.11523 31.0177 3.41405 31.5786 3.94958C32.1396 4.48511 32.4726 5.21619 32.5085 5.99088V8.35265C32.5085 8.52426 32.4403 8.68884 32.319 8.81019C32.1976 8.93154 32.033 8.99971 31.8614 8.99971ZM27.7785 7.70559H31.2144V5.99088C31.1875 5.55348 30.9948 5.1428 30.6756 4.84257C30.3564 4.54235 29.9347 4.37519 29.4964 4.37519C29.0582 4.37519 28.6365 4.54235 28.3173 4.84257C27.998 5.1428 27.8053 5.55348 27.7785 5.99088V7.70559Z" fill="#0AA880"/>
<path d="M3.34628 17.6845C3.17467 17.6845 3.01008 17.6163 2.88874 17.495C2.76739 17.3736 2.69922 17.2091 2.69922 17.0375V6.84628C2.69922 6.67467 2.76739 6.51009 2.88874 6.38874C3.01008 6.26739 3.17467 6.19922 3.34628 6.19922H13.5375C13.7091 6.19922 13.8737 6.26739 13.995 6.38874C14.1163 6.51009 14.1845 6.67467 14.1845 6.84628C14.1845 7.01789 14.1163 7.18247 13.995 7.30382C13.8737 7.42516 13.7091 7.49334 13.5375 7.49334H3.99334V17.0375C3.99334 17.2091 3.92516 17.3736 3.80382 17.495C3.68247 17.6163 3.51789 17.6845 3.34628 17.6845Z" fill="#0AA880"/>
<path d="M40.6546 37.8017H30.4635C30.2919 37.8017 30.1273 37.7335 30.0059 37.6122C29.8846 37.4908 29.8164 37.3263 29.8164 37.1546C29.8164 36.983 29.8846 36.8184 30.0059 36.6971C30.1273 36.5758 30.2919 36.5076 30.4635 36.5076H40.0076V26.9635C40.0076 26.7919 40.0758 26.6273 40.1971 26.5059C40.3185 26.3846 40.483 26.3164 40.6546 26.3164C40.8263 26.3164 40.9908 26.3846 41.1122 26.5059C41.2335 26.6273 41.3017 26.7919 41.3017 26.9635V37.1546C41.3017 37.3263 41.2335 37.4908 41.1122 37.6122C40.9908 37.7335 40.8263 37.8017 40.6546 37.8017Z" fill="#0AA880"/>
</svg>
