<svg width="22" height="22" viewBox="0 0 22 22" fill="none" xmlns="http://www.w3.org/2000/svg">
<path d="M11.0001 0.646973C7.76477 0.646973 5.17653 3.23521 5.17653 6.47051V9.05874C4.07653 9.05874 3.23535 9.89992 3.23535 10.9999V19.4117C3.23535 20.5117 4.07653 21.3529 5.17653 21.3529H16.8236C17.9236 21.3529 18.7648 20.5117 18.7648 19.4117V10.9999C18.7648 9.89992 17.9236 9.05874 16.8236 9.05874V6.47051C16.8236 3.23521 14.2354 0.646973 11.0001 0.646973ZM17.4707 10.9999V19.4117C17.4707 19.7999 17.2118 20.0588 16.8236 20.0588H5.17653C4.78829 20.0588 4.52947 19.7999 4.52947 19.4117V10.9999C4.52947 10.6117 4.78829 10.3529 5.17653 10.3529H5.82359H16.1765H16.8236C17.2118 10.3529 17.4707 10.6117 17.4707 10.9999ZM6.47065 9.05874V6.47051C6.47065 3.94697 8.47653 1.94109 11.0001 1.94109C13.5236 1.94109 15.5295 3.94697 15.5295 6.47051V9.05874H6.47065Z" fill="#33B5A5"/>
<path d="M11 12.2939C9.90001 12.2939 9.05884 13.1351 9.05884 14.2351C9.05884 15.0763 9.57648 15.7881 10.353 16.0469V17.4704C10.353 17.8587 10.6118 18.1175 11 18.1175C11.3882 18.1175 11.6471 17.8587 11.6471 17.4704V16.0469C12.4235 15.7881 12.9412 15.0763 12.9412 14.2351C12.9412 13.1351 12.1 12.2939 11 12.2939ZM11 14.8822C10.6118 14.8822 10.353 14.6234 10.353 14.2351C10.353 13.8469 10.6118 13.5881 11 13.5881C11.3882 13.5881 11.6471 13.8469 11.6471 14.2351C11.6471 14.6234 11.3882 14.8822 11 14.8822Z" fill="#33B5A5"/>
</svg>
