<svg width="22" height="22" viewBox="0 0 22 22" fill="none" xmlns="http://www.w3.org/2000/svg">
<path fill-rule="evenodd" clip-rule="evenodd" d="M3.47533 12.8494C2.07267 12.8534 1.16721 14.4513 2.03134 15.6619C3.26886 17.3955 5.51296 18.7869 9.25942 18.7869C15.0653 18.7869 19.7258 14.0555 19.0734 8.4654L20.0292 6.55375C20.6921 5.22802 19.5402 3.71989 18.0868 4.01058L16.824 4.26313C16.4892 4.08649 16.1427 3.95318 15.8466 3.85661C15.2695 3.66841 14.571 3.51953 13.9245 3.51953C12.763 3.51953 11.7606 3.81751 10.964 4.41516C10.1765 5.0061 9.73288 5.78271 9.48945 6.49586C9.37723 6.82459 9.30251 7.1543 9.25456 7.47075C8.80394 7.32894 8.34447 7.13812 7.89464 6.90511C6.8741 6.3765 6.04886 5.70635 5.58333 5.1188C4.80229 4.13303 3.14711 4.20611 2.56629 5.4875C1.74767 7.29352 1.97222 9.43433 2.70806 11.1642C2.9547 11.7439 3.27552 12.317 3.66748 12.8482C3.60038 12.8489 3.53619 12.8493 3.47533 12.8494ZM9.25934 17.0905C5.9825 17.0905 4.2881 15.9037 3.41196 14.6763C3.3726 14.6212 3.41229 14.546 3.48004 14.5458C4.37135 14.5433 6.20089 14.5011 7.40752 13.7949C7.46992 13.7583 7.45619 13.6663 7.38766 13.6433C4.57492 12.6976 2.97606 8.69228 4.11126 6.18784C4.13729 6.13042 4.21448 6.12285 4.25364 6.17227C5.55041 7.80897 8.38573 9.41206 10.8526 9.45592C10.9061 9.45684 10.9466 9.40824 10.9384 9.35534C10.839 8.71089 10.4594 5.21591 13.9244 5.21591C14.7518 5.21591 15.9828 5.6195 16.4363 6.03297C16.4572 6.05208 16.4856 6.06075 16.5135 6.05519L18.4193 5.67401C18.4885 5.66017 18.5434 5.73199 18.5119 5.79512L17.3298 8.15928C17.3215 8.17569 17.319 8.19453 17.3221 8.2126C18.15 12.8666 14.3383 17.0905 9.25934 17.0905Z" fill="white" stroke="url(#paint0_linear_294_3083)" stroke-width="0.4"/>
<defs>
<linearGradient id="paint0_linear_294_3083" x1="1.42868" y1="3.51297" x2="16.186" y2="20.3189" gradientUnits="userSpaceOnUse">
<stop stop-color="#2D3941"/>
<stop offset="1" stop-color="#13181D"/>
</linearGradient>
</defs>
</svg>
