<svg width="23" height="23" viewBox="0 0 23 23" fill="none" xmlns="http://www.w3.org/2000/svg">
<g clip-path="url(#clip0_282_1042)">
<path d="M2.75985 0.207031C1.27675 0.207031 0.0703125 1.41355 0.0703125 2.89657C0.0703125 4.37959 1.27625 5.58603 2.75985 5.58603C4.24345 5.58603 5.44939 4.37959 5.44939 2.89657C5.44939 1.41355 4.24287 0.207031 2.75985 0.207031Z" fill="#0AA880"/>
<path d="M11.4669 0.207031C9.98386 0.207031 8.77734 1.41355 8.77734 2.89657C8.77734 4.37959 9.98386 5.58603 11.4669 5.58603C12.95 5.58603 14.1567 4.37959 14.1567 2.89657C14.1567 1.41355 12.9505 0.207031 11.4669 0.207031Z" fill="#0AA880"/>
<path d="M20.3106 5.58611C21.7934 5.58611 23.0002 4.37967 23.0002 2.89665C23.0002 1.41363 21.7944 0.207031 20.3106 0.207031C18.8269 0.207031 17.6211 1.41355 17.6211 2.89657C17.6211 4.37959 18.8278 5.58611 20.3106 5.58611Z" fill="#0AA880"/>
<path d="M2.69004 14.2035C4.17306 14.2035 5.37983 12.9973 5.37983 11.514C5.37983 10.0307 4.17306 8.82422 2.69004 8.82422C1.20702 8.82422 0 10.0307 0 11.514C0 12.9973 1.20702 14.2035 2.69004 14.2035Z" fill="#0AA880"/>
<path d="M11.3966 14.2035C12.8793 14.2035 14.0861 12.9973 14.0861 11.514C14.0861 10.0307 12.8803 8.82422 11.3966 8.82422C9.91305 8.82422 8.70703 10.0307 8.70703 11.514C8.70703 12.9973 9.91355 14.2035 11.3966 14.2035Z" fill="#0AA880"/>
<path d="M20.2413 14.2035C21.7247 14.2035 22.9309 12.9973 22.9309 11.514C22.9309 10.0307 21.7247 8.82422 20.2413 8.82422C18.758 8.82422 17.5508 10.0307 17.5508 11.514C17.5508 12.9973 18.7576 14.2035 20.2413 14.2035Z" fill="#0AA880"/>
<path d="M2.75254 17.418C1.26952 17.418 0.0625 18.6242 0.0625 20.1075C0.0625 21.5903 1.26952 22.797 2.75254 22.797C4.23556 22.797 5.442 21.5909 5.442 20.1075C5.442 18.6242 4.23556 17.418 2.75254 17.418Z" fill="#0AA880"/>
<path d="M11.4557 17.418C9.97256 17.418 8.76562 18.6242 8.76562 20.1075C8.76562 21.5903 9.97214 22.797 11.4557 22.797C12.9384 22.797 14.1451 21.5909 14.1451 20.1075C14.1451 18.6242 12.9384 17.418 11.4557 17.418Z" fill="#0AA880"/>
<path d="M20.3028 17.418C18.82 17.418 17.6133 18.6242 17.6133 20.1075C17.6133 21.5903 18.82 22.797 20.3028 22.797C21.7862 22.797 22.9924 21.5909 22.9924 20.1075C22.9924 18.6242 21.7856 17.418 20.3028 17.418Z" fill="#0AA880"/>
</g>
<defs>
<clipPath id="clip0_282_1042">
<rect width="23" height="23" fill="white"/>
</clipPath>
</defs>
</svg>
