<svg width="6" height="10" viewBox="0 0 6 10" fill="none" xmlns="http://www.w3.org/2000/svg">
<path d="M5.55913 4.6098L1.23068 0.159755C1.13057 0.0567475 0.996928 0 0.85443 0C0.711933 0 0.578292 0.0567475 0.478181 0.159755L0.15942 0.487394C-0.0479999 0.700889 -0.0479999 1.04788 0.15942 1.26105L3.79413 4.99793L0.155387 8.73895C0.055275 8.84196 0 8.97928 0 9.1257C0 9.27228 0.055275 9.4096 0.155387 9.51269L0.474148 9.84025C0.574339 9.94325 0.7079 10 0.850398 10C0.992895 10 1.12654 9.94325 1.22665 9.84025L5.55913 5.38614C5.65948 5.2828 5.7146 5.14484 5.71428 4.99817C5.7146 4.85094 5.65948 4.71305 5.55913 4.6098Z" fill="#0AA880"/>
</svg>
