<svg width="17" height="17" viewBox="0 0 17 17" fill="none" xmlns="http://www.w3.org/2000/svg">
<path d="M15.7183 12.9899C16.5303 11.687 17 10.1485 17 8.49967C17 3.80495 13.1947 0 8.5 0C3.80528 0 0 3.80495 0 8.49967C0 13.1958 3.80528 17 8.5 17C10.1488 17 11.6877 16.5302 12.9909 15.7177L16.7164 16.7158L15.7183 12.9899ZM8.5 3.96405C9.08922 3.96405 9.56725 4.44175 9.56725 5.0313C9.56725 5.62053 9.08955 6.09855 8.5 6.09855C7.91045 6.09855 7.43275 5.62086 7.43275 5.0313C7.43275 4.44175 7.91078 3.96405 8.5 3.96405ZM10.3676 13.0363H6.63239V11.4352H7.43275V8.23345H6.63239V6.63272H9.56728V8.23345V11.4352H10.3676V13.0363H10.3676Z" fill="white"/>
</svg>
