<svg width="25" height="25" viewBox="0 0 25 25" fill="none" xmlns="http://www.w3.org/2000/svg">
<path d="M25 7.95215C25 6.21514 24.3236 4.58213 23.0953 3.35391C21.8671 2.12568 20.2341 1.44922 18.4971 1.44922C16.7601 1.44922 15.1271 2.12563 13.8979 3.35479L12.5006 4.75703L11.1012 3.35386C9.8729 2.12568 8.23989 1.44922 6.50293 1.44922C4.76592 1.44922 3.13286 2.12563 1.90469 3.35391C0.676465 4.58213 0 6.21514 0 7.95215C0 9.68911 0.676465 11.3222 1.90469 12.5503L4.66396 15.3097C4.2583 16.203 4.42192 17.2938 5.15557 18.0273C5.62031 18.4921 6.22847 18.7277 6.83892 18.7352C6.84644 19.3457 7.08203 19.9538 7.54683 20.4186C7.99736 20.8691 8.59419 21.1199 9.23013 21.1276C9.23794 21.7377 9.47354 22.3454 9.93799 22.8098C10.4104 23.2822 11.031 23.5184 11.6515 23.5184C12.272 23.5184 12.8926 23.2822 13.365 22.8098C13.4166 22.7583 13.4585 22.7008 13.4915 22.6397L13.6909 22.8392C14.1633 23.3116 14.7839 23.5479 15.4044 23.5479C16.025 23.5479 16.6455 23.3117 17.1179 22.8392C17.5824 22.3748 17.818 21.7671 17.8258 21.157C18.4617 21.1493 19.0585 20.8986 19.5091 20.448C19.9597 19.9975 20.2104 19.4006 20.2181 18.7646C20.8282 18.7568 21.4359 18.5212 21.9004 18.0568C22.8452 17.112 22.8452 15.5746 21.9004 14.6298L21.4582 14.1876L23.0954 12.5504C24.3236 11.3222 25 9.68911 25 7.95215ZM1.46484 7.95215C1.46484 6.60644 1.98887 5.34126 2.94048 4.3897C3.89204 3.43813 5.15718 2.91406 6.50293 2.91406C7.84863 2.91406 9.11382 3.43813 10.0646 4.38901L14.0309 8.36567C14.4031 8.74028 14.4029 9.34937 14.0303 9.72378C13.8509 9.90405 13.6127 10.0034 13.3595 10.0034C13.1063 10.0034 12.8681 9.9041 12.6893 9.72437L11.8787 8.90801C11.7415 8.76982 11.5549 8.69199 11.3602 8.69165C11.3598 8.69165 11.3593 8.69165 11.3589 8.69165C11.1647 8.69165 10.9784 8.7688 10.841 8.9062L5.58652 14.1607L2.94048 11.5146C1.98887 10.563 1.46484 9.29785 1.46484 7.95215ZM12.3292 21.774C11.9555 22.1476 11.3475 22.1477 10.9738 21.774C10.6001 21.4003 10.6001 20.7923 10.9738 20.4186L11.1901 20.2022C11.2994 20.4008 11.437 20.5853 11.6017 20.75L12.4992 21.6475C12.4382 21.6805 12.3808 21.7225 12.3292 21.774ZM16.0821 21.8034C15.7083 22.1771 15.1004 22.177 14.7267 21.8034L12.6375 19.7142C12.4565 19.5332 12.3568 19.2925 12.3568 19.0365C12.3568 18.7805 12.4565 18.5399 12.6375 18.3589C12.8244 18.172 13.0698 18.0786 13.3152 18.0786C13.5606 18.0786 13.8061 18.172 13.9929 18.3588L16.0821 20.448C16.4558 20.8217 16.4558 21.4297 16.0821 21.8034ZM18.4732 19.4123C18.2922 19.5933 18.0516 19.6929 17.7956 19.6929C17.5396 19.6929 17.2989 19.5932 17.1179 19.4123L15.0287 17.323C14.8477 17.142 14.748 16.9014 14.748 16.6454C14.748 16.3894 14.8477 16.1487 15.0287 15.9677C15.0287 15.9677 15.0287 15.9677 15.0287 15.9677C15.2097 15.7867 15.4504 15.687 15.7064 15.687C15.9624 15.687 16.2031 15.7867 16.3841 15.9677L18.4732 18.0569C18.6542 18.2379 18.754 18.4786 18.754 18.7346C18.754 18.9906 18.6542 19.2312 18.4732 19.4123ZM20.8645 17.021C20.6835 17.202 20.4428 17.3017 20.1868 17.3017C19.9309 17.3017 19.6901 17.202 19.5091 17.021L17.42 14.9318C17.239 14.7508 17.1393 14.5101 17.1393 14.2541C17.1393 13.9981 17.239 13.7575 17.42 13.5765C17.601 13.3955 17.8417 13.2958 18.0977 13.2958C18.3537 13.2958 18.5943 13.3955 18.7753 13.5765L20.8646 15.6657C21.2382 16.0393 21.2382 16.6473 20.8645 17.021ZM20.4223 13.1519L19.8111 12.5406C19.3534 12.083 18.7449 11.8309 18.0976 11.8309C17.4503 11.8309 16.8418 12.0829 16.3841 12.5406C15.9338 12.9909 15.6831 13.5873 15.6751 14.2229C15.0396 14.2309 14.4432 14.4816 13.9929 14.9319C13.5423 15.3825 13.2916 15.9793 13.2838 16.6152C12.6738 16.623 12.0662 16.8586 11.6017 17.323C11.3112 17.6135 11.1039 17.9649 10.9909 18.3482C10.954 18.3735 10.9187 18.4021 10.8859 18.4349L9.93794 19.3828C9.75693 19.5638 9.51626 19.6635 9.26025 19.6635C9.00425 19.6635 8.76353 19.5638 8.58252 19.3828C8.20889 19.0091 8.20889 18.4011 8.58252 18.0274C8.58301 18.027 8.5834 18.0264 8.58389 18.0259L11.0169 15.5929C11.303 15.3068 11.303 14.8431 11.0169 14.5571C10.731 14.271 10.2672 14.271 9.98115 14.5571L7.54673 16.9915C7.17305 17.3651 6.56504 17.3652 6.19131 16.9915C5.81768 16.6178 5.81768 16.0098 6.19131 15.6361C6.21309 15.6144 6.23262 15.5913 6.25107 15.5676L11.357 10.4617L11.6503 10.757C12.1066 11.2156 12.7136 11.4682 13.3595 11.4682C14.0053 11.4682 14.6123 11.2156 15.0687 10.757C16.0083 9.81265 16.0083 8.27617 15.0687 7.33188C15.0685 7.33169 15.0683 7.33149 15.0681 7.33125L13.535 5.79419L14.9346 4.38965C15.8862 3.43813 17.1514 2.91406 18.4971 2.91406C19.8428 2.91406 21.108 3.43809 22.0595 4.3897C23.0111 5.34126 23.5352 6.60644 23.5352 7.95215C23.5352 9.29785 23.0111 10.563 22.0595 11.5146L20.4223 13.1519Z" fill="#0AA880"/>
</svg>
