<svg width="28" height="8" viewBox="0 0 28 8" fill="none" xmlns="http://www.w3.org/2000/svg">
<path d="M23.4953 6.51494C23.2274 6.79367 23.2362 7.2368 23.5149 7.50469C23.7937 7.77259 24.2368 7.7638 24.5047 7.48506L23.4953 6.51494ZM26.8833 4L27.388 4.48506L27.8542 4L27.388 3.51494L26.8833 4ZM24.5047 0.514938C24.2368 0.236204 23.7937 0.227415 23.5149 0.495307C23.2362 0.763199 23.2274 1.20633 23.4953 1.48506L24.5047 0.514938ZM1 3.3C0.613401 3.3 0.3 3.6134 0.3 4C0.3 4.3866 0.613401 4.7 1 4.7V3.3ZM26.5 4.7C26.8866 4.7 27.2 4.3866 27.2 4C27.2 3.6134 26.8866 3.3 26.5 3.3V4.7ZM24.5047 7.48506L27.388 4.48506L26.3786 3.51494L23.4953 6.51494L24.5047 7.48506ZM27.388 3.51494L24.5047 0.514938L23.4953 1.48506L26.3786 4.48506L27.388 3.51494ZM1 4.7H26.5V3.3H1V4.7Z" fill="white"/>
</svg>
