<svg width="15" height="15" viewBox="0 0 15 15" fill="none" xmlns="http://www.w3.org/2000/svg">
<g clip-path="url(#clip0_22_10576)">
<path d="M10.1759 2.75781H2.13666C1.8448 2.75781 1.60742 2.99519 1.60742 3.28705V13.9705C1.60742 14.2624 1.8448 14.4997 2.13666 14.4997H10.1759C10.4675 14.4997 10.7049 14.2624 10.7049 13.9705V3.28705C10.7049 2.99519 10.4675 2.75781 10.1759 2.75781ZM8.38162 10.2094H4.09129C3.84178 10.2094 3.63968 10.0073 3.63968 9.75781C3.63968 9.5083 3.84178 9.3062 4.09129 9.3062H8.38162C8.63113 9.3062 8.83323 9.5083 8.83323 9.75781C8.83323 10.0073 8.63113 10.2094 8.38162 10.2094ZM8.38162 8.40297H4.09129C3.84178 8.40297 3.63968 8.20088 3.63968 7.95136C3.63968 7.70184 3.84178 7.49975 4.09129 7.49975H8.38162C8.63113 7.49975 8.83323 7.70184 8.83323 7.95136C8.83323 8.20088 8.63113 8.40297 8.38162 8.40297ZM8.38162 6.59652H4.09129C3.84178 6.59652 3.63968 6.39443 3.63968 6.14491C3.63968 5.89539 3.84178 5.6933 4.09129 5.6933H8.38162C8.63113 5.6933 8.83323 5.89539 8.83323 6.14491C8.83323 6.39443 8.63113 6.59652 8.38162 6.59652Z" fill="white"/>
<path d="M13.1235 1.85484V11.7903C13.1235 12.4723 12.5748 13.1452 11.608 13.1452V3.2873C11.608 2.49726 10.9656 1.85484 10.1759 1.85484H3.1228C3.1228 1.1077 3.76663 0.5 4.5578 0.5H11.6885C12.4797 0.5 13.1235 1.1077 13.1235 1.85484Z" fill="white"/>
</g>
<defs>
<clipPath id="clip0_22_10576">
<rect width="14" height="14" fill="white" transform="translate(0.365479 0.5)"/>
</clipPath>
</defs>
</svg>
