<svg width="92" height="92" viewBox="0 0 92 92" fill="none" xmlns="http://www.w3.org/2000/svg">
<g clip-path="url(#clip0_0_691)">
<path d="M85.9046 59.9164C87.6578 59.9164 89.084 58.4901 89.084 56.7371V53.9992C89.084 52.2459 87.6577 50.8198 85.9046 50.8198H84.638C84.1099 43.3545 77.8719 37.4409 70.2747 37.4409C69.5303 37.4409 68.927 38.0442 68.927 38.7886C68.927 39.5331 69.5303 40.1363 70.2747 40.1363C76.3857 40.1363 81.418 44.8417 81.9388 50.8198H65.2258V23.0683H67.5336C69.1378 23.0683 70.4427 21.7623 70.4427 20.1573V14.8566C70.4427 13.2514 69.1376 11.9458 67.5336 11.9458H48.2294C47.4849 11.9458 46.8817 12.549 46.8817 13.2935C46.8817 14.0379 47.4849 14.6411 48.2294 14.6411H67.5337C67.6516 14.6411 67.7476 14.7378 67.7476 14.8566V20.1573C67.7476 20.2763 67.6516 20.373 67.5337 20.373H43.7715C43.4488 19.7611 43.277 19.076 43.277 18.384V8.71502H43.9259C45.4426 8.71502 46.6769 7.48111 46.6769 5.96419V2.75084C46.6769 1.23409 45.4428 0 43.9259 0H29.4341C27.9173 0 26.6832 1.23391 26.6832 2.75084V5.96437C26.6832 7.48111 27.9173 8.7152 29.4341 8.7152H30.0829V11.9456H5.82725C4.2221 11.9456 2.91631 13.2514 2.91631 14.8564V20.1572C2.91631 21.7623 4.22228 23.0681 5.82725 23.0681H7.5262V82.3361H6.09535C4.34213 82.3361 2.91595 83.7624 2.91595 85.5156V88.8204C2.91595 90.5736 4.34231 91.9998 6.09535 91.9998H85.9046C87.6578 91.9998 89.084 90.5735 89.084 88.8204V85.5156C89.084 83.7624 87.6577 82.3361 85.9046 82.3361H84.6786V59.9164H85.9046ZM85.9046 53.5149C86.1715 53.5149 86.3887 53.7321 86.3887 53.999V56.7369C86.3887 57.0037 86.1715 57.2209 85.9046 57.2209H65.226V53.5147H85.9046V53.5149ZM29.3784 5.96419V2.75084C29.3784 2.72029 29.4033 2.69531 29.4339 2.69531H43.9257C43.9562 2.69531 43.9812 2.72029 43.9812 2.75084V5.96437C43.9812 5.99491 43.9562 6.01989 43.9257 6.01989H29.4339C29.4032 6.01971 29.3784 5.99474 29.3784 5.96419ZM40.5815 8.71502V18.384C40.5815 19.5646 40.8848 20.7341 41.4587 21.7663L49.1167 35.5363C49.6225 36.4458 49.6096 37.5245 49.082 38.4219C48.5544 39.3189 47.6181 39.8547 46.5773 39.8547H26.7824C25.7417 39.8547 24.8053 39.3192 24.2776 38.4219C23.7498 37.5245 23.7369 36.4458 24.2429 35.5363L31.9008 21.7661C32.4747 20.7341 32.778 19.5646 32.778 18.384V8.71502H40.5815ZM5.61163 20.1573V14.8566C5.61163 14.7356 5.70632 14.6411 5.82725 14.6411H30.0826V18.384C30.0826 19.0762 29.9106 19.7613 29.5879 20.373H5.82725C5.70848 20.373 5.61163 20.2763 5.61163 20.1573ZM10.2215 23.0683H28.0923L21.887 34.2262C20.912 35.9795 20.937 38.0587 21.954 39.788C22.9711 41.5173 24.776 42.5498 26.7822 42.5498H46.577C48.5832 42.5498 50.3881 41.5173 51.4052 39.788C52.422 38.0587 52.4472 35.9795 51.472 34.2262L45.2669 23.0683H62.5307V82.3362H48.6132V66.0247C48.6132 63.9296 46.9087 62.2251 44.8135 62.2251H28.3965C26.3014 62.2251 24.5969 63.9296 24.5969 66.0247V82.3362H10.2215V23.0683ZM36.6049 77.7959C35.8606 77.7959 35.2572 78.3991 35.2572 79.1435V82.3362H27.292V66.0247C27.292 65.4156 27.7874 64.9204 28.3964 64.9204H35.2572V72.737C35.2572 73.4814 35.8606 74.0846 36.6049 74.0846C37.3491 74.0846 37.9525 73.4814 37.9525 72.737V64.9204H44.8133C45.4223 64.9204 45.9177 65.4158 45.9177 66.0247V82.3362H37.9523V79.1435C37.9525 78.3993 37.3491 77.7959 36.6049 77.7959ZM86.3887 85.5158V88.8206C86.3887 89.0875 86.1715 89.3047 85.9046 89.3047H6.09535C5.82833 89.3047 5.61127 89.0875 5.61127 88.8206V85.5158C5.61127 85.2488 5.82833 85.0315 6.09535 85.0315H85.9046C86.1715 85.0315 86.3887 85.2488 86.3887 85.5158ZM81.9833 82.3362H65.226V59.9164H81.9833V82.3362Z" fill="#489078"/>
<path d="M27.5542 36.4947C27.7964 36.9064 28.2382 37.1592 28.7158 37.1592H44.6437C45.1213 37.1592 45.5632 36.9064 45.8054 36.4947C46.0476 36.083 46.0535 35.574 45.8215 35.1566L40.4331 25.4673C39.8895 24.4896 38.8567 23.8823 37.7379 23.8823H35.6218C34.503 23.8823 33.4704 24.4896 32.9266 25.4671L27.5382 35.1566C27.3058 35.574 27.3119 36.083 27.5542 36.4947ZM35.2822 26.777C35.3506 26.6539 35.4807 26.5776 35.6216 26.5776H37.7378C37.8788 26.5776 38.0089 26.6541 38.0774 26.7772L42.3523 34.4639H31.0074L35.2822 26.777Z" fill="#489078"/>
<path d="M17.427 56.4813H56.3261C57.5627 56.4813 58.5686 55.4751 58.5686 54.2387V49.6928C58.5686 48.4561 57.5625 47.4501 56.3261 47.4501H17.427C16.1904 47.4501 15.1843 48.4563 15.1843 49.6928V54.2387C15.1843 55.4751 16.1906 56.4813 17.427 56.4813ZM55.8735 53.786H37.9525V50.1452H55.8735V53.786ZM17.8796 50.1452H35.2572V53.786H17.8796V50.1452Z" fill="#489078"/>
<path d="M16.532 65.4976H19.7026C20.4468 65.4976 21.0502 64.8943 21.0502 64.1499C21.0502 63.4055 20.4468 62.8022 19.7026 62.8022H16.532C15.7877 62.8022 15.1843 63.4055 15.1843 64.1499C15.1843 64.8943 15.7877 65.4976 16.532 65.4976Z" fill="#489078"/>
<path d="M19.7026 69.7787H16.532C15.7877 69.7787 15.1843 70.382 15.1843 71.1264C15.1843 71.8708 15.7877 72.4741 16.532 72.4741H19.7026C20.4468 72.4741 21.0502 71.8708 21.0502 71.1264C21.0502 70.382 20.4468 69.7787 19.7026 69.7787Z" fill="#489078"/>
<path d="M19.7026 76.7553H16.532C15.7877 76.7553 15.1843 77.3585 15.1843 78.103C15.1843 78.8474 15.7877 79.4506 16.532 79.4506H19.7026C20.4468 79.4506 21.0502 78.8474 21.0502 78.103C21.0502 77.3585 20.4468 76.7553 19.7026 76.7553Z" fill="#489078"/>
<path d="M57.2211 62.8022H54.0505C53.3061 62.8022 52.7029 63.4055 52.7029 64.1499C52.7029 64.8943 53.3061 65.4976 54.0505 65.4976H57.2211C57.9656 65.4976 58.5688 64.8943 58.5688 64.1499C58.5688 63.4055 57.9656 62.8022 57.2211 62.8022Z" fill="#489078"/>
<path d="M57.2211 69.7787H54.0505C53.3061 69.7787 52.7029 70.382 52.7029 71.1264C52.7029 71.8708 53.3061 72.4741 54.0505 72.4741H57.2211C57.9656 72.4741 58.5688 71.8708 58.5688 71.1264C58.5688 70.382 57.9656 69.7787 57.2211 69.7787Z" fill="#489078"/>
<path d="M57.2211 76.7553H54.0505C53.3061 76.7553 52.7029 77.3585 52.7029 78.103C52.7029 78.8474 53.3061 79.4506 54.0505 79.4506H57.2211C57.9656 79.4506 58.5688 78.8474 58.5688 78.103C58.5688 77.3585 57.9656 76.7553 57.2211 76.7553Z" fill="#489078"/>
<path d="M72.5129 65.4976H75.6835C76.4279 65.4976 77.0311 64.8943 77.0311 64.1499C77.0311 63.4055 76.4279 62.8022 75.6835 62.8022H72.5129C71.7684 62.8022 71.1652 63.4055 71.1652 64.1499C71.1652 64.8943 71.7684 65.4976 72.5129 65.4976Z" fill="#489078"/>
<path d="M72.5129 72.4741H75.6835C76.4279 72.4741 77.0311 71.8708 77.0311 71.1264C77.0311 70.382 76.4279 69.7787 75.6835 69.7787H72.5129C71.7684 69.7787 71.1652 70.382 71.1652 71.1264C71.1652 71.8708 71.7684 72.4741 72.5129 72.4741Z" fill="#489078"/>
<path d="M72.5129 79.4506H75.6835C76.4279 79.4506 77.0311 78.8474 77.0311 78.103C77.0311 77.3585 76.4279 76.7553 75.6835 76.7553H72.5129C71.7684 76.7553 71.1652 77.3585 71.1652 78.103C71.1652 78.8474 71.7684 79.4506 72.5129 79.4506Z" fill="#489078"/>
</g>
<defs>
<clipPath id="clip0_0_691">
<rect width="92" height="92" fill="white"/>
</clipPath>
</defs>
</svg>
