<svg width="13" height="15" viewBox="0 0 13 15" fill="none" xmlns="http://www.w3.org/2000/svg">
<path d="M9.31021 2.75781H1.27093C0.979078 2.75781 0.741699 2.99519 0.741699 3.28705V13.9705C0.741699 14.2624 0.979078 14.4997 1.27093 14.4997H9.31021C9.60178 14.4997 9.83916 14.2624 9.83916 13.9705V3.28705C9.83916 2.99519 9.60178 2.75781 9.31021 2.75781ZM7.51589 10.2094H3.22557C2.97605 10.2094 2.77396 10.0073 2.77396 9.75781C2.77396 9.5083 2.97605 9.3062 3.22557 9.3062H7.51589C7.76541 9.3062 7.96751 9.5083 7.96751 9.75781C7.96751 10.0073 7.76541 10.2094 7.51589 10.2094ZM7.51589 8.40297H3.22557C2.97605 8.40297 2.77396 8.20088 2.77396 7.95136C2.77396 7.70184 2.97605 7.49975 3.22557 7.49975H7.51589C7.76541 7.49975 7.96751 7.70184 7.96751 7.95136C7.96751 8.20088 7.76541 8.40297 7.51589 8.40297ZM7.51589 6.59652H3.22557C2.97605 6.59652 2.77396 6.39443 2.77396 6.14491C2.77396 5.89539 2.97605 5.6933 3.22557 5.6933H7.51589C7.76541 5.6933 7.96751 5.89539 7.96751 6.14491C7.96751 6.39443 7.76541 6.59652 7.51589 6.59652Z" fill="#0A6C4B"/>
<path d="M12.258 1.85484V11.7903C12.258 12.4723 11.7093 13.1452 10.7426 13.1452V3.2873C10.7426 2.49726 10.1001 1.85484 9.31039 1.85484H2.25732C2.25732 1.1077 2.90115 0.5 3.69232 0.5H10.823C11.6142 0.5 12.258 1.1077 12.258 1.85484Z" fill="#0A6C4B"/>
</svg>
