<svg width="13" height="13" viewBox="0 0 13 13" fill="none" xmlns="http://www.w3.org/2000/svg">
<path d="M10.0654 6.81348H11.5888V10.461H10.0654V6.81348Z" fill="#0A6C4B"/>
<path d="M7.18018 6.81348H8.70362V10.461H7.18018V6.81348Z" fill="#0A6C4B"/>
<path d="M4.2959 6.81348H5.81934V10.461H4.2959V6.81348Z" fill="#0A6C4B"/>
<path d="M1.41113 6.81348H2.93448V10.461H1.41113V6.81348Z" fill="#0A6C4B"/>
<path d="M12.0968 5.6709V5.29004H0.90332V5.6709C0.90332 5.88127 1.07382 6.05176 1.28418 6.05176H11.7159C11.9262 6.05176 12.0968 5.88127 12.0968 5.6709Z" fill="#0A6C4B"/>
<path d="M12.6191 11.2227H0.38135C0.170983 11.2227 0.000488281 11.3932 0.000488281 11.6035V12.6191C0.000488281 12.8295 0.170983 13 0.38135 13H12.6191C12.8295 13 13 12.8295 13 12.6191V11.6035C13 11.3932 12.8295 11.2227 12.6191 11.2227Z" fill="#0A6C4B"/>
<path d="M0.380828 4.52829H12.6192C12.7896 4.52829 12.9392 4.41512 12.9857 4.25117C13.032 4.08722 12.9639 3.91236 12.8188 3.8231L6.69966 0.0565341C6.57727 -0.0188447 6.42284 -0.0188447 6.30035 0.0565341L0.181173 3.8231C0.0360685 3.91246 -0.0319708 4.08722 0.0144467 4.25117C0.0608642 4.41512 0.210531 4.52829 0.380828 4.52829ZM6.24114 2.24014H6.75897C6.96934 2.24014 7.13983 2.41064 7.13983 2.621C7.13983 2.83137 6.96934 3.00186 6.75897 3.00186H6.24114C6.03077 3.00186 5.86027 2.83137 5.86027 2.621C5.86027 2.41064 6.03077 2.24014 6.24114 2.24014Z" fill="#0A6C4B"/>
</svg>
