<svg width="14" height="14" viewBox="0 0 14 14" fill="none" xmlns="http://www.w3.org/2000/svg">
<path fill-rule="evenodd" clip-rule="evenodd" d="M12.8949 10.4773L10.8831 8.44263C10.4828 8.03852 9.81119 8.04355 9.38665 8.45271L8.349 9.45443C8.28446 9.41815 8.21791 9.38086 8.14732 9.34055C7.50396 8.97876 6.62362 8.48294 5.70194 7.54874C4.77724 6.61554 4.29522 5.73173 3.94329 5.08676C3.90598 5.01924 3.86967 4.95273 3.83438 4.89025L4.53119 4.21907L4.87404 3.88852C5.29858 3.47735 5.31875 2.81525 4.91841 2.41013L2.90665 0.374434C2.50732 -0.029681 1.83472 -0.0256502 1.41018 0.385519L0.829338 0.948862L0.844464 0.964986C0.649842 1.20484 0.485473 1.48298 0.362448 1.78329C0.248498 2.06849 0.176901 2.3416 0.141606 2.61672C-0.152847 4.81567 0.841439 6.83927 3.5722 9.60156C7.34766 13.42 10.4293 13.1701 10.5624 13.158C10.8529 13.1267 11.1302 13.0622 11.4135 12.9564C11.7181 12.8425 12.0024 12.6884 12.2495 12.5019L12.2626 12.512L12.8505 11.9567C13.2751 11.5466 13.2942 10.8834 12.8949 10.4773Z" fill="#0A6C4B"/>
</svg>
