<svg width="34" height="34" viewBox="0 0 34 34" fill="none" xmlns="http://www.w3.org/2000/svg">
<path fill-rule="evenodd" clip-rule="evenodd" d="M17.1345 1C26.0457 1 33.2689 8.21966 33.2689 17.1243C33.2689 26.0289 26.0457 33.2486 17.1345 33.2486C8.22319 33.2486 1 26.0289 1 17.1243C1 8.21966 8.22319 1 17.1345 1Z" stroke="#82B8A0"/>
<path fill-rule="evenodd" clip-rule="evenodd" d="M23.8949 20.4773L21.8831 18.4426C21.4828 18.0385 20.8112 18.0436 20.3866 18.4527L19.349 19.4544C19.2845 19.4182 19.2179 19.3809 19.1473 19.3406C18.504 18.9788 17.6236 18.4829 16.7019 17.5487C15.7772 16.6155 15.2952 15.7317 14.9433 15.0868C14.906 15.0192 14.8697 14.9527 14.8344 14.8902L15.5312 14.2191L15.874 13.8885C16.2986 13.4774 16.3188 12.8152 15.9184 12.4101L13.9066 10.3744C13.5073 9.97032 12.8347 9.97435 12.4102 10.3855L11.8293 10.9489L11.8445 10.965C11.6498 11.2048 11.4855 11.483 11.3624 11.7833C11.2485 12.0685 11.1769 12.3416 11.1416 12.6167C10.8472 14.8157 11.8414 16.8393 14.5722 19.6016C18.3477 23.42 21.4293 23.1701 21.5624 23.158C21.8529 23.1267 22.1302 23.0622 22.4135 22.9564C22.7181 22.8425 23.0024 22.6884 23.2495 22.5019L23.2626 22.512L23.8505 21.9567C24.2751 21.5466 24.2942 20.8834 23.8949 20.4773Z" fill="#82B8A0"/>
</svg>
