<svg width="30" height="32" viewBox="0 0 30 32" fill="none" xmlns="http://www.w3.org/2000/svg">
<path d="M29.3133 27.8079L21.4922 19.6131C22.7664 17.6022 23.4375 15.2736 23.4375 12.8451C23.4375 6.07464 18.1805 0.566406 11.7188 0.566406C5.25703 0.566406 0 6.07464 0 12.8451C0 19.6156 5.25703 25.1239 11.7188 25.1239C14.0365 25.1239 16.2589 24.4206 18.1781 23.0857L20.3399 25.3508C20.3402 25.3511 20.3405 25.3514 20.3408 25.3518L25.9991 31.2805C26.442 31.7444 27.0304 31.9999 27.6562 31.9999C28.2821 31.9999 28.8705 31.7444 29.3132 31.2807C29.7561 30.817 30 30.2003 30 29.5442C30 28.8881 29.7561 28.2715 29.3133 27.8079ZM17.9025 21.7918C17.9025 21.7919 17.9024 21.7919 17.9024 21.792C16.0938 23.1684 13.9556 23.896 11.7188 23.896C5.9032 23.896 1.17188 18.9386 1.17188 12.8451C1.17188 6.75169 5.9032 1.79428 11.7188 1.79428C17.5343 1.79428 22.2656 6.75169 22.2656 12.8451C22.2656 15.1888 21.5712 17.4292 20.2575 19.3243C19.6003 20.273 18.8079 21.1033 17.9025 21.7918ZM19.1318 22.3484C19.7382 21.8286 20.2926 21.2478 20.7887 20.6124L22.451 22.3542C21.9455 22.9794 21.3908 23.5606 20.7942 24.0902L19.1318 22.3484ZM28.4847 30.4122C28.2632 30.6443 27.969 30.7721 27.6562 30.7721C27.3435 30.7721 27.0493 30.6443 26.8278 30.4122L21.625 24.9608C22.2183 24.4272 22.7726 23.8465 23.2818 23.2248L28.4848 28.6764C28.7062 28.9081 28.8281 29.2162 28.8281 29.5442C28.8281 29.8722 28.7062 30.1803 28.4847 30.4122Z" fill="white"/>
</svg>
