<svg width="13" height="13" viewBox="0 0 13 13" fill="none" xmlns="http://www.w3.org/2000/svg">
<path d="M5.16907 7.31269C3.97778 6.12141 3.7088 4.93012 3.64811 4.45283C3.63116 4.32086 3.67657 4.18851 3.77099 4.09475L4.73503 3.13113C4.87685 2.98941 4.90201 2.76853 4.79572 2.59854L3.26077 0.215102C3.14317 0.0268647 2.90171 -0.0410719 2.70322 0.0582289L0.239083 1.21875C0.078564 1.29779 -0.0158509 1.46833 0.00237422 1.64633C0.131488 2.87291 0.666233 5.88814 3.62939 8.85151C6.59255 11.8149 9.60735 12.3494 10.8346 12.4785C11.0126 12.4968 11.1831 12.4023 11.2622 12.2418L12.4227 9.77769C12.5216 9.57962 12.4541 9.33881 12.2667 9.22099L9.88323 7.68648C9.71333 7.58007 9.49246 7.60506 9.35063 7.74673L8.38701 8.71078C8.29326 8.80519 8.16091 8.85061 8.02894 8.83365C7.55165 8.77297 6.36036 8.50398 5.16907 7.31269Z" fill="#B5B5B5"/>
<path d="M9.89958 6.67085C9.66189 6.67085 9.4692 6.47816 9.4692 6.24047C9.46719 4.45861 8.02321 3.01463 6.24136 3.01262C6.00367 3.01262 5.81098 2.81993 5.81098 2.58224C5.81098 2.34454 6.00367 2.15186 6.24136 2.15186C8.4984 2.15435 10.3275 3.98342 10.33 6.24047C10.33 6.47816 10.1373 6.67085 9.89958 6.67085Z" fill="#B5B5B5"/>
<path d="M12.0515 6.67087C11.8138 6.67087 11.6211 6.47818 11.6211 6.24049C11.6178 3.27072 9.21113 0.864078 6.24136 0.860758C6.00367 0.860758 5.81098 0.66807 5.81098 0.430379C5.81098 0.192687 6.00367 0 6.24136 0C9.68632 0.00379505 12.4781 2.79554 12.4819 6.24049C12.4819 6.35464 12.4365 6.4641 12.3558 6.54482C12.2751 6.62553 12.1656 6.67087 12.0515 6.67087Z" fill="#B5B5B5"/>
</svg>
