<svg width="263" height="33" viewBox="0 0 263 33" fill="none" xmlns="http://www.w3.org/2000/svg">
<path d="M158.682 32.3075H150.605L157.228 0.392418H172.25L178.873 32.3075H170.958L165.304 8.71072H164.335L158.682 32.3075ZM0.865601 0.392418H28.649V32.3075H20.7339V8.71072H8.94216V32.3075H1.02714V0.392418H0.865601ZM39.4716 23.9892H51.2634V8.88048H39.4716V23.9892ZM31.5566 0.392418H59.1784V32.3075H31.5566V0.392418ZM109.899 0.392418H117.814V32.3075H109.899V13.9733L98.592 32.3075H90.677V8.71072V0.222656H98.592V18.5569L109.899 0.392418ZM120.722 0.392418H148.505V32.3075H140.59V8.71072H128.798V32.3075H120.883V0.392418H120.722ZM189.857 16.5197H198.095L196.965 8.71072H190.988L189.857 16.5197ZM184.042 0.392418H203.91L207.464 32.3075H199.549L198.741 25.0078H189.211L188.403 32.3075H180.488L184.042 0.392418ZM209.079 0.392418H236.055V12.6152H228.14V8.71072H216.994V23.8195H228.14V19.915H236.055V32.1378H209.079V0.392418ZM237.509 0.392418H262.385V8.88048H253.985V32.4773H246.07V8.71072H237.67V0.392418H237.509ZM68.7087 32.3075H60.7937L67.4165 0.392418H82.4389L89.0617 32.3075H81.1467L75.4931 8.71072H74.5239L68.7087 32.3075Z" fill="#231F20"/>
</svg>
