<svg width="22" height="15" viewBox="0 0 22 15" fill="none" xmlns="http://www.w3.org/2000/svg">
<path d="M20.8731 1.6725C20.2987 0.65925 19.6754 0.472875 18.4061 0.402C17.1381 0.316688 13.9498 0.28125 11.1876 0.28125C8.42006 0.28125 5.23036 0.316688 3.96374 0.400688C2.69712 0.472875 2.07241 0.657937 1.49271 1.6725C0.901091 2.68444 0.59668 4.42744 0.59668 7.49606C0.59668 7.49869 0.59668 7.5 0.59668 7.5C0.59668 7.50262 0.59668 7.50394 0.59668 7.50394V7.50656C0.59668 10.5621 0.901091 12.3182 1.49271 13.3196C2.07241 14.3329 2.6958 14.5166 3.96241 14.6019C5.23036 14.6754 8.42006 14.7188 11.1876 14.7188C13.9498 14.7188 17.1381 14.6754 18.4074 14.6032C19.6767 14.5179 20.3001 14.3342 20.8745 13.3209C21.4714 12.3195 21.7731 10.5634 21.7731 7.50787C21.7731 7.50787 21.7731 7.50394 21.7731 7.50131C21.7731 7.50131 21.7731 7.49869 21.7731 7.49738C21.7731 4.42744 21.4714 2.68444 20.8731 1.6725ZM8.53786 11.4375V3.5625L15.1555 7.5L8.53786 11.4375Z" fill="#0A6C4B"/>
</svg>
