<svg width="21" height="19" viewBox="0 0 21 19" fill="none" xmlns="http://www.w3.org/2000/svg">
<path d="M10.4624 0.59375C8.24705 0.59375 6.4209 2.375 6.4209 4.60156C6.4209 6.79844 8.21712 8.60938 10.4624 8.60938C12.7077 8.60938 14.5039 6.82812 14.5039 4.60156C14.5039 2.375 12.6777 0.59375 10.4624 0.59375ZM10.4624 5.9375C9.71397 5.9375 9.11523 5.34375 9.11523 4.60156C9.11523 3.85938 9.71397 3.26562 10.4624 3.26562C11.2108 3.26562 11.8096 3.85938 11.8096 4.60156C11.8096 5.34375 11.2108 5.9375 10.4624 5.9375Z" fill="#0A6C4B"/>
<path d="M15.4318 11.3107C14.4139 11.8747 13.3063 12.2607 12.1986 12.4388L15.342 16.2685C15.7012 16.7138 15.791 17.3372 15.4617 17.8122C14.9528 18.5841 13.8751 18.6138 13.3362 17.931L10.4323 14.3982L7.55838 17.931C7.28894 18.2575 6.9297 18.406 6.54052 18.406C6.15134 18.406 5.76216 18.2278 5.49272 17.8716C5.16342 17.4263 5.19336 16.6841 5.5526 16.2388L8.66604 12.3794C7.55838 12.1716 6.45071 11.8153 5.46279 11.2513C4.83411 10.895 4.62455 10.1232 4.9838 9.47003C5.34304 8.84659 6.15134 8.63878 6.78001 8.99503C9.05522 10.2716 11.8992 10.2716 14.2044 9.02472C14.8331 8.66847 15.6414 8.90597 15.9707 9.52941C16.3 10.1825 16.0605 10.9544 15.4318 11.3107Z" fill="#0A6C4B"/>
</svg>
