<svg width="23" height="14" viewBox="0 0 23 14" fill="none" xmlns="http://www.w3.org/2000/svg">
<path d="M12.3688 14C4.78913 14 0.465784 8.74474 0.285645 0H4.08243C4.20714 6.41842 7.00623 9.13714 9.22334 9.6977V0H12.7984V5.53553C14.9878 5.2973 17.288 2.77477 18.064 0H21.6391C21.3467 1.43908 20.7638 2.80165 19.9269 4.0025C19.09 5.20335 18.0171 6.21663 16.7753 6.97898C18.1615 7.67555 19.3858 8.6615 20.3675 9.87175C21.3492 11.082 22.066 12.489 22.4705 14H18.5352C18.172 12.6876 17.4339 11.5128 16.4134 10.6228C15.3929 9.73284 14.1354 9.16727 12.7984 8.997V14H12.3688Z" fill="#0A6C4B"/>
</svg>
