<svg width="1213" height="240" viewBox="0 0 1213 240" fill="none" xmlns="http://www.w3.org/2000/svg">
<g clip-path="url(#clip0_113_14800)">
<circle cx="3" cy="3" r="3" fill="#DDEEFE"/>
<circle cx="21" cy="3" r="3" fill="#DDEEFE"/>
<circle cx="39" cy="3" r="3" fill="#DDEEFE"/>
<circle cx="57" cy="3" r="3" fill="#DDEEFE"/>
<circle cx="75" cy="3" r="3" fill="#DDEEFE"/>
<circle cx="93" cy="3" r="3" fill="#DDEEFE"/>
<circle cx="111" cy="3" r="3" fill="#DDEEFE"/>
<circle cx="129" cy="3" r="3" fill="#DDEEFE"/>
<circle cx="147" cy="3" r="3" fill="#DDEEFE"/>
<circle cx="165" cy="3" r="3" fill="#DDEEFE"/>
<circle cx="183" cy="3" r="3" fill="#DDEEFE"/>
<circle cx="201" cy="3" r="3" fill="#DDEEFE"/>
<circle cx="219" cy="3" r="3" fill="#DDEEFE"/>
<circle cx="237" cy="3" r="3" fill="#DDEEFE"/>
<circle cx="255" cy="3" r="3" fill="#DDEEFE"/>
<circle cx="273" cy="3" r="3" fill="#DDEEFE"/>
<circle cx="291" cy="3" r="3" fill="#DDEEFE"/>
<circle cx="309" cy="3" r="3" fill="#DDEEFE"/>
<circle cx="327" cy="3" r="3" fill="#DDEEFE"/>
<circle cx="345" cy="3" r="3" fill="#DDEEFE"/>
<circle cx="363" cy="3" r="3" fill="#DDEEFE"/>
<circle cx="381" cy="3" r="3" fill="#DDEEFE"/>
<circle cx="399" cy="3" r="3" fill="#DDEEFE"/>
<circle cx="417" cy="3" r="3" fill="#DDEEFE"/>
<circle cx="435" cy="3" r="3" fill="#DDEEFE"/>
<circle cx="453" cy="3" r="3" fill="#DDEEFE"/>
<circle cx="471" cy="3" r="3" fill="#DDEEFE"/>
<circle cx="489" cy="3" r="3" fill="#DDEEFE"/>
<circle cx="507" cy="3" r="3" fill="#DDEEFE"/>
<circle cx="525" cy="3" r="3" fill="#DDEEFE"/>
<circle cx="543" cy="3" r="3" fill="#DDEEFE"/>
<circle cx="561" cy="3" r="3" fill="#DDEEFE"/>
<circle cx="579" cy="3" r="3" fill="#DDEEFE"/>
<circle cx="597" cy="3" r="3" fill="#DDEEFE"/>
<circle cx="615" cy="3" r="3" fill="#DDEEFE"/>
<circle cx="633" cy="3" r="3" fill="#DDEEFE"/>
<circle cx="651" cy="3" r="3" fill="#DDEEFE"/>
<circle cx="669" cy="3" r="3" fill="#DDEEFE"/>
<circle cx="687" cy="3" r="3" fill="#DDEEFE"/>
<circle cx="705" cy="3" r="3" fill="#DDEEFE"/>
<circle cx="723" cy="3" r="3" fill="#DDEEFE"/>
<circle cx="741" cy="3" r="3" fill="#DDEEFE"/>
<circle cx="759" cy="3" r="3" fill="#DDEEFE"/>
<circle cx="777" cy="3" r="3" fill="#DDEEFE"/>
<circle cx="795" cy="3" r="3" fill="#DDEEFE"/>
<circle cx="813" cy="3" r="3" fill="#DDEEFE"/>
<circle cx="831" cy="3" r="3" fill="#DDEEFE"/>
<circle cx="849" cy="3" r="3" fill="#DDEEFE"/>
<circle cx="867" cy="3" r="3" fill="#DDEEFE"/>
<circle cx="885" cy="3" r="3" fill="#DDEEFE"/>
<circle cx="903" cy="3" r="3" fill="#DDEEFE"/>
<circle cx="921" cy="3" r="3" fill="#DDEEFE"/>
<circle cx="939" cy="3" r="3" fill="#DDEEFE"/>
<circle cx="957" cy="3" r="3" fill="#DDEEFE"/>
<circle cx="975" cy="3" r="3" fill="#DDEEFE"/>
<circle cx="993" cy="3" r="3" fill="#DDEEFE"/>
<circle cx="1011" cy="3" r="3" fill="#DDEEFE"/>
<circle cx="1029" cy="3" r="3" fill="#DDEEFE"/>
<circle cx="1047" cy="3" r="3" fill="#DDEEFE"/>
<circle cx="1065" cy="3" r="3" fill="#DDEEFE"/>
<circle cx="1083" cy="3" r="3" fill="#DDEEFE"/>
<circle cx="1101" cy="3" r="3" fill="#DDEEFE"/>
<circle cx="1119" cy="3" r="3" fill="#DDEEFE"/>
<circle cx="1137" cy="3" r="3" fill="#DDEEFE"/>
<circle cx="1155" cy="3" r="3" fill="#DDEEFE"/>
<circle cx="1173" cy="3" r="3" fill="#DDEEFE"/>
<circle cx="1191" cy="3" r="3" fill="#DDEEFE"/>
<circle cx="1209" cy="3" r="3" fill="#DDEEFE"/>
<circle cx="3" cy="21" r="3" fill="#DDEEFE"/>
<circle cx="21" cy="21" r="3" fill="#DDEEFE"/>
<circle cx="39" cy="21" r="3" fill="#DDEEFE"/>
<circle cx="57" cy="21" r="3" fill="#DDEEFE"/>
<circle cx="75" cy="21" r="3" fill="#DDEEFE"/>
<circle cx="93" cy="21" r="3" fill="#DDEEFE"/>
<circle cx="111" cy="21" r="3" fill="#DDEEFE"/>
<circle cx="129" cy="21" r="3" fill="#DDEEFE"/>
<circle cx="147" cy="21" r="3" fill="#DDEEFE"/>
<circle cx="165" cy="21" r="3" fill="#DDEEFE"/>
<circle cx="183" cy="21" r="3" fill="#DDEEFE"/>
<circle cx="201" cy="21" r="3" fill="#DDEEFE"/>
<circle cx="219" cy="21" r="3" fill="#DDEEFE"/>
<circle cx="237" cy="21" r="3" fill="#DDEEFE"/>
<circle cx="255" cy="21" r="3" fill="#DDEEFE"/>
<circle cx="273" cy="21" r="3" fill="#DDEEFE"/>
<circle cx="291" cy="21" r="3" fill="#DDEEFE"/>
<circle cx="309" cy="21" r="3" fill="#DDEEFE"/>
<circle cx="327" cy="21" r="3" fill="#DDEEFE"/>
<circle cx="345" cy="21" r="3" fill="#DDEEFE"/>
<circle cx="363" cy="21" r="3" fill="#DDEEFE"/>
<circle cx="381" cy="21" r="3" fill="#DDEEFE"/>
<circle cx="399" cy="21" r="3" fill="#DDEEFE"/>
<circle cx="417" cy="21" r="3" fill="#DDEEFE"/>
<circle cx="435" cy="21" r="3" fill="#DDEEFE"/>
<circle cx="453" cy="21" r="3" fill="#DDEEFE"/>
<circle cx="471" cy="21" r="3" fill="#DDEEFE"/>
<circle cx="489" cy="21" r="3" fill="#DDEEFE"/>
<circle cx="507" cy="21" r="3" fill="#DDEEFE"/>
<circle cx="525" cy="21" r="3" fill="#DDEEFE"/>
<circle cx="543" cy="21" r="3" fill="#DDEEFE"/>
<circle cx="561" cy="21" r="3" fill="#DDEEFE"/>
<circle cx="579" cy="21" r="3" fill="#DDEEFE"/>
<circle cx="597" cy="21" r="3" fill="#DDEEFE"/>
<circle cx="615" cy="21" r="3" fill="#DDEEFE"/>
<circle cx="633" cy="21" r="3" fill="#DDEEFE"/>
<circle cx="651" cy="21" r="3" fill="#DDEEFE"/>
<circle cx="669" cy="21" r="3" fill="#DDEEFE"/>
<circle cx="687" cy="21" r="3" fill="#DDEEFE"/>
<circle cx="705" cy="21" r="3" fill="#DDEEFE"/>
<circle cx="723" cy="21" r="3" fill="#DDEEFE"/>
<circle cx="741" cy="21" r="3" fill="#DDEEFE"/>
<circle cx="759" cy="21" r="3" fill="#DDEEFE"/>
<circle cx="777" cy="21" r="3" fill="#DDEEFE"/>
<circle cx="795" cy="21" r="3" fill="#DDEEFE"/>
<circle cx="813" cy="21" r="3" fill="#DDEEFE"/>
<circle cx="831" cy="21" r="3" fill="#DDEEFE"/>
<circle cx="849" cy="21" r="3" fill="#DDEEFE"/>
<circle cx="867" cy="21" r="3" fill="#DDEEFE"/>
<circle cx="885" cy="21" r="3" fill="#DDEEFE"/>
<circle cx="903" cy="21" r="3" fill="#DDEEFE"/>
<circle cx="921" cy="21" r="3" fill="#DDEEFE"/>
<circle cx="939" cy="21" r="3" fill="#DDEEFE"/>
<circle cx="957" cy="21" r="3" fill="#DDEEFE"/>
<circle cx="975" cy="21" r="3" fill="#DDEEFE"/>
<circle cx="993" cy="21" r="3" fill="#DDEEFE"/>
<circle cx="1011" cy="21" r="3" fill="#DDEEFE"/>
<circle cx="1029" cy="21" r="3" fill="#DDEEFE"/>
<circle cx="1047" cy="21" r="3" fill="#DDEEFE"/>
<circle cx="1065" cy="21" r="3" fill="#DDEEFE"/>
<circle cx="1083" cy="21" r="3" fill="#DDEEFE"/>
<circle cx="1101" cy="21" r="3" fill="#DDEEFE"/>
<circle cx="1119" cy="21" r="3" fill="#DDEEFE"/>
<circle cx="1137" cy="21" r="3" fill="#DDEEFE"/>
<circle cx="1155" cy="21" r="3" fill="#DDEEFE"/>
<circle cx="1173" cy="21" r="3" fill="#DDEEFE"/>
<circle cx="1191" cy="21" r="3" fill="#DDEEFE"/>
<circle cx="1209" cy="21" r="3" fill="#DDEEFE"/>
<circle cx="3" cy="39" r="3" fill="#DDEEFE"/>
<circle cx="21" cy="39" r="3" fill="#DDEEFE"/>
<circle cx="39" cy="39" r="3" fill="#DDEEFE"/>
<circle cx="57" cy="39" r="3" fill="#DDEEFE"/>
<circle cx="75" cy="39" r="3" fill="#DDEEFE"/>
<circle cx="93" cy="39" r="3" fill="#DDEEFE"/>
<circle cx="111" cy="39" r="3" fill="#DDEEFE"/>
<circle cx="129" cy="39" r="3" fill="#DDEEFE"/>
<circle cx="147" cy="39" r="3" fill="#DDEEFE"/>
<circle cx="165" cy="39" r="3" fill="#DDEEFE"/>
<circle cx="183" cy="39" r="3" fill="#DDEEFE"/>
<circle cx="201" cy="39" r="3" fill="#DDEEFE"/>
<circle cx="219" cy="39" r="3" fill="#DDEEFE"/>
<circle cx="237" cy="39" r="3" fill="#DDEEFE"/>
<circle cx="255" cy="39" r="3" fill="#DDEEFE"/>
<circle cx="273" cy="39" r="3" fill="#DDEEFE"/>
<circle cx="291" cy="39" r="3" fill="#DDEEFE"/>
<circle cx="309" cy="39" r="3" fill="#DDEEFE"/>
<circle cx="327" cy="39" r="3" fill="#DDEEFE"/>
<circle cx="345" cy="39" r="3" fill="#DDEEFE"/>
<circle cx="363" cy="39" r="3" fill="#DDEEFE"/>
<circle cx="381" cy="39" r="3" fill="#DDEEFE"/>
<circle cx="399" cy="39" r="3" fill="#DDEEFE"/>
<circle cx="417" cy="39" r="3" fill="#DDEEFE"/>
<circle cx="435" cy="39" r="3" fill="#DDEEFE"/>
<circle cx="453" cy="39" r="3" fill="#DDEEFE"/>
<circle cx="471" cy="39" r="3" fill="#DDEEFE"/>
<circle cx="489" cy="39" r="3" fill="#DDEEFE"/>
<circle cx="507" cy="39" r="3" fill="#DDEEFE"/>
<circle cx="525" cy="39" r="3" fill="#DDEEFE"/>
<circle cx="543" cy="39" r="3" fill="#DDEEFE"/>
<circle cx="561" cy="39" r="3" fill="#DDEEFE"/>
<circle cx="579" cy="39" r="3" fill="#DDEEFE"/>
<circle cx="597" cy="39" r="3" fill="#DDEEFE"/>
<circle cx="615" cy="39" r="3" fill="#DDEEFE"/>
<circle cx="633" cy="39" r="3" fill="#DDEEFE"/>
<circle cx="651" cy="39" r="3" fill="#DDEEFE"/>
<circle cx="669" cy="39" r="3" fill="#DDEEFE"/>
<circle cx="687" cy="39" r="3" fill="#DDEEFE"/>
<circle cx="705" cy="39" r="3" fill="#DDEEFE"/>
<circle cx="723" cy="39" r="3" fill="#DDEEFE"/>
<circle cx="741" cy="39" r="3" fill="#DDEEFE"/>
<circle cx="759" cy="39" r="3" fill="#DDEEFE"/>
<circle cx="777" cy="39" r="3" fill="#DDEEFE"/>
<circle cx="795" cy="39" r="3" fill="#DDEEFE"/>
<circle cx="813" cy="39" r="3" fill="#DDEEFE"/>
<circle cx="831" cy="39" r="3" fill="#DDEEFE"/>
<circle cx="849" cy="39" r="3" fill="#DDEEFE"/>
<circle cx="867" cy="39" r="3" fill="#DDEEFE"/>
<circle cx="885" cy="39" r="3" fill="#DDEEFE"/>
<circle cx="903" cy="39" r="3" fill="#DDEEFE"/>
<circle cx="921" cy="39" r="3" fill="#DDEEFE"/>
<circle cx="939" cy="39" r="3" fill="#DDEEFE"/>
<circle cx="957" cy="39" r="3" fill="#DDEEFE"/>
<circle cx="975" cy="39" r="3" fill="#DDEEFE"/>
<circle cx="993" cy="39" r="3" fill="#DDEEFE"/>
<circle cx="1011" cy="39" r="3" fill="#DDEEFE"/>
<circle cx="1029" cy="39" r="3" fill="#DDEEFE"/>
<circle cx="1047" cy="39" r="3" fill="#DDEEFE"/>
<circle cx="1065" cy="39" r="3" fill="#DDEEFE"/>
<circle cx="1083" cy="39" r="3" fill="#DDEEFE"/>
<circle cx="1101" cy="39" r="3" fill="#DDEEFE"/>
<circle cx="1119" cy="39" r="3" fill="#DDEEFE"/>
<circle cx="1137" cy="39" r="3" fill="#DDEEFE"/>
<circle cx="1155" cy="39" r="3" fill="#DDEEFE"/>
<circle cx="1173" cy="39" r="3" fill="#DDEEFE"/>
<circle cx="1191" cy="39" r="3" fill="#DDEEFE"/>
<circle cx="1209" cy="39" r="3" fill="#DDEEFE"/>
<circle cx="3" cy="57" r="3" fill="#DDEEFE"/>
<circle cx="21" cy="57" r="3" fill="#DDEEFE"/>
<circle cx="39" cy="57" r="3" fill="#DDEEFE"/>
<circle cx="57" cy="57" r="3" fill="#DDEEFE"/>
<circle cx="75" cy="57" r="3" fill="#DDEEFE"/>
<circle cx="93" cy="57" r="3" fill="#DDEEFE"/>
<circle cx="111" cy="57" r="3" fill="#DDEEFE"/>
<circle cx="129" cy="57" r="3" fill="#DDEEFE"/>
<circle cx="147" cy="57" r="3" fill="#DDEEFE"/>
<circle cx="165" cy="57" r="3" fill="#DDEEFE"/>
<circle cx="183" cy="57" r="3" fill="#DDEEFE"/>
<circle cx="201" cy="57" r="3" fill="#DDEEFE"/>
<circle cx="219" cy="57" r="3" fill="#DDEEFE"/>
<circle cx="237" cy="57" r="3" fill="#DDEEFE"/>
<circle cx="255" cy="57" r="3" fill="#DDEEFE"/>
<circle cx="273" cy="57" r="3" fill="#DDEEFE"/>
<circle cx="291" cy="57" r="3" fill="#DDEEFE"/>
<circle cx="309" cy="57" r="3" fill="#DDEEFE"/>
<circle cx="327" cy="57" r="3" fill="#DDEEFE"/>
<circle cx="345" cy="57" r="3" fill="#DDEEFE"/>
<circle cx="363" cy="57" r="3" fill="#DDEEFE"/>
<circle cx="381" cy="57" r="3" fill="#DDEEFE"/>
<circle cx="399" cy="57" r="3" fill="#DDEEFE"/>
<circle cx="417" cy="57" r="3" fill="#DDEEFE"/>
<circle cx="435" cy="57" r="3" fill="#DDEEFE"/>
<circle cx="453" cy="57" r="3" fill="#DDEEFE"/>
<circle cx="471" cy="57" r="3" fill="#DDEEFE"/>
<circle cx="489" cy="57" r="3" fill="#DDEEFE"/>
<circle cx="507" cy="57" r="3" fill="#DDEEFE"/>
<circle cx="525" cy="57" r="3" fill="#DDEEFE"/>
<circle cx="543" cy="57" r="3" fill="#DDEEFE"/>
<circle cx="561" cy="57" r="3" fill="#DDEEFE"/>
<circle cx="579" cy="57" r="3" fill="#DDEEFE"/>
<circle cx="597" cy="57" r="3" fill="#DDEEFE"/>
<circle cx="615" cy="57" r="3" fill="#DDEEFE"/>
<circle cx="633" cy="57" r="3" fill="#DDEEFE"/>
<circle cx="651" cy="57" r="3" fill="#DDEEFE"/>
<circle cx="669" cy="57" r="3" fill="#DDEEFE"/>
<circle cx="687" cy="57" r="3" fill="#DDEEFE"/>
<circle cx="705" cy="57" r="3" fill="#DDEEFE"/>
<circle cx="723" cy="57" r="3" fill="#DDEEFE"/>
<circle cx="741" cy="57" r="3" fill="#DDEEFE"/>
<circle cx="759" cy="57" r="3" fill="#DDEEFE"/>
<circle cx="777" cy="57" r="3" fill="#DDEEFE"/>
<circle cx="795" cy="57" r="3" fill="#DDEEFE"/>
<circle cx="813" cy="57" r="3" fill="#DDEEFE"/>
<circle cx="831" cy="57" r="3" fill="#DDEEFE"/>
<circle cx="849" cy="57" r="3" fill="#DDEEFE"/>
<circle cx="867" cy="57" r="3" fill="#DDEEFE"/>
<circle cx="885" cy="57" r="3" fill="#DDEEFE"/>
<circle cx="903" cy="57" r="3" fill="#DDEEFE"/>
<circle cx="921" cy="57" r="3" fill="#DDEEFE"/>
<circle cx="939" cy="57" r="3" fill="#DDEEFE"/>
<circle cx="957" cy="57" r="3" fill="#DDEEFE"/>
<circle cx="975" cy="57" r="3" fill="#DDEEFE"/>
<circle cx="993" cy="57" r="3" fill="#DDEEFE"/>
<circle cx="1011" cy="57" r="3" fill="#DDEEFE"/>
<circle cx="1029" cy="57" r="3" fill="#DDEEFE"/>
<circle cx="1047" cy="57" r="3" fill="#DDEEFE"/>
<circle cx="1065" cy="57" r="3" fill="#DDEEFE"/>
<circle cx="1083" cy="57" r="3" fill="#DDEEFE"/>
<circle cx="1101" cy="57" r="3" fill="#DDEEFE"/>
<circle cx="1119" cy="57" r="3" fill="#DDEEFE"/>
<circle cx="1137" cy="57" r="3" fill="#DDEEFE"/>
<circle cx="1155" cy="57" r="3" fill="#DDEEFE"/>
<circle cx="1173" cy="57" r="3" fill="#DDEEFE"/>
<circle cx="1191" cy="57" r="3" fill="#DDEEFE"/>
<circle cx="1209" cy="57" r="3" fill="#DDEEFE"/>
<circle cx="3" cy="75" r="3" fill="#DDEEFE"/>
<circle cx="21" cy="75" r="3" fill="#DDEEFE"/>
<circle cx="39" cy="75" r="3" fill="#DDEEFE"/>
<circle cx="57" cy="75" r="3" fill="#DDEEFE"/>
<circle cx="75" cy="75" r="3" fill="#DDEEFE"/>
<circle cx="93" cy="75" r="3" fill="#DDEEFE"/>
<circle cx="111" cy="75" r="3" fill="#DDEEFE"/>
<circle cx="129" cy="75" r="3" fill="#DDEEFE"/>
<circle cx="147" cy="75" r="3" fill="#DDEEFE"/>
<circle cx="165" cy="75" r="3" fill="#DDEEFE"/>
<circle cx="183" cy="75" r="3" fill="#DDEEFE"/>
<circle cx="201" cy="75" r="3" fill="#DDEEFE"/>
<circle cx="219" cy="75" r="3" fill="#DDEEFE"/>
<circle cx="237" cy="75" r="3" fill="#DDEEFE"/>
<circle cx="255" cy="75" r="3" fill="#DDEEFE"/>
<circle cx="273" cy="75" r="3" fill="#DDEEFE"/>
<circle cx="291" cy="75" r="3" fill="#DDEEFE"/>
<circle cx="309" cy="75" r="3" fill="#DDEEFE"/>
<circle cx="327" cy="75" r="3" fill="#DDEEFE"/>
<circle cx="345" cy="75" r="3" fill="#DDEEFE"/>
<circle cx="363" cy="75" r="3" fill="#DDEEFE"/>
<circle cx="381" cy="75" r="3" fill="#DDEEFE"/>
<circle cx="399" cy="75" r="3" fill="#DDEEFE"/>
<circle cx="417" cy="75" r="3" fill="#DDEEFE"/>
<circle cx="435" cy="75" r="3" fill="#DDEEFE"/>
<circle cx="453" cy="75" r="3" fill="#DDEEFE"/>
<circle cx="471" cy="75" r="3" fill="#DDEEFE"/>
<circle cx="489" cy="75" r="3" fill="#DDEEFE"/>
<circle cx="507" cy="75" r="3" fill="#DDEEFE"/>
<circle cx="525" cy="75" r="3" fill="#DDEEFE"/>
<circle cx="543" cy="75" r="3" fill="#DDEEFE"/>
<circle cx="561" cy="75" r="3" fill="#DDEEFE"/>
<circle cx="579" cy="75" r="3" fill="#DDEEFE"/>
<circle cx="597" cy="75" r="3" fill="#DDEEFE"/>
<circle cx="615" cy="75" r="3" fill="#DDEEFE"/>
<circle cx="633" cy="75" r="3" fill="#DDEEFE"/>
<circle cx="651" cy="75" r="3" fill="#DDEEFE"/>
<circle cx="669" cy="75" r="3" fill="#DDEEFE"/>
<circle cx="687" cy="75" r="3" fill="#DDEEFE"/>
<circle cx="705" cy="75" r="3" fill="#DDEEFE"/>
<circle cx="723" cy="75" r="3" fill="#DDEEFE"/>
<circle cx="741" cy="75" r="3" fill="#DDEEFE"/>
<circle cx="759" cy="75" r="3" fill="#DDEEFE"/>
<circle cx="777" cy="75" r="3" fill="#DDEEFE"/>
<circle cx="795" cy="75" r="3" fill="#DDEEFE"/>
<circle cx="813" cy="75" r="3" fill="#DDEEFE"/>
<circle cx="831" cy="75" r="3" fill="#DDEEFE"/>
<circle cx="849" cy="75" r="3" fill="#DDEEFE"/>
<circle cx="867" cy="75" r="3" fill="#DDEEFE"/>
<circle cx="885" cy="75" r="3" fill="#DDEEFE"/>
<circle cx="903" cy="75" r="3" fill="#DDEEFE"/>
<circle cx="921" cy="75" r="3" fill="#DDEEFE"/>
<circle cx="939" cy="75" r="3" fill="#DDEEFE"/>
<circle cx="957" cy="75" r="3" fill="#DDEEFE"/>
<circle cx="975" cy="75" r="3" fill="#DDEEFE"/>
<circle cx="993" cy="75" r="3" fill="#DDEEFE"/>
<circle cx="1011" cy="75" r="3" fill="#DDEEFE"/>
<circle cx="1029" cy="75" r="3" fill="#DDEEFE"/>
<circle cx="1047" cy="75" r="3" fill="#DDEEFE"/>
<circle cx="1065" cy="75" r="3" fill="#DDEEFE"/>
<circle cx="1083" cy="75" r="3" fill="#DDEEFE"/>
<circle cx="1101" cy="75" r="3" fill="#DDEEFE"/>
<circle cx="1119" cy="75" r="3" fill="#DDEEFE"/>
<circle cx="1137" cy="75" r="3" fill="#DDEEFE"/>
<circle cx="1155" cy="75" r="3" fill="#DDEEFE"/>
<circle cx="1173" cy="75" r="3" fill="#DDEEFE"/>
<circle cx="1191" cy="75" r="3" fill="#DDEEFE"/>
<circle cx="1209" cy="75" r="3" fill="#DDEEFE"/>
<circle cx="3" cy="93" r="3" fill="#DDEEFE"/>
<circle cx="21" cy="93" r="3" fill="#DDEEFE"/>
<circle cx="39" cy="93" r="3" fill="#DDEEFE"/>
<circle cx="57" cy="93" r="3" fill="#DDEEFE"/>
<circle cx="75" cy="93" r="3" fill="#DDEEFE"/>
<circle cx="93" cy="93" r="3" fill="#DDEEFE"/>
<circle cx="111" cy="93" r="3" fill="#DDEEFE"/>
<circle cx="129" cy="93" r="3" fill="#DDEEFE"/>
<circle cx="147" cy="93" r="3" fill="#DDEEFE"/>
<circle cx="165" cy="93" r="3" fill="#DDEEFE"/>
<circle cx="183" cy="93" r="3" fill="#DDEEFE"/>
<circle cx="201" cy="93" r="3" fill="#DDEEFE"/>
<circle cx="219" cy="93" r="3" fill="#DDEEFE"/>
<circle cx="237" cy="93" r="3" fill="#DDEEFE"/>
<circle cx="255" cy="93" r="3" fill="#DDEEFE"/>
<circle cx="273" cy="93" r="3" fill="#DDEEFE"/>
<circle cx="291" cy="93" r="3" fill="#DDEEFE"/>
<circle cx="309" cy="93" r="3" fill="#DDEEFE"/>
<circle cx="327" cy="93" r="3" fill="#DDEEFE"/>
<circle cx="345" cy="93" r="3" fill="#DDEEFE"/>
<circle cx="363" cy="93" r="3" fill="#DDEEFE"/>
<circle cx="381" cy="93" r="3" fill="#DDEEFE"/>
<circle cx="399" cy="93" r="3" fill="#DDEEFE"/>
<circle cx="417" cy="93" r="3" fill="#DDEEFE"/>
<circle cx="435" cy="93" r="3" fill="#DDEEFE"/>
<circle cx="453" cy="93" r="3" fill="#DDEEFE"/>
<circle cx="471" cy="93" r="3" fill="#DDEEFE"/>
<circle cx="489" cy="93" r="3" fill="#DDEEFE"/>
<circle cx="507" cy="93" r="3" fill="#DDEEFE"/>
<circle cx="525" cy="93" r="3" fill="#DDEEFE"/>
<circle cx="543" cy="93" r="3" fill="#DDEEFE"/>
<circle cx="561" cy="93" r="3" fill="#DDEEFE"/>
<circle cx="579" cy="93" r="3" fill="#DDEEFE"/>
<circle cx="597" cy="93" r="3" fill="#DDEEFE"/>
<circle cx="615" cy="93" r="3" fill="#DDEEFE"/>
<circle cx="633" cy="93" r="3" fill="#DDEEFE"/>
<circle cx="651" cy="93" r="3" fill="#DDEEFE"/>
<circle cx="669" cy="93" r="3" fill="#DDEEFE"/>
<circle cx="687" cy="93" r="3" fill="#DDEEFE"/>
<circle cx="705" cy="93" r="3" fill="#DDEEFE"/>
<circle cx="723" cy="93" r="3" fill="#DDEEFE"/>
<circle cx="741" cy="93" r="3" fill="#DDEEFE"/>
<circle cx="759" cy="93" r="3" fill="#DDEEFE"/>
<circle cx="777" cy="93" r="3" fill="#DDEEFE"/>
<circle cx="795" cy="93" r="3" fill="#DDEEFE"/>
<circle cx="813" cy="93" r="3" fill="#DDEEFE"/>
<circle cx="831" cy="93" r="3" fill="#DDEEFE"/>
<circle cx="849" cy="93" r="3" fill="#DDEEFE"/>
<circle cx="867" cy="93" r="3" fill="#DDEEFE"/>
<circle cx="885" cy="93" r="3" fill="#DDEEFE"/>
<circle cx="903" cy="93" r="3" fill="#DDEEFE"/>
<circle cx="921" cy="93" r="3" fill="#DDEEFE"/>
<circle cx="939" cy="93" r="3" fill="#DDEEFE"/>
<circle cx="957" cy="93" r="3" fill="#DDEEFE"/>
<circle cx="975" cy="93" r="3" fill="#DDEEFE"/>
<circle cx="993" cy="93" r="3" fill="#DDEEFE"/>
<circle cx="1011" cy="93" r="3" fill="#DDEEFE"/>
<circle cx="1029" cy="93" r="3" fill="#DDEEFE"/>
<circle cx="1047" cy="93" r="3" fill="#DDEEFE"/>
<circle cx="1065" cy="93" r="3" fill="#DDEEFE"/>
<circle cx="1083" cy="93" r="3" fill="#DDEEFE"/>
<circle cx="1101" cy="93" r="3" fill="#DDEEFE"/>
<circle cx="1119" cy="93" r="3" fill="#DDEEFE"/>
<circle cx="1137" cy="93" r="3" fill="#DDEEFE"/>
<circle cx="1155" cy="93" r="3" fill="#DDEEFE"/>
<circle cx="1173" cy="93" r="3" fill="#DDEEFE"/>
<circle cx="1191" cy="93" r="3" fill="#DDEEFE"/>
<circle cx="1209" cy="93" r="3" fill="#DDEEFE"/>
<circle cx="3" cy="111" r="3" fill="#DDEEFE"/>
<circle cx="21" cy="111" r="3" fill="#DDEEFE"/>
<circle cx="39" cy="111" r="3" fill="#DDEEFE"/>
<circle cx="57" cy="111" r="3" fill="#DDEEFE"/>
<circle cx="75" cy="111" r="3" fill="#DDEEFE"/>
<circle cx="93" cy="111" r="3" fill="#DDEEFE"/>
<circle cx="111" cy="111" r="3" fill="#DDEEFE"/>
<circle cx="129" cy="111" r="3" fill="#DDEEFE"/>
<circle cx="147" cy="111" r="3" fill="#DDEEFE"/>
<circle cx="165" cy="111" r="3" fill="#DDEEFE"/>
<circle cx="183" cy="111" r="3" fill="#DDEEFE"/>
<circle cx="201" cy="111" r="3" fill="#DDEEFE"/>
<circle cx="219" cy="111" r="3" fill="#DDEEFE"/>
<circle cx="237" cy="111" r="3" fill="#DDEEFE"/>
<circle cx="255" cy="111" r="3" fill="#DDEEFE"/>
<circle cx="273" cy="111" r="3" fill="#DDEEFE"/>
<circle cx="291" cy="111" r="3" fill="#DDEEFE"/>
<circle cx="309" cy="111" r="3" fill="#DDEEFE"/>
<circle cx="327" cy="111" r="3" fill="#DDEEFE"/>
<circle cx="345" cy="111" r="3" fill="#DDEEFE"/>
<circle cx="363" cy="111" r="3" fill="#DDEEFE"/>
<circle cx="381" cy="111" r="3" fill="#DDEEFE"/>
<circle cx="399" cy="111" r="3" fill="#DDEEFE"/>
<circle cx="417" cy="111" r="3" fill="#DDEEFE"/>
<circle cx="435" cy="111" r="3" fill="#DDEEFE"/>
<circle cx="453" cy="111" r="3" fill="#DDEEFE"/>
<circle cx="471" cy="111" r="3" fill="#DDEEFE"/>
<circle cx="489" cy="111" r="3" fill="#DDEEFE"/>
<circle cx="507" cy="111" r="3" fill="#DDEEFE"/>
<circle cx="525" cy="111" r="3" fill="#DDEEFE"/>
<circle cx="543" cy="111" r="3" fill="#DDEEFE"/>
<circle cx="561" cy="111" r="3" fill="#DDEEFE"/>
<circle cx="579" cy="111" r="3" fill="#DDEEFE"/>
<circle cx="597" cy="111" r="3" fill="#DDEEFE"/>
<circle cx="615" cy="111" r="3" fill="#DDEEFE"/>
<circle cx="633" cy="111" r="3" fill="#DDEEFE"/>
<circle cx="651" cy="111" r="3" fill="#DDEEFE"/>
<circle cx="669" cy="111" r="3" fill="#DDEEFE"/>
<circle cx="687" cy="111" r="3" fill="#DDEEFE"/>
<circle cx="705" cy="111" r="3" fill="#DDEEFE"/>
<circle cx="723" cy="111" r="3" fill="#DDEEFE"/>
<circle cx="741" cy="111" r="3" fill="#DDEEFE"/>
<circle cx="759" cy="111" r="3" fill="#DDEEFE"/>
<circle cx="777" cy="111" r="3" fill="#DDEEFE"/>
<circle cx="795" cy="111" r="3" fill="#DDEEFE"/>
<circle cx="813" cy="111" r="3" fill="#DDEEFE"/>
<circle cx="831" cy="111" r="3" fill="#DDEEFE"/>
<circle cx="849" cy="111" r="3" fill="#DDEEFE"/>
<circle cx="867" cy="111" r="3" fill="#DDEEFE"/>
<circle cx="885" cy="111" r="3" fill="#DDEEFE"/>
<circle cx="903" cy="111" r="3" fill="#DDEEFE"/>
<circle cx="921" cy="111" r="3" fill="#DDEEFE"/>
<circle cx="939" cy="111" r="3" fill="#DDEEFE"/>
<circle cx="957" cy="111" r="3" fill="#DDEEFE"/>
<circle cx="975" cy="111" r="3" fill="#DDEEFE"/>
<circle cx="993" cy="111" r="3" fill="#DDEEFE"/>
<circle cx="1011" cy="111" r="3" fill="#DDEEFE"/>
<circle cx="1029" cy="111" r="3" fill="#DDEEFE"/>
<circle cx="1047" cy="111" r="3" fill="#DDEEFE"/>
<circle cx="1065" cy="111" r="3" fill="#DDEEFE"/>
<circle cx="1083" cy="111" r="3" fill="#DDEEFE"/>
<circle cx="1101" cy="111" r="3" fill="#DDEEFE"/>
<circle cx="1119" cy="111" r="3" fill="#DDEEFE"/>
<circle cx="1137" cy="111" r="3" fill="#DDEEFE"/>
<circle cx="1155" cy="111" r="3" fill="#DDEEFE"/>
<circle cx="1173" cy="111" r="3" fill="#DDEEFE"/>
<circle cx="1191" cy="111" r="3" fill="#DDEEFE"/>
<circle cx="1209" cy="111" r="3" fill="#DDEEFE"/>
<circle cx="3" cy="129" r="3" fill="#DDEEFE"/>
<circle cx="21" cy="129" r="3" fill="#DDEEFE"/>
<circle cx="39" cy="129" r="3" fill="#DDEEFE"/>
<circle cx="57" cy="129" r="3" fill="#DDEEFE"/>
<circle cx="75" cy="129" r="3" fill="#DDEEFE"/>
<circle cx="93" cy="129" r="3" fill="#DDEEFE"/>
<circle cx="111" cy="129" r="3" fill="#DDEEFE"/>
<circle cx="129" cy="129" r="3" fill="#DDEEFE"/>
<circle cx="147" cy="129" r="3" fill="#DDEEFE"/>
<circle cx="165" cy="129" r="3" fill="#DDEEFE"/>
<circle cx="183" cy="129" r="3" fill="#DDEEFE"/>
<circle cx="201" cy="129" r="3" fill="#DDEEFE"/>
<circle cx="219" cy="129" r="3" fill="#DDEEFE"/>
<circle cx="237" cy="129" r="3" fill="#DDEEFE"/>
<circle cx="255" cy="129" r="3" fill="#DDEEFE"/>
<circle cx="273" cy="129" r="3" fill="#DDEEFE"/>
<circle cx="291" cy="129" r="3" fill="#DDEEFE"/>
<circle cx="309" cy="129" r="3" fill="#DDEEFE"/>
<circle cx="327" cy="129" r="3" fill="#DDEEFE"/>
<circle cx="345" cy="129" r="3" fill="#DDEEFE"/>
<circle cx="363" cy="129" r="3" fill="#DDEEFE"/>
<circle cx="381" cy="129" r="3" fill="#DDEEFE"/>
<circle cx="399" cy="129" r="3" fill="#DDEEFE"/>
<circle cx="417" cy="129" r="3" fill="#DDEEFE"/>
<circle cx="435" cy="129" r="3" fill="#DDEEFE"/>
<circle cx="453" cy="129" r="3" fill="#DDEEFE"/>
<circle cx="471" cy="129" r="3" fill="#DDEEFE"/>
<circle cx="489" cy="129" r="3" fill="#DDEEFE"/>
<circle cx="507" cy="129" r="3" fill="#DDEEFE"/>
<circle cx="525" cy="129" r="3" fill="#DDEEFE"/>
<circle cx="543" cy="129" r="3" fill="#DDEEFE"/>
<circle cx="561" cy="129" r="3" fill="#DDEEFE"/>
<circle cx="579" cy="129" r="3" fill="#DDEEFE"/>
<circle cx="597" cy="129" r="3" fill="#DDEEFE"/>
<circle cx="615" cy="129" r="3" fill="#DDEEFE"/>
<circle cx="633" cy="129" r="3" fill="#DDEEFE"/>
<circle cx="651" cy="129" r="3" fill="#DDEEFE"/>
<circle cx="669" cy="129" r="3" fill="#DDEEFE"/>
<circle cx="687" cy="129" r="3" fill="#DDEEFE"/>
<circle cx="705" cy="129" r="3" fill="#DDEEFE"/>
<circle cx="723" cy="129" r="3" fill="#DDEEFE"/>
<circle cx="741" cy="129" r="3" fill="#DDEEFE"/>
<circle cx="759" cy="129" r="3" fill="#DDEEFE"/>
<circle cx="777" cy="129" r="3" fill="#DDEEFE"/>
<circle cx="795" cy="129" r="3" fill="#DDEEFE"/>
<circle cx="813" cy="129" r="3" fill="#DDEEFE"/>
<circle cx="831" cy="129" r="3" fill="#DDEEFE"/>
<circle cx="849" cy="129" r="3" fill="#DDEEFE"/>
<circle cx="867" cy="129" r="3" fill="#DDEEFE"/>
<circle cx="885" cy="129" r="3" fill="#DDEEFE"/>
<circle cx="903" cy="129" r="3" fill="#DDEEFE"/>
<circle cx="921" cy="129" r="3" fill="#DDEEFE"/>
<circle cx="939" cy="129" r="3" fill="#DDEEFE"/>
<circle cx="957" cy="129" r="3" fill="#DDEEFE"/>
<circle cx="975" cy="129" r="3" fill="#DDEEFE"/>
<circle cx="993" cy="129" r="3" fill="#DDEEFE"/>
<circle cx="1011" cy="129" r="3" fill="#DDEEFE"/>
<circle cx="1029" cy="129" r="3" fill="#DDEEFE"/>
<circle cx="1047" cy="129" r="3" fill="#DDEEFE"/>
<circle cx="1065" cy="129" r="3" fill="#DDEEFE"/>
<circle cx="1083" cy="129" r="3" fill="#DDEEFE"/>
<circle cx="1101" cy="129" r="3" fill="#DDEEFE"/>
<circle cx="1119" cy="129" r="3" fill="#DDEEFE"/>
<circle cx="1137" cy="129" r="3" fill="#DDEEFE"/>
<circle cx="1155" cy="129" r="3" fill="#DDEEFE"/>
<circle cx="1173" cy="129" r="3" fill="#DDEEFE"/>
<circle cx="1191" cy="129" r="3" fill="#DDEEFE"/>
<circle cx="1209" cy="129" r="3" fill="#DDEEFE"/>
<circle cx="3" cy="147" r="3" fill="#DDEEFE"/>
<circle cx="21" cy="147" r="3" fill="#DDEEFE"/>
<circle cx="39" cy="147" r="3" fill="#DDEEFE"/>
<circle cx="57" cy="147" r="3" fill="#DDEEFE"/>
<circle cx="75" cy="147" r="3" fill="#DDEEFE"/>
<circle cx="93" cy="147" r="3" fill="#DDEEFE"/>
<circle cx="111" cy="147" r="3" fill="#DDEEFE"/>
<circle cx="129" cy="147" r="3" fill="#DDEEFE"/>
<circle cx="147" cy="147" r="3" fill="#DDEEFE"/>
<circle cx="165" cy="147" r="3" fill="#DDEEFE"/>
<circle cx="183" cy="147" r="3" fill="#DDEEFE"/>
<circle cx="201" cy="147" r="3" fill="#DDEEFE"/>
<circle cx="219" cy="147" r="3" fill="#DDEEFE"/>
<circle cx="237" cy="147" r="3" fill="#DDEEFE"/>
<circle cx="255" cy="147" r="3" fill="#DDEEFE"/>
<circle cx="273" cy="147" r="3" fill="#DDEEFE"/>
<circle cx="291" cy="147" r="3" fill="#DDEEFE"/>
<circle cx="309" cy="147" r="3" fill="#DDEEFE"/>
<circle cx="327" cy="147" r="3" fill="#DDEEFE"/>
<circle cx="345" cy="147" r="3" fill="#DDEEFE"/>
<circle cx="363" cy="147" r="3" fill="#DDEEFE"/>
<circle cx="381" cy="147" r="3" fill="#DDEEFE"/>
<circle cx="399" cy="147" r="3" fill="#DDEEFE"/>
<circle cx="417" cy="147" r="3" fill="#DDEEFE"/>
<circle cx="435" cy="147" r="3" fill="#DDEEFE"/>
<circle cx="453" cy="147" r="3" fill="#DDEEFE"/>
<circle cx="471" cy="147" r="3" fill="#DDEEFE"/>
<circle cx="489" cy="147" r="3" fill="#DDEEFE"/>
<circle cx="507" cy="147" r="3" fill="#DDEEFE"/>
<circle cx="525" cy="147" r="3" fill="#DDEEFE"/>
<circle cx="543" cy="147" r="3" fill="#DDEEFE"/>
<circle cx="561" cy="147" r="3" fill="#DDEEFE"/>
<circle cx="579" cy="147" r="3" fill="#DDEEFE"/>
<circle cx="597" cy="147" r="3" fill="#DDEEFE"/>
<circle cx="615" cy="147" r="3" fill="#DDEEFE"/>
<circle cx="633" cy="147" r="3" fill="#DDEEFE"/>
<circle cx="651" cy="147" r="3" fill="#DDEEFE"/>
<circle cx="669" cy="147" r="3" fill="#DDEEFE"/>
<circle cx="687" cy="147" r="3" fill="#DDEEFE"/>
<circle cx="705" cy="147" r="3" fill="#DDEEFE"/>
<circle cx="723" cy="147" r="3" fill="#DDEEFE"/>
<circle cx="741" cy="147" r="3" fill="#DDEEFE"/>
<circle cx="759" cy="147" r="3" fill="#DDEEFE"/>
<circle cx="777" cy="147" r="3" fill="#DDEEFE"/>
<circle cx="795" cy="147" r="3" fill="#DDEEFE"/>
<circle cx="813" cy="147" r="3" fill="#DDEEFE"/>
<circle cx="831" cy="147" r="3" fill="#DDEEFE"/>
<circle cx="849" cy="147" r="3" fill="#DDEEFE"/>
<circle cx="867" cy="147" r="3" fill="#DDEEFE"/>
<circle cx="885" cy="147" r="3" fill="#DDEEFE"/>
<circle cx="903" cy="147" r="3" fill="#DDEEFE"/>
<circle cx="921" cy="147" r="3" fill="#DDEEFE"/>
<circle cx="939" cy="147" r="3" fill="#DDEEFE"/>
<circle cx="957" cy="147" r="3" fill="#DDEEFE"/>
<circle cx="975" cy="147" r="3" fill="#DDEEFE"/>
<circle cx="993" cy="147" r="3" fill="#DDEEFE"/>
<circle cx="1011" cy="147" r="3" fill="#DDEEFE"/>
<circle cx="1029" cy="147" r="3" fill="#DDEEFE"/>
<circle cx="1047" cy="147" r="3" fill="#DDEEFE"/>
<circle cx="1065" cy="147" r="3" fill="#DDEEFE"/>
<circle cx="1083" cy="147" r="3" fill="#DDEEFE"/>
<circle cx="1101" cy="147" r="3" fill="#DDEEFE"/>
<circle cx="1119" cy="147" r="3" fill="#DDEEFE"/>
<circle cx="1137" cy="147" r="3" fill="#DDEEFE"/>
<circle cx="1155" cy="147" r="3" fill="#DDEEFE"/>
<circle cx="1173" cy="147" r="3" fill="#DDEEFE"/>
<circle cx="1191" cy="147" r="3" fill="#DDEEFE"/>
<circle cx="1209" cy="147" r="3" fill="#DDEEFE"/>
<circle cx="3" cy="165" r="3" fill="#DDEEFE"/>
<circle cx="21" cy="165" r="3" fill="#DDEEFE"/>
<circle cx="39" cy="165" r="3" fill="#DDEEFE"/>
<circle cx="57" cy="165" r="3" fill="#DDEEFE"/>
<circle cx="75" cy="165" r="3" fill="#DDEEFE"/>
<circle cx="93" cy="165" r="3" fill="#DDEEFE"/>
<circle cx="111" cy="165" r="3" fill="#DDEEFE"/>
<circle cx="129" cy="165" r="3" fill="#DDEEFE"/>
<circle cx="147" cy="165" r="3" fill="#DDEEFE"/>
<circle cx="165" cy="165" r="3" fill="#DDEEFE"/>
<circle cx="183" cy="165" r="3" fill="#DDEEFE"/>
<circle cx="201" cy="165" r="3" fill="#DDEEFE"/>
<circle cx="219" cy="165" r="3" fill="#DDEEFE"/>
<circle cx="237" cy="165" r="3" fill="#DDEEFE"/>
<circle cx="255" cy="165" r="3" fill="#DDEEFE"/>
<circle cx="273" cy="165" r="3" fill="#DDEEFE"/>
<circle cx="291" cy="165" r="3" fill="#DDEEFE"/>
<circle cx="309" cy="165" r="3" fill="#DDEEFE"/>
<circle cx="327" cy="165" r="3" fill="#DDEEFE"/>
<circle cx="345" cy="165" r="3" fill="#DDEEFE"/>
<circle cx="363" cy="165" r="3" fill="#DDEEFE"/>
<circle cx="381" cy="165" r="3" fill="#DDEEFE"/>
<circle cx="399" cy="165" r="3" fill="#DDEEFE"/>
<circle cx="417" cy="165" r="3" fill="#DDEEFE"/>
<circle cx="435" cy="165" r="3" fill="#DDEEFE"/>
<circle cx="453" cy="165" r="3" fill="#DDEEFE"/>
<circle cx="471" cy="165" r="3" fill="#DDEEFE"/>
<circle cx="489" cy="165" r="3" fill="#DDEEFE"/>
<circle cx="507" cy="165" r="3" fill="#DDEEFE"/>
<circle cx="525" cy="165" r="3" fill="#DDEEFE"/>
<circle cx="543" cy="165" r="3" fill="#DDEEFE"/>
<circle cx="561" cy="165" r="3" fill="#DDEEFE"/>
<circle cx="579" cy="165" r="3" fill="#DDEEFE"/>
<circle cx="597" cy="165" r="3" fill="#DDEEFE"/>
<circle cx="615" cy="165" r="3" fill="#DDEEFE"/>
<circle cx="633" cy="165" r="3" fill="#DDEEFE"/>
<circle cx="651" cy="165" r="3" fill="#DDEEFE"/>
<circle cx="669" cy="165" r="3" fill="#DDEEFE"/>
<circle cx="687" cy="165" r="3" fill="#DDEEFE"/>
<circle cx="705" cy="165" r="3" fill="#DDEEFE"/>
<circle cx="723" cy="165" r="3" fill="#DDEEFE"/>
<circle cx="741" cy="165" r="3" fill="#DDEEFE"/>
<circle cx="759" cy="165" r="3" fill="#DDEEFE"/>
<circle cx="777" cy="165" r="3" fill="#DDEEFE"/>
<circle cx="795" cy="165" r="3" fill="#DDEEFE"/>
<circle cx="813" cy="165" r="3" fill="#DDEEFE"/>
<circle cx="831" cy="165" r="3" fill="#DDEEFE"/>
<circle cx="849" cy="165" r="3" fill="#DDEEFE"/>
<circle cx="867" cy="165" r="3" fill="#DDEEFE"/>
<circle cx="885" cy="165" r="3" fill="#DDEEFE"/>
<circle cx="903" cy="165" r="3" fill="#DDEEFE"/>
<circle cx="921" cy="165" r="3" fill="#DDEEFE"/>
<circle cx="939" cy="165" r="3" fill="#DDEEFE"/>
<circle cx="957" cy="165" r="3" fill="#DDEEFE"/>
<circle cx="975" cy="165" r="3" fill="#DDEEFE"/>
<circle cx="993" cy="165" r="3" fill="#DDEEFE"/>
<circle cx="1011" cy="165" r="3" fill="#DDEEFE"/>
<circle cx="1029" cy="165" r="3" fill="#DDEEFE"/>
<circle cx="1047" cy="165" r="3" fill="#DDEEFE"/>
<circle cx="1065" cy="165" r="3" fill="#DDEEFE"/>
<circle cx="1083" cy="165" r="3" fill="#DDEEFE"/>
<circle cx="1101" cy="165" r="3" fill="#DDEEFE"/>
<circle cx="1119" cy="165" r="3" fill="#DDEEFE"/>
<circle cx="1137" cy="165" r="3" fill="#DDEEFE"/>
<circle cx="1155" cy="165" r="3" fill="#DDEEFE"/>
<circle cx="1173" cy="165" r="3" fill="#DDEEFE"/>
<circle cx="1191" cy="165" r="3" fill="#DDEEFE"/>
<circle cx="1209" cy="165" r="3" fill="#DDEEFE"/>
<circle cx="3" cy="183" r="3" fill="#DDEEFE"/>
<circle cx="21" cy="183" r="3" fill="#DDEEFE"/>
<circle cx="39" cy="183" r="3" fill="#DDEEFE"/>
<circle cx="57" cy="183" r="3" fill="#DDEEFE"/>
<circle cx="75" cy="183" r="3" fill="#DDEEFE"/>
<circle cx="93" cy="183" r="3" fill="#DDEEFE"/>
<circle cx="111" cy="183" r="3" fill="#DDEEFE"/>
<circle cx="129" cy="183" r="3" fill="#DDEEFE"/>
<circle cx="147" cy="183" r="3" fill="#DDEEFE"/>
<circle cx="165" cy="183" r="3" fill="#DDEEFE"/>
<circle cx="183" cy="183" r="3" fill="#DDEEFE"/>
<circle cx="201" cy="183" r="3" fill="#DDEEFE"/>
<circle cx="219" cy="183" r="3" fill="#DDEEFE"/>
<circle cx="237" cy="183" r="3" fill="#DDEEFE"/>
<circle cx="255" cy="183" r="3" fill="#DDEEFE"/>
<circle cx="273" cy="183" r="3" fill="#DDEEFE"/>
<circle cx="291" cy="183" r="3" fill="#DDEEFE"/>
<circle cx="309" cy="183" r="3" fill="#DDEEFE"/>
<circle cx="327" cy="183" r="3" fill="#DDEEFE"/>
<circle cx="345" cy="183" r="3" fill="#DDEEFE"/>
<circle cx="363" cy="183" r="3" fill="#DDEEFE"/>
<circle cx="381" cy="183" r="3" fill="#DDEEFE"/>
<circle cx="399" cy="183" r="3" fill="#DDEEFE"/>
<circle cx="417" cy="183" r="3" fill="#DDEEFE"/>
<circle cx="435" cy="183" r="3" fill="#DDEEFE"/>
<circle cx="453" cy="183" r="3" fill="#DDEEFE"/>
<circle cx="471" cy="183" r="3" fill="#DDEEFE"/>
<circle cx="489" cy="183" r="3" fill="#DDEEFE"/>
<circle cx="507" cy="183" r="3" fill="#DDEEFE"/>
<circle cx="525" cy="183" r="3" fill="#DDEEFE"/>
<circle cx="543" cy="183" r="3" fill="#DDEEFE"/>
<circle cx="561" cy="183" r="3" fill="#DDEEFE"/>
<circle cx="579" cy="183" r="3" fill="#DDEEFE"/>
<circle cx="597" cy="183" r="3" fill="#DDEEFE"/>
<circle cx="615" cy="183" r="3" fill="#DDEEFE"/>
<circle cx="633" cy="183" r="3" fill="#DDEEFE"/>
<circle cx="651" cy="183" r="3" fill="#DDEEFE"/>
<circle cx="669" cy="183" r="3" fill="#DDEEFE"/>
<circle cx="687" cy="183" r="3" fill="#DDEEFE"/>
<circle cx="705" cy="183" r="3" fill="#DDEEFE"/>
<circle cx="723" cy="183" r="3" fill="#DDEEFE"/>
<circle cx="741" cy="183" r="3" fill="#DDEEFE"/>
<circle cx="759" cy="183" r="3" fill="#DDEEFE"/>
<circle cx="777" cy="183" r="3" fill="#DDEEFE"/>
<circle cx="795" cy="183" r="3" fill="#DDEEFE"/>
<circle cx="813" cy="183" r="3" fill="#DDEEFE"/>
<circle cx="831" cy="183" r="3" fill="#DDEEFE"/>
<circle cx="849" cy="183" r="3" fill="#DDEEFE"/>
<circle cx="867" cy="183" r="3" fill="#DDEEFE"/>
<circle cx="885" cy="183" r="3" fill="#DDEEFE"/>
<circle cx="903" cy="183" r="3" fill="#DDEEFE"/>
<circle cx="921" cy="183" r="3" fill="#DDEEFE"/>
<circle cx="939" cy="183" r="3" fill="#DDEEFE"/>
<circle cx="957" cy="183" r="3" fill="#DDEEFE"/>
<circle cx="975" cy="183" r="3" fill="#DDEEFE"/>
<circle cx="993" cy="183" r="3" fill="#DDEEFE"/>
<circle cx="1011" cy="183" r="3" fill="#DDEEFE"/>
<circle cx="1029" cy="183" r="3" fill="#DDEEFE"/>
<circle cx="1047" cy="183" r="3" fill="#DDEEFE"/>
<circle cx="1065" cy="183" r="3" fill="#DDEEFE"/>
<circle cx="1083" cy="183" r="3" fill="#DDEEFE"/>
<circle cx="1101" cy="183" r="3" fill="#DDEEFE"/>
<circle cx="1119" cy="183" r="3" fill="#DDEEFE"/>
<circle cx="1137" cy="183" r="3" fill="#DDEEFE"/>
<circle cx="1155" cy="183" r="3" fill="#DDEEFE"/>
<circle cx="1173" cy="183" r="3" fill="#DDEEFE"/>
<circle cx="1191" cy="183" r="3" fill="#DDEEFE"/>
<circle cx="1209" cy="183" r="3" fill="#DDEEFE"/>
<circle cx="3" cy="201" r="3" fill="#DDEEFE"/>
<circle cx="21" cy="201" r="3" fill="#DDEEFE"/>
<circle cx="39" cy="201" r="3" fill="#DDEEFE"/>
<circle cx="57" cy="201" r="3" fill="#DDEEFE"/>
<circle cx="75" cy="201" r="3" fill="#DDEEFE"/>
<circle cx="93" cy="201" r="3" fill="#DDEEFE"/>
<circle cx="111" cy="201" r="3" fill="#DDEEFE"/>
<circle cx="129" cy="201" r="3" fill="#DDEEFE"/>
<circle cx="147" cy="201" r="3" fill="#DDEEFE"/>
<circle cx="165" cy="201" r="3" fill="#DDEEFE"/>
<circle cx="183" cy="201" r="3" fill="#DDEEFE"/>
<circle cx="201" cy="201" r="3" fill="#DDEEFE"/>
<circle cx="219" cy="201" r="3" fill="#DDEEFE"/>
<circle cx="237" cy="201" r="3" fill="#DDEEFE"/>
<circle cx="255" cy="201" r="3" fill="#DDEEFE"/>
<circle cx="273" cy="201" r="3" fill="#DDEEFE"/>
<circle cx="291" cy="201" r="3" fill="#DDEEFE"/>
<circle cx="309" cy="201" r="3" fill="#DDEEFE"/>
<circle cx="327" cy="201" r="3" fill="#DDEEFE"/>
<circle cx="345" cy="201" r="3" fill="#DDEEFE"/>
<circle cx="363" cy="201" r="3" fill="#DDEEFE"/>
<circle cx="381" cy="201" r="3" fill="#DDEEFE"/>
<circle cx="399" cy="201" r="3" fill="#DDEEFE"/>
<circle cx="417" cy="201" r="3" fill="#DDEEFE"/>
<circle cx="435" cy="201" r="3" fill="#DDEEFE"/>
<circle cx="453" cy="201" r="3" fill="#DDEEFE"/>
<circle cx="471" cy="201" r="3" fill="#DDEEFE"/>
<circle cx="489" cy="201" r="3" fill="#DDEEFE"/>
<circle cx="507" cy="201" r="3" fill="#DDEEFE"/>
<circle cx="525" cy="201" r="3" fill="#DDEEFE"/>
<circle cx="543" cy="201" r="3" fill="#DDEEFE"/>
<circle cx="561" cy="201" r="3" fill="#DDEEFE"/>
<circle cx="579" cy="201" r="3" fill="#DDEEFE"/>
<circle cx="597" cy="201" r="3" fill="#DDEEFE"/>
<circle cx="615" cy="201" r="3" fill="#DDEEFE"/>
<circle cx="633" cy="201" r="3" fill="#DDEEFE"/>
<circle cx="651" cy="201" r="3" fill="#DDEEFE"/>
<circle cx="669" cy="201" r="3" fill="#DDEEFE"/>
<circle cx="687" cy="201" r="3" fill="#DDEEFE"/>
<circle cx="705" cy="201" r="3" fill="#DDEEFE"/>
<circle cx="723" cy="201" r="3" fill="#DDEEFE"/>
<circle cx="741" cy="201" r="3" fill="#DDEEFE"/>
<circle cx="759" cy="201" r="3" fill="#DDEEFE"/>
<circle cx="777" cy="201" r="3" fill="#DDEEFE"/>
<circle cx="795" cy="201" r="3" fill="#DDEEFE"/>
<circle cx="813" cy="201" r="3" fill="#DDEEFE"/>
<circle cx="831" cy="201" r="3" fill="#DDEEFE"/>
<circle cx="849" cy="201" r="3" fill="#DDEEFE"/>
<circle cx="867" cy="201" r="3" fill="#DDEEFE"/>
<circle cx="885" cy="201" r="3" fill="#DDEEFE"/>
<circle cx="903" cy="201" r="3" fill="#DDEEFE"/>
<circle cx="921" cy="201" r="3" fill="#DDEEFE"/>
<circle cx="939" cy="201" r="3" fill="#DDEEFE"/>
<circle cx="957" cy="201" r="3" fill="#DDEEFE"/>
<circle cx="975" cy="201" r="3" fill="#DDEEFE"/>
<circle cx="993" cy="201" r="3" fill="#DDEEFE"/>
<circle cx="1011" cy="201" r="3" fill="#DDEEFE"/>
<circle cx="1029" cy="201" r="3" fill="#DDEEFE"/>
<circle cx="1047" cy="201" r="3" fill="#DDEEFE"/>
<circle cx="1065" cy="201" r="3" fill="#DDEEFE"/>
<circle cx="1083" cy="201" r="3" fill="#DDEEFE"/>
<circle cx="1101" cy="201" r="3" fill="#DDEEFE"/>
<circle cx="1119" cy="201" r="3" fill="#DDEEFE"/>
<circle cx="1137" cy="201" r="3" fill="#DDEEFE"/>
<circle cx="1155" cy="201" r="3" fill="#DDEEFE"/>
<circle cx="1173" cy="201" r="3" fill="#DDEEFE"/>
<circle cx="1191" cy="201" r="3" fill="#DDEEFE"/>
<circle cx="1209" cy="201" r="3" fill="#DDEEFE"/>
<circle cx="3" cy="219" r="3" fill="#DDEEFE"/>
<circle cx="21" cy="219" r="3" fill="#DDEEFE"/>
<circle cx="39" cy="219" r="3" fill="#DDEEFE"/>
<circle cx="57" cy="219" r="3" fill="#DDEEFE"/>
<circle cx="75" cy="219" r="3" fill="#DDEEFE"/>
<circle cx="93" cy="219" r="3" fill="#DDEEFE"/>
<circle cx="111" cy="219" r="3" fill="#DDEEFE"/>
<circle cx="129" cy="219" r="3" fill="#DDEEFE"/>
<circle cx="147" cy="219" r="3" fill="#DDEEFE"/>
<circle cx="165" cy="219" r="3" fill="#DDEEFE"/>
<circle cx="183" cy="219" r="3" fill="#DDEEFE"/>
<circle cx="201" cy="219" r="3" fill="#DDEEFE"/>
<circle cx="219" cy="219" r="3" fill="#DDEEFE"/>
<circle cx="237" cy="219" r="3" fill="#DDEEFE"/>
<circle cx="255" cy="219" r="3" fill="#DDEEFE"/>
<circle cx="273" cy="219" r="3" fill="#DDEEFE"/>
<circle cx="291" cy="219" r="3" fill="#DDEEFE"/>
<circle cx="309" cy="219" r="3" fill="#DDEEFE"/>
<circle cx="327" cy="219" r="3" fill="#DDEEFE"/>
<circle cx="345" cy="219" r="3" fill="#DDEEFE"/>
<circle cx="363" cy="219" r="3" fill="#DDEEFE"/>
<circle cx="381" cy="219" r="3" fill="#DDEEFE"/>
<circle cx="399" cy="219" r="3" fill="#DDEEFE"/>
<circle cx="417" cy="219" r="3" fill="#DDEEFE"/>
<circle cx="435" cy="219" r="3" fill="#DDEEFE"/>
<circle cx="453" cy="219" r="3" fill="#DDEEFE"/>
<circle cx="471" cy="219" r="3" fill="#DDEEFE"/>
<circle cx="489" cy="219" r="3" fill="#DDEEFE"/>
<circle cx="507" cy="219" r="3" fill="#DDEEFE"/>
<circle cx="525" cy="219" r="3" fill="#DDEEFE"/>
<circle cx="543" cy="219" r="3" fill="#DDEEFE"/>
<circle cx="561" cy="219" r="3" fill="#DDEEFE"/>
<circle cx="579" cy="219" r="3" fill="#DDEEFE"/>
<circle cx="597" cy="219" r="3" fill="#DDEEFE"/>
<circle cx="615" cy="219" r="3" fill="#DDEEFE"/>
<circle cx="633" cy="219" r="3" fill="#DDEEFE"/>
<circle cx="651" cy="219" r="3" fill="#DDEEFE"/>
<circle cx="669" cy="219" r="3" fill="#DDEEFE"/>
<circle cx="687" cy="219" r="3" fill="#DDEEFE"/>
<circle cx="705" cy="219" r="3" fill="#DDEEFE"/>
<circle cx="723" cy="219" r="3" fill="#DDEEFE"/>
<circle cx="741" cy="219" r="3" fill="#DDEEFE"/>
<circle cx="759" cy="219" r="3" fill="#DDEEFE"/>
<circle cx="777" cy="219" r="3" fill="#DDEEFE"/>
<circle cx="795" cy="219" r="3" fill="#DDEEFE"/>
<circle cx="813" cy="219" r="3" fill="#DDEEFE"/>
<circle cx="831" cy="219" r="3" fill="#DDEEFE"/>
<circle cx="849" cy="219" r="3" fill="#DDEEFE"/>
<circle cx="867" cy="219" r="3" fill="#DDEEFE"/>
<circle cx="885" cy="219" r="3" fill="#DDEEFE"/>
<circle cx="903" cy="219" r="3" fill="#DDEEFE"/>
<circle cx="921" cy="219" r="3" fill="#DDEEFE"/>
<circle cx="939" cy="219" r="3" fill="#DDEEFE"/>
<circle cx="957" cy="219" r="3" fill="#DDEEFE"/>
<circle cx="975" cy="219" r="3" fill="#DDEEFE"/>
<circle cx="993" cy="219" r="3" fill="#DDEEFE"/>
<circle cx="1011" cy="219" r="3" fill="#DDEEFE"/>
<circle cx="1029" cy="219" r="3" fill="#DDEEFE"/>
<circle cx="1047" cy="219" r="3" fill="#DDEEFE"/>
<circle cx="1065" cy="219" r="3" fill="#DDEEFE"/>
<circle cx="1083" cy="219" r="3" fill="#DDEEFE"/>
<circle cx="1101" cy="219" r="3" fill="#DDEEFE"/>
<circle cx="1119" cy="219" r="3" fill="#DDEEFE"/>
<circle cx="1137" cy="219" r="3" fill="#DDEEFE"/>
<circle cx="1155" cy="219" r="3" fill="#DDEEFE"/>
<circle cx="1173" cy="219" r="3" fill="#DDEEFE"/>
<circle cx="1191" cy="219" r="3" fill="#DDEEFE"/>
<circle cx="1209" cy="219" r="3" fill="#DDEEFE"/>
<circle cx="3" cy="237" r="3" fill="#DDEEFE"/>
<circle cx="21" cy="237" r="3" fill="#DDEEFE"/>
<circle cx="39" cy="237" r="3" fill="#DDEEFE"/>
<circle cx="57" cy="237" r="3" fill="#DDEEFE"/>
<circle cx="75" cy="237" r="3" fill="#DDEEFE"/>
<circle cx="93" cy="237" r="3" fill="#DDEEFE"/>
<circle cx="111" cy="237" r="3" fill="#DDEEFE"/>
<circle cx="129" cy="237" r="3" fill="#DDEEFE"/>
<circle cx="147" cy="237" r="3" fill="#DDEEFE"/>
<circle cx="165" cy="237" r="3" fill="#DDEEFE"/>
<circle cx="183" cy="237" r="3" fill="#DDEEFE"/>
<circle cx="201" cy="237" r="3" fill="#DDEEFE"/>
<circle cx="219" cy="237" r="3" fill="#DDEEFE"/>
<circle cx="237" cy="237" r="3" fill="#DDEEFE"/>
<circle cx="255" cy="237" r="3" fill="#DDEEFE"/>
<circle cx="273" cy="237" r="3" fill="#DDEEFE"/>
<circle cx="291" cy="237" r="3" fill="#DDEEFE"/>
<circle cx="309" cy="237" r="3" fill="#DDEEFE"/>
<circle cx="327" cy="237" r="3" fill="#DDEEFE"/>
<circle cx="345" cy="237" r="3" fill="#DDEEFE"/>
<circle cx="363" cy="237" r="3" fill="#DDEEFE"/>
<circle cx="381" cy="237" r="3" fill="#DDEEFE"/>
<circle cx="399" cy="237" r="3" fill="#DDEEFE"/>
<circle cx="417" cy="237" r="3" fill="#DDEEFE"/>
<circle cx="435" cy="237" r="3" fill="#DDEEFE"/>
<circle cx="453" cy="237" r="3" fill="#DDEEFE"/>
<circle cx="471" cy="237" r="3" fill="#DDEEFE"/>
<circle cx="489" cy="237" r="3" fill="#DDEEFE"/>
<circle cx="507" cy="237" r="3" fill="#DDEEFE"/>
<circle cx="525" cy="237" r="3" fill="#DDEEFE"/>
<circle cx="543" cy="237" r="3" fill="#DDEEFE"/>
<circle cx="561" cy="237" r="3" fill="#DDEEFE"/>
<circle cx="579" cy="237" r="3" fill="#DDEEFE"/>
<circle cx="597" cy="237" r="3" fill="#DDEEFE"/>
<circle cx="615" cy="237" r="3" fill="#DDEEFE"/>
<circle cx="633" cy="237" r="3" fill="#DDEEFE"/>
<circle cx="651" cy="237" r="3" fill="#DDEEFE"/>
<circle cx="669" cy="237" r="3" fill="#DDEEFE"/>
<circle cx="687" cy="237" r="3" fill="#DDEEFE"/>
<circle cx="705" cy="237" r="3" fill="#DDEEFE"/>
<circle cx="723" cy="237" r="3" fill="#DDEEFE"/>
<circle cx="741" cy="237" r="3" fill="#DDEEFE"/>
<circle cx="759" cy="237" r="3" fill="#DDEEFE"/>
<circle cx="777" cy="237" r="3" fill="#DDEEFE"/>
<circle cx="795" cy="237" r="3" fill="#DDEEFE"/>
<circle cx="813" cy="237" r="3" fill="#DDEEFE"/>
<circle cx="831" cy="237" r="3" fill="#DDEEFE"/>
<circle cx="849" cy="237" r="3" fill="#DDEEFE"/>
<circle cx="867" cy="237" r="3" fill="#DDEEFE"/>
<circle cx="885" cy="237" r="3" fill="#DDEEFE"/>
<circle cx="903" cy="237" r="3" fill="#DDEEFE"/>
<circle cx="921" cy="237" r="3" fill="#DDEEFE"/>
<circle cx="939" cy="237" r="3" fill="#DDEEFE"/>
<circle cx="957" cy="237" r="3" fill="#DDEEFE"/>
<circle cx="975" cy="237" r="3" fill="#DDEEFE"/>
<circle cx="993" cy="237" r="3" fill="#DDEEFE"/>
<circle cx="1011" cy="237" r="3" fill="#DDEEFE"/>
<circle cx="1029" cy="237" r="3" fill="#DDEEFE"/>
<circle cx="1047" cy="237" r="3" fill="#DDEEFE"/>
<circle cx="1065" cy="237" r="3" fill="#DDEEFE"/>
<circle cx="1083" cy="237" r="3" fill="#DDEEFE"/>
<circle cx="1101" cy="237" r="3" fill="#DDEEFE"/>
<circle cx="1119" cy="237" r="3" fill="#DDEEFE"/>
<circle cx="1137" cy="237" r="3" fill="#DDEEFE"/>
<circle cx="1155" cy="237" r="3" fill="#DDEEFE"/>
<circle cx="1173" cy="237" r="3" fill="#DDEEFE"/>
<circle cx="1191" cy="237" r="3" fill="#DDEEFE"/>
<circle cx="1209" cy="237" r="3" fill="#DDEEFE"/>
</g>
<defs>
<clipPath id="clip0_113_14800">
<rect width="1213" height="240" fill="white"/>
</clipPath>
</defs>
</svg>
