<svg width="161" height="25" viewBox="0 0 161 25" fill="none" xmlns="http://www.w3.org/2000/svg">
<path d="M15.411 0L18.6903 8.63729H29.3024L20.717 13.9754L23.9964 22.6127L15.411 17.2746L6.82562 22.6127L10.1049 13.9754L1.51957 8.63729H12.1317L15.411 0Z" fill="#244C77"/>
<path d="M48.1291 0L51.4084 8.63729H62.0205L53.4352 13.9754L56.7145 22.6127L48.1291 17.2746L39.5438 22.6127L42.8231 13.9754L34.2377 8.63729H44.8498L48.1291 0Z" fill="#244C77"/>
<path d="M80.8473 0L84.1266 8.63729H94.7387L86.1533 13.9754L89.4326 22.6127L80.8473 17.2746L72.2619 22.6127L75.5412 13.9754L66.9558 8.63729H77.5679L80.8473 0Z" fill="#244C77"/>
<path d="M113.565 0L116.845 8.63729H127.457L118.871 13.9754L122.151 22.6127L113.565 17.2746L104.98 22.6127L108.259 13.9754L99.674 8.63729H110.286L113.565 0Z" fill="#244C77"/>
<path d="M146.283 0L149.563 8.63729H160.175L151.589 13.9754L154.869 22.6127L146.283 17.2746L137.698 22.6127L140.977 13.9754L132.392 8.63729H143.004L146.283 0Z" fill="#244C77"/>
</svg>
