<svg width="243" height="108" viewBox="0 0 243 108" fill="none" xmlns="http://www.w3.org/2000/svg">
<g clip-path="url(#clip0_139_46639)">
<circle cx="1.5" cy="1.5" r="1.5" fill="#DDEEFE"/>
<circle cx="10.5" cy="1.5" r="1.5" fill="#DDEEFE"/>
<circle cx="19.5" cy="1.5" r="1.5" fill="#DDEEFE"/>
<circle cx="28.5" cy="1.5" r="1.5" fill="#DDEEFE"/>
<circle cx="37.5" cy="1.5" r="1.5" fill="#DDEEFE"/>
<circle cx="46.5" cy="1.5" r="1.5" fill="#DDEEFE"/>
<circle cx="55.5" cy="1.5" r="1.5" fill="#DDEEFE"/>
<circle cx="64.5" cy="1.5" r="1.5" fill="#DDEEFE"/>
<circle cx="73.5" cy="1.5" r="1.5" fill="#DDEEFE"/>
<circle cx="82.5" cy="1.5" r="1.5" fill="#DDEEFE"/>
<circle cx="91.5" cy="1.5" r="1.5" fill="#DDEEFE"/>
<circle cx="100.5" cy="1.5" r="1.5" fill="#DDEEFE"/>
<circle cx="109.5" cy="1.5" r="1.5" fill="#DDEEFE"/>
<circle cx="118.5" cy="1.5" r="1.5" fill="#DDEEFE"/>
<circle cx="127.5" cy="1.5" r="1.5" fill="#DDEEFE"/>
<circle cx="136.5" cy="1.5" r="1.5" fill="#DDEEFE"/>
<circle cx="145.5" cy="1.5" r="1.5" fill="#DDEEFE"/>
<circle cx="154.5" cy="1.5" r="1.5" fill="#DDEEFE"/>
<circle cx="163.5" cy="1.5" r="1.5" fill="#DDEEFE"/>
<circle cx="172.5" cy="1.5" r="1.5" fill="#DDEEFE"/>
<circle cx="181.5" cy="1.5" r="1.5" fill="#DDEEFE"/>
<circle cx="190.5" cy="1.5" r="1.5" fill="#DDEEFE"/>
<circle cx="199.5" cy="1.5" r="1.5" fill="#DDEEFE"/>
<circle cx="208.5" cy="1.5" r="1.5" fill="#DDEEFE"/>
<circle cx="217.5" cy="1.5" r="1.5" fill="#DDEEFE"/>
<circle cx="226.5" cy="1.5" r="1.5" fill="#DDEEFE"/>
<circle cx="235.5" cy="1.5" r="1.5" fill="#DDEEFE"/>
<circle cx="1.5" cy="10.5" r="1.5" fill="#DDEEFE"/>
<circle cx="10.5" cy="10.5" r="1.5" fill="#DDEEFE"/>
<circle cx="19.5" cy="10.5" r="1.5" fill="#DDEEFE"/>
<circle cx="28.5" cy="10.5" r="1.5" fill="#DDEEFE"/>
<circle cx="37.5" cy="10.5" r="1.5" fill="#DDEEFE"/>
<circle cx="46.5" cy="10.5" r="1.5" fill="#DDEEFE"/>
<circle cx="55.5" cy="10.5" r="1.5" fill="#DDEEFE"/>
<circle cx="64.5" cy="10.5" r="1.5" fill="#DDEEFE"/>
<circle cx="73.5" cy="10.5" r="1.5" fill="#DDEEFE"/>
<circle cx="82.5" cy="10.5" r="1.5" fill="#DDEEFE"/>
<circle cx="91.5" cy="10.5" r="1.5" fill="#DDEEFE"/>
<circle cx="100.5" cy="10.5" r="1.5" fill="#DDEEFE"/>
<circle cx="109.5" cy="10.5" r="1.5" fill="#DDEEFE"/>
<circle cx="118.5" cy="10.5" r="1.5" fill="#DDEEFE"/>
<circle cx="127.5" cy="10.5" r="1.5" fill="#DDEEFE"/>
<circle cx="136.5" cy="10.5" r="1.5" fill="#DDEEFE"/>
<circle cx="145.5" cy="10.5" r="1.5" fill="#DDEEFE"/>
<circle cx="154.5" cy="10.5" r="1.5" fill="#DDEEFE"/>
<circle cx="163.5" cy="10.5" r="1.5" fill="#DDEEFE"/>
<circle cx="172.5" cy="10.5" r="1.5" fill="#DDEEFE"/>
<circle cx="181.5" cy="10.5" r="1.5" fill="#DDEEFE"/>
<circle cx="190.5" cy="10.5" r="1.5" fill="#DDEEFE"/>
<circle cx="199.5" cy="10.5" r="1.5" fill="#DDEEFE"/>
<circle cx="208.5" cy="10.5" r="1.5" fill="#DDEEFE"/>
<circle cx="217.5" cy="10.5" r="1.5" fill="#DDEEFE"/>
<circle cx="226.5" cy="10.5" r="1.5" fill="#DDEEFE"/>
<circle cx="235.5" cy="10.5" r="1.5" fill="#DDEEFE"/>
<circle cx="1.5" cy="19.5" r="1.5" fill="#DDEEFE"/>
<circle cx="10.5" cy="19.5" r="1.5" fill="#DDEEFE"/>
<circle cx="19.5" cy="19.5" r="1.5" fill="#DDEEFE"/>
<circle cx="28.5" cy="19.5" r="1.5" fill="#DDEEFE"/>
<circle cx="37.5" cy="19.5" r="1.5" fill="#DDEEFE"/>
<circle cx="46.5" cy="19.5" r="1.5" fill="#DDEEFE"/>
<circle cx="55.5" cy="19.5" r="1.5" fill="#DDEEFE"/>
<circle cx="64.5" cy="19.5" r="1.5" fill="#DDEEFE"/>
<circle cx="73.5" cy="19.5" r="1.5" fill="#DDEEFE"/>
<circle cx="82.5" cy="19.5" r="1.5" fill="#DDEEFE"/>
<circle cx="91.5" cy="19.5" r="1.5" fill="#DDEEFE"/>
<circle cx="100.5" cy="19.5" r="1.5" fill="#DDEEFE"/>
<circle cx="109.5" cy="19.5" r="1.5" fill="#DDEEFE"/>
<circle cx="118.5" cy="19.5" r="1.5" fill="#DDEEFE"/>
<circle cx="127.5" cy="19.5" r="1.5" fill="#DDEEFE"/>
<circle cx="136.5" cy="19.5" r="1.5" fill="#DDEEFE"/>
<circle cx="145.5" cy="19.5" r="1.5" fill="#DDEEFE"/>
<circle cx="154.5" cy="19.5" r="1.5" fill="#DDEEFE"/>
<circle cx="163.5" cy="19.5" r="1.5" fill="#DDEEFE"/>
<circle cx="172.5" cy="19.5" r="1.5" fill="#DDEEFE"/>
<circle cx="181.5" cy="19.5" r="1.5" fill="#DDEEFE"/>
<circle cx="190.5" cy="19.5" r="1.5" fill="#DDEEFE"/>
<circle cx="199.5" cy="19.5" r="1.5" fill="#DDEEFE"/>
<circle cx="208.5" cy="19.5" r="1.5" fill="#DDEEFE"/>
<circle cx="217.5" cy="19.5" r="1.5" fill="#DDEEFE"/>
<circle cx="226.5" cy="19.5" r="1.5" fill="#DDEEFE"/>
<circle cx="235.5" cy="19.5" r="1.5" fill="#DDEEFE"/>
<circle cx="1.5" cy="28.5" r="1.5" fill="#DDEEFE"/>
<circle cx="10.5" cy="28.5" r="1.5" fill="#DDEEFE"/>
<circle cx="19.5" cy="28.5" r="1.5" fill="#DDEEFE"/>
<circle cx="28.5" cy="28.5" r="1.5" fill="#DDEEFE"/>
<circle cx="37.5" cy="28.5" r="1.5" fill="#DDEEFE"/>
<circle cx="46.5" cy="28.5" r="1.5" fill="#DDEEFE"/>
<circle cx="55.5" cy="28.5" r="1.5" fill="#DDEEFE"/>
<circle cx="64.5" cy="28.5" r="1.5" fill="#DDEEFE"/>
<circle cx="73.5" cy="28.5" r="1.5" fill="#DDEEFE"/>
<circle cx="82.5" cy="28.5" r="1.5" fill="#DDEEFE"/>
<circle cx="91.5" cy="28.5" r="1.5" fill="#DDEEFE"/>
<circle cx="100.5" cy="28.5" r="1.5" fill="#DDEEFE"/>
<circle cx="109.5" cy="28.5" r="1.5" fill="#DDEEFE"/>
<circle cx="118.5" cy="28.5" r="1.5" fill="#DDEEFE"/>
<circle cx="127.5" cy="28.5" r="1.5" fill="#DDEEFE"/>
<circle cx="136.5" cy="28.5" r="1.5" fill="#DDEEFE"/>
<circle cx="145.5" cy="28.5" r="1.5" fill="#DDEEFE"/>
<circle cx="154.5" cy="28.5" r="1.5" fill="#DDEEFE"/>
<circle cx="163.5" cy="28.5" r="1.5" fill="#DDEEFE"/>
<circle cx="172.5" cy="28.5" r="1.5" fill="#DDEEFE"/>
<circle cx="181.5" cy="28.5" r="1.5" fill="#DDEEFE"/>
<circle cx="190.5" cy="28.5" r="1.5" fill="#DDEEFE"/>
<circle cx="199.5" cy="28.5" r="1.5" fill="#DDEEFE"/>
<circle cx="208.5" cy="28.5" r="1.5" fill="#DDEEFE"/>
<circle cx="217.5" cy="28.5" r="1.5" fill="#DDEEFE"/>
<circle cx="226.5" cy="28.5" r="1.5" fill="#DDEEFE"/>
<circle cx="235.5" cy="28.5" r="1.5" fill="#DDEEFE"/>
<circle cx="1.5" cy="37.5" r="1.5" fill="#DDEEFE"/>
<circle cx="10.5" cy="37.5" r="1.5" fill="#DDEEFE"/>
<circle cx="19.5" cy="37.5" r="1.5" fill="#DDEEFE"/>
<circle cx="28.5" cy="37.5" r="1.5" fill="#DDEEFE"/>
<circle cx="37.5" cy="37.5" r="1.5" fill="#DDEEFE"/>
<circle cx="46.5" cy="37.5" r="1.5" fill="#DDEEFE"/>
<circle cx="55.5" cy="37.5" r="1.5" fill="#DDEEFE"/>
<circle cx="64.5" cy="37.5" r="1.5" fill="#DDEEFE"/>
<circle cx="73.5" cy="37.5" r="1.5" fill="#DDEEFE"/>
<circle cx="82.5" cy="37.5" r="1.5" fill="#DDEEFE"/>
<circle cx="91.5" cy="37.5" r="1.5" fill="#DDEEFE"/>
<circle cx="100.5" cy="37.5" r="1.5" fill="#DDEEFE"/>
<circle cx="109.5" cy="37.5" r="1.5" fill="#DDEEFE"/>
<circle cx="118.5" cy="37.5" r="1.5" fill="#DDEEFE"/>
<circle cx="127.5" cy="37.5" r="1.5" fill="#DDEEFE"/>
<circle cx="136.5" cy="37.5" r="1.5" fill="#DDEEFE"/>
<circle cx="145.5" cy="37.5" r="1.5" fill="#DDEEFE"/>
<circle cx="154.5" cy="37.5" r="1.5" fill="#DDEEFE"/>
<circle cx="163.5" cy="37.5" r="1.5" fill="#DDEEFE"/>
<circle cx="172.5" cy="37.5" r="1.5" fill="#DDEEFE"/>
<circle cx="181.5" cy="37.5" r="1.5" fill="#DDEEFE"/>
<circle cx="190.5" cy="37.5" r="1.5" fill="#DDEEFE"/>
<circle cx="199.5" cy="37.5" r="1.5" fill="#DDEEFE"/>
<circle cx="208.5" cy="37.5" r="1.5" fill="#DDEEFE"/>
<circle cx="217.5" cy="37.5" r="1.5" fill="#DDEEFE"/>
<circle cx="226.5" cy="37.5" r="1.5" fill="#DDEEFE"/>
<circle cx="235.5" cy="37.5" r="1.5" fill="#DDEEFE"/>
<circle cx="1.5" cy="46.5" r="1.5" fill="#DDEEFE"/>
<circle cx="10.5" cy="46.5" r="1.5" fill="#DDEEFE"/>
<circle cx="19.5" cy="46.5" r="1.5" fill="#DDEEFE"/>
<circle cx="28.5" cy="46.5" r="1.5" fill="#DDEEFE"/>
<circle cx="37.5" cy="46.5" r="1.5" fill="#DDEEFE"/>
<circle cx="46.5" cy="46.5" r="1.5" fill="#DDEEFE"/>
<circle cx="55.5" cy="46.5" r="1.5" fill="#DDEEFE"/>
<circle cx="64.5" cy="46.5" r="1.5" fill="#DDEEFE"/>
<circle cx="73.5" cy="46.5" r="1.5" fill="#DDEEFE"/>
<circle cx="82.5" cy="46.5" r="1.5" fill="#DDEEFE"/>
<circle cx="91.5" cy="46.5" r="1.5" fill="#DDEEFE"/>
<circle cx="100.5" cy="46.5" r="1.5" fill="#DDEEFE"/>
<circle cx="109.5" cy="46.5" r="1.5" fill="#DDEEFE"/>
<circle cx="118.5" cy="46.5" r="1.5" fill="#DDEEFE"/>
<circle cx="127.5" cy="46.5" r="1.5" fill="#DDEEFE"/>
<circle cx="136.5" cy="46.5" r="1.5" fill="#DDEEFE"/>
<circle cx="145.5" cy="46.5" r="1.5" fill="#DDEEFE"/>
<circle cx="154.5" cy="46.5" r="1.5" fill="#DDEEFE"/>
<circle cx="163.5" cy="46.5" r="1.5" fill="#DDEEFE"/>
<circle cx="172.5" cy="46.5" r="1.5" fill="#DDEEFE"/>
<circle cx="181.5" cy="46.5" r="1.5" fill="#DDEEFE"/>
<circle cx="190.5" cy="46.5" r="1.5" fill="#DDEEFE"/>
<circle cx="199.5" cy="46.5" r="1.5" fill="#DDEEFE"/>
<circle cx="208.5" cy="46.5" r="1.5" fill="#DDEEFE"/>
<circle cx="217.5" cy="46.5" r="1.5" fill="#DDEEFE"/>
<circle cx="226.5" cy="46.5" r="1.5" fill="#DDEEFE"/>
<circle cx="235.5" cy="46.5" r="1.5" fill="#DDEEFE"/>
<circle cx="1.5" cy="55.5" r="1.5" fill="#DDEEFE"/>
<circle cx="10.5" cy="55.5" r="1.5" fill="#DDEEFE"/>
<circle cx="19.5" cy="55.5" r="1.5" fill="#DDEEFE"/>
<circle cx="28.5" cy="55.5" r="1.5" fill="#DDEEFE"/>
<circle cx="37.5" cy="55.5" r="1.5" fill="#DDEEFE"/>
<circle cx="46.5" cy="55.5" r="1.5" fill="#DDEEFE"/>
<circle cx="55.5" cy="55.5" r="1.5" fill="#DDEEFE"/>
<circle cx="64.5" cy="55.5" r="1.5" fill="#DDEEFE"/>
<circle cx="73.5" cy="55.5" r="1.5" fill="#DDEEFE"/>
<circle cx="82.5" cy="55.5" r="1.5" fill="#DDEEFE"/>
<circle cx="91.5" cy="55.5" r="1.5" fill="#DDEEFE"/>
<circle cx="100.5" cy="55.5" r="1.5" fill="#DDEEFE"/>
<circle cx="109.5" cy="55.5" r="1.5" fill="#DDEEFE"/>
<circle cx="118.5" cy="55.5" r="1.5" fill="#DDEEFE"/>
<circle cx="127.5" cy="55.5" r="1.5" fill="#DDEEFE"/>
<circle cx="136.5" cy="55.5" r="1.5" fill="#DDEEFE"/>
<circle cx="145.5" cy="55.5" r="1.5" fill="#DDEEFE"/>
<circle cx="154.5" cy="55.5" r="1.5" fill="#DDEEFE"/>
<circle cx="163.5" cy="55.5" r="1.5" fill="#DDEEFE"/>
<circle cx="172.5" cy="55.5" r="1.5" fill="#DDEEFE"/>
<circle cx="181.5" cy="55.5" r="1.5" fill="#DDEEFE"/>
<circle cx="190.5" cy="55.5" r="1.5" fill="#DDEEFE"/>
<circle cx="199.5" cy="55.5" r="1.5" fill="#DDEEFE"/>
<circle cx="208.5" cy="55.5" r="1.5" fill="#DDEEFE"/>
<circle cx="217.5" cy="55.5" r="1.5" fill="#DDEEFE"/>
<circle cx="226.5" cy="55.5" r="1.5" fill="#DDEEFE"/>
<circle cx="235.5" cy="55.5" r="1.5" fill="#DDEEFE"/>
<circle cx="1.5" cy="64.5" r="1.5" fill="#DDEEFE"/>
<circle cx="10.5" cy="64.5" r="1.5" fill="#DDEEFE"/>
<circle cx="19.5" cy="64.5" r="1.5" fill="#DDEEFE"/>
<circle cx="28.5" cy="64.5" r="1.5" fill="#DDEEFE"/>
<circle cx="37.5" cy="64.5" r="1.5" fill="#DDEEFE"/>
<circle cx="46.5" cy="64.5" r="1.5" fill="#DDEEFE"/>
<circle cx="55.5" cy="64.5" r="1.5" fill="#DDEEFE"/>
<circle cx="64.5" cy="64.5" r="1.5" fill="#DDEEFE"/>
<circle cx="73.5" cy="64.5" r="1.5" fill="#DDEEFE"/>
<circle cx="82.5" cy="64.5" r="1.5" fill="#DDEEFE"/>
<circle cx="91.5" cy="64.5" r="1.5" fill="#DDEEFE"/>
<circle cx="100.5" cy="64.5" r="1.5" fill="#DDEEFE"/>
<circle cx="109.5" cy="64.5" r="1.5" fill="#DDEEFE"/>
<circle cx="118.5" cy="64.5" r="1.5" fill="#DDEEFE"/>
<circle cx="127.5" cy="64.5" r="1.5" fill="#DDEEFE"/>
<circle cx="136.5" cy="64.5" r="1.5" fill="#DDEEFE"/>
<circle cx="145.5" cy="64.5" r="1.5" fill="#DDEEFE"/>
<circle cx="154.5" cy="64.5" r="1.5" fill="#DDEEFE"/>
<circle cx="163.5" cy="64.5" r="1.5" fill="#DDEEFE"/>
<circle cx="172.5" cy="64.5" r="1.5" fill="#DDEEFE"/>
<circle cx="181.5" cy="64.5" r="1.5" fill="#DDEEFE"/>
<circle cx="190.5" cy="64.5" r="1.5" fill="#DDEEFE"/>
<circle cx="199.5" cy="64.5" r="1.5" fill="#DDEEFE"/>
<circle cx="208.5" cy="64.5" r="1.5" fill="#DDEEFE"/>
<circle cx="217.5" cy="64.5" r="1.5" fill="#DDEEFE"/>
<circle cx="226.5" cy="64.5" r="1.5" fill="#DDEEFE"/>
<circle cx="235.5" cy="64.5" r="1.5" fill="#DDEEFE"/>
<circle cx="1.5" cy="73.5" r="1.5" fill="#DDEEFE"/>
<circle cx="10.5" cy="73.5" r="1.5" fill="#DDEEFE"/>
<circle cx="19.5" cy="73.5" r="1.5" fill="#DDEEFE"/>
<circle cx="28.5" cy="73.5" r="1.5" fill="#DDEEFE"/>
<circle cx="37.5" cy="73.5" r="1.5" fill="#DDEEFE"/>
<circle cx="46.5" cy="73.5" r="1.5" fill="#DDEEFE"/>
<circle cx="55.5" cy="73.5" r="1.5" fill="#DDEEFE"/>
<circle cx="64.5" cy="73.5" r="1.5" fill="#DDEEFE"/>
<circle cx="73.5" cy="73.5" r="1.5" fill="#DDEEFE"/>
<circle cx="82.5" cy="73.5" r="1.5" fill="#DDEEFE"/>
<circle cx="91.5" cy="73.5" r="1.5" fill="#DDEEFE"/>
<circle cx="100.5" cy="73.5" r="1.5" fill="#DDEEFE"/>
<circle cx="109.5" cy="73.5" r="1.5" fill="#DDEEFE"/>
<circle cx="118.5" cy="73.5" r="1.5" fill="#DDEEFE"/>
<circle cx="127.5" cy="73.5" r="1.5" fill="#DDEEFE"/>
<circle cx="136.5" cy="73.5" r="1.5" fill="#DDEEFE"/>
<circle cx="145.5" cy="73.5" r="1.5" fill="#DDEEFE"/>
<circle cx="154.5" cy="73.5" r="1.5" fill="#DDEEFE"/>
<circle cx="163.5" cy="73.5" r="1.5" fill="#DDEEFE"/>
<circle cx="172.5" cy="73.5" r="1.5" fill="#DDEEFE"/>
<circle cx="181.5" cy="73.5" r="1.5" fill="#DDEEFE"/>
<circle cx="190.5" cy="73.5" r="1.5" fill="#DDEEFE"/>
<circle cx="199.5" cy="73.5" r="1.5" fill="#DDEEFE"/>
<circle cx="208.5" cy="73.5" r="1.5" fill="#DDEEFE"/>
<circle cx="217.5" cy="73.5" r="1.5" fill="#DDEEFE"/>
<circle cx="226.5" cy="73.5" r="1.5" fill="#DDEEFE"/>
<circle cx="235.5" cy="73.5" r="1.5" fill="#DDEEFE"/>
<circle cx="1.5" cy="82.5" r="1.5" fill="#DDEEFE"/>
<circle cx="10.5" cy="82.5" r="1.5" fill="#DDEEFE"/>
<circle cx="19.5" cy="82.5" r="1.5" fill="#DDEEFE"/>
<circle cx="28.5" cy="82.5" r="1.5" fill="#DDEEFE"/>
<circle cx="37.5" cy="82.5" r="1.5" fill="#DDEEFE"/>
<circle cx="46.5" cy="82.5" r="1.5" fill="#DDEEFE"/>
<circle cx="55.5" cy="82.5" r="1.5" fill="#DDEEFE"/>
<circle cx="64.5" cy="82.5" r="1.5" fill="#DDEEFE"/>
<circle cx="73.5" cy="82.5" r="1.5" fill="#DDEEFE"/>
<circle cx="82.5" cy="82.5" r="1.5" fill="#DDEEFE"/>
<circle cx="91.5" cy="82.5" r="1.5" fill="#DDEEFE"/>
<circle cx="100.5" cy="82.5" r="1.5" fill="#DDEEFE"/>
<circle cx="109.5" cy="82.5" r="1.5" fill="#DDEEFE"/>
<circle cx="118.5" cy="82.5" r="1.5" fill="#DDEEFE"/>
<circle cx="127.5" cy="82.5" r="1.5" fill="#DDEEFE"/>
<circle cx="136.5" cy="82.5" r="1.5" fill="#DDEEFE"/>
<circle cx="145.5" cy="82.5" r="1.5" fill="#DDEEFE"/>
<circle cx="154.5" cy="82.5" r="1.5" fill="#DDEEFE"/>
<circle cx="163.5" cy="82.5" r="1.5" fill="#DDEEFE"/>
<circle cx="172.5" cy="82.5" r="1.5" fill="#DDEEFE"/>
<circle cx="181.5" cy="82.5" r="1.5" fill="#DDEEFE"/>
<circle cx="190.5" cy="82.5" r="1.5" fill="#DDEEFE"/>
<circle cx="199.5" cy="82.5" r="1.5" fill="#DDEEFE"/>
<circle cx="208.5" cy="82.5" r="1.5" fill="#DDEEFE"/>
<circle cx="217.5" cy="82.5" r="1.5" fill="#DDEEFE"/>
<circle cx="226.5" cy="82.5" r="1.5" fill="#DDEEFE"/>
<circle cx="235.5" cy="82.5" r="1.5" fill="#DDEEFE"/>
<circle cx="1.5" cy="91.5" r="1.5" fill="#DDEEFE"/>
<circle cx="10.5" cy="91.5" r="1.5" fill="#DDEEFE"/>
<circle cx="19.5" cy="91.5" r="1.5" fill="#DDEEFE"/>
<circle cx="28.5" cy="91.5" r="1.5" fill="#DDEEFE"/>
<circle cx="37.5" cy="91.5" r="1.5" fill="#DDEEFE"/>
<circle cx="46.5" cy="91.5" r="1.5" fill="#DDEEFE"/>
<circle cx="55.5" cy="91.5" r="1.5" fill="#DDEEFE"/>
<circle cx="64.5" cy="91.5" r="1.5" fill="#DDEEFE"/>
<circle cx="73.5" cy="91.5" r="1.5" fill="#DDEEFE"/>
<circle cx="82.5" cy="91.5" r="1.5" fill="#DDEEFE"/>
<circle cx="91.5" cy="91.5" r="1.5" fill="#DDEEFE"/>
<circle cx="100.5" cy="91.5" r="1.5" fill="#DDEEFE"/>
<circle cx="109.5" cy="91.5" r="1.5" fill="#DDEEFE"/>
<circle cx="118.5" cy="91.5" r="1.5" fill="#DDEEFE"/>
<circle cx="127.5" cy="91.5" r="1.5" fill="#DDEEFE"/>
<circle cx="136.5" cy="91.5" r="1.5" fill="#DDEEFE"/>
<circle cx="145.5" cy="91.5" r="1.5" fill="#DDEEFE"/>
<circle cx="154.5" cy="91.5" r="1.5" fill="#DDEEFE"/>
<circle cx="163.5" cy="91.5" r="1.5" fill="#DDEEFE"/>
<circle cx="172.5" cy="91.5" r="1.5" fill="#DDEEFE"/>
<circle cx="181.5" cy="91.5" r="1.5" fill="#DDEEFE"/>
<circle cx="190.5" cy="91.5" r="1.5" fill="#DDEEFE"/>
<circle cx="199.5" cy="91.5" r="1.5" fill="#DDEEFE"/>
<circle cx="208.5" cy="91.5" r="1.5" fill="#DDEEFE"/>
<circle cx="217.5" cy="91.5" r="1.5" fill="#DDEEFE"/>
<circle cx="226.5" cy="91.5" r="1.5" fill="#DDEEFE"/>
<circle cx="235.5" cy="91.5" r="1.5" fill="#DDEEFE"/>
<circle cx="1.5" cy="100.5" r="1.5" fill="#DDEEFE"/>
<circle cx="10.5" cy="100.5" r="1.5" fill="#DDEEFE"/>
<circle cx="19.5" cy="100.5" r="1.5" fill="#DDEEFE"/>
<circle cx="28.5" cy="100.5" r="1.5" fill="#DDEEFE"/>
<circle cx="37.5" cy="100.5" r="1.5" fill="#DDEEFE"/>
<circle cx="46.5" cy="100.5" r="1.5" fill="#DDEEFE"/>
<circle cx="55.5" cy="100.5" r="1.5" fill="#DDEEFE"/>
<circle cx="64.5" cy="100.5" r="1.5" fill="#DDEEFE"/>
<circle cx="73.5" cy="100.5" r="1.5" fill="#DDEEFE"/>
<circle cx="82.5" cy="100.5" r="1.5" fill="#DDEEFE"/>
<circle cx="91.5" cy="100.5" r="1.5" fill="#DDEEFE"/>
<circle cx="100.5" cy="100.5" r="1.5" fill="#DDEEFE"/>
<circle cx="109.5" cy="100.5" r="1.5" fill="#DDEEFE"/>
<circle cx="118.5" cy="100.5" r="1.5" fill="#DDEEFE"/>
<circle cx="127.5" cy="100.5" r="1.5" fill="#DDEEFE"/>
<circle cx="136.5" cy="100.5" r="1.5" fill="#DDEEFE"/>
<circle cx="145.5" cy="100.5" r="1.5" fill="#DDEEFE"/>
<circle cx="154.5" cy="100.5" r="1.5" fill="#DDEEFE"/>
<circle cx="163.5" cy="100.5" r="1.5" fill="#DDEEFE"/>
<circle cx="172.5" cy="100.5" r="1.5" fill="#DDEEFE"/>
<circle cx="181.5" cy="100.5" r="1.5" fill="#DDEEFE"/>
<circle cx="190.5" cy="100.5" r="1.5" fill="#DDEEFE"/>
<circle cx="199.5" cy="100.5" r="1.5" fill="#DDEEFE"/>
<circle cx="208.5" cy="100.5" r="1.5" fill="#DDEEFE"/>
<circle cx="217.5" cy="100.5" r="1.5" fill="#DDEEFE"/>
<circle cx="226.5" cy="100.5" r="1.5" fill="#DDEEFE"/>
<circle cx="235.5" cy="100.5" r="1.5" fill="#DDEEFE"/>
</g>
<defs>
<clipPath id="clip0_139_46639">
<rect width="243" height="108" fill="white"/>
</clipPath>
</defs>
</svg>
