<svg width="264" height="265" viewBox="0 0 264 265" fill="none" xmlns="http://www.w3.org/2000/svg">
<g clip-path="url(#clip0_113_11288)">
<circle cx="3" cy="3" r="3" fill="#DDEEFE"/>
<circle cx="21" cy="3" r="3" fill="#DDEEFE"/>
<circle cx="39" cy="3" r="3" fill="#DDEEFE"/>
<circle cx="57" cy="3" r="3" fill="#DDEEFE"/>
<circle cx="75" cy="3" r="3" fill="#DDEEFE"/>
<circle cx="93" cy="3" r="3" fill="#DDEEFE"/>
<circle cx="111" cy="3" r="3" fill="#DDEEFE"/>
<circle cx="129" cy="3" r="3" fill="#DDEEFE"/>
<circle cx="147" cy="3" r="3" fill="#DDEEFE"/>
<circle cx="165" cy="3" r="3" fill="#DDEEFE"/>
<circle cx="183" cy="3" r="3" fill="#DDEEFE"/>
<circle cx="201" cy="3" r="3" fill="#DDEEFE"/>
<circle cx="219" cy="3" r="3" fill="#DDEEFE"/>
<circle cx="237" cy="3" r="3" fill="#DDEEFE"/>
<circle cx="255" cy="3" r="3" fill="#DDEEFE"/>
<circle cx="3" cy="21" r="3" fill="#DDEEFE"/>
<circle cx="21" cy="21" r="3" fill="#DDEEFE"/>
<circle cx="39" cy="21" r="3" fill="#DDEEFE"/>
<circle cx="57" cy="21" r="3" fill="#DDEEFE"/>
<circle cx="75" cy="21" r="3" fill="#DDEEFE"/>
<circle cx="93" cy="21" r="3" fill="#DDEEFE"/>
<circle cx="111" cy="21" r="3" fill="#DDEEFE"/>
<circle cx="129" cy="21" r="3" fill="#DDEEFE"/>
<circle cx="147" cy="21" r="3" fill="#DDEEFE"/>
<circle cx="165" cy="21" r="3" fill="#DDEEFE"/>
<circle cx="183" cy="21" r="3" fill="#DDEEFE"/>
<circle cx="201" cy="21" r="3" fill="#DDEEFE"/>
<circle cx="219" cy="21" r="3" fill="#DDEEFE"/>
<circle cx="237" cy="21" r="3" fill="#DDEEFE"/>
<circle cx="255" cy="21" r="3" fill="#DDEEFE"/>
<circle cx="3" cy="39" r="3" fill="#DDEEFE"/>
<circle cx="21" cy="39" r="3" fill="#DDEEFE"/>
<circle cx="39" cy="39" r="3" fill="#DDEEFE"/>
<circle cx="57" cy="39" r="3" fill="#DDEEFE"/>
<circle cx="75" cy="39" r="3" fill="#DDEEFE"/>
<circle cx="93" cy="39" r="3" fill="#DDEEFE"/>
<circle cx="111" cy="39" r="3" fill="#DDEEFE"/>
<circle cx="129" cy="39" r="3" fill="#DDEEFE"/>
<circle cx="147" cy="39" r="3" fill="#DDEEFE"/>
<circle cx="165" cy="39" r="3" fill="#DDEEFE"/>
<circle cx="183" cy="39" r="3" fill="#DDEEFE"/>
<circle cx="201" cy="39" r="3" fill="#DDEEFE"/>
<circle cx="219" cy="39" r="3" fill="#DDEEFE"/>
<circle cx="237" cy="39" r="3" fill="#DDEEFE"/>
<circle cx="255" cy="39" r="3" fill="#DDEEFE"/>
<circle cx="3" cy="57" r="3" fill="#DDEEFE"/>
<circle cx="21" cy="57" r="3" fill="#DDEEFE"/>
<circle cx="39" cy="57" r="3" fill="#DDEEFE"/>
<circle cx="57" cy="57" r="3" fill="#DDEEFE"/>
<circle cx="75" cy="57" r="3" fill="#DDEEFE"/>
<circle cx="93" cy="57" r="3" fill="#DDEEFE"/>
<circle cx="111" cy="57" r="3" fill="#DDEEFE"/>
<circle cx="129" cy="57" r="3" fill="#DDEEFE"/>
<circle cx="147" cy="57" r="3" fill="#DDEEFE"/>
<circle cx="165" cy="57" r="3" fill="#DDEEFE"/>
<circle cx="183" cy="57" r="3" fill="#DDEEFE"/>
<circle cx="201" cy="57" r="3" fill="#DDEEFE"/>
<circle cx="219" cy="57" r="3" fill="#DDEEFE"/>
<circle cx="237" cy="57" r="3" fill="#DDEEFE"/>
<circle cx="255" cy="57" r="3" fill="#DDEEFE"/>
<circle cx="3" cy="75" r="3" fill="#DDEEFE"/>
<circle cx="21" cy="75" r="3" fill="#DDEEFE"/>
<circle cx="39" cy="75" r="3" fill="#DDEEFE"/>
<circle cx="57" cy="75" r="3" fill="#DDEEFE"/>
<circle cx="75" cy="75" r="3" fill="#DDEEFE"/>
<circle cx="93" cy="75" r="3" fill="#DDEEFE"/>
<circle cx="111" cy="75" r="3" fill="#DDEEFE"/>
<circle cx="129" cy="75" r="3" fill="#DDEEFE"/>
<circle cx="147" cy="75" r="3" fill="#DDEEFE"/>
<circle cx="165" cy="75" r="3" fill="#DDEEFE"/>
<circle cx="183" cy="75" r="3" fill="#DDEEFE"/>
<circle cx="201" cy="75" r="3" fill="#DDEEFE"/>
<circle cx="219" cy="75" r="3" fill="#DDEEFE"/>
<circle cx="237" cy="75" r="3" fill="#DDEEFE"/>
<circle cx="255" cy="75" r="3" fill="#DDEEFE"/>
<circle cx="3" cy="93" r="3" fill="#DDEEFE"/>
<circle cx="21" cy="93" r="3" fill="#DDEEFE"/>
<circle cx="39" cy="93" r="3" fill="#DDEEFE"/>
<circle cx="57" cy="93" r="3" fill="#DDEEFE"/>
<circle cx="75" cy="93" r="3" fill="#DDEEFE"/>
<circle cx="93" cy="93" r="3" fill="#DDEEFE"/>
<circle cx="111" cy="93" r="3" fill="#DDEEFE"/>
<circle cx="129" cy="93" r="3" fill="#DDEEFE"/>
<circle cx="147" cy="93" r="3" fill="#DDEEFE"/>
<circle cx="165" cy="93" r="3" fill="#DDEEFE"/>
<circle cx="183" cy="93" r="3" fill="#DDEEFE"/>
<circle cx="201" cy="93" r="3" fill="#DDEEFE"/>
<circle cx="219" cy="93" r="3" fill="#DDEEFE"/>
<circle cx="237" cy="93" r="3" fill="#DDEEFE"/>
<circle cx="255" cy="93" r="3" fill="#DDEEFE"/>
<circle cx="3" cy="111" r="3" fill="#DDEEFE"/>
<circle cx="21" cy="111" r="3" fill="#DDEEFE"/>
<circle cx="39" cy="111" r="3" fill="#DDEEFE"/>
<circle cx="57" cy="111" r="3" fill="#DDEEFE"/>
<circle cx="75" cy="111" r="3" fill="#DDEEFE"/>
<circle cx="93" cy="111" r="3" fill="#DDEEFE"/>
<circle cx="111" cy="111" r="3" fill="#DDEEFE"/>
<circle cx="129" cy="111" r="3" fill="#DDEEFE"/>
<circle cx="147" cy="111" r="3" fill="#DDEEFE"/>
<circle cx="165" cy="111" r="3" fill="#DDEEFE"/>
<circle cx="183" cy="111" r="3" fill="#DDEEFE"/>
<circle cx="201" cy="111" r="3" fill="#DDEEFE"/>
<circle cx="219" cy="111" r="3" fill="#DDEEFE"/>
<circle cx="237" cy="111" r="3" fill="#DDEEFE"/>
<circle cx="255" cy="111" r="3" fill="#DDEEFE"/>
<circle cx="3" cy="129" r="3" fill="#DDEEFE"/>
<circle cx="21" cy="129" r="3" fill="#DDEEFE"/>
<circle cx="39" cy="129" r="3" fill="#DDEEFE"/>
<circle cx="57" cy="129" r="3" fill="#DDEEFE"/>
<circle cx="75" cy="129" r="3" fill="#DDEEFE"/>
<circle cx="93" cy="129" r="3" fill="#DDEEFE"/>
<circle cx="111" cy="129" r="3" fill="#DDEEFE"/>
<circle cx="129" cy="129" r="3" fill="#DDEEFE"/>
<circle cx="147" cy="129" r="3" fill="#DDEEFE"/>
<circle cx="165" cy="129" r="3" fill="#DDEEFE"/>
<circle cx="183" cy="129" r="3" fill="#DDEEFE"/>
<circle cx="201" cy="129" r="3" fill="#DDEEFE"/>
<circle cx="219" cy="129" r="3" fill="#DDEEFE"/>
<circle cx="237" cy="129" r="3" fill="#DDEEFE"/>
<circle cx="255" cy="129" r="3" fill="#DDEEFE"/>
<circle cx="3" cy="147" r="3" fill="#DDEEFE"/>
<circle cx="21" cy="147" r="3" fill="#DDEEFE"/>
<circle cx="39" cy="147" r="3" fill="#DDEEFE"/>
<circle cx="57" cy="147" r="3" fill="#DDEEFE"/>
<circle cx="75" cy="147" r="3" fill="#DDEEFE"/>
<circle cx="93" cy="147" r="3" fill="#DDEEFE"/>
<circle cx="111" cy="147" r="3" fill="#DDEEFE"/>
<circle cx="129" cy="147" r="3" fill="#DDEEFE"/>
<circle cx="147" cy="147" r="3" fill="#DDEEFE"/>
<circle cx="165" cy="147" r="3" fill="#DDEEFE"/>
<circle cx="183" cy="147" r="3" fill="#DDEEFE"/>
<circle cx="201" cy="147" r="3" fill="#DDEEFE"/>
<circle cx="219" cy="147" r="3" fill="#DDEEFE"/>
<circle cx="237" cy="147" r="3" fill="#DDEEFE"/>
<circle cx="255" cy="147" r="3" fill="#DDEEFE"/>
<circle cx="3" cy="165" r="3" fill="#DDEEFE"/>
<circle cx="21" cy="165" r="3" fill="#DDEEFE"/>
<circle cx="39" cy="165" r="3" fill="#DDEEFE"/>
<circle cx="57" cy="165" r="3" fill="#DDEEFE"/>
<circle cx="75" cy="165" r="3" fill="#DDEEFE"/>
<circle cx="93" cy="165" r="3" fill="#DDEEFE"/>
<circle cx="111" cy="165" r="3" fill="#DDEEFE"/>
<circle cx="129" cy="165" r="3" fill="#DDEEFE"/>
<circle cx="147" cy="165" r="3" fill="#DDEEFE"/>
<circle cx="165" cy="165" r="3" fill="#DDEEFE"/>
<circle cx="183" cy="165" r="3" fill="#DDEEFE"/>
<circle cx="201" cy="165" r="3" fill="#DDEEFE"/>
<circle cx="219" cy="165" r="3" fill="#DDEEFE"/>
<circle cx="237" cy="165" r="3" fill="#DDEEFE"/>
<circle cx="255" cy="165" r="3" fill="#DDEEFE"/>
<circle cx="3" cy="183" r="3" fill="#DDEEFE"/>
<circle cx="21" cy="183" r="3" fill="#DDEEFE"/>
<circle cx="39" cy="183" r="3" fill="#DDEEFE"/>
<circle cx="57" cy="183" r="3" fill="#DDEEFE"/>
<circle cx="75" cy="183" r="3" fill="#DDEEFE"/>
<circle cx="93" cy="183" r="3" fill="#DDEEFE"/>
<circle cx="111" cy="183" r="3" fill="#DDEEFE"/>
<circle cx="129" cy="183" r="3" fill="#DDEEFE"/>
<circle cx="147" cy="183" r="3" fill="#DDEEFE"/>
<circle cx="165" cy="183" r="3" fill="#DDEEFE"/>
<circle cx="183" cy="183" r="3" fill="#DDEEFE"/>
<circle cx="201" cy="183" r="3" fill="#DDEEFE"/>
<circle cx="219" cy="183" r="3" fill="#DDEEFE"/>
<circle cx="237" cy="183" r="3" fill="#DDEEFE"/>
<circle cx="255" cy="183" r="3" fill="#DDEEFE"/>
<circle cx="3" cy="201" r="3" fill="#DDEEFE"/>
<circle cx="21" cy="201" r="3" fill="#DDEEFE"/>
<circle cx="39" cy="201" r="3" fill="#DDEEFE"/>
<circle cx="57" cy="201" r="3" fill="#DDEEFE"/>
<circle cx="75" cy="201" r="3" fill="#DDEEFE"/>
<circle cx="93" cy="201" r="3" fill="#DDEEFE"/>
<circle cx="111" cy="201" r="3" fill="#DDEEFE"/>
<circle cx="129" cy="201" r="3" fill="#DDEEFE"/>
<circle cx="147" cy="201" r="3" fill="#DDEEFE"/>
<circle cx="165" cy="201" r="3" fill="#DDEEFE"/>
<circle cx="183" cy="201" r="3" fill="#DDEEFE"/>
<circle cx="201" cy="201" r="3" fill="#DDEEFE"/>
<circle cx="219" cy="201" r="3" fill="#DDEEFE"/>
<circle cx="237" cy="201" r="3" fill="#DDEEFE"/>
<circle cx="255" cy="201" r="3" fill="#DDEEFE"/>
<circle cx="3" cy="219" r="3" fill="#DDEEFE"/>
<circle cx="21" cy="219" r="3" fill="#DDEEFE"/>
<circle cx="39" cy="219" r="3" fill="#DDEEFE"/>
<circle cx="57" cy="219" r="3" fill="#DDEEFE"/>
<circle cx="75" cy="219" r="3" fill="#DDEEFE"/>
<circle cx="93" cy="219" r="3" fill="#DDEEFE"/>
<circle cx="111" cy="219" r="3" fill="#DDEEFE"/>
<circle cx="129" cy="219" r="3" fill="#DDEEFE"/>
<circle cx="147" cy="219" r="3" fill="#DDEEFE"/>
<circle cx="165" cy="219" r="3" fill="#DDEEFE"/>
<circle cx="183" cy="219" r="3" fill="#DDEEFE"/>
<circle cx="201" cy="219" r="3" fill="#DDEEFE"/>
<circle cx="219" cy="219" r="3" fill="#DDEEFE"/>
<circle cx="237" cy="219" r="3" fill="#DDEEFE"/>
<circle cx="255" cy="219" r="3" fill="#DDEEFE"/>
<circle cx="3" cy="237" r="3" fill="#DDEEFE"/>
<circle cx="21" cy="237" r="3" fill="#DDEEFE"/>
<circle cx="39" cy="237" r="3" fill="#DDEEFE"/>
<circle cx="57" cy="237" r="3" fill="#DDEEFE"/>
<circle cx="75" cy="237" r="3" fill="#DDEEFE"/>
<circle cx="93" cy="237" r="3" fill="#DDEEFE"/>
<circle cx="111" cy="237" r="3" fill="#DDEEFE"/>
<circle cx="129" cy="237" r="3" fill="#DDEEFE"/>
<circle cx="147" cy="237" r="3" fill="#DDEEFE"/>
<circle cx="165" cy="237" r="3" fill="#DDEEFE"/>
<circle cx="183" cy="237" r="3" fill="#DDEEFE"/>
<circle cx="201" cy="237" r="3" fill="#DDEEFE"/>
<circle cx="219" cy="237" r="3" fill="#DDEEFE"/>
<circle cx="237" cy="237" r="3" fill="#DDEEFE"/>
<circle cx="255" cy="237" r="3" fill="#DDEEFE"/>
<circle cx="3" cy="255" r="3" fill="#DDEEFE"/>
<circle cx="21" cy="255" r="3" fill="#DDEEFE"/>
<circle cx="39" cy="255" r="3" fill="#DDEEFE"/>
<circle cx="57" cy="255" r="3" fill="#DDEEFE"/>
<circle cx="75" cy="255" r="3" fill="#DDEEFE"/>
<circle cx="93" cy="255" r="3" fill="#DDEEFE"/>
<circle cx="111" cy="255" r="3" fill="#DDEEFE"/>
<circle cx="129" cy="255" r="3" fill="#DDEEFE"/>
<circle cx="147" cy="255" r="3" fill="#DDEEFE"/>
<circle cx="165" cy="255" r="3" fill="#DDEEFE"/>
<circle cx="183" cy="255" r="3" fill="#DDEEFE"/>
<circle cx="201" cy="255" r="3" fill="#DDEEFE"/>
<circle cx="219" cy="255" r="3" fill="#DDEEFE"/>
<circle cx="237" cy="255" r="3" fill="#DDEEFE"/>
<circle cx="255" cy="255" r="3" fill="#DDEEFE"/>
</g>
<defs>
<clipPath id="clip0_113_11288">
<rect width="264" height="265" fill="white"/>
</clipPath>
</defs>
</svg>
