<svg width="30" height="30" viewBox="0 0 30 30" fill="none" xmlns="http://www.w3.org/2000/svg">
<circle cx="15" cy="15" r="15" fill="white"/>
<path fill-rule="evenodd" clip-rule="evenodd" d="M17.1584 14.6387C16.6371 14.0407 15.7625 13.9411 14.9692 13.9411C14.1217 13.9411 13.1771 14.0285 12.6202 14.6674L11.9725 15.4104C11.2312 16.2608 11.188 17.4982 11.188 18.6263C11.188 20.543 9.80607 22.0969 8.10142 22.0969C6.39678 22.0969 5.01489 20.543 5.01489 18.6263C5.01489 16.7095 6.39678 15.1557 8.10142 15.1557C8.94903 15.1557 9.89362 15.0684 10.4506 14.4295L11.0981 13.6866C11.8394 12.8362 11.8827 11.5987 11.8827 10.4706C11.8827 8.55383 13.2646 7 14.9692 7C16.6739 7 18.0557 8.55383 18.0557 10.4706C18.0557 10.4814 18.0557 10.4922 18.0556 10.503C18.0461 11.6697 18.0706 12.9582 18.8373 13.8376L19.3201 14.3915C19.9309 15.092 20.9838 15.1557 21.9132 15.1557C23.6179 15.1557 24.9997 16.7095 24.9997 18.6263C24.9997 20.543 23.6179 22.0968 21.9132 22.0968C20.2086 22.0968 18.8267 20.543 18.8267 18.6263C18.8267 17.592 18.7563 16.4715 18.0766 15.6919L17.1584 14.6387Z" fill="#89150E"/>
<ellipse cx="21.9134" cy="18.6263" rx="3.08653" ry="3.47057" fill="url(#paint0_radial_203_48021)"/>
<ellipse rx="3.40515" ry="3.15855" transform="matrix(0.383073 0.923718 -0.885643 0.464367 8.1018 18.6265)" fill="url(#paint1_radial_203_48021)"/>
<ellipse cx="14.9693" cy="10.4706" rx="3.08653" ry="3.47057" fill="url(#paint2_radial_203_48021)"/>
<defs>
<radialGradient id="paint0_radial_203_48021" cx="0" cy="0" r="1" gradientUnits="userSpaceOnUse" gradientTransform="translate(21.9134 18.0623) rotate(127.459) scale(3.5524 2.40881)">
<stop stop-color="#B51A11"/>
<stop offset="0.377995" stop-color="#9E1B13"/>
<stop offset="1" stop-color="#89150E"/>
</radialGradient>
<radialGradient id="paint1_radial_203_48021" cx="0" cy="0" r="1" gradientUnits="userSpaceOnUse" gradientTransform="translate(3.40515 2.64529) rotate(132.886) scale(3.50251 2.453)">
<stop stop-color="#B51A11"/>
<stop offset="0.377995" stop-color="#9E1B13"/>
<stop offset="1" stop-color="#89150E"/>
</radialGradient>
<radialGradient id="paint2_radial_203_48021" cx="0" cy="0" r="1" gradientUnits="userSpaceOnUse" gradientTransform="translate(14.9693 9.9066) rotate(127.459) scale(3.5524 2.40881)">
<stop stop-color="#B51A11"/>
<stop offset="0.377995" stop-color="#9E1B13"/>
<stop offset="1" stop-color="#89150E"/>
</radialGradient>
</defs>
</svg>
