<svg width="46" height="46" viewBox="0 0 46 46" fill="none" xmlns="http://www.w3.org/2000/svg">
<circle cx="23" cy="23" r="23" fill="#244C77"/>
<path fill-rule="evenodd" clip-rule="evenodd" d="M27.0825 22.1447C26.2626 21.2469 24.9312 21.0962 23.7153 21.0962C22.4164 21.0962 20.9796 21.2289 20.1037 22.1881L19.1173 23.2682C18.0161 24.4741 17.9534 26.2778 17.9534 27.9109C17.9534 30.6989 15.8477 32.959 13.2501 32.959C10.6526 32.959 8.54688 30.6989 8.54688 27.9109C8.54688 25.1229 10.6526 22.8628 13.2501 22.8628C14.5493 22.8628 15.9866 22.7301 16.8627 21.7707L17.848 20.6917C18.9495 19.4856 19.012 17.6815 19.012 16.0481C19.012 13.2601 21.1178 11 23.7153 11C26.3129 11 28.4186 13.2601 28.4186 16.0481C28.4186 17.765 28.4514 19.6774 29.6093 20.9451L30.3108 21.7132C31.2715 22.765 32.8722 22.8628 34.2967 22.8628C36.8942 22.8628 38.9999 25.1229 38.9999 27.9109C38.9999 30.6989 36.8942 32.959 34.2967 32.959C31.6991 32.959 29.5934 30.6989 29.5934 27.9109C29.5934 26.4134 29.4901 24.7807 28.4801 23.6749L27.0825 22.1447Z" fill="#89150E"/>
<ellipse cx="34.2967" cy="27.9109" rx="4.70327" ry="5.04809" fill="url(#paint0_radial_202_47983)"/>
<ellipse rx="4.98824" ry="4.76668" transform="matrix(0.398474 0.91718 -0.89425 0.447568 13.2503 27.9112)" fill="url(#paint1_radial_202_47983)"/>
<ellipse cx="23.715" cy="16.0481" rx="4.70327" ry="5.04809" fill="url(#paint2_radial_202_47983)"/>
<defs>
<radialGradient id="paint0_radial_202_47983" cx="0" cy="0" r="1" gradientUnits="userSpaceOnUse" gradientTransform="translate(34.2967 27.0906) rotate(128.754) scale(5.25947 3.60609)">
<stop stop-color="#B51A11"/>
<stop offset="0.377995" stop-color="#9E1B13"/>
<stop offset="1" stop-color="#89150E"/>
</radialGradient>
<radialGradient id="paint1_radial_202_47983" cx="0" cy="0" r="1" gradientUnits="userSpaceOnUse" gradientTransform="translate(4.98824 3.9921) rotate(132.037) scale(5.2146 3.64246)">
<stop stop-color="#B51A11"/>
<stop offset="0.377995" stop-color="#9E1B13"/>
<stop offset="1" stop-color="#89150E"/>
</radialGradient>
<radialGradient id="paint2_radial_202_47983" cx="0" cy="0" r="1" gradientUnits="userSpaceOnUse" gradientTransform="translate(23.715 15.2278) rotate(128.754) scale(5.25947 3.60609)">
<stop stop-color="#B51A11"/>
<stop offset="0.377995" stop-color="#9E1B13"/>
<stop offset="1" stop-color="#89150E"/>
</radialGradient>
</defs>
</svg>
