<svg width="48" height="65" viewBox="0 0 48 65" fill="none" xmlns="http://www.w3.org/2000/svg">
<path d="M24 64.6885C24 64.6885 48 41.6998 48 24.2582C48 17.8245 45.4714 11.6543 40.9706 7.10506C36.4697 2.55576 30.3652 0 24 0C17.6348 0 11.5303 2.55576 7.02944 7.10506C2.52856 11.6543 9.48488e-08 17.8245 0 24.2582C0 41.6998 24 64.6885 24 64.6885ZM24 36.3873C20.8174 36.3873 17.7652 35.1094 15.5147 32.8347C13.2643 30.5601 12 27.475 12 24.2582C12 21.0413 13.2643 17.9563 15.5147 15.6816C17.7652 13.407 20.8174 12.1291 24 12.1291C27.1826 12.1291 30.2348 13.407 32.4853 15.6816C34.7357 17.9563 36 21.0413 36 24.2582C36 27.475 34.7357 30.5601 32.4853 32.8347C30.2348 35.1094 27.1826 36.3873 24 36.3873Z" fill="#244C77"/>
</svg>
