<svg width="27" height="27" viewBox="0 0 27 27" fill="none" xmlns="http://www.w3.org/2000/svg">
<path fill-rule="evenodd" clip-rule="evenodd" d="M13.3333 0C9.712 0 9.25867 0.0159999 7.836 0.0799999C6.41733 0.145333 5.448 0.370667 4.6 0.7C3.70998 1.03446 2.90367 1.55911 2.23733 2.23733C1.55914 2.9037 1.0345 3.71 0.7 4.6C0.370667 5.448 0.145333 6.41733 0.0799999 7.836C0.0146666 9.25867 0 9.712 0 13.3333C0 16.9547 0.0146666 17.408 0.0799999 18.8307C0.145333 20.2493 0.370667 21.2187 0.7 22.0667C1.03454 22.9566 1.55918 23.7629 2.23733 24.4293C2.90373 25.1075 3.71002 25.6321 4.6 25.9667C5.448 26.296 6.41733 26.5213 7.836 26.5867C9.25867 26.6507 9.712 26.6667 13.3333 26.6667C16.9547 26.6667 17.408 26.6507 18.8307 26.5867C20.2493 26.5213 21.2187 26.296 22.0667 25.9667C22.9567 25.6322 23.763 25.1075 24.4293 24.4293C25.1075 23.763 25.6322 22.9567 25.9667 22.0667C26.296 21.2187 26.5213 20.2493 26.5867 18.8307C26.6507 17.408 26.6667 16.9547 26.6667 13.3333C26.6667 9.712 26.6507 9.25867 26.5867 7.836C26.5213 6.41733 26.296 5.448 25.9667 4.6C25.6322 3.71 25.1075 2.9037 24.4293 2.23733C23.763 1.55911 22.9567 1.03446 22.0667 0.7C21.2187 0.370667 20.2493 0.145333 18.8307 0.0799999C17.408 0.0159999 16.9547 0 13.3333 0ZM13.3333 2.40267C16.8933 2.40267 17.3147 2.416 18.72 2.48C20.0213 2.54 20.7267 2.756 21.1973 2.93867C21.8187 3.18133 22.264 3.47067 22.7307 3.936C23.1973 4.40267 23.4853 4.848 23.728 5.46933C23.9093 5.94 24.128 6.64533 24.1867 7.94533C24.2507 9.352 24.264 9.772 24.264 13.3333C24.264 16.8933 24.2507 17.3147 24.1867 18.72C24.1267 20.0213 23.9093 20.7267 23.728 21.1973C23.5142 21.7765 23.1735 22.3005 22.7307 22.7307C22.264 23.1973 21.8187 23.4853 21.1973 23.728C20.7267 23.9093 20.0213 24.128 18.7213 24.1867C17.316 24.2507 16.8947 24.264 13.3333 24.264C9.77333 24.264 9.35067 24.2507 7.94667 24.1867C6.64533 24.1267 5.94 23.9093 5.46933 23.728C4.89011 23.5143 4.36616 23.1735 3.936 22.7307C3.49315 22.3005 3.15235 21.7766 2.93867 21.1973C2.756 20.7267 2.53867 20.0213 2.48 18.7213C2.416 17.3147 2.40267 16.8947 2.40267 13.3333C2.40267 9.77333 2.416 9.352 2.48 7.94667C2.54 6.64533 2.756 5.94 2.93867 5.46933C3.18133 4.848 3.47067 4.40267 3.936 3.936C4.40267 3.46933 4.848 3.18133 5.46933 2.93867C5.94 2.756 6.64533 2.53867 7.94533 2.48C9.352 2.416 9.772 2.40267 13.3333 2.40267ZM13.3333 17.7773C12.1547 17.7773 11.0244 17.3091 10.191 16.4757C9.35754 15.6423 8.88933 14.512 8.88933 13.3333C8.88933 12.1547 9.35754 11.0244 10.191 10.191C11.0244 9.35754 12.1547 8.88933 13.3333 8.88933C14.512 8.88933 15.6423 9.35754 16.4757 10.191C17.3091 11.0244 17.7773 12.1547 17.7773 13.3333C17.7773 14.512 17.3091 15.6423 16.4757 16.4757C15.6423 17.3091 14.512 17.7773 13.3333 17.7773ZM13.3333 6.48667C12.4342 6.48667 11.5439 6.66376 10.7132 7.00784C9.88255 7.35192 9.12778 7.85624 8.49201 8.49201C7.85624 9.12778 7.35192 9.88255 7.00784 10.7132C6.66376 11.5439 6.48667 12.4342 6.48667 13.3333C6.48667 14.2325 6.66376 15.1228 7.00784 15.9534C7.35192 16.7841 7.85624 17.5389 8.49201 18.1747C9.12778 18.8104 9.88255 19.3148 10.7132 19.6588C11.5439 20.0029 12.4342 20.18 13.3333 20.18C15.1492 20.18 16.8907 19.4587 18.1747 18.1747C19.4587 16.8907 20.18 15.1492 20.18 13.3333C20.18 11.5175 19.4587 9.77601 18.1747 8.49201C16.8907 7.20801 15.1492 6.48667 13.3333 6.48667ZM22.0507 6.216C22.0507 6.42612 22.0093 6.63417 21.9289 6.82829C21.8485 7.02242 21.7306 7.1988 21.582 7.34737C21.4335 7.49595 21.2571 7.6138 21.063 7.69421C20.8688 7.77462 20.6608 7.816 20.4507 7.816C20.2406 7.816 20.0325 7.77462 19.8384 7.69421C19.6443 7.6138 19.4679 7.49595 19.3193 7.34737C19.1707 7.1988 19.0529 7.02242 18.9725 6.82829C18.8921 6.63417 18.8507 6.42612 18.8507 6.216C18.8507 5.79165 19.0192 5.38469 19.3193 5.08463C19.6194 4.78457 20.0263 4.616 20.4507 4.616C20.875 4.616 21.282 4.78457 21.582 5.08463C21.8821 5.38469 22.0507 5.79165 22.0507 6.216Z" fill="white"/>
</svg>
