<svg width="27" height="19" viewBox="0 0 27 19" fill="none" xmlns="http://www.w3.org/2000/svg">
<path fill-rule="evenodd" clip-rule="evenodd" d="M10.58 12.8373V5.344L17.784 9.104L10.58 12.8373ZM26.4 4.04667C26.4 4.04667 26.14 2.208 25.34 1.39867C24.3267 0.337333 23.1893 0.332 22.668 0.269334C18.9373 1.78814e-07 13.3387 0 13.3387 0H13.328C13.328 0 7.73067 1.78814e-07 3.99867 0.269334C3.47733 0.332 2.34133 0.336 1.32667 1.39867C0.526667 2.208 0.266667 4.04667 0.266667 4.04667C0.266667 4.04667 0 6.204 0 8.36267V10.3853C0 12.5427 0.266667 14.7013 0.266667 14.7013C0.266667 14.7013 0.526667 16.5387 1.32667 17.348C2.34 18.4107 3.67333 18.376 4.26667 18.488C6.4 18.692 13.3333 18.7547 13.3333 18.7547C13.3333 18.7547 18.9373 18.7467 22.668 18.4773C23.1893 18.4147 24.3267 18.4107 25.34 17.348C26.14 16.5387 26.4 14.7013 26.4 14.7013C26.4 14.7013 26.6667 12.5427 26.6667 10.3853V8.36267C26.6667 6.204 26.4 4.04667 26.4 4.04667Z" fill="white"/>
</svg>
