<svg width="32" height="32" viewBox="0 0 32 32" fill="none" xmlns="http://www.w3.org/2000/svg">
<path fill-rule="evenodd" clip-rule="evenodd" d="M16 2.66663C12.3786 2.66663 11.9253 2.68263 10.5026 2.74663C9.08396 2.81196 8.11463 3.03729 7.26663 3.36663C6.37661 3.70109 5.5703 4.22573 4.90396 4.90396C4.22577 5.57032 3.70112 6.37663 3.36663 7.26663C3.03729 8.11463 2.81196 9.08396 2.74663 10.5026C2.68129 11.9253 2.66663 12.3786 2.66663 16C2.66663 19.6213 2.68129 20.0746 2.74663 21.4973C2.81196 22.916 3.03729 23.8853 3.36663 24.7333C3.70116 25.6233 4.2258 26.4296 4.90396 27.096C5.57035 27.7741 6.37665 28.2988 7.26663 28.6333C8.11463 28.9626 9.08396 29.188 10.5026 29.2533C11.9253 29.3173 12.3786 29.3333 16 29.3333C19.6213 29.3333 20.0746 29.3173 21.4973 29.2533C22.916 29.188 23.8853 28.9626 24.7333 28.6333C25.6233 28.2988 26.4296 27.7742 27.096 27.096C27.7742 26.4296 28.2988 25.6233 28.6333 24.7333C28.9626 23.8853 29.188 22.916 29.2533 21.4973C29.3173 20.0746 29.3333 19.6213 29.3333 16C29.3333 12.3786 29.3173 11.9253 29.2533 10.5026C29.188 9.08396 28.9626 8.11463 28.6333 7.26663C28.2988 6.37663 27.7742 5.57032 27.096 4.90396C26.4296 4.22573 25.6233 3.70109 24.7333 3.36663C23.8853 3.03729 22.916 2.81196 21.4973 2.74663C20.0746 2.68263 19.6213 2.66663 16 2.66663ZM16 5.06929C19.56 5.06929 19.9813 5.08263 21.3866 5.14663C22.688 5.20663 23.3933 5.42263 23.864 5.60529C24.4853 5.84796 24.9306 6.13729 25.3973 6.60263C25.864 7.06929 26.152 7.51463 26.3946 8.13596C26.576 8.60663 26.7946 9.31196 26.8533 10.612C26.9173 12.0186 26.9306 12.4386 26.9306 16C26.9306 19.56 26.9173 19.9813 26.8533 21.3866C26.7933 22.688 26.576 23.3933 26.3946 23.864C26.1809 24.4431 25.8401 24.9671 25.3973 25.3973C24.9306 25.864 24.4853 26.152 23.864 26.3946C23.3933 26.576 22.688 26.7946 21.388 26.8533C19.9826 26.9173 19.5613 26.9306 16 26.9306C12.44 26.9306 12.0173 26.9173 10.6133 26.8533C9.31196 26.7933 8.60663 26.576 8.13596 26.3946C7.55674 26.1809 7.03278 25.8402 6.60263 25.3973C6.15977 24.9671 5.81897 24.4432 5.60529 23.864C5.42263 23.3933 5.20529 22.688 5.14663 21.388C5.08263 19.9813 5.06929 19.5613 5.06929 16C5.06929 12.44 5.08263 12.0186 5.14663 10.6133C5.20663 9.31196 5.42263 8.60663 5.60529 8.13596C5.84796 7.51463 6.13729 7.06929 6.60263 6.60263C7.06929 6.13596 7.51463 5.84796 8.13596 5.60529C8.60663 5.42263 9.31196 5.20529 10.612 5.14663C12.0186 5.08263 12.4386 5.06929 16 5.06929ZM16 20.444C14.8213 20.444 13.691 19.9758 12.8576 19.1423C12.0242 18.3089 11.556 17.1786 11.556 16C11.556 14.8213 12.0242 13.691 12.8576 12.8576C13.691 12.0242 14.8213 11.556 16 11.556C17.1786 11.556 18.3089 12.0242 19.1423 12.8576C19.9758 13.691 20.444 14.8213 20.444 16C20.444 17.1786 19.9758 18.3089 19.1423 19.1423C18.3089 19.9758 17.1786 20.444 16 20.444ZM16 9.15329C15.1008 9.15329 14.2105 9.33039 13.3799 9.67446C12.5492 10.0185 11.7944 10.5229 11.1586 11.1586C10.5229 11.7944 10.0185 12.5492 9.67446 13.3799C9.33039 14.2105 9.15329 15.1008 9.15329 16C9.15329 16.8991 9.33039 17.7894 9.67446 18.6201C10.0185 19.4507 10.5229 20.2055 11.1586 20.8413C11.7944 21.4771 12.5492 21.9814 13.3799 22.3255C14.2105 22.6695 15.1008 22.8466 16 22.8466C17.8158 22.8466 19.5573 22.1253 20.8413 20.8413C22.1253 19.5573 22.8466 17.8158 22.8466 16C22.8466 14.1841 22.1253 12.4426 20.8413 11.1586C19.5573 9.87464 17.8158 9.15329 16 9.15329ZM24.7173 8.88263C24.7173 9.09274 24.6759 9.3008 24.5955 9.49492C24.5151 9.68904 24.3972 9.86542 24.2487 10.014C24.1001 10.1626 23.9237 10.2804 23.7296 10.3608C23.5355 10.4412 23.3274 10.4826 23.1173 10.4826C22.9072 10.4826 22.6991 10.4412 22.505 10.3608C22.3109 10.2804 22.1345 10.1626 21.9859 10.014C21.8373 9.86542 21.7195 9.68904 21.6391 9.49492C21.5587 9.3008 21.5173 9.09274 21.5173 8.88263C21.5173 8.45828 21.6859 8.05131 21.9859 7.75126C22.286 7.4512 22.6929 7.28263 23.1173 7.28263C23.5416 7.28263 23.9486 7.4512 24.2487 7.75126C24.5487 8.05131 24.7173 8.45828 24.7173 8.88263Z" fill="#333333"/>
</svg>
