<svg width="32" height="32" viewBox="0 0 32 32" fill="none" xmlns="http://www.w3.org/2000/svg">
<path fill-rule="evenodd" clip-rule="evenodd" d="M13.2466 19.504V12.0106L20.4506 15.7706L13.2466 19.504ZM29.0666 10.7133C29.0666 10.7133 28.8066 8.87463 28.0066 8.06529C26.9933 7.00396 25.856 6.99863 25.3346 6.93596C21.604 6.66663 16.0053 6.66663 16.0053 6.66663H15.9946C15.9946 6.66663 10.3973 6.66663 6.66529 6.93596C6.14396 6.99863 5.00796 7.00263 3.99329 8.06529C3.19329 8.87463 2.93329 10.7133 2.93329 10.7133C2.93329 10.7133 2.66663 12.8706 2.66663 15.0293V17.052C2.66663 19.2093 2.93329 21.368 2.93329 21.368C2.93329 21.368 3.19329 23.2053 3.99329 24.0146C5.00663 25.0773 6.33996 25.0426 6.93329 25.1546C9.06663 25.3586 16 25.4213 16 25.4213C16 25.4213 21.604 25.4133 25.3346 25.144C25.856 25.0813 26.9933 25.0773 28.0066 24.0146C28.8066 23.2053 29.0666 21.368 29.0666 21.368C29.0666 21.368 29.3333 19.2093 29.3333 17.052V15.0293C29.3333 12.8706 29.0666 10.7133 29.0666 10.7133Z" fill="#333333"/>
</svg>
