<?xml version="1.0" encoding="UTF-8"?>
<svg width="24px" height="18px" viewBox="0 0 24 18" version="1.1" xmlns="http://www.w3.org/2000/svg" xmlns:xlink="http://www.w3.org/1999/xlink">
    <!-- Generator: Sketch 52.6 (67491) - http://www.bohemiancoding.com/sketch -->
    <title>iconmonstr-picture-1</title>
    <desc>Created with Sketch.</desc>
    <g id="NAUKA" stroke="none" stroke-width="1" fill="none" fill-rule="evenodd">
        <g id="NAUKA-STEP-5" transform="translate(-695.000000, -794.000000)" fill="#1154C7" fill-rule="nonzero">
            <g id="Specjalizacja" transform="translate(300.000000, 151.000000)">
                <g id="iconmonstr-picture-1" transform="translate(395.000000, 643.000000)">
                    <path d="M5,5.5 C5,4.672 5.672,4 6.5,4 C7.328,4 8,4.672 8,5.5 C8,6.329 7.328,7 6.5,7 C5.672,7 5,6.329 5,5.5 Z M14,6 L11.481,10 L9,8.04 L5,14 L19,14 L14,6 Z M22,2 L22,16 L2,16 L2,2 L22,2 Z M24,0 L0,0 L0,18 L24,18 L24,0 Z" id="Shape"></path>
                </g>
            </g>
        </g>
    </g>
</svg>