<?xml version="1.0" encoding="UTF-8"?>
<svg width="217px" height="198px" viewBox="0 0 217 198" version="1.1" xmlns="http://www.w3.org/2000/svg" xmlns:xlink="http://www.w3.org/1999/xlink">
    <!-- Generator: Sketch 52.6 (67491) - http://www.bohemiancoding.com/sketch -->
    <title>iconmonstr-smiley-13</title>
    <desc>Created with Sketch.</desc>
    <g id="NAUKA" stroke="none" stroke-width="1" fill="none" fill-rule="evenodd" opacity="0.100000001">
        <g id="NAUKA-STEP-6" transform="translate(-1403.000000, -151.000000)" fill="#25D776" fill-rule="nonzero">
            <g id="Specjalizacja" transform="translate(300.000000, 151.000000)">
                <g id="iconmonstr-smiley-13">
                    <g transform="translate(1103.000000, -64.000000)" id="Shape">
                        <path d="M131,21.8333333 C191.1945,21.8333333 240.166667,70.8055 240.166667,131 C240.166667,191.1945 191.1945,240.166667 131,240.166667 C70.8055,240.166667 21.8333333,191.1945 21.8333333,131 C21.8333333,70.8055 70.8055,21.8333333 131,21.8333333 Z M131,0 C58.65525,0 0,58.65525 0,131 C0,203.34475 58.65525,262 131,262 C203.34475,262 262,203.34475 262,131 C262,58.65525 203.34475,0 131,0 Z M191.129,152.18925 C174.612083,165.234667 156.4795,173.269333 131.010917,173.269333 C105.5205,173.269333 87.3879167,165.234667 70.871,152.18925 L65.5,157.571167 C77.8030833,176.347833 100.433333,196.5 131.010917,196.5 C161.577583,196.5 184.196917,176.347833 196.5,157.571167 L191.129,152.18925 Z M196.5,109.1885 L188.257917,114.712333 C188.257917,114.712333 182.766833,104.363333 169.197417,104.363333 C156.021,104.363333 150.147833,114.712333 150.147833,114.712333 L141.916667,109.1885 C144.98425,101.022833 155.07125,87.3333333 169.197417,87.3333333 C183.3345,87.3333333 193.410583,101.022833 196.5,109.1885 Z M120.083333,109.1885 L111.84125,114.712333 C111.84125,114.712333 106.350167,104.363333 92.78075,104.363333 C79.6043333,104.363333 73.7311667,114.712333 73.7311667,114.712333 L65.5,109.1885 C68.5675833,101.022833 78.6545833,87.3333333 92.78075,87.3333333 C106.917833,87.3333333 116.993917,101.022833 120.083333,109.1885 Z"></path>
                    </g>
                </g>
            </g>
        </g>
    </g>
</svg>