<svg width="20" height="8" viewBox="0 0 20 8" fill="none" xmlns="http://www.w3.org/2000/svg">
<path d="M0.112308 0.340871C0.103269 0.333475 0.094021 0.326338 0.0845754 0.319469C0.0358535 0.284035 0.0147977 0.254497 0.00663751 0.239863C-0.00104576 0.226083 5.45433e-05 0.221342 5.45433e-05 0.223776C5.45433e-05 0.22621 -0.00104576 0.221469 0.00663751 0.20769C0.0147977 0.193055 0.0358536 0.163518 0.0845755 0.128084C0.186252 0.0541367 0.34845 0 0.538516 0C0.721015 0 0.87782 0.0499118 0.980027 0.119348L9.3771 7.0637C9.60469 7.25191 9.93388 7.25191 10.1615 7.0637L18.5585 0.119348C18.6608 0.049912 18.8176 8.25294e-07 19.0001 8.25294e-07C19.1901 8.25294e-07 19.3523 0.0541373 19.454 0.128084C19.5027 0.163518 19.5238 0.193055 19.5319 0.20769C19.5371 0.216922 19.5385 0.223775 19.5385 0.223775C19.5385 0.223775 19.5371 0.230621 19.5319 0.239864C19.5238 0.254499 19.5027 0.284036 19.454 0.31947C19.4445 0.326339 19.4353 0.333476 19.4263 0.340872L10.2119 7.87993C10.1097 7.94974 9.95242 8 9.76929 8C9.58615 8 9.42889 7.94974 9.32671 7.87992L0.112308 0.340871Z" fill="#683F7B"/>
</svg>
