<svg width="54" height="50" viewBox="0 0 54 50" fill="none" xmlns="http://www.w3.org/2000/svg">
<path d="M1.9893 0.562626C1.40597 0.770958 0.989299 1.11471 0.676799 1.64596L0.385132 2.13554L0.353882 10.2397C0.333049 18.323 0.333049 18.3335 0.551799 18.8543C0.791382 19.4168 1.31222 19.9376 1.85388 20.1668C2.13513 20.2814 3.07263 20.3126 6.4268 20.3126C10.5101 20.3126 10.656 20.3022 10.8539 20.1043C11.1143 19.8439 11.1247 19.3647 10.8643 19.0522L10.6664 18.8022L6.47888 18.7501L2.29138 18.698L2.09347 18.448C1.90597 18.2189 1.89555 17.948 1.89555 11.7605V5.31262H12.3643H22.833V6.96887C22.833 8.67721 22.9268 9.19804 23.2497 9.37512C23.5622 9.54179 23.958 9.50012 24.1872 9.27096C24.3955 9.06262 24.406 8.95846 24.3747 5.52096L24.3435 2.00012L24.031 1.54179C23.6664 1.03138 23.1768 0.677208 22.6351 0.520958C22.031 0.354292 2.46847 0.385542 1.9893 0.562626ZM22.5726 2.23971C22.7914 2.44804 22.833 2.59387 22.833 3.12512V3.75012H12.3643H1.89555V3.16679C1.89555 2.66679 1.93722 2.55221 2.19763 2.28137L2.49972 1.97929H12.4164H22.3226L22.5726 2.23971Z" fill="white"/>
<path d="M5.78128 8.02091C5.29169 8.21883 5.19795 8.83341 5.59378 9.21883L5.84378 9.47925H12.4167C18.8438 9.47925 18.9792 9.47925 19.1875 9.27091C19.5 8.95841 19.4688 8.40633 19.125 8.1355C18.8542 7.91675 18.7709 7.91675 12.4271 7.92716C8.89586 7.92716 5.90628 7.96883 5.78128 8.02091Z" fill="white"/>
<path d="M29.0413 8.13542C28.6975 8.40625 28.6663 8.95833 28.9788 9.27083C29.1871 9.47917 29.3225 9.47917 38.6767 9.47917H48.1663L48.4684 9.78125C48.7288 10.0521 48.7705 10.1667 48.7705 10.6667V11.25H43.208C37.7496 11.25 37.6455 11.25 37.3746 11.4688C37.0309 11.7396 36.9996 12.2917 37.3121 12.6042C37.5205 12.8125 37.6559 12.8125 43.1455 12.8125H48.7705V18.4167C48.7705 24.6458 48.8017 24.375 48.0621 24.5833C47.8538 24.6354 47.083 24.6875 46.3538 24.6875C45.1559 24.6875 44.9996 24.7083 44.8121 24.8958C44.5517 25.1562 44.5413 25.6667 44.8017 25.9271C44.9163 26.0417 45.1767 26.1667 45.385 26.2083C46.0205 26.3229 48.3642 26.1979 48.7705 26.0208C49.3017 25.7917 49.7913 25.3542 50.0517 24.8542C50.2809 24.4271 50.2809 24.4167 50.3121 17.2917C50.333 11.8646 50.3121 10.0417 50.208 9.6875C50.0309 9.02083 49.1975 8.20834 48.5413 8.04167C48.1871 7.94792 45.5413 7.91667 38.6871 7.91667C29.3642 7.91667 29.3225 7.91667 29.0413 8.13542Z" fill="white"/>
<path d="M8.22955 11.4064C7.84414 11.6148 7.73997 12.1252 8.02122 12.4898L8.21914 12.7606L12.3441 12.7919C16.365 12.8127 16.4796 12.8127 16.6879 12.6044C17.0004 12.2919 16.9691 11.7398 16.6254 11.4689C16.3546 11.2606 16.24 11.2502 12.4275 11.2502C9.20872 11.2606 8.45872 11.2814 8.22955 11.4064Z" fill="white"/>
<path d="M25.7504 11.3126C22.6462 11.6876 20.0629 12.6355 17.8025 14.2396C16.7087 15.0105 14.9275 16.7917 14.1567 17.8855C12.8442 19.7292 11.8025 22.2188 11.4171 24.4271C11.1462 25.9688 11.1671 28.448 11.4587 29.9688C12.5942 35.7188 16.615 40.3021 22.1254 42.125C24.2921 42.8334 27.0942 43.0834 29.2087 42.7396L29.5942 42.6875L29.6254 45.3438L29.6567 48L29.9692 48.4584C30.3442 48.9792 30.8337 49.3334 31.3858 49.4792C31.6462 49.5521 35.2608 49.573 41.865 49.5625C53.0525 49.5313 52.1879 49.5834 52.9275 48.8438C53.6567 48.1146 53.615 48.7396 53.6462 39.7605C53.6671 31.6771 53.6671 31.6667 53.4483 31.1459C53.2087 30.5834 52.6879 30.0626 52.1462 29.8334C51.865 29.7188 50.865 29.6876 47.2087 29.6876H42.615L42.6983 28.9792C42.8337 27.823 42.7712 25.5521 42.5733 24.4271C41.8337 20.1251 39.2296 16.1771 35.5942 13.8334C33.8962 12.7292 31.6254 11.8438 29.7087 11.5209C28.7192 11.3438 26.4379 11.2292 25.7504 11.3126ZM29.5525 13.073C34.5525 13.948 38.8962 17.7188 40.5212 22.6146C41.0421 24.2084 41.2087 25.3334 41.1983 27.2396C41.1879 28.1563 41.1358 29.073 41.0942 29.2709L41.0004 29.6355H40.1254C39.5942 29.6355 39.2504 29.5938 39.2608 29.5313C39.615 27.2709 39.4483 25.0105 38.7608 23.0105C38.2504 21.5209 37.0942 19.5521 36.615 19.3646C36.2817 19.2396 35.865 19.4271 35.6462 19.823C35.4692 20.1459 35.3962 19.9792 36.3546 21.5417C36.9483 22.5105 37.4275 23.7396 37.6775 24.9584C37.8858 25.9584 37.9171 27.8855 37.74 28.9271L37.6046 29.6876H34.5212C31.115 29.6876 30.9483 29.7188 30.3025 30.3751C29.6671 31.0209 29.6567 31.0209 29.6046 34.4792L29.5525 37.6563L29.0317 37.7917C28.2504 38 25.8754 37.9792 24.8754 37.7709C23.6462 37.5001 22.4171 37.0209 21.4587 36.4376C20.0421 35.573 20.0317 35.573 19.7192 35.7396C19.3442 35.948 19.1567 36.3646 19.2817 36.698C19.5108 37.3021 22.1046 38.6771 23.8025 39.1146C25.3337 39.5 26.7608 39.625 28.1462 39.4792C28.7921 39.4167 29.365 39.3542 29.4379 39.3438C29.5733 39.323 29.6567 40.9271 29.5212 41.0625C29.3233 41.2605 27.0317 41.3959 25.7712 41.2709C19.2921 40.6355 14.24 36.0417 12.9796 29.6251C12.6983 28.2396 12.7296 25.7084 13.0317 24.2709C14.1046 19.198 17.74 15.1355 22.6046 13.5521C23.4587 13.2709 24.6775 13.0209 25.8546 12.8751C26.5108 12.7917 28.5942 12.9063 29.5525 13.073ZM51.8442 31.5105C52.0629 31.7188 52.1046 31.8646 52.1046 32.3959V33.0209H41.6358H31.1671V32.3751C31.1671 31.8542 31.2087 31.6876 31.3962 31.4896L31.615 31.2501H41.6046H51.5942L51.8442 31.5105ZM52.1046 41V47.4167L51.8025 47.7188L51.5004 48.0209H41.5837H31.6775L31.4275 47.7605L31.1671 47.5105V41.0417V34.5834H41.6358H52.1046V41Z" fill="white"/>
<path d="M25.7291 14.6875C21.7083 15.1458 18.2291 17.3958 16.2187 20.8333C14.125 24.4271 13.9896 28.8125 15.8541 32.5521C16.875 34.6042 17.3958 35.1354 18.0104 34.7396C18.1458 34.6458 18.3125 34.4583 18.375 34.3229C18.5 34.0417 18.4687 33.9687 17.6458 32.625C16.625 30.9479 16.1354 29.1458 16.1458 27.0312C16.1458 25.625 16.2916 24.7292 16.6979 23.5312C17.9583 19.8438 21.2708 17.0208 25.125 16.3438C26.1771 16.1667 28.1146 16.1875 29.125 16.4062C30.3333 16.6562 31.5729 17.1354 32.5416 17.7292C34.1041 18.6875 33.9375 18.6146 34.2604 18.4375C34.6562 18.2188 34.8437 17.8021 34.7187 17.4688C34.5208 16.9688 32.5208 15.8125 30.9271 15.2812C29.3437 14.75 27.2812 14.5104 25.7291 14.6875Z" fill="white"/>
<path d="M26.7398 18.021C26.3336 18.1772 26.219 18.4376 26.2294 19.198C26.2294 19.823 26.2606 19.948 26.469 20.1147C26.6044 20.2293 26.844 20.3126 27.0002 20.3126C27.1565 20.3126 27.3961 20.2293 27.5315 20.1147C27.7398 19.948 27.7711 19.823 27.7711 19.1876C27.7815 18.573 27.7398 18.4064 27.5732 18.2397C27.3127 17.9897 27.0107 17.9064 26.7398 18.021Z" fill="white"/>
<path d="M21.739 21.3542C21.4161 21.4792 21.239 21.75 21.239 22.0937C21.239 22.3646 21.4994 22.6771 23.0307 24.2083C24.7182 25.8958 24.8223 26.0312 24.7078 26.25C24.4994 26.6354 24.5515 27.6458 24.8119 28.1771C25.614 29.8229 28.0203 29.9792 28.9994 28.4375L29.3015 27.9687L32.4682 27.9167C35.5619 27.8646 35.6453 27.8542 35.864 27.6354C36.1453 27.3542 36.1661 26.8542 35.9057 26.5625C35.7286 26.3646 35.5932 26.3542 32.5515 26.3542H29.3953L29.0723 25.8333C28.614 25.0833 27.9057 24.6875 27.0203 24.6875C26.6557 24.6875 26.2598 24.7396 26.1453 24.8021C25.9473 24.9062 25.7494 24.7396 24.1453 23.1458C23.1661 22.1771 22.2703 21.3542 22.1557 21.3229C22.0411 21.2917 21.8536 21.3021 21.739 21.3542ZM27.5932 26.4792C28.2286 27.0729 27.5411 28.2187 26.7182 27.9062C26.3432 27.7708 26.1765 27.5104 26.1661 27.0937C26.1661 26.3437 27.0411 25.9583 27.5932 26.4792Z" fill="white"/>
<path d="M18.0934 26.5627C17.833 26.8543 17.8538 27.3543 18.135 27.6356C18.3225 27.8335 18.4788 27.8647 19.0934 27.8647C19.7392 27.8647 19.8538 27.8335 20.0309 27.6147C20.2913 27.3022 20.2809 26.8231 20.0204 26.5627C19.7184 26.2606 18.3642 26.2606 18.0934 26.5627Z" fill="white"/>
<path d="M26.4694 34.052C26.2611 34.2187 26.2298 34.3437 26.2298 35C26.2194 35.6979 26.2402 35.7604 26.5111 36C26.8652 36.302 27.0944 36.3125 27.4486 36.0416C27.7819 35.7812 27.9069 35.1145 27.7402 34.5C27.5631 33.8541 26.9694 33.6458 26.4694 34.052Z" fill="white"/>
<path d="M34.812 37.396C34.4995 37.7085 34.5308 38.2605 34.8745 38.5314C35.1454 38.7501 35.2391 38.7501 41.5516 38.7501C46.9579 38.7501 47.9891 38.7293 48.2391 38.5939C48.7183 38.3543 48.8016 37.9064 48.4475 37.4585L48.2391 37.1876H41.6245C35.1558 37.1876 35.0204 37.1876 34.812 37.396Z" fill="white"/>
<path d="M37.3326 40.7292C36.9992 41.0417 37.0201 41.5833 37.3847 41.875C37.6555 42.0833 37.7284 42.0937 41.6972 42.0625C46.1451 42.0312 45.9888 42.0521 46.1243 41.3854C46.1763 41.1146 46.1347 41 45.9263 40.7917L45.6555 40.5208H41.6034C37.6763 40.5208 37.5513 40.5313 37.3326 40.7292Z" fill="white"/>
<path d="M34.8323 44.0938C34.5093 44.4376 34.5302 44.9272 34.8739 45.198C35.1448 45.4167 35.2385 45.4167 41.6552 45.4167H48.1552L48.4052 45.1563C48.551 45.0209 48.6656 44.7813 48.6656 44.6355C48.6656 44.4897 48.551 44.2501 48.4052 44.1147L48.1552 43.8542H41.6031H35.051L34.8323 44.0938Z" fill="white"/>
<path d="M5.80233 14.698C5.29192 14.9896 5.19817 15.4271 5.55233 15.875L5.76067 16.1459H9.45858C13.0107 16.1459 13.1565 16.1355 13.3544 15.9375C13.6148 15.6771 13.6252 15.198 13.3648 14.8855L13.1669 14.6355L9.58358 14.6146C7.10442 14.5938 5.94817 14.625 5.80233 14.698Z" fill="white"/>
<path d="M41.7185 15.5209C41.2602 15.7084 41.1248 16.4167 41.479 16.7709C41.6769 16.9688 41.8227 16.9792 43.7081 16.9792H45.7394L45.9477 16.7084C46.0727 16.5522 46.1664 16.3647 46.1664 16.2917C46.1664 16.0209 45.9269 15.6459 45.6769 15.5313C45.3748 15.3959 42.0623 15.3855 41.7185 15.5209Z" fill="white"/>
<path d="M43.927 18.8543C43.4166 19.0522 43.2603 19.7085 43.6145 20.1043C43.7812 20.2814 43.9374 20.3126 44.7708 20.3126C45.6874 20.3126 45.7499 20.3022 45.9478 20.0418C46.0728 19.8855 46.1666 19.698 46.1666 19.6251C46.1666 19.323 45.9062 18.9585 45.6145 18.8543C45.2499 18.7293 44.2291 18.7293 43.927 18.8543Z" fill="white"/>
<path d="M5.17607 28.1668C4.69691 28.3751 4.19691 28.8335 3.94691 29.3126C3.71774 29.7397 3.71774 29.7397 3.68649 36.9168C3.65524 45.0105 3.63441 44.7189 4.42607 45.5001C5.22816 46.2918 4.64482 46.2501 15.2282 46.2501C24.6344 46.2501 24.6761 46.2501 24.9573 46.0314C25.3011 45.7605 25.3323 45.2084 25.0198 44.8959C24.8115 44.6876 24.6761 44.6876 15.3219 44.6876H5.83232L5.53024 44.3855L5.22816 44.0834V38.5001V32.9272L7.53024 32.8959C9.80107 32.8647 9.83232 32.8647 10.0302 32.6147C10.2907 32.3022 10.2802 31.823 10.0198 31.5626C9.8219 31.3647 9.67607 31.3543 7.5094 31.3543H5.20732L5.24899 30.6668C5.31149 29.6355 5.41566 29.5835 7.15524 29.5835C8.59274 29.5835 9.12399 29.4793 9.29065 29.1668C9.45732 28.8543 9.41565 28.4585 9.18649 28.2293C8.99899 28.0418 8.84274 28.021 7.23857 28.021C6.03024 28.0314 5.39482 28.073 5.17607 28.1668Z" fill="white"/>
<path d="M8.05171 36.6251C7.80171 36.9376 7.78088 37.073 7.94754 37.4376C8.14546 37.8542 8.51004 37.9376 10.0725 37.8959C11.4267 37.8647 11.51 37.8542 11.6975 37.6147C11.9684 37.2813 11.9475 36.8542 11.6559 36.5834C11.4267 36.3647 11.3121 36.3542 9.84338 36.3542H8.26004L8.05171 36.6251Z" fill="white"/>
<path d="M8.07276 39.9584C7.86442 40.1668 7.82276 40.2813 7.87484 40.5522C8.01026 41.198 7.97901 41.198 11.0623 41.2292L13.8748 41.2605L14.1353 41.0001C14.4686 40.6668 14.479 40.2188 14.1561 39.9168C13.9165 39.698 13.8436 39.6876 11.1248 39.6876H8.34359L8.07276 39.9584Z" fill="white"/>
</svg>
