<svg width="24" height="19" viewBox="0 0 24 19" fill="none" xmlns="http://www.w3.org/2000/svg">
<path fill-rule="evenodd" clip-rule="evenodd" d="M22.2223 1.91677C22.9062 2.70042 23.1476 4.47401 23.1476 4.47401C23.1476 4.47401 23.389 6.57756 23.389 8.68106V10.6196C23.389 12.6819 23.1476 14.7855 23.1476 14.7855C23.1476 14.7855 22.9062 16.5591 22.2223 17.3427C21.3806 18.2841 20.4298 18.3675 19.958 18.4089C19.9337 18.4111 19.9107 18.4131 19.889 18.4151C16.6304 18.7038 11.7223 18.7038 11.7223 18.7038C11.7223 18.7038 5.6476 18.6626 3.79706 18.4564C3.69873 18.4331 3.57764 18.4157 3.43994 18.3959C2.8453 18.3102 1.94099 18.18 1.22233 17.3427C0.538464 16.5591 0.297064 14.7855 0.297064 14.7855C0.297064 14.7855 0.0556641 12.7232 0.0556641 10.6197V8.68111C0.0556641 6.57756 0.297064 4.47401 0.297064 4.47401C0.297064 4.47401 0.498177 2.70047 1.22233 1.91677C2.06403 0.975394 3.01487 0.891949 3.48663 0.850547C3.51094 0.848414 3.53398 0.846392 3.55566 0.84437C6.81426 0.596921 11.7223 0.555664 11.7223 0.555664C11.7223 0.555664 16.6304 0.596921 19.889 0.84437C19.9226 0.847503 19.9594 0.850397 19.9992 0.853524C20.4835 0.891572 21.4045 0.96392 22.2223 1.91677ZM8.9062 14.4142V5.46389L16.5499 10.0422L8.9062 14.4142Z" fill="white"/>
</svg>
