<svg width="19" height="20" viewBox="0 0 19 20" fill="none" xmlns="http://www.w3.org/2000/svg">
<path fill-rule="evenodd" clip-rule="evenodd" d="M4.22407 6.93375H0.460115V19.0559H4.22407V6.93375ZM4.53238 3.0939C4.53238 1.8887 3.55291 0.907715 2.34956 0.907715C1.13922 0.907715 0.166748 1.8887 0.166748 3.0939C0.166748 4.29911 1.13922 5.28009 2.34956 5.28009C3.55291 5.28009 4.53238 4.29911 4.53238 3.0939ZM10.1921 6.93375H6.59604V19.0559H10.353V13.0579C10.353 11.4813 10.6468 9.94676 12.6058 9.94676C14.5367 9.94676 14.5577 11.7546 14.5577 13.163V19.0559H18.3147V12.4132C18.3147 9.14796 17.6081 6.63946 13.8021 6.63946C11.9691 6.63946 10.7448 7.64146 10.2411 8.59441H10.1921V6.93375Z" fill="white"/>
</svg>
