<svg width="17" height="16" viewBox="0 0 17 16" fill="none" xmlns="http://www.w3.org/2000/svg">
<path d="M12.8745 15.1111H4.75004C4.57901 15.1071 4.41046 15.0694 4.25401 15.0002C4.09756 14.931 3.95627 14.8316 3.83823 14.7078C3.72019 14.584 3.6277 14.4381 3.56605 14.2785C3.5044 14.119 3.47479 13.9488 3.47893 13.7778V4.99111H4.36782V13.7778C4.36357 13.8321 4.37011 13.8867 4.38705 13.9385C4.40398 13.9903 4.43099 14.0382 4.46651 14.0795C4.50203 14.1208 4.54537 14.1547 4.59402 14.1792C4.64268 14.2037 4.6957 14.2183 4.75004 14.2222H12.8745C12.9288 14.2183 12.9818 14.2037 13.0305 14.1792C13.0792 14.1547 13.1225 14.1208 13.158 14.0795C13.1935 14.0382 13.2205 13.9903 13.2375 13.9385C13.2544 13.8867 13.2609 13.8321 13.2567 13.7778V4.99111H14.1456V13.7778C14.1497 13.9488 14.1201 14.119 14.0585 14.2785C13.9968 14.4381 13.9043 14.584 13.7863 14.7078C13.6682 14.8316 13.527 14.931 13.3705 15.0002C13.2141 15.0694 13.0455 15.1071 12.8745 15.1111Z" fill="#676C84"/>
<path d="M14.4922 4H3.03447C2.9166 4 2.80355 3.95317 2.7202 3.86982C2.63685 3.78648 2.59003 3.67343 2.59003 3.55556C2.59003 3.43768 2.63685 3.32464 2.7202 3.24129C2.80355 3.15794 2.9166 3.11111 3.03447 3.11111H14.4922C14.6101 3.11111 14.7232 3.15794 14.8065 3.24129C14.8899 3.32464 14.9367 3.43768 14.9367 3.55556C14.9367 3.67343 14.8899 3.78648 14.8065 3.86982C14.7232 3.95317 14.6101 4 14.4922 4Z" fill="#676C84"/>
<path d="M10.1456 5.77778H11.0345V12.4444H10.1456V5.77778Z" fill="#676C84"/>
<path d="M6.59003 5.77778H7.47892V12.4444H6.59003V5.77778Z" fill="#676C84"/>
<path d="M11.0345 2.60444H10.19V1.77778H7.43447V2.60444H6.59003V1.77778C6.58974 1.54953 6.67727 1.32992 6.83447 1.16444C6.99168 0.998966 7.20651 0.900301 7.43447 0.888889H10.19C10.418 0.900301 10.6328 0.998966 10.79 1.16444C10.9472 1.32992 11.0348 1.54953 11.0345 1.77778V2.60444Z" fill="#676C84"/>
</svg>
