<svg width="16" height="16" viewBox="0 0 16 16" fill="none" xmlns="http://www.w3.org/2000/svg">
<g clip-path="url(#clip0_275_145)">
<path fill-rule="evenodd" clip-rule="evenodd" d="M1.00001 11.5C1.00001 11.6326 1.05269 11.7598 1.14646 11.8536C1.24022 11.9473 1.3674 12 1.50001 12H13.293L10.146 15.146C10.0521 15.2399 9.99938 15.3672 9.99938 15.5C9.99938 15.6328 10.0521 15.7601 10.146 15.854C10.2399 15.9479 10.3672 16.0007 10.5 16.0007C10.6328 16.0007 10.7601 15.9479 10.854 15.854L14.854 11.854C14.9006 11.8076 14.9375 11.7524 14.9627 11.6917C14.9879 11.6309 15.0009 11.5658 15.0009 11.5C15.0009 11.4343 14.9879 11.3691 14.9627 11.3084C14.9375 11.2476 14.9006 11.1925 14.854 11.146L10.854 7.14602C10.7601 7.05213 10.6328 6.99939 10.5 6.99939C10.3672 6.99939 10.2399 7.05213 10.146 7.14602C10.0521 7.23991 9.99938 7.36725 9.99938 7.50002C9.99938 7.6328 10.0521 7.76013 10.146 7.85402L13.293 11H1.50001C1.3674 11 1.24022 11.0527 1.14646 11.1465C1.05269 11.2402 1.00001 11.3674 1.00001 11.5ZM15 4.50002C15 4.63263 14.9473 4.75981 14.8536 4.85357C14.7598 4.94734 14.6326 5.00002 14.5 5.00002H2.70701L5.85401 8.14602C5.9005 8.19251 5.93737 8.2477 5.96253 8.30844C5.98769 8.36918 6.00064 8.43428 6.00064 8.50002C6.00064 8.56576 5.98769 8.63087 5.96253 8.6916C5.93737 8.75234 5.9005 8.80753 5.85401 8.85402C5.80752 8.90051 5.75233 8.93739 5.69159 8.96254C5.63085 8.9877 5.56575 9.00065 5.50001 9.00065C5.43426 9.00065 5.36916 8.9877 5.30842 8.96254C5.24769 8.93739 5.1925 8.90051 5.14601 8.85402L1.14601 4.85402C1.09945 4.80758 1.0625 4.7524 1.0373 4.69166C1.01209 4.63091 0.999115 4.56579 0.999115 4.50002C0.999115 4.43425 1.01209 4.36913 1.0373 4.30839C1.0625 4.24764 1.09945 4.19247 1.14601 4.14602L5.14601 0.146021C5.2399 0.0521346 5.36723 -0.000610352 5.50001 -0.000610352C5.63278 -0.000610352 5.76012 0.0521346 5.85401 0.146021C5.9479 0.239908 6.00064 0.367246 6.00064 0.500021C6.00064 0.632797 5.9479 0.760135 5.85401 0.854021L2.70701 4.00002H14.5C14.6326 4.00002 14.7598 4.0527 14.8536 4.14647C14.9473 4.24024 15 4.36741 15 4.50002Z" fill="#676C84"/>
</g>
<defs>
<clipPath id="clip0_275_145">
<rect width="16" height="16" fill="white"/>
</clipPath>
</defs>
</svg>
