<svg width="28" height="28" viewBox="0 0 28 28" fill="none" xmlns="http://www.w3.org/2000/svg">
<g filter="url(#filter0_d_872_797)">
<mask id="path-1-inside-1_872_797" fill="white">
<path d="M24 12C24 8.22876 24 6.34315 22.8284 5.17157C21.6569 4 19.7712 4 16 4H12C8.22876 4 6.34315 4 5.17157 5.17157C4 6.34315 4 8.22876 4 12V22C4 22.9428 4 23.4142 4.29289 23.7071C4.58579 24 5.05719 24 6 24H16C19.7712 24 21.6569 24 22.8284 22.8284C24 21.6569 24 19.7712 24 16V12Z"/>
</mask>
<path d="M10.25 10.5C9.69772 10.5 9.25 10.9477 9.25 11.5C9.25 12.0523 9.69772 12.5 10.25 12.5V10.5ZM17.75 12.5C18.3023 12.5 18.75 12.0523 18.75 11.5C18.75 10.9477 18.3023 10.5 17.75 10.5V12.5ZM10.25 15.5C9.69772 15.5 9.25 15.9477 9.25 16.5C9.25 17.0523 9.69772 17.5 10.25 17.5V15.5ZM14 17.5C14.5523 17.5 15 17.0523 15 16.5C15 15.9477 14.5523 15.5 14 15.5V17.5ZM10.25 12.5H17.75V10.5H10.25V12.5ZM10.25 17.5H14V15.5H10.25V17.5ZM16 2H12V6H16V2ZM2 12V22H6V12H2ZM6 26H16V22H6V26ZM26 16V12H22V16H26ZM16 26C17.8291 26 19.4021 26.0042 20.6556 25.8357C21.9666 25.6595 23.2233 25.262 24.2426 24.2426L21.4142 21.4142C21.262 21.5665 20.9901 21.7548 20.1226 21.8714C19.1976 21.9958 17.9422 22 16 22V26ZM22 16C22 17.9422 21.9958 19.1976 21.8714 20.1226C21.7548 20.9901 21.5665 21.262 21.4142 21.4142L24.2426 24.2426C25.262 23.2233 25.6595 21.9666 25.8357 20.6556C26.0042 19.4021 26 17.8291 26 16H22ZM2 22C2 22.4149 1.99575 22.9272 2.05445 23.3638C2.12087 23.8579 2.29869 24.5413 2.87868 25.1213L5.70711 22.2929C5.83511 22.4209 5.92183 22.5637 5.97315 22.6884C6.0179 22.7972 6.02289 22.8613 6.01878 22.8308C6.0145 22.7989 6.00777 22.7248 6.00394 22.5728C6.00013 22.4219 6 22.2431 6 22H2ZM6 22C5.75686 22 5.5781 21.9999 5.42716 21.9961C5.27521 21.9922 5.20107 21.9855 5.16922 21.9812C5.13866 21.9771 5.20278 21.9821 5.31155 22.0269C5.4363 22.0782 5.5791 22.1649 5.70711 22.2929L2.87868 25.1213C3.45867 25.7013 4.14214 25.8791 4.63623 25.9456C5.07279 26.0042 5.58514 26 6 26V22ZM12 2C10.1709 2 8.59792 1.99575 7.34442 2.16428C6.03338 2.34054 4.77668 2.73803 3.75736 3.75736L6.58579 6.58579C6.73803 6.43354 7.00993 6.24524 7.87741 6.12861C8.80242 6.00425 10.0578 6 12 6V2ZM6 12C6 10.0578 6.00425 8.80242 6.12861 7.87741C6.24524 7.00993 6.43354 6.73803 6.58579 6.58579L3.75736 3.75736C2.73803 4.77668 2.34054 6.03338 2.16428 7.34442C1.99575 8.59792 2 10.1709 2 12H6ZM16 6C17.9422 6 19.1976 6.00425 20.1226 6.12861C20.9901 6.24524 21.262 6.43354 21.4142 6.58579L24.2426 3.75736C23.2233 2.73804 21.9666 2.34054 20.6556 2.16428C19.4021 1.99575 17.8291 2 16 2V6ZM26 12C26 10.1709 26.0042 8.59792 25.8357 7.34442C25.6595 6.03338 25.262 4.77668 24.2426 3.75736L21.4142 6.58579C21.5665 6.73804 21.7548 7.00993 21.8714 7.87741C21.9958 8.80242 22 10.0578 22 12H26Z" fill="#374A5E" mask="url(#path-1-inside-1_872_797)"/>
</g>
<defs>
<filter id="filter0_d_872_797" x="0" y="0" width="28" height="28" filterUnits="userSpaceOnUse" color-interpolation-filters="sRGB">
<feFlood flood-opacity="0" result="BackgroundImageFix"/>
<feColorMatrix in="SourceAlpha" type="matrix" values="0 0 0 0 0 0 0 0 0 0 0 0 0 0 0 0 0 0 127 0" result="hardAlpha"/>
<feOffset/>
<feGaussianBlur stdDeviation="2"/>
<feComposite in2="hardAlpha" operator="out"/>
<feColorMatrix type="matrix" values="0 0 0 0 0.215686 0 0 0 0 0.290196 0 0 0 0 0.368627 0 0 0 0.3 0"/>
<feBlend mode="normal" in2="BackgroundImageFix" result="effect1_dropShadow_872_797"/>
<feBlend mode="normal" in="SourceGraphic" in2="effect1_dropShadow_872_797" result="shape"/>
</filter>
</defs>
</svg>
