<svg width="24" height="28" viewBox="0 0 24 28" fill="none" xmlns="http://www.w3.org/2000/svg">
<g filter="url(#filter0_d_872_622)">
<path d="M17.0007 10.9993H9.00026V8.99921C8.99881 8.40536 9.17361 7.82445 9.50255 7.33002C9.83149 6.8356 10.2998 6.44992 10.848 6.22182C11.3963 5.99372 12 5.93347 12.5825 6.0487C13.1651 6.16392 13.7004 6.44944 14.1205 6.86909C14.4965 7.25318 14.7654 7.72897 14.9006 8.24917C14.9334 8.37656 14.991 8.49623 15.0701 8.60136C15.1492 8.70649 15.2482 8.79501 15.3615 8.86187C15.4748 8.92873 15.6001 8.97262 15.7304 8.99104C15.8606 9.00946 15.9933 9.00204 16.1206 8.96921C16.248 8.93637 16.3677 8.87877 16.4728 8.79969C16.578 8.72061 16.6665 8.62159 16.7333 8.5083C16.8002 8.39501 16.8441 8.26965 16.8625 8.13939C16.8809 8.00914 16.8735 7.87653 16.8407 7.74914C16.6129 6.8839 16.161 6.09399 15.5306 5.45902C14.8308 4.76135 13.9399 4.28669 12.9704 4.09499C12.001 3.90329 10.9965 4.00313 10.0838 4.38192C9.17106 4.76071 8.39104 5.40145 7.84221 6.22323C7.29338 7.04502 7.00037 8.011 7.00016 8.99921V10.9993C6.20447 10.9993 5.44137 11.3154 4.87873 11.878C4.31609 12.4407 4 13.2038 4 13.9995V20.9998C4 21.7955 4.31609 22.5586 4.87873 23.1213C5.44137 23.6839 6.20447 24 7.00016 24H17.0007C17.7964 24 18.5595 23.6839 19.1221 23.1213C19.6848 22.5586 20.0008 21.7955 20.0008 20.9998V13.9995C20.0008 13.2038 19.6848 12.4407 19.1221 11.878C18.5595 11.3154 17.7964 10.9993 17.0007 10.9993ZM18.0007 20.9998C18.0007 21.2651 17.8954 21.5194 17.7078 21.707C17.5203 21.8945 17.2659 21.9999 17.0007 21.9999H7.00016C6.73493 21.9999 6.48056 21.8945 6.29301 21.707C6.10547 21.5194 6.00011 21.2651 6.00011 20.9998V13.9995C6.00011 13.7342 6.10547 13.4799 6.29301 13.2923C6.48056 13.1048 6.73493 12.9994 7.00016 12.9994H17.0007C17.2659 12.9994 17.5203 13.1048 17.7078 13.2923C17.8954 13.4799 18.0007 13.7342 18.0007 13.9995V20.9998Z" fill="#374A5E"/>
</g>
<defs>
<filter id="filter0_d_872_622" x="0" y="0" width="24.0007" height="28" filterUnits="userSpaceOnUse" color-interpolation-filters="sRGB">
<feFlood flood-opacity="0" result="BackgroundImageFix"/>
<feColorMatrix in="SourceAlpha" type="matrix" values="0 0 0 0 0 0 0 0 0 0 0 0 0 0 0 0 0 0 127 0" result="hardAlpha"/>
<feOffset/>
<feGaussianBlur stdDeviation="2"/>
<feComposite in2="hardAlpha" operator="out"/>
<feColorMatrix type="matrix" values="0 0 0 0 0.215686 0 0 0 0 0.290196 0 0 0 0 0.368627 0 0 0 0.3 0"/>
<feBlend mode="normal" in2="BackgroundImageFix" result="effect1_dropShadow_872_622"/>
<feBlend mode="normal" in="SourceGraphic" in2="effect1_dropShadow_872_622" result="shape"/>
</filter>
</defs>
</svg>
