<svg width="20" height="20" viewBox="0 0 20 20" fill="none" xmlns="http://www.w3.org/2000/svg">
<mask id="path-1-inside-1_872_697" fill="white">
<path d="M20 8C20 4.22876 20 2.34315 18.8284 1.17157C17.6569 0 15.7712 0 12 0H8C4.22876 0 2.34315 0 1.17157 1.17157C0 2.34315 0 4.22876 0 8V18C0 18.9428 0 19.4142 0.292893 19.7071C0.585786 20 1.05719 20 2 20H12C15.7712 20 17.6569 20 18.8284 18.8284C20 17.6569 20 15.7712 20 12V8Z"/>
</mask>
<path d="M6.2498 9.0001C5.69752 9.0001 5.2498 9.44781 5.2498 10.0001C5.2498 10.5524 5.69752 11.0001 6.2498 11.0001V9.0001ZM13.7498 11.0001C14.3021 11.0001 14.7498 10.5524 14.7498 10.0001C14.7498 9.44781 14.3021 9.0001 13.7498 9.0001V11.0001ZM10.9998 6.2501C10.9998 5.69781 10.5521 5.2501 9.9998 5.2501C9.44752 5.2501 8.9998 5.69781 8.9998 6.2501H10.9998ZM8.9998 13.7501C8.9998 14.3024 9.44752 14.7501 9.9998 14.7501C10.5521 14.7501 10.9998 14.3024 10.9998 13.7501H8.9998ZM6.2498 11.0001H13.7498V9.0001H6.2498V11.0001ZM8.9998 6.2501L8.9998 13.7501H10.9998L10.9998 6.2501H8.9998ZM12 -2H8V2H12V-2ZM-2 8V18H2V8H-2ZM2 22H12V18H2V22ZM22 12V8H18V12H22ZM12 22C13.8291 22 15.4021 22.0042 16.6556 21.8357C17.9666 21.6595 19.2233 21.262 20.2426 20.2426L17.4142 17.4142C17.262 17.5665 16.9901 17.7548 16.1226 17.8714C15.1976 17.9958 13.9422 18 12 18V22ZM18 12C18 13.9422 17.9958 15.1976 17.8714 16.1226C17.7548 16.9901 17.5665 17.262 17.4142 17.4142L20.2426 20.2426C21.262 19.2233 21.6595 17.9666 21.8357 16.6556C22.0042 15.4021 22 13.8291 22 12H18ZM-2 18C-2 18.4149 -2.00425 18.9272 -1.94555 19.3638C-1.87913 19.8579 -1.70131 20.5413 -1.12132 21.1213L1.70711 18.2929C1.83511 18.4209 1.92183 18.5637 1.97315 18.6884C2.0179 18.7972 2.02289 18.8613 2.01878 18.8308C2.0145 18.7989 2.00777 18.7248 2.00394 18.5728C2.00013 18.4219 2 18.2431 2 18H-2ZM2 18C1.75686 18 1.5781 17.9999 1.42716 17.9961C1.27521 17.9922 1.20107 17.9855 1.16922 17.9812C1.13866 17.9771 1.20278 17.9821 1.31155 18.0269C1.4363 18.0782 1.5791 18.1649 1.70711 18.2929L-1.12132 21.1213C-0.541335 21.7013 0.142144 21.8791 0.636234 21.9456C1.07279 22.0042 1.58514 22 2 22V18ZM8 -2C6.17092 -2 4.59792 -2.00425 3.34442 -1.83572C2.03338 -1.65946 0.776684 -1.26197 -0.242641 -0.242641L2.58579 2.58579C2.73803 2.43354 3.00993 2.24524 3.87741 2.12861C4.80242 2.00425 6.05784 2 8 2V-2ZM2 8C2 6.05784 2.00425 4.80242 2.12861 3.87741C2.24524 3.00993 2.43354 2.73803 2.58579 2.58579L-0.242641 -0.242641C-1.26197 0.776684 -1.65946 2.03338 -1.83572 3.34442C-2.00425 4.59792 -2 6.17092 -2 8H2ZM12 2C13.9422 2 15.1976 2.00425 16.1226 2.12861C16.9901 2.24524 17.262 2.43354 17.4142 2.58579L20.2426 -0.242641C19.2233 -1.26196 17.9666 -1.65946 16.6556 -1.83572C15.4021 -2.00425 13.8291 -2 12 -2V2ZM22 8C22 6.17092 22.0042 4.59792 21.8357 3.34442C21.6595 2.03338 21.262 0.776684 20.2426 -0.242641L17.4142 2.58579C17.5665 2.73804 17.7548 3.00993 17.8714 3.87741C17.9958 4.80242 18 6.05784 18 8H22Z" fill="#374A5E" mask="url(#path-1-inside-1_872_697)"/>
</svg>
