<svg width="115" height="25" viewBox="0 0 115 25" fill="none" xmlns="http://www.w3.org/2000/svg">
<path fill-rule="evenodd" clip-rule="evenodd" d="M97.1033 12.434H96.051V10.6013H100.054L100.111 10.6952L104.502 17.934H102.128L102.071 17.8356L101.252 16.4072H96.8515L95.976 17.934H93.8194L97.1033 12.434ZM72.3503 17.9341L72.3019 17.8098L68.9119 9.07448H71.3788L73.4124 14.4128L75.5393 9.07448H77.1912L79.3627 14.4082L81.3015 9.07448H83.4894L80.0511 17.9341H78.4481L76.2324 12.3988L74.0352 17.8121L73.9859 17.9341H72.3503ZM85.2079 13.7206H90.6865V14.9461H87.2832V16.233H93.1812V17.9342H85.2077L85.2079 13.7206ZM85.2079 12.2205V10.6013H93.0988V12.2205H85.2079ZM107.489 10.6014V13.2336L111.315 10.6015H114.476L109.356 14.0167L115 17.9341H111.627L111.575 17.8971L107.489 14.9816V17.9341H105.413V10.6013L107.489 10.6014ZM99.0507 12.4854L97.7343 14.7881H100.354L99.0507 12.4854Z" fill="#374A5E"/>
<path fill-rule="evenodd" clip-rule="evenodd" d="M63.4086 12.7715L65.5448 10.6013H68.0616L64.6817 13.9772L68.82 17.934H65.9285L65.8714 17.8788L63.3364 15.422L60.9526 17.9339H58.3954L62.0313 14.182L58.3056 10.6012H61.1451L63.4086 12.7715ZM47.5227 12.4073H53.8277V14.24H49.8956V16.0028H56.7188V17.934H47.5227V12.4073ZM47.5227 10.9072V9.07438H56.6361V10.9071L47.5227 10.9072Z" fill="#374A5E"/>
<path fill-rule="evenodd" clip-rule="evenodd" d="M8.15887 6.55152L2.16001 15.444L0 13.0556L3.81689 7.37534L8.15887 6.55152ZM42.6839 0L25.8527 24.9999L23.6926 22.6113L38.3675 0.819259L42.6839 0ZM33.998 1.64829L21.5317 20.2218L19.3716 17.8334L29.6773 2.46809L33.998 1.64829ZM25.5185 3.25741L10.802 25L8.64171 22.6114L21.1997 4.07694L25.5185 3.25741ZM16.7983 4.91209L6.48087 20.2218L4.32086 17.8334L12.5103 5.72578L16.7983 4.91209Z" fill="#374A5E"/>
<path d="M48.2914 24.1311H47.6028V21.5779H48.2914V24.1311ZM47.5623 20.9187C47.5623 20.8172 47.5964 20.7325 47.6653 20.6664C47.7342 20.6003 47.8284 20.5673 47.9475 20.5673C48.0644 20.5673 48.1576 20.6003 48.2273 20.6664C48.2971 20.7325 48.332 20.8172 48.332 20.9187C48.332 21.0227 48.2972 21.1081 48.2266 21.1741C48.156 21.2402 48.0628 21.2733 47.9476 21.2733C47.8317 21.2733 47.7383 21.2402 47.6679 21.1741C47.5973 21.108 47.5623 21.0226 47.5623 20.9187Z" fill="#374A5E"/>
<path d="M50.7007 21.5779L50.7226 21.8729C50.9059 21.644 51.1524 21.5295 51.4614 21.5295C51.7338 21.5295 51.9366 21.6093 52.0696 21.7681C52.2026 21.9268 52.2707 22.1646 52.274 22.4805V24.1311H51.587V22.4942C51.587 22.35 51.5554 22.2443 51.4921 22.1791C51.4288 22.1138 51.3235 22.0807 51.1758 22.0807C50.9828 22.0807 50.8376 22.1629 50.7411 22.3265V24.131H50.0543V21.5778L50.7007 21.5779Z" fill="#374A5E"/>
<path d="M54.8279 20.9494V21.5779H55.2674V22.0808H54.8279V23.3542C54.8279 23.4485 54.8466 23.5161 54.883 23.5572C54.9195 23.5983 54.9892 23.6185 55.0923 23.6185C55.1677 23.6185 55.2351 23.6129 55.2942 23.6024V24.1182C55.1596 24.1593 55.0209 24.1795 54.8782 24.1795C54.3964 24.1795 54.1507 23.9385 54.1418 23.4557V22.0808H53.7662V21.5779H54.1418V20.9494H54.8279Z" fill="#374A5E"/>
<path d="M58.0456 24.1795C57.6685 24.1795 57.3612 24.0643 57.1244 23.8346C56.8876 23.6049 56.7692 23.2986 56.7692 22.9158V22.8497C56.7692 22.5934 56.8195 22.3637 56.9192 22.1614C57.019 21.9591 57.1601 21.8028 57.3433 21.694C57.5266 21.5844 57.735 21.5296 57.9694 21.5296C58.3213 21.5296 58.5978 21.64 58.7998 21.86C59.0018 22.0808 59.1024 22.3935 59.1024 22.7981V23.0769H57.4658C57.4877 23.2437 57.555 23.3767 57.6661 23.4775C57.778 23.5782 57.9191 23.6281 58.0903 23.6281C58.3555 23.6281 58.5615 23.5331 58.7107 23.3437L59.0481 23.7193C58.945 23.8635 58.8055 23.9772 58.6295 24.0578C58.4544 24.1391 58.2589 24.1795 58.0456 24.1795ZM57.967 22.0808C57.8308 22.0808 57.7204 22.1268 57.6353 22.2186C57.5509 22.3104 57.4967 22.4418 57.4731 22.6127H58.4277V22.5579C58.4245 22.4064 58.3839 22.2888 58.3044 22.2058C58.225 22.1227 58.113 22.0808 57.967 22.0808Z" fill="#374A5E"/>
<path d="M62.1476 22.2155C62.0544 22.2033 61.9725 22.197 61.9011 22.197C61.6407 22.197 61.4705 22.284 61.3901 22.4589V24.1312H60.7032V21.578H61.352L61.3706 21.881C61.5085 21.6465 61.6999 21.5296 61.9432 21.5296C62.0195 21.5296 62.0908 21.5401 62.1573 21.5602L62.1476 22.2155Z" fill="#374A5E"/>
<path d="M64.6933 23.2978L65.1702 21.5779H65.8879L65.021 24.1311H64.3649L63.498 21.5779H64.2157L64.6933 23.2978Z" fill="#374A5E"/>
<path d="M68.856 24.1311C68.8244 24.0698 68.8017 23.994 68.7872 23.903C68.6209 24.0876 68.4044 24.1795 68.1384 24.1795C67.8871 24.1795 67.6778 24.1069 67.5123 23.9618C67.3469 23.8168 67.2642 23.6338 67.2642 23.413C67.2642 23.1421 67.3655 22.9342 67.5676 22.7892C67.7695 22.6441 68.0614 22.5708 68.4426 22.5692H68.7589V22.4241C68.7589 22.3064 68.728 22.2129 68.6672 22.1428C68.6064 22.0727 68.5098 22.0372 68.3784 22.0372C68.2632 22.0372 68.1724 22.0646 68.1068 22.1185C68.0411 22.1726 68.0079 22.2475 68.0079 22.3417H67.3217C67.3217 22.1943 67.3671 22.0573 67.4588 21.9323C67.5512 21.8066 67.681 21.7083 67.8488 21.6365C68.0167 21.5648 68.2049 21.5293 68.4141 21.5293C68.7312 21.5293 68.9825 21.6083 69.1683 21.7662C69.3549 21.925 69.4481 22.1467 69.4481 22.4335V23.5409C69.4498 23.7826 69.4838 23.9664 69.5503 24.0905V24.1308L68.856 24.1311ZM68.2883 23.6572C68.3897 23.6572 68.483 23.6346 68.5689 23.5903C68.654 23.5452 68.7173 23.4846 68.7587 23.4098V22.9706H68.5024C68.1585 22.9706 67.9752 23.0882 67.9533 23.3243L67.9509 23.3647C67.9509 23.4493 67.9809 23.5194 68.0409 23.575C68.1009 23.6298 68.1838 23.6572 68.2883 23.6572Z" fill="#374A5E"/>
<path d="M71.9117 24.1311H71.2224V20.5045H71.9117V24.1311Z" fill="#374A5E"/>
<path d="M76.9342 20.9494V21.5779H77.3737V22.0808H76.9342V23.3542C76.9342 23.4485 76.9528 23.5161 76.9893 23.5572C77.0258 23.5983 77.0955 23.6185 77.1986 23.6185C77.274 23.6185 77.3413 23.6129 77.4005 23.6024V24.1182C77.2659 24.1593 77.1272 24.1795 76.9844 24.1795C76.5027 24.1795 76.257 23.9385 76.248 23.4557V22.0808H75.8725V21.5779H76.248V20.9494H76.9342Z" fill="#374A5E"/>
<path d="M79.6914 24.1311H79.0029V21.5779H79.6914V24.1311ZM78.9624 20.9187C78.9624 20.8172 78.9965 20.7325 79.0654 20.6664C79.1343 20.6003 79.2284 20.5673 79.3476 20.5673C79.4644 20.5673 79.5577 20.6003 79.6274 20.6664C79.6972 20.7325 79.732 20.8172 79.732 20.9187C79.732 21.0227 79.6972 21.1081 79.6267 21.1741C79.5561 21.2402 79.4629 21.2733 79.3477 21.2733C79.2317 21.2733 79.1384 21.2402 79.0679 21.1741C78.9974 21.108 78.9624 21.0226 78.9624 20.9187Z" fill="#374A5E"/>
<path d="M82.1138 21.5779L82.1348 21.8625C82.3173 21.6408 82.5638 21.5296 82.8744 21.5296C83.2053 21.5296 83.4324 21.6593 83.5557 21.9189C83.7365 21.6594 83.9936 21.5296 84.3285 21.5296C84.6067 21.5296 84.8143 21.6102 84.9506 21.7713C85.0868 21.9325 85.1549 22.176 85.1549 22.5V24.1312H84.4655V22.4991C84.4655 22.3541 84.4371 22.2485 84.3804 22.1816C84.3236 22.1147 84.223 22.0809 84.0787 22.0809C83.8726 22.0809 83.7299 22.1784 83.6505 22.3743L83.6529 24.1313H82.9667V22.5017C82.9667 22.3533 82.9375 22.2462 82.8784 22.1802C82.82 22.1141 82.7203 22.081 82.5792 22.081C82.3845 22.081 82.2434 22.1616 82.1566 22.322V24.1314H81.4697V21.5782L82.1138 21.5779Z" fill="#374A5E"/>
<path d="M88.0778 24.1795C87.7007 24.1795 87.3933 24.0643 87.1565 23.8346C86.9197 23.6049 86.8013 23.2986 86.8013 22.9158V22.8497C86.8013 22.5934 86.8516 22.3637 86.9513 22.1614C87.0511 21.9591 87.1922 21.8028 87.3754 21.694C87.5587 21.5844 87.7672 21.5296 88.0015 21.5296C88.3534 21.5296 88.63 21.64 88.832 21.86C89.0339 22.0808 89.1345 22.3935 89.1345 22.7981V23.0769H87.4979C87.5198 23.2437 87.5871 23.3767 87.6983 23.4775C87.8102 23.5782 87.9513 23.6281 88.1224 23.6281C88.3876 23.6281 88.5936 23.5331 88.7429 23.3437L89.0802 23.7193C88.9771 23.8635 88.8377 23.9772 88.6616 24.0578C88.4865 24.1391 88.2911 24.1795 88.0778 24.1795ZM87.9991 22.0808C87.8629 22.0808 87.7525 22.1268 87.6674 22.2186C87.5831 22.3104 87.5288 22.4418 87.5052 22.6127H88.4598V22.5579C88.4566 22.4064 88.416 22.2888 88.3365 22.2058C88.2571 22.1227 88.1451 22.0808 87.9991 22.0808Z" fill="#374A5E"/>
<path d="M92.1795 22.2155C92.0863 22.2033 92.0044 22.197 91.9329 22.197C91.6726 22.197 91.5024 22.284 91.422 22.4589V24.1312H90.7351V21.578H91.3839L91.4025 21.881C91.5404 21.6465 91.7318 21.5296 91.9751 21.5296C92.0514 21.5296 92.1227 21.5401 92.1892 21.5602L92.1795 22.2155Z" fill="#374A5E"/>
</svg>
