<svg width="19" height="20" viewBox="0 0 19 20" fill="none" xmlns="http://www.w3.org/2000/svg">
<path d="M8.73487 0C6.21315 0.00731219 3.79051 0.998914 1.96731 2.77V1C1.96731 0.734784 1.86368 0.48043 1.67921 0.292893C1.49474 0.105357 1.24454 0 0.983656 0C0.722774 0 0.472577 0.105357 0.288106 0.292893C0.103635 0.48043 0 0.734784 0 1V5.5C0 5.76522 0.103635 6.01957 0.288106 6.20711C0.472577 6.39464 0.722774 6.5 0.983656 6.5H5.41011C5.67099 6.5 5.92119 6.39464 6.10566 6.20711C6.29013 6.01957 6.39376 5.76522 6.39376 5.5C6.39376 5.23478 6.29013 4.98043 6.10566 4.79289C5.92119 4.60536 5.67099 4.5 5.41011 4.5H3.04933C3.94614 3.53701 5.06436 2.81576 6.30339 2.40114C7.54243 1.98651 8.86342 1.89152 10.1475 2.1247C11.4316 2.35788 12.6386 2.91193 13.6598 3.73699C14.681 4.56205 15.4845 5.63226 15.9979 6.85133C16.5113 8.0704 16.7186 9.4001 16.6011 10.7208C16.4835 12.0415 16.0449 13.3118 15.3246 14.4174C14.6044 15.5231 13.625 16.4293 12.4747 17.0547C11.3245 17.68 10.0393 18.0049 8.73487 18C8.47398 18 8.22379 18.1054 8.03932 18.2929C7.85485 18.4804 7.75121 18.7348 7.75121 19C7.75121 19.2652 7.85485 19.5196 8.03932 19.7071C8.22379 19.8946 8.47398 20 8.73487 20C11.3437 20 13.8457 18.9464 15.6904 17.0711C17.5351 15.1957 18.5714 12.6522 18.5714 10C18.5714 7.34784 17.5351 4.8043 15.6904 2.92893C13.8457 1.05357 11.3437 0 8.73487 0ZM8.73487 6C8.47398 6 8.22379 6.10536 8.03932 6.29289C7.85485 6.48043 7.75121 6.73478 7.75121 7V10C7.75121 10.2652 7.85485 10.5196 8.03932 10.7071C8.22379 10.8946 8.47398 11 8.73487 11H10.7022C10.9631 11 11.2133 10.8946 11.3977 10.7071C11.5822 10.5196 11.6858 10.2652 11.6858 10C11.6858 9.73478 11.5822 9.48043 11.3977 9.29289C11.2133 9.10536 10.9631 9 10.7022 9H9.71852V7C9.71852 6.73478 9.61489 6.48043 9.43042 6.29289C9.24594 6.10536 8.99575 6 8.73487 6Z" fill="#374A5E"/>
</svg>
