<svg width="17" height="20" viewBox="0 0 17 20" fill="none" xmlns="http://www.w3.org/2000/svg">
<path d="M4.97072 6.6859L4.96867 6.68755L4.96672 6.68943L4.97072 6.6859ZM14.0199 6.51724C13.9566 6.45662 13.8865 6.40357 13.8108 6.35919C13.7037 6.2965 13.5848 6.25632 13.4615 6.24115C13.3381 6.22597 13.213 6.23612 13.0937 6.27096C12.9745 6.3058 12.8637 6.36459 12.7682 6.44371C12.6727 6.52282 12.5946 6.62057 12.5386 6.73092C12.2255 7.34456 11.7936 7.89066 11.2677 8.3379C11.3481 7.88728 11.3887 7.43051 11.3889 6.97284C11.3906 5.58055 11.0213 4.21267 10.3186 3.00849C9.61588 1.8043 8.60489 0.806819 7.38854 0.117599C7.25454 0.0420552 7.10345 0.00160591 6.94943 4.68429e-05C6.79542 -0.00151223 6.64353 0.03587 6.50802 0.108686C6.37251 0.181502 6.25782 0.287364 6.17471 0.416339C6.0916 0.545314 6.04281 0.693174 6.0329 0.846044C5.98202 1.70333 5.75668 2.54143 5.37052 3.30954C4.98437 4.07766 4.44544 4.75981 3.78638 5.31467L3.57686 5.48419C2.8877 5.94539 2.27768 6.51393 1.77023 7.16799C0.98143 8.15632 0.435004 9.31384 0.174288 10.5488C-0.0864279 11.7837 -0.0542629 13.062 0.268232 14.2824C0.590727 15.5028 1.19468 16.6317 2.0322 17.5796C2.86972 18.5274 3.91777 19.2682 5.09323 19.7431C5.23125 19.7991 5.38102 19.8206 5.52934 19.8055C5.67766 19.7904 5.81997 19.7393 5.94371 19.6566C6.06746 19.5738 6.16883 19.4621 6.23889 19.3312C6.30896 19.2003 6.34556 19.0543 6.34547 18.906C6.34482 18.8101 6.32955 18.7148 6.30019 18.6235C6.09681 17.8631 6.03824 17.0716 6.12751 16.2898C6.98773 17.9035 8.36854 19.1825 10.048 19.9214C10.253 20.0126 10.4847 20.0249 10.6983 19.9558C12.0251 19.5299 13.2205 18.7736 14.1707 17.7588C15.1209 16.744 15.7944 15.5044 16.1272 14.1578C16.4601 12.8112 16.4412 11.4023 16.0723 10.0651C15.7035 8.72776 14.997 7.50647 14.0199 6.51724ZM10.4701 18.1184C9.67765 17.719 8.9786 17.1582 8.41841 16.4724C7.85822 15.7866 7.44941 14.9913 7.21858 14.1381C7.14809 13.8508 7.09355 13.5598 7.05523 13.2666C7.02926 13.0798 6.94526 12.9058 6.81498 12.7689C6.68469 12.6319 6.51464 12.5389 6.32858 12.5028C6.27127 12.4916 6.21298 12.486 6.15456 12.486C5.99478 12.486 5.83781 12.5278 5.69948 12.6074C5.56115 12.6869 5.44635 12.8013 5.36665 12.939C4.61235 14.233 4.23302 15.7094 4.27068 17.2046C3.60726 16.6916 3.05282 16.0527 2.63948 15.325C2.22614 14.5973 1.96213 13.7953 1.86275 12.9654C1.76337 12.1355 1.83059 11.2942 2.06052 10.4903C2.29046 9.68643 2.67853 8.93593 3.20224 8.2823C3.59989 7.7686 4.07959 7.32327 4.62223 6.96406C4.64573 6.94897 4.66826 6.93246 4.68971 6.91461C4.68971 6.91461 4.95942 6.69266 4.96864 6.68758C6.26382 5.59804 7.18501 4.13383 7.60385 2.49894C8.59437 3.40963 9.25484 4.6201 9.48272 5.9424C9.71059 7.26469 9.49312 8.62482 8.86406 9.81159C8.78095 9.96995 8.74686 10.1492 8.76608 10.3269C8.78531 10.5045 8.85699 10.6724 8.97208 10.8096C9.08718 10.9467 9.24053 11.0469 9.4128 11.0974C9.58506 11.148 9.76853 11.1467 9.94005 11.0937C11.3326 10.6595 12.558 9.81151 13.4512 8.66377C13.9881 9.45245 14.3391 10.3515 14.478 11.2938C14.617 12.2362 14.5404 13.1975 14.2538 14.1063C13.9672 15.0151 13.4782 15.8479 12.8231 16.5425C12.1679 17.2372 11.3636 17.7759 10.4701 18.1184L10.4701 18.1184Z" fill="#374A5E"/>
</svg>
