<svg width="18" height="20" viewBox="0 0 18 20" fill="none" xmlns="http://www.w3.org/2000/svg">
<path d="M3.24536 4.73165C4.7747 3.51546 6.67668 2.85417 8.63636 2.85728C10.6755 2.85728 12.5496 3.55826 14.0274 4.73165L15.4217 3.34777L16.7785 4.6945L15.3842 6.07838C16.3992 7.33953 17.0348 8.85949 17.2178 10.4633C17.4009 12.0672 17.124 13.6897 16.419 15.1443C15.7139 16.5988 14.6095 17.8262 13.2326 18.6852C11.8558 19.5443 10.2626 20 8.63636 20C7.01011 20 5.4169 19.5443 4.04008 18.6852C2.66327 17.8262 1.5588 16.5988 0.853778 15.1443C0.148757 13.6897 -0.128161 12.0672 0.0548892 10.4633C0.23794 8.85949 0.873521 7.33953 1.88849 6.07838L0.494197 4.69546L1.85106 3.34873L3.24536 4.7326V4.73165ZM8.63636 18.0961C9.51848 18.0961 10.3919 17.9236 11.2069 17.5886C12.0219 17.2535 12.7624 16.7625 13.3861 16.1434C14.0099 15.5243 14.5047 14.7893 14.8422 13.9804C15.1798 13.1716 15.3535 12.3046 15.3535 11.4291C15.3535 10.5536 15.1798 9.68664 14.8422 8.87776C14.5047 8.06889 14.0099 7.33392 13.3861 6.71484C12.7624 6.09575 12.0219 5.60467 11.2069 5.26962C10.3919 4.93457 9.51848 4.76213 8.63636 4.76213C6.85486 4.76213 5.14632 5.46454 3.88661 6.71484C2.6269 7.96514 1.9192 9.66091 1.9192 11.4291C1.9192 13.1973 2.6269 14.8931 3.88661 16.1434C5.14632 17.3937 6.85486 18.0961 8.63636 18.0961ZM9.59596 10.4767H12.4747L7.67677 16.6674V12.3815H4.79798L9.59596 6.186V10.4767ZM4.79798 0H12.4747V1.90485H4.79798V0Z" fill="#374A5E"/>
</svg>
