<svg width="26" height="24" viewBox="0 0 26 24" fill="none" xmlns="http://www.w3.org/2000/svg">
    <path d="M19.918 17.2949V23.0599H17.612V17.2949C17.612 12.1629 20.6605 7.74235 25.0453 5.74652L26 7.84497C24.186 8.67003 22.6479 9.99985 21.5694 11.6756C20.4909 13.3513 19.9176 15.3021 19.918 17.2949ZM8.38803 17.2949V23.0599H6.08204V17.2949C6.08221 15.3023 5.5088 13.3518 4.4303 11.6763C3.35181 10.0007 1.81381 8.6711 0 7.84612L0.954679 5.74652C3.17152 6.7548 5.05127 8.37991 6.36939 10.4277C7.68752 12.4756 8.3883 14.8595 8.38803 17.2949ZM13 11.5299C11.471 11.5299 10.0047 10.9226 8.92355 9.84141C7.84241 8.76027 7.23503 7.29393 7.23503 5.76497C7.23503 4.236 7.84241 2.76966 8.92355 1.68852C10.0047 0.607379 11.471 0 13 0C14.529 0 15.9953 0.607379 17.0764 1.68852C18.1576 2.76966 18.765 4.236 18.765 5.76497C18.765 7.29393 18.1576 8.76027 17.0764 9.84141C15.9953 10.9226 14.529 11.5299 13 11.5299ZM13 9.22395C13.4542 9.22395 13.904 9.13448 14.3237 8.96065C14.7434 8.78682 15.1247 8.53203 15.4459 8.21084C15.7671 7.88964 16.0219 7.50832 16.1957 7.08866C16.3695 6.669 16.459 6.21921 16.459 5.76497C16.459 5.31073 16.3695 4.86094 16.1957 4.44127C16.0219 4.02161 15.7671 3.64029 15.4459 3.3191C15.1247 2.9979 14.7434 2.74312 14.3237 2.56929C13.904 2.39546 13.4542 2.30599 13 2.30599C12.0826 2.30599 11.2028 2.67041 10.5541 3.3191C9.90545 3.96778 9.54102 4.84759 9.54102 5.76497C9.54102 6.68235 9.90545 7.56215 10.5541 8.21084C11.2028 8.85952 12.0826 9.22395 13 9.22395Z" fill="#7D8A97"/>
</svg>
