<svg width="28" height="33" viewBox="0 0 28 33" fill="none" xmlns="http://www.w3.org/2000/svg">
<g filter="url(#filter0_d_872_624)">
<path d="M10.0753 12.3574L10.0728 12.3594L10.0704 12.3618L10.0753 12.3574ZM21.1354 12.1466C21.0581 12.0708 20.9723 12.0045 20.8799 11.949C20.749 11.8706 20.6036 11.8204 20.4529 11.8014C20.3021 11.7825 20.1492 11.7951 20.0034 11.8387C19.8577 11.8822 19.7223 11.9557 19.6056 12.0546C19.4889 12.1535 19.3934 12.2757 19.325 12.4137C18.9422 13.1807 18.4143 13.8633 17.7716 14.4224C17.8699 13.8591 17.9195 13.2881 17.9197 12.7161C17.9218 10.9757 17.4704 9.26584 16.6116 7.76061C15.7527 6.25538 14.5171 5.00852 13.0304 4.147C12.8667 4.05257 12.682 4.00201 12.4938 4.00006C12.3055 3.99811 12.1199 4.04484 11.9542 4.13586C11.7886 4.22688 11.6484 4.35921 11.5469 4.52042C11.4453 4.68164 11.3857 4.86647 11.3735 5.05755C11.3114 6.12917 11.0359 7.17678 10.564 8.13693C10.092 9.09708 9.43331 9.94977 8.6278 10.6433L8.37172 10.8552C7.52941 11.4317 6.78383 12.1424 6.16362 12.96C5.19953 14.1954 4.53167 15.6423 4.21302 17.1859C3.89437 18.7296 3.93368 20.3275 4.32784 21.853C4.722 23.3785 5.46017 24.7896 6.4838 25.9745C7.50744 27.1593 8.78839 28.0852 10.2251 28.6788C10.3937 28.7489 10.5768 28.7757 10.7581 28.7569C10.9394 28.738 11.1133 28.6741 11.2645 28.5707C11.4158 28.4673 11.5397 28.3276 11.6253 28.164C11.7109 28.0004 11.7557 27.8179 11.7556 27.6325C11.7548 27.5126 11.7361 27.3935 11.7002 27.2793C11.4517 26.3289 11.3801 25.3395 11.4892 24.3623C12.5406 26.3793 14.2282 27.9782 16.2808 28.9018C16.5314 29.0158 16.8146 29.0311 17.0757 28.9448C18.6974 28.4124 20.1583 27.467 21.3197 26.1985C22.4811 24.93 23.3043 23.3805 23.7111 21.6973C24.1179 20.014 24.0948 18.2529 23.644 16.5813C23.1932 14.9097 22.3296 13.3831 21.1354 12.1466ZM16.7968 26.648C15.8282 26.1487 14.9739 25.4477 14.2892 24.5905C13.6045 23.7333 13.1048 22.7391 12.8227 21.6726C12.7365 21.3135 12.6699 20.9498 12.6231 20.5832C12.5913 20.3498 12.4887 20.1323 12.3294 19.9611C12.1702 19.7899 11.9623 19.6736 11.7349 19.6285C11.6649 19.6145 11.5936 19.6074 11.5222 19.6075C11.327 19.6075 11.1351 19.6598 10.966 19.7592C10.797 19.8586 10.6566 20.0016 10.5592 20.1738C9.63732 21.7912 9.17369 23.6367 9.21972 25.5057C8.40888 24.8645 7.73122 24.0659 7.22603 23.1563C6.72084 22.2467 6.39816 21.2441 6.2767 20.2067C6.15523 19.1693 6.23739 18.1177 6.51842 17.1129C6.79945 16.108 7.27375 15.1699 7.91385 14.3529C8.39986 13.7107 8.98617 13.1541 9.6494 12.7051C9.67812 12.6862 9.70566 12.6656 9.73186 12.6433C9.73186 12.6433 10.0615 12.3658 10.0728 12.3595C11.6558 10.9976 12.7817 9.16728 13.2936 7.12368C14.5042 8.26204 15.3115 9.77512 15.59 11.428C15.8685 13.0809 15.6027 14.781 14.8339 16.2645C14.7323 16.4624 14.6906 16.6866 14.7141 16.9086C14.7376 17.1306 14.8252 17.3405 14.9659 17.512C15.1066 17.6834 15.294 17.8086 15.5045 17.8718C15.7151 17.935 15.9393 17.9334 16.1489 17.8671C17.8509 17.3244 19.3486 16.2644 20.4404 14.8297C21.0966 15.8156 21.5255 16.9393 21.6954 18.1173C21.8652 19.2952 21.7715 20.4969 21.4213 21.6329C21.0711 22.7689 20.4733 23.8098 19.6726 24.6782C18.8719 25.5465 17.8889 26.2199 16.7967 26.6481L16.7968 26.648Z" fill="#374A5E"/>
</g>
<defs>
<filter id="filter0_d_872_624" x="0" y="0" width="28" height="33" filterUnits="userSpaceOnUse" color-interpolation-filters="sRGB">
<feFlood flood-opacity="0" result="BackgroundImageFix"/>
<feColorMatrix in="SourceAlpha" type="matrix" values="0 0 0 0 0 0 0 0 0 0 0 0 0 0 0 0 0 0 127 0" result="hardAlpha"/>
<feOffset/>
<feGaussianBlur stdDeviation="2"/>
<feComposite in2="hardAlpha" operator="out"/>
<feColorMatrix type="matrix" values="0 0 0 0 0.215686 0 0 0 0 0.290196 0 0 0 0 0.368627 0 0 0 0.3 0"/>
<feBlend mode="normal" in2="BackgroundImageFix" result="effect1_dropShadow_872_624"/>
<feBlend mode="normal" in="SourceGraphic" in2="effect1_dropShadow_872_624" result="shape"/>
</filter>
</defs>
</svg>
