<svg width="19" height="20" viewBox="0 0 19 20" fill="none" xmlns="http://www.w3.org/2000/svg">
<path d="M8.57341 12.4766V14.4443C9.43521 14.143 10.3575 14.0506 11.2629 14.1748C12.1683 14.299 13.0304 14.6362 13.7767 15.1581C14.523 15.68 15.1317 16.3713 15.5518 17.174C15.9719 17.9768 16.191 18.8674 16.1909 19.7712L18.0952 19.7703C18.0955 18.6206 17.8296 17.4861 17.318 16.4538C16.8063 15.4214 16.0624 14.5186 15.1432 13.8145C14.2241 13.1103 13.1542 12.6236 12.0154 12.3915C10.8766 12.1594 9.69921 12.1882 8.57341 12.4756V12.4766ZM10.4778 11.2978C13.6342 11.2978 16.1909 8.76995 16.1909 5.64892C16.1909 2.52789 13.6342 0 10.4778 0C7.32129 0 4.76469 2.52789 4.76469 5.64892C4.76469 8.76995 7.32129 11.2978 10.4778 11.2978ZM10.4778 9.41487C8.37345 9.41487 6.66905 7.72961 6.66905 5.64892C6.66905 3.56823 8.37345 1.88297 10.4778 1.88297C12.5821 1.88297 14.2865 3.56823 14.2865 5.64892C14.2865 7.72961 12.5821 9.41487 10.4778 9.41487ZM3.4145 15.0638H-2.28882e-05V16.9468H3.4145L1.67296 18.6678L3.01934 20L7.05944 16.0053L3.01934 12.0105L1.67296 13.3427L3.4145 15.0638Z" fill="#374A5E"/>
</svg>
