<svg width="20" height="20" viewBox="0 0 20 20" fill="none" xmlns="http://www.w3.org/2000/svg">
<path d="M0.00111807 11.1113H2.25365C2.5245 12.9614 3.45634 14.6526 4.87869 15.8757C6.30104 17.0988 8.11881 17.7719 9.99944 17.7719C11.8801 17.7719 13.6978 17.0988 15.1202 15.8757C16.5425 14.6526 17.4744 12.9614 17.7452 11.1113H19.9989C19.7233 13.556 18.5511 15.814 16.7065 17.4537C14.8618 19.0935 12.474 20 9.99944 20C7.52487 20 5.13707 19.0935 3.29241 17.4537C1.44775 15.814 0.275605 13.556 0 11.1113H0.00111807ZM0.00111807 8.88871C0.276724 6.44402 1.44887 4.18601 3.29353 2.54626C5.13819 0.906504 7.52598 0 10.0006 0C12.4751 0 14.8629 0.906504 16.7076 2.54626C18.5523 4.18601 19.7244 6.44402 20 8.88871H17.7475C17.4766 7.03864 16.5448 5.34737 15.1224 4.12429C13.7001 2.90121 11.8823 2.2281 10.0017 2.2281C8.12104 2.2281 6.30328 2.90121 4.88093 4.12429C3.45858 5.34737 2.52674 7.03864 2.25588 8.88871H0.00111807Z" fill="#374A5E"/>
</svg>
