<svg width="25" height="25" viewBox="0 0 25 25" fill="none" xmlns="http://www.w3.org/2000/svg">
<g clip-path="url(#clip0)">
<path d="M25.0705 11.9942C24.9958 8.72361 23.6512 5.67584 21.2849 3.41238C18.9218 1.15235 15.8186 -0.0582508 12.5476 0.00221239C9.27545 -0.0590138 6.17338 1.15235 3.81052 3.41238C1.44403 5.67584 0.0995806 8.72361 0.0246662 11.994L0.0244751 12.0043V12.0146C0.0416748 15.3475 1.47155 18.5164 3.95404 20.7373V23.7591C3.95404 24.3456 4.36435 24.8564 4.92946 24.9739C5.01316 24.9913 5.09744 25 5.18134 25C5.40876 25 5.63235 24.9365 5.82919 24.8139L8.26257 23.2966C9.63492 23.7763 11.0669 24.0193 12.5228 24.0193H12.5411C12.6217 24.0208 12.7014 24.0216 12.7819 24.0216C15.9671 24.0214 18.9784 22.815 21.2849 20.6091C23.6512 18.3457 24.9958 15.2979 25.0705 12.0275L25.0709 12.0107L25.0705 11.9942ZM20.2684 19.5505C18.1845 21.5437 15.4477 22.6101 12.5621 22.5533L12.5541 22.5531H12.5461C11.1921 22.5561 9.85947 22.321 8.58727 21.8554C8.2727 21.7404 7.93004 21.7755 7.64701 21.9519L5.42309 23.3384V20.5588C5.42309 20.2486 5.28797 19.9536 5.05234 19.7493C2.80854 17.8024 1.51187 14.9845 1.49371 12.0172C1.56213 9.14132 2.74547 6.46186 4.82702 4.47096C6.91067 2.47796 9.6483 1.41194 12.5331 1.4684L12.5476 1.46859L12.5621 1.4684C15.4471 1.41251 18.1845 2.47796 20.2684 4.47096C22.348 6.46014 23.5313 9.1375 23.6015 12.0107C23.5313 14.8842 22.348 17.5613 20.2684 19.5505Z" fill="#FFCF5C"/>
</g>
<defs>
<clipPath id="clip0">
<rect width="25" height="25" fill="white"/>
</clipPath>
</defs>
</svg>
