<svg width="30" height="30" viewBox="0 0 30 30" fill="none" xmlns="http://www.w3.org/2000/svg">
<path d="M1.46509 29.9996C1.17534 29.9997 0.892077 29.9138 0.651139 29.7529C0.410201 29.5919 0.22241 29.3631 0.111518 29.0954C0.000627479 28.8277 -0.0283812 28.5332 0.0281616 28.249C0.0847045 27.9648 0.224259 27.7038 0.429172 27.4989L27.499 0.429091C27.7737 0.154349 28.1464 0 28.5349 0C28.9234 0 29.2961 0.154349 29.5708 0.429091C29.8456 0.703834 29.9999 1.07646 29.9999 1.46501C29.9999 1.85355 29.8456 2.22619 29.5708 2.50093L2.50101 29.5707C2.3651 29.7069 2.20361 29.8149 2.02584 29.8885C1.84806 29.9621 1.6575 29.9999 1.46509 29.9996Z" fill="#393333"/>
<path d="M28.5349 29.9996C28.3425 29.9999 28.152 29.9621 27.9742 29.8885C27.7964 29.8149 27.6349 29.7069 27.499 29.5707L0.429213 2.50093C0.154471 2.22619 0.00012207 1.85355 0.00012207 1.46501C0.00012207 1.07646 0.154471 0.703834 0.429213 0.429091C0.703956 0.154349 1.07659 0 1.46513 0C1.85368 0 2.22631 0.154349 2.50105 0.429091L29.5709 27.4989C29.7758 27.7038 29.9153 27.9648 29.9719 28.249C30.0284 28.5332 29.9994 28.8277 29.8885 29.0954C29.7776 29.3631 29.5898 29.5919 29.3489 29.7529C29.108 29.9138 28.8247 29.9997 28.5349 29.9996Z" fill="#393333"/>
</svg>
