<svg width="50" height="50" viewBox="0 0 50 50" fill="none" xmlns="http://www.w3.org/2000/svg">
<g clip-path="url(#clip0)">
<path d="M8.06592 31.1593C8.06483 31.3464 8.11933 31.5297 8.22251 31.6858C8.32569 31.8419 8.47291 31.9639 8.64549 32.0363C8.81808 32.1087 9.00827 32.1282 9.19195 32.0923C9.37564 32.0565 9.54454 31.9669 9.67726 31.835C9.80998 31.703 9.90053 31.5346 9.93745 31.3512C9.97436 31.1677 9.95597 30.9774 9.8846 30.8044C9.81324 30.6314 9.69211 30.4835 9.53658 30.3794C9.38105 30.2753 9.19812 30.2197 9.01097 30.2197C8.76128 30.2197 8.52173 30.3185 8.34465 30.4946C8.16758 30.6706 8.06737 30.9096 8.06592 31.1593Z" fill="#393333"/>
<path d="M48.901 16.1429L47.0274 14.2857C46.7401 13.9949 46.3978 13.7641 46.0205 13.6065C45.6433 13.449 45.2384 13.368 44.8296 13.3682C44.4208 13.368 44.016 13.449 43.6387 13.6065C43.2614 13.7641 42.9192 13.9949 42.6318 14.2857L19.5549 37.3627C19.456 37.4561 17.5109 44.4396 17.5109 44.4396C17.4624 44.6025 17.4593 44.7757 17.5019 44.9403C17.5445 45.1049 17.6312 45.2547 17.7527 45.3737C17.8751 45.4901 18.0246 45.5742 18.1877 45.6183C18.3508 45.6624 18.5223 45.6652 18.6867 45.6264C18.6867 45.6264 25.6593 43.8297 25.8296 43.6484L48.9065 20.5715C49.4837 19.9855 49.8072 19.1961 49.8072 18.3737C49.8072 17.5512 49.4837 16.7618 48.9065 16.1759L48.901 16.1429ZM19.7802 43.3407L20.7307 39.9506L23.1977 42.4176L19.7802 43.3407ZM25.1208 41.6209L21.5549 38.0495L42.1867 17.4176L45.7527 20.9835L25.1208 41.6209ZM47.5384 19.1978L47.1153 19.6209L43.5494 16.055L43.9725 15.6319C44.0842 15.52 44.2169 15.4313 44.3631 15.3709C44.5093 15.3106 44.666 15.2797 44.8241 15.2803C45.1432 15.281 45.4491 15.4074 45.6758 15.6319L47.5384 17.5C47.6502 17.6113 47.7389 17.7436 47.7995 17.8893C47.86 18.035 47.8912 18.1912 47.8912 18.3489C47.8912 18.5067 47.86 18.6629 47.7995 18.8086C47.7389 18.9543 47.6502 19.0865 47.5384 19.1978Z" fill="#393333"/>
<path d="M29.2967 24.1319C29.2967 23.8769 29.1954 23.6324 29.0151 23.452C28.8348 23.2717 28.5902 23.1704 28.3352 23.1704H14.3407C14.0857 23.1704 13.8411 23.2717 13.6608 23.452C13.4804 23.6324 13.3791 23.8769 13.3791 24.1319C13.3791 24.387 13.4804 24.6315 13.6608 24.8118C13.8411 24.9922 14.0857 25.0935 14.3407 25.0935H28.3352C28.5898 25.092 28.8335 24.9903 29.0135 24.8103C29.1935 24.6302 29.2953 24.3865 29.2967 24.1319Z" fill="#393333"/>
<path d="M28.3352 15.0933H14.3407C14.0857 15.0933 13.8411 15.1946 13.6608 15.3749C13.4804 15.5552 13.3791 15.7998 13.3791 16.0548C13.3791 16.3098 13.4804 16.5544 13.6608 16.7347C13.8411 16.915 14.0857 17.0163 14.3407 17.0163H28.3352C28.5902 17.0163 28.8348 16.915 29.0151 16.7347C29.1954 16.5544 29.2967 16.3098 29.2967 16.0548C29.2967 15.7998 29.1954 15.5552 29.0151 15.3749C28.8348 15.1946 28.5902 15.0933 28.3352 15.0933Z" fill="#393333"/>
<path d="M14.3407 30.2197C14.0857 30.2197 13.8411 30.321 13.6608 30.5014C13.4804 30.6817 13.3791 30.9262 13.3791 31.1813C13.3791 31.4363 13.4804 31.6808 13.6608 31.8612C13.8411 32.0415 14.0857 32.1428 14.3407 32.1428H18.3242C18.5792 32.1428 18.8238 32.0415 19.0041 31.8612C19.1844 31.6808 19.2857 31.4363 19.2857 31.1813C19.2857 30.9262 19.1844 30.6817 19.0041 30.5014C18.8238 30.321 18.5792 30.2197 18.3242 30.2197H14.3407Z" fill="#393333"/>
<path d="M33.5879 39.3132C33.3329 39.3132 33.0883 39.4145 32.908 39.5948C32.7277 39.7751 32.6264 40.0197 32.6264 40.2747V44.4615C32.6249 45.4345 32.2377 46.3672 31.5497 47.0552C30.8617 47.7432 29.929 48.1304 28.956 48.1319L2.38459 48V5.03296H6.73075V6.54945C6.73075 6.80446 6.83205 7.04903 7.01238 7.22936C7.1927 7.40968 7.43727 7.51098 7.69229 7.51098C7.9473 7.51098 8.19187 7.40968 8.3722 7.22936C8.55252 7.04903 8.65382 6.80446 8.65382 6.54945V5.03296H16.5384V6.54945C16.5384 6.80446 16.6397 7.04903 16.8201 7.22936C17.0004 7.40968 17.245 7.51098 17.5 7.51098C17.755 7.51098 17.9996 7.40968 18.1799 7.22936C18.3602 7.04903 18.4615 6.80446 18.4615 6.54945V5.03296H26.3736V6.54945C26.3736 6.80446 26.4749 7.04903 26.6552 7.22936C26.8356 7.40968 27.0801 7.51098 27.3351 7.51098C27.5902 7.51098 27.8347 7.40968 28.0151 7.22936C28.1954 7.04903 28.2967 6.80446 28.2967 6.54945V5.03296H32.5879V18.5165C32.5879 18.7715 32.6892 19.0161 32.8695 19.1964C33.0498 19.3767 33.2944 19.478 33.5494 19.478C33.8044 19.478 34.049 19.3767 34.2293 19.1964C34.4097 19.0161 34.511 18.7715 34.511 18.5165V4.07142C34.511 3.94233 34.4851 3.81454 34.4348 3.69568C34.3844 3.57682 34.3106 3.46932 34.2178 3.37959C34.125 3.28986 34.015 3.21973 33.8946 3.17339C33.7741 3.12706 33.6455 3.10546 33.5165 3.10988H28.2747V0.983511C28.2747 0.728495 28.1734 0.483924 27.9931 0.303601C27.8128 0.123277 27.5682 0.0219727 27.3132 0.0219727C27.0581 0.0219727 26.8136 0.123277 26.6333 0.303601C26.4529 0.483924 26.3516 0.728495 26.3516 0.983511V3.10988H18.4615V0.983511C18.4615 0.728495 18.3602 0.483924 18.1799 0.303601C17.9996 0.123277 17.755 0.0219727 17.5 0.0219727C17.245 0.0219727 17.0004 0.123277 16.8201 0.303601C16.6397 0.483924 16.5384 0.728495 16.5384 0.983511V3.10988H8.65382V0.983511C8.65382 0.85724 8.62895 0.732206 8.58063 0.615546C8.53231 0.498887 8.46148 0.392888 8.3722 0.303601C8.28291 0.214314 8.17691 0.143487 8.06025 0.0951654C7.94359 0.0468436 7.81856 0.0219727 7.69229 0.0219727C7.56602 0.0219727 7.44098 0.0468436 7.32432 0.0951654C7.20766 0.143487 7.10166 0.214314 7.01238 0.303601C6.92309 0.392888 6.85226 0.498887 6.80394 0.615546C6.75562 0.732206 6.73075 0.85724 6.73075 0.983511V3.10988H1.42306C1.16804 3.10988 0.923469 3.21119 0.743146 3.39151C0.562823 3.57184 0.461518 3.81641 0.461518 4.07142V48.956C0.460794 49.0821 0.484988 49.207 0.532709 49.3236C0.580431 49.4402 0.650738 49.5463 0.739587 49.6356C0.828436 49.725 0.934074 49.7959 1.05043 49.8443C1.16678 49.8927 1.29155 49.9176 1.41756 49.9176L28.9505 50.0549C30.4341 50.0535 31.8565 49.4639 32.906 48.4154C33.9555 47.3669 34.5465 45.9451 34.5494 44.4615V40.2747C34.548 40.0202 34.4462 39.7764 34.2662 39.5964C34.0862 39.4164 33.8425 39.3146 33.5879 39.3132Z" fill="#393333"/>
<path d="M11.5384 12.3902C11.4365 12.3157 11.3209 12.2622 11.1982 12.2326C11.0755 12.2031 10.9481 12.1981 10.8235 12.218C10.6988 12.238 10.5794 12.2824 10.472 12.3487C10.3646 12.415 10.2714 12.502 10.1978 12.6045L8.02745 15.599L7.69228 15.3023C7.59435 15.216 7.47989 15.1506 7.35586 15.11C7.23183 15.0694 7.10083 15.0545 6.97085 15.0661C6.84086 15.0778 6.71461 15.1158 6.59978 15.1778C6.48496 15.2398 6.38395 15.3245 6.30293 15.4268C6.2219 15.5291 6.16255 15.6469 6.12849 15.7729C6.09443 15.8988 6.08638 16.0304 6.10481 16.1596C6.12325 16.2888 6.16779 16.4129 6.23572 16.5244C6.30366 16.6358 6.39357 16.7322 6.49997 16.8078L7.66481 17.7309C7.83274 17.8666 8.0423 17.9403 8.25821 17.9396H8.39008C8.5184 17.9222 8.64191 17.8792 8.75328 17.8131C8.86465 17.747 8.96162 17.6593 9.03844 17.555L11.7857 13.7418C11.8603 13.6376 11.9131 13.5194 11.9411 13.3943C11.9691 13.2692 11.9716 13.1397 11.9485 13.0136C11.9255 12.8875 11.8773 12.7673 11.8068 12.6602C11.7364 12.5531 11.6451 12.4613 11.5384 12.3902Z" fill="#393333"/>
<path d="M11.5384 20.1209C11.3321 19.972 11.0751 19.9109 10.8238 19.951C10.5725 19.9912 10.3474 20.1293 10.1978 20.3352L8.02744 23.3352L7.69228 23.0385C7.59435 22.9522 7.47988 22.8868 7.35586 22.8462C7.23183 22.8056 7.10083 22.7907 6.97085 22.8023C6.84086 22.814 6.71461 22.852 6.59978 22.914C6.48496 22.976 6.38395 23.0608 6.30293 23.1631C6.2219 23.2654 6.16255 23.3831 6.12849 23.5091C6.09443 23.6351 6.08638 23.7667 6.10481 23.8959C6.12325 24.0251 6.16779 24.1491 6.23572 24.2606C6.30366 24.372 6.39357 24.4684 6.49997 24.544L7.65931 25.4671C7.8298 25.602 8.04078 25.6756 8.25821 25.6759H8.39008C8.51511 25.6539 8.63447 25.607 8.7411 25.5381C8.84774 25.4693 8.9395 25.3797 9.01096 25.2748L11.7582 21.4671C11.9069 21.2592 11.9673 21.0009 11.9261 20.7487C11.8849 20.4964 11.7455 20.2707 11.5384 20.1209Z" fill="#393333"/>
</g>
<defs>
<clipPath id="clip0">
<rect width="50" height="50" fill="white"/>
</clipPath>
</defs>
</svg>
