<svg width="50" height="50" viewBox="0 0 50 50" fill="none" xmlns="http://www.w3.org/2000/svg">
<path d="M22.8627 34.4284L28.5715 32.9669C28.7632 32.9334 28.9398 32.8413 29.0769 32.7031L48.9506 12.8185C49.4787 12.2891 49.7753 11.5718 49.7753 10.824C49.7753 10.0762 49.4787 9.35893 48.9506 8.8295L47.3462 7.21961C47.084 6.95656 46.7723 6.74824 46.4289 6.60675C46.0856 6.46526 45.7175 6.39343 45.3462 6.39543C44.9757 6.39416 44.6087 6.46635 44.2664 6.60781C43.9241 6.74928 43.6131 6.95722 43.3517 7.21961L40.055 10.5163V4.30202C40.0542 3.7823 39.951 3.26783 39.7511 2.78809C39.5512 2.30834 39.2586 1.87275 38.8901 1.50627C38.5216 1.1398 38.0844 0.849638 37.6035 0.652419C37.1227 0.4552 36.6077 0.354799 36.0879 0.356968H4.36266C3.31681 0.358422 2.31421 0.774527 1.57469 1.51405C0.835161 2.25358 0.419056 3.25618 0.417603 4.30202V38.7196C0.419056 39.7655 0.835161 40.768 1.57469 41.5076C2.31421 42.2471 3.31681 42.6632 4.36266 42.6647H19.4286L28.9176 49.4504C29.0612 49.5534 29.2304 49.6148 29.4067 49.6279C29.583 49.6411 29.7594 49.6053 29.9167 49.5247C30.074 49.4441 30.206 49.3217 30.2982 49.1709C30.3905 49.0202 30.4394 48.8469 30.4396 48.6702V42.6647H36.0879C37.1338 42.6632 38.1364 42.2471 38.8759 41.5076C39.6154 40.768 40.0315 39.7655 40.033 38.7196V27.824C40.033 27.569 39.9317 27.3244 39.7514 27.1441C39.571 26.9638 39.3265 26.8625 39.0714 26.8625C38.8164 26.8625 38.5719 26.9638 38.3915 27.1441C38.2112 27.3244 38.1099 27.569 38.1099 27.824V38.7196C38.1099 38.9851 38.0576 39.2481 37.956 39.4934C37.8544 39.7387 37.7054 39.9616 37.5177 40.1494C37.3299 40.3371 37.107 40.4861 36.8617 40.5877C36.6164 40.6893 36.3535 40.7416 36.0879 40.7416H27.9341C27.6791 40.7416 27.4345 40.8429 27.2542 41.0232C27.0739 41.2035 26.9725 41.4481 26.9725 41.7031C26.9725 41.9581 27.0739 42.2027 27.2542 42.383C27.4345 42.5634 27.6791 42.6647 27.9341 42.6647H28.5165V46.802L20.2747 40.9174C20.1142 40.8033 19.9222 40.7419 19.7253 40.7416H4.34068C4.07515 40.7416 3.81222 40.6893 3.5669 40.5877C3.32158 40.4861 3.09868 40.3371 2.91093 40.1494C2.72317 39.9616 2.57423 39.7387 2.47262 39.4934C2.371 39.2481 2.3187 38.9851 2.3187 38.7196V4.30202C2.31869 4.03463 2.37171 3.7699 2.47469 3.52314C2.57768 3.27637 2.72858 3.05249 2.91867 2.86444C3.10877 2.67639 3.33427 2.52792 3.58213 2.4276C3.82999 2.32729 4.09528 2.27714 4.36266 2.28005H36.0879C36.6242 2.28005 37.1385 2.49307 37.5177 2.87227C37.8969 3.25146 38.1099 3.76576 38.1099 4.30202V12.4614L23.478 27.0932C23.341 27.2312 23.2491 27.4074 23.2143 27.5987L21.6868 33.2416C21.6383 33.4045 21.6352 33.5776 21.6778 33.7422C21.7204 33.9069 21.8071 34.0567 21.9286 34.1757C22.0502 34.2934 22.1997 34.3783 22.363 34.4225C22.5264 34.4667 22.6983 34.4688 22.8627 34.4284ZM43.0824 10.2086L45.9616 13.0877L28.3791 30.6702L25.5 27.7965L43.0824 10.2086ZM24.6923 29.6702L26.4835 31.4614L23.9945 32.1372L24.6923 29.6702ZM45.3462 8.31851C45.4646 8.31816 45.5819 8.34128 45.6913 8.38655C45.8007 8.43182 45.9 8.49834 45.9835 8.58224L47.5879 10.1866C47.6715 10.2699 47.7378 10.3687 47.783 10.4777C47.8283 10.5866 47.8516 10.7033 47.8516 10.8213C47.8516 10.9392 47.8283 11.056 47.783 11.1649C47.7378 11.2738 47.6715 11.3727 47.5879 11.4559L47.3187 11.7251L44.4451 8.85147L44.7143 8.58224C44.7964 8.498 44.8947 8.43121 45.0033 8.38589C45.1119 8.34057 45.2285 8.31765 45.3462 8.31851Z" fill="#393333"/>
<path d="M9.489 10.0823H17.3242C17.5792 10.0823 17.8238 9.98095 18.0041 9.80063C18.1844 9.62031 18.2857 9.37574 18.2857 9.12072C18.2857 8.8657 18.1844 8.62113 18.0041 8.44081C17.8238 8.26048 17.5792 8.15918 17.3242 8.15918H9.489C9.23399 8.15918 8.98942 8.26048 8.80909 8.44081C8.62877 8.62113 8.52747 8.8657 8.52747 9.12072C8.52747 9.37574 8.62877 9.62031 8.80909 9.80063C8.98942 9.98095 9.23399 10.0823 9.489 10.0823Z" fill="#393333"/>
<path d="M27.5331 10.0823C27.7881 10.0823 28.0327 9.98095 28.213 9.80063C28.3933 9.62031 28.4946 9.37574 28.4946 9.12072C28.4946 8.8657 28.3933 8.62113 28.213 8.44081C28.0327 8.26048 27.7881 8.15918 27.5331 8.15918H21.5441C21.289 8.15918 21.0445 8.26048 20.8641 8.44081C20.6838 8.62113 20.5825 8.8657 20.5825 9.12072C20.5825 9.37574 20.6838 9.62031 20.8641 9.80063C21.0445 9.98095 21.289 10.0823 21.5441 10.0823H27.5331Z" fill="#393333"/>
<path d="M9.489 18.1316H13.1868C13.4418 18.1316 13.6864 18.0303 13.8667 17.8499C14.047 17.6696 14.1483 17.4251 14.1483 17.17C14.1483 16.915 14.047 16.6704 13.8667 16.4901C13.6864 16.3098 13.4418 16.2085 13.1868 16.2085H9.489C9.23399 16.2085 8.98942 16.3098 8.80909 16.4901C8.62877 16.6704 8.52747 16.915 8.52747 17.17C8.52747 17.4251 8.62877 17.6696 8.80909 17.8499C8.98942 18.0303 9.23399 18.1316 9.489 18.1316Z" fill="#393333"/>
<path d="M21.1868 25.2359C21.1868 24.9809 21.0855 24.7364 20.9052 24.556C20.7249 24.3757 20.4803 24.2744 20.2253 24.2744H16.8791C16.6241 24.2744 16.3796 24.3757 16.1992 24.556C16.0189 24.7364 15.9176 24.9809 15.9176 25.2359C15.9176 25.491 16.0189 25.7355 16.1992 25.9159C16.3796 26.0962 16.6241 26.1975 16.8791 26.1975H20.2253C20.4803 26.1975 20.7249 26.0962 20.9052 25.9159C21.0855 25.7355 21.1868 25.491 21.1868 25.2359Z" fill="#393333"/>
<path d="M9.489 34.2527H18.7308C18.9858 34.2527 19.2304 34.1513 19.4107 33.971C19.591 33.7907 19.6923 33.5461 19.6923 33.2911C19.6923 33.0361 19.591 32.7915 19.4107 32.6112C19.2304 32.4309 18.9858 32.3296 18.7308 32.3296H9.489C9.23399 32.3296 8.98942 32.4309 8.80909 32.6112C8.62877 32.7915 8.52747 33.0361 8.52747 33.2911C8.52747 33.5461 8.62877 33.7907 8.80909 33.971C8.98942 34.1513 9.23399 34.2527 9.489 34.2527Z" fill="#393333"/>
<path d="M33.0166 10.0823C33.2716 10.0823 33.5161 9.98095 33.6965 9.80063C33.8768 9.62031 33.9781 9.37574 33.9781 9.12072C33.9781 8.8657 33.8768 8.62113 33.6965 8.44081C33.5161 8.26048 33.2716 8.15918 33.0166 8.15918H31.1704C30.9154 8.15918 30.6708 8.26048 30.4905 8.44081C30.3102 8.62113 30.2089 8.8657 30.2089 9.12072C30.2089 9.37574 30.3102 9.62031 30.4905 9.80063C30.6708 9.98095 30.9154 10.0823 31.1704 10.0823H33.0166Z" fill="#393333"/>
<path d="M28.4945 17.1813C28.4945 16.9262 28.3932 16.6817 28.2128 16.5014C28.0325 16.321 27.7879 16.2197 27.5329 16.2197H17.0934C16.9671 16.2197 16.8421 16.2446 16.7254 16.2929C16.6087 16.3412 16.5028 16.4121 16.4135 16.5014C16.3242 16.5906 16.2533 16.6966 16.205 16.8133C16.1567 16.93 16.1318 17.055 16.1318 17.1813C16.1318 17.3075 16.1567 17.4326 16.205 17.5492C16.2533 17.6659 16.3242 17.7719 16.4135 17.8612C16.5028 17.9505 16.6087 18.0213 16.7254 18.0696C16.8421 18.1179 16.9671 18.1428 17.0934 18.1428H27.5329C27.7879 18.1428 28.0325 18.0415 28.2128 17.8612C28.3932 17.6809 28.4945 17.4363 28.4945 17.1813Z" fill="#393333"/>
<path d="M12.4835 24.2744H10.4396C10.1845 24.2744 9.93998 24.3757 9.75966 24.556C9.57933 24.7364 9.47803 24.9809 9.47803 25.2359C9.47803 25.491 9.57933 25.7355 9.75966 25.9159C9.93998 26.0962 10.1845 26.1975 10.4396 26.1975H12.511C12.766 26.1975 13.0106 26.0962 13.1909 25.9159C13.3712 25.7355 13.4725 25.491 13.4725 25.2359C13.4725 24.9809 13.3712 24.7364 13.1909 24.556C13.0106 24.3757 12.766 24.2744 12.511 24.2744H12.4835Z" fill="#393333"/>
</svg>
