<svg width="25" height="25" viewBox="0 0 25 25" fill="none" xmlns="http://www.w3.org/2000/svg">
<path d="M16.9535 14.7075L13.4678 12.0932V6.76794C13.4678 6.23249 13.035 5.79968 12.4995 5.79968C11.9641 5.79968 11.5312 6.23249 11.5312 6.76794V12.5774C11.5312 12.8824 11.6746 13.17 11.9186 13.352L15.7915 16.2568C15.9658 16.3875 16.1691 16.4504 16.3715 16.4504C16.6668 16.4504 16.9573 16.3178 17.1471 16.0621C17.4686 15.6351 17.3814 15.028 16.9535 14.7075Z" fill="#393333"/>
<path d="M12.5 0C5.60708 0 0 5.60708 0 12.5C0 19.3929 5.60708 25 12.5 25C19.3929 25 25 19.3929 25 12.5C25 5.60708 19.3929 0 12.5 0ZM12.5 23.0635C6.67603 23.0635 1.93647 18.324 1.93647 12.5C1.93647 6.67603 6.67603 1.93647 12.5 1.93647C18.325 1.93647 23.0635 6.67603 23.0635 12.5C23.0635 18.324 18.324 23.0635 12.5 23.0635Z" fill="#393333"/>
</svg>
