<svg width="50" height="50" viewBox="0 0 50 50" fill="none" xmlns="http://www.w3.org/2000/svg">
<path d="M47.033 39.0105C47.033 39.0105 46.8681 38.516 45.8242 34.9995C44.6154 30.9336 36.978 28.7358 34.9451 28.2413L35.1648 27.472C35.2747 27.1424 35.1648 26.7578 34.8901 26.483L33.0769 24.7248C32.6923 24.3951 32.1429 24.3951 31.7582 24.7248L25 31.2083L18.2418 24.7248C17.8571 24.3951 17.3077 24.3951 16.9231 24.7248L15.0549 26.483C14.7802 26.7578 14.6703 27.0874 14.7802 27.472L15 28.2413C12.967 28.7358 5.32967 30.9885 4.12088 34.9995L2.96703 39.0105C2.8022 39.505 3.07692 40.0545 3.62637 40.2193C3.73626 40.2193 3.79121 40.2742 3.9011 40.2742C4.34066 40.2742 4.67033 39.9995 4.83517 39.6149L6.04396 35.6039C6.86813 32.8567 12.967 30.7687 15.6044 30.1094L17.1429 35.3292C17.3077 35.8237 17.8571 36.1534 18.4066 35.9336L21.2088 34.7797L22.033 37.0325L19.2857 48.4611C19.1758 48.9556 19.5055 49.505 20 49.6149H20.2198C20.6593 49.6149 21.044 49.3402 21.1538 48.9006L23.7912 37.9116H26.1538L28.7912 48.8457C28.9011 49.3402 29.4505 49.6698 29.9451 49.56C30.4396 49.4501 30.7692 48.9006 30.6593 48.4061L27.9121 37.0325L28.7363 34.7797L31.5934 35.9336C31.8681 36.0435 32.1429 36.0435 32.3626 35.9336C32.5824 35.8237 32.8022 35.6039 32.8571 35.3292L34.3956 30.1094C36.9231 30.7687 43.1319 32.8567 43.956 35.6039C45 39.1204 45.1648 39.6149 45.1648 39.6149C45.2747 40.0545 45.6593 40.3292 46.0989 40.3292C46.2088 40.3292 46.2637 40.3292 46.3736 40.2742C46.9231 40.0545 47.1978 39.505 47.033 39.0105ZM16.8132 27.472L17.5824 26.7578L23.022 31.9775L18.6813 33.7358L16.8132 27.472ZM26.2637 35.9336H23.7363L23.022 34.0105L25.0549 33.1863L27.033 33.9556L26.2637 35.9336ZM31.3736 33.6808L27.033 31.9226L32.4725 26.7028L33.2418 27.4171L31.3736 33.6808Z" fill="#393333"/>
<path d="M39.6704 40.0547H35.4396C34.8901 40.0547 34.4506 40.4942 34.4506 41.0437C34.4506 41.5931 34.8901 42.0327 35.4396 42.0327H39.6704C40.2198 42.0327 40.6594 41.5931 40.6594 41.0437C40.6594 40.4942 40.2198 40.0547 39.6704 40.0547Z" fill="#393333"/>
<path d="M16.1539 18.5711C16.9231 20.604 18.3517 22.5821 20.2747 24.2304C21.4286 25.2194 23.4066 26.2634 24.9451 26.2634C26.2637 26.2634 27.3077 25.7689 28.4066 25.1095C30.7692 23.5711 32.6374 21.3733 33.6813 18.8458C34.6703 16.4282 35.1099 13.8458 35.1099 10.9337C35.1099 8.02162 35.1099 10.3293 35.1099 10.1645C35.055 8.51613 34.5055 6.86777 33.5714 5.38426C32.6923 3.95569 31.4835 2.80184 30.055 1.92272C28.5714 1.0436 26.978 0.549093 25.3297 0.494148C23.6813 0.439203 22.0879 0.768874 20.6044 1.5381C18.7363 2.47217 17.2528 3.90074 16.2088 5.76887C15.3846 7.25239 14.9451 8.79085 14.8901 10.3293C14.8901 11.4282 14.8901 12.5271 15.055 13.626C15.2198 15.4392 15.6044 17.0876 16.1539 18.5711ZM17.8572 6.64799C18.7363 5.10953 19.9451 3.95569 21.4835 3.18646C22.5824 2.63701 23.7363 2.36228 24.9451 2.36228H25.2198C26.5385 2.41723 27.8572 2.80184 29.011 3.51613C30.2198 4.23041 31.1539 5.21942 31.8681 6.37327C32.6374 7.63701 33.022 8.90074 33.1319 10.2194C33.1319 10.3843 33.1319 14.4502 31.8132 18.1315C31.044 20.3293 29.3407 22.1974 27.3077 23.4612C26.2088 24.1755 25.4396 24.5051 24.1758 24.2854C23.0769 24.1205 22.4176 23.5711 21.4286 22.7469C19.7253 21.3183 18.5165 19.615 17.8572 17.9117C17.3626 16.5381 17.033 15.0546 16.8681 13.3513C16.7583 12.3623 16.7033 11.3183 16.7583 10.3293C16.8681 9.06558 17.1978 7.80184 17.8572 6.64799Z" fill="#393333"/>
</svg>
