<svg width="50" height="50" viewBox="0 0 50 50" fill="none" xmlns="http://www.w3.org/2000/svg">
<path d="M49.7583 1.26916C49.7583 1.01414 49.657 0.769569 49.4766 0.589245C49.2963 0.408922 49.0517 0.307617 48.7967 0.307617H1.51101C1.25599 0.307617 1.01142 0.408922 0.831097 0.589245C0.650774 0.769569 0.549469 1.01414 0.549469 1.26916V7.31311C0.549469 7.56813 0.650774 7.8127 0.831097 7.99302C1.01142 8.17334 1.25599 8.27465 1.51101 8.27465C1.76602 8.27465 2.01059 8.17334 2.19092 7.99302C2.37124 7.8127 2.47255 7.56813 2.47255 7.31311V2.23069H47.8352V34.0659C47.8337 34.9543 47.4801 35.806 46.8519 36.4342C46.2237 37.0625 45.372 37.4161 44.4835 37.4175H42.6484C42.3934 37.4175 42.1488 37.5188 41.9685 37.6991C41.7881 37.8795 41.6868 38.124 41.6868 38.379C41.6868 38.6341 41.7881 38.8786 41.9685 39.059C42.1488 39.2393 42.3934 39.3406 42.6484 39.3406H44.5055C45.904 39.3391 47.2448 38.7829 48.2337 37.794C49.2226 36.8052 49.7788 35.4644 49.7802 34.0659L49.7583 1.26916Z" fill="#393333"/>
<path d="M7.07694 37.3957H2.47255V12.2034H43.4066C43.6616 12.2034 43.9062 12.102 44.0865 11.9217C44.2668 11.7414 44.3682 11.4968 44.3682 11.2418C44.3682 10.9868 44.2668 10.7422 44.0865 10.5619C43.9062 10.3816 43.6616 10.2803 43.4066 10.2803H1.51101C1.25599 10.2803 1.01142 10.3816 0.831097 10.5619C0.650774 10.7422 0.549469 10.9868 0.549469 11.2418V38.3572C0.549469 38.6122 0.650774 38.8568 0.831097 39.0371C1.01142 39.2174 1.25599 39.3187 1.51101 39.3187H7.07694C7.33196 39.3187 7.57653 39.2174 7.75685 39.0371C7.93718 38.8568 8.03848 38.6122 8.03848 38.3572C8.03848 38.1022 7.93718 37.8576 7.75685 37.6773C7.57653 37.497 7.33196 37.3957 7.07694 37.3957Z" fill="#393333"/>
<path d="M24.8351 24.1045C22.7389 24.1045 20.6897 24.7261 18.9467 25.8907C17.2037 27.0554 15.8452 28.7107 15.043 30.6474C14.2408 32.5841 14.0309 34.7152 14.4399 36.7711C14.8489 38.8271 15.8583 40.7157 17.3406 42.1979C18.8229 43.6802 20.7114 44.6897 22.7674 45.0986C24.8234 45.5076 26.9545 45.2977 28.8912 44.4955C30.8279 43.6933 32.4832 42.3348 33.6478 40.5918C34.8124 38.8489 35.434 36.7997 35.434 34.7034C35.4311 31.8933 34.3135 29.1991 32.3265 27.2121C30.3394 25.225 27.6452 24.1074 24.8351 24.1045ZM25.7967 43.3353V42.0166C25.7967 41.7616 25.6954 41.517 25.515 41.3367C25.3347 41.1563 25.0902 41.055 24.8351 41.055C24.5801 41.055 24.3356 41.1563 24.1552 41.3367C23.9749 41.517 23.8736 41.7616 23.8736 42.0166V43.3243C21.9185 43.1029 20.0963 42.2248 18.705 40.8335C17.3137 39.4422 16.4356 37.62 16.2143 35.6649H17.522C17.777 35.6649 18.0215 35.5636 18.2019 35.3833C18.3822 35.203 18.4835 34.9584 18.4835 34.7034C18.4835 34.4484 18.3822 34.2038 18.2019 34.0235C18.0215 33.8432 17.777 33.7419 17.522 33.7419H16.2143C16.4366 31.7871 17.315 29.9655 18.7061 28.5743C20.0972 27.1832 21.9189 26.3048 23.8736 26.0825V27.3902C23.8736 27.6452 23.9749 27.8898 24.1552 28.0701C24.3356 28.2504 24.5801 28.3517 24.8351 28.3517C25.0902 28.3517 25.3347 28.2504 25.515 28.0701C25.6954 27.8898 25.7967 27.6452 25.7967 27.3902V26.0825C27.7518 26.3039 29.574 27.182 30.9653 28.5733C32.3566 29.9646 33.2347 31.7867 33.456 33.7419H32.1483C31.8933 33.7419 31.6487 33.8432 31.4684 34.0235C31.2881 34.2038 31.1868 34.4484 31.1868 34.7034C31.1868 34.9584 31.2881 35.203 31.4684 35.3833C31.6487 35.5636 31.8933 35.6649 32.1483 35.6649H33.456C33.2359 37.6159 32.3617 39.4349 30.9759 40.8257C29.5901 42.2165 27.7743 43.0971 25.8241 43.3243L25.7967 43.3353Z" fill="#393333"/>
<path d="M28.1209 20.1211V18.0881H29.1209C29.3759 18.0881 29.6205 17.9868 29.8008 17.8065C29.9811 17.6262 30.0824 17.3816 30.0824 17.1266C30.0824 16.8716 29.9811 16.627 29.8008 16.4467C29.6205 16.2663 29.3759 16.165 29.1209 16.165H20.544C20.289 16.165 20.0444 16.2663 19.8641 16.4467C19.6838 16.627 19.5824 16.8716 19.5824 17.1266C19.5824 17.3816 19.6838 17.6262 19.8641 17.8065C20.0444 17.9868 20.289 18.0881 20.544 18.0881H21.5495V20.1211C19.9128 20.489 18.3503 21.1318 16.9286 22.0222L16.4066 21.1266L16.6923 20.9562C16.9032 20.8214 17.0531 20.6097 17.1103 20.3661C17.1676 20.1224 17.1275 19.8661 16.9988 19.6515C16.87 19.4369 16.6627 19.281 16.4208 19.2168C16.1789 19.1526 15.9215 19.1853 15.7033 19.3079L13.5934 20.5716C13.4133 20.6799 13.2736 20.8442 13.1957 21.0394C13.1178 21.2345 13.106 21.4499 13.162 21.6524C13.2181 21.855 13.339 22.0335 13.5062 22.1609C13.6735 22.2882 13.8778 22.3572 14.0879 22.3573C14.2604 22.357 14.4295 22.3095 14.577 22.22L14.7528 22.1156L15.3846 23.1486C12.7726 25.2918 10.9638 28.257 10.2535 31.5603C9.54319 34.8636 9.9732 38.3102 11.4734 41.3377C12.9736 44.3653 15.4555 46.7951 18.5141 48.2309C21.5727 49.6666 25.0276 50.0235 28.3152 49.2434C31.6027 48.4633 34.5289 46.5922 36.6164 43.9353C38.7038 41.2784 39.8294 37.9925 39.8094 34.6137C39.7894 31.235 38.6251 27.9627 36.5063 25.3306C34.3876 22.6986 31.4394 20.8623 28.1429 20.1211H28.1209ZM23.4726 18.0881H26.2198V19.8134C25.7473 19.7804 25.2748 19.7804 24.8407 19.7804C24.4066 19.7804 23.9231 19.7804 23.4726 19.8409V18.0881ZM24.8407 47.7584C22.2636 47.7595 19.7441 46.9963 17.6009 45.5652C15.4577 44.1342 13.7871 42.0996 12.8004 39.7189C11.8137 37.3382 11.5553 34.7184 12.0578 32.1908C12.5603 29.6632 13.8011 27.3414 15.6234 25.5192C17.4456 23.6969 19.7674 22.456 22.295 21.9536C24.8226 21.4511 27.4424 21.7095 29.8231 22.6962C32.2038 23.6829 34.2384 25.3535 35.6694 27.4967C37.1005 29.6399 37.8638 32.1594 37.8627 34.7365C37.8496 38.1836 36.4726 41.4853 34.0325 43.9202C31.5925 46.3551 28.2878 47.7252 24.8407 47.731V47.7584Z" fill="#393333"/>
<path d="M25.8242 33.4123V30.4947C25.8242 30.2397 25.7229 29.9952 25.5426 29.8148C25.3622 29.6345 25.1177 29.5332 24.8626 29.5332C24.6076 29.5332 24.3631 29.6345 24.1827 29.8148C24.0024 29.9952 23.9011 30.2397 23.9011 30.4947V33.4123C23.6436 33.6127 23.455 33.8885 23.3619 34.2012C23.2687 34.5139 23.2756 34.848 23.3815 35.1566C23.4874 35.4652 23.6871 35.7331 23.9526 35.9227C24.2182 36.1123 24.5363 36.2142 24.8626 36.2142C25.1889 36.2142 25.5071 36.1123 25.7726 35.9227C26.0382 35.7331 26.2379 35.4652 26.3438 35.1566C26.4497 34.848 26.4566 34.5139 26.3634 34.2012C26.2702 33.8885 26.0817 33.6127 25.8242 33.4123Z" fill="#393333"/>
<path d="M8.37362 7.6699C8.90162 7.6699 9.32966 7.24186 9.32966 6.71386C9.32966 6.18585 8.90162 5.75781 8.37362 5.75781C7.84561 5.75781 7.41757 6.18585 7.41757 6.71386C7.41757 7.24186 7.84561 7.6699 8.37362 7.6699Z" fill="#393333"/>
<path d="M14.544 7.6699C15.072 7.6699 15.5001 7.24186 15.5001 6.71386C15.5001 6.18585 15.072 5.75781 14.544 5.75781C14.016 5.75781 13.588 6.18585 13.588 6.71386C13.588 7.24186 14.016 7.6699 14.544 7.6699Z" fill="#393333"/>
<path d="M20.7198 7.6699C21.2478 7.6699 21.6759 7.24186 21.6759 6.71386C21.6759 6.18585 21.2478 5.75781 20.7198 5.75781C20.1918 5.75781 19.7638 6.18585 19.7638 6.71386C19.7638 7.24186 20.1918 7.6699 20.7198 7.6699Z" fill="#393333"/>
</svg>
