<svg width="35" height="35" viewBox="0 0 35 35" fill="none" xmlns="http://www.w3.org/2000/svg">
<path d="M17.5 33.0528C17.0017 33.0528 16.5213 32.8722 16.1469 32.5443C14.733 31.308 13.3698 30.1462 12.1671 29.1213L12.161 29.116C8.63489 26.1111 5.58997 23.5161 3.47137 20.9599C1.10309 18.1021 0 15.3926 0 12.4326C0 9.55668 0.986135 6.90349 2.77656 4.96139C4.58835 2.99633 7.07438 1.91406 9.77751 1.91406C11.7978 1.91406 13.6481 2.55279 15.2767 3.81237C16.0986 4.44816 16.8436 5.22628 17.5 6.13391C18.1566 5.22628 18.9013 4.44816 19.7235 3.81237C21.3521 2.55279 23.2024 1.91406 25.2227 1.91406C27.9256 1.91406 30.4119 2.99633 32.2236 4.96139C34.0141 6.90349 34.9999 9.55668 34.9999 12.4326C34.9999 15.3926 33.8971 18.1021 31.5288 20.9596C29.4102 23.5161 26.3656 26.1108 22.84 29.1154C21.6352 30.1419 20.2698 31.3056 18.8527 32.5449C18.4786 32.8722 17.998 33.0528 17.5 33.0528ZM9.77751 3.96431C7.65383 3.96431 5.70292 4.81185 4.28367 6.351C2.84332 7.91339 2.04998 10.0731 2.04998 12.4326C2.04998 14.9221 2.97523 17.1486 5.04977 19.6517C7.05489 22.0712 10.0373 24.6128 13.4905 27.5557L13.4969 27.5611C14.7042 28.5899 16.0727 29.7563 17.497 31.0017C18.9299 29.7539 20.3006 28.5856 21.5102 27.5552C24.9631 24.6123 27.9453 22.0712 29.9504 19.6517C32.0247 17.1486 32.95 14.9221 32.95 12.4326C32.95 10.0731 32.1566 7.91339 30.7163 6.351C29.2973 4.81185 27.3461 3.96431 25.2227 3.96431C23.667 3.96431 22.2386 4.45884 20.9775 5.43403C19.8536 6.30347 19.0706 7.40256 18.6116 8.1716C18.3756 8.56707 17.9601 8.80312 17.5 8.80312C17.0399 8.80312 16.6244 8.56707 16.3883 8.1716C15.9296 7.40256 15.1466 6.30347 14.0225 5.43403C12.7613 4.45884 11.3329 3.96431 9.77751 3.96431Z" fill="#F04438"/>
</svg>
