<svg width="15" height="17" viewBox="0 0 15 17" fill="none" xmlns="http://www.w3.org/2000/svg">
<path fill-rule="evenodd" clip-rule="evenodd" d="M1.8905 0.175079C1.70258 0.0650771 1.48717 0.00472978 1.2665 0.000266869C1.04584 -0.00419604 0.827919 0.0473876 0.63524 0.149692C0.442561 0.251996 0.282105 0.401314 0.170436 0.582232C0.058766 0.76315 -7.03073e-05 0.969112 6.305e-08 1.17886V15.8211C-7.03073e-05 16.0309 0.058766 16.2368 0.170436 16.4178C0.282105 16.5987 0.442561 16.748 0.63524 16.8503C0.827919 16.9526 1.04584 17.0042 1.2665 16.9997C1.48717 16.9953 1.70258 16.9349 1.8905 16.8249C5.05313 14.9759 11.3672 11.2832 14.4095 9.50378C14.59 9.39833 14.739 9.2507 14.8424 9.07499C14.9457 8.89927 15 8.70131 15 8.5C15 8.29869 14.9457 8.10073 14.8424 7.92501C14.739 7.74929 14.59 7.60167 14.4095 7.49622C11.3672 5.71677 5.05313 2.02408 1.8905 0.175079Z" fill="white"/>
</svg>
