<svg width="33" height="33" viewBox="0 0 33 33" fill="none" xmlns="http://www.w3.org/2000/svg">
<path fill-rule="evenodd" clip-rule="evenodd" d="M16.3675 25.8133H18.2509C18.2509 25.8133 18.8002 25.7348 19.114 25.4209C19.3887 25.1462 19.3887 24.5969 19.3887 24.5969C19.3887 24.5969 19.3495 22.0858 20.5266 21.6935C21.6644 21.3403 23.1554 24.1261 24.7248 25.1855C25.9019 26.0094 26.8043 25.8133 26.8043 25.8133L31.0026 25.774C31.0026 25.774 33.1998 25.6563 32.1405 23.9299C32.062 23.773 31.5519 22.6351 29.0408 20.3202C26.412 17.8875 26.7651 18.2799 29.9432 14.0424C31.8658 11.492 32.6505 9.92258 32.4151 9.21632C32.1797 8.58854 30.7672 8.74549 30.7672 8.74549L26.0589 8.78473C26.0589 8.78473 25.7057 8.74549 25.4311 8.90243C25.1172 9.09861 24.9602 9.45174 24.9602 9.45174C24.9602 9.45174 24.2148 11.4528 23.2338 13.1399C21.1151 16.7104 20.2911 16.9066 19.938 16.6712C19.1533 16.1611 19.3495 14.5917 19.3495 13.4931C19.3495 10.0403 19.8595 8.58854 18.3293 8.23542C17.8193 8.11771 17.4269 8.03924 16.1321 8C14.4449 8 13.0324 8 12.2085 8.39236C11.6592 8.66702 11.2668 9.25556 11.5022 9.25556C11.8161 9.2948 12.5224 9.45174 12.8755 9.96181C13.3463 10.6288 13.3463 12.0806 13.3463 12.0806C13.3463 12.0806 13.621 16.1611 12.6793 16.6712C12.0515 17.0243 11.1883 16.3181 9.305 13.0615C8.36333 11.4136 7.61784 9.56945 7.61784 9.56945C7.61784 9.56945 7.4609 9.21632 7.22548 9.05938C7.0293 8.90243 6.63694 8.78473 6.20534 8.78473L2.00706 8.82396C2.00706 8.82396 1.34005 8.82396 1.10463 9.13785C0.869213 9.41251 1.10463 9.92258 1.10463 9.92258C1.10463 9.92258 4.63589 18.123 8.59875 22.2428C12.2477 26.0879 16.3675 25.8133 16.3675 25.8133Z" fill="white"/>
</svg>
