<svg width="191" height="241" viewBox="0 0 191 241" fill="none" xmlns="http://www.w3.org/2000/svg">
<g opacity="0.6" clip-path="url(#clip0)">
<path d="M63.348 256.393C54.2067 256.393 46.7717 248.956 46.7717 239.817C46.7717 230.676 54.2067 223.241 63.348 223.241C72.4869 223.241 79.9242 230.676 79.9242 239.817C79.9242 248.956 72.4869 256.393 63.348 256.393ZM63.348 231.495C58.7589 231.495 55.0265 235.228 55.0265 239.815C55.0265 244.401 58.7589 248.134 63.348 248.134C67.9347 248.134 71.6672 244.401 71.6672 239.815C71.6672 235.228 67.9347 231.495 63.348 231.495Z" fill="white"/>
<path d="M119.377 256.393C110.238 256.393 102.801 248.956 102.801 239.817C102.801 230.676 110.238 223.241 119.377 223.241C128.518 223.241 135.956 230.676 135.956 239.817C135.956 248.956 128.518 256.393 119.377 256.393ZM119.377 231.495C114.791 231.495 111.058 235.228 111.058 239.815C111.058 244.401 114.791 248.134 119.377 248.134C123.966 248.134 127.699 244.401 127.699 239.815C127.699 235.228 123.966 231.495 119.377 231.495Z" fill="white"/>
<path d="M139.861 216.462H59.7685C50.9864 216.46 43.6159 210.165 42.2436 201.491C42.239 201.466 42.2367 201.438 42.2321 201.411L29.2755 107.806C28.5249 103.187 24.5921 99.8371 19.9063 99.8371H3.53964C1.2601 99.8371 -0.588867 97.9881 -0.588867 95.7086C-0.588867 93.429 1.2601 91.5801 3.53964 91.5801H19.9063C28.6906 91.5801 36.0612 97.8776 37.4358 106.551C37.4404 106.579 37.445 106.604 37.4473 106.632L50.4039 200.236C51.1545 204.855 55.0873 208.205 59.7685 208.205H139.861C142.141 208.205 143.99 210.054 143.99 212.334C143.99 214.614 142.143 216.462 139.861 216.462Z" fill="white"/>
<path d="M128.799 176.156C128.796 176.156 128.794 176.156 128.794 176.156H42.2912C40.0093 176.156 38.1626 174.307 38.1626 172.027C38.1626 169.748 40.0093 167.899 42.2912 167.899H128.794H128.796C132.838 167.899 136.441 165.334 137.763 161.516L151.085 123.075H35.4894C33.2098 123.075 31.3608 121.228 31.3608 118.946C31.3608 116.667 33.2098 114.818 35.4894 114.818H156.886C158.221 114.818 159.474 115.465 160.25 116.554C161.023 117.641 161.224 119.036 160.786 120.298L145.564 164.219C143.091 171.36 136.354 176.156 128.799 176.156Z" fill="white"/>
<path d="M242.84 199.787H88.5634C73.2767 199.787 60.8428 187.351 60.8428 172.067C60.8428 169.787 62.6917 167.938 64.9713 167.938C67.2508 167.938 69.0998 169.787 69.0998 172.067C69.0998 182.799 77.8312 191.53 88.5634 191.53H242.84C253.573 191.53 262.304 182.799 262.304 172.067V42.3121C262.304 31.5821 253.573 22.8508 242.84 22.8508H88.5634C77.8312 22.8508 69.0998 31.5821 69.0998 42.3121V118.985C69.0998 121.265 67.2508 123.114 64.9713 123.114C62.6917 123.114 60.8428 121.265 60.8428 118.985V42.3121C60.8428 27.0276 73.2767 14.5938 88.5634 14.5938H242.84C258.125 14.5938 270.561 27.0276 270.561 42.3121V172.067C270.561 187.351 258.125 199.787 242.84 199.787Z" fill="white"/>
<path d="M266.433 71.05H64.9713C62.6917 71.05 60.8428 69.201 60.8428 66.9215C60.8428 64.6419 62.6917 62.793 64.9713 62.793H266.433C268.712 62.793 270.561 64.6419 270.561 66.9215C270.561 69.201 268.712 71.05 266.433 71.05Z" fill="white"/>
<path d="M120.3 54.5897C113.92 54.5897 108.728 49.3974 108.728 43.0169C108.728 36.6342 113.92 31.4419 120.3 31.4419C126.683 31.4419 131.875 36.6342 131.875 43.0169C131.875 49.3974 126.683 54.5897 120.3 54.5897ZM120.3 39.6989C118.472 39.6989 116.985 41.1864 116.985 43.0169C116.985 44.8452 118.472 46.3326 120.3 46.3326C122.131 46.3326 123.618 44.8452 123.618 43.0169C123.618 41.1864 122.131 39.6989 120.3 39.6989Z" fill="white"/>
<path d="M86.8551 54.4871C80.4747 54.4871 75.2825 49.2948 75.2825 42.9121C75.2825 36.5293 80.4747 31.3394 86.8551 31.3394C93.2378 31.3394 98.4301 36.5293 98.4301 42.9121C98.4301 49.2948 93.2378 54.4871 86.8551 54.4871ZM86.8551 39.5964C85.0269 39.5964 83.5395 41.0838 83.5395 42.9121C83.5395 44.7426 85.0269 46.2301 86.8551 46.2301C88.6857 46.2301 90.1731 44.7426 90.1731 42.9121C90.1731 41.0838 88.6857 39.5964 86.8551 39.5964Z" fill="white"/>
<path d="M153.746 54.6956C147.363 54.6956 142.171 49.5033 142.171 43.1206C142.171 36.7379 147.363 31.5479 153.746 31.5479C160.126 31.5479 165.318 36.7379 165.318 43.1206C165.318 49.5033 160.126 54.6956 153.746 54.6956ZM153.746 39.8049C151.915 39.8049 150.428 41.2923 150.428 43.1206C150.428 44.9488 151.915 46.4386 153.746 46.4386C155.574 46.4386 157.061 44.9488 157.061 43.1206C157.061 41.2923 155.574 39.8049 153.746 39.8049Z" fill="white"/>
</g>
<defs>
<clipPath id="clip0">
<rect width="271" height="271" fill="white"/>
</clipPath>
</defs>
</svg>
