<svg width="171" height="271" viewBox="0 0 171 271" fill="none" xmlns="http://www.w3.org/2000/svg">
<g opacity="0.6">
<path d="M140.234 254.835H-69.2343C-86.1974 254.835 -100 241.032 -100 224.069V46.4759C-100 29.5128 -86.1974 15.7102 -69.2343 15.7102H140.234C157.197 15.7102 171 29.5128 171 46.4759V224.069C171 241.032 157.197 254.835 140.234 254.835ZM-69.2343 24.8745C-81.1448 24.8745 -90.8357 34.5654 -90.8357 46.4759V224.069C-90.8357 235.98 -81.1448 245.671 -69.2343 245.671H140.234C152.145 245.671 161.836 235.98 161.836 224.069V46.4759C161.836 34.5654 152.145 24.8745 140.234 24.8745H-69.2343Z" fill="white"/>
<path d="M166.418 77.0651H-95.4179C-97.9493 77.0651 -100 75.0144 -100 72.483C-100 69.9516 -97.9493 67.9009 -95.4179 67.9009H166.418C168.949 67.9009 171 69.9516 171 72.483C171 75.0144 168.949 77.0651 166.418 77.0651Z" fill="white"/>
<path d="M-0.929235 60.7333C-8.79198 60.7333 -15.187 54.3383 -15.187 46.4755C-15.187 38.6128 -8.79198 32.2178 -0.929235 32.2178C6.93351 32.2178 13.3311 38.6128 13.3311 46.4755C13.3311 54.3383 6.93351 60.7333 -0.929235 60.7333ZM-0.929235 41.382C-3.73937 41.382 -6.02276 43.668 -6.02276 46.4755C-6.02276 49.2831 -3.73681 51.5691 -0.929235 51.5691C1.8809 51.5691 4.16685 49.2831 4.16685 46.4755C4.16685 43.668 1.8809 41.382 -0.929235 41.382Z" fill="white"/>
<path d="M24.9729 158.382H-73.2104C-75.7418 158.382 -77.7925 156.329 -77.7925 153.8V107.58C-77.7925 105.049 -75.7418 102.998 -73.2104 102.998H24.9729C27.5044 102.998 29.5551 105.049 29.5551 107.58V153.8C29.5551 156.329 27.5044 158.382 24.9729 158.382ZM-68.6282 149.218H20.3908V112.162H-68.6282V149.218Z" fill="white"/>
<path d="M-73.1594 158.183C-74.8854 158.183 -76.5372 157.204 -77.3145 155.539C-78.3859 153.245 -77.3938 150.52 -75.1001 149.448L23.0883 103.627C25.3819 102.558 28.1076 103.548 29.179 105.841C30.2478 108.135 29.2583 110.861 26.9647 111.932L-71.2237 157.753C-71.8502 158.045 -72.5099 158.183 -73.1594 158.183Z" fill="white"/>
<path d="M25.0233 158.183C24.3738 158.183 23.7141 158.045 23.0876 157.753L-75.1008 111.932C-77.3944 110.861 -78.3839 108.135 -77.3151 105.841C-76.2437 103.548 -73.518 102.558 -71.2244 103.627L26.964 149.448C29.2577 150.52 30.2498 153.245 29.1784 155.539C28.4011 157.204 26.7492 158.183 25.0233 158.183Z" fill="white"/>
<path d="M144.223 158.382H46.0367C43.5079 158.382 41.4546 156.329 41.4546 153.8V107.58C41.4546 105.049 43.5079 102.998 46.0367 102.998H144.223C146.754 102.998 148.805 105.049 148.805 107.58V153.8C148.805 156.329 146.754 158.382 144.223 158.382ZM50.6188 149.218H139.641V112.162H50.6188V149.218Z" fill="white"/>
<path d="M45.9754 158.184C44.2494 158.184 42.5976 157.204 41.8203 155.54C40.7489 153.246 41.741 150.521 44.0346 149.449L142.223 103.628C144.519 102.557 147.245 103.549 148.314 105.842C149.385 108.136 148.393 110.862 146.099 111.933L47.911 157.754C47.2845 158.046 46.6248 158.184 45.9754 158.184Z" fill="white"/>
<path d="M144.159 158.183C143.509 158.183 142.849 158.045 142.223 157.753L44.0346 111.932C41.741 110.861 40.7489 108.135 41.8203 105.841C42.8916 103.548 45.6199 102.558 47.911 103.627L146.099 149.448C148.393 150.52 149.385 153.245 148.314 155.539C147.536 157.204 145.885 158.183 144.159 158.183Z" fill="white"/>
<path d="M24.9623 191.138C24.9597 191.138 24.9597 191.138 24.9597 191.138L-73.2261 191.087C-75.7575 191.084 -77.8082 189.034 -77.8057 186.502C-77.8057 183.973 -75.7524 181.923 -73.2235 181.923H-73.221L24.9623 181.974C27.4937 181.974 29.5444 184.027 29.5444 186.558C29.5419 189.087 27.4912 191.138 24.9623 191.138Z" fill="white"/>
<path d="M144.223 191.112H46.0367C43.5079 191.112 41.4546 189.061 41.4546 186.53C41.4546 183.998 43.5079 181.948 46.0367 181.948H144.223C146.754 181.948 148.805 183.998 148.805 186.53C148.805 189.061 146.754 191.112 144.223 191.112Z" fill="white"/>
<path d="M104.947 217.296H46.0367C43.5079 217.296 41.4546 215.245 41.4546 212.713C41.4546 210.182 43.5079 208.131 46.0367 208.131H104.947C107.479 208.131 109.529 210.182 109.529 212.713C109.529 215.245 107.479 217.296 104.947 217.296Z" fill="white"/>
</g>
</svg>
