<svg width="171" height="241" viewBox="0 0 171 241" fill="none" xmlns="http://www.w3.org/2000/svg">
<g opacity="0.6" clip-path="url(#clip0)">
<path d="M135.153 215.22H126.694V204.206C126.694 201.221 124.264 198.791 121.279 198.791H-50.2791C-53.2642 198.791 -55.6942 201.221 -55.6942 204.206V215.22H-64.1533V204.206C-64.1533 196.557 -57.9306 190.332 -50.2791 190.332H121.279C128.93 190.332 135.153 196.557 135.153 204.206V215.22Z" fill="white"/>
<path d="M31.2705 166.368H39.7296V217.43H31.2705V166.368Z" fill="white"/>
<path d="M48.4177 270.843H22.5822C13.587 270.843 6.26855 263.524 6.26855 254.529V229.601C6.26855 220.605 13.587 213.287 22.5822 213.287H48.4177C57.4129 213.287 64.7314 220.605 64.7314 229.601V254.529C64.7314 263.524 57.4129 270.843 48.4177 270.843ZM22.5822 221.746C18.2511 221.746 14.7277 225.269 14.7277 229.601V254.529C14.7277 258.86 18.2511 262.384 22.5822 262.384H48.4177C52.7488 262.384 56.2723 258.86 56.2723 254.529V229.601C56.2723 225.269 52.7488 221.746 48.4177 221.746H22.5822Z" fill="white"/>
<path d="M144.257 270.843H118.422C109.426 270.843 102.108 263.524 102.108 254.529V229.601C102.108 220.605 109.426 213.287 118.422 213.287H144.257C153.252 213.287 160.571 220.605 160.571 229.601V254.529C160.571 263.524 153.252 270.843 144.257 270.843ZM118.422 221.746C114.09 221.746 110.567 225.269 110.567 229.601V254.529C110.567 258.86 114.09 262.384 118.422 262.384H144.257C148.588 262.384 152.112 258.86 152.112 254.529V229.601C152.112 225.269 148.588 221.746 144.257 221.746H118.422Z" fill="white"/>
<path d="M31.882 254.235C30.8146 254.235 29.7495 253.833 28.9277 253.03L19.9018 244.217C18.2299 242.585 18.1968 239.907 19.8286 238.237C21.4605 236.565 24.1385 236.535 25.8105 238.167L31.882 244.094L45.1894 231.101C46.8614 229.469 49.537 229.502 51.1712 231.174C52.8007 232.844 52.77 235.522 51.098 237.153L34.8363 253.03C34.0145 253.833 32.9494 254.235 31.882 254.235Z" fill="white"/>
<path d="M127.721 254.235C126.656 254.235 125.589 253.833 124.767 253.03L115.741 244.217C114.069 242.585 114.038 239.907 115.67 238.237C117.302 236.568 119.98 236.532 121.652 238.167L127.721 244.094L141.031 231.101C142.701 229.469 145.379 229.502 147.01 231.174C148.642 232.844 148.609 235.522 146.937 237.153L130.676 253.03C129.856 253.833 128.789 254.235 127.721 254.235Z" fill="white"/>
<path d="M114.048 167.654H-43.0481C-52.0433 167.654 -59.3618 160.336 -59.3618 151.341V16.3137C-59.3618 7.31848 -52.0433 0 -43.0481 0H114.048C123.043 0 130.361 7.31848 130.361 16.3137V151.341C130.361 160.336 123.043 167.654 114.048 167.654ZM-43.0481 8.45912C-47.3792 8.45912 -50.9027 11.9826 -50.9027 16.3137V151.341C-50.9027 155.672 -47.3792 159.195 -43.0481 159.195H114.048C118.379 159.195 121.902 155.672 121.902 151.341V16.3137C121.902 11.9826 118.379 8.45912 114.048 8.45912H-43.0481Z" fill="white"/>
<path d="M126.132 51.8266H-55.1323C-57.4678 51.8266 -59.3618 49.9326 -59.3618 47.597C-59.3618 45.2614 -57.4678 43.3674 -55.1323 43.3674H126.132C128.467 43.3674 130.361 45.2614 130.361 47.597C130.361 49.9326 128.467 51.8266 126.132 51.8266Z" fill="white"/>
<path d="M-5.35036 37.0159C-11.3747 37.0159 -16.2773 32.1157 -16.2773 26.089C-16.2773 20.0623 -11.3747 15.1597 -5.35036 15.1597C0.676363 15.1597 5.57898 20.0623 5.57898 26.089C5.57898 32.1157 0.676363 37.0159 -5.35036 37.0159ZM-5.35036 23.6188C-6.71063 23.6188 -7.8182 24.7263 -7.8182 26.089C-7.8182 27.4516 -6.71063 28.5592 -5.35036 28.5592C-3.98774 28.5592 -2.88016 27.4516 -2.88016 26.089C-2.88016 24.7263 -3.98774 23.6188 -5.35036 23.6188Z" fill="white"/>
<path d="M24.7404 37.1099C18.7161 37.1099 13.8135 32.2073 13.8135 26.183C13.8135 20.1563 18.7161 15.2537 24.7404 15.2537C30.7671 15.2537 35.6697 20.1563 35.6697 26.183C35.6697 32.2073 30.7671 37.1099 24.7404 37.1099ZM24.7404 23.7128C23.3802 23.7128 22.2726 24.8204 22.2726 26.183C22.2726 27.5456 23.3802 28.6508 24.7404 28.6508C26.103 28.6508 27.2106 27.5456 27.2106 26.183C27.2106 24.8204 26.103 23.7128 24.7404 23.7128Z" fill="white"/>
</g>
<defs>
<clipPath id="clip0">
<rect width="271" height="271" fill="white" transform="translate(-100)"/>
</clipPath>
</defs>
</svg>
