<svg width="55" height="55" viewBox="0 0 55 55" fill="none" xmlns="http://www.w3.org/2000/svg">
<g clip-path="url(#clip0)">
<path d="M6.51706 8.44307L29.2806 0.157724C30.6354 -0.335343 32.1331 0.366337 32.6211 1.72297L38.0779 16.8909H6.83331L4.96278 11.7853C4.46735 10.4332 5.16376 8.9356 6.51706 8.44307Z" fill="#FF5857"/>
<path d="M32.6211 1.72306C32.1331 0.366432 30.6354 -0.335356 29.2806 0.157711L17.8988 4.30044L22.4815 16.8911H38.0781L32.6211 1.72306Z" fill="#FE1B5C"/>
<path d="M43.6133 7.51758H25.1276C23.941 7.51758 22.9792 8.47943 22.9792 9.66602V16.891H45.7617V9.66602C45.7617 8.47943 44.7999 7.51758 43.6133 7.51758Z" fill="#57C67F"/>
<path d="M45.7618 9.66602C45.7618 8.47943 44.7999 7.51758 43.6133 7.51758H34.3704V16.891H45.7618V9.66602Z" fill="#43A071"/>
<path d="M47.4805 13.9648C49.8535 13.9648 51.7773 15.8887 51.7773 18.2617V50.7031C51.7773 53.0762 49.8535 55 47.4805 55H4.29688C1.92382 55 0 53.0762 0 50.7031V18.2617C0 15.8887 1.92382 13.9648 4.29688 13.9648H47.4805Z" fill="#3555A2"/>
<path d="M47.4805 13.9648H25.8887V55H47.4805C49.8535 55 51.7773 53.0762 51.7773 50.7031V18.2617C51.7773 15.8887 49.8535 13.9648 47.4805 13.9648Z" fill="#1B3555"/>
<path d="M44.2578 40.9277H52.8516C54.0381 40.9277 55 39.9659 55 38.7793V30.1855C55 28.999 54.0381 28.0371 52.8516 28.0371H44.2578C40.6982 28.0371 37.8125 30.9228 37.8125 34.4824C37.8125 38.0421 40.6982 40.9277 44.2578 40.9277Z" fill="#3555A2"/>
<path d="M44.2578 36.0938C45.1477 36.0938 45.8691 35.3723 45.8691 34.4824C45.8691 33.5925 45.1477 32.8711 44.2578 32.8711C43.3679 32.8711 42.6465 33.5925 42.6465 34.4824C42.6465 35.3723 43.3679 36.0938 44.2578 36.0938Z" fill="#D6E8FE"/>
</g>
<defs>
<clipPath id="clip0">
<rect width="55" height="55" fill="white"/>
</clipPath>
</defs>
</svg>
