<svg width="120" height="245" viewBox="0 0 120 245" fill="none" xmlns="http://www.w3.org/2000/svg">
<path d="M120 245L39.7234 202.26L6.96533 215.772L120 245Z" fill="#FFC24B"/>
<g opacity="0.4">
<path opacity="0.4" d="M120 245L39.7234 202.26L6.96533 215.772L120 245Z" fill="white"/>
</g>
<path d="M120 245L49.5864 195.275L62.8727 177.169L120 245Z" fill="#FFC24B"/>
<g opacity="0.4">
<path opacity="0.4" d="M120 245L49.5864 195.275L62.8727 177.169L120 245Z" fill="white"/>
</g>
<path d="M49.5864 195.275L50.6202 208.058L120 245L49.5864 195.275Z" fill="#FFC24B"/>
<path d="M39.5875 192.529C39.3881 192.528 39.1957 192.456 39.0452 192.325C38.452 191.816 37.808 191.206 37.1471 190.528C37.0677 190.449 37.0047 190.355 36.9616 190.252C36.9186 190.149 36.8965 190.038 36.8965 189.926C36.8965 189.814 36.9186 189.703 36.9616 189.6C37.0047 189.497 37.0677 189.403 37.1471 189.324C37.2244 189.245 37.3167 189.183 37.4186 189.14C37.5204 189.097 37.6298 189.075 37.7403 189.075C37.8507 189.075 37.9601 189.097 38.0619 189.14C38.1638 189.183 38.2561 189.245 38.3334 189.324C38.9774 189.969 39.5705 190.545 40.1298 191.02C40.262 191.133 40.3562 191.284 40.3996 191.452C40.443 191.621 40.4336 191.799 40.3725 191.962C40.3114 192.125 40.2017 192.265 40.0582 192.363C39.9147 192.461 39.7444 192.513 39.5705 192.512L39.5875 192.529Z" fill="#E0E0E0"/>
<path d="M32.4022 184.306C32.2704 184.308 32.1402 184.278 32.0223 184.219C31.9045 184.16 31.8023 184.073 31.7243 183.967C30.7584 182.662 29.7924 181.272 28.8095 179.797C28.686 179.607 28.6416 179.377 28.686 179.155C28.7303 178.933 28.8598 178.737 29.0467 178.61C29.2336 178.487 29.4612 178.443 29.6803 178.488C29.8993 178.532 30.0918 178.661 30.2161 178.847C31.182 180.305 32.148 181.678 33.0801 182.967C33.1482 183.056 33.1976 183.158 33.2251 183.267C33.2527 183.376 33.2579 183.489 33.2405 183.6C33.2231 183.711 33.1834 183.817 33.1238 183.912C33.0641 184.008 32.9859 184.09 32.8937 184.154C32.7496 184.254 32.5779 184.308 32.4022 184.306ZM25.0812 173.032C24.9333 173.031 24.7883 172.992 24.6604 172.917C24.5326 172.843 24.4264 172.736 24.3525 172.608C23.5221 171.184 22.6578 169.709 21.8783 168.183C21.7704 167.986 21.7455 167.753 21.8091 167.537C21.8726 167.321 22.0194 167.138 22.2172 167.031C22.415 166.923 22.6475 166.898 22.8636 166.961C23.0797 167.025 23.2617 167.172 23.3696 167.37C24.183 168.895 25.0643 170.353 25.8269 171.744C25.9331 171.943 25.9589 172.175 25.899 172.393C25.8391 172.61 25.698 172.797 25.5049 172.913C25.3751 172.986 25.2299 173.027 25.0812 173.032ZM18.8109 161.165C18.6512 161.169 18.4938 161.126 18.3582 161.042C18.2226 160.958 18.1148 160.835 18.0483 160.69C17.3196 159.181 16.6078 157.655 15.913 156.079C15.8535 155.975 15.8164 155.861 15.8041 155.742C15.7918 155.624 15.8046 155.504 15.8417 155.391C15.8787 155.278 15.9392 155.174 16.0192 155.085C16.0992 154.997 16.1969 154.927 16.3059 154.879C16.4149 154.831 16.5328 154.806 16.6519 154.807C16.771 154.808 16.8885 154.834 16.997 154.883C17.1054 154.932 17.2023 155.004 17.2812 155.093C17.3602 155.182 17.4194 155.287 17.4552 155.4C18.15 156.943 18.8617 158.469 19.5735 159.944C19.6221 160.045 19.6501 160.155 19.656 160.267C19.6618 160.379 19.6453 160.491 19.6075 160.597C19.5696 160.703 19.5112 160.8 19.4355 160.883C19.3599 160.965 19.2685 161.033 19.1668 161.08C19.0527 161.12 18.9317 161.137 18.8109 161.131V161.165ZM13.4218 148.856C13.2526 148.854 13.0879 148.801 12.949 148.705C12.81 148.608 12.7032 148.472 12.6423 148.314C12.0322 146.754 11.4221 145.177 10.8459 143.567C10.7768 143.357 10.7921 143.129 10.8885 142.931C10.9849 142.732 11.1549 142.579 11.3624 142.504C11.5698 142.429 11.7983 142.438 11.9993 142.529C12.2004 142.619 12.3581 142.785 12.4389 142.99C13.0151 144.584 13.6082 146.161 14.1336 147.686C14.2124 147.896 14.207 148.128 14.1185 148.333C14.03 148.539 13.8653 148.702 13.6591 148.788C13.5847 148.825 13.5043 148.848 13.4218 148.856ZM8.96484 136.158C8.78428 136.157 8.60873 136.099 8.46284 135.992C8.31694 135.886 8.20803 135.736 8.15139 135.565C7.65994 133.971 7.18542 132.344 6.71092 130.699C6.65024 130.474 6.68132 130.234 6.79732 130.033C6.91332 129.831 7.10475 129.683 7.32947 129.622C7.5542 129.562 7.79383 129.593 7.99564 129.709C8.19745 129.825 8.34491 130.016 8.40559 130.241C8.86315 131.937 9.33766 133.479 9.82912 135.056C9.89327 135.272 9.87074 135.504 9.7663 135.704C9.66186 135.903 9.48376 136.054 9.26988 136.124C9.16827 136.142 9.0638 136.137 8.96484 136.107V136.158ZM5.4738 123.172C5.28082 123.173 5.09331 123.107 4.94232 122.987C4.79132 122.867 4.68587 122.699 4.64341 122.51C4.27058 120.815 3.9147 119.221 3.59271 117.56C3.57063 117.45 3.5707 117.336 3.59293 117.226C3.61516 117.116 3.6591 117.011 3.7222 116.918C3.78529 116.825 3.86627 116.745 3.96042 116.684C4.05456 116.622 4.16 116.58 4.27058 116.56C4.3786 116.538 4.48994 116.537 4.5981 116.559C4.70627 116.58 4.8091 116.623 4.9006 116.684C4.99209 116.746 5.07042 116.825 5.13101 116.917C5.1916 117.009 5.23324 117.113 5.2535 117.221C5.57548 118.916 5.93136 120.51 6.28725 122.137C6.33821 122.355 6.30088 122.585 6.1834 122.775C6.06592 122.966 5.87784 123.102 5.66022 123.155L5.4738 123.172ZM3.03347 109.863C2.83078 109.861 2.63554 109.786 2.48318 109.653C2.33083 109.519 2.23145 109.335 2.20308 109.134C2.11834 108.558 2.03361 107.998 1.96582 107.439C1.83025 106.32 1.69468 105.218 1.57605 104.048C1.56192 103.938 1.57015 103.825 1.60026 103.718C1.63037 103.611 1.68174 103.511 1.7513 103.424C1.82087 103.337 1.90722 103.265 2.00521 103.212C2.1032 103.159 2.21084 103.126 2.32171 103.116C2.54402 103.092 2.76673 103.157 2.94132 103.296C3.11591 103.436 3.22822 103.639 3.25378 103.862C3.37241 104.947 3.50798 106.049 3.64355 107.151C3.72829 107.727 3.79608 108.286 3.88081 108.846C3.90993 109.07 3.84993 109.297 3.71369 109.478C3.57744 109.659 3.37582 109.779 3.1521 109.812L3.03347 109.863ZM1.593 96.4867C1.37953 96.4874 1.17368 96.4075 1.01658 96.2629C0.859489 96.1183 0.762734 95.9197 0.745658 95.7068C0.610084 94.0115 0.491455 92.3161 0.389775 90.6208C0.382894 90.5094 0.398059 90.3978 0.434397 90.2923C0.470735 90.1868 0.527532 90.0896 0.601532 90.0061C0.675531 89.9226 0.765277 89.8546 0.86562 89.8058C0.965964 89.7571 1.07493 89.7287 1.18627 89.7222C1.29858 89.7105 1.41211 89.7222 1.51964 89.7568C1.62716 89.7913 1.72633 89.8478 1.81081 89.9227C1.8953 89.9977 1.96326 90.0894 2.01038 90.1921C2.05749 90.2947 2.08271 90.4061 2.08445 90.5191C2.16918 92.2144 2.30476 93.9098 2.44033 95.6051C2.4496 95.7165 2.43675 95.8287 2.40254 95.9351C2.36832 96.0415 2.3134 96.14 2.24094 96.2251C2.16849 96.3102 2.07993 96.3801 1.98036 96.4308C1.88079 96.4815 1.77218 96.5121 1.66078 96.5206L1.593 96.4867ZM0.847338 83.0934C0.626812 83.0892 0.416218 83.0009 0.258687 82.8464C0.101157 82.692 0.00861045 82.4832 0 82.2627C0 80.5673 0 78.872 0 77.1766C0.0117908 76.954 0.104373 76.7433 0.260378 76.5842C0.416382 76.425 0.625087 76.3282 0.847338 76.312C1.07071 76.3163 1.28372 76.407 1.4417 76.5651C1.59967 76.7231 1.69034 76.9362 1.69468 77.1596C1.69468 78.855 1.69468 80.5504 1.69468 82.2457C1.69692 82.357 1.67723 82.4677 1.63671 82.5715C1.59619 82.6752 1.53564 82.7698 1.45853 82.8501C1.38142 82.9304 1.28925 82.9947 1.18728 83.0394C1.08532 83.084 0.975566 83.1082 0.864285 83.1104L0.847338 83.0934ZM0.847338 69.6323C0.736812 69.6301 0.62783 69.6059 0.526784 69.561C0.425738 69.5162 0.334659 69.4516 0.258894 69.3711C0.183129 69.2905 0.1242 69.1957 0.0855632 69.0921C0.0469263 68.9884 0.029361 68.8782 0.0338943 68.7677C0.0338943 67.0723 0.169467 65.3769 0.254201 63.6816C0.258399 63.5694 0.285275 63.4592 0.333202 63.3578C0.38113 63.2563 0.449116 63.1656 0.533058 63.0911C0.616999 63.0166 0.715155 62.96 0.821599 62.9245C0.928043 62.889 1.04057 62.8755 1.15238 62.8848C1.37564 62.9021 1.58344 63.0055 1.73201 63.1731C1.88058 63.3407 1.95833 63.5595 1.94888 63.7833C1.8472 65.4787 1.77941 67.174 1.72857 68.8694C1.70711 69.0852 1.60379 69.2845 1.43987 69.4264C1.27595 69.5683 1.0639 69.642 0.847338 69.6323ZM1.69468 56.222H1.60994C1.38799 56.2005 1.18345 56.0923 1.04069 55.921C0.897931 55.7496 0.82846 55.5288 0.847338 55.3065C1.01681 53.6112 1.20322 51.9158 1.38963 50.2204C1.4166 49.9956 1.53174 49.7907 1.70971 49.6508C1.88769 49.5109 2.11392 49.4475 2.33865 49.4745C2.56338 49.5015 2.76819 49.6166 2.90803 49.7947C3.04787 49.9727 3.11128 50.1991 3.08431 50.4239C2.88095 52.1192 2.71148 53.8146 2.54201 55.4082C2.53436 55.6159 2.45073 55.8135 2.30702 55.9635C2.16331 56.1135 1.96952 56.2055 1.76246 56.222H1.69468ZM3.38935 42.8795H3.25378C3.14409 42.8631 3.03879 42.8249 2.94412 42.7671C2.84944 42.7093 2.76729 42.6331 2.70253 42.543C2.63776 42.4529 2.59169 42.3508 2.56704 42.2426C2.54238 42.1344 2.53963 42.0225 2.55896 41.9132C2.83011 40.2178 3.1182 38.5564 3.42325 36.9289C3.44152 36.8189 3.48172 36.7137 3.54146 36.6197C3.60119 36.5256 3.67924 36.4445 3.77095 36.3813C3.86266 36.318 3.96616 36.2738 4.07529 36.2514C4.18442 36.229 4.29694 36.2287 4.40616 36.2507C4.626 36.2919 4.82064 36.4184 4.94762 36.6026C5.07461 36.7868 5.12364 37.0138 5.08403 37.234C4.77899 38.9294 4.49089 40.506 4.21974 42.1844C4.19035 42.3667 4.10108 42.534 3.96605 42.6599C3.83102 42.7858 3.65792 42.863 3.47408 42.8795H3.38935ZM5.98221 29.6896H5.79579C5.6865 29.6656 5.58305 29.6202 5.49142 29.5559C5.39978 29.4917 5.32178 29.4099 5.2619 29.3153C5.20203 29.2207 5.16148 29.1152 5.14258 29.0049C5.12369 28.8946 5.12683 28.7815 5.15182 28.6724C5.54159 26.9771 5.94831 25.3665 6.37198 23.7559C6.3998 23.6446 6.44926 23.5398 6.51755 23.4476C6.58583 23.3554 6.6716 23.2776 6.76995 23.2186C6.8683 23.1596 6.97732 23.1205 7.09077 23.1036C7.20422 23.0867 7.31988 23.0923 7.43115 23.1201C7.54243 23.148 7.64713 23.1975 7.73929 23.2658C7.83145 23.3341 7.90926 23.4199 7.96827 23.5183C8.02728 23.6167 8.06634 23.7258 8.08322 23.8392C8.10011 23.9527 8.09447 24.0684 8.06665 24.1797C7.64299 25.7734 7.23626 27.4009 6.86344 29.0624C6.81362 29.2375 6.70979 29.3925 6.56677 29.5051C6.42374 29.6177 6.24882 29.6823 6.06694 29.6896H5.98221ZM9.49018 16.7032L9.32072 16.6185C9.21374 16.5859 9.11444 16.532 9.02877 16.4601C8.94311 16.3882 8.87285 16.2997 8.82221 16.2C8.77156 16.1002 8.74158 15.9913 8.73405 15.8796C8.72653 15.768 8.74162 15.656 8.77842 15.5504C9.28682 13.855 9.81217 12.2953 10.3375 10.7356C10.4143 10.5239 10.5706 10.3506 10.7732 10.2525C10.9757 10.1543 11.2085 10.1391 11.4221 10.21C11.6324 10.2833 11.8054 10.4364 11.9037 10.6363C12.002 10.8362 12.0177 11.0667 11.9475 11.2781C11.4221 12.8209 10.8968 14.4145 10.3884 16.059C10.3433 16.2414 10.239 16.4036 10.0917 16.5202C9.94448 16.6368 9.7627 16.7012 9.57492 16.7032H9.49018Z" fill="#E0E0E0"/>
<path d="M14.0659 3.98801C13.9649 4.00418 13.8619 4.00418 13.7609 3.98801C13.6573 3.94691 13.5629 3.88583 13.483 3.80817C13.4031 3.73052 13.3393 3.63781 13.2952 3.53546C13.2511 3.43311 13.2277 3.32307 13.2262 3.21163C13.2246 3.10019 13.2451 2.98956 13.2864 2.88604L14.2354 0.529521C14.3208 0.32044 14.4857 0.153846 14.6939 0.0664124C14.9021 -0.0210214 15.1364 -0.0221746 15.3454 0.0632564C15.5544 0.148687 15.7209 0.313716 15.8083 0.521967C15.8957 0.730219 15.8968 0.964684 15.8115 1.17377C15.4895 1.93668 15.1675 2.7165 14.8624 3.51332C14.7884 3.65996 14.6742 3.78252 14.5332 3.86659C14.3921 3.95065 14.2301 3.99275 14.0659 3.98801Z" fill="#E0E0E0"/>
</svg>
