<svg width="50" height="50" viewBox="0 0 50 50" fill="none" xmlns="http://www.w3.org/2000/svg">
<path fill-rule="evenodd" clip-rule="evenodd" d="M25 0C38.8076 0 50 11.1924 50 25C50 38.8076 38.8076 50 25 50C11.1924 50 0 38.8076 0 25C0 11.1924 11.1924 0 25 0Z" fill="#FFCF5C"/>
<path d="M36.2519 15.9678L32.6924 33.9122C32.6924 33.9122 32.1943 35.1563 30.8261 34.5596L22.6133 28.2627L19.626 26.8194L14.5986 25.127C14.5986 25.127 13.8271 24.8526 13.7529 24.2559C13.6777 23.6582 14.624 23.335 14.624 23.335L34.6093 15.4951C34.6093 15.4951 36.2519 14.7735 36.2519 15.9678Z" fill="#393333"/>
<path d="M25.8203 31.1094L22.3232 34.2979C22.3232 34.2979 22.0508 34.5049 21.751 34.375C21.3105 34.3115 20.0186 29.7061 19.2168 26.958L19.8877 26.5312L25.8203 31.1094Z" fill="#393333"/>
<path d="M21.751 34.375C21.2744 34.3301 19.4619 27.7608 19.2168 26.958L32.208 18.7071C32.8838 18.2969 33.2451 18.6202 32.6631 19.1631C32.2617 19.5381 22.458 28.3506 22.458 28.3506L21.751 34.375Z" fill="#FFCF5C"/>
</svg>
