<svg width="50" height="50" viewBox="0 0 50 50" fill="none" xmlns="http://www.w3.org/2000/svg">
<path fill-rule="evenodd" clip-rule="evenodd" d="M25 0C38.8076 0 50 11.1924 50 25C50 38.8076 38.8076 50 25 50C11.1924 50 0 38.8076 0 25C0 11.1924 11.1924 0 25 0Z" fill="#FFCF5C"/>
<path fill-rule="evenodd" clip-rule="evenodd" d="M21.4033 38.4912C21.4033 38.6836 21.5596 38.8398 21.752 38.8398H26.7227C26.915 38.8398 27.0703 38.6836 27.0703 38.4912V24.8906H30.6738C30.8545 24.8906 31.0059 24.752 31.0205 24.5713L31.3672 20.4736C31.3848 20.2705 31.2246 20.0957 31.0205 20.0957H27.0703V17.1885C27.0703 16.5068 27.623 15.9551 28.3047 15.9551H31.0811C31.2744 15.9551 31.4297 15.7988 31.4297 15.6064V11.5078C31.4297 11.3154 31.2744 11.1592 31.0811 11.1592H26.3896C23.6357 11.1592 21.4033 13.3916 21.4033 16.1445V20.0957H18.9189C18.7266 20.0957 18.5703 20.252 18.5703 20.4443V24.542C18.5703 24.7354 18.7266 24.8906 18.9189 24.8906H21.4033V38.4912Z" fill="#393333"/>
</svg>
