<svg width="30" height="30" viewBox="0 0 30 30" fill="none" xmlns="http://www.w3.org/2000/svg">
<path fill-rule="evenodd" clip-rule="evenodd" d="M11.833 28.332C11.833 28.5244 11.9893 28.6807 12.1816 28.6807H17.1523C17.3447 28.6807 17.5 28.5244 17.5 28.332V14.7314H21.1035C21.2842 14.7314 21.4355 14.5928 21.4502 14.4121L21.7969 10.3145C21.8145 10.1113 21.6543 9.93652 21.4502 9.93652H17.5V7.0293C17.5 6.34766 18.0527 5.7959 18.7344 5.7959H21.5107C21.7041 5.7959 21.8594 5.63965 21.8594 5.44727V1.34863C21.8594 1.15625 21.7041 1 21.5107 1H16.8193C14.0654 1 11.833 3.23242 11.833 5.98535V9.93652H9.34863C9.15625 9.93652 9 10.0928 9 10.2852V14.3828C9 14.5762 9.15625 14.7314 9.34863 14.7314H11.833V28.332Z" fill="white"/>
</svg>
