<svg width="50" height="50" viewBox="0 0 50 50" fill="none" xmlns="http://www.w3.org/2000/svg">
<path d="M25 50C38.8071 50 50 38.8071 50 25C50 11.1929 38.8071 0 25 0C11.1929 0 0 11.1929 0 25C0 38.8071 11.1929 50 25 50Z" fill="#FFCF5C"/>
<path d="M30.3111 11.1111H19.7C14.9666 11.1111 11.1222 14.9555 11.1222 19.6889V30.3C11.1222 35.0333 14.9666 38.8778 19.7 38.8778H30.3111C35.0444 38.8778 38.8889 35.0333 38.8889 30.3V19.6889C38.8889 14.9555 35.0444 11.1111 30.3111 11.1111ZM35.7889 30.3111C35.7889 33.3333 33.3333 35.8 30.3 35.8H19.6889C16.6666 35.8 14.2 33.3444 14.2 30.3111V19.7C14.2 16.6778 16.6555 14.2111 19.6889 14.2111H30.3C33.3222 14.2111 35.7889 16.6666 35.7889 19.7V30.3111Z" fill="#393333"/>
<path d="M25 17.8999C21.0889 17.8999 17.9 21.0888 17.9 24.9999C17.9 28.911 21.0889 32.0999 25 32.0999C28.9111 32.0999 32.1 28.911 32.1 24.9999C32.1 21.0888 28.9111 17.8999 25 17.8999ZM25 29.311C22.6222 29.311 20.6889 27.3777 20.6889 24.9999C20.6889 22.6221 22.6222 20.6888 25 20.6888C27.3778 20.6888 29.3111 22.6221 29.3111 24.9999C29.3111 27.3777 27.3778 29.311 25 29.311Z" fill="#393333"/>
<path d="M32.6407 18.6783C33.2948 18.5722 33.7391 17.956 33.6331 17.3019C33.527 16.6477 32.9108 16.2034 32.2567 16.3095C31.6025 16.4155 31.1582 17.0317 31.2643 17.6859C31.3703 18.34 31.9865 18.7843 32.6407 18.6783Z" fill="#393333"/>
</svg>
