<svg width="145" height="195" viewBox="0 0 145 195" fill="none" xmlns="http://www.w3.org/2000/svg">
<path d="M68.0015 26.6898L0 0L50.8309 40.9868L68.0015 26.6898Z" fill="#FFCF5C"/>
<path opacity="0.15" d="M68.0015 26.6898L0 0L50.8309 40.9868L68.0015 26.6898Z" fill="white"/>
<path d="M0 0L74.0184 17.7932L91.1748 3.48189L0 0Z" fill="#FFCF5C"/>
<path opacity="0.15" d="M0 0L74.0184 17.7932L91.1748 3.48189L0 0Z" fill="white"/>
<path d="M74.0184 17.7932L72.6702 36.3538L68.0015 26.6898L0 0L74.0184 17.7932Z" fill="#FFCF5C"/>
<path opacity="0.2" d="M74.0184 17.7932L72.6702 36.3538L68.0015 26.6898L0 0L74.0184 17.7932Z" fill="#393333"/>
<path d="M72.6703 36.3535L62.2686 31.4504L68.0015 26.6895L72.6703 36.3535Z" fill="#FFCF5C"/>
<path opacity="0.2" d="M68.0015 26.6895L62.2686 31.4504L63.9288 32.232L68.0015 26.6895Z" fill="#393333"/>
<path d="M82.1213 28.5088C82.0277 28.5283 81.931 28.5283 81.8374 28.5088C81.1421 28.2103 80.4893 27.9403 79.8933 27.7129C79.7183 27.6432 79.5782 27.5067 79.5036 27.3334C79.4291 27.1602 79.4263 26.9644 79.496 26.7891C79.5656 26.6139 79.7019 26.4735 79.8749 26.3989C80.0479 26.3242 80.2433 26.3215 80.4184 26.3912L82.4051 27.2155C82.4905 27.2511 82.5679 27.3034 82.6329 27.3694C82.6978 27.4354 82.749 27.5137 82.7834 27.5997C82.8177 27.6858 82.8346 27.7778 82.833 27.8704C82.8314 27.9631 82.8113 28.0545 82.774 28.1393C82.7093 28.2547 82.6142 28.3501 82.4992 28.4153C82.3841 28.4804 82.2534 28.5127 82.1213 28.5088Z" fill="#E0E0E0"/>
<path d="M134.726 186.643C134.637 186.663 134.545 186.663 134.456 186.643C134.283 186.568 134.146 186.428 134.074 186.252C134.002 186.077 134.002 185.881 134.073 185.705C134.598 184.511 135.123 183.19 135.677 181.754C135.701 181.657 135.746 181.567 135.808 181.488C135.87 181.41 135.947 181.345 136.036 181.299C136.125 181.252 136.222 181.225 136.322 181.219C136.421 181.213 136.521 181.228 136.615 181.263C136.708 181.299 136.793 181.353 136.864 181.424C136.935 181.494 136.99 181.579 137.026 181.672C137.062 181.765 137.078 181.865 137.073 181.965C137.068 182.065 137.042 182.163 136.997 182.252C136.443 183.673 135.904 185.094 135.379 186.274C135.314 186.389 135.219 186.485 135.104 186.55C134.989 186.615 134.858 186.647 134.726 186.643ZM138.657 175.885C138.586 175.898 138.514 175.898 138.444 175.885C138.266 175.829 138.117 175.705 138.029 175.541C137.942 175.376 137.922 175.183 137.976 175.004C138.387 173.696 138.785 172.332 139.168 170.897C139.218 170.716 139.336 170.563 139.498 170.47C139.66 170.377 139.853 170.351 140.033 170.399C140.123 170.422 140.208 170.463 140.282 170.519C140.356 170.576 140.418 170.646 140.465 170.727C140.511 170.808 140.541 170.898 140.552 170.99C140.563 171.083 140.556 171.176 140.53 171.266C140.147 172.687 139.75 174.108 139.338 175.416C139.279 175.546 139.183 175.656 139.062 175.732C138.941 175.808 138.8 175.846 138.657 175.842V175.885ZM141.495 164.785H141.353C141.262 164.767 141.175 164.73 141.098 164.678C141.02 164.626 140.954 164.559 140.903 164.481C140.851 164.403 140.816 164.316 140.798 164.224C140.78 164.133 140.781 164.038 140.8 163.947C141.083 162.526 141.353 161.19 141.608 159.683C141.62 159.591 141.651 159.501 141.699 159.421C141.747 159.34 141.811 159.271 141.886 159.216C141.962 159.161 142.049 159.123 142.14 159.103C142.231 159.083 142.326 159.082 142.417 159.101C142.51 159.116 142.598 159.15 142.678 159.2C142.757 159.25 142.826 159.315 142.88 159.391C142.934 159.468 142.972 159.555 142.993 159.646C143.013 159.738 143.015 159.833 142.999 159.925C142.744 161.346 142.474 162.767 142.19 164.189C142.164 164.35 142.084 164.497 141.963 164.605C141.841 164.714 141.686 164.778 141.523 164.785H141.495ZM143.34 153.487H143.255C143.069 153.466 142.899 153.371 142.782 153.225C142.665 153.079 142.61 152.892 142.63 152.705C142.801 151.284 142.942 149.863 143.07 148.442C143.078 148.349 143.103 148.258 143.146 148.174C143.188 148.091 143.247 148.017 143.318 147.956C143.389 147.895 143.472 147.849 143.561 147.82C143.65 147.792 143.743 147.781 143.836 147.788C143.93 147.796 144.02 147.821 144.104 147.864C144.187 147.907 144.261 147.965 144.322 148.036C144.382 148.108 144.428 148.19 144.457 148.279C144.486 148.368 144.497 148.462 144.489 148.556C144.376 149.977 144.22 151.398 144.063 152.819C144.05 152.997 143.971 153.163 143.843 153.286C143.715 153.409 143.546 153.481 143.368 153.487H143.34ZM144.191 142.118C144.098 142.114 144.006 142.092 143.922 142.053C143.837 142.014 143.761 141.958 143.698 141.89C143.634 141.821 143.585 141.74 143.553 141.653C143.521 141.565 143.506 141.472 143.51 141.379C143.51 139.957 143.581 138.536 143.581 137.115C143.581 136.927 143.656 136.746 143.789 136.613C143.922 136.479 144.102 136.404 144.291 136.404C144.479 136.404 144.659 136.479 144.792 136.613C144.925 136.746 145 136.927 145 137.115C145 138.536 145 139.957 144.929 141.379C144.922 141.562 144.844 141.736 144.711 141.863C144.579 141.99 144.403 142.061 144.22 142.061L144.191 142.118ZM144.078 130.663C143.894 130.663 143.718 130.592 143.586 130.465C143.453 130.338 143.375 130.164 143.368 129.981C143.283 128.56 143.198 127.138 143.07 125.717C143.058 125.529 143.12 125.344 143.241 125.201C143.363 125.058 143.536 124.968 143.723 124.95C143.91 124.941 144.092 125.004 144.235 125.125C144.377 125.247 144.468 125.418 144.489 125.603C144.603 127.025 144.702 128.446 144.773 129.867C144.779 129.96 144.766 130.054 144.736 130.142C144.705 130.231 144.658 130.312 144.596 130.382C144.534 130.452 144.459 130.509 144.375 130.55C144.29 130.591 144.199 130.615 144.106 130.62L144.078 130.663ZM142.999 119.293C142.829 119.292 142.666 119.229 142.538 119.117C142.411 119.005 142.328 118.851 142.304 118.682C142.124 117.29 141.911 115.868 141.665 114.419C141.637 114.231 141.683 114.039 141.794 113.884C141.906 113.73 142.074 113.626 142.261 113.595C142.445 113.566 142.634 113.611 142.785 113.72C142.936 113.829 143.039 113.993 143.07 114.177C143.311 115.598 143.524 117.02 143.709 118.441C143.733 118.627 143.682 118.816 143.568 118.965C143.453 119.114 143.285 119.212 143.098 119.237L142.999 119.293ZM141.041 108.009C140.879 108.01 140.722 107.955 140.596 107.855C140.469 107.754 140.381 107.613 140.346 107.455C140.048 106.034 139.721 104.613 139.381 103.291C139.338 103.106 139.368 102.912 139.467 102.75C139.565 102.588 139.722 102.471 139.906 102.424C139.996 102.401 140.09 102.396 140.182 102.41C140.275 102.424 140.363 102.457 140.443 102.506C140.522 102.555 140.591 102.62 140.645 102.696C140.699 102.772 140.737 102.859 140.757 102.95C141.112 104.371 141.424 105.792 141.722 107.213C141.743 107.304 141.745 107.398 141.729 107.489C141.713 107.581 141.679 107.668 141.629 107.747C141.579 107.825 141.513 107.892 141.437 107.944C141.36 107.997 141.274 108.033 141.183 108.052L141.041 108.009ZM138.203 96.9099C138.049 96.9122 137.898 96.8633 137.775 96.7707C137.651 96.6781 137.562 96.5471 137.522 96.3982C137.124 94.9771 136.699 93.6838 136.259 92.3195C136.208 92.1427 136.228 91.9532 136.314 91.7908C136.401 91.6285 136.546 91.5059 136.721 91.4489C136.895 91.3919 137.085 91.4048 137.25 91.485C137.416 91.5652 137.543 91.7064 137.607 91.8789C138.047 93.3001 138.472 94.636 138.884 96.0003C138.933 96.1812 138.91 96.3739 138.82 96.5382C138.73 96.7025 138.58 96.8255 138.401 96.8814C138.346 96.8667 138.293 96.8427 138.245 96.8104L138.203 96.9099ZM134.584 86.052C134.438 86.052 134.296 86.0069 134.177 85.923C134.057 85.8391 133.967 85.7204 133.917 85.5831C133.42 84.2614 132.91 82.9254 132.37 81.5895C132.336 81.5028 132.319 81.41 132.32 81.3166C132.321 81.2232 132.341 81.1309 132.378 81.0451C132.415 80.9593 132.468 80.8817 132.535 80.8166C132.602 80.7515 132.681 80.7002 132.768 80.6658C132.854 80.6312 132.947 80.614 133.04 80.6153C133.134 80.6165 133.226 80.6362 133.311 80.6732C133.397 80.7101 133.475 80.7637 133.54 80.8307C133.605 80.8977 133.656 80.9769 133.69 81.0637C134.229 82.4849 134.754 83.7497 135.251 85.0856C135.315 85.2628 135.306 85.4581 135.226 85.6287C135.146 85.7992 135.002 85.9311 134.825 85.9952C134.757 85.9948 134.689 85.9803 134.627 85.9526L134.584 86.052ZM130.228 75.45C130.093 75.4508 129.96 75.4122 129.847 75.339C129.734 75.2659 129.644 75.1612 129.589 75.0379C129.007 73.773 128.383 72.4798 127.73 71.2007C127.673 71.1179 127.635 71.0239 127.617 70.9251C127.599 70.8263 127.603 70.7248 127.627 70.6274C127.651 70.5299 127.696 70.4388 127.758 70.3598C127.82 70.2809 127.898 70.2161 127.987 70.1696C128.076 70.1231 128.173 70.0959 128.273 70.09C128.374 70.084 128.474 70.0994 128.567 70.135C128.661 70.1707 128.746 70.2258 128.817 70.2968C128.888 70.3679 128.943 70.4531 128.979 70.547C129.646 71.8402 130.284 73.1619 130.88 74.441C130.958 74.6146 130.964 74.8117 130.898 74.9898C130.831 75.1679 130.698 75.3128 130.526 75.3932C130.439 75.3942 130.352 75.3797 130.27 75.3506L130.228 75.45ZM124.835 65.3597C124.713 65.3577 124.594 65.3256 124.487 65.266C124.381 65.2065 124.291 65.1215 124.225 65.0186C123.487 63.8106 122.692 62.6026 121.912 61.4514C121.806 61.296 121.764 61.1051 121.796 60.9194C121.827 60.7337 121.93 60.5677 122.082 60.4566C122.24 60.3551 122.431 60.3177 122.615 60.352C122.8 60.3863 122.964 60.4898 123.075 60.6413C123.884 61.8209 124.679 63.0431 125.431 64.2653C125.495 64.3735 125.53 64.4964 125.532 64.6221C125.535 64.7479 125.504 64.872 125.444 64.9824C125.384 65.0928 125.296 65.1856 125.19 65.2518C125.083 65.3179 124.961 65.3551 124.835 65.3597ZM118.208 56.0225C118.103 56.0242 117.999 56.0006 117.905 55.9536C117.812 55.9066 117.73 55.8376 117.669 55.7525C116.789 54.6724 115.852 53.5781 114.902 52.5122C114.78 52.3679 114.719 52.1817 114.732 51.9932C114.746 51.8047 114.832 51.6289 114.973 51.5032C115.037 51.437 115.115 51.3844 115.2 51.3485C115.285 51.3126 115.377 51.2941 115.469 51.2941C115.562 51.2941 115.653 51.3126 115.739 51.3485C115.824 51.3844 115.901 51.437 115.966 51.5032C116.931 52.5832 117.868 53.706 118.804 54.8003C118.923 54.9481 118.978 55.1365 118.96 55.3251C118.941 55.5137 118.85 55.6875 118.705 55.8093C118.569 55.8937 118.41 55.9335 118.251 55.923L118.208 56.0225ZM110.488 47.5807C110.396 47.5837 110.305 47.5675 110.219 47.5333C110.134 47.499 110.056 47.4474 109.992 47.3817C108.97 46.4011 107.92 45.4347 106.856 44.5394C106.725 44.4041 106.651 44.2232 106.651 44.0348C106.651 43.8465 106.725 43.6656 106.856 43.5303C106.988 43.4001 107.167 43.3272 107.352 43.3272C107.538 43.3272 107.716 43.4001 107.849 43.5303C108.927 44.4825 110.006 45.4631 111.028 46.458C111.129 46.5557 111.199 46.6813 111.229 46.8189C111.259 46.9566 111.247 47.0999 111.195 47.2309C111.143 47.3619 111.054 47.4745 110.938 47.5545C110.823 47.6345 110.686 47.6782 110.545 47.6802L110.488 47.5807ZM101.789 40.1479C101.635 40.1512 101.485 40.101 101.364 40.0058C100.229 39.1531 99.0649 38.3146 97.9013 37.5045C97.75 37.3933 97.6466 37.2285 97.6124 37.0437C97.5781 36.8589 97.6154 36.6679 97.7168 36.5097C97.8277 36.3575 97.9935 36.2546 98.179 36.2228C98.3644 36.191 98.5549 36.2327 98.7101 36.3391C99.888 37.1492 101.08 38.0019 102.215 38.8689C102.334 38.9583 102.422 39.0831 102.467 39.2255C102.511 39.3678 102.51 39.5206 102.463 39.662C102.416 39.8035 102.325 39.9266 102.204 40.0138C102.084 40.101 101.938 40.1479 101.789 40.1479ZM92.3244 33.7242C92.1944 33.727 92.0664 33.6924 91.9554 33.6247C90.735 32.8999 89.472 32.2035 88.2374 31.5498C88.1487 31.5099 88.0691 31.4521 88.0036 31.3801C87.9381 31.3081 87.888 31.2234 87.8566 31.1312C87.8251 31.039 87.813 30.9413 87.8208 30.8442C87.8286 30.7471 87.8563 30.6527 87.9022 30.5667C87.948 30.4808 88.0109 30.4052 88.0872 30.3447C88.1634 30.2842 88.2512 30.24 88.3452 30.2149C88.4392 30.1898 88.5374 30.1843 88.6336 30.1988C88.7298 30.2133 88.8219 30.2475 88.9044 30.2991C90.1532 30.9671 91.4303 31.7203 92.6791 32.4025C92.8402 32.4974 92.9574 32.6521 93.0052 32.8331C93.053 33.014 93.0276 33.2066 92.9345 33.3689C92.8716 33.4753 92.7824 33.5639 92.6756 33.6261C92.5688 33.6883 92.4479 33.722 92.3244 33.7242Z" fill="#E0E0E0"/>
<path d="M130.596 195C130.461 194.996 130.329 194.957 130.213 194.887C130.056 194.785 129.944 194.625 129.902 194.442C129.86 194.259 129.89 194.067 129.986 193.906C129.986 193.906 130.384 193.281 131.008 192.101C131.048 192.012 131.105 191.933 131.177 191.867C131.249 191.801 131.334 191.751 131.426 191.72C131.518 191.688 131.615 191.676 131.712 191.684C131.809 191.692 131.904 191.72 131.989 191.765C132.075 191.811 132.151 191.874 132.211 191.951C132.272 192.027 132.316 192.115 132.341 192.209C132.366 192.303 132.371 192.402 132.357 192.498C132.342 192.594 132.308 192.687 132.257 192.769C131.59 194.02 131.192 194.659 131.192 194.659C131.13 194.762 131.043 194.847 130.938 194.907C130.834 194.967 130.716 194.999 130.596 195Z" fill="#E0E0E0"/>
</svg>
