<svg width="25" height="25" viewBox="0 0 25 25" fill="none" xmlns="http://www.w3.org/2000/svg">
<path d="M16.954 14.7075L13.4683 12.0932V6.76794C13.4683 6.23249 13.0354 5.79968 12.5 5.79968C11.9646 5.79968 11.5317 6.23249 11.5317 6.76794V12.5774C11.5317 12.8824 11.675 13.17 11.919 13.352L15.792 16.2568C15.9663 16.3875 16.1696 16.4504 16.372 16.4504C16.6673 16.4504 16.9578 16.3178 17.1476 16.0621C17.4691 15.6351 17.3819 15.028 16.954 14.7075Z" fill="#FFC24B"/>
<path d="M12.5 0C5.60708 0 0 5.60708 0 12.5C0 19.3929 5.60708 25 12.5 25C19.3929 25 25 19.3929 25 12.5C25 5.60708 19.3929 0 12.5 0ZM12.5 23.0635C6.67603 23.0635 1.93647 18.324 1.93647 12.5C1.93647 6.67603 6.67603 1.93647 12.5 1.93647C18.325 1.93647 23.0635 6.67603 23.0635 12.5C23.0635 18.324 18.324 23.0635 12.5 23.0635Z" fill="#FFC24B"/>
</svg>
