<svg width="25" height="25" viewBox="0 0 25 25" fill="none" xmlns="http://www.w3.org/2000/svg">
<path d="M6.42191 19.9869C6.05416 20.0085 5.69249 19.8849 5.41316 19.6419C4.86228 19.0813 4.86228 18.1759 5.41316 17.6153L17.4757 5.41227C18.0487 4.86988 18.9478 4.90003 19.4839 5.47967C19.9687 6.00383 19.997 6.80949 19.5501 7.36707L7.41644 19.6419C7.14072 19.8813 6.78485 20.0048 6.42191 19.9869Z" fill="#F44336"/>
<path d="M18.4704 19.9922C18.0977 19.9905 17.7405 19.8409 17.4759 19.5753L5.41326 7.37227C4.9029 6.76935 4.97228 5.86198 5.56827 5.34562C6.10021 4.88479 6.88471 4.88479 7.41659 5.34562L19.5502 17.5486C20.1231 18.0912 20.1527 19.0008 19.6164 19.5803C19.5951 19.6033 19.573 19.6256 19.5502 19.6472C19.2531 19.9086 18.8621 20.0335 18.4704 19.9922Z" fill="#F44336"/>
</svg>
