<svg width="40" height="40" viewBox="0 0 40 40" fill="none" xmlns="http://www.w3.org/2000/svg">
<path d="M35.4589 37.614H4.54106C2.03729 37.614 0 35.5767 0 33.0729V6.85991C0 4.35614 2.03729 2.31885 4.54106 2.31885H35.4589C37.9627 2.31885 40 4.35614 40 6.85991V33.0729C40 35.5767 37.9627 37.614 35.4589 37.614ZM4.54106 3.6715C2.78306 3.6715 1.35266 5.10191 1.35266 6.85991V33.0729C1.35266 34.8309 2.78306 36.2613 4.54106 36.2613H35.4589C37.2169 36.2613 38.6473 34.8309 38.6473 33.0729V6.85991C38.6473 5.10191 37.2169 3.6715 35.4589 3.6715H4.54106Z" fill="#393333"/>
<path d="M33.8957 27.2882H23.2681C22.8944 27.2882 22.5917 26.9855 22.5917 26.6119C22.5917 26.2386 22.8944 25.9355 23.2681 25.9355H33.8957C34.269 25.9355 34.572 26.2386 34.572 26.6119C34.572 26.9855 34.2693 27.2882 33.8957 27.2882Z" fill="#393333"/>
<path d="M33.8957 32.1781H23.2681C22.8944 32.1781 22.5917 31.8754 22.5917 31.5018C22.5917 31.1285 22.8944 30.8254 23.2681 30.8254H33.8957C34.269 30.8254 34.572 31.1285 34.572 31.5018C34.572 31.8754 34.2693 32.1781 33.8957 32.1781Z" fill="#393333"/>
<path d="M33.8957 17.5087H23.2681C22.8944 17.5087 22.5917 17.206 22.5917 16.8323C22.5917 16.4591 22.8944 16.156 23.2681 16.156H33.8957C34.269 16.156 34.572 16.4591 34.572 16.8323C34.572 17.206 34.2693 17.5087 33.8957 17.5087Z" fill="#393333"/>
<path d="M33.8957 22.3986H23.2681C22.8944 22.3986 22.5917 22.0959 22.5917 21.7222C22.5917 21.349 22.8944 21.0459 23.2681 21.0459H33.8957C34.269 21.0459 34.572 21.349 34.572 21.7222C34.572 22.0959 34.2693 22.3986 33.8957 22.3986Z" fill="#393333"/>
<path d="M39.3237 11.3749H0.676328C0.302687 11.3749 0 11.0722 0 10.6985C0 10.3249 0.302687 10.0222 0.676328 10.0222H39.3237C39.6973 10.0222 40 10.3249 40 10.6985C40 11.0722 39.6973 11.3749 39.3237 11.3749Z" fill="#393333"/>
<path d="M9.75014 8.96431C8.58959 8.96431 7.64529 8.02039 7.64529 6.85984C7.64529 5.69929 8.58959 4.75537 9.75014 4.75537C10.9107 4.75537 11.8546 5.69929 11.8546 6.85984C11.8546 8.02039 10.9107 8.96431 9.75014 8.96431ZM9.75014 6.10803C9.33536 6.10803 8.99795 6.44544 8.99795 6.85984C8.99795 7.27424 9.33536 7.61165 9.75014 7.61165C10.1645 7.61165 10.5019 7.27424 10.5019 6.85984C10.5019 6.44544 10.1645 6.10803 9.75014 6.10803Z" fill="#393333"/>
<path d="M4.87696 8.96431C3.71679 8.96431 2.77249 8.02039 2.77249 6.85984C2.77249 5.69929 3.71679 4.75537 4.87696 4.75537C6.03751 4.75537 6.98181 5.69929 6.98181 6.85984C6.98181 8.02039 6.03751 8.96431 4.87696 8.96431ZM4.87696 6.10803C4.46256 6.10803 4.12515 6.44544 4.12515 6.85984C4.12515 7.27424 4.46256 7.61165 4.87696 7.61165C5.29174 7.61165 5.62915 7.27424 5.62915 6.85984C5.62915 6.44544 5.29174 6.10803 4.87696 6.10803Z" fill="#393333"/>
<path d="M14.623 8.96431C13.4624 8.96431 12.5185 8.02039 12.5185 6.85984C12.5185 5.69929 13.4624 4.75537 14.623 4.75537C15.7835 4.75537 16.7278 5.69929 16.7278 6.85984C16.7278 8.02039 15.7835 8.96431 14.623 8.96431ZM14.623 6.10803C14.2082 6.10803 13.8712 6.44544 13.8712 6.85984C13.8712 7.27424 14.2086 7.61165 14.623 7.61165C15.0377 7.61165 15.3752 7.27424 15.3752 6.85984C15.3752 6.44544 15.0377 6.10803 14.623 6.10803Z" fill="#393333"/>
<path d="M18.1642 32.178H5.89371C5.52006 32.178 5.21738 31.8754 5.21738 31.5017V16.8323C5.21738 16.4591 5.52006 16.156 5.89371 16.156H18.1642C18.5379 16.156 18.8406 16.4591 18.8406 16.8323V31.5017C18.8406 31.8754 18.5379 32.178 18.1642 32.178ZM6.57003 30.8254H17.4879V17.5087H6.57003V30.8254Z" fill="#393333"/>
</svg>
