<svg width="50" height="50" viewBox="0 0 50 50" fill="none" xmlns="http://www.w3.org/2000/svg">
<path d="M38.4121 33.4068H36.5549C36.3891 32.9038 36.1871 32.4135 35.9505 31.9397L37.2637 30.632C37.4436 30.4509 37.5445 30.206 37.5445 29.9507C37.5445 29.6955 37.4436 29.4505 37.2637 29.2694L33.967 25.9452C33.7859 25.7654 33.541 25.6645 33.2857 25.6645C33.0304 25.6645 32.7855 25.7654 32.6044 25.9452L31.2637 27.2584C30.793 27.0178 30.3043 26.8139 29.8022 26.6485V24.7914C29.8007 24.5368 29.699 24.2931 29.519 24.1131C29.3389 23.933 29.0952 23.8313 28.8406 23.8298H24.1318C23.8773 23.8313 23.6335 23.933 23.4535 24.1131C23.2735 24.2931 23.1717 24.5368 23.1703 24.7914V26.6485C22.6681 26.8139 22.1795 27.0178 21.7088 27.2584L20.3956 25.9452C20.2144 25.7654 19.9695 25.6645 19.7143 25.6645C19.459 25.6645 19.2141 25.7654 19.0329 25.9452L15.7088 29.2694C15.5289 29.4505 15.428 29.6955 15.428 29.9507C15.428 30.206 15.5289 30.4509 15.7088 30.632L17.0329 31.9452C16.7964 32.4171 16.5944 32.9056 16.4285 33.4068H14.5604C14.3054 33.4068 14.0608 33.5081 13.8805 33.6884C13.7002 33.8687 13.5989 34.1133 13.5989 34.3683V39.0716C13.5989 39.3266 13.7002 39.5712 13.8805 39.7515C14.0608 39.9318 14.3054 40.0331 14.5604 40.0331H16.4176C16.5836 40.5376 16.7893 41.0282 17.0329 41.5002L15.7198 42.8134C15.5403 42.9936 15.4395 43.2376 15.4395 43.4919C15.4395 43.7463 15.5403 43.9903 15.7198 44.1705L19.0439 47.5002C19.2251 47.68 19.47 47.7809 19.7253 47.7809C19.9805 47.7809 20.2254 47.68 20.4066 47.5002L21.7198 46.187C22.1917 46.4235 22.6801 46.6255 23.1813 46.7914V48.6485C23.1813 48.9035 23.2826 49.1481 23.4629 49.3284C23.6432 49.5088 23.8878 49.6101 24.1428 49.6101H28.8516C29.1066 49.6101 29.3512 49.5088 29.5315 49.3284C29.7119 49.1481 29.8132 48.9035 29.8132 48.6485V46.7914C30.3151 46.6275 30.8037 46.4254 31.2747 46.187L32.5879 47.5002C32.7717 47.6749 33.0156 47.7723 33.2692 47.7723C33.5228 47.7723 33.7667 47.6749 33.9505 47.5002L37.2472 44.1705C37.3374 44.082 37.4091 43.9764 37.458 43.8599C37.5069 43.7434 37.5321 43.6183 37.5321 43.4919C37.5321 43.3656 37.5069 43.2405 37.458 43.1239C37.4091 43.0074 37.3374 42.9018 37.2472 42.8134L35.934 41.5002C36.1716 41.0268 36.3736 40.5364 36.5384 40.0331H38.4011C38.6563 40.0333 38.9012 39.9326 39.0824 39.7529C39.261 39.571 39.3616 39.3265 39.3626 39.0716V34.3683C39.3626 34.1152 39.2628 33.8723 39.0849 33.6922C38.9069 33.5122 38.6652 33.4097 38.4121 33.4068ZM35.8351 38.1101C35.6202 38.1099 35.4113 38.1818 35.242 38.3143C35.0727 38.4468 34.9527 38.6321 34.9011 38.8408C34.6941 39.6621 34.3683 40.4488 33.934 41.176C33.8227 41.3589 33.7753 41.5736 33.7992 41.7864C33.823 41.9992 33.9168 42.1981 34.0659 42.3518L35.2088 43.4947L33.2417 45.4617L32.0989 44.3134C31.946 44.1634 31.7478 44.0681 31.5352 44.0423C31.3226 44.0164 31.1074 44.0615 30.9231 44.1705C30.1968 44.6066 29.4098 44.9325 28.5879 45.1375C28.3802 45.1882 28.1956 45.3074 28.064 45.4759C27.9324 45.6444 27.8615 45.8523 27.8626 46.0661V47.7145H25.0934V46.0661C25.0945 45.8523 25.0236 45.6444 24.892 45.4759C24.7604 45.3074 24.5758 45.1882 24.3681 45.1375C23.5468 44.9305 22.7601 44.6047 22.0329 44.1705C21.8483 44.0613 21.6325 44.0166 21.4196 44.0434C21.2068 44.0703 21.0089 44.1672 20.8571 44.3189L19.7143 45.4617L17.7472 43.4947L18.8901 42.3518C19.0418 42.2001 19.1386 42.0022 19.1655 41.7893C19.1924 41.5764 19.1477 41.3607 19.0384 41.176C18.6015 40.4501 18.2756 39.6631 18.0714 38.8408C18.0198 38.6321 17.8998 38.4468 17.7305 38.3143C17.5611 38.1818 17.3523 38.1099 17.1373 38.1101H15.522V35.3298H17.1373C17.3501 35.3309 17.5573 35.2614 17.7263 35.1321C17.8953 35.0029 18.0167 34.8212 18.0714 34.6156C18.2791 33.7927 18.6048 33.0043 19.0384 32.2749C19.1482 32.0913 19.1932 31.8763 19.1663 31.6641C19.1394 31.452 19.0421 31.2549 18.8901 31.1046L17.7472 29.9507L19.7143 27.9837L20.8791 29.121C21.0295 29.2731 21.2265 29.3704 21.4387 29.3973C21.6508 29.4241 21.8659 29.3791 22.0494 29.2694C22.7753 28.8325 23.5624 28.5065 24.3846 28.3024C24.5927 28.2506 24.7774 28.1303 24.909 27.9609C25.0405 27.7915 25.1113 27.5828 25.1099 27.3683V25.7199H27.8956V27.3683C27.8954 27.5833 27.9673 27.7921 28.0998 27.9614C28.2323 28.1307 28.4177 28.2508 28.6263 28.3024C29.4486 28.5065 30.2357 28.8325 30.9615 29.2694C31.1434 29.375 31.355 29.4177 31.5636 29.3909C31.7722 29.3641 31.9661 29.2692 32.1154 29.121L33.2582 27.9782L35.2253 29.9452L34.0659 31.0936C33.9138 31.2439 33.8166 31.441 33.7897 31.6531C33.7628 31.8653 33.8078 32.0803 33.9176 32.2639C34.36 32.9948 34.6914 33.7873 34.9011 34.6156C34.9537 34.8232 35.0742 35.0074 35.2434 35.1388C35.4126 35.2702 35.6209 35.3413 35.8351 35.3408H37.4835V38.121L35.8351 38.1101Z" fill="#393333"/>
<path d="M29.434 32.0331C29.2644 32.2226 29.1761 32.4712 29.1885 32.7252C29.2008 32.9792 29.3127 33.2182 29.5 33.3903C30.2789 34.0939 30.787 35.048 30.936 36.0871C31.0851 37.1261 30.8658 38.1846 30.3162 39.0789C29.7665 39.9732 28.9212 40.6469 27.9268 40.9831C26.9324 41.3194 25.8517 41.2969 24.8721 40.9198C23.8925 40.5426 23.0759 39.8344 22.5638 38.9181C22.0517 38.0018 21.8764 36.9352 22.0685 35.9032C22.2605 34.8712 22.8077 33.939 23.6151 33.2683C24.4225 32.5975 25.4393 32.2305 26.489 32.2309C26.744 32.2309 26.9886 32.1296 27.1689 31.9493C27.3492 31.769 27.4505 31.5244 27.4505 31.2694C27.4505 31.0144 27.3492 30.7698 27.1689 30.5895C26.9886 30.4092 26.744 30.3079 26.489 30.3079C24.9904 30.311 23.5402 30.8385 22.3897 31.7989C21.2393 32.7593 20.4613 34.092 20.1905 35.5659C19.9198 37.0398 20.1734 38.562 20.9073 39.8686C21.6413 41.1751 22.8093 42.1836 24.209 42.7192C25.6086 43.2547 27.1515 43.2836 28.5702 42.8008C29.9888 42.3179 31.1938 41.3539 31.9761 40.0757C32.7585 38.7975 33.0688 37.2859 32.8534 35.8028C32.638 34.3198 31.9103 32.959 30.7967 31.9562C30.6055 31.7862 30.3548 31.6989 30.0995 31.7133C29.8441 31.7277 29.6048 31.8427 29.434 32.0331Z" fill="#393333"/>
<path d="M43.4725 16.1046C43.2579 11.635 41.3689 7.40984 38.1813 4.26941C36.8597 2.97422 35.2932 1.95536 33.5734 1.27234C31.8536 0.589327 30.0149 0.25585 28.1648 0.291387C22.6483 0.439739 17.6483 4.05512 15.1703 9.59358C13.8836 9.02756 12.4875 8.75359 11.0824 8.79139C5.02744 8.93974 0.219743 14.632 0.3626 21.4672C0.398688 24.9202 1.79909 28.2187 4.2582 30.643C6.15071 32.4995 8.68966 33.5494 11.3406 33.5716H11.5989C11.8539 33.5716 12.0985 33.4703 12.2788 33.29C12.4591 33.1097 12.5604 32.8651 12.5604 32.6101C12.5604 32.355 12.4591 32.1105 12.2788 31.9302C12.0985 31.7498 11.8539 31.6485 11.5989 31.6485H11.5384C10.4355 31.6622 9.3407 31.4581 8.31677 31.048C7.29284 30.6379 6.3599 30.0297 5.57139 29.2584C3.4852 27.1848 2.30402 24.3701 2.28568 21.4287C2.1648 15.6485 6.13183 10.8408 11.1318 10.709C12.5558 10.6896 13.9592 11.05 15.1978 11.7529C16.0765 12.2148 16.8191 12.8986 17.3516 13.7364C17.4342 13.8886 17.5565 14.0154 17.7055 14.1035C17.8545 14.1916 18.0247 14.2375 18.1978 14.2364C18.3573 14.2388 18.5146 14.199 18.6538 14.1211C18.8772 13.9991 19.0431 13.7935 19.1152 13.5494C19.1873 13.3053 19.1597 13.0426 19.0384 12.8189C18.4982 11.8959 17.7563 11.107 16.8681 10.5112C19.0164 5.5826 23.3956 2.34084 28.2197 2.19798C29.8158 2.16951 31.4015 2.46006 32.8837 3.05259C34.366 3.64512 35.715 4.52769 36.8516 5.64853C39.6379 8.39565 41.3077 12.0777 41.5384 15.9837C40.5959 16.0265 39.6673 16.2271 38.7912 16.5771C38.5818 16.6589 38.4077 16.8114 38.2991 17.0082C38.1906 17.205 38.1544 17.4336 38.1968 17.6543C38.2392 17.875 38.3577 18.0739 38.5315 18.2164C38.7053 18.3589 38.9236 18.4359 39.1483 18.4342C39.2686 18.4337 39.3877 18.4114 39.5 18.3683C40.4569 17.9993 41.4814 17.8382 42.5055 17.8958C45.5329 18.1925 47.8626 21.0496 47.9285 24.5661C48.011 28.3683 45.4066 31.5331 42.1318 31.6211C41.9936 31.5996 41.8523 31.6085 41.7178 31.6473C41.5834 31.6861 41.459 31.7537 41.3534 31.8455C41.2478 31.9373 41.1635 32.0511 41.1064 32.1788C41.0493 32.3065 41.0208 32.4452 41.0228 32.5851C41.0248 32.725 41.0574 32.8628 41.1181 32.9889C41.1789 33.1149 41.2665 33.2262 41.3747 33.3149C41.4829 33.4036 41.6092 33.4676 41.7447 33.5024C41.8802 33.5373 42.0217 33.5421 42.1593 33.5167C46.4945 33.4013 49.934 29.3573 49.8516 24.5002C49.7472 20.3298 47.0714 16.8738 43.4725 16.1046Z" fill="#393333"/>
</svg>
