<svg width="50" height="50" viewBox="0 0 50 50" fill="none" xmlns="http://www.w3.org/2000/svg">
<path d="M25.4615 17.0714H30.8626C31.1177 17.0714 31.3622 16.9701 31.5426 16.7897C31.7229 16.6094 31.8242 16.3649 31.8242 16.1098V10.7032C31.8242 10.4482 31.7229 10.2037 31.5426 10.0233C31.3622 9.843 31.1177 9.7417 30.8626 9.7417H25.4615C25.2065 9.7417 24.962 9.843 24.7816 10.0233C24.6013 10.2037 24.5 10.4482 24.5 10.7032V16.1098C24.5 16.3649 24.6013 16.6094 24.7816 16.7897C24.962 16.9701 25.2065 17.0714 25.4615 17.0714ZM26.4231 11.6648H29.9011V15.1483H26.4231V11.6648Z" fill="#393333"/>
<path d="M36.7472 17.0714H42.1538C42.4088 17.0714 42.6534 16.9701 42.8337 16.7897C43.014 16.6094 43.1153 16.3649 43.1153 16.1098V10.7032C43.1153 10.4482 43.014 10.2037 42.8337 10.0233C42.6534 9.843 42.4088 9.7417 42.1538 9.7417H36.7472C36.4926 9.74314 36.2489 9.84491 36.0689 10.0249C35.8889 10.2049 35.7871 10.4487 35.7856 10.7032V16.1098C35.7871 16.3644 35.8889 16.6081 36.0689 16.7882C36.2489 16.9682 36.4926 17.0699 36.7472 17.0714ZM37.7087 11.6648H41.2087V15.1483H37.7087V11.6648Z" fill="#393333"/>
<path d="M48.5604 4.04384H1.64831C1.52066 4.04165 1.39385 4.06491 1.27528 4.11225C1.15671 4.15959 1.04876 4.23007 0.957719 4.31958C0.866678 4.40908 0.794374 4.51582 0.745025 4.63357C0.695676 4.75131 0.670269 4.87771 0.670288 5.00538V37.8186C0.670269 37.9462 0.695676 38.0726 0.745025 38.1904C0.794374 38.3081 0.866678 38.4149 0.957719 38.5044C1.04876 38.5939 1.15671 38.6644 1.27528 38.7117C1.39385 38.759 1.52066 38.7823 1.64831 38.7801H19.3131V43.9559H12.5934C12.3384 43.9559 12.0938 44.0572 11.9135 44.2376C11.7331 44.4179 11.6318 44.6625 11.6318 44.9175C11.6318 45.1725 11.7331 45.4171 11.9135 45.5974C12.0938 45.7777 12.3384 45.879 12.5934 45.879H37.6044C37.8594 45.879 38.1039 45.7777 38.2843 45.5974C38.4646 45.4171 38.5659 45.1725 38.5659 44.9175C38.5659 44.6625 38.4646 44.4179 38.2843 44.2376C38.1039 44.0572 37.8594 43.9559 37.6044 43.9559H30.8791V38.7801H44.2252C45.6301 38.7772 46.9764 38.2175 47.9693 37.2236C48.9622 36.2297 49.5205 34.8827 49.5219 33.4779V5.00538C49.5219 4.75036 49.4206 4.50579 49.2403 4.32547C49.06 4.14515 48.8154 4.04384 48.5604 4.04384ZM28.956 43.9559H21.2362V38.7801H28.956V43.9559ZM47.5989 33.5164C47.5974 34.4112 47.2417 35.269 46.6095 35.9022C45.9773 36.5355 45.12 36.8926 44.2252 36.8955H2.59336V32.1098H43.2527C43.5077 32.1098 43.7523 32.0085 43.9326 31.8281C44.1129 31.6478 44.2142 31.4033 44.2142 31.1482C44.2142 30.8932 44.1129 30.6487 43.9326 30.4683C43.7523 30.288 43.5077 30.1867 43.2527 30.1867H2.59336V5.96692H47.5989V33.5164Z" fill="#393333"/>
<path d="M8.24169 22.4725H19.0274C19.2824 22.4725 19.527 22.3712 19.7073 22.1908C19.8876 22.0105 19.9889 21.7659 19.9889 21.5109V10.7032C19.9889 10.4482 19.8876 10.2037 19.7073 10.0233C19.527 9.843 19.2824 9.7417 19.0274 9.7417H8.24169C7.98712 9.74314 7.74338 9.84491 7.56337 10.0249C7.38336 10.2049 7.28159 10.4487 7.28015 10.7032V21.5109C7.28015 21.7659 7.38146 22.0105 7.56178 22.1908C7.7421 22.3712 7.98667 22.4725 8.24169 22.4725ZM10.5659 20.5494L13.6483 17.467L16.7307 20.5494H10.5659ZM18.0878 19.1868L15.0054 16.1098L18.0878 13.0274V19.1868ZM16.7032 11.6648L13.6263 14.7472L10.5439 11.6648H16.7032ZM9.18125 13.0274L12.2637 16.1098L9.18125 19.1868V13.0274Z" fill="#393333"/>
<path d="M25.4615 22.1704H42.022C42.277 22.1704 42.5216 22.0691 42.7019 21.8888C42.8822 21.7084 42.9835 21.4639 42.9835 21.2089C42.9835 20.9538 42.8822 20.7093 42.7019 20.5289C42.5216 20.3486 42.277 20.2473 42.022 20.2473H25.4615C25.2065 20.2473 24.962 20.3486 24.7816 20.5289C24.6013 20.7093 24.5 20.9538 24.5 21.2089C24.5 21.4639 24.6013 21.7084 24.7816 21.8888C24.962 22.0691 25.2065 22.1704 25.4615 22.1704Z" fill="#393333"/>
<path d="M25.4615 26.7141H31.3187C31.5737 26.7141 31.8183 26.6128 31.9986 26.4325C32.1789 26.2521 32.2802 26.0076 32.2802 25.7526C32.2802 25.4975 32.1789 25.253 31.9986 25.0726C31.8183 24.8923 31.5737 24.791 31.3187 24.791H25.4615C25.2065 24.791 24.962 24.8923 24.7816 25.0726C24.6013 25.253 24.5 25.4975 24.5 25.7526C24.5 26.0076 24.6013 26.2521 24.7816 26.4325C24.962 26.6128 25.2065 26.7141 25.4615 26.7141Z" fill="#393333"/>
<path d="M25.0934 35.313C25.6244 35.313 26.0549 34.8825 26.0549 34.3514C26.0549 33.8204 25.6244 33.3899 25.0934 33.3899C24.5623 33.3899 24.1318 33.8204 24.1318 34.3514C24.1318 34.8825 24.5623 35.313 25.0934 35.313Z" fill="#393333"/>
</svg>
