<svg width="555" height="500" viewBox="0 0 555 500" fill="none" xmlns="http://www.w3.org/2000/svg">
<g clip-path="url(#clip0)">
<path fill-rule="evenodd" clip-rule="evenodd" d="M56.3526 206.71C65.3085 240.177 94.8504 265.338 116.803 294.909C142.13 329.026 145.532 383.993 194.651 393.006C244.84 402.216 275.219 344.685 324.57 333.034C375.844 320.928 439.224 351.59 481.014 325.397C523.234 298.935 532.653 248.707 526.117 206.71C519.939 167.006 482.978 135.792 447.075 107.301C415.807 82.4887 374.55 71.2581 335.075 55.1096C285.387 34.7832 241.923 -5.7505 186.452 0.684605C130.035 7.22946 86.3847 46.9047 61.1357 86.889C37.9419 123.619 45.6232 166.616 56.3526 206.71Z" fill="#F6F1E6"/>
<path opacity="0.9" d="M277.5 499.379C430.672 499.379 554.843 492.22 554.843 483.39C554.843 474.56 430.672 467.401 277.5 467.401C124.328 467.401 0.157471 474.56 0.157471 483.39C0.157471 492.22 124.328 499.379 277.5 499.379Z" fill="#F5F5F5"/>
<path d="M272.274 120.141C280.361 115.06 286.74 107.725 290.605 99.0634C294.469 90.4021 295.646 80.8037 293.986 71.4819C292.326 62.1602 287.904 53.5339 281.279 46.694C274.654 39.854 266.123 35.1077 256.766 33.0551C247.409 31.0025 237.645 31.736 228.71 35.1627C219.775 38.5894 212.07 44.5554 206.569 52.3063C201.068 60.0572 198.018 69.2448 197.806 78.7072C197.593 88.1696 200.227 97.4818 205.374 105.466C212.288 116.157 223.212 123.704 235.753 126.455C248.293 129.206 261.426 126.936 272.274 120.141Z" fill="#FFCF5C"/>
<path d="M239.074 136.356C239.249 136.357 239.417 136.294 239.546 136.179C239.676 136.064 239.758 135.906 239.775 135.735C239.8 135.549 239.749 135.362 239.633 135.214C239.518 135.065 239.348 134.968 239.16 134.944C238.23 134.831 237.301 134.689 236.299 134.534C236.206 134.517 236.109 134.519 236.016 134.539C235.923 134.559 235.834 134.597 235.756 134.651C235.678 134.705 235.611 134.773 235.559 134.852C235.508 134.932 235.472 135.02 235.455 135.113C235.439 135.206 235.44 135.301 235.461 135.393C235.481 135.485 235.519 135.572 235.574 135.65C235.628 135.727 235.698 135.793 235.778 135.844C235.858 135.895 235.948 135.93 236.042 135.946C237 136.116 237.944 136.257 238.903 136.384L239.074 136.356ZM260.402 135.071H260.574C262.915 134.482 265.218 133.751 267.468 132.881C267.642 132.809 267.781 132.673 267.856 132.502C267.931 132.331 267.935 132.138 267.869 131.963C267.836 131.876 267.785 131.796 267.72 131.728C267.655 131.66 267.576 131.607 267.489 131.57C267.402 131.533 267.309 131.513 267.214 131.513C267.12 131.513 267.026 131.531 266.939 131.568C264.748 132.415 262.508 133.132 260.23 133.715C260.041 133.737 259.868 133.833 259.75 133.982C259.632 134.13 259.578 134.318 259.601 134.506C259.624 134.693 259.721 134.864 259.871 134.98C260.021 135.097 260.212 135.15 260.402 135.127V135.071ZM222.668 131.751C222.805 131.751 222.94 131.711 223.054 131.635C223.168 131.56 223.258 131.453 223.311 131.328C223.389 131.157 223.395 130.963 223.328 130.789C223.26 130.614 223.126 130.473 222.954 130.396C216.516 127.506 210.691 123.437 205.789 118.404C205.726 118.329 205.649 118.268 205.561 118.224C205.473 118.18 205.377 118.154 205.279 118.148C205.181 118.143 205.082 118.157 204.99 118.191C204.898 118.224 204.813 118.276 204.742 118.344C204.671 118.411 204.615 118.492 204.577 118.581C204.539 118.671 204.52 118.768 204.522 118.865C204.524 118.962 204.545 119.058 204.586 119.146C204.627 119.234 204.686 119.314 204.759 119.379C209.792 124.55 215.778 128.725 222.396 131.681C222.468 131.716 222.545 131.74 222.625 131.751H222.668ZM271.13 131.186C271.233 131.213 271.341 131.213 271.445 131.186C273.463 130.216 275.426 129.137 277.324 127.952C281.537 125.3 285.384 122.119 288.767 118.489C288.845 118.424 288.909 118.344 288.954 118.253C288.998 118.163 289.023 118.064 289.025 117.963C289.028 117.862 289.008 117.762 288.968 117.669C288.928 117.577 288.869 117.493 288.794 117.425C288.719 117.357 288.629 117.305 288.532 117.274C288.435 117.243 288.333 117.232 288.231 117.243C288.13 117.255 288.032 117.287 287.944 117.339C287.856 117.39 287.781 117.46 287.723 117.542C284.411 121.075 280.652 124.17 276.537 126.751C274.697 127.92 272.786 128.977 270.815 129.915C270.731 129.956 270.655 130.013 270.593 130.082C270.53 130.152 270.482 130.233 270.452 130.321C270.421 130.409 270.409 130.502 270.414 130.595C270.42 130.687 270.445 130.778 270.486 130.862C270.549 130.963 270.637 131.046 270.743 131.103C270.848 131.16 270.967 131.189 271.087 131.186H271.13ZM202.384 116.441C202.553 116.44 202.715 116.38 202.842 116.271C202.987 116.153 203.079 115.982 203.098 115.797C203.117 115.612 203.061 115.427 202.942 115.283C201.44 113.484 200.05 111.598 198.78 109.633L198.322 108.912C198.275 108.833 198.212 108.763 198.137 108.708C198.063 108.653 197.977 108.613 197.887 108.59C197.796 108.568 197.702 108.564 197.61 108.578C197.517 108.592 197.429 108.624 197.349 108.672C197.188 108.772 197.073 108.929 197.028 109.111C196.982 109.293 197.01 109.485 197.106 109.647L197.578 110.381C198.888 112.396 200.321 114.33 201.869 116.172C201.986 116.319 202.155 116.415 202.341 116.441H202.384ZM296.534 107.175C296.663 107.177 296.79 107.144 296.901 107.079C297.012 107.014 297.103 106.92 297.163 106.808C297.621 105.961 298.065 105.113 298.465 104.251C298.507 104.168 298.531 104.077 298.537 103.985C298.543 103.892 298.53 103.799 298.5 103.711C298.469 103.623 298.421 103.542 298.359 103.472C298.296 103.403 298.221 103.346 298.136 103.305C297.963 103.227 297.766 103.219 297.587 103.282C297.408 103.346 297.261 103.475 297.178 103.644C296.777 104.492 296.348 105.311 295.905 106.13C295.859 106.212 295.831 106.301 295.821 106.394C295.811 106.486 295.819 106.58 295.846 106.669C295.872 106.758 295.916 106.841 295.976 106.914C296.035 106.986 296.108 107.046 296.191 107.09C296.284 107.139 296.386 107.168 296.491 107.175H296.534ZM190.083 90.3955H190.197C190.384 90.3611 190.549 90.2562 190.659 90.1033C190.768 89.9504 190.813 89.7614 190.784 89.5763C190.612 88.6582 190.483 87.7402 190.355 86.7515C190.343 86.6587 190.314 86.5691 190.267 86.4877C190.221 86.4063 190.159 86.3346 190.084 86.2769C190.01 86.2192 189.925 86.1765 189.834 86.1513C189.743 86.1261 189.648 86.1189 189.554 86.13C189.46 86.1411 189.369 86.1704 189.286 86.2162C189.204 86.262 189.131 86.3233 189.073 86.3968C189.015 86.4702 188.971 86.5543 188.946 86.6443C188.92 86.7342 188.913 86.8282 188.924 86.921C189.039 87.8673 189.196 88.8136 189.353 89.7458C189.371 89.9244 189.456 90.0899 189.591 90.2101C189.726 90.3303 189.901 90.3964 190.083 90.3955ZM303.171 84.3503C303.354 84.3507 303.529 84.2821 303.662 84.1587C303.795 84.0353 303.875 83.8664 303.886 83.6865C303.972 82.4012 304.015 81.0876 304.015 79.7882C304.015 78.7148 304.015 77.6272 303.929 76.5396C303.911 76.3548 303.823 76.1837 303.682 76.0605C303.542 75.9373 303.359 75.8713 303.171 75.8758C303.077 75.8812 302.985 75.9048 302.901 75.9454C302.816 75.986 302.74 76.0427 302.678 76.1122C302.615 76.1818 302.567 76.2628 302.537 76.3507C302.506 76.4386 302.493 76.5316 302.499 76.6244C302.499 77.6837 302.585 78.7289 302.585 79.7882C302.585 80.8475 302.585 82.3306 302.456 83.5876C302.448 83.6815 302.46 83.7761 302.489 83.8656C302.519 83.9551 302.567 84.0378 302.629 84.1089C302.692 84.18 302.768 84.238 302.854 84.2794C302.94 84.3209 303.033 84.345 303.128 84.3503H303.171ZM189.668 73.4464C189.841 73.4442 190.008 73.38 190.137 73.2657C190.266 73.1514 190.348 72.9948 190.369 72.8249C191.257 65.8914 193.455 59.184 196.849 53.0509C196.896 52.9698 196.926 52.8801 196.937 52.7872C196.948 52.6942 196.94 52.6 196.914 52.5103C196.887 52.4205 196.842 52.337 196.782 52.2648C196.721 52.1927 196.647 52.1334 196.563 52.0905C196.481 52.046 196.391 52.0181 196.299 52.0082C196.206 51.9984 196.113 52.0069 196.023 52.0332C195.934 52.0595 195.851 52.1031 195.779 52.1614C195.707 52.2198 195.648 52.2917 195.604 52.3729C192.086 58.654 189.805 65.5361 188.881 72.6554C188.869 72.7464 188.876 72.8389 188.9 72.9274C188.925 73.0159 188.967 73.0987 189.024 73.171C189.081 73.2433 189.153 73.3036 189.234 73.3484C189.315 73.3933 189.404 73.4218 189.496 73.4323L189.668 73.4464ZM302.799 73.0085H302.899C303.087 72.9839 303.257 72.8868 303.373 72.7386C303.488 72.5903 303.539 72.403 303.514 72.2176C302.557 65.1101 300.241 58.2466 296.691 51.9916C296.598 51.8288 296.444 51.7092 296.261 51.6589C296.079 51.6086 295.884 51.6317 295.719 51.7232C295.636 51.7676 295.563 51.8276 295.504 51.9C295.444 51.9723 295.4 52.0555 295.374 52.1448C295.347 52.234 295.339 52.3276 295.349 52.42C295.359 52.5125 295.387 52.6021 295.433 52.6837C298.909 58.7962 301.171 65.5076 302.098 72.4577C302.134 72.6146 302.223 72.7547 302.351 72.8549C302.478 72.9551 302.636 73.0093 302.799 73.0085ZM198.379 49.76C198.497 49.7601 198.614 49.7318 198.718 49.6777C198.823 49.6236 198.913 49.5452 198.98 49.4492C200.26 47.4806 201.665 45.5936 203.185 43.7995C203.317 43.6651 203.391 43.4853 203.391 43.2981C203.391 43.1109 203.317 42.9311 203.185 42.7967C203.038 42.6771 202.85 42.619 202.66 42.6349C202.47 42.6507 202.294 42.7392 202.17 42.8814C200.618 44.7016 199.185 46.6169 197.879 48.6159C197.776 48.7733 197.742 48.9643 197.782 49.147C197.822 49.3297 197.934 49.4891 198.093 49.5905C198.184 49.6776 198.298 49.7366 198.422 49.76H198.379ZM287.58 41.6809C287.766 41.6791 287.944 41.6085 288.08 41.4831C288.147 41.4175 288.201 41.3394 288.237 41.2533C288.273 41.1672 288.292 41.0749 288.292 40.9817C288.292 40.8885 288.273 40.7962 288.237 40.7101C288.201 40.6241 288.147 40.546 288.08 40.4803C287.408 39.7882 286.721 39.0679 286.035 38.4605C285.969 38.3883 285.889 38.3302 285.799 38.29C285.71 38.2497 285.613 38.2282 285.514 38.2266C285.416 38.2251 285.318 38.2436 285.228 38.281C285.137 38.3185 285.055 38.374 284.987 38.4441C284.919 38.5143 284.866 38.5975 284.832 38.6887C284.798 38.7799 284.783 38.877 284.789 38.974C284.795 39.071 284.821 39.1657 284.865 39.2524C284.91 39.339 284.972 39.4156 285.048 39.4775C285.72 40.1131 286.392 40.7769 287.036 41.4549C287.106 41.5271 287.191 41.5845 287.284 41.6233C287.378 41.6622 287.478 41.6818 287.58 41.6809ZM219.249 30.8617C219.364 30.8624 219.478 30.8331 219.578 30.7769C220.408 30.3249 221.252 29.9012 222.095 29.5057C222.181 29.4678 222.258 29.4133 222.321 29.3455C222.385 29.2777 222.434 29.1981 222.466 29.1112C222.498 29.0243 222.512 28.9319 222.508 28.8396C222.503 28.7472 222.48 28.6568 222.439 28.5735C222.399 28.4887 222.342 28.4126 222.272 28.3495C222.202 28.2865 222.12 28.2378 222.031 28.2062C221.942 28.1747 221.848 28.161 221.753 28.1658C221.658 28.1707 221.566 28.194 221.48 28.2345C220.622 28.6441 219.75 29.0679 218.906 29.534C218.822 29.5754 218.748 29.6334 218.687 29.7043C218.627 29.7751 218.582 29.8574 218.555 29.9461C218.529 30.0347 218.521 30.1279 218.532 30.2197C218.543 30.3116 218.573 30.4003 218.62 30.4803C218.682 30.5987 218.776 30.6974 218.893 30.7648C219.009 30.8323 219.143 30.8659 219.278 30.8617H219.249ZM267.668 28.2487C267.81 28.2519 267.95 28.2115 268.068 28.1331C268.186 28.0547 268.276 27.9421 268.326 27.8108C268.394 27.6381 268.391 27.4464 268.319 27.2754C268.247 27.1045 268.112 26.9675 267.94 26.8927C265.701 26.0003 263.408 25.2456 261.074 24.6328C260.888 24.5853 260.691 24.6121 260.525 24.7072C260.359 24.8024 260.238 24.9584 260.187 25.1413C260.164 25.2313 260.158 25.325 260.171 25.417C260.184 25.509 260.216 25.5976 260.264 25.6777C260.311 25.7577 260.375 25.8276 260.45 25.8835C260.525 25.9393 260.611 25.9799 260.702 26.0029C262.98 26.6085 265.216 27.3586 267.397 28.2487C267.487 28.2622 267.578 28.2622 267.668 28.2487ZM235.37 25.1554H235.513C242.47 23.8561 249.612 23.8561 256.568 25.1554C256.754 25.1885 256.946 25.1476 257.101 25.0417C257.257 24.9359 257.363 24.7737 257.398 24.5905C257.432 24.4053 257.391 24.2144 257.284 24.0587C257.177 23.903 257.013 23.7947 256.826 23.7571C249.694 22.4292 242.373 22.4292 235.241 23.7571C235.054 23.7947 234.89 23.903 234.783 24.0587C234.676 24.2144 234.635 24.4053 234.669 24.5905C234.699 24.7526 234.785 24.8992 234.913 25.005C235.041 25.1107 235.203 25.169 235.37 25.1696V25.1554Z" fill="#FFCF5C"/>
<path opacity="0.8" d="M272.274 120.141C280.361 115.06 286.74 107.725 290.605 99.0634C294.469 90.4021 295.646 80.8037 293.986 71.4819C292.326 62.1602 287.904 53.5339 281.279 46.694C274.654 39.854 266.123 35.1077 256.766 33.0551C247.409 31.0025 237.645 31.736 228.71 35.1627C219.775 38.5894 212.07 44.5554 206.569 52.3063C201.068 60.0572 198.018 69.2448 197.806 78.7072C197.593 88.1696 200.227 97.4818 205.374 105.466C212.288 116.157 223.212 123.704 235.753 126.455C248.293 129.206 261.426 126.936 272.274 120.141Z" fill="white"/>
<path d="M82.3155 69.2091C82.5052 69.2091 82.6871 69.1347 82.8213 69.0022C82.9554 68.8698 83.0308 68.6902 83.0308 68.5029C83.0308 68.3156 82.9554 68.1359 82.8213 68.0035C82.6871 67.8711 82.5052 67.7967 82.3155 67.7967C81.4001 67.7967 80.456 67.6978 79.5262 67.5848C79.433 67.573 79.3383 67.5799 79.2478 67.605C79.1573 67.6301 79.0729 67.6729 78.9995 67.7309C78.9261 67.7888 78.8652 67.8608 78.8206 67.9425C78.7759 68.0241 78.7483 68.1139 78.7395 68.2063C78.7275 68.2973 78.734 68.3897 78.7585 68.4782C78.783 68.5667 78.8252 68.6495 78.8824 68.7218C78.9396 68.7941 79.0109 68.8544 79.0919 68.8993C79.173 68.9441 79.2623 68.9726 79.3546 68.9831C80.3273 69.0961 81.3143 69.1808 82.2154 69.2091H82.3155ZM66.0947 64.308C66.2477 64.3046 66.3956 64.2529 66.5166 64.1603C66.6377 64.0678 66.7254 63.9394 66.7671 63.794C66.8087 63.6485 66.8019 63.4938 66.7479 63.3524C66.6938 63.211 66.5952 63.0905 66.4666 63.0085C60.5006 59.2911 55.9409 53.7364 53.4927 47.2034C53.4245 47.0324 53.2914 46.8944 53.1217 46.8187C52.952 46.743 52.7592 46.7357 52.5841 46.7982C52.409 46.8607 52.2655 46.9882 52.1841 47.1536C52.1027 47.3189 52.0898 47.5091 52.1482 47.6837C54.7073 54.5133 59.4729 60.3208 65.7085 64.2091C65.8227 64.2861 65.9565 64.3301 66.0947 64.3362V64.308ZM102.456 63.1356C102.606 63.138 102.753 63.088 102.871 62.9944C104.851 61.5898 106.665 59.9694 108.278 58.1639C108.346 58.1005 108.4 58.0239 108.438 57.9389C108.475 57.8538 108.494 57.7622 108.494 57.6695C108.494 57.5769 108.475 57.4852 108.438 57.4002C108.4 57.3152 108.346 57.2386 108.278 57.1752C108.211 57.109 108.132 57.0564 108.045 57.0206C107.958 56.9847 107.864 56.9663 107.77 56.9663C107.675 56.9663 107.582 56.9847 107.495 57.0206C107.408 57.0564 107.328 57.109 107.262 57.1752C105.713 58.8965 103.981 60.4495 102.098 61.808C101.979 61.8961 101.891 62.0189 101.846 62.159C101.8 62.2991 101.801 62.4497 101.846 62.5897C101.892 62.7296 101.981 62.852 102.1 62.9398C102.22 63.0275 102.364 63.0762 102.513 63.0791L102.456 63.1356ZM110.38 55.0848C110.497 55.0863 110.612 55.0586 110.714 55.0043C110.817 54.9499 110.904 54.8707 110.967 54.7741C114.695 49.3585 116.689 42.961 116.688 36.4125C116.688 35.7063 116.688 35 116.617 34.2797C116.602 34.0936 116.515 33.9204 116.374 33.7966C116.232 33.6728 116.048 33.608 115.859 33.6159C115.765 33.6213 115.673 33.6449 115.588 33.6855C115.503 33.7261 115.428 33.7828 115.365 33.8523C115.303 33.9219 115.255 34.0029 115.224 34.0908C115.193 34.1787 115.181 34.2717 115.186 34.3644C115.186 35.0424 115.258 35.7769 115.258 36.4125C115.269 42.6812 113.37 48.8082 109.808 53.9972C109.704 54.1551 109.666 54.3471 109.704 54.5319C109.741 54.7168 109.851 54.8798 110.008 54.9859C110.12 55.0548 110.249 55.0892 110.38 55.0848ZM51.5617 44.1102H51.719C51.8113 44.0902 51.8986 44.0523 51.976 43.9988C52.0533 43.9453 52.1191 43.8771 52.1697 43.7983C52.2202 43.7195 52.2544 43.6316 52.2704 43.5397C52.2863 43.4478 52.2837 43.3537 52.2626 43.2627C51.7586 41.0133 51.5044 38.7163 51.5045 36.4125C51.5008 36.2263 51.4243 36.0488 51.2909 35.9171C51.1576 35.7854 50.9778 35.7099 50.7893 35.7063C50.5996 35.7063 50.4177 35.7807 50.2835 35.9131C50.1494 36.0455 50.074 36.2252 50.074 36.4125C50.0693 38.8207 50.3332 41.2222 50.8608 43.5735C50.8994 43.7278 50.9896 43.8647 51.1168 43.9621C51.244 44.0595 51.4007 44.1117 51.5617 44.1102ZM52.7775 26.0029C52.9255 26.0071 53.0709 25.964 53.1921 25.88C53.3132 25.796 53.4036 25.6756 53.4498 25.5368C53.7788 24.6752 54.1364 23.8277 54.5369 22.9944C54.5777 22.9111 54.6011 22.8207 54.6059 22.7283C54.6106 22.636 54.5966 22.5436 54.5646 22.4567C54.5326 22.3698 54.4832 22.2901 54.4195 22.2224C54.3558 22.1546 54.279 22.1002 54.1936 22.0622C54.1091 22.0212 54.0173 21.9971 53.9233 21.9913C53.8294 21.9854 53.7352 21.9979 53.6461 22.0281C53.5571 22.0583 53.475 22.1055 53.4045 22.1671C53.334 22.2287 53.2765 22.3035 53.2353 22.387C52.8205 23.2627 52.4485 24.1526 52.1052 25.0565C52.0408 25.2326 52.0498 25.4267 52.1303 25.5962C52.2108 25.7657 52.3561 25.8967 52.5344 25.9605L52.7775 26.0029ZM111.839 21.5678C111.959 21.5667 112.077 21.5377 112.183 21.4831C112.266 21.4389 112.339 21.3787 112.398 21.306C112.457 21.2333 112.5 21.1496 112.525 21.0599C112.551 20.9703 112.558 20.8765 112.545 20.7841C112.533 20.6918 112.502 20.6029 112.454 20.5226C111.997 19.6893 111.482 18.856 110.938 18.065C110.831 17.9092 110.666 17.8013 110.478 17.7643C110.291 17.7273 110.097 17.7643 109.937 17.8673C109.858 17.9197 109.791 17.987 109.739 18.0653C109.687 18.1436 109.652 18.2312 109.634 18.3232C109.617 18.4152 109.618 18.5097 109.638 18.6011C109.658 18.6926 109.697 18.7792 109.751 18.856C110.266 19.6187 110.752 20.4096 111.181 21.2006C111.248 21.3271 111.352 21.4302 111.48 21.4959C111.608 21.5616 111.753 21.5867 111.896 21.5678H111.839ZM62.5902 12.3447C62.7584 12.3442 62.9209 12.2841 63.0479 12.1752C68.4764 7.72006 75.2598 5.18897 82.3155 4.98591C82.4138 4.98822 82.5115 4.9701 82.6022 4.93272C82.6929 4.89534 82.7746 4.83954 82.842 4.76895C82.9095 4.69835 82.9611 4.61454 82.9936 4.52295C83.0262 4.43136 83.0388 4.33405 83.0308 4.23732C83.0329 4.14343 83.0153 4.05012 82.979 3.9633C82.9428 3.87648 82.8886 3.79804 82.82 3.73298C82.7515 3.66791 82.6699 3.61762 82.5806 3.5853C82.4913 3.55298 82.3962 3.53934 82.3012 3.54524C74.9244 3.74861 67.831 6.39509 62.161 11.0594C62.017 11.1824 61.9274 11.3561 61.9114 11.5435C61.8953 11.7309 61.9541 11.917 62.0752 12.0622C62.1411 12.1507 62.2273 12.2225 62.3268 12.2716C62.4262 12.3208 62.5362 12.3458 62.6474 12.3447H62.5902ZM93.6158 6.59608C93.8055 6.62605 93.9995 6.58039 94.155 6.46914C94.3106 6.35789 94.4151 6.19016 94.4455 6.00286C94.4758 5.81556 94.4296 5.62403 94.3169 5.4704C94.2042 5.31677 94.0344 5.21362 93.8447 5.18365C91.5222 4.43179 89.1243 3.92983 86.6926 3.68648C86.5987 3.6772 86.5038 3.68629 86.4134 3.71321C86.3231 3.74013 86.239 3.78437 86.1659 3.84339C86.0929 3.90241 86.0323 3.97506 85.9877 4.05719C85.9431 4.13933 85.9153 4.22932 85.9059 4.32207C85.8965 4.41481 85.9057 4.50847 85.933 4.59771C85.9602 4.68694 86.005 4.76999 86.0648 4.84213C86.1246 4.91426 86.1981 4.97406 86.2813 5.01812C86.3645 5.06218 86.4556 5.08963 86.5496 5.09891C88.8696 5.32035 91.1579 5.79403 93.3727 6.51134C93.4471 6.55549 93.5298 6.58432 93.6158 6.59608Z" fill="#FFCF5C"/>
<path d="M64.7345 54.8271C54.4281 44.6503 54.4281 28.1504 64.7345 17.9736C75.0409 7.79681 91.7508 7.79683 102.057 17.9736C112.364 28.1504 112.364 44.6503 102.057 54.8271C91.7508 65.0039 75.0409 65.0039 64.7345 54.8271Z" fill="#FFCF5C"/>
<path opacity="0.8" d="M64.7345 54.8271C54.4281 44.6503 54.4281 28.1504 64.7345 17.9736C75.0409 7.79681 91.7508 7.79683 102.057 17.9736C112.364 28.1504 112.364 44.6503 102.057 54.8271C91.7508 65.0039 75.0409 65.0039 64.7345 54.8271Z" fill="white"/>
<path d="M83.3884 22.3871C81.2863 22.3808 79.2417 23.0643 77.5758 24.3303C75.9099 25.5962 74.7171 27.3728 74.1849 29.3808C73.6528 31.3889 73.8114 33.5147 74.6358 35.4241C75.4603 37.3335 76.9038 38.9183 78.7395 39.9295C78.9418 40.0438 79.1127 40.2053 79.2374 40.3998C79.362 40.5942 79.4366 40.8158 79.4548 41.0453H87.322C87.3417 40.8145 87.4184 40.592 87.5457 40.3974C87.6729 40.2029 87.8466 40.0421 88.0515 39.9295C89.8771 38.9102 91.3096 37.3231 92.1258 35.4156C92.942 33.5081 93.0958 31.3875 92.5634 29.3846C92.031 27.3817 90.8422 25.6091 89.1825 24.3433C87.5228 23.0775 85.4855 22.3897 83.3884 22.3871ZM83.3884 20.9747C85.801 20.9782 88.1446 21.7699 90.0538 23.2264C91.963 24.6829 93.3304 26.7223 93.9427 29.0266C94.5551 31.3308 94.3781 33.7704 93.4392 35.9649C92.5003 38.1594 90.8524 39.9855 88.7524 41.1583L88.6666 42.4577H78.1245L78.0387 41.1583C75.9284 39.9935 74.2696 38.1697 73.3225 35.9734C72.3754 33.777 72.1936 31.3323 72.8057 29.0229C73.4178 26.7135 74.7891 24.6701 76.7045 23.2135C78.6198 21.7568 80.9708 20.9694 83.3884 20.9747Z" fill="#FFCF5C"/>
<path d="M78.4391 43.2063H88.3518C88.731 43.2063 89.0385 43.5098 89.0385 43.8842V44.1667C89.0385 44.5412 88.731 44.8447 88.3518 44.8447H78.4391C78.0599 44.8447 77.7525 44.5412 77.7525 44.1667V43.8842C77.7525 43.5098 78.0599 43.2063 78.4391 43.2063Z" fill="#FFCF5C"/>
<path d="M78.7681 45.452H88.0229C88.4021 45.452 88.7095 45.7555 88.7095 46.13V46.4124C88.7095 46.7869 88.4021 47.0904 88.0229 47.0904H78.7681C78.3889 47.0904 78.0815 46.7869 78.0815 46.4124V46.13C78.0815 45.7555 78.3889 45.452 78.7681 45.452Z" fill="#FFCF5C"/>
<path d="M79.183 47.7119H87.6081C87.9873 47.7119 88.2947 48.0155 88.2947 48.3899V48.6724C88.2947 49.0468 87.9873 49.3503 87.6081 49.3503H79.183C78.8038 49.3503 78.4963 49.0468 78.4963 48.6724V48.3899C78.4963 48.0155 78.8038 47.7119 79.183 47.7119Z" fill="#FFCF5C"/>
<path d="M86.6926 50.0706C86.3354 50.6128 85.8467 51.0582 85.2709 51.3666C84.6952 51.6749 84.0505 51.8364 83.3955 51.8364C82.7405 51.8364 82.0959 51.6749 81.5201 51.3666C80.9444 51.0582 80.4557 50.6128 80.0984 50.0706H86.6926Z" fill="#FFCF5C"/>
<path d="M81.6004 42.4718C81.6474 42.4722 81.6941 42.4626 81.737 42.4437C81.78 42.4248 81.8184 42.397 81.8496 42.3622C81.8808 42.3274 81.9041 42.2863 81.9178 42.2419C81.9316 42.1975 81.9355 42.1506 81.9294 42.1045C81.9294 41.8786 81.586 36.9351 80.2415 34.5622H80.9853C81.0567 34.5613 81.1262 34.5392 81.1849 34.499C81.2435 34.4587 81.2886 34.402 81.3143 34.3362L81.5145 33.8701L82.1582 35.4661C82.184 35.5319 82.229 35.5886 82.2876 35.6289C82.3463 35.6692 82.4158 35.6912 82.4872 35.6921C82.5582 35.6894 82.6269 35.6667 82.6852 35.6266C82.7435 35.5866 82.789 35.5309 82.8162 35.4661L83.4456 33.9125L84.0607 35.4661C84.0943 35.5249 84.1432 35.5738 84.2022 35.6078C84.2613 35.6418 84.3284 35.6597 84.3968 35.6597C84.4652 35.6597 84.5323 35.6418 84.5914 35.6078C84.6505 35.5738 84.6993 35.5249 84.733 35.4661L85.3194 33.8983L85.5054 34.3362C85.5311 34.402 85.5762 34.4587 85.6348 34.499C85.6934 34.5392 85.7629 34.5613 85.8344 34.5622H86.5639C85.2336 36.9351 84.8903 41.8786 84.876 42.1045C84.8721 42.1514 84.878 42.1985 84.8934 42.243C84.9089 42.2874 84.9336 42.3282 84.9659 42.3627C84.9981 42.3973 85.0373 42.4248 85.081 42.4436C85.1246 42.4623 85.1717 42.4719 85.2193 42.4718C85.266 42.4778 85.3134 42.4739 85.3584 42.4604C85.4034 42.4468 85.445 42.4238 85.4802 42.393C85.5155 42.3622 85.5436 42.3243 85.5628 42.2819C85.5819 42.2394 85.5916 42.1934 85.5912 42.1469C85.5912 42.1469 85.9917 36.2853 87.508 34.4209C87.5455 34.3669 87.5656 34.3029 87.5656 34.2373C87.5656 34.1718 87.5455 34.1078 87.508 34.0537C87.4804 33.9943 87.436 33.944 87.3802 33.9089C87.3244 33.8739 87.2595 33.8555 87.1933 33.856H86.0347L85.6055 32.8108C85.5792 32.7465 85.5335 32.6917 85.4747 32.6538C85.4159 32.6159 85.3467 32.5967 85.2765 32.5989C85.2067 32.5987 85.1384 32.6186 85.0799 32.6562C85.0215 32.6939 84.9754 32.7476 84.9475 32.8108L84.3181 34.3786L83.7031 32.8108C83.6752 32.7476 83.6291 32.6939 83.5707 32.6562C83.5122 32.6186 83.4439 32.5987 83.3741 32.5989C83.3022 32.5977 83.2316 32.6171 83.1707 32.6547C83.1098 32.6923 83.0612 32.7465 83.0308 32.8108L82.4157 34.3786L81.7863 32.8108C81.7626 32.7476 81.7196 32.6933 81.6632 32.6553C81.6068 32.6173 81.5399 32.5976 81.4716 32.5989C81.3991 32.5937 81.3267 32.6115 81.265 32.6495C81.2033 32.6876 81.1555 32.7441 81.1284 32.8108L80.6706 33.856H79.512C79.4456 33.856 79.3805 33.8742 79.324 33.9087C79.2675 33.9432 79.2218 33.9925 79.1921 34.0512C79.1624 34.1098 79.1499 34.1755 79.1558 34.2408C79.1618 34.3061 79.186 34.3685 79.2259 34.4209C80.7564 36.2853 81.1426 42.0904 81.1426 42.1469C81.1473 42.1996 81.1635 42.2506 81.1899 42.2965C81.2164 42.3424 81.2526 42.3822 81.2961 42.413C81.3395 42.4438 81.3892 42.465 81.4417 42.4752C81.4943 42.4853 81.5483 42.4842 81.6004 42.4718Z" fill="#FFCF5C"/>
<path d="M389.139 249.802C391.554 249.629 393.949 249.237 396.291 248.63C396.472 248.574 396.624 248.453 396.717 248.29C396.81 248.127 396.837 247.936 396.792 247.754C396.742 247.575 396.622 247.423 396.458 247.33C396.295 247.238 396.101 247.212 395.919 247.26C393.658 247.855 391.345 248.233 389.01 248.39C388.819 248.404 388.642 248.492 388.516 248.635C388.39 248.778 388.326 248.964 388.338 249.153C388.345 249.248 388.372 249.341 388.416 249.426C388.461 249.511 388.522 249.586 388.597 249.647C388.672 249.708 388.759 249.753 388.852 249.78C388.945 249.806 389.043 249.814 389.139 249.802ZM400.268 247.331H400.525C407.374 244.699 413.326 240.203 417.69 234.364C417.799 234.212 417.843 234.023 417.814 233.839C417.784 233.654 417.684 233.488 417.533 233.376C417.457 233.321 417.37 233.281 417.279 233.259C417.187 233.237 417.092 233.234 416.999 233.248C416.906 233.263 416.817 233.295 416.737 233.344C416.657 233.392 416.587 233.456 416.531 233.531C412.349 239.149 406.634 243.475 400.053 246.003C399.863 246.037 399.695 246.143 399.585 246.3C399.475 246.456 399.432 246.649 399.467 246.836C399.501 247.024 399.609 247.19 399.767 247.298C399.925 247.407 400.121 247.449 400.311 247.415L400.268 247.331ZM368.441 245.41C368.571 245.409 368.698 245.373 368.809 245.305C368.92 245.238 369.01 245.142 369.07 245.028C369.115 244.948 369.144 244.859 369.154 244.768C369.164 244.676 369.155 244.584 369.128 244.496C369.102 244.408 369.058 244.326 368.998 244.255C368.939 244.184 368.867 244.125 368.784 244.082C367.955 243.644 367.139 243.164 366.367 242.67C366.208 242.58 366.02 242.554 365.842 242.597C365.664 242.64 365.51 242.749 365.411 242.901C365.312 243.053 365.276 243.237 365.31 243.415C365.344 243.592 365.446 243.75 365.594 243.856C366.41 244.379 367.254 244.859 368.112 245.268C368.214 245.35 368.339 245.399 368.47 245.41H368.441ZM355.667 234.322C355.818 234.323 355.964 234.273 356.082 234.181C356.16 234.127 356.225 234.059 356.276 233.98C356.326 233.902 356.361 233.814 356.377 233.722C356.393 233.63 356.39 233.536 356.369 233.445C356.348 233.354 356.309 233.268 356.254 233.192C352.118 227.541 349.697 220.844 349.273 213.884C349.27 213.791 349.247 213.699 349.207 213.614C349.166 213.53 349.109 213.454 349.038 213.392C348.967 213.33 348.884 213.283 348.794 213.254C348.705 213.224 348.61 213.213 348.515 213.22C348.421 213.226 348.329 213.249 348.245 213.29C348.16 213.331 348.084 213.387 348.022 213.457C347.959 213.526 347.911 213.607 347.881 213.695C347.85 213.783 347.837 213.876 347.843 213.969C348.278 221.197 350.789 228.154 355.081 234.025C355.152 234.12 355.245 234.196 355.352 234.248C355.459 234.299 355.577 234.325 355.696 234.322H355.667ZM423.183 221.935C423.342 221.937 423.497 221.887 423.624 221.793C423.751 221.698 423.842 221.564 423.884 221.412L424.027 220.848C424.213 220.099 424.37 219.35 424.513 218.602C424.547 218.414 424.505 218.221 424.395 218.065C424.285 217.909 424.116 217.802 423.927 217.768C423.737 217.735 423.542 217.777 423.383 217.885C423.225 217.994 423.117 218.16 423.083 218.348C422.94 219.063 422.782 219.783 422.611 220.509L422.468 221.059C422.419 221.239 422.445 221.43 422.539 221.592C422.632 221.753 422.787 221.871 422.968 221.921L423.183 221.935ZM348.572 210.452C348.755 210.452 348.931 210.384 349.064 210.26C349.197 210.137 349.277 209.968 349.288 209.788C349.421 207.478 349.771 205.185 350.332 202.938C351.315 198.971 352.964 195.195 355.21 191.766C355.3 191.609 355.327 191.423 355.283 191.247C355.239 191.072 355.129 190.919 354.975 190.822C354.821 190.724 354.635 190.688 354.455 190.722C354.275 190.756 354.115 190.856 354.008 191.003C350.352 196.604 348.237 203.049 347.872 209.703C347.866 209.796 347.879 209.889 347.909 209.977C347.94 210.065 347.988 210.146 348.05 210.216C348.113 210.285 348.189 210.342 348.273 210.382C348.358 210.423 348.45 210.447 348.544 210.452H348.572ZM421.71 198.446C421.799 198.467 421.892 198.467 421.981 198.446C422.069 198.412 422.148 198.361 422.216 198.297C422.283 198.232 422.337 198.155 422.374 198.069C422.412 197.984 422.431 197.892 422.433 197.8C422.434 197.707 422.417 197.615 422.382 197.528C421.47 195.306 420.35 193.174 419.035 191.158C418.987 191.075 418.922 191.002 418.844 190.944C418.767 190.887 418.678 190.845 418.584 190.822C418.489 190.799 418.391 190.796 418.296 190.812C418.2 190.827 418.108 190.862 418.027 190.914C417.945 190.966 417.875 191.034 417.821 191.113C417.766 191.193 417.729 191.282 417.711 191.376C417.693 191.471 417.694 191.568 417.715 191.661C417.736 191.755 417.776 191.843 417.833 191.921C419.099 193.864 420.177 195.922 421.052 198.065C421.122 198.172 421.22 198.258 421.336 198.315C421.452 198.372 421.581 198.398 421.71 198.39V198.446ZM415.988 188.757C416.153 188.753 416.313 188.699 416.446 188.602C416.589 188.479 416.679 188.306 416.697 188.12C416.716 187.934 416.662 187.747 416.546 187.599C411.911 181.986 405.754 177.793 398.794 175.509C398.614 175.451 398.418 175.466 398.249 175.55C398.08 175.635 397.952 175.783 397.893 175.961C397.834 176.137 397.847 176.329 397.93 176.495C398.013 176.662 398.159 176.789 398.337 176.85C405.071 179.031 411.028 183.075 415.502 188.503C415.615 188.611 415.76 188.681 415.916 188.701L415.988 188.757ZM357.212 188.672C357.316 188.674 357.419 188.651 357.514 188.607C357.608 188.563 357.691 188.498 357.756 188.418C359.246 186.635 360.898 184.99 362.691 183.503C362.764 183.445 362.825 183.374 362.87 183.292C362.915 183.211 362.943 183.122 362.953 183.029C362.962 182.937 362.952 182.844 362.925 182.756C362.897 182.667 362.851 182.585 362.791 182.514C362.731 182.443 362.658 182.383 362.575 182.34C362.492 182.297 362.402 182.271 362.308 182.263C362.215 182.255 362.121 182.266 362.032 182.294C361.943 182.323 361.86 182.369 361.79 182.429C359.917 183.958 358.197 185.661 356.654 187.514C356.538 187.662 356.484 187.849 356.503 188.035C356.521 188.222 356.611 188.394 356.754 188.517C356.872 188.583 357.005 188.617 357.141 188.616L357.212 188.672ZM381.629 175.268H381.715C382.645 175.155 383.589 175.057 384.576 175.014C384.764 175 384.94 174.914 385.065 174.774C385.191 174.634 385.256 174.452 385.248 174.266C385.243 174.173 385.219 174.082 385.178 173.998C385.137 173.915 385.079 173.84 385.009 173.778C384.938 173.717 384.856 173.669 384.767 173.639C384.678 173.609 384.584 173.596 384.49 173.602C383.532 173.602 382.559 173.743 381.629 173.87C381.44 173.883 381.263 173.97 381.138 174.112C381.014 174.254 380.951 174.438 380.964 174.626C380.977 174.813 381.066 174.987 381.209 175.111C381.353 175.234 381.54 175.296 381.729 175.283L381.629 175.268Z" fill="#FFCF5C"/>
<path d="M386.493 242.09C369.492 242.09 355.71 228.482 355.71 211.695C355.71 194.908 369.492 181.299 386.493 181.299C403.493 181.299 417.275 194.908 417.275 211.695C417.275 228.482 403.493 242.09 386.493 242.09Z" fill="#FFCF5C"/>
<path opacity="0.8" d="M386.493 242.09C369.492 242.09 355.71 228.482 355.71 211.695C355.71 194.908 369.492 181.299 386.493 181.299C403.493 181.299 417.275 194.908 417.275 211.695C417.275 228.482 403.493 242.09 386.493 242.09Z" fill="white"/>
<path d="M413.842 90.904C414.032 90.9265 414.223 90.8736 414.373 90.7571C414.523 90.6405 414.62 90.4698 414.643 90.2825C414.666 90.0952 414.612 89.9067 414.494 89.7583C414.376 89.61 414.203 89.514 414.014 89.4916C413.113 89.2656 412.211 88.9972 411.325 88.7006C411.233 88.6575 411.134 88.6339 411.033 88.6315C410.932 88.6291 410.832 88.6478 410.738 88.6865C410.645 88.7252 410.561 88.7829 410.493 88.8559C410.424 88.9289 410.371 89.0154 410.339 89.1099C410.306 89.2044 410.294 89.3046 410.304 89.4039C410.313 89.5033 410.344 89.5995 410.394 89.6863C410.444 89.7731 410.512 89.8484 410.593 89.9074C410.675 89.9663 410.768 90.0075 410.867 90.0283C411.782 90.339 412.726 90.6215 413.728 90.8616L413.842 90.904ZM434.998 90.2825H435.213C437.525 89.5516 439.761 88.6057 441.893 87.4577C442.059 87.3678 442.183 87.216 442.237 87.0359C442.291 86.8558 442.27 86.662 442.179 86.4972C442.088 86.3324 441.934 86.21 441.752 86.157C441.569 86.1041 441.373 86.1248 441.206 86.2147C439.157 87.3333 437.007 88.2601 434.783 88.9831C434.693 89.0104 434.609 89.0552 434.536 89.1149C434.463 89.1746 434.403 89.2479 434.359 89.3307C434.315 89.4134 434.288 89.504 434.28 89.5971C434.272 89.6901 434.283 89.7839 434.311 89.8729C434.371 90.0011 434.469 90.1087 434.591 90.1817C434.713 90.2547 434.855 90.2898 434.998 90.2825ZM445.197 85.2543C445.341 85.2553 445.481 85.2107 445.597 85.1272C451.597 80.9588 456.275 75.1937 459.086 68.5029C459.158 68.3287 459.157 68.1333 459.083 67.9598C459.01 67.7863 458.869 67.6489 458.693 67.5777C458.516 67.5065 458.319 67.5075 458.143 67.5803C457.967 67.6532 457.828 67.7919 457.756 67.9661C455.057 74.4083 450.557 79.9588 444.782 83.969C444.657 84.0552 444.563 84.1788 444.514 84.3216C444.465 84.4644 444.464 84.6189 444.51 84.7625C444.556 84.9061 444.648 85.0313 444.771 85.1198C444.895 85.2083 445.044 85.2554 445.197 85.2543ZM398.737 83.1639C398.879 83.1544 399.015 83.1034 399.127 83.0172C399.24 82.9311 399.324 82.8138 399.368 82.6803C399.413 82.5468 399.416 82.4033 399.377 82.268C399.339 82.1327 399.26 82.0119 399.152 81.9209C393.77 77.4076 389.801 71.4749 387.708 64.8164C387.653 64.6291 387.525 64.4711 387.352 64.377C387.179 64.283 386.976 64.2607 386.786 64.315C386.596 64.3693 386.436 64.4958 386.341 64.6667C386.246 64.8375 386.223 65.0387 386.278 65.226C388.461 72.1421 392.588 78.3039 398.179 82.9944C398.254 83.0605 398.343 83.11 398.439 83.1392C398.536 83.1684 398.637 83.1769 398.737 83.1639ZM386.035 61.6102H386.164C386.35 61.5726 386.515 61.4644 386.622 61.3086C386.729 61.1529 386.77 60.962 386.736 60.7769C386.295 58.51 386.074 56.2067 386.078 53.8983C386.074 49.8082 386.761 45.746 388.109 41.8786C388.176 41.7041 388.171 41.511 388.096 41.3398C388.022 41.1685 387.883 41.0326 387.708 40.9605C387.53 40.9019 387.336 40.915 387.167 40.9969C386.998 41.0789 386.869 41.2231 386.807 41.3983C385.402 45.4148 384.687 49.6349 384.69 53.8842C384.692 56.2819 384.917 58.6743 385.363 61.0311C385.392 61.1886 385.474 61.3316 385.596 61.4369C385.718 61.5421 385.873 61.6032 386.035 61.6102ZM461.289 55.1836C461.382 55.1855 461.475 55.169 461.562 55.1351C461.648 55.1011 461.727 55.0505 461.794 54.986C461.86 54.9216 461.913 54.8446 461.949 54.7597C461.986 54.6748 462.004 54.5836 462.004 54.4916V53.8983C462.004 53.1356 462.004 52.3729 462.004 51.6243C461.989 51.4383 461.902 51.2651 461.761 51.1412C461.619 51.0174 461.435 50.9526 461.246 50.9605C461.151 50.964 461.058 50.9864 460.973 51.0263C460.887 51.0663 460.811 51.1229 460.748 51.1929C460.685 51.2629 460.637 51.3447 460.607 51.4334C460.577 51.5221 460.566 51.6159 460.574 51.7091C460.574 52.4294 460.574 53.1215 460.574 53.8983V54.4774C460.574 54.6647 460.649 54.8444 460.783 54.9768C460.917 55.1092 461.099 55.1836 461.289 55.1836ZM389.067 38.4322C389.201 38.4325 389.333 38.3956 389.447 38.3256C389.56 38.2557 389.652 38.1556 389.711 38.0368C390.717 35.9499 391.924 33.9634 393.316 32.1046C393.371 32.0295 393.411 31.9443 393.434 31.854C393.456 31.7636 393.46 31.6698 393.445 31.5779C393.43 31.4861 393.398 31.398 393.348 31.3187C393.299 31.2394 393.235 31.1704 393.158 31.1158C393.084 31.0613 392.998 31.022 392.908 31.0003C392.818 30.9786 392.724 30.9748 392.632 30.9893C392.54 31.0038 392.452 31.0361 392.373 31.0845C392.294 31.1329 392.225 31.1964 392.171 31.2712C390.724 33.2 389.469 35.2623 388.424 37.4294C388.382 37.5118 388.358 37.6015 388.353 37.6932C388.347 37.7849 388.36 37.8768 388.39 37.9636C388.421 38.0504 388.469 38.1303 388.531 38.1986C388.593 38.2669 388.669 38.3224 388.753 38.3616C388.85 38.4118 388.958 38.4361 389.067 38.4322ZM454.137 32.6836C454.287 32.6848 454.434 32.635 454.552 32.5424C454.63 32.4891 454.696 32.4207 454.746 32.3414C454.796 32.2622 454.83 32.1737 454.844 32.0813C454.859 31.9889 454.855 31.8945 454.831 31.8038C454.808 31.7131 454.767 31.628 454.709 31.5537C453.291 29.6074 451.686 27.8005 449.917 26.1582C449.853 26.0794 449.773 26.015 449.682 25.9694C449.59 25.9238 449.49 25.898 449.388 25.8939C449.286 25.8897 449.184 25.9073 449.089 25.9454C448.994 25.9835 448.909 26.0412 448.839 26.1146C448.769 26.188 448.715 26.2755 448.682 26.3711C448.649 26.4667 448.637 26.5681 448.647 26.6687C448.657 26.7692 448.689 26.8664 448.74 26.9538C448.791 27.0412 448.861 27.1167 448.944 27.1752C450.622 28.7722 452.15 30.5167 453.507 32.387C453.577 32.4864 453.672 32.5661 453.782 32.6181C453.893 32.6702 454.015 32.6927 454.137 32.6836ZM446.155 24.6328C446.306 24.6381 446.455 24.5952 446.579 24.5104C446.703 24.4256 446.796 24.3035 446.844 24.1622C446.892 24.021 446.893 23.8681 446.846 23.7264C446.8 23.5847 446.708 23.4617 446.584 23.3757C440.738 19.003 433.742 16.3802 426.43 15.8192C426.336 15.8115 426.241 15.8222 426.151 15.8507C426.062 15.8793 425.978 15.925 425.907 15.9854C425.835 16.0458 425.776 16.1196 425.733 16.2026C425.69 16.2856 425.665 16.3761 425.657 16.469C425.645 16.6556 425.707 16.8394 425.83 16.9818C425.953 17.1241 426.127 17.2137 426.315 17.2317C433.352 17.7836 440.085 20.3017 445.726 24.4916C445.849 24.5842 446 24.6338 446.155 24.6328ZM409.537 19.661C409.622 19.6745 409.709 19.6745 409.794 19.661C410.667 19.3221 411.553 19.0113 412.44 18.743C412.531 18.717 412.615 18.6738 412.688 18.6157C412.761 18.5576 412.822 18.4859 412.867 18.4046C412.958 18.2403 412.98 18.0471 412.927 17.8673C412.901 17.7768 412.856 17.6926 412.796 17.6196C412.736 17.5467 412.662 17.4865 412.578 17.4429C412.493 17.3993 412.401 17.3731 412.306 17.3659C412.211 17.3588 412.116 17.3707 412.026 17.4012C411.11 17.6695 410.18 17.9944 409.279 18.3475C409.103 18.414 408.961 18.5462 408.884 18.7154C408.806 18.8846 408.799 19.0772 408.864 19.2514C408.925 19.3762 409.02 19.4812 409.139 19.5539C409.259 19.6265 409.397 19.6637 409.537 19.661Z" fill="#FFCF5C"/>
<path d="M411.522 81.9653C395.82 75.5497 388.368 57.7839 394.876 42.2843C401.385 26.7847 419.389 19.4207 435.091 25.8363C450.792 32.2519 458.245 50.0177 451.737 65.5173C445.228 81.0169 427.223 88.3809 411.522 81.9653Z" fill="#FFCF5C"/>
<path opacity="0.8" d="M411.522 81.9653C395.82 75.5497 388.368 57.7839 394.876 42.2843C401.385 26.7847 419.389 19.4207 435.091 25.8363C450.792 32.2519 458.245 50.0177 451.737 65.5173C445.228 81.0169 427.223 88.3809 411.522 81.9653Z" fill="white"/>
<path d="M374.735 216.102H379.026C379.116 216.102 379.203 216.069 379.269 216.009C379.336 215.948 379.376 215.866 379.384 215.777L379.57 213.87C380.834 213.602 382.043 213.125 383.146 212.458L384.648 213.686C384.715 213.744 384.801 213.776 384.891 213.776C384.98 213.776 385.066 213.744 385.134 213.686L388.152 210.706C388.212 210.643 388.246 210.56 388.246 210.473C388.246 210.387 388.212 210.303 388.152 210.24L386.908 208.828C387.578 207.732 388.061 206.534 388.338 205.283L390.269 205.113C390.358 205.103 390.44 205.062 390.5 204.997C390.56 204.932 390.595 204.848 390.598 204.76V200.523C390.595 200.436 390.56 200.354 390.499 200.291C390.438 200.229 390.356 200.191 390.269 200.184L388.338 200C388.061 198.749 387.578 197.551 386.908 196.455L388.152 194.972C388.212 194.909 388.246 194.825 388.246 194.739C388.246 194.652 388.212 194.569 388.152 194.506L385.134 191.525C385.066 191.468 384.98 191.436 384.891 191.436C384.801 191.436 384.715 191.468 384.648 191.525L383.146 192.754C382.037 192.1 380.83 191.623 379.57 191.342L379.384 189.435C379.376 189.346 379.336 189.264 379.269 189.203C379.203 189.143 379.116 189.11 379.026 189.11H374.735C374.645 189.11 374.558 189.143 374.491 189.203C374.425 189.264 374.384 189.346 374.377 189.435L374.191 191.342C372.931 191.623 371.724 192.1 370.615 192.754L369.113 191.525C369.046 191.468 368.959 191.436 368.87 191.436C368.781 191.436 368.694 191.468 368.627 191.525L365.609 194.506C365.551 194.57 365.52 194.653 365.52 194.739C365.52 194.825 365.551 194.907 365.609 194.972L366.853 196.455C366.176 197.548 365.693 198.747 365.423 200L363.477 200.184C363.391 200.191 363.311 200.23 363.253 200.292C363.195 200.355 363.162 200.437 363.163 200.523V204.76C363.162 204.847 363.194 204.931 363.252 204.996C363.31 205.061 363.39 205.103 363.477 205.113L365.423 205.283C365.693 206.536 366.176 207.735 366.853 208.828L365.609 210.24C365.551 210.305 365.52 210.387 365.52 210.473C365.52 210.559 365.551 210.642 365.609 210.706L368.627 213.686C368.694 213.744 368.781 213.776 368.87 213.776C368.959 213.776 369.046 213.744 369.113 213.686L370.615 212.458C371.718 213.125 372.927 213.602 374.191 213.87L374.377 215.777C374.384 215.866 374.425 215.948 374.491 216.009C374.558 216.069 374.645 216.102 374.735 216.102ZM378.668 215.396H375.064L374.878 213.545C374.871 213.472 374.841 213.403 374.792 213.347C374.744 213.291 374.678 213.252 374.606 213.235C373.244 212.954 371.949 212.422 370.787 211.667C370.724 211.623 370.649 211.599 370.572 211.599C370.495 211.599 370.42 211.623 370.358 211.667L368.927 212.853L366.367 210.325L367.568 208.912C367.614 208.854 367.638 208.782 367.638 208.708C367.638 208.634 367.614 208.562 367.568 208.503C366.798 207.359 366.258 206.078 365.981 204.732C365.966 204.658 365.927 204.59 365.87 204.539C365.814 204.488 365.742 204.457 365.666 204.449L363.792 204.28V200.706L365.68 200.565C365.756 200.557 365.828 200.526 365.885 200.475C365.941 200.424 365.98 200.357 365.995 200.283C366.276 198.937 366.814 197.657 367.583 196.511C367.628 196.452 367.652 196.381 367.652 196.307C367.652 196.233 367.628 196.161 367.583 196.102L366.381 194.689L368.913 192.09L370.343 193.277C370.406 193.321 370.481 193.344 370.558 193.344C370.635 193.344 370.71 193.321 370.772 193.277C371.934 192.522 373.23 191.99 374.592 191.709C374.664 191.692 374.729 191.652 374.778 191.597C374.827 191.541 374.857 191.472 374.863 191.398L375.049 189.548H378.654L378.84 191.398C378.845 191.474 378.877 191.546 378.928 191.603C378.98 191.659 379.05 191.697 379.126 191.709C380.482 191.992 381.773 192.524 382.931 193.277C382.993 193.323 383.068 193.348 383.146 193.348C383.223 193.348 383.298 193.323 383.36 193.277L384.791 192.09L387.337 194.619L386.135 196.031C386.09 196.09 386.065 196.162 386.065 196.236C386.065 196.31 386.09 196.382 386.135 196.441C386.894 197.591 387.432 198.869 387.723 200.212C387.736 200.287 387.774 200.356 387.831 200.407C387.888 200.458 387.961 200.489 388.038 200.494L389.911 200.664V204.237L388.038 204.407C387.961 204.412 387.888 204.443 387.831 204.494C387.774 204.545 387.736 204.614 387.723 204.689C387.439 206.034 386.9 207.313 386.135 208.461C386.091 208.522 386.067 208.597 386.067 208.672C386.067 208.748 386.091 208.822 386.135 208.884L387.337 210.297L384.791 212.825L383.36 211.638C383.298 211.593 383.223 211.568 383.146 211.568C383.068 211.568 382.993 211.593 382.931 211.638C381.773 212.391 380.482 212.923 379.126 213.206C379.05 213.219 378.98 213.256 378.928 213.313C378.877 213.369 378.845 213.441 378.84 213.517L378.668 215.396ZM376.866 208.545C378.08 208.545 379.267 208.19 380.277 207.523C381.286 206.857 382.073 205.909 382.537 204.801C383.001 203.693 383.121 202.474 382.884 201.299C382.646 200.123 382.06 199.043 381.2 198.196C380.34 197.349 379.246 196.774 378.054 196.541C376.863 196.309 375.629 196.431 374.508 196.892C373.387 197.353 372.429 198.132 371.757 199.13C371.084 200.128 370.727 201.301 370.73 202.5C370.745 204.097 371.398 205.624 372.547 206.748C373.696 207.872 375.248 208.503 376.866 208.503V208.545ZM376.866 197.147C377.938 197.147 378.986 197.461 379.878 198.049C380.769 198.637 381.464 199.473 381.875 200.452C382.285 201.43 382.392 202.506 382.183 203.544C381.974 204.583 381.458 205.537 380.699 206.285C379.941 207.034 378.975 207.544 377.924 207.75C376.872 207.957 375.782 207.851 374.791 207.446C373.801 207.041 372.954 206.354 372.358 205.474C371.763 204.594 371.445 203.559 371.445 202.5C371.439 201.794 371.575 201.093 371.845 200.438C372.115 199.784 372.513 199.189 373.017 198.687C373.521 198.186 374.121 197.788 374.781 197.516C375.442 197.244 376.15 197.105 376.866 197.105V197.147Z" fill="#FFCF5C"/>
<path d="M387.709 234.548H391.056C391.145 234.545 391.23 234.511 391.296 234.451C391.361 234.392 391.403 234.311 391.413 234.223L391.542 232.811C392.508 232.58 393.43 232.199 394.274 231.681L395.404 232.613C395.472 232.671 395.558 232.702 395.647 232.702C395.737 232.702 395.823 232.671 395.891 232.613L398.294 230.226C398.351 230.162 398.383 230.079 398.383 229.993C398.383 229.907 398.351 229.824 398.294 229.76L397.35 228.63C397.872 227.802 398.254 226.896 398.48 225.946L399.91 225.805C399.997 225.795 400.078 225.753 400.136 225.688C400.194 225.623 400.225 225.539 400.225 225.452V222.147C400.222 222.063 400.189 221.982 400.131 221.92C400.073 221.858 399.995 221.818 399.91 221.808L398.48 221.667C398.251 220.714 397.87 219.803 397.35 218.969L398.294 217.853C398.352 217.786 398.384 217.701 398.384 217.613C398.384 217.525 398.352 217.44 398.294 217.373L395.933 215.042C395.866 214.985 395.78 214.953 395.69 214.953C395.601 214.953 395.515 214.985 395.447 215.042L394.317 215.975C393.473 215.461 392.55 215.084 391.585 214.859L391.456 213.446C391.446 213.359 391.404 213.278 391.339 213.218C391.273 213.159 391.188 213.124 391.099 213.122H387.709C387.619 213.121 387.532 213.155 387.465 213.215C387.399 213.275 387.358 213.358 387.351 213.446L387.208 214.859C386.246 215.082 385.328 215.459 384.49 215.975L383.346 215.042C383.281 214.986 383.197 214.955 383.11 214.955C383.023 214.955 382.939 214.986 382.874 215.042L380.557 217.373C380.495 217.438 380.461 217.524 380.461 217.613C380.461 217.702 380.495 217.788 380.557 217.853L381.501 218.969C380.976 219.802 380.59 220.713 380.356 221.667L378.926 221.808C378.839 221.815 378.757 221.853 378.696 221.916C378.635 221.978 378.6 222.06 378.597 222.147V225.452C378.597 225.541 378.63 225.627 378.691 225.692C378.752 225.758 378.836 225.798 378.926 225.805L380.356 225.946C380.587 226.897 380.974 227.803 381.501 228.63L380.557 229.76C380.496 229.823 380.463 229.906 380.463 229.993C380.463 230.08 380.496 230.163 380.557 230.226L382.917 232.571C382.982 232.627 383.066 232.659 383.153 232.659C383.24 232.659 383.324 232.627 383.389 232.571L384.533 231.638C385.371 232.159 386.289 232.54 387.251 232.768L387.394 234.181C387.39 234.27 387.42 234.357 387.478 234.426C387.537 234.494 387.619 234.537 387.709 234.548ZM390.727 233.842H388.038L387.909 232.429C387.899 232.355 387.866 232.285 387.815 232.23C387.764 232.174 387.697 232.135 387.623 232.119C386.565 231.908 385.559 231.495 384.662 230.904C384.6 230.858 384.525 230.833 384.447 230.833C384.37 230.833 384.295 230.858 384.233 230.904L383.146 231.794L381.243 229.915L382.144 228.842C382.19 228.783 382.214 228.711 382.214 228.637C382.214 228.563 382.19 228.491 382.144 228.432C381.554 227.536 381.137 226.54 380.914 225.494C380.897 225.423 380.857 225.359 380.8 225.31C380.744 225.262 380.674 225.233 380.599 225.226L379.169 225.085V222.429L380.599 222.302C380.676 222.297 380.749 222.266 380.806 222.215C380.864 222.164 380.901 222.095 380.914 222.02C381.135 220.978 381.552 219.986 382.144 219.096C382.189 219.034 382.212 218.96 382.212 218.884C382.212 218.808 382.189 218.734 382.144 218.672L381.243 217.599L383.146 215.72L384.233 216.61C384.295 216.656 384.37 216.681 384.447 216.681C384.525 216.681 384.6 216.656 384.662 216.61C385.559 216.019 386.565 215.606 387.623 215.396C387.696 215.377 387.762 215.338 387.813 215.283C387.864 215.227 387.897 215.159 387.909 215.085L388.038 213.672H390.727L390.856 215.085C390.863 215.16 390.895 215.231 390.947 215.287C390.998 215.343 391.067 215.381 391.142 215.396C392.198 215.609 393.204 216.022 394.103 216.61C394.165 216.654 394.24 216.678 394.317 216.678C394.394 216.678 394.469 216.654 394.532 216.61L395.619 215.72L397.521 217.599L396.62 218.672C396.576 218.734 396.552 218.808 396.552 218.884C396.552 218.96 396.576 219.034 396.62 219.096C397.212 219.986 397.63 220.978 397.85 222.02C397.87 222.094 397.912 222.161 397.971 222.211C398.029 222.262 398.102 222.293 398.179 222.302L399.61 222.429V225.085L398.179 225.226C398.104 225.234 398.032 225.264 397.974 225.311C397.915 225.359 397.872 225.423 397.85 225.494C397.634 226.542 397.217 227.54 396.62 228.432C396.575 228.491 396.55 228.563 396.55 228.637C396.55 228.711 396.575 228.783 396.62 228.842L397.521 229.915L395.619 231.794L394.532 230.904C394.469 230.86 394.394 230.837 394.317 230.837C394.24 230.837 394.165 230.86 394.103 230.904C393.202 231.489 392.197 231.901 391.142 232.119C391.065 232.131 390.996 232.169 390.944 232.225C390.892 232.281 390.861 232.353 390.856 232.429L390.727 233.842ZM389.382 228.63C390.35 228.63 391.296 228.347 392.1 227.816C392.905 227.285 393.532 226.531 393.902 225.648C394.272 224.765 394.369 223.794 394.18 222.857C393.991 221.92 393.526 221.059 392.841 220.384C392.157 219.708 391.286 219.248 390.337 219.062C389.388 218.875 388.404 218.971 387.51 219.337C386.616 219.702 385.852 220.321 385.315 221.116C384.777 221.91 384.49 222.844 384.49 223.799C384.49 224.437 384.618 225.069 384.867 225.658C385.115 226.247 385.479 226.781 385.938 227.23C386.397 227.679 386.941 228.034 387.54 228.275C388.138 228.515 388.779 228.636 389.425 228.63H389.382ZM389.382 219.689C390.209 219.689 391.017 219.932 391.704 220.385C392.391 220.839 392.927 221.484 393.242 222.239C393.558 222.993 393.64 223.823 393.478 224.623C393.315 225.424 392.916 226.159 392.331 226.735C391.745 227.311 390.999 227.703 390.188 227.86C389.377 228.018 388.537 227.934 387.774 227.62C387.011 227.306 386.36 226.775 385.902 226.095C385.445 225.415 385.203 224.616 385.205 223.799C385.207 223.255 385.318 222.717 385.532 222.216C385.745 221.714 386.057 221.259 386.449 220.877C386.841 220.495 387.306 220.194 387.817 219.99C388.328 219.786 388.874 219.684 389.425 219.689H389.382Z" fill="#FFCF5C"/>
<path d="M397.721 212.458L396.792 213.574L394.474 212.006L395.175 210.749C394.521 210.077 393.997 209.292 393.63 208.432L392.2 208.559L391.685 205.833L393.116 205.438C393.142 204.506 393.341 203.587 393.702 202.726L392.572 201.808L394.16 199.52L395.433 200.212C396.113 199.565 396.908 199.048 397.779 198.687L397.65 197.274L400.411 196.766L400.811 198.178C401.755 198.204 402.685 198.4 403.558 198.757L404.487 197.655L406.805 199.209L406.104 200.466C406.758 201.138 407.282 201.923 407.649 202.783L409.079 202.655L409.594 205.381L408.163 205.777C408.137 206.709 407.938 207.628 407.577 208.489L408.693 209.407L407.119 211.695L405.846 211.003C405.163 211.653 404.362 212.17 403.486 212.528L403.629 213.941L400.868 214.449L400.468 213.037C399.524 213.011 398.593 212.815 397.721 212.458ZM404.344 204.887C404.207 204.156 403.852 203.482 403.326 202.95C402.8 202.418 402.126 202.052 401.389 201.898C400.652 201.745 399.886 201.81 399.187 202.087C398.488 202.364 397.888 202.84 397.463 203.453C397.038 204.067 396.807 204.792 396.799 205.535C396.791 206.279 397.007 207.008 397.419 207.63C397.831 208.253 398.421 208.74 399.114 209.031C399.807 209.323 400.572 209.404 401.312 209.266C402.301 209.081 403.176 208.516 403.744 207.695C404.313 206.874 404.528 205.865 404.344 204.887Z" fill="#FFCF5C"/>
<path d="M404.874 62.0481L412.026 37.3588C412.211 36.7231 412.643 36.1851 413.227 35.8616C413.603 35.6535 414.027 35.5464 414.457 35.5509C414.689 35.5516 414.919 35.5801 415.144 35.6356L440.148 42.6978C440.793 42.8819 441.338 43.3102 441.665 43.8896C441.992 44.469 442.074 45.1524 441.893 45.791L434.741 70.4662C434.587 70.9874 434.268 71.446 433.83 71.7741C433.392 72.1023 432.859 72.2825 432.309 72.2882C432.072 72.284 431.837 72.2508 431.608 72.1893L406.619 65.1272C405.974 64.9462 405.429 64.5206 405.102 63.9435C404.775 63.3664 404.693 62.6849 404.874 62.0481ZM432.051 70.791C432.175 70.805 432.3 70.805 432.423 70.791H432.566L432.795 70.7204H432.938C433.006 70.6764 433.069 70.6242 433.124 70.565C433.154 70.5286 433.187 70.4955 433.224 70.4662C433.301 70.3589 433.359 70.2395 433.396 70.113L435.756 61.9068L436.829 58.178L433.668 57.2882V57.6978C433.727 58.2097 433.683 58.7281 433.539 59.2232C433.227 60.2541 432.516 61.1222 431.561 61.6401C430.606 62.158 429.483 62.284 428.435 61.9908C427.386 61.6977 426.497 61.009 425.958 60.0735C425.42 59.1381 425.276 58.031 425.557 56.9916C425.701 56.4824 425.939 56.0037 426.258 55.5791L426.516 55.2543L423.655 54.4492L422.31 59.1102C422.107 58.4359 421.687 57.845 421.114 57.4264C420.542 57.0078 419.847 56.7841 419.134 56.789C418.422 56.794 417.73 57.0272 417.163 57.4536C416.596 57.8801 416.185 58.4767 415.991 59.1538C415.797 59.8309 415.831 60.5518 416.088 61.2082C416.345 61.8645 416.811 62.4208 417.415 62.7934C418.02 63.1659 418.73 63.3346 419.44 63.2741C420.15 63.2136 420.821 62.9271 421.352 62.4577L419.921 67.4153L426.044 69.1385L432.051 70.791ZM408.507 54.7317L406.29 62.4294C406.227 62.7005 406.27 62.9851 406.41 63.2262C406.551 63.4672 406.779 63.6468 407.048 63.7289L419.135 67.1187L420.036 63.9972H419.621C419.103 64.0557 418.578 64.0125 418.076 63.8701C417.545 63.7298 417.047 63.4867 416.612 63.1548C416.177 62.8229 415.813 62.4089 415.541 61.9369C415.27 61.4649 415.096 60.9442 415.03 60.4052C414.964 59.8662 415.007 59.3196 415.157 58.7972C415.306 58.2748 415.56 57.787 415.902 57.3622C416.245 56.9374 416.669 56.584 417.151 56.3227C417.633 56.0614 418.163 55.8973 418.71 55.84C419.257 55.7826 419.809 55.8332 420.336 55.9887C420.857 56.1188 421.344 56.3545 421.767 56.6808L422.096 56.9351L422.911 54.1102L418.191 52.7825C418.866 52.5861 419.46 52.1811 419.884 51.6269C420.309 51.0726 420.543 50.3985 420.551 49.7034C420.565 49.1357 420.425 48.5746 420.146 48.078C419.867 47.5814 419.458 47.1674 418.963 46.8786C418.29 46.4814 417.496 46.3344 416.723 46.4642C415.95 46.594 415.25 46.9919 414.748 47.5864C414.246 48.1809 413.975 48.9328 413.985 49.7068C413.995 50.4807 414.284 51.2259 414.801 51.808L409.78 50.3955L408.507 54.7317ZM426.702 43.7854H427.116C427.635 43.7272 428.16 43.7704 428.661 43.9125C429.72 44.2103 430.615 44.9111 431.15 45.8607C431.685 46.8103 431.817 47.9309 431.515 48.976C431.213 50.0212 430.504 50.9052 429.542 51.4336C428.58 51.9621 427.445 52.0916 426.387 51.7938C425.872 51.6497 425.387 51.4153 424.957 51.1017L424.613 50.8475L423.798 53.6724L428.533 55.0001C427.921 55.1774 427.375 55.5262 426.961 56.0041C426.546 56.482 426.281 57.0684 426.198 57.6922C426.115 58.3159 426.217 58.9501 426.491 59.5178C426.766 60.0855 427.202 60.5621 427.746 60.8899C428.42 61.3075 429.225 61.4696 430.011 61.3462C430.796 61.2229 431.511 60.8224 432.02 60.219C432.53 59.6156 432.801 58.8502 432.783 58.0646C432.765 57.279 432.46 56.5264 431.923 55.9464L436.943 57.3588L440.376 45.4238C440.44 45.1527 440.396 44.868 440.256 44.627C440.115 44.386 439.887 44.2064 439.618 44.1243L427.531 40.7345L426.702 43.7854Z" fill="#FFCF5C"/>
<path d="M68.4262 265.537C68.6159 265.55 68.803 265.488 68.9466 265.365C69.0901 265.242 69.1782 265.067 69.1914 264.88C69.2047 264.693 69.1421 264.508 69.0174 264.366C68.8926 264.224 68.716 264.137 68.5263 264.124C67.5822 263.997 66.6668 263.856 65.737 263.686C65.5473 263.653 65.3518 263.695 65.1936 263.803C65.0353 263.912 64.9272 264.078 64.8931 264.266C64.8589 264.453 64.9015 264.646 65.0115 264.802C65.1215 264.958 65.2898 265.065 65.4795 265.099C66.4236 265.283 67.382 265.424 68.3404 265.551L68.4262 265.537ZM89.5819 263.39C89.6624 263.403 89.7447 263.403 89.8251 263.39C90.5976 263.122 91.3843 262.839 92.171 262.528C93.6014 261.935 95.0319 261.285 96.4623 260.565C96.6317 260.478 96.7596 260.328 96.8185 260.148C96.8773 259.969 96.8624 259.773 96.7769 259.605C96.6834 259.442 96.5307 259.321 96.35 259.266C96.1694 259.211 95.9742 259.226 95.8043 259.308C94.4465 260.015 93.0523 260.651 91.6275 261.215C90.8694 261.511 90.0969 261.794 89.3388 262.048C89.1491 262.078 88.9792 262.181 88.8666 262.335C88.7539 262.488 88.7077 262.68 88.738 262.867C88.7684 263.055 88.8728 263.222 89.0284 263.334C89.184 263.445 89.378 263.49 89.5677 263.46L89.5819 263.39ZM52.1624 260.424C52.2914 260.426 52.4183 260.392 52.5294 260.328C52.6404 260.263 52.7312 260.169 52.7917 260.057C52.8794 259.891 52.8987 259.698 52.8453 259.519C52.7919 259.34 52.6702 259.188 52.5057 259.096C46.2828 255.807 40.9015 251.16 36.7711 245.509C36.7158 245.433 36.646 245.369 36.5657 245.321C36.4854 245.272 36.3962 245.24 36.3032 245.225C36.2101 245.211 36.1151 245.215 36.0236 245.237C35.9321 245.259 35.8458 245.298 35.7698 245.353C35.6189 245.466 35.5182 245.632 35.4889 245.816C35.4595 246.001 35.5038 246.189 35.6125 246.342C39.8897 252.173 45.4567 256.965 51.8906 260.353C51.9738 260.401 52.0666 260.43 52.1624 260.438V260.424ZM99.8666 258.475C100.003 258.47 100.136 258.431 100.253 258.362C106.371 254.45 111.507 249.214 115.272 243.051C115.322 242.971 115.355 242.882 115.37 242.79C115.385 242.697 115.381 242.602 115.358 242.511C115.335 242.42 115.294 242.335 115.238 242.259C115.181 242.184 115.11 242.121 115.028 242.073C114.947 242.025 114.856 241.994 114.762 241.981C114.668 241.968 114.572 241.974 114.48 241.998C114.389 242.021 114.303 242.063 114.227 242.12C114.152 242.178 114.089 242.249 114.042 242.331C110.39 248.309 105.405 253.386 99.4661 257.175C99.307 257.276 99.195 257.436 99.1548 257.619C99.1146 257.801 99.1494 257.992 99.2516 258.15C99.3184 258.25 99.4098 258.333 99.5172 258.389C99.6247 258.446 99.7448 258.475 99.8666 258.475ZM33.7816 243.079C33.9126 243.082 34.0416 243.048 34.1534 242.98C34.2341 242.934 34.3045 242.872 34.3606 242.798C34.4166 242.724 34.4571 242.64 34.4798 242.551C34.5024 242.461 34.5068 242.368 34.4925 242.277C34.4782 242.186 34.4456 242.098 34.3966 242.02C33.2141 240.019 32.1768 237.937 31.2926 235.791C31.2224 235.617 31.0851 235.477 30.9107 235.403C30.7363 235.329 30.5393 235.326 30.3629 235.396C30.1865 235.465 30.0452 235.601 29.9701 235.773C29.895 235.945 29.8922 236.139 29.9623 236.314C30.8741 238.528 31.9449 240.676 33.1665 242.74C33.231 242.845 33.3211 242.932 33.4285 242.994C33.5359 243.056 33.6573 243.09 33.7816 243.093V243.079ZM29.6763 234.209H29.9051C30.0841 234.145 30.2313 234.015 30.3165 233.847C30.4017 233.679 30.4182 233.485 30.3629 233.305C29.6056 231.112 29.0222 228.864 28.6177 226.582C28.6018 226.489 28.5675 226.4 28.5168 226.321C28.4661 226.241 28.4 226.172 28.3223 226.118C28.2446 226.063 28.1568 226.025 28.0639 226.004C27.971 225.983 27.8749 225.98 27.781 225.996C27.687 226.012 27.5972 226.045 27.5165 226.096C27.4359 226.146 27.366 226.211 27.3109 226.288C27.2558 226.364 27.2165 226.451 27.1953 226.543C27.1741 226.634 27.1714 226.729 27.1873 226.822C27.6043 229.175 28.202 231.494 28.9753 233.757C29.0249 233.9 29.1202 234.022 29.2467 234.106C29.3732 234.19 29.524 234.231 29.6763 234.223V234.209ZM120.078 230.381C120.239 230.383 120.396 230.331 120.523 230.233C120.65 230.136 120.741 229.999 120.779 229.845C121.008 228.912 121.208 227.98 121.38 227.02C121.413 226.836 121.372 226.647 121.265 226.494C121.158 226.34 120.993 226.235 120.808 226.201C120.62 226.172 120.429 226.216 120.274 226.324C120.119 226.432 120.013 226.596 119.978 226.78C119.807 227.684 119.606 228.602 119.392 229.492C119.348 229.673 119.377 229.864 119.473 230.025C119.569 230.186 119.725 230.303 119.907 230.353L120.078 230.381ZM119.606 206.653H119.807C119.989 206.6 120.144 206.479 120.237 206.315C120.331 206.152 120.356 205.959 120.307 205.777C119.85 204.195 119.292 202.627 118.677 201.088C118.391 200.396 118.09 199.675 117.79 199.054C117.751 198.969 117.696 198.894 117.627 198.831C117.559 198.768 117.478 198.719 117.39 198.687C117.302 198.656 117.209 198.642 117.115 198.647C117.022 198.651 116.93 198.675 116.846 198.715C116.673 198.792 116.539 198.933 116.472 199.108C116.405 199.283 116.411 199.476 116.488 199.647C116.788 200.297 117.074 200.946 117.346 201.61C117.947 203.107 118.476 204.633 118.92 206.158C118.967 206.303 119.058 206.429 119.181 206.52C119.304 206.611 119.453 206.662 119.606 206.667V206.653ZM29.0898 206.412C29.2451 206.415 29.3969 206.366 29.5211 206.274C29.6454 206.182 29.7352 206.052 29.7764 205.904C30.0482 205.014 30.3343 204.124 30.649 203.249C30.6934 203.077 30.6712 202.896 30.5868 202.74C30.5024 202.584 30.3619 202.465 30.193 202.407C30.0242 202.348 29.8392 202.355 29.6747 202.424C29.5102 202.494 29.378 202.622 29.3044 202.783C28.9754 203.672 28.675 204.59 28.4032 205.509C28.3539 205.688 28.377 205.88 28.4677 206.043C28.5584 206.206 28.7096 206.329 28.8895 206.384L29.0898 206.412ZM115.186 196.328C115.306 196.328 115.424 196.299 115.53 196.243C115.694 196.151 115.816 195.998 115.867 195.818C115.918 195.638 115.894 195.446 115.801 195.283C112.174 189.034 107.15 183.686 101.111 179.647C100.953 179.545 100.761 179.508 100.576 179.545C100.392 179.582 100.229 179.69 100.124 179.845C100.07 179.92 100.032 180.006 100.013 180.096C99.9927 180.187 99.9915 180.28 100.009 180.371C100.026 180.462 100.062 180.548 100.113 180.625C100.165 180.702 100.232 180.768 100.31 180.819C106.183 184.731 111.076 189.914 114.614 195.975C114.673 196.075 114.756 196.16 114.855 196.222C114.955 196.284 115.069 196.32 115.186 196.328ZM36.7425 191.413C36.8534 191.411 36.9625 191.385 37.0616 191.336C37.1608 191.288 37.2473 191.217 37.3147 191.13C41.5678 185.549 47.0704 181.015 53.3925 177.881C53.5472 177.789 53.6611 177.643 53.7111 177.472C53.761 177.3 53.7435 177.117 53.662 176.958C53.5805 176.799 53.4411 176.676 53.2717 176.614C53.1023 176.552 52.9155 176.556 52.7488 176.624C46.2282 179.851 40.5536 184.526 36.1703 190.283C36.0601 190.434 36.0135 190.621 36.0402 190.805C36.0668 190.99 36.1647 191.157 36.3134 191.271C36.4436 191.344 36.594 191.374 36.7425 191.356V191.413ZM56.9829 176.229C57.0723 176.249 57.1652 176.249 57.2546 176.229C59.4359 175.378 61.6783 174.689 63.9633 174.167C64.0572 174.146 64.1461 174.108 64.225 174.054C64.3039 173.999 64.3711 173.93 64.4229 173.85C64.4747 173.77 64.51 173.681 64.5269 173.587C64.5437 173.494 64.5418 173.398 64.5211 173.305C64.5005 173.212 64.4615 173.125 64.4065 173.047C64.3515 172.969 64.2814 172.902 64.2004 172.851C64.1194 172.8 64.0289 172.765 63.9343 172.749C63.8396 172.732 63.7425 172.734 63.6486 172.754C61.2908 173.296 58.9767 174.009 56.7254 174.887C56.638 174.921 56.5583 174.972 56.4908 175.037C56.4234 175.102 56.3695 175.179 56.3323 175.264C56.2951 175.349 56.2753 175.441 56.274 175.534C56.2728 175.627 56.29 175.719 56.3248 175.805C56.3861 175.923 56.4811 176.021 56.5981 176.086C56.715 176.151 56.8488 176.181 56.9829 176.172V176.229ZM87.8368 174.915C87.9308 174.928 88.0264 174.923 88.1182 174.899C88.21 174.876 88.2962 174.835 88.3719 174.778C88.5248 174.665 88.6256 174.495 88.6522 174.308C88.6787 174.121 88.6289 173.931 88.5135 173.78C88.3982 173.629 88.2268 173.529 88.0371 173.503C87.1217 173.235 86.1776 172.98 85.1763 172.768C84.9866 172.725 84.7874 172.758 84.6224 172.86C84.4574 172.962 84.3402 173.125 84.2966 173.312C84.253 173.5 84.2865 173.696 84.3898 173.859C84.493 174.022 84.6576 174.138 84.8473 174.181C85.7627 174.393 86.6782 174.633 87.5794 174.901L87.8368 174.915Z" fill="#FFCF5C"/>
<path d="M66.2245 251.827C45.772 247.038 33.1234 226.785 37.973 206.59C42.8225 186.394 63.3338 173.905 83.7862 178.693C104.239 183.482 116.887 203.735 112.038 223.931C107.188 244.126 86.6769 256.615 66.2245 251.827Z" fill="#FFCF5C"/>
<path opacity="0.8" d="M66.2245 251.827C45.772 247.038 33.1234 226.785 37.973 206.59C42.8225 186.394 63.3338 173.905 83.7862 178.693C104.239 183.482 116.887 203.735 112.038 223.931C107.188 244.126 86.6769 256.615 66.2245 251.827Z" fill="white"/>
<path d="M74.3482 238.22C79.5756 238.239 84.6029 236.238 88.3564 232.645C92.1099 229.052 94.292 224.153 94.4365 218.993C94.5811 213.834 92.6767 208.823 89.1301 205.031C85.5835 201.239 80.6758 198.966 75.4554 198.699C70.235 198.432 65.1156 200.191 61.1909 203.6C57.2661 207.01 54.847 211.799 54.4504 216.946C54.0537 222.093 55.7109 227.189 59.068 231.145C62.425 235.102 67.2158 237.606 72.4171 238.122C73.0584 238.19 73.7031 238.223 74.3482 238.22ZM74.3482 202.02C77.1953 202.019 79.9966 202.728 82.4917 204.082C84.9868 205.437 87.0948 207.391 88.6199 209.765C90.1451 212.139 91.0378 214.856 91.2151 217.662C91.3925 220.467 90.8488 223.272 89.6345 225.815C88.4202 228.358 86.5747 230.556 84.2695 232.206C81.9642 233.856 79.2741 234.904 76.4489 235.253C73.6237 235.601 70.7551 235.239 68.1096 234.2C65.4642 233.16 63.1276 231.478 61.3171 229.308C59.27 226.871 57.9675 223.909 57.5618 220.769C57.1562 217.628 57.664 214.438 59.0261 211.572C60.3882 208.706 62.5483 206.282 65.2539 204.583C67.9595 202.884 71.0989 201.98 74.3053 201.977L74.3482 202.02Z" fill="#FFCF5C"/>
<path d="M74.3481 230.791C77.1876 230.774 79.9312 229.775 82.1009 227.966C83.3426 226.957 84.3708 225.717 85.1269 224.315C85.883 222.914 86.3521 221.379 86.5075 219.799C86.6629 218.218 86.5015 216.623 86.0326 215.104C85.5637 213.585 84.7964 212.172 83.7745 210.946C82.7526 209.72 81.4962 208.705 80.077 207.958C78.6577 207.212 77.1034 206.749 75.5029 206.595C73.9023 206.442 72.2869 206.601 70.7487 207.064C69.2105 207.527 67.7797 208.285 66.5381 209.294C64.668 210.813 63.2962 212.846 62.5961 215.135C61.896 217.424 61.8991 219.867 62.6049 222.154C63.3107 224.442 64.6876 226.471 66.5615 227.986C68.4353 229.5 70.722 230.432 73.1323 230.664C73.535 230.727 73.9409 230.77 74.3481 230.791ZM80.2843 225.862C78.8506 227.024 77.1 227.741 75.2537 227.922C73.4074 228.103 71.5483 227.739 69.9114 226.876C68.2746 226.014 66.9333 224.692 66.0573 223.077C65.1812 221.462 64.8096 219.627 64.9895 217.803C65.1693 215.98 65.8926 214.25 67.0678 212.833C68.243 211.415 69.8174 210.373 71.5921 209.839C73.3667 209.305 75.262 209.302 77.0382 209.831C78.8145 210.36 80.3922 211.397 81.5717 212.811C82.3631 213.748 82.958 214.831 83.322 215.996C83.6859 217.162 83.8117 218.388 83.6919 219.602C83.5721 220.816 83.2092 221.995 82.6243 223.07C82.0393 224.144 81.2439 225.093 80.2843 225.862Z" fill="#FFCF5C"/>
<path d="M74.3339 223.376C75.4279 223.38 76.4877 222.999 77.3234 222.302C77.8052 221.916 78.204 221.438 78.4963 220.897C78.7886 220.356 78.9685 219.763 79.0256 219.153C79.0847 218.539 79.0203 217.92 78.8364 217.332C78.6524 216.743 78.3524 216.196 77.9536 215.722C77.5548 215.248 77.0651 214.857 76.5126 214.571C75.9602 214.284 75.3559 214.109 74.7344 214.054C73.8038 213.965 72.8676 214.151 72.0436 214.587C71.2196 215.023 70.5447 215.69 70.1042 216.504C69.6636 217.318 69.477 218.243 69.5678 219.162C69.6587 220.081 70.023 220.952 70.6148 221.667C71.0102 222.142 71.4969 222.535 72.0468 222.823C72.5967 223.112 73.199 223.29 73.8189 223.348L74.3339 223.376ZM74.3339 216.85H74.4483C74.8147 216.889 75.1616 217.033 75.4455 217.264C75.7295 217.496 75.938 217.806 76.0448 218.154C76.1517 218.502 76.1522 218.874 76.0463 219.222C75.9404 219.571 75.7329 219.88 75.4496 220.113C75.2605 220.268 75.042 220.385 74.8069 220.456C74.5717 220.528 74.3247 220.552 74.0799 220.528C73.8351 220.505 73.5975 220.433 73.3808 220.319C73.1642 220.204 72.9727 220.047 72.8176 219.859C72.6521 219.665 72.5297 219.439 72.4582 219.196C72.3868 218.953 72.3679 218.697 72.4028 218.446C72.4241 218.205 72.4946 217.971 72.6102 217.757C72.7257 217.543 72.8839 217.355 73.0751 217.203C73.4307 216.936 73.8746 216.81 74.3196 216.85H74.3339Z" fill="#FFCF5C"/>
<path d="M74.3194 219.407C74.4846 219.403 74.6445 219.349 74.7772 219.251L94.6742 203.065C94.7467 203.006 94.8066 202.934 94.8503 202.852C94.894 202.77 94.9206 202.681 94.9286 202.589C94.9366 202.496 94.9258 202.404 94.8969 202.316C94.8679 202.228 94.8214 202.146 94.76 202.076C94.64 201.933 94.4674 201.842 94.28 201.824C94.0925 201.805 93.9052 201.86 93.7587 201.977L73.8617 218.15C73.7455 218.242 73.6613 218.367 73.6208 218.509C73.5804 218.651 73.5857 218.801 73.6361 218.94C73.6866 219.078 73.7795 219.198 73.902 219.281C74.0245 219.365 74.1705 219.409 74.3194 219.407Z" fill="#FFCF5C"/>
<path d="M95.3895 206.653C95.5678 206.647 95.7382 206.578 95.8694 206.459C96.0007 206.34 96.0842 206.178 96.1047 206.003C96.1207 205.818 96.062 205.634 95.9415 205.491C95.821 205.348 95.6484 205.258 95.461 205.24L91.3558 204.845L91.7563 200.805C91.7661 200.712 91.7573 200.618 91.7302 200.529C91.7031 200.44 91.6584 200.356 91.5985 200.284C91.5386 200.212 91.4649 200.152 91.3815 200.108C91.2981 200.064 91.2067 200.037 91.1126 200.028C91.0186 200.019 90.9235 200.027 90.833 200.054C90.7424 200.081 90.6581 200.125 90.5849 200.184C90.5118 200.243 90.4512 200.316 90.4067 200.398C90.3623 200.481 90.3348 200.571 90.3259 200.664L89.8681 205.41C89.8582 205.502 89.8671 205.596 89.8942 205.686C89.9212 205.775 89.966 205.858 90.0259 205.931C90.0857 206.003 90.1595 206.063 90.2429 206.107C90.3263 206.151 90.4177 206.178 90.5118 206.186L95.318 206.638L95.3895 206.653Z" fill="#FFCF5C"/>
<path d="M97.4779 204.944C97.6676 204.944 97.8495 204.869 97.9836 204.737C98.1178 204.604 98.1931 204.425 98.1931 204.237C98.1931 204.05 98.1178 203.87 97.9836 203.738C97.8495 203.606 97.6676 203.531 97.4779 203.531L93.3726 203.136L93.7731 199.082C93.7816 198.989 93.7715 198.896 93.7433 198.807C93.7152 198.718 93.6696 198.636 93.6092 198.564C93.5487 198.493 93.4746 198.434 93.3911 198.39C93.3076 198.347 93.2162 198.321 93.1223 198.312C93.0284 198.304 92.9337 198.314 92.8437 198.342C92.7537 198.369 92.6701 198.414 92.5977 198.474C92.5253 198.534 92.4655 198.607 92.4218 198.689C92.378 198.772 92.3512 198.862 92.3427 198.955L91.885 203.701C91.8751 203.793 91.884 203.887 91.911 203.977C91.9381 204.066 91.9829 204.149 92.0427 204.222C92.1026 204.294 92.1763 204.354 92.2597 204.398C92.3432 204.442 92.4346 204.469 92.5287 204.477L97.3349 204.929L97.4779 204.944Z" fill="#FFCF5C"/>
<path d="M99.5664 203.249C99.7434 203.246 99.9135 203.181 100.045 203.064C100.177 202.947 100.261 202.787 100.282 202.613C100.294 202.427 100.235 202.243 100.115 202.099C99.9955 201.955 99.8249 201.861 99.6379 201.836L95.5326 201.455L95.9331 197.401C95.943 197.309 95.934 197.216 95.9068 197.127C95.8795 197.039 95.8346 196.957 95.7746 196.885C95.7146 196.814 95.6407 196.756 95.5574 196.713C95.474 196.671 95.3829 196.646 95.2895 196.638C95.1955 196.629 95.1004 196.637 95.0099 196.664C94.9193 196.691 94.835 196.735 94.7618 196.794C94.6887 196.853 94.6281 196.926 94.5837 197.009C94.5392 197.091 94.5117 197.181 94.5027 197.274L94.045 202.02C94.0352 202.112 94.0441 202.205 94.0714 202.294C94.0986 202.382 94.1436 202.464 94.2036 202.536C94.2636 202.607 94.3375 202.665 94.4208 202.708C94.5041 202.75 94.5952 202.776 94.6887 202.783L99.4949 203.249H99.5664Z" fill="#FFCF5C"/>
<path d="M302.685 72.1611H302.785L385.849 59.9153C385.943 59.9034 386.033 59.8728 386.115 59.8254C386.196 59.7779 386.267 59.7147 386.324 59.6395C386.38 59.5643 386.42 59.4786 386.442 59.3876C386.463 59.2967 386.466 59.2023 386.45 59.1102C386.421 58.9275 386.322 58.7631 386.172 58.6521C386.022 58.5412 385.834 58.4927 385.649 58.517L302.57 70.7628C302.477 70.7766 302.388 70.8084 302.307 70.8563C302.227 70.9043 302.157 70.9675 302.101 71.0422C302.045 71.117 302.005 71.202 301.982 71.2922C301.96 71.3824 301.955 71.4761 301.97 71.5679C302 71.7338 302.088 71.8839 302.218 71.9923C302.349 72.1007 302.514 72.1604 302.685 72.1611Z" fill="#FFCF5C"/>
<path d="M359.015 186.54C359.156 186.538 359.294 186.494 359.411 186.415C359.528 186.335 359.618 186.223 359.67 186.093C359.722 185.963 359.734 185.82 359.704 185.684C359.674 185.547 359.603 185.422 359.501 185.325L288.052 118.121C287.987 118.056 287.909 118.003 287.823 117.968C287.737 117.932 287.644 117.914 287.551 117.914C287.458 117.914 287.366 117.932 287.28 117.968C287.194 118.003 287.116 118.056 287.051 118.121C286.983 118.187 286.93 118.265 286.894 118.351C286.858 118.437 286.839 118.53 286.839 118.623C286.839 118.716 286.858 118.808 286.894 118.895C286.93 118.981 286.983 119.059 287.051 119.124L358.571 186.328C358.686 186.451 358.845 186.527 359.015 186.54Z" fill="#FFCF5C"/>
<path d="M110.781 189.944C110.943 189.949 111.101 189.893 111.224 189.788L202.556 115.989C202.639 115.934 202.71 115.863 202.764 115.78C202.818 115.697 202.853 115.603 202.868 115.506C202.883 115.408 202.877 115.308 202.851 115.213C202.825 115.118 202.778 115.029 202.715 114.953C202.651 114.876 202.573 114.814 202.483 114.769C202.394 114.725 202.296 114.699 202.196 114.694C202.096 114.69 201.997 114.706 201.903 114.741C201.81 114.777 201.725 114.831 201.655 114.901L110.323 188.701C110.212 188.794 110.133 188.919 110.096 189.058C110.059 189.197 110.066 189.344 110.116 189.479C110.165 189.614 110.256 189.731 110.374 189.814C110.493 189.897 110.635 189.942 110.781 189.944Z" fill="#FFCF5C"/>
<path d="M191.184 65.8193C191.278 65.8313 191.374 65.825 191.465 65.8006C191.556 65.7763 191.642 65.7344 191.717 65.6773C191.869 65.5621 191.968 65.3922 191.992 65.2049C192.017 65.0176 191.965 64.8283 191.849 64.6786C191.732 64.5289 191.56 64.4312 191.37 64.4068L115.015 44.082C114.921 44.0569 114.823 44.0504 114.726 44.0628C114.63 44.0751 114.537 44.1061 114.452 44.154C114.368 44.2019 114.294 44.2657 114.235 44.3418C114.175 44.4179 114.132 44.5048 114.106 44.5975C114.081 44.6903 114.074 44.787 114.087 44.8823C114.099 44.9776 114.131 45.0694 114.179 45.1527C114.228 45.236 114.292 45.3091 114.37 45.3677C114.447 45.4263 114.535 45.4694 114.629 45.4944L190.998 65.8334L191.184 65.8193Z" fill="#FFCF5C"/>
<path d="M512.016 403.319H466.429H460.164V371.116H440.138H394.551H374.525V426.427H368.245H322.658H302.632V480H322.658H368.245H374.525H388.271H394.551H440.138H446.403H460.164H466.429H512.016H532.042V403.319H512.016Z" fill="#263238"/>
<g opacity="0.3">
<path opacity="0.3" d="M368.245 426.427H302.632V479.986H368.245V426.427Z" fill="white"/>
<path opacity="0.3" d="M440.138 371.116H374.525V480H440.138V371.116Z" fill="white"/>
<path opacity="0.3" d="M512.016 403.319H446.403V480H512.016V403.319Z" fill="white"/>
</g>
<path d="M409.341 387.514V411.61H404.807V391.243H399.643V387.5L409.341 387.514Z" fill="white"/>
<path d="M487.084 442.09V445.876H469.09V442.881L478.788 433.785C481.162 431.554 481.577 430.141 481.577 428.799C481.577 426.596 480.047 425.311 477.043 425.311C475.956 425.253 474.87 425.451 473.875 425.888C472.881 426.325 472.005 426.989 471.321 427.825L468.146 425.424C469.271 424.089 470.696 423.033 472.308 422.339C473.919 421.645 475.673 421.333 477.429 421.427C482.736 421.427 486.14 424.082 486.14 428.347C486.14 430.692 485.482 432.825 482.106 435.96L475.584 442.09H487.084Z" fill="white"/>
<path d="M344.157 457.952C344.157 462.006 341.053 465.523 334.502 465.523C331.217 465.58 328.002 464.589 325.333 462.698L327.278 459.223C329.319 460.796 331.842 461.633 334.43 461.596C337.677 461.596 339.594 460.184 339.594 457.952C339.594 455.72 337.992 454.364 334.287 454.364H332.056V451.299L337.606 444.788H326.52V441.045H343.156V444.04L337.22 450.989C341.869 451.61 344.157 454.336 344.157 457.952Z" fill="white"/>
<path d="M86.025 344.336H74.4958V480H86.025V344.336Z" fill="#FFCF5C"/>
<path d="M68.1592 416.709L58.604 400.254L38.8929 400.904L68.8887 346.737L98.1692 362.542L68.1592 416.709Z" fill="#FFCF5C"/>
<path opacity="0.8" d="M68.1592 416.709L58.604 400.254L38.8929 400.904L68.8887 346.737L98.1692 362.542L68.1592 416.709Z" fill="white"/>
<path d="M122.787 401.102L103.619 400.042L93.4202 416.723L63.7821 362.359L93.1628 346.737L122.787 401.102Z" fill="#FFCF5C"/>
<path opacity="0.8" d="M122.787 401.102L103.619 400.042L93.4202 416.723L63.7821 362.359L93.1628 346.737L122.787 401.102Z" fill="white"/>
<path d="M76.0407 301.087L81.7338 304.096L87.6128 301.455L92.3617 305.763L98.7128 304.661L102.232 310L108.668 310.48L110.743 316.511L116.85 318.559L117.322 324.915L122.729 328.404L121.599 334.675L125.948 339.378L123.273 345.169L126.305 350.791L122.257 355.748L123.774 361.949L118.595 365.748L118.51 372.119L112.545 374.534L110.857 380.692L104.463 381.554L101.287 387.104L94.8649 386.384L90.3878 390.96L84.3657 388.686L78.8729 392.034L73.609 388.347L67.4439 390.24L63.2671 385.381L56.8303 385.692L54.0124 379.958L47.6899 378.686L46.4026 372.443L40.6094 369.647L40.9384 363.291L36.0178 359.167L37.9345 353.079L34.2155 347.867L37.6055 342.458L35.3169 336.497L39.9657 332.09L39.2362 325.748L44.8577 322.613L45.7446 316.299L51.9812 314.647L54.4415 308.757L60.8783 308.686L64.7548 303.573L71.02 305.085L76.0407 301.087Z" fill="#39444A"/>
<path d="M93.3428 382.599C113.639 375.513 124.264 353.527 117.076 333.49C109.887 313.454 87.6058 302.955 67.3098 310.041C47.0137 317.127 36.3882 339.114 43.577 359.15C50.7659 379.187 73.0467 389.685 93.3428 382.599Z" fill="#FFF5DE"/>
<path d="M81.3905 343.39L80.9041 350.297L86.5257 349.774L86.211 355.268L80.4893 355.805L79.8885 364.407L74.4387 364.915L75.0394 356.299L70.3048 356.737L69.6897 365.353L64.2398 365.861L64.8549 357.246L59.4766 357.74L59.7913 352.246L65.2411 351.737L65.7275 344.83L60.3634 345.339L60.6924 339.83L66.128 339.322L66.8146 329.435L72.2788 328.941L71.5779 338.828L76.3125 338.39L77.0134 328.503L82.4633 327.994L81.7624 337.881L87.484 337.359L87.155 342.853L81.3905 343.39ZM75.912 343.898L71.1916 344.336L70.7339 351.229L75.4543 350.791L75.912 343.898Z" fill="#FFCF5C"/>
<path d="M98.3266 362.698L95.709 335.141L91.0458 335.579L90.6882 331.808C92.0263 331.519 93.2673 330.896 94.2929 330C95.3371 329.137 96.1234 328.009 96.5672 326.737L100.386 326.384L103.791 362.203L98.3266 362.698Z" fill="#FFCF5C"/>
<path d="M309.022 466.935L323.469 479.802L335.871 478.333L319.178 460.24L309.022 466.935Z" fill="#FFB573"/>
<path d="M103.557 467.189L87.5795 478.15L75.4639 475.141L94.3454 459.28L103.557 467.189Z" fill="#FFB573"/>
<path d="M328.647 465.184L317.204 476.116C317.204 476.116 234.397 410.89 233.038 399.972C231.679 389.054 233.038 330.89 233.038 330.89C233.038 330.89 221.981 343.672 204.873 362.641C177.409 393.136 134.368 439.605 96.6627 474.703L83.3741 465.607C178.997 347.754 209.408 284.718 209.408 284.718L213.341 255.057L268.298 250.141C268.298 250.141 281.515 284.322 277.939 309.703C274.363 335.085 260.774 382.316 262.204 391.836C263.635 401.356 328.647 465.184 328.647 465.184Z" fill="#263238"/>
<path d="M322.539 477.571H336.214C336.439 477.571 336.658 477.647 336.834 477.785C337.011 477.924 337.135 478.117 337.187 478.333L339.404 488.22C339.45 488.432 339.453 488.65 339.413 488.863C339.373 489.076 339.291 489.279 339.171 489.46C339.052 489.641 338.897 489.797 338.716 489.919C338.535 490.041 338.331 490.126 338.116 490.17C337.998 490.183 337.878 490.183 337.759 490.17C333.324 490.099 330.092 489.831 324.513 489.831C321.08 489.831 310.724 490.184 305.918 490.184C301.112 490.184 300.568 485.565 302.499 485.127C311.21 483.263 317.762 480.664 320.551 478.192C320.824 477.964 321.141 477.791 321.482 477.684C321.823 477.578 322.183 477.539 322.539 477.571Z" fill="#263238"/>
<path d="M77.8241 472.218L90.1829 477.98C90.3858 478.077 90.5497 478.238 90.6484 478.438C90.747 478.638 90.7745 478.865 90.7264 479.082L88.4664 488.969C88.4159 489.181 88.3237 489.38 88.1949 489.557C88.0662 489.733 87.9035 489.882 87.7162 489.997C87.5288 490.111 87.3205 490.187 87.1031 490.222C86.8858 490.256 86.6637 490.248 86.4495 490.198L86.1062 490.071C82.1296 488.15 79.3117 486.54 74.2767 484.195C71.1584 482.783 61.6318 478.729 57.3549 476.737C53.0779 474.746 54.494 470.297 56.4251 470.735C65.122 472.698 72.1597 473.093 75.75 472.034C76.0906 471.926 76.4496 471.887 76.8059 471.918C77.1621 471.95 77.5084 472.052 77.8241 472.218Z" fill="#263238"/>
<path opacity="0.3" d="M235.298 305.085L233.052 330.833C233.052 330.833 221.995 343.616 204.888 362.585C223.04 333.644 227.946 313.715 227.946 313.715C222.024 305.904 221.409 293.418 221.409 293.418L235.298 305.085Z" fill="black"/>
<path d="M262.819 119.605L258.857 115.014L255.996 115.226C255.052 115.226 245.426 105.551 245.468 105.014C245.511 104.477 251.104 100.777 252.449 100.664C253.794 100.551 260.316 107.726 260.316 107.726L260.531 110.551L266.61 115.396L262.819 119.605Z" fill="#FFB573"/>
<path d="M221.151 126.201L224.599 123.235C224.599 123.235 229.777 124.647 230.12 122.825C230.286 120.182 230.286 117.53 230.12 114.887L228.99 104.11C228.99 104.11 224.584 102.839 222.739 104.562C220.894 106.285 222.639 118.828 222.639 118.828L214.2 126.709L221.151 126.201Z" fill="#FFB573"/>
<path d="M213.57 181.172C207.849 175.325 200.21 155.41 200.611 150C201.011 144.59 223.211 125.989 223.211 125.989L220.222 120.65C220.222 120.65 192.171 137.599 188.953 144.661C185.734 151.723 196.463 194.379 211.382 205.396L219.664 193.898L213.57 181.172Z" fill="#FFCF5C"/>
<path opacity="0.5" d="M213.57 181.172C207.849 175.325 200.21 155.41 200.611 150C201.011 144.59 223.211 125.989 223.211 125.989L220.222 120.65C220.222 120.65 192.171 137.599 188.953 144.661C185.734 151.723 196.463 194.379 211.382 205.396L219.664 193.898L213.57 181.172Z" fill="white"/>
<path d="M213.942 257.316H271.702V264.096L213.198 263.404L213.942 257.316Z" fill="black"/>
<path d="M253.135 266.314H251.076V254.266H253.135V266.314Z" fill="#263238"/>
<path d="M223.912 266.314H221.852V254.266H223.912V266.314Z" fill="#263238"/>
<path d="M240.262 263.729H229.577V256.13H240.262V263.729Z" fill="white"/>
<path d="M269.757 67.147C270.021 66.2599 270.475 65.4397 271.09 64.7424C271.705 64.0452 272.465 63.4874 273.319 63.1074C274.867 62.3945 276.603 62.1772 278.282 62.486C279.97 62.7702 281.523 63.5764 282.716 64.7882C283.027 65.0846 283.301 65.4165 283.532 65.7769C283.783 66.1148 283.994 66.4797 284.161 66.8645L284.419 67.4295L284.59 67.9662L284.905 69.0538C285.596 72.0317 285.083 75.1586 283.475 77.7684C281.927 80.2155 279.751 82.2138 277.166 83.5594C274.7 84.8652 272.016 85.7216 269.242 86.0877C267.883 86.2912 266.511 86.3904 265.137 86.3843C263.89 86.3243 262.64 86.3763 261.403 86.5396C260.323 86.7015 259.322 87.1957 258.543 87.9521C258.196 88.2736 257.957 88.6928 257.86 89.1527C257.763 89.6126 257.811 90.0909 257.999 90.5227C258.227 90.901 258.585 91.1853 259.008 91.3229C259.432 91.4605 259.891 91.4421 260.302 91.2713C260.556 91.1607 260.772 90.9797 260.923 90.7503C261.075 90.5208 261.155 90.2528 261.155 89.9789C261.155 89.705 261.075 89.437 260.923 89.2075C260.772 88.9781 260.556 88.797 260.302 88.6865C260.695 88.7057 261.07 88.8558 261.366 89.1122C261.663 89.3686 261.862 89.7164 261.933 90.0989C262.019 90.5107 261.991 90.9377 261.853 91.3353C261.714 91.7329 261.47 92.0864 261.146 92.3588C260.806 92.6355 260.404 92.8274 259.973 92.9184C259.542 93.0093 259.096 92.9966 258.671 92.8814C257.824 92.6859 257.083 92.1814 256.597 91.469C256.188 90.7345 256.021 89.8926 256.118 89.06C256.216 88.2274 256.573 87.4453 257.141 86.8221C258.166 85.6804 259.534 84.8933 261.046 84.5764C262.405 84.3244 263.783 84.1874 265.165 84.1667C266.425 84.1107 267.678 83.9549 268.913 83.7006C271.347 83.2463 273.681 82.3713 275.808 81.1159C277.874 79.9599 279.588 78.277 280.771 76.243C281.91 74.2141 282.192 71.8238 281.558 69.5905C281.404 69.0027 281.132 68.4511 280.76 67.9678C280.388 67.4845 279.922 67.0792 279.389 66.7756C278.857 66.4719 278.268 66.2759 277.658 66.199C277.048 66.1222 276.429 66.1659 275.836 66.3278C273.39 67.1328 271.888 69.6046 271.073 71.8645L269.757 67.147Z" fill="#FFCF5C"/>
<path d="M233.224 60.4379C233.302 59.5192 233.179 58.5946 232.863 57.727C232.547 56.8594 232.046 56.0691 231.393 55.4097C230.204 54.1919 228.658 53.372 226.973 53.065C225.295 52.7289 223.552 52.9267 221.995 53.63C221.225 53.9838 220.519 54.461 219.907 55.0424L219.449 55.4662L219.092 55.9181L218.405 56.8221C216.68 59.3638 216.037 62.4744 216.617 65.4803C217.159 68.3088 218.458 70.9424 220.379 73.1074C222.2 75.2062 224.39 76.9624 226.844 78.291C228.042 78.9638 229.29 79.5446 230.578 80.0283C231.757 80.4002 232.901 80.8728 233.997 81.4407C234.969 81.9793 235.74 82.8108 236.199 83.8136C236.402 84.2365 236.47 84.7104 236.393 85.1721C236.317 85.6339 236.099 86.0616 235.77 86.3984C235.419 86.6713 234.98 86.8102 234.533 86.7894C234.087 86.7687 233.662 86.5897 233.339 86.2854C233.143 86.0888 233.01 85.8402 232.956 85.5701C232.902 85.3 232.929 85.0202 233.034 84.7651C233.139 84.51 233.317 84.2907 233.547 84.1342C233.776 83.9777 234.047 83.8908 234.326 83.8842C233.962 83.7613 233.566 83.7627 233.203 83.8882C232.84 84.0137 232.53 84.2561 232.323 84.5763C232.09 84.9283 231.957 85.336 231.94 85.7562C231.922 86.1765 232.02 86.5936 232.223 86.9634C232.435 87.3524 232.74 87.6844 233.111 87.9305C233.483 88.1767 233.909 88.3296 234.354 88.3758C235.22 88.4875 236.096 88.2648 236.8 87.7543C237.449 87.2163 237.912 86.4918 238.125 85.6818C238.338 84.8717 238.29 84.0163 237.987 83.2345C237.446 81.7974 236.441 80.5763 235.127 79.76C233.953 79.0293 232.713 78.4098 231.422 77.9097C230.272 77.4054 229.162 76.8152 228.103 76.1441C225.997 74.8511 224.137 73.2015 222.61 71.2713C221.103 69.462 220.115 67.2865 219.75 64.9718C219.437 62.6697 220.047 60.338 221.452 58.4746C221.811 57.9778 222.267 57.5571 222.793 57.2373C223.319 56.9176 223.905 56.7054 224.516 56.6132C225.127 56.521 225.75 56.5507 226.349 56.7007C226.948 56.8506 227.511 57.1176 228.003 57.4859C229.991 59.0961 230.492 61.9351 230.421 64.3362L233.224 60.4379Z" fill="#FFCF5C"/>
<g opacity="0.2">
<path opacity="0.2" d="M269.757 67.147C270.021 66.2599 270.475 65.4397 271.09 64.7424C271.705 64.0452 272.465 63.4874 273.319 63.1074C274.867 62.3945 276.603 62.1772 278.282 62.486C279.97 62.7702 281.523 63.5764 282.716 64.7882C283.027 65.0846 283.301 65.4165 283.532 65.7769C283.783 66.1148 283.994 66.4797 284.161 66.8645L284.419 67.4295L284.59 67.9662L284.905 69.0538C285.596 72.0317 285.083 75.1586 283.475 77.7684C281.927 80.2155 279.751 82.2138 277.166 83.5594C274.7 84.8652 272.016 85.7216 269.242 86.0877C267.883 86.2912 266.511 86.3904 265.137 86.3843C263.89 86.3243 262.64 86.3763 261.403 86.5396C260.323 86.7015 259.322 87.1957 258.543 87.9521C258.196 88.2736 257.957 88.6928 257.86 89.1527C257.763 89.6126 257.811 90.0909 257.999 90.5227C258.227 90.901 258.585 91.1853 259.008 91.3229C259.432 91.4605 259.891 91.4421 260.302 91.2713C260.556 91.1607 260.772 90.9797 260.923 90.7503C261.075 90.5208 261.155 90.2528 261.155 89.9789C261.155 89.705 261.075 89.437 260.923 89.2075C260.772 88.9781 260.556 88.797 260.302 88.6865C260.695 88.7057 261.07 88.8558 261.366 89.1122C261.663 89.3686 261.862 89.7164 261.933 90.0989C262.019 90.5107 261.991 90.9377 261.853 91.3353C261.714 91.7329 261.47 92.0864 261.146 92.3588C260.806 92.6355 260.404 92.8274 259.973 92.9184C259.542 93.0093 259.096 92.9966 258.671 92.8814C257.824 92.6859 257.083 92.1814 256.597 91.469C256.188 90.7345 256.021 89.8926 256.118 89.06C256.216 88.2274 256.573 87.4453 257.141 86.8221C258.166 85.6804 259.534 84.8933 261.046 84.5764C262.405 84.3244 263.783 84.1874 265.165 84.1667C266.425 84.1107 267.678 83.9549 268.913 83.7006C271.347 83.2463 273.681 82.3713 275.808 81.1159C277.874 79.9599 279.588 78.277 280.771 76.243C281.91 74.2141 282.192 71.8238 281.558 69.5905C281.404 69.0027 281.132 68.4511 280.76 67.9678C280.388 67.4845 279.922 67.0792 279.389 66.7756C278.857 66.4719 278.268 66.2759 277.658 66.199C277.048 66.1222 276.429 66.1659 275.836 66.3278C273.39 67.1328 271.888 69.6046 271.073 71.8645L269.757 67.147Z" fill="black"/>
<path opacity="0.2" d="M233.224 60.4379C233.302 59.5192 233.179 58.5946 232.863 57.727C232.547 56.8594 232.046 56.0691 231.393 55.4097C230.204 54.1919 228.658 53.372 226.973 53.065C225.295 52.7289 223.553 52.9267 221.996 53.63C221.225 53.9838 220.52 54.461 219.907 55.0424L219.449 55.4662L219.092 55.9181L218.405 56.8221C216.68 59.3638 216.037 62.4744 216.617 65.4803C217.159 68.3088 218.458 70.9424 220.379 73.1074C222.2 75.2062 224.39 76.9624 226.845 78.291C228.042 78.9638 229.29 79.5446 230.578 80.0283C231.757 80.4002 232.901 80.8728 233.997 81.4407C234.969 81.9793 235.741 82.8108 236.2 83.8136C236.402 84.2365 236.47 84.7104 236.393 85.1721C236.317 85.6339 236.099 86.0616 235.77 86.3984C235.419 86.6713 234.98 86.8102 234.533 86.7894C234.087 86.7687 233.663 86.5897 233.339 86.2854C233.143 86.0888 233.011 85.8402 232.957 85.5701C232.902 85.3 232.93 85.0202 233.034 84.7651C233.139 84.51 233.317 84.2907 233.547 84.1342C233.776 83.9777 234.047 83.8908 234.326 83.8842C233.962 83.7613 233.566 83.7627 233.203 83.8882C232.84 84.0137 232.53 84.2561 232.323 84.5763C232.09 84.9283 231.957 85.336 231.94 85.7562C231.922 86.1765 232.02 86.5936 232.223 86.9634C232.435 87.3524 232.74 87.6844 233.111 87.9305C233.483 88.1767 233.909 88.3296 234.354 88.3758C235.22 88.4875 236.096 88.2648 236.8 87.7543C237.449 87.2163 237.913 86.4918 238.125 85.6818C238.338 84.8717 238.29 84.0163 237.988 83.2345C237.446 81.7974 236.441 80.5763 235.127 79.76C233.954 79.0293 232.713 78.4098 231.422 77.9097C230.272 77.4054 229.162 76.8152 228.103 76.1441C225.997 74.8511 224.137 73.2015 222.611 71.2713C221.103 69.462 220.115 67.2865 219.75 64.9718C219.437 62.6697 220.048 60.338 221.452 58.4746C221.811 57.9778 222.267 57.5571 222.793 57.2373C223.319 56.9176 223.905 56.7054 224.516 56.6132C225.127 56.521 225.75 56.5507 226.349 56.7007C226.948 56.8506 227.511 57.1176 228.003 57.4859C229.992 59.0961 230.492 61.9351 230.421 64.3362L233.224 60.4379Z" fill="black"/>
</g>
<path d="M253.25 89.0678C261.418 86.9633 268.77 79.5622 271.96 69.2938L273.39 64.5904L230.807 56.7514L230.463 61.6667C229.705 72.3447 233.868 81.8644 240.734 86.7373C241.628 87.395 242.322 88.2835 242.738 89.3051C243.155 90.3268 243.278 91.442 243.094 92.5283L241.535 101.808C241.356 102.903 240.783 103.897 239.921 104.608C239.059 105.319 237.966 105.699 236.843 105.678C234.786 105.624 232.781 106.317 231.207 107.627L229.305 109.251L255.653 114.096L254.466 111.893C253.468 110.119 251.852 108.763 249.917 108.079C248.862 107.698 247.981 106.954 247.437 105.984C246.893 105.013 246.723 103.882 246.956 102.797L248.873 93.5876C249.111 92.5098 249.646 91.5178 250.418 90.7204C251.19 89.9231 252.17 89.3513 253.25 89.0678Z" fill="#FFCF5C"/>
<path d="M228.318 106.864L257.455 112.218L256.797 121.766L225.457 116.003L228.318 106.864Z" fill="#263238"/>
<path opacity="0.2" d="M234.969 108.079L250.804 111.003L250.146 120.537L232.108 117.218L234.969 108.079Z" fill="white"/>
<path d="M246.414 116.799L236.95 115.059L237.636 111.421L247.1 113.161L246.414 116.799Z" fill="white"/>
<path opacity="0.3" d="M242.093 85.9464C242.966 86.7204 243.619 87.7062 243.988 88.8061C244.357 89.906 244.428 91.082 244.195 92.2176L242.221 102.712C241.835 104.774 241.077 105.438 238.717 105.862C237.323 106.037 235.998 106.562 234.869 107.387L239.303 108.192C239.771 107.92 240.277 107.72 240.805 107.599L241.478 107.458C241.927 107.36 242.338 107.134 242.659 106.807C242.979 106.481 243.195 106.069 243.28 105.622L246.498 88.5594C246.611 87.9541 246.581 87.3316 246.413 86.7392C246.244 86.1468 245.941 85.6003 245.526 85.1413L244.653 84.1809C241.019 80.1571 239.088 74.9088 239.261 69.5199L239.604 59.6329L233.21 58.4464L233.467 69.8165C233.596 75.2543 237.101 81.921 242.093 85.9464Z" fill="white"/>
<path d="M251.619 187.218C247.013 192.02 234.755 191.271 234.755 191.271C234.755 191.271 227.03 189.859 228.447 187.331C232.852 186.271 234.855 184.054 235.599 181.37C235.944 179.697 235.944 177.973 235.599 176.3C235.46 175.347 235.265 174.404 235.012 173.475L249.173 161.398C247.771 168.842 246.384 182.331 251.619 187.218Z" fill="#FFB573"/>
<path opacity="0.2" d="M246.255 168.686C246.255 177.599 239.103 180.607 235.541 181.398C235.886 179.725 235.886 178.001 235.541 176.328L246.255 168.686Z" fill="black"/>
<path d="M227.774 144.308C227.774 144.308 224.599 137.09 234.197 132.557C243.795 128.023 266.295 133.037 260.989 149.138C255.682 165.24 227.774 144.308 227.774 144.308Z" fill="#263238"/>
<path d="M229.62 138.687C229.62 138.687 223.655 148.941 228.747 156.766C233.839 164.59 243.595 140 243.595 140L229.62 138.687Z" fill="#263238"/>
<path d="M246.541 174.28C246.11 174.627 245.661 174.952 245.197 175.254C242.852 176.844 240.045 177.633 237.204 177.5C234.363 177.368 231.644 176.321 229.462 174.52C226.592 172.219 224.715 168.927 224.213 165.311C224.13 164.806 224.078 164.296 224.055 163.785C224.028 162.702 224.057 161.617 224.141 160.537C224.828 151.328 229.448 139.576 239.017 137.839C241.391 137.401 243.839 137.569 246.129 138.328C248.419 139.086 250.474 140.409 252.1 142.172C253.727 143.935 254.87 146.079 255.422 148.401C255.973 150.722 255.915 153.145 255.253 155.438C252.721 164.52 251.591 170.268 246.541 174.28Z" fill="#FFB573"/>
<path d="M239.246 155.085C239.132 155.904 238.502 156.497 237.959 156.356C237.415 156.215 237.129 155.494 237.301 154.675C237.472 153.856 238.045 153.263 238.574 153.404C239.103 153.545 239.418 154.266 239.246 155.085Z" fill="#263238"/>
<path d="M229.934 153.178C229.82 153.997 229.176 154.59 228.647 154.449C228.118 154.308 227.817 153.588 227.975 152.768C228.132 151.949 228.733 151.356 229.262 151.497C229.791 151.638 230.092 152.401 229.934 153.178Z" fill="#263238"/>
<path d="M232.809 154.181C231.308 156.469 229.493 158.542 227.417 160.339C227.897 160.856 228.487 161.262 229.145 161.528C229.803 161.794 230.512 161.914 231.222 161.879L232.809 154.181Z" fill="#ED893E"/>
<path d="M242.765 152.698C242.674 152.695 242.585 152.667 242.509 152.617C242.433 152.567 242.373 152.497 242.336 152.415C242.082 151.858 241.7 151.366 241.221 150.979C240.742 150.592 240.179 150.32 239.575 150.184C239.446 150.163 239.33 150.094 239.25 149.992C239.171 149.89 239.133 149.761 239.146 149.633C239.155 149.57 239.176 149.508 239.209 149.453C239.242 149.398 239.286 149.35 239.338 149.312C239.39 149.274 239.449 149.247 239.512 149.231C239.575 149.216 239.64 149.213 239.704 149.223C240.478 149.378 241.203 149.715 241.816 150.207C242.429 150.699 242.912 151.331 243.223 152.048C243.252 152.105 243.27 152.166 243.275 152.23C243.28 152.293 243.273 152.357 243.253 152.417C243.233 152.478 243.201 152.534 243.159 152.582C243.117 152.63 243.066 152.669 243.008 152.698C242.928 152.713 242.845 152.713 242.765 152.698Z" fill="#263238"/>
<path d="M226.601 149.181C226.504 149.215 226.398 149.215 226.301 149.181C226.199 149.102 226.131 148.988 226.113 148.862C226.094 148.735 226.126 148.607 226.201 148.503C226.665 147.876 227.275 147.37 227.98 147.025C228.685 146.681 229.463 146.51 230.249 146.526C230.313 146.531 230.375 146.549 230.432 146.578C230.489 146.607 230.54 146.647 230.581 146.696C230.622 146.744 230.653 146.8 230.672 146.861C230.691 146.921 230.698 146.985 230.692 147.048C230.681 147.177 230.62 147.296 230.521 147.381C230.422 147.465 230.294 147.508 230.163 147.5C229.543 147.506 228.933 147.654 228.382 147.934C227.831 148.213 227.353 148.616 226.988 149.11C226.932 149.15 226.869 149.176 226.802 149.189C226.736 149.201 226.667 149.198 226.601 149.181Z" fill="#263238"/>
<path d="M251.562 161.85C252.406 162.331 250.132 170.155 250.132 170.155C250.132 170.155 254.494 169.082 258.128 163.093C265.28 151.158 263.849 147.754 261.089 144.958C255.896 139.774 246.127 144.675 246.127 144.675C246.786 144.671 247.434 144.842 248.003 145.171C248.572 145.499 249.042 145.973 249.362 146.542C249.682 147.111 249.842 147.754 249.824 148.405C249.806 149.056 249.611 149.689 249.259 150.24C246.87 153.531 247.5 159.76 249.76 162.74C249.803 162.684 250.303 161.116 251.562 161.85Z" fill="#263238"/>
<path d="M257.899 164.534C256.298 166.564 253.947 167.885 251.362 168.206C247.943 168.616 246.756 165.466 248.143 162.557C249.388 159.958 252.692 156.54 255.91 157.514C256.612 157.728 257.248 158.113 257.76 158.633C258.273 159.152 258.645 159.791 258.842 160.489C259.04 161.187 259.057 161.924 258.893 162.63C258.728 163.337 258.386 163.991 257.899 164.534Z" fill="#FFB573"/>
<path d="M253.393 141.525C251.683 143.514 249.493 145.046 247.026 145.979C244.558 146.912 241.893 147.217 239.275 146.864C239.275 146.864 243.566 146.483 244.996 145.268C244.996 145.268 235.212 147.034 227.831 144.308C220.451 141.582 230.778 132.302 235.241 132.514C239.704 132.726 255.581 134.703 253.393 141.525Z" fill="#263238"/>
<path d="M230.964 165.791C231.713 166.726 232.388 167.718 232.981 168.757L233.582 168.531C236.271 167.514 237.172 166.158 237.372 164.972C237.448 164.386 237.384 163.792 237.186 163.235C237.079 162.92 236.93 162.621 236.743 162.345C235.366 163.706 233.707 164.757 231.88 165.424C231.322 165.664 230.964 165.791 230.964 165.791Z" fill="#263238"/>
<path d="M231.88 165.424L232.495 166.285C235.026 165.311 236.686 164.294 237.186 163.235C237.079 162.92 236.93 162.621 236.743 162.345C235.366 163.706 233.707 164.757 231.88 165.424Z" fill="white"/>
<path d="M233.582 168.531C236.271 167.514 237.172 166.158 237.372 164.972C236.375 165.379 235.456 165.952 234.655 166.667C234.106 167.16 233.73 167.813 233.582 168.531Z" fill="#ED893E"/>
<path d="M213.198 259.251L271.059 256.314C270.258 228.489 271.731 191.638 273.004 181.299L268.183 174.35C268.183 174.35 252.449 189.59 245.139 189.661C234.058 189.596 223.186 186.675 213.599 181.186C208.435 206.398 211.181 240.946 213.198 259.251Z" fill="#FFCF5C"/>
<path opacity="0.6" d="M213.198 259.251L271.059 256.314C270.258 228.489 271.731 191.638 273.004 181.299L268.183 174.35C268.183 174.35 252.449 189.59 245.139 189.661C234.058 189.596 223.186 186.675 213.599 181.186C208.435 206.398 211.181 240.946 213.198 259.251Z" fill="white"/>
<path d="M240.791 192.712L239.632 193.701L233.224 199.153C233.224 199.153 226.344 226.568 199.452 231.088L194.789 227.302L198.551 222.698C198.551 222.698 222.024 223.023 230.22 197.571L229.205 190.509L232.752 190.24L238.474 189.816" fill="#FFCF5C"/>
<path d="M248.959 181.737L235.112 189.181L233.882 184.124L228.747 186.342C227.856 186.733 227.124 187.407 226.665 188.257C226.206 189.106 226.048 190.083 226.215 191.031L227.245 196.596L234.24 192.09L238.245 196.893L254.838 187.429L248.959 181.737Z" fill="#FFCF5C"/>
<path opacity="0.5" d="M248.959 181.737L235.112 189.181L233.882 184.124L228.747 186.342C227.856 186.733 227.124 187.407 226.665 188.257C226.206 189.106 226.048 190.083 226.215 191.031L227.245 196.596L234.24 192.09L238.245 196.893L254.838 187.429L248.959 181.737Z" fill="white"/>
<path d="M268.155 174.35C268.155 174.35 281.029 157.641 278.497 147.684C275.965 137.726 259.658 116.737 259.658 116.737L263.363 111.172C263.363 111.172 286.836 130.381 290.226 146.822C293.616 163.263 271.702 202.938 271.702 202.938C271.702 202.938 263.535 182.203 268.155 174.35Z" fill="#FFCF5C"/>
<path opacity="0.5" d="M268.155 174.35C268.155 174.35 281.029 157.641 278.497 147.684C275.965 137.726 259.658 116.737 259.658 116.737L263.363 111.172C263.363 111.172 286.836 130.381 290.226 146.822C293.616 163.263 271.702 202.938 271.702 202.938C271.702 202.938 263.535 182.203 268.155 174.35Z" fill="white"/>
</g>
<defs>
<clipPath id="clip0">
<rect width="555" height="500" fill="white"/>
</clipPath>
</defs>
</svg>
