<svg width="25" height="25" viewBox="0 0 25 25" fill="none" xmlns="http://www.w3.org/2000/svg">
<path d="M12.5 14.0815C4.98843 14.0815 0.851562 17.635 0.851562 24.0876C0.851562 24.5916 1.26001 25 1.76396 25H23.236C23.7399 25 24.1484 24.5916 24.1484 24.0876C24.1484 17.6353 20.0116 14.0815 12.5 14.0815ZM2.70957 23.1752C3.06846 18.3507 6.35767 15.9063 12.5 15.9063C18.6423 15.9063 21.9316 18.3507 22.2908 23.1752H2.70957Z" fill="#393333"/>
<path d="M12.5005 0C9.0501 0 6.44824 2.6542 6.44824 6.17368C6.44824 9.79624 9.16328 12.743 12.5005 12.743C15.8378 12.743 18.5528 9.79624 18.5528 6.17397C18.5528 2.6542 15.951 0 12.5005 0ZM12.5005 10.9185C10.1693 10.9185 8.27305 8.79014 8.27305 6.17397C8.27305 3.65391 10.051 1.8248 12.5005 1.8248C14.9108 1.8248 16.728 3.69434 16.728 6.17397C16.728 8.79014 14.8317 10.9185 12.5005 10.9185Z" fill="#393333"/>
</svg>
