<svg width="25" height="25" viewBox="0 0 25 25" fill="none" xmlns="http://www.w3.org/2000/svg">
<g clip-path="url(#clip0)">
<path d="M9.88665 25C4.43515 25 0 20.5657 0 15.1151C0 9.66458 4.43515 5.23022 9.88665 5.23022C11.6884 5.23022 13.4533 5.72179 14.9907 6.65175L14.1607 8.02323C12.8737 7.2447 11.3958 6.83316 9.88665 6.83316C5.31918 6.83316 1.60326 10.5484 1.60326 15.1151C1.60326 19.6818 5.31918 23.3971 9.88665 23.3971C14.4541 23.3971 18.17 19.6818 18.17 15.1151C18.17 13.6063 17.7585 12.1286 16.9798 10.8419L18.3515 10.0121C19.2817 11.5491 19.7733 13.3138 19.7733 15.1151C19.7733 20.5657 15.3381 25 9.88665 25Z" fill="#393333"/>
<path d="M9.88714 20.6048C6.85958 20.6048 4.39648 18.1421 4.39648 15.1151C4.39648 12.0881 6.85958 9.62543 9.88714 9.62543C10.4712 9.62543 11.0465 9.71683 11.5971 9.89712L11.0981 11.4205C10.7089 11.293 10.3015 11.2284 9.88714 11.2284C7.7436 11.2284 5.99975 12.972 5.99975 15.1151C5.99975 17.2582 7.74366 19.0018 9.88714 19.0018C12.0306 19.0018 13.7745 17.2582 13.7745 15.1151C13.7745 14.683 13.7043 14.2589 13.5658 13.8547L15.0826 13.3352C15.2784 13.907 15.3778 14.5058 15.3778 15.1151C15.3778 18.1421 12.9147 20.6048 9.88714 20.6048Z" fill="#393333"/>
<path d="M24.3286 3.07801L22.2415 2.76231L21.9257 0.675504C21.8294 0.0391788 21.0227 -0.227808 20.5663 0.228655L17.5643 3.2301C17.3848 3.40959 17.301 3.66343 17.3382 3.9145L17.6742 6.17791L10.2997 13.5664C10.1678 13.5312 10.0294 13.5122 9.88646 13.5122C9.00244 13.5122 8.2832 14.2312 8.2832 15.1151C8.2832 15.999 9.00244 16.718 9.88646 16.718C10.7705 16.718 11.4897 15.999 11.4897 15.1151C11.4897 14.9711 11.4703 14.8316 11.4345 14.6987L18.8064 7.3129L21.0847 7.66397C21.3346 7.70253 21.5949 7.61733 21.7737 7.43859L24.7756 4.43715C25.0772 4.20168 25.1974 3.18645 24.3286 3.07801ZM20.9273 6.01787L19.2325 5.7567L18.9833 4.07823L20.5779 2.484L20.7447 3.58624C20.7972 3.93362 21.0699 4.20627 21.4174 4.25878L22.5198 4.42556L20.9273 6.01787Z" fill="#393333"/>
</g>
<defs>
<clipPath id="clip0">
<rect width="25" height="25" fill="white"/>
</clipPath>
</defs>
</svg>
