<svg width="50" height="50" viewBox="0 0 50 50" fill="none" xmlns="http://www.w3.org/2000/svg">
<path d="M49.1209 39.4012C47.8572 36.1045 46.1923 35.599 45.8736 35.555L41.0989 34.8517L35.8956 29.6704C36.5973 28.4823 37.1508 27.2128 37.544 25.8902H41.1099C41.3649 25.8902 41.6095 25.7889 41.7898 25.6086C41.9701 25.4283 42.0714 25.1837 42.0714 24.9287V17.0715C42.0714 16.8165 41.9701 16.5719 41.7898 16.3916C41.6095 16.2113 41.3649 16.11 41.1099 16.11H37.5495C37.2186 14.9998 36.7749 13.9264 36.2253 12.9067L38.7473 10.3902C38.9268 10.21 39.0276 9.96599 39.0276 9.71163C39.0276 9.45727 38.9268 9.21328 38.7473 9.03306L33.2033 3.48911C33.1149 3.39983 33.0097 3.32906 32.8936 3.28095C32.7776 3.23283 32.6531 3.20833 32.5275 3.20889C32.2797 3.2133 32.0433 3.31377 31.8682 3.48911L29.3517 6.00559C28.3307 5.46004 27.2575 5.01827 26.1484 4.68691V1.099C26.1455 0.972716 26.1178 0.848234 26.0668 0.732665C26.0159 0.617095 25.9426 0.512701 25.8513 0.425449C25.7599 0.338196 25.6523 0.269794 25.5345 0.224151C25.4168 0.178507 25.2911 0.156517 25.1649 0.159437H17.3297C17.0784 0.159371 16.8371 0.257653 16.6574 0.43325C16.4777 0.608848 16.3739 0.847809 16.3682 1.099V4.68691C15.2661 5.01836 14.2002 5.46016 13.1868 6.00559L10.6484 3.48911C10.4655 3.31477 10.2225 3.21752 9.9698 3.21752C9.71712 3.21752 9.47413 3.31477 9.29123 3.48911L3.74727 9.03306C3.56777 9.21328 3.46698 9.45727 3.46698 9.71163C3.46698 9.96599 3.56777 10.21 3.74727 10.3902L6.26925 12.9067C5.71775 13.9255 5.27396 14.9991 4.94508 16.11H1.37914C1.12413 16.11 0.879554 16.2113 0.699231 16.3916C0.518907 16.5719 0.417603 16.8165 0.417603 17.0715V24.9067C0.419045 25.1613 0.520813 25.405 0.700824 25.585C0.880836 25.765 1.12457 25.8668 1.37914 25.8682H4.94508C5.27598 26.9766 5.71969 28.0482 6.26925 29.066L3.74727 31.588C3.56777 31.7682 3.46698 32.0122 3.46698 32.2666C3.46698 32.5209 3.56777 32.7649 3.74727 32.9451L9.28573 38.4616C9.3747 38.552 9.48075 38.6238 9.59772 38.6728C9.71469 38.7218 9.84024 38.747 9.96705 38.747C10.0939 38.747 10.2194 38.7218 10.3364 38.6728C10.4534 38.6238 10.5594 38.552 10.6484 38.4616L13.1868 35.9671C14.2067 36.515 15.2801 36.9568 16.3901 37.2858V40.8572C16.3901 41.1123 16.4914 41.3568 16.6718 41.5371C16.8521 41.7175 17.0967 41.8188 17.3517 41.8188H25.1649C25.4199 41.8188 25.6644 41.7175 25.8448 41.5371C26.0251 41.3568 26.1264 41.1123 26.1264 40.8572V37.2858C27.4749 36.8867 28.7673 36.3181 29.9725 35.5935C30.0341 35.5608 30.0899 35.5181 30.1374 35.4671L35.2747 40.6045C35.3627 42.3847 35.3627 44.8023 35.3627 44.8627C35.3627 45.4506 35.6978 46.1814 40.3736 49.6375C40.5324 49.7571 40.7244 49.8243 40.9231 49.8298H42.7692C42.9386 49.8294 43.1049 49.7845 43.2515 49.6996C43.398 49.6148 43.5197 49.4929 43.6044 49.3462C43.6909 49.1998 43.7366 49.0328 43.7366 48.8627C43.7366 48.6926 43.6909 48.5257 43.6044 48.3792L41.7088 45.1814C41.6374 44.9451 41.4286 43.9067 42.7198 42.9836C44.3187 41.8847 44.9176 42.5605 45.3297 43.0221C46.0695 44.0639 46.7536 45.1442 47.3791 46.2583C47.4594 46.3994 47.5742 46.5177 47.7128 46.6021C47.8514 46.6865 48.0092 46.7343 48.1713 46.7409C48.3334 46.7475 48.4946 46.7127 48.6396 46.6398C48.7845 46.5669 48.9086 46.4583 49 46.3243C49.0879 46.2309 50.7857 43.6979 49.1209 39.4012ZM24.9451 35.621C24.7369 35.6734 24.552 35.7937 24.4197 35.9628C24.2874 36.132 24.2151 36.3403 24.2143 36.555V39.8957H18.2912V36.555C18.2926 36.343 18.2239 36.1364 18.0957 35.9675C17.9675 35.7985 17.7871 35.6767 17.5824 35.621C16.1538 35.2735 14.7838 34.7181 13.5165 33.9726C13.333 33.8641 13.1187 33.8192 12.9071 33.8451C12.6954 33.8709 12.4982 33.966 12.3462 34.1155L9.98903 36.4726L5.80771 32.2913L8.16486 29.9342C8.31652 29.7824 8.41341 29.5845 8.44026 29.3716C8.46712 29.1588 8.42242 28.943 8.31321 28.7583C7.53836 27.4896 6.95862 26.1115 6.59343 24.6704C6.54276 24.4627 6.42356 24.2782 6.25507 24.1466C6.08658 24.015 5.87865 23.944 5.66486 23.9452H2.34068V18.0331H5.68134C5.89278 18.0293 6.09701 17.9555 6.26205 17.8233C6.42709 17.691 6.54363 17.5078 6.59343 17.3023C6.95329 15.8742 7.5197 14.5063 8.27475 13.2419C8.38068 13.0612 8.42509 12.851 8.40131 12.6429C8.37753 12.4349 8.28684 12.2401 8.14288 12.088L5.79123 9.73086L9.96705 5.54955L12.3242 7.90669C12.476 8.05835 12.6739 8.15524 12.8867 8.1821C13.0996 8.20895 13.3153 8.16426 13.5 8.05504C14.7687 7.2877 16.1446 6.71363 17.5824 6.35174C17.7911 6.30015 17.9765 6.18011 18.109 6.01079C18.2414 5.84148 18.3134 5.63265 18.3132 5.41768V2.08251H24.2033V5.41768C24.2032 5.63265 24.2751 5.84148 24.4075 6.01079C24.54 6.18011 24.7254 6.30015 24.9341 6.35174C26.3631 6.7088 27.7314 7.27538 28.9945 8.03306C29.1792 8.14228 29.395 8.18698 29.6078 8.16012C29.8207 8.13326 30.0186 8.03638 30.1704 7.88471L32.5275 5.52757L36.7033 9.70889L34.3517 12.088C34.1996 12.2384 34.1024 12.4354 34.0755 12.6476C34.0486 12.8597 34.0936 13.0748 34.2033 13.2583C34.9592 14.5243 35.5257 15.8942 35.8846 17.3243C35.9393 17.5284 36.0601 17.7087 36.2281 17.837C36.3961 17.9652 36.6019 18.0342 36.8132 18.0331H40.1539V23.9452H36.8132C36.599 23.9447 36.3907 24.0158 36.2215 24.1472C36.0523 24.2786 35.9318 24.4628 35.8791 24.6704C35.5683 25.9129 35.0974 27.1098 34.478 28.2309L31.3627 25.1155C32.0762 23.3635 32.3231 21.4564 32.0795 19.5805C31.8358 17.7045 31.1099 15.9238 29.9725 14.4122C29.4696 13.7598 28.8966 13.1647 28.2638 12.6375C28.1675 12.5532 28.0554 12.489 27.934 12.4487C27.8126 12.4083 27.6844 12.3926 27.5568 12.4024C27.4293 12.4122 27.305 12.4474 27.1912 12.5058C27.0774 12.5643 26.9764 12.6449 26.8942 12.7428C26.8119 12.8408 26.7501 12.9542 26.7122 13.0764C26.6743 13.1986 26.6612 13.3271 26.6736 13.4544C26.686 13.5817 26.7237 13.7053 26.7845 13.8179C26.8452 13.9304 26.9279 14.0297 27.0275 14.11C27.5499 14.5508 28.0217 15.0484 28.4341 15.5935C29.2899 16.7244 29.8647 18.0425 30.1112 19.4391C30.3576 20.8357 30.2687 22.271 29.8517 23.6265L28.6704 22.4177C28.6704 22.4177 28.022 17.6704 27.989 17.6484C27.9176 17.3298 27.3956 15.6649 24.1429 14.3957C19.8462 12.7473 17.3132 14.4287 17.2033 14.5056C17.0707 14.5983 16.9635 14.7229 16.8915 14.8679C16.8195 15.0128 16.785 15.1735 16.7912 15.3353C16.797 15.4969 16.8439 15.6544 16.9276 15.7929C17.0112 15.9313 17.1288 16.0462 17.2693 16.1265C18.3846 16.75 19.465 17.4342 20.5055 18.1759C21.0989 18.6869 21.6044 19.3023 20.5495 20.7858C19.6484 22.066 18.6154 21.8847 18.3517 21.7913L15.1594 19.8957C15.0128 19.8098 14.8462 19.764 14.6763 19.763C14.5064 19.7619 14.3392 19.8057 14.1916 19.8898C14.044 19.9739 13.9211 20.0954 13.8354 20.2421C13.7497 20.3888 13.7041 20.5555 13.7033 20.7254V22.566C13.7069 22.7651 13.7743 22.9577 13.8956 23.1155C17.7418 28.3243 18.2528 28.2144 18.8407 28.1045C19.1758 28.0605 21.1594 28.1045 22.9451 28.2199L24.1758 29.4946C23.2361 29.8222 22.248 29.9894 21.2528 29.9891C18.8658 29.9891 16.5766 29.0409 14.8888 27.3531C13.201 25.6652 12.2528 23.3761 12.2528 20.9891C12.2528 18.6022 13.201 16.313 14.8888 14.6251C16.5766 12.9373 18.8658 11.9891 21.2528 11.9891C21.5078 11.9891 21.7524 11.8878 21.9327 11.7075C22.113 11.5272 22.2143 11.2826 22.2143 11.0276C22.2143 10.7726 22.113 10.528 21.9327 10.3477C21.7524 10.1673 21.5078 10.066 21.2528 10.066C18.3558 10.066 15.5775 11.2169 13.529 13.2653C11.4805 15.3138 10.3297 18.0921 10.3297 20.9891C10.3297 23.8861 11.4805 26.6644 13.529 28.7129C15.5775 30.7614 18.3558 31.9122 21.2528 31.9122C22.7668 31.9133 24.2642 31.597 25.6484 30.9836L28.7528 34.066C27.557 34.7566 26.2721 35.2798 24.9341 35.621H24.9451ZM47.9231 43.4067C47.5927 42.8341 47.2256 42.2835 46.8242 41.7583C45.055 39.6979 43.033 40.4232 41.6484 41.3957C39.4945 42.9122 39.6154 45.0221 40 45.9232C40 45.9726 41.022 47.6649 41.022 47.6649C39.741 46.7321 38.5189 45.721 37.3627 44.6375C37.3627 43.7528 37.2692 41.7583 37.1813 40.11C37.1687 39.8737 37.0688 39.6505 36.9011 39.4836L24.0165 26.621C23.8508 26.4515 23.6269 26.3513 23.3901 26.3408C22.033 26.2693 19.8407 26.1649 18.8627 26.1979C17.7754 25.041 16.7641 23.815 15.8352 22.5276C15.8352 22.5276 17.5275 23.5441 17.5824 23.5605C18.489 23.9232 20.5934 24.0441 22.1099 21.9122C23.0879 20.5276 23.8132 18.5111 21.7473 16.7364C21.2207 16.3368 20.6702 15.9699 20.0989 15.6375C21.2272 15.5955 22.3514 15.7959 23.3956 16.2254C25.5934 17.0605 26.033 18.0001 26.0769 18.0935L26.7747 23.0386C26.8057 23.2462 26.9019 23.4387 27.0495 23.588L39.9671 36.4397C40.1155 36.5875 40.3087 36.6821 40.5165 36.7089L45.4616 37.4067C45.6374 37.4891 46.5605 37.9891 47.3517 40.0935C47.7791 41.1437 47.9741 42.274 47.9231 43.4067Z" fill="#393333"/>
</svg>
