<svg width="35" height="35" viewBox="0 0 35 35" fill="none" xmlns="http://www.w3.org/2000/svg">
<g clip-path="url(#clip0)">
<path d="M35.0987 16.7919C34.994 12.2131 33.1116 7.94624 29.7987 4.77739C26.4905 1.61335 22.146 -0.0814901 17.5666 0.00315838C12.9855 -0.0825583 8.64264 1.61335 5.33464 4.77739C2.02155 7.94624 0.139327 12.2131 0.0344472 16.7916L0.0341797 16.806V16.8204C0.0582593 21.4865 2.06008 25.923 5.53557 29.0323V33.2628C5.53557 34.0839 6.11 34.799 6.90115 34.9635C7.01834 34.9878 7.13633 35.0001 7.25379 35.0001C7.57217 35.0001 7.88521 34.9112 8.16078 34.7395L11.5675 32.6153C13.4888 33.2869 15.4936 33.6271 17.5318 33.6271H17.5575C17.6704 33.6292 17.7819 33.6303 17.8946 33.6303C22.3538 33.63 26.5697 31.941 29.7987 28.8528C33.1116 25.684 34.994 21.4171 35.0987 16.8386L35.0992 16.8151L35.0987 16.7919ZM28.3756 27.3708C25.4582 30.1613 21.6266 31.6542 17.5869 31.5747L17.5756 31.5744H17.5644C15.6688 31.5787 13.8032 31.2494 12.0221 30.5976C11.5817 30.4366 11.102 30.4857 10.7057 30.7327L7.59224 32.6738V28.7823C7.59224 28.3481 7.40308 27.935 7.07319 27.6491C3.93187 24.9235 2.11653 20.9784 2.09111 16.8242C2.1869 12.7979 3.84358 9.04667 6.75775 6.25941C9.67486 3.46921 13.5075 1.97678 17.5462 2.05582L17.5666 2.05609L17.5869 2.05582C21.6258 1.97758 25.4582 3.46921 28.3756 6.25941C31.2871 9.04426 32.9438 12.7926 33.042 16.8151C32.9438 20.8379 31.2871 24.5859 28.3756 27.3708Z" fill="#FFCF5C"/>
</g>
<defs>
<clipPath id="clip0">
<rect width="35" height="35" fill="white"/>
</clipPath>
</defs>
</svg>
