<svg width="25" height="25" viewBox="0 0 25 25" fill="none" xmlns="http://www.w3.org/2000/svg">
<path d="M1.22091 24.9997C0.979448 24.9997 0.743398 24.9282 0.542616 24.794C0.341834 24.6599 0.185341 24.4693 0.0929321 24.2462C0.000522899 24.0231 -0.023651 23.7776 0.023468 23.5408C0.0705871 23.304 0.186882 23.0865 0.357643 22.9158L22.9158 0.357576C23.1448 0.128624 23.4553 0 23.7791 0C24.1029 0 24.4134 0.128624 24.6424 0.357576C24.8713 0.586528 24.9999 0.897054 24.9999 1.22084C24.9999 1.54463 24.8713 1.85515 24.6424 2.08411L2.08417 24.6423C1.97091 24.7558 1.83634 24.8458 1.6882 24.9071C1.54005 24.9684 1.38125 24.9999 1.22091 24.9997Z" fill="#FFC24B"/>
<path d="M23.7791 24.9997C23.6188 24.9999 23.46 24.9684 23.3118 24.9071C23.1637 24.8458 23.0291 24.7558 22.9159 24.6423L0.357691 2.08411C0.128738 1.85515 0.000114441 1.54463 0.000114441 1.22084C0.000114441 0.897054 0.128738 0.586528 0.357691 0.357576C0.586643 0.128624 0.897169 0 1.22096 0C1.54474 0 1.85527 0.128624 2.08422 0.357576L24.6424 22.9158C24.8132 23.0865 24.9295 23.304 24.9766 23.5408C25.0237 23.7776 24.9995 24.0231 24.9071 24.2462C24.8147 24.4693 24.6582 24.6599 24.4574 24.794C24.2566 24.9282 24.0206 24.9997 23.7791 24.9997Z" fill="#FFC24B"/>
</svg>
