<svg width="40" height="40" viewBox="0 0 40 40" fill="none" xmlns="http://www.w3.org/2000/svg">
<g clip-path="url(#clip0)">
<path d="M34.709 31.7668H33.4604V30.1411C33.4604 29.7005 33.1017 29.3418 32.6611 29.3418H7.3389C6.8983 29.3418 6.53962 29.7005 6.53962 30.1411V31.7668H5.29105V30.1411C5.29105 29.0121 6.20953 28.0933 7.3389 28.0933H32.6611C33.7905 28.0933 34.709 29.0121 34.709 30.1411V31.7668Z" fill="#393333"/>
<path d="M19.3757 24.5562H20.6243V32.0929H19.3757V24.5562Z" fill="#393333"/>
<path d="M21.9067 39.9768H18.0933C16.7656 39.9768 15.6854 38.8966 15.6854 37.5689V33.8894C15.6854 32.5617 16.7656 31.4814 18.0933 31.4814H21.9067C23.2344 31.4814 24.3146 32.5617 24.3146 33.8894V37.5689C24.3146 38.8966 23.2344 39.9768 21.9067 39.9768ZM18.0933 32.73C17.454 32.73 16.934 33.2501 16.934 33.8894V37.5689C16.934 38.2082 17.454 38.7282 18.0933 38.7282H21.9067C22.5459 38.7282 23.066 38.2082 23.066 37.5689V33.8894C23.066 33.2501 22.5459 32.73 21.9067 32.73H18.0933Z" fill="#393333"/>
<path d="M36.0527 39.9768H32.2393C30.9116 39.9768 29.8314 38.8966 29.8314 37.5689V33.8894C29.8314 32.5617 30.9116 31.4814 32.2393 31.4814H36.0527C37.3804 31.4814 38.4606 32.5617 38.4606 33.8894V37.5689C38.4606 38.8966 37.3804 39.9768 36.0527 39.9768ZM32.2393 32.73C31.6001 32.73 31.08 33.2501 31.08 33.8894V37.5689C31.08 38.2082 31.6001 38.7282 32.2393 38.7282H36.0527C36.692 38.7282 37.212 38.2082 37.212 37.5689V33.8894C37.212 33.2501 36.692 32.73 36.0527 32.73H32.2393Z" fill="#393333"/>
<path d="M7.76066 39.9768H3.9473C2.6196 39.9768 1.53938 38.8966 1.53938 37.5689V33.8894C1.53938 32.5617 2.6196 31.4814 3.9473 31.4814H7.76066C9.08836 31.4814 10.1686 32.5617 10.1686 33.8894V37.5689C10.1686 38.8966 9.08836 39.9768 7.76066 39.9768ZM3.9473 32.73C3.30803 32.73 2.78796 33.2501 2.78796 33.8894V37.5689C2.78796 38.2082 3.30803 38.7282 3.9473 38.7282H7.76066C8.39994 38.7282 8.92 38.2082 8.92 37.5689V33.8894C8.92 33.2501 8.39994 32.73 7.76066 32.73H3.9473Z" fill="#393333"/>
<path d="M5.31997 37.5253C5.16241 37.5253 5.00521 37.4661 4.88391 37.3475L3.55132 36.0467C3.30488 35.8058 3.3 35.4105 3.54087 35.1641C3.78173 34.9173 4.17701 34.9128 4.42344 35.1536L5.31997 36.0286L7.28416 34.1107C7.53094 33.8702 7.92587 33.8747 8.16674 34.1215C8.4076 34.368 8.40307 34.7633 8.15628 35.0041L5.75603 37.3475C5.63473 37.4661 5.47717 37.5253 5.31997 37.5253Z" fill="#393333"/>
<path d="M19.466 37.5254C19.3084 37.5254 19.1512 37.4662 19.0299 37.3477L17.6977 36.0468C17.4509 35.8059 17.446 35.4107 17.6869 35.1642C17.9277 34.9174 18.323 34.9129 18.5698 35.1538L19.466 36.0287L21.4302 34.1109C21.677 33.87 22.0719 33.8749 22.3131 34.1217C22.5536 34.3681 22.5491 34.7634 22.3023 35.0042L19.902 37.3477C19.7807 37.4662 19.6235 37.5254 19.466 37.5254Z" fill="#393333"/>
<path d="M33.612 37.5254C33.4548 37.5254 33.2973 37.4662 33.176 37.3477L31.8437 36.0468C31.5969 35.8059 31.5924 35.4107 31.8333 35.1642C32.0741 34.9178 32.4694 34.9126 32.7162 35.1538L33.612 36.0287L35.5766 34.1109C35.823 33.87 36.2183 33.8749 36.4591 34.1217C36.7 34.3681 36.6951 34.7634 36.4483 35.0042L34.0481 37.3477C33.9271 37.4662 33.7696 37.5254 33.612 37.5254Z" fill="#393333"/>
<path d="M31.5938 24.746H8.40621C7.07851 24.746 5.99829 23.6658 5.99829 22.3381V2.40792C5.99829 1.08022 7.07851 0 8.40621 0H31.5938C32.9215 0 34.0017 1.08022 34.0017 2.40792V22.3381C34.0017 23.6658 32.9215 24.746 31.5938 24.746ZM8.40621 1.24858C7.76694 1.24858 7.24687 1.76864 7.24687 2.40792V22.3381C7.24687 22.9774 7.76694 23.4975 8.40621 23.4975H31.5938C32.2331 23.4975 32.7531 22.9774 32.7531 22.3381V2.40792C32.7531 1.76864 32.2331 1.24858 31.5938 1.24858H8.40621Z" fill="#393333"/>
<path d="M33.3774 7.6497H6.62258C6.27784 7.6497 5.99829 7.37015 5.99829 7.02541C5.99829 6.68068 6.27784 6.40112 6.62258 6.40112H33.3774C33.7222 6.40112 34.0017 6.68068 34.0017 7.02541C34.0017 7.37015 33.7222 7.6497 33.3774 7.6497Z" fill="#393333"/>
<path d="M13.9704 5.46356C13.0812 5.46356 12.3576 4.74028 12.3576 3.85073C12.3576 2.96118 13.0812 2.23755 13.9704 2.23755C14.86 2.23755 15.5836 2.96118 15.5836 3.85073C15.5836 4.74028 14.86 5.46356 13.9704 5.46356ZM13.9704 3.48613C13.7697 3.48613 13.6062 3.6496 13.6062 3.85073C13.6062 4.05185 13.7697 4.21533 13.9704 4.21533C14.1716 4.21533 14.335 4.05185 14.335 3.85073C14.335 3.6496 14.1716 3.48613 13.9704 3.48613Z" fill="#393333"/>
<path d="M9.52895 5.44975C8.63975 5.44975 7.91612 4.72612 7.91612 3.83657C7.91612 2.94702 8.63975 2.22339 9.52895 2.22339C10.4185 2.22339 11.1421 2.94702 11.1421 3.83657C11.1421 4.72612 10.4185 5.44975 9.52895 5.44975ZM9.52895 3.47197C9.32818 3.47197 9.1647 3.63544 9.1647 3.83657C9.1647 4.03769 9.32818 4.20117 9.52895 4.20117C9.73008 4.20117 9.89356 4.03769 9.89356 3.83657C9.89356 3.63544 9.73008 3.47197 9.52895 3.47197Z" fill="#393333"/>
<path d="M18.4119 5.47748C17.5227 5.47748 16.7991 4.75385 16.7991 3.86465C16.7991 2.9751 17.5227 2.25146 18.4119 2.25146C19.3015 2.25146 20.0251 2.9751 20.0251 3.86465C20.0251 4.75385 19.3015 5.47748 18.4119 5.47748ZM18.4119 3.50004C18.2111 3.50004 18.0477 3.66352 18.0477 3.86465C18.0477 4.06577 18.2111 4.2289 18.4119 4.2289C18.613 4.2289 18.7765 4.06577 18.7765 3.86465C18.7765 3.66352 18.613 3.50004 18.4119 3.50004Z" fill="#393333"/>
</g>
<defs>
<clipPath id="clip0">
<rect width="40" height="40" fill="white"/>
</clipPath>
</defs>
</svg>
