<svg width="40" height="40" viewBox="0 0 40 40" fill="none" xmlns="http://www.w3.org/2000/svg">
<g clip-path="url(#clip0)">
<path d="M0.609894 20.5726C0.272955 20.5726 0 20.2997 0 19.9627C0 17.6838 0.478862 15.2691 1.3852 12.9796C2.30582 10.6543 3.67366 8.44586 5.34134 6.59304C9.11234 2.40274 14.2713 0.0952148 19.8675 0.0952148C23.37 0.0952148 26.8721 1.08595 29.9954 2.95988C32.0433 4.18852 33.9186 5.79459 35.4215 7.59058L35.2578 2.62532C35.2466 2.28872 35.5107 2.00692 35.8473 1.99569C36.1801 1.98276 36.4657 2.24856 36.4769 2.58516L36.6985 9.30183C36.8479 9.57614 36.7655 9.92397 36.5007 10.1006C36.3061 10.2303 36.0641 10.2333 35.8718 10.1292L29.1541 9.90764C28.8175 9.89675 28.5537 9.61494 28.565 9.27834C28.5759 8.94174 28.8607 8.67934 29.1943 8.68887L34.8902 8.87674C31.9909 5.17994 26.6322 1.31466 19.8678 1.31466C8.71277 1.31466 1.21945 10.9573 1.21945 19.9627C1.21945 20.2997 0.946493 20.5726 0.609894 20.5726Z" fill="#393333"/>
<path d="M20.1242 39.8306C16.6217 39.8306 13.1196 38.8402 9.99623 36.9663C7.94839 35.7373 6.07344 34.1312 4.57015 32.3352L4.73385 37.3005C4.74508 37.6371 4.48132 37.9189 4.14472 37.9301C3.80676 37.94 3.52631 37.6772 3.51508 37.3406L3.29352 30.624C3.14377 30.35 3.22613 30.0018 3.49092 29.8255C3.6856 29.6955 3.92758 29.6925 4.11987 29.7966L10.8376 30.0182C11.1742 30.0291 11.4383 30.3112 11.427 30.6478C11.4161 30.9844 11.1323 31.2495 10.7974 31.2369L5.10142 31.0494C8.0008 34.7459 13.3598 38.6111 20.1242 38.6111C31.2792 38.6111 38.7722 28.9689 38.7722 19.9634C38.7722 19.6265 39.0452 19.3535 39.3821 19.3535C39.7187 19.3535 39.992 19.6265 39.992 19.9634C39.992 22.2423 39.5128 24.6571 38.6065 26.9466C37.6862 29.2718 36.318 31.4803 34.6507 33.3331C30.8793 37.5231 25.7204 39.8306 20.1242 39.8306Z" fill="#393333"/>
<path d="M28.1722 29.2839H11.8198C10.5227 29.2839 9.46765 28.2289 9.46765 26.9318V12.9941C9.46765 11.6974 10.5227 10.6423 11.8198 10.6423H28.1722C29.4689 10.6423 30.524 11.6974 30.524 12.9941V26.9318C30.524 28.2289 29.4689 29.2839 28.1722 29.2839ZM11.8198 11.8618C11.1952 11.8618 10.6871 12.3699 10.6871 12.9941V26.9318C10.6871 27.5563 11.1952 28.0641 11.8198 28.0641H28.1722C28.7964 28.0641 29.3045 27.5563 29.3045 26.9318V12.9941C29.3045 12.3699 28.7964 11.8618 28.1722 11.8618H11.8198Z" fill="#393333"/>
<path d="M27.1281 23.9836H21.6734C21.3364 23.9836 21.0635 23.7107 21.0635 23.3741C21.0635 23.0371 21.3364 22.7642 21.6734 22.7642H27.1281C27.465 22.7642 27.738 23.0371 27.738 23.3741C27.738 23.7107 27.465 23.9836 27.1281 23.9836Z" fill="#393333"/>
<path d="M27.1281 26.4939H21.6734C21.3364 26.4939 21.0635 26.2209 21.0635 25.884C21.0635 25.5474 21.3364 25.2744 21.6734 25.2744H27.1281C27.465 25.2744 27.738 25.5474 27.738 25.884C27.738 26.2209 27.465 26.4939 27.1281 26.4939Z" fill="#393333"/>
<path d="M27.1281 18.9644H21.6734C21.3364 18.9644 21.0635 18.6911 21.0635 18.3545C21.0635 18.0176 21.3364 17.7446 21.6734 17.7446H27.1281C27.465 17.7446 27.738 18.0176 27.738 18.3545C27.738 18.6911 27.465 18.9644 27.1281 18.9644Z" fill="#393333"/>
<path d="M27.1281 21.4739H21.6734C21.3364 21.4739 21.0635 21.2009 21.0635 20.864C21.0635 20.5274 21.3364 20.2544 21.6734 20.2544H27.1281C27.465 20.2544 27.738 20.5274 27.738 20.864C27.738 21.2009 27.465 21.4739 27.1281 21.4739Z" fill="#393333"/>
<path d="M29.9141 16.608H10.0775C9.74061 16.608 9.46765 16.3347 9.46765 15.9981C9.46765 15.6611 9.74061 15.3882 10.0775 15.3882H29.9141C30.251 15.3882 30.524 15.6611 30.524 15.9981C30.524 16.3347 30.251 16.608 29.9141 16.608Z" fill="#393333"/>
<path d="M16.7816 14.987C16.041 14.987 15.4386 14.3846 15.4386 13.644C15.4386 12.9034 16.041 12.301 16.7816 12.301C17.5218 12.301 18.1242 12.9034 18.1242 13.644C18.1242 14.3846 17.5218 14.987 16.7816 14.987ZM16.7816 13.5208C16.7135 13.5208 16.658 13.576 16.658 13.644C16.658 13.7121 16.7135 13.7672 16.7816 13.7672C16.8497 13.7672 16.9048 13.7121 16.9048 13.644C16.9048 13.576 16.8497 13.5208 16.7816 13.5208Z" fill="#393333"/>
<path d="M13.4885 14.9768C12.7479 14.9768 12.1455 14.374 12.1455 13.6338C12.1455 12.8932 12.7479 12.2908 13.4885 12.2908C14.2291 12.2908 14.8315 12.8932 14.8315 13.6338C14.8315 14.374 14.2291 14.9768 13.4885 14.9768ZM13.4885 13.5102C13.4204 13.5102 13.3653 13.5657 13.3653 13.6338C13.3653 13.7018 13.4204 13.757 13.4885 13.757C13.5566 13.757 13.6117 13.7018 13.6117 13.6338C13.6117 13.5657 13.5566 13.5102 13.4885 13.5102Z" fill="#393333"/>
<path d="M20.0745 14.9972C19.3342 14.9972 18.7318 14.3948 18.7318 13.6542C18.7318 12.9139 19.3342 12.3115 20.0745 12.3115C20.8151 12.3115 21.4175 12.9139 21.4175 13.6542C21.4175 14.3948 20.8151 14.9972 20.0745 14.9972ZM20.0745 13.531C20.0064 13.531 19.9513 13.5861 19.9513 13.6542C19.9513 13.7222 20.0064 13.7774 20.0745 13.7774C20.1425 13.7774 20.198 13.7222 20.198 13.6542C20.198 13.5861 20.1425 13.531 20.0745 13.531Z" fill="#393333"/>
<path d="M19.0535 26.4938H12.7554C12.4185 26.4938 12.1455 26.2209 12.1455 25.8839V18.3545C12.1455 18.0176 12.4185 17.7446 12.7554 17.7446H19.0535C19.3904 17.7446 19.6633 18.0176 19.6633 18.3545V25.8839C19.6633 26.2209 19.3904 26.4938 19.0535 26.4938ZM13.3653 25.2744H18.4439V18.9644H13.3653V25.2744Z" fill="#393333"/>
</g>
<defs>
<clipPath id="clip0">
<rect width="40" height="40" fill="white"/>
</clipPath>
</defs>
</svg>
