<svg width="50" height="50" viewBox="0 0 50 50" fill="none" xmlns="http://www.w3.org/2000/svg">
<path d="M49.1667 28.3333H48.3333V25.8333C48.3311 24.1785 47.35 22.6818 45.8333 22.0199V9.16659C45.8331 8.83534 45.6369 8.53575 45.3333 8.40325C45.6584 7.88221 45.8316 7.28075 45.8333 6.66659C45.8333 4.82565 44.3409 3.33325 42.5 3.33325C40.6591 3.33325 39.1667 4.82565 39.1667 6.66659C39.1701 7.25346 39.3301 7.82877 39.63 8.33325H10.37C10.6699 7.82877 10.8299 7.25346 10.8333 6.66659C10.8333 4.82565 9.34094 3.33325 7.5 3.33325C5.65906 3.33325 4.16667 4.82565 4.16667 6.66659C4.16844 7.28075 4.34156 7.88221 4.66667 8.40325C4.36312 8.53575 4.16687 8.83534 4.16667 9.16659V22.0199C2.65 22.6818 1.66885 24.1785 1.66667 25.8333V28.3333H0.833333C0.373125 28.3333 0 28.7064 0 29.1666V40.8333C0 41.2935 0.373125 41.6666 0.833333 41.6666H1.66667V45.8333C1.66667 46.2935 2.03979 46.6666 2.5 46.6666H5.83333C6.29354 46.6666 6.66667 46.2935 6.66667 45.8333V41.6666H43.3333V45.8333C43.3333 46.2935 43.7065 46.6666 44.1667 46.6666H47.5C47.9602 46.6666 48.3333 46.2935 48.3333 45.8333V41.6666H49.1667C49.6269 41.6666 50 41.2935 50 40.8333V29.1666C50 28.7064 49.6269 28.3333 49.1667 28.3333ZM42.5 4.99992C43.4205 4.99992 44.1667 5.74606 44.1667 6.66659C44.1667 7.58711 43.4205 8.33325 42.5 8.33325C41.5795 8.33325 40.8333 7.58711 40.8333 6.66659C40.8333 5.74606 41.5795 4.99992 42.5 4.99992ZM7.5 4.99992C8.42052 4.99992 9.16667 5.74606 9.16667 6.66659C9.16667 7.58711 8.42052 8.33325 7.5 8.33325C6.57948 8.33325 5.83333 7.58711 5.83333 6.66659C5.83333 5.74606 6.57948 4.99992 7.5 4.99992ZM5.83333 9.99992H44.1667V21.6666H40.8117C41.3631 20.9496 41.6636 20.0712 41.6667 19.1666V17.4999C41.664 15.1999 39.8 13.336 37.5 13.3333H30.8333C28.5333 13.336 26.6694 15.1999 26.6667 17.4999V19.1666C26.6697 20.0712 26.9702 20.9496 27.5217 21.6666H22.4783C23.0298 20.9496 23.3303 20.0712 23.3333 19.1666V17.4999C23.3306 15.1999 21.4667 13.336 19.1667 13.3333H12.5C10.2 13.336 8.33604 15.1999 8.33333 17.4999V19.1666C8.33635 20.0712 8.63688 20.9496 9.18833 21.6666H5.83333V9.99992ZM40 17.4999V19.1666C40 20.5473 38.8807 21.6666 37.5 21.6666H30.8333C29.4526 21.6666 28.3333 20.5473 28.3333 19.1666V17.4999C28.3333 16.1192 29.4526 14.9999 30.8333 14.9999H37.5C38.8807 14.9999 40 16.1192 40 17.4999ZM21.6667 17.4999V19.1666C21.6667 20.5473 20.5474 21.6666 19.1667 21.6666H12.5C11.1193 21.6666 10 20.5473 10 19.1666V17.4999C10 16.1192 11.1193 14.9999 12.5 14.9999H19.1667C20.5474 14.9999 21.6667 16.1192 21.6667 17.4999ZM3.33333 25.8333C3.33333 24.4525 4.4526 23.3333 5.83333 23.3333H44.1667C45.5474 23.3333 46.6667 24.4525 46.6667 25.8333V28.3333H3.33333V25.8333ZM5 44.9999H3.33333V41.6666H5V44.9999ZM46.6667 44.9999H45V41.6666H46.6667V44.9999ZM48.3333 39.9999H1.66667V29.9999H48.3333V39.9999Z" fill="#393333"/>
<path d="M7.5 36.6667H4.16666C3.70645 36.6667 3.33333 37.0399 3.33333 37.5001C3.33333 37.9603 3.70645 38.3334 4.16666 38.3334H7.5C7.9602 38.3334 8.33333 37.9603 8.33333 37.5001C8.33333 37.0399 7.9602 36.6667 7.5 36.6667Z" fill="#393333"/>
<path d="M45.8333 36.6667H10.8333C10.3731 36.6667 10 37.0399 10 37.5001C10 37.9603 10.3731 38.3334 10.8333 38.3334H45.8333C46.2935 38.3334 46.6667 37.9603 46.6667 37.5001C46.6667 37.0399 46.2935 36.6667 45.8333 36.6667Z" fill="#393333"/>
</svg>
