<svg width="24" height="16" viewBox="0 0 24 16" fill="none" xmlns="http://www.w3.org/2000/svg">
<path fill-rule="evenodd" clip-rule="evenodd" d="M20.0274 7.15947C20.9252 6.52915 21.3115 5.38804 20.9818 4.34022C20.6521 3.2924 19.6825 2.57991 18.5864 2.57991C17.4902 2.57991 16.5206 3.2924 16.1909 4.34022C15.8612 5.38804 16.2475 6.52915 17.1454 7.15947C16.5976 7.34845 16.0929 7.64514 15.661 8.03216C15.0664 7.52358 14.3726 7.14465 13.6238 6.9195C14.8465 6.17909 15.4271 4.71273 15.0437 3.33344C14.6602 1.95416 13.4068 1 11.9783 1C10.5497 1 9.29626 1.95416 8.91283 3.33344C8.52941 4.71273 9.11 6.17909 10.3327 6.9195C9.59326 7.14434 8.90738 7.51808 8.31706 8.01785C7.88822 7.63985 7.38988 7.34941 6.85 7.1628C7.74782 6.53248 8.13414 5.39137 7.80443 4.34355C7.47473 3.29573 6.50516 2.58324 5.409 2.58324C4.31284 2.58324 3.34327 3.29573 3.01357 4.34355C2.68386 5.39137 3.07017 6.53248 3.968 7.1628C2.19157 7.7786 0.999956 9.4555 1 11.3395V11.6274C1.00064 11.6367 1.00801 11.6441 1.01727 11.6447H6.34161C6.31022 11.8893 6.29425 12.1357 6.29379 12.3823V12.6788C6.29352 13.2945 6.53743 13.8851 6.97179 14.3204C7.40614 14.7558 7.99534 15.0003 8.60961 15H15.3572C15.9715 15.0003 16.5607 14.7558 16.995 14.3204C17.4294 13.8851 17.6733 13.2945 17.673 12.6788V12.3823C17.6725 12.1357 17.6566 11.8893 17.6252 11.6447H22.9827C22.992 11.6441 22.9994 11.6367 23 11.6274V11.3395C22.9956 9.4547 21.8035 7.77841 20.0274 7.15947ZM16.7711 5.09593C16.7713 4.09559 17.5771 3.28299 18.5751 3.27671C19.5731 3.27043 20.389 4.07282 20.4017 5.07308C20.4145 6.07334 19.6192 6.89631 18.6214 6.91552H18.5516C17.5627 6.89682 16.7713 6.08699 16.7731 5.0956L16.7711 5.09593ZM11.9215 1.69707C10.5675 1.72325 9.48349 2.83096 9.48359 4.18836L9.48458 4.18803C9.48676 5.50677 10.512 6.59631 11.8253 6.67561H12.1129C13.4649 6.59728 14.5056 5.44863 14.4534 4.09224C14.4013 2.73585 13.2755 1.67088 11.9215 1.69707ZM3.58144 5.09556C3.58163 4.09522 4.38742 3.28262 5.38544 3.27634C6.38346 3.27006 7.19938 4.07245 7.2121 5.07271C7.22482 6.07298 6.42957 6.89595 5.43171 6.91516H5.36198C4.37308 6.89594 3.58144 6.08693 3.58144 5.09556ZM1.70528 10.9425H6.46345C6.70031 10.0309 7.15779 9.19188 7.79536 8.4998C7.13385 7.93268 6.29322 7.61888 5.42275 7.61414H5.37062C3.48323 7.63062 1.90744 9.06152 1.70528 10.9425ZM16.9681 12.6792C16.9668 13.5751 16.2425 14.3011 15.3486 14.3024H8.60103C7.70715 14.3011 6.98283 13.5751 6.98155 12.6792V12.3826C6.98399 9.67743 9.12775 7.46229 11.8254 7.3775C11.8732 7.38183 11.925 7.38183 11.9735 7.38183C12.022 7.38183 12.0731 7.38183 12.1216 7.3775C14.8196 7.46158 16.9641 9.67673 16.9668 12.3823L16.9681 12.6792ZM16.1671 8.51647C16.7982 9.20482 17.251 10.0378 17.4861 10.9425L22.2788 10.9415C22.0766 9.06054 20.5008 7.62964 18.6135 7.61316H18.5613C17.6815 7.61923 16.8326 7.9395 16.1671 8.51647Z" fill="#374A5E"/>
<path d="M20.9818 4.34022L20.6956 4.43027V4.43027L20.9818 4.34022ZM20.0274 7.15947L19.855 6.91394L19.376 7.2502L19.9286 7.44277L20.0274 7.15947ZM16.1909 4.34022L16.4771 4.43027L16.4771 4.43027L16.1909 4.34022ZM17.1454 7.15947L17.2432 7.44307L17.7985 7.2515L17.3177 6.91394L17.1454 7.15947ZM15.661 8.03216L15.466 8.26015L15.6656 8.43085L15.8612 8.25558L15.661 8.03216ZM13.6238 6.9195L13.4684 6.66289L12.8911 7.01246L13.5374 7.20679L13.6238 6.9195ZM10.3327 6.9195L10.42 7.20653L11.063 7.01101L10.4881 6.66289L10.3327 6.9195ZM8.31706 8.01785L8.11869 8.2429L8.31311 8.41427L8.5109 8.24681L8.31706 8.01785ZM6.85 7.1628L6.67762 6.91727L6.19717 7.25457L6.75199 7.44634L6.85 7.1628ZM7.80443 4.34355L8.0906 4.25351L7.80443 4.34355ZM3.01357 4.34355L3.29973 4.4336L3.01357 4.34355ZM3.968 7.1628L4.06626 7.44625L4.62029 7.2542L4.14038 6.91727L3.968 7.1628ZM1 11.3395H1.3V11.3395L1 11.3395ZM1 11.6274H0.7V11.6378L0.700712 11.6481L1 11.6274ZM1.01727 11.6447L0.99652 11.944L1.00688 11.9447H1.01727V11.6447ZM6.34161 11.6447L6.63917 11.6829L6.68256 11.3447H6.34161V11.6447ZM6.29379 12.3823L5.99379 12.3817V12.3823H6.29379ZM6.29379 12.6788L6.59379 12.679V12.6788H6.29379ZM6.97179 14.3204L6.75941 14.5323H6.75941L6.97179 14.3204ZM8.60961 15V14.7H8.60948L8.60961 15ZM15.3572 15L15.3573 14.7H15.3572V15ZM16.995 14.3204L17.2074 14.5323H17.2074L16.995 14.3204ZM17.673 12.6788H17.373V12.679L17.673 12.6788ZM17.673 12.3823H17.973L17.973 12.3817L17.673 12.3823ZM17.6252 11.6447V11.3447H17.2842L17.3276 11.6829L17.6252 11.6447ZM22.9827 11.6447V11.9447H22.9931L23.0035 11.944L22.9827 11.6447ZM23 11.6274L23.2993 11.6481L23.3 11.6378V11.6274H23ZM23 11.3395H23.3L23.3 11.3388L23 11.3395ZM18.5751 3.27671L18.577 3.5767L18.5751 3.27671ZM16.7711 5.09593L16.4711 5.09588L16.471 5.45022L16.8205 5.39183L16.7711 5.09593ZM20.4017 5.07308L20.1018 5.07689V5.07689L20.4017 5.07308ZM18.6214 6.91552V7.21558L18.6271 7.21547L18.6214 6.91552ZM18.5516 6.91552L18.5459 7.21552H18.5516V6.91552ZM16.7731 5.0956L17.0731 5.09614L17.0737 4.74121L16.7236 4.7997L16.7731 5.0956ZM9.48359 4.18836L9.18359 4.18838L9.18362 4.60483L9.57862 4.47291L9.48359 4.18836ZM11.9215 1.69707L11.9157 1.39712L11.9215 1.69707ZM9.48458 4.18803L9.78458 4.18753L9.7839 3.77178L9.38955 3.90348L9.48458 4.18803ZM11.8253 6.67561L11.8072 6.97507L11.8163 6.97561H11.8253V6.67561ZM12.1129 6.67561V6.97561H12.1216L12.1302 6.97511L12.1129 6.67561ZM14.4534 4.09224L14.1536 4.10377L14.4534 4.09224ZM5.38544 3.27634L5.38733 3.57634L5.38544 3.27634ZM3.58144 5.09556L3.28144 5.09551V5.09556L3.58144 5.09556ZM5.43171 6.91516V7.21521L5.43749 7.2151L5.43171 6.91516ZM5.36198 6.91516L5.35615 7.21516H5.36198V6.91516ZM6.46345 10.9425V11.2425H6.69546L6.7538 11.0179L6.46345 10.9425ZM1.70528 10.9425L1.407 10.9104L1.37131 11.2425H1.70528V10.9425ZM7.79536 8.4998L8.016 8.70307L8.22666 8.4744L7.99062 8.27205L7.79536 8.4998ZM5.42275 7.61414L5.42439 7.31414H5.42275V7.61414ZM5.37062 7.61414V7.31412L5.368 7.31415L5.37062 7.61414ZM15.3486 14.3024V14.6024L15.349 14.6024L15.3486 14.3024ZM16.9681 12.6792L17.2681 12.6796L17.2681 12.6778L16.9681 12.6792ZM8.60103 14.3024L8.6006 14.6024H8.60103V14.3024ZM6.98155 12.6792H6.68155L6.68155 12.6796L6.98155 12.6792ZM6.98155 12.3826L6.68155 12.3824V12.3826H6.98155ZM11.8254 7.3775L11.8524 7.07872L11.8342 7.07708L11.816 7.07765L11.8254 7.3775ZM12.1216 7.3775L12.1309 7.07765L12.1129 7.07709L12.0949 7.07869L12.1216 7.3775ZM16.9668 12.3823L16.6668 12.3826L16.6668 12.3836L16.9668 12.3823ZM17.4861 10.9425L17.1957 11.0179L17.2541 11.2425L17.4862 11.2425L17.4861 10.9425ZM16.1671 8.51647L15.9706 8.2898L15.7376 8.49184L15.946 8.71919L16.1671 8.51647ZM22.2788 10.9415L22.2789 11.2415L22.6128 11.2414L22.5771 10.9094L22.2788 10.9415ZM18.6135 7.61316L18.6161 7.31316H18.6135V7.61316ZM18.5613 7.61316V7.31315L18.5593 7.31317L18.5613 7.61316ZM20.6956 4.43027C20.9862 5.35361 20.6456 6.35887 19.855 6.91394L20.1997 7.40501C21.2048 6.69942 21.6368 5.42247 21.268 4.25018L20.6956 4.43027ZM18.5864 2.87991C19.5511 2.87991 20.4051 3.50704 20.6956 4.43027L21.268 4.25018C20.899 3.07777 19.8139 2.27991 18.5864 2.27991V2.87991ZM16.4771 4.43027C16.7676 3.50704 17.6216 2.87991 18.5864 2.87991V2.27991C17.3588 2.27991 16.2737 3.07777 15.9048 4.25018L16.4771 4.43027ZM17.3177 6.91394C16.5271 6.35887 16.1865 5.35361 16.4771 4.43027L15.9048 4.25018C15.5359 5.42247 15.968 6.69942 16.973 7.40501L17.3177 6.91394ZM15.8612 8.25558C16.2634 7.89522 16.7332 7.619 17.2432 7.44307L17.0475 6.87587C16.4619 7.07789 15.9225 7.39506 15.4608 7.80874L15.8612 8.25558ZM13.5374 7.20679C14.2462 7.41993 14.903 7.77865 15.466 8.26015L15.856 7.80417C15.2297 7.26851 14.4989 6.86938 13.7102 6.63221L13.5374 7.20679ZM14.7546 3.41379C15.1021 4.66378 14.5758 5.99229 13.4684 6.66289L13.7792 7.17612C15.1172 6.36589 15.7521 4.76168 15.3327 3.25309L14.7546 3.41379ZM11.9783 1.3C13.2716 1.3 14.4072 2.16393 14.7546 3.41379L15.3327 3.25309C14.9133 1.74438 13.5419 0.7 11.9783 0.7V1.3ZM9.20187 3.41379C9.54932 2.16393 10.6849 1.3 11.9783 1.3V0.7C10.4146 0.7 9.0432 1.74438 8.62379 3.25309L9.20187 3.41379ZM10.4881 6.66289C9.38069 5.99229 8.85439 4.66378 9.20187 3.41379L8.62379 3.25309C8.20443 4.76168 8.83931 6.36589 10.1773 7.17612L10.4881 6.66289ZM8.5109 8.24681C9.07005 7.77344 9.71967 7.41947 10.42 7.20653L10.2454 6.63248C9.46685 6.86922 8.74471 7.26273 8.12322 7.78888L8.5109 8.24681ZM6.75199 7.44634C7.2549 7.62017 7.71915 7.89074 8.11869 8.2429L8.51543 7.79279C8.05728 7.38897 7.52485 7.07865 6.948 6.87926L6.75199 7.44634ZM7.51826 4.4336C7.8088 5.35694 7.46825 6.3622 6.67762 6.91727L7.02238 7.40833C8.0274 6.70275 8.45947 5.4258 8.0906 4.25351L7.51826 4.4336ZM5.409 2.88324C6.37378 2.88324 7.22776 3.51037 7.51826 4.4336L8.0906 4.25351C7.72169 3.08109 6.63654 2.28324 5.409 2.28324V2.88324ZM3.29973 4.4336C3.59023 3.51037 4.44421 2.88324 5.409 2.88324V2.28324C4.18146 2.28324 3.09631 3.08109 2.7274 4.25351L3.29973 4.4336ZM4.14038 6.91727C3.34975 6.3622 3.0092 5.35694 3.29973 4.4336L2.7274 4.25351C2.35853 5.4258 2.7906 6.70275 3.79562 7.40833L4.14038 6.91727ZM1.3 11.3395C1.29996 9.58294 2.41093 8.02008 4.06626 7.44625L3.86974 6.87935C1.9722 7.53713 0.699954 9.32805 0.7 11.3395L1.3 11.3395ZM1.3 11.6274V11.3395H0.7V11.6274H1.3ZM1.03802 11.3454C1.17865 11.3552 1.28965 11.4672 1.29929 11.6067L0.700712 11.6481C0.711629 11.8062 0.837365 11.933 0.99652 11.944L1.03802 11.3454ZM6.34161 11.3447H1.01727V11.9447H6.34161V11.3447ZM6.59379 12.3828C6.59423 12.1488 6.60938 11.915 6.63917 11.6829L6.04404 11.6065C6.01106 11.8636 5.99427 12.1225 5.99379 12.3817L6.59379 12.3828ZM6.59379 12.6788V12.3823H5.99379V12.6788H6.59379ZM7.18416 14.1086C6.80602 13.7295 6.59356 13.2153 6.59379 12.679L5.99379 12.6787C5.99349 13.3738 6.26883 14.0406 6.75941 14.5323L7.18416 14.1086ZM8.60948 14.7C8.07504 14.7002 7.56228 14.4875 7.18416 14.1086L6.75941 14.5323C7.25001 15.0241 7.91563 15.3003 8.60974 15.3L8.60948 14.7ZM15.3572 14.7H8.60961V15.3H15.3572V14.7ZM16.7826 14.1086C16.4045 14.4875 15.8918 14.7002 15.3573 14.7L15.3571 15.3C16.0512 15.3003 16.7168 15.0241 17.2074 14.5323L16.7826 14.1086ZM17.373 12.679C17.3732 13.2153 17.1608 13.7295 16.7826 14.1086L17.2074 14.5323C17.698 14.0406 17.9733 13.3738 17.973 12.6787L17.373 12.679ZM17.373 12.3823V12.6788H17.973V12.3823H17.373ZM17.3276 11.6829C17.3574 11.915 17.3726 12.1488 17.373 12.3828L17.973 12.3817C17.9725 12.1225 17.9557 11.8636 17.9228 11.6065L17.3276 11.6829ZM22.9827 11.3447H17.6252V11.9447H22.9827V11.3447ZM22.7007 11.6067C22.7104 11.4672 22.8213 11.3552 22.962 11.3454L23.0035 11.944C23.1626 11.933 23.2884 11.8062 23.2993 11.6481L22.7007 11.6067ZM22.7 11.3395V11.6274H23.3V11.3395H22.7ZM19.9286 7.44277C21.5842 8.01967 22.6959 9.58242 22.7 11.3402L23.3 11.3388C23.2954 9.32699 22.0229 7.53715 20.1261 6.87618L19.9286 7.44277ZM18.5732 2.97671C17.4096 2.98404 16.4713 3.93125 16.4711 5.09588L17.0711 5.09599C17.0712 4.25992 17.7445 3.58194 18.577 3.5767L18.5732 2.97671ZM20.7017 5.06927C20.6869 3.90473 19.7368 2.96939 18.5732 2.97671L18.577 3.5767C19.4094 3.57146 20.0911 4.24091 20.1018 5.07689L20.7017 5.06927ZM18.6271 7.21547C19.7905 7.19307 20.7165 6.23379 20.7017 5.06926L20.1018 5.07689C20.1124 5.91289 19.4479 6.59955 18.6156 6.61558L18.6271 7.21547ZM18.5516 7.21552H18.6214V6.61552H18.5516V7.21552ZM16.4731 5.09505C16.471 6.24949 17.3927 7.19366 18.5459 7.21547L18.5573 6.61558C17.7327 6.59998 17.0716 5.92449 17.0731 5.09614L16.4731 5.09505ZM16.8205 5.39183L16.8225 5.3915L16.7236 4.7997L16.7216 4.80003L16.8205 5.39183ZM9.78359 4.18834C9.7835 2.99374 10.7373 2.02003 11.9273 1.99701L11.9157 1.39712C10.3976 1.42648 9.18348 2.66819 9.18359 4.18838L9.78359 4.18834ZM9.38955 3.90348L9.38856 3.90381L9.57862 4.47291L9.57962 4.47258L9.38955 3.90348ZM11.8434 6.37616C10.6888 6.30645 9.7865 5.34839 9.78458 4.18753L9.18458 4.18852C9.18703 5.66514 10.3351 6.88618 11.8072 6.97507L11.8434 6.37616ZM12.1129 6.37561H11.8253V6.97561H12.1129V6.37561ZM14.1536 4.10377C14.1995 5.29749 13.2838 6.30727 12.0955 6.37612L12.1302 6.97511C13.646 6.88729 14.8116 5.59976 14.7532 4.08072L14.1536 4.10377ZM11.9273 1.99701C13.1172 1.974 14.1078 2.91008 14.1536 4.10377L14.7532 4.08072C14.6948 2.56163 13.4337 1.36776 11.9157 1.39712L11.9273 1.99701ZM5.38356 2.97635C4.21997 2.98367 3.28166 3.93089 3.28144 5.09551L3.88144 5.09562C3.8816 4.25956 4.55488 3.58158 5.38733 3.57634L5.38356 2.97635ZM7.51207 5.0689C7.49727 3.90436 6.54715 2.96903 5.38356 2.97635L5.38733 3.57634C6.21978 3.5711 6.90149 4.24054 6.91212 5.07653L7.51207 5.0689ZM5.43749 7.2151C6.60088 7.1927 7.52688 6.23342 7.51207 5.0689L6.91212 5.07653C6.92275 5.91253 6.25826 6.59919 5.42594 6.61521L5.43749 7.2151ZM5.36198 7.21516H5.43171V6.61516H5.36198V7.21516ZM3.28144 5.09556C3.28144 6.24971 4.20323 7.1927 5.35615 7.2151L5.36781 6.61521C4.54292 6.59918 3.88144 5.92416 3.88144 5.09557L3.28144 5.09556ZM6.46345 10.6425H1.70528V11.2425H6.46345V10.6425ZM7.57472 8.29654C6.90373 9.02489 6.42233 9.90778 6.17309 10.867L6.7538 11.0179C6.97829 10.154 7.41184 9.35888 8.016 8.70307L7.57472 8.29654ZM5.42112 7.91413C6.22045 7.91849 6.99248 8.20664 7.6001 8.72756L7.99062 8.27205C7.27522 7.65872 6.366 7.31927 5.42439 7.31414L5.42112 7.91413ZM5.37062 7.91414H5.42275V7.31414H5.37062V7.91414ZM2.00356 10.9745C2.18951 9.24444 3.63866 7.92927 5.37324 7.91412L5.368 7.31415C3.3278 7.33196 1.62537 8.8786 1.407 10.9104L2.00356 10.9745ZM15.349 14.6024C16.4089 14.6009 17.2666 13.7403 17.2681 12.6796L16.6681 12.6788C16.667 13.41 16.0761 14.0014 15.3482 14.0024L15.349 14.6024ZM8.60103 14.6024H15.3486V14.0024H8.60103V14.6024ZM6.68155 12.6796C6.68307 13.7403 7.54072 14.6009 8.6006 14.6024L8.60146 14.0024C7.87358 14.0014 7.2826 13.41 7.28155 12.6788L6.68155 12.6796ZM6.68155 12.3826V12.6792H7.28155V12.3826H6.68155ZM11.816 7.07765C8.95587 7.16755 6.68413 9.51587 6.68155 12.3824L7.28155 12.3829C7.28384 9.83899 9.29962 7.75704 11.8348 7.67735L11.816 7.07765ZM11.9735 7.08183C11.9222 7.08183 11.8843 7.08161 11.8524 7.07872L11.7984 7.67628C11.8621 7.68205 11.9278 7.68183 11.9735 7.68183V7.08183ZM12.0949 7.07869C12.0621 7.08162 12.0245 7.08183 11.9735 7.08183V7.68183C12.0194 7.68183 12.0841 7.68204 12.1483 7.67631L12.0949 7.07869ZM17.2668 12.382C17.264 9.51513 14.9914 7.16679 12.1309 7.07765L12.1122 7.67736C14.6478 7.75638 16.6643 9.83834 16.6668 12.3826L17.2668 12.382ZM17.2681 12.6778L17.2668 12.381L16.6668 12.3836L16.6681 12.6805L17.2681 12.6778ZM17.7765 10.867C17.5291 9.915 17.0525 9.03827 16.3883 8.31374L15.946 8.71919C16.5439 9.37138 16.973 10.1607 17.1957 11.0179L17.7765 10.867ZM22.2787 10.6415L17.486 10.6425L17.4862 11.2425L22.2789 11.2415L22.2787 10.6415ZM18.6108 7.91315C20.3454 7.92829 21.7946 9.24346 21.9805 10.9735L22.5771 10.9094C22.3587 8.87762 20.6563 7.33099 18.6161 7.31317L18.6108 7.91315ZM18.5613 7.91316H18.6135V7.31316H18.5613V7.91316ZM16.3637 8.74313C16.9752 8.21295 17.7551 7.91873 18.5634 7.91315L18.5593 7.31317C17.6078 7.31973 16.69 7.66606 15.9706 8.2898L16.3637 8.74313Z" fill="#374A5E"/>
</svg>
