<svg width="229" height="135" viewBox="0 0 229 135" fill="none" xmlns="http://www.w3.org/2000/svg">
<g clip-path="url(#clip0)">
<rect width="229" height="135" fill="white"/>
<path fill-rule="evenodd" clip-rule="evenodd" d="M43.7719 35.3781L11.5878 83.3976L0 70.4999L20.4776 39.8267L43.7719 35.3781ZM229 -1.17037e-05L138.7 135L127.111 122.101L205.843 4.4231L229 -0.00170898V-1.17037e-05ZM182.399 8.90053L115.518 109.198L103.929 96.3003L159.219 13.327L182.399 8.90053ZM136.907 17.5889L57.9525 135L46.363 122.101L113.736 22.0137L136.907 17.5889ZM90.123 26.5234L34.7701 109.196L23.1824 96.2986L67.1189 30.9177L90.123 26.5234Z" fill="url(#paint0_linear)"/>
</g>
<defs>
<linearGradient id="paint0_linear" x1="114.5" y1="-0.00170898" x2="114.5" y2="135" gradientUnits="userSpaceOnUse">
<stop stop-color="#F9F9F9"/>
<stop offset="1" stop-color="#F9F9F9" stop-opacity="0"/>
</linearGradient>
<clipPath id="clip0">
<rect width="229" height="135" fill="white"/>
</clipPath>
</defs>
</svg>
