<svg width="116" height="25" viewBox="0 0 116 25" fill="none" xmlns="http://www.w3.org/2000/svg">
<path fill-rule="evenodd" clip-rule="evenodd" d="M97.9478 12.4341H96.8863V10.6014H100.924L100.981 10.6952L105.411 17.9341H103.016L102.959 17.8356L102.133 16.4072H97.6939L96.8676 17.8356L96.8108 17.9341H94.6353L97.9478 12.4341ZM72.9795 17.9341L72.9307 17.8098L69.5113 9.07453H71.9996L74.0509 14.4128L76.1964 9.07455H77.8627L80.0531 14.4082L82.0087 9.07455H84.2157L80.7474 17.9341H79.1305L79.0808 17.8114L76.8955 12.3988L74.6791 17.8121L74.6294 17.9341L72.9795 17.9341ZM85.9489 13.7207H91.4752V14.9461H88.0424V16.2329H93.9917V17.9341H85.9489V13.7207ZM85.9489 12.2205V10.6014H93.9084V12.2205H85.9489ZM108.424 10.6014V13.2336L112.283 10.6014H115.471L110.307 14.0167L116 17.9341H112.597L112.545 17.8971L108.424 14.9816V17.9341H106.33V10.6014L108.424 10.6014ZM99.9121 12.4854L98.5843 14.7881H101.227L99.9121 12.4854Z" fill="#374A5E"/>
<path fill-rule="evenodd" clip-rule="evenodd" d="M63.9602 12.7716L66.1149 10.6014H68.6536L65.2444 13.9773L69.4185 17.9341H66.5019L66.4443 17.879L63.8872 15.4221L61.5413 17.8729L61.4826 17.934H58.9032L62.5706 14.1822L58.8126 10.6014H61.6768L63.9602 12.7716ZM47.9361 12.4074H54.2959V14.2401H50.3296V16.0029H57.2121V17.934H47.9361V12.4074ZM47.9361 10.9073V9.07453H57.1287V10.9073H47.9361Z" fill="#374A5E"/>
<path fill-rule="evenodd" clip-rule="evenodd" d="M8.22981 6.55154L2.17882 15.444L0 13.0555L3.85006 7.37527L8.22981 6.55154ZM43.0552 0L26.0775 25L23.8986 22.6114L38.7012 0.819268L43.0552 0ZM34.2937 1.64825L21.719 20.2218L19.5401 17.8334L29.9354 2.46807L34.2937 1.64825ZM25.7405 3.25733L10.896 25L8.71694 22.6114L21.3842 4.07681L25.7405 3.25733ZM16.9444 4.91199L6.53728 20.2218L4.35846 17.8334L12.6191 5.72564L16.9444 4.91199Z" fill="#374A5E"/>
<path fill-rule="evenodd" clip-rule="evenodd" d="M50.771 21.9635H49.7018V23.4695H48.9827V21.9635H47.9283V21.388H50.771L50.771 21.9635ZM49.7018 24.1261V24.8261H48.9827V24.1261H49.7018ZM59.8917 24.1261V24.8261H59.1726V24.1261H59.8917ZM59.1726 23.4695V21.388H60.4692C60.8815 21.388 61.1997 21.4783 61.423 21.6597C61.6472 21.841 61.7585 22.0964 61.7585 22.4277C61.7585 22.6622 61.7069 22.8581 61.6038 23.0144C61.5008 23.1716 61.3453 23.2965 61.1359 23.3892L61.1791 23.4695H59.1726ZM61.5322 24.1261L61.891 24.7931V24.8261H61.1187L60.7543 24.1261H61.5322ZM59.8917 22.9935H60.4717C60.6525 22.9935 60.7923 22.9483 60.8914 22.8581C60.9903 22.7678 61.0403 22.6429 61.0403 22.4841C61.0403 22.3221 60.9928 22.1956 60.8995 22.1029C60.8063 22.0102 60.6631 21.9635 60.4693 21.9635H59.8917L59.8917 22.9935ZM71.0056 24.1261L70.768 24.8261H70.0039L70.2682 24.1261H71.0056ZM70.5162 23.4695L71.3021 21.388H71.9688L72.7597 23.4695H72.0487L71.6359 22.2568L71.2269 23.4695H70.5162ZM73.0092 24.1261L73.2752 24.8261H72.5103L72.2703 24.1261H73.0092ZM82.3575 24.8261H81.6393V24.1261H82.3575V24.8261ZM81.6393 23.4695V21.388H82.3575V23.4695H81.6393ZM93.8538 24.8261H93.1348L92.7019 24.1261H93.8538V24.8261ZM92.2959 23.4695L91.7359 22.5639V23.4695H91.0169V21.388H91.7359L93.0224 23.4695H92.2959ZM91.7359 24.1261V24.8261H91.0169V24.1261H91.7359ZM93.1372 23.4695V21.388H93.8538V23.4695H93.1372ZM104.574 23.332H103.194V23.4695H102.475V21.388H104.809V21.9635H103.194V22.7807H104.574V23.332ZM103.194 24.1261V24.2555H104.813V24.8261H102.475V24.1261H103.194ZM113.947 24.1261V24.8261H113.227V24.1261H113.947ZM113.227 23.4695V21.388H114.524C114.936 21.388 115.255 21.4783 115.478 21.6597C115.702 21.841 115.813 22.0964 115.813 22.4277C115.813 22.6622 115.762 22.8581 115.659 23.0144C115.556 23.1716 115.4 23.2965 115.191 23.3892L115.234 23.4695H113.227ZM115.587 24.1261L115.946 24.7931V24.8261H115.174L114.809 24.1261H115.587ZM113.947 22.9935H114.526C114.707 22.9935 114.847 22.9483 114.946 22.8581C115.045 22.7678 115.095 22.6429 115.095 22.4841C115.095 22.3221 115.048 22.1956 114.954 22.1029C114.861 22.0102 114.718 21.9635 114.524 21.9635H113.947L113.947 22.9935Z" fill="#374A5E"/>
</svg>
