<svg width="250" height="222" viewBox="0 0 250 222" fill="none" xmlns="http://www.w3.org/2000/svg">
<g opacity="0.8" clip-path="url(#clip0)">
<path opacity="0.1" d="M111.999 85.7764C102.228 82.6116 91.8977 79.9584 81.3397 80.2318C65.8178 80.6352 50.8938 87.8746 43.5332 98.574C37.3115 107.641 36.481 118.297 33.7651 128.379C30.4189 140.8 24.0673 152.588 17.2883 164.116C13.6472 170.308 9.80599 176.629 9.173 183.433C8.30466 192.879 14.0232 202.322 23.0393 208.651C32.0555 214.981 44.0526 218.355 56.1065 219.142C62.5203 219.559 69.2235 219.237 74.934 216.925C80.9745 214.489 85.3919 210.03 91.4568 207.62C97.078 205.389 103.63 205.102 109.935 205.43C118.101 205.843 126.189 207.23 134.027 209.561C142.816 212.193 150.982 215.98 159.752 218.65C168.522 221.319 178.326 222.83 187.312 220.683C195.749 218.669 202.442 213.703 208.477 208.673C218.202 200.588 227.245 191.714 235.514 182.141C240.965 175.809 246.042 169.122 248.477 161.723C253.127 147.574 246.897 131.555 232.958 121.811C221.41 113.735 205.874 110.17 190.661 108.004C176.786 106.008 160.734 105.811 147.983 100.729C135.82 95.8694 124.757 89.9078 111.999 85.7764Z" fill="#374A5E"/>
<path opacity="0.1" d="M236.548 133.991C240 133.991 242.799 133.607 242.799 133.133C242.799 132.659 240 132.275 236.548 132.275C233.095 132.275 230.296 132.659 230.296 133.133C230.296 133.607 233.095 133.991 236.548 133.991Z" fill="#374A5E"/>
<path opacity="0.1" d="M212.599 136.422C216.052 136.422 218.851 136.038 218.851 135.564C218.851 135.09 216.052 134.706 212.599 134.706C209.147 134.706 206.348 135.09 206.348 135.564C206.348 136.038 209.147 136.422 212.599 136.422Z" fill="#374A5E"/>
<path opacity="0.1" d="M184.39 133.133C187.843 133.133 190.642 132.749 190.642 132.275C190.642 131.801 187.843 131.417 184.39 131.417C180.938 131.417 178.139 131.801 178.139 132.275C178.139 132.749 180.938 133.133 184.39 133.133Z" fill="#374A5E"/>
<path opacity="0.1" d="M222.183 143.096C224.638 143.096 226.628 142.822 226.628 142.484C226.628 142.146 224.638 141.872 222.183 141.872C219.729 141.872 217.739 142.146 217.739 142.484C217.739 142.822 219.729 143.096 222.183 143.096Z" fill="#374A5E"/>
<path opacity="0.1" d="M197.329 142.484C199.784 142.484 201.773 142.21 201.773 141.872C201.773 141.534 199.784 141.261 197.329 141.261C194.874 141.261 192.885 141.534 192.885 141.872C192.885 142.21 194.874 142.484 197.329 142.484Z" fill="#374A5E"/>
<path d="M212.464 135.369C212.464 135.369 221.234 106.601 211.092 95.0789C203.518 86.4587 194.894 87.4983 191.04 88.5569C190.042 88.8227 189.114 89.3025 188.32 89.963C187.525 90.6236 186.884 91.4491 186.441 92.3824C185.088 95.2927 185.337 100.017 194.854 105.532C210.79 114.767 211.782 127.434 211.782 127.434L212.464 135.369Z" fill="#374A5E"/>
<path d="M192.411 92.6368C192.411 92.6368 218.261 100.726 212.464 135.369" stroke="#565987" stroke-miterlimit="10"/>
<path d="M207.506 95.5364C207.506 95.5364 203.946 97.9378 205.071 101.544" stroke="#565987" stroke-miterlimit="10"/>
<path d="M195.005 97.6724C195.005 97.6724 197.169 95.4579 199.829 96.6789" stroke="#565987" stroke-miterlimit="10"/>
<path d="M205.222 108.813C205.222 108.813 209.042 106.875 210.029 109.303" stroke="#565987" stroke-miterlimit="10"/>
<path d="M214.677 112.858C214.677 112.858 211.807 112.63 211.755 114.003" stroke="#565987" stroke-miterlimit="10"/>
<path d="M212.818 135.599C212.818 135.599 202.539 114.691 199.728 115.148C198.376 115.365 197.77 116.686 197.491 118.01C197.145 119.724 197.341 121.503 198.051 123.1C199.509 126.446 203.424 132.8 212.818 135.599Z" fill="#374A5E"/>
<path d="M199.804 119.117C199.804 119.117 210.584 134.76 212.667 135.448" stroke="#565987" stroke-miterlimit="10"/>
<path d="M198.814 121.559H201.33" stroke="#565987" stroke-miterlimit="10"/>
<path d="M201.828 127.283L205.772 127.451" stroke="#565987" stroke-miterlimit="10"/>
<path d="M204.227 122.704L203.8 124.759" stroke="#565987" stroke-miterlimit="10"/>
<path d="M208.42 128.961L208.344 130.829" stroke="#565987" stroke-miterlimit="10"/>
<path d="M212.515 135.599C212.515 135.599 222.795 114.691 225.605 115.148C226.958 115.365 227.564 116.686 227.843 118.01C228.189 119.724 227.993 121.503 227.283 123.1C225.825 126.446 221.91 132.8 212.515 135.599Z" fill="#374A5E"/>
<path d="M225.53 119.117C225.53 119.117 214.75 134.76 212.667 135.448" stroke="#565987" stroke-miterlimit="10"/>
<path d="M226.52 121.559H224.004" stroke="#565987" stroke-miterlimit="10"/>
<path d="M223.506 127.283L219.562 127.451" stroke="#565987" stroke-miterlimit="10"/>
<path d="M221.107 122.704L221.534 124.759" stroke="#565987" stroke-miterlimit="10"/>
<path d="M216.911 128.961L216.99 130.829" stroke="#565987" stroke-miterlimit="10"/>
<path d="M194.881 140.484C194.602 140.255 194.398 139.947 194.297 139.601C194.251 139.427 194.267 139.242 194.342 139.078C194.416 138.914 194.544 138.78 194.705 138.699C195.081 138.556 195.481 138.816 195.787 139.081C196.093 139.346 196.439 139.642 196.837 139.587C196.632 139.402 196.48 139.166 196.393 138.904C196.307 138.641 196.29 138.361 196.344 138.09C196.361 137.978 196.408 137.872 196.48 137.784C196.688 137.562 197.067 137.66 197.315 137.833C198.108 138.393 198.33 139.471 198.335 140.44C198.374 140.08 198.374 139.717 198.335 139.357C198.32 139.178 198.348 138.998 198.419 138.832C198.489 138.666 198.599 138.52 198.738 138.407C198.926 138.304 199.138 138.253 199.352 138.261C199.529 138.236 199.71 138.248 199.882 138.297C200.054 138.346 200.213 138.43 200.351 138.545C200.651 138.87 200.572 139.414 200.31 139.772C200.015 140.099 199.666 140.373 199.279 140.584C198.983 140.759 198.73 141 198.541 141.288C198.52 141.328 198.501 141.369 198.487 141.412H196.252C195.756 141.166 195.294 140.853 194.881 140.484Z" fill="#374A5E"/>
<path d="M234.016 132.061C233.736 131.833 233.532 131.525 233.431 131.178C233.386 131.004 233.402 130.82 233.477 130.657C233.551 130.493 233.679 130.36 233.84 130.28C234.216 130.136 234.616 130.396 234.922 130.659C235.227 130.921 235.576 131.222 235.974 131.165C235.769 130.98 235.615 130.744 235.529 130.482C235.442 130.219 235.425 129.939 235.479 129.668C235.495 129.556 235.543 129.451 235.617 129.365C235.825 129.143 236.201 129.237 236.45 129.413C237.243 129.971 237.465 131.038 237.47 132.02C237.51 131.661 237.51 131.297 237.47 130.938C237.455 130.758 237.483 130.578 237.553 130.412C237.624 130.247 237.733 130.101 237.873 129.987C238.062 129.887 238.273 129.837 238.487 129.844C238.663 129.816 238.843 129.826 239.015 129.872C239.187 129.919 239.347 130.002 239.485 130.114C239.788 130.437 239.71 130.981 239.445 131.338C239.151 131.672 238.803 131.952 238.414 132.167C238.118 132.342 237.865 132.583 237.676 132.871C237.653 132.91 237.635 132.952 237.621 132.995H235.387C234.89 132.746 234.429 132.432 234.016 132.061Z" fill="#374A5E"/>
<path d="M220.972 140.484C220.693 140.255 220.489 139.947 220.387 139.601C220.342 139.427 220.358 139.242 220.432 139.078C220.507 138.914 220.635 138.78 220.796 138.699C221.172 138.556 221.572 138.816 221.878 139.081C222.183 139.346 222.53 139.642 222.927 139.587C222.723 139.402 222.57 139.166 222.483 138.904C222.396 138.642 222.379 138.361 222.432 138.09C222.451 137.978 222.499 137.873 222.57 137.784C222.779 137.562 223.157 137.66 223.406 137.833C224.199 138.393 224.421 139.471 224.426 140.44C224.469 140.081 224.474 139.718 224.439 139.357C224.424 139.178 224.453 138.998 224.523 138.832C224.593 138.666 224.703 138.52 224.843 138.407C225.03 138.304 225.243 138.253 225.457 138.261C225.634 138.236 225.814 138.248 225.986 138.297C226.158 138.346 226.318 138.43 226.455 138.545C226.755 138.87 226.677 139.414 226.414 139.772C226.119 140.099 225.771 140.373 225.384 140.584C225.087 140.759 224.835 141 224.645 141.288C224.624 141.328 224.606 141.369 224.591 141.412H222.357C221.855 141.167 221.389 140.854 220.972 140.484Z" fill="#374A5E"/>
<path d="M183.985 123.46C183.985 123.46 183.146 124.556 184.372 126.21C185.597 127.865 186.603 129.264 186.197 130.296C186.197 130.296 184.35 127.223 182.846 127.18C181.342 127.136 182.329 125.309 183.985 123.46Z" fill="#374A5E"/>
<path opacity="0.1" d="M183.985 123.46C183.911 123.565 183.852 123.681 183.812 123.804C182.345 125.528 181.564 127.139 182.973 127.18C184.288 127.218 185.865 129.568 186.241 130.158C186.241 130.204 186.214 130.25 186.197 130.293C186.197 130.293 184.35 127.22 182.846 127.177C181.342 127.134 182.329 125.309 183.985 123.46Z" fill="black"/>
<path d="M182.427 124.857C182.427 125.244 182.47 125.555 182.524 125.555C182.578 125.555 182.619 125.244 182.619 124.857C182.619 124.47 182.565 124.654 182.513 124.654C182.462 124.654 182.427 124.472 182.427 124.857Z" fill="#FFD037"/>
<path d="M181.891 125.317C182.229 125.504 182.527 125.615 182.551 125.569C182.575 125.523 182.324 125.334 181.986 125.149C181.648 124.965 181.78 125.098 181.753 125.149C181.726 125.201 181.553 125.133 181.891 125.317Z" fill="#FFD037"/>
<path d="M188.408 123.46C188.408 123.46 189.246 124.556 188.021 126.21C186.795 127.865 185.789 129.264 186.197 130.296C186.197 130.296 188.042 127.223 189.546 127.18C191.05 127.136 190.063 125.309 188.408 123.46Z" fill="#374A5E"/>
<path opacity="0.1" d="M188.408 123.46C188.482 123.565 188.54 123.681 188.581 123.804C190.047 125.528 190.829 127.139 189.419 127.18C188.105 127.218 186.527 129.568 186.151 130.158C186.164 130.204 186.179 130.249 186.197 130.293C186.197 130.293 188.042 127.22 189.546 127.177C191.05 127.134 190.063 125.309 188.408 123.46Z" fill="black"/>
<path d="M189.966 124.857C189.966 125.244 189.922 125.555 189.868 125.555C189.814 125.555 189.774 125.244 189.774 124.857C189.774 124.47 189.828 124.654 189.879 124.654C189.931 124.654 189.966 124.472 189.966 124.857Z" fill="#FFD037"/>
<path d="M190.501 125.317C190.163 125.504 189.866 125.615 189.841 125.569C189.817 125.523 190.069 125.334 190.407 125.149C190.745 124.965 190.612 125.098 190.639 125.149C190.666 125.201 190.839 125.133 190.501 125.317Z" fill="#FFD037"/>
<path d="M189.698 130.152C189.698 130.152 187.358 130.082 186.652 129.578C185.946 129.075 183.049 128.474 182.865 129.281C182.681 130.087 179.348 133.293 181.988 133.315C184.629 133.336 188.134 132.903 188.838 132.473C189.541 132.042 189.698 130.152 189.698 130.152Z" fill="#A8A8A8"/>
<path opacity="0.2" d="M181.95 133.033C184.593 133.055 188.094 132.621 188.8 132.191C189.341 131.866 189.549 130.691 189.611 130.15H189.687C189.687 130.15 189.541 132.045 188.835 132.47C188.129 132.895 184.631 133.333 181.986 133.312C181.223 133.312 180.96 133.041 180.974 132.632C181.09 132.879 181.382 133.03 181.95 133.033Z" fill="black"/>
<path opacity="0.1" d="M34.8931 22.2407C38.1246 22.2407 40.7443 19.6189 40.7443 16.3848C40.7443 13.1506 38.1246 10.5288 34.8931 10.5288C31.6616 10.5288 29.042 13.1506 29.042 16.3848C29.042 19.6189 31.6616 22.2407 34.8931 22.2407Z" fill="#374A5E"/>
<path opacity="0.1" d="M136.094 12.9979C139.325 12.9979 141.945 10.3761 141.945 7.14194C141.945 3.90778 139.325 1.28598 136.094 1.28598C132.862 1.28598 130.243 3.90778 130.243 7.14194C130.243 10.3761 132.862 12.9979 136.094 12.9979Z" fill="#374A5E"/>
<path opacity="0.1" d="M228.919 36.132C232.151 36.132 234.77 33.5102 234.77 30.2761C234.77 27.0419 232.151 24.4201 228.919 24.4201C225.688 24.4201 223.068 27.0419 223.068 30.2761C223.068 33.5102 225.688 36.132 228.919 36.132Z" fill="#374A5E"/>
<path opacity="0.1" d="M9.80599 79.8934C15.2217 79.8934 19.612 75.4995 19.612 70.0793C19.612 64.6592 15.2217 60.2653 9.80599 60.2653C4.39029 60.2653 0 64.6592 0 70.0793C0 75.4995 4.39029 79.8934 9.80599 79.8934Z" fill="#374A5E"/>
<path opacity="0.1" d="M19.2062 128.355C24.6219 128.355 29.0122 123.961 29.0122 118.541C29.0122 113.12 24.6219 108.727 19.2062 108.727C13.7905 108.727 9.40021 113.12 9.40021 118.541C9.40021 123.961 13.7905 128.355 19.2062 128.355Z" fill="#374A5E"/>
<path opacity="0.1" d="M202.861 85.6086C208.277 85.6086 212.667 81.2147 212.667 75.7945C212.667 70.3743 208.277 65.9804 202.861 65.9804C197.445 65.9804 193.055 70.3743 193.055 75.7945C193.055 81.2147 197.445 85.6086 202.861 85.6086Z" fill="#374A5E"/>
<path d="M121.773 94.1719C121.427 94.2044 121.075 94.1881 120.731 94.2423C120.155 94.3572 119.604 94.5784 119.108 94.8947C116.647 96.2971 114.323 98.2248 113.303 100.867C113.219 101.03 113.193 101.216 113.227 101.395C113.288 101.543 113.387 101.672 113.514 101.769L114.472 102.64C114.593 102.766 114.737 102.867 114.896 102.938C115.155 103.006 115.427 102.997 115.681 102.914C118.313 102.31 121.11 101.614 122.958 99.6434C123.834 98.7094 124.643 97.4234 125.933 97.3882C126.474 97.3882 126.98 97.5967 127.513 97.6589C128.046 97.7212 128.687 97.4938 128.814 96.974C128.855 96.7154 128.826 96.4506 128.728 96.2078L127.932 93.5573C127.716 92.8318 125.533 92.7939 124.805 92.9238C123.696 93.116 122.95 94.0636 121.773 94.1719Z" fill="#65617D"/>
<path d="M131.143 109.103C131.105 110.01 131.178 110.928 131.03 111.826C130.899 112.535 130.672 113.223 130.356 113.87C129.87 114.912 129.251 115.886 128.517 116.77C127.832 117.582 127.013 118.346 125.998 118.665C124.984 118.985 123.737 118.755 123.104 117.899C122.587 117.203 122.563 116.275 122.601 115.406C122.693 113.269 123.028 111.104 123.986 109.192C124.397 108.38 124.919 107.606 125.338 106.785C126.215 105.082 126.715 103.063 128.227 101.888C129.176 102.327 130.19 102.606 131.23 102.714C131.633 102.757 132.785 102.784 132.921 103.301C133.012 103.65 132.255 104.628 132.109 104.971C131.532 106.276 131.204 107.677 131.143 109.103Z" fill="#65617D"/>
<path d="M120.42 70.0577C120.745 70.8861 121.156 71.6983 121.232 72.5809C121.286 73.1224 121.232 73.6638 121.232 74.2053C121.277 74.9472 121.401 75.6822 121.6 76.3982L123.106 82.5709C123.331 83.4941 123.556 84.4417 123.439 85.3839C123.361 86.012 123.134 86.6211 123.136 87.2519C123.165 87.7303 123.241 88.2046 123.363 88.6679C123.649 90.0992 123.571 91.5793 123.136 92.9725C123.092 93.0775 123.076 93.1924 123.09 93.3055C123.128 93.4815 123.299 93.5898 123.453 93.6737C125.075 94.562 126.843 95.1516 128.674 95.4145C130.326 91.4813 131.48 87.3567 132.109 83.1368C132.493 80.5811 132.68 77.9929 133.172 75.4561C133.183 75.3095 133.246 75.1716 133.348 75.0662C133.532 74.9119 133.811 75.0094 134.027 75.1123C136.791 76.4427 139.451 77.9813 141.983 79.7147C142.873 78.561 143.499 77.2255 143.816 75.8027C144.134 74.38 144.135 72.9049 143.819 71.4817C143.501 70.2547 143.048 69.067 142.467 67.9405C141.848 66.5704 141.077 65.2744 140.168 64.0772C138.16 61.5593 135.217 59.9512 132.187 58.8601C130.345 58.1941 128.449 57.7014 126.555 57.1978C125.495 56.9136 123.718 55.9877 122.687 56.7078C121.605 57.4577 120.886 59.3177 120.442 60.4981C119.894 61.9622 119.596 63.5079 119.56 65.0708C119.516 66.7736 119.808 68.4684 120.42 70.0577Z" fill="#3F3D56"/>
<path d="M142.167 77.5001C141.601 78.1174 142.077 79.1028 141.969 79.9367C141.898 80.3132 141.764 80.6749 141.571 81.0061L138.983 86.0932C138.55 86.8566 138.226 87.6767 138.02 88.5298C137.665 90.3654 138.393 92.4283 137.462 94.05C137.162 94.5726 136.697 95.022 136.572 95.6122C136.48 96.0426 136.572 96.492 136.526 96.9279C136.464 97.4396 136.191 97.8999 136.039 98.3926C135.921 98.8661 135.837 99.3474 135.788 99.8329C135.46 101.903 134.376 103.778 132.747 105.096C131.814 105.888 130.615 106.296 129.393 106.238C128.187 106.136 126.988 105.315 126.742 104.129C126.658 103.726 126.674 103.277 126.423 102.949C126.066 102.481 125.314 102.462 124.97 101.983L126.301 99.7896C126.715 99.11 127.137 98.4007 127.205 97.6075C127.286 96.6355 126.818 95.6663 126.986 94.7052C127.129 93.8795 127.721 93.1918 127.9 92.3742C128.122 91.3589 127.678 90.3329 127.437 89.3203C126.848 86.8269 127.508 84.2278 128.165 81.7398C129.039 78.4477 129.934 75.1041 131.703 72.1937C135.233 74.097 138.48 75.9244 142.167 77.5001Z" fill="#3F3D56"/>
<path d="M142.199 25.9308C142.41 26.5048 142.296 27.141 142.256 27.7502C142.161 29.1038 142.448 30.4575 142.383 31.8301C142.318 33.2027 141.896 34.5131 141.604 35.8478C140.773 39.657 140.974 43.626 140.222 47.4514C139.294 52.1893 136.921 56.6022 136.453 61.4104C136.305 62.9374 136.324 64.5726 135.488 65.8613C130.521 63.6731 125.825 60.9128 121.497 57.6364C122.449 50.5676 123.39 43.4635 123.263 36.3324C123.202 35.4727 123.262 34.6087 123.442 33.7659C123.668 33.0579 123.992 32.3853 124.405 31.7678C125.452 30.0649 126.604 28.4297 127.754 26.7972C128.49 25.7521 129.285 24.6557 130.459 24.1657C131.633 23.6756 133.023 23.8949 134.303 24.1277C135.843 24.4093 137.381 24.6909 138.918 24.9724C139.878 25.1484 141.788 24.8127 142.199 25.9308Z" fill="#374A5E"/>
<path d="M105.158 53.0177C104.527 52.3859 103.839 51.814 103.102 51.3094C104.063 50.1399 103.873 48.4478 104.109 46.9506C104.301 45.9781 104.594 45.0282 104.982 44.116C105.08 43.8588 105.218 43.5746 105.485 43.5069C105.65 43.4865 105.817 43.5128 105.967 43.5827C106.778 43.8697 108.472 43.8534 109.102 44.3786C109.862 45.0176 109.167 46.355 108.88 47.1537C108.677 47.6897 105.561 53.4238 105.158 53.0177Z" fill="#BE6F72"/>
<path d="M107.514 103.577C107.922 104.237 108.188 104.975 108.296 105.743C108.361 106.512 108.08 107.354 107.425 107.76C106.77 108.166 105.832 108.031 105.053 107.787C103.4 107.249 101.88 106.368 100.591 105.202C99.302 104.036 98.2736 102.61 97.573 101.019C97.3268 100.45 97.1131 99.8465 96.6776 99.4079C96.3541 99.1233 95.9949 98.8821 95.6091 98.6904C94.546 98.0894 93.5207 97.2989 93.0284 96.178C92.5361 95.0572 92.7579 93.56 93.7777 92.894C94.0955 92.7103 94.4468 92.5917 94.8109 92.5452C95.175 92.4987 95.5447 92.5253 95.8985 92.6233C96.6036 92.8237 97.2787 93.1178 97.9057 93.4978C98.9553 94.069 100.237 94.5618 101.152 95.3225C101.963 95.9912 102.691 96.8955 103.384 97.6833C104.177 98.5897 104.92 99.5387 105.61 100.526C105.832 100.816 107.701 103.315 107.514 103.577Z" fill="#65617D"/>
<path d="M87.6858 97.8945C87.5938 99.2567 87.3535 100.605 86.969 101.915C86.7499 102.651 86.4604 103.417 85.8518 103.886C85.3369 104.22 84.7535 104.434 84.1449 104.511C83.9325 104.569 83.7107 104.583 83.4929 104.552C83.1196 104.473 82.8545 104.151 82.6246 103.845C81.7211 102.649 80.8419 101.384 80.4605 99.9331C79.9195 97.8295 80.4605 95.5743 81.3992 93.6088C81.7366 92.8164 82.2286 92.0994 82.8464 91.4997C83.6097 90.8719 84.5268 90.4597 85.5028 90.3058C86.501 90.1055 87.7264 89.6777 87.7994 90.8933C87.9063 93.2271 87.8683 95.5653 87.6858 97.8945Z" fill="#65617D"/>
<path d="M102.653 47.0074C104.52 47.974 106.592 49.2031 106.981 51.2688C107.222 52.5304 106.76 53.8218 106.835 55.1051C106.903 56.234 107.376 57.3251 107.317 58.4513C107.254 58.9835 107.163 59.5122 107.046 60.0351C106.887 61.0341 106.981 62.0521 106.941 63.0619C106.851 65.3361 106.091 67.5236 105.723 69.768C105.463 71.3706 105.402 72.9993 105.542 74.6168C105.631 75.6619 105.813 76.7015 105.813 77.7519C105.813 78.5084 105.75 79.2636 105.626 80.0098C105.264 82.3543 104.533 84.6267 103.462 86.743C102.161 89.3068 102.345 92.6152 102.483 95.4877C102.543 95.8835 102.492 96.2884 102.337 96.6572C101.996 97.2772 101.146 97.3666 100.443 97.307C97.8349 97.0685 95.416 95.8425 93.6804 93.8795C93.4272 93.6327 93.2554 93.3144 93.188 92.9671C93.1285 92.3878 93.5938 91.9113 93.9292 91.4321C95.0708 89.8077 94.7813 87.6066 94.9166 85.6113C95.0153 84.1597 95.3621 82.7357 95.9418 81.4014C96.2773 80.6298 96.6965 79.8691 96.7723 79.0298C96.8426 78.2474 96.6046 77.4731 96.3692 76.7258L95.5577 74.1485C94.2998 70.1443 93.0338 66.1158 91.1295 62.377C89.88 63.1906 88.9857 64.4485 88.6272 65.8965C87.9185 68.4468 88.9275 71.2949 87.9618 73.7478C87.8019 74.0879 87.6689 74.44 87.5641 74.8009C87.5073 75.1125 87.4855 75.4294 87.4992 75.7458C87.5243 78.3847 87.685 81.0207 87.9807 83.6431C87.9953 84.0403 88.1067 84.4278 88.3053 84.772C88.4649 85.0022 88.6976 85.1727 88.868 85.392C89.3414 86.0066 89.2521 86.8675 89.1385 87.6337L88.5975 91.2561C88.5879 91.4398 88.5269 91.6171 88.4216 91.7678C88.2941 91.8914 88.135 91.9776 87.9618 92.0169C86.2429 92.5511 84.4308 92.7171 82.6436 92.5042C82.1161 92.4419 81.6373 92.0873 81.1963 91.7894C81.1503 91.248 81.8239 90.8879 81.8483 90.3491C81.8221 90.0299 81.6738 89.7332 81.4344 89.5207C80.4281 88.3836 79.227 87.1762 79.2378 85.6573C79.2378 85.2594 79.3325 84.8614 79.319 84.4634C79.2838 83.4427 78.5805 82.5683 78.3343 81.5855C78.0313 80.3699 78.4344 79.1083 78.5886 77.8656C78.7996 76.1925 78.5507 74.4977 78.3181 72.8273L77.4119 66.6979C77.3065 65.7465 77.1183 64.8062 76.8492 63.8877C76.5081 62.9833 76.1078 62.1024 75.6509 61.2507C74.7852 59.491 74.0738 57.6608 73.365 55.8361C73.1398 55.3403 72.9982 54.8106 72.9458 54.2685C72.9052 53.3399 73.384 52.4627 73.9791 51.748C75.0938 50.4198 76.6151 49.4967 78.3073 49.1219C78.5901 49.0429 78.8874 49.0309 79.1756 49.0867C79.418 49.1672 79.6456 49.287 79.8492 49.4413C81.9403 50.8102 84.3197 51.6758 86.801 51.9703C89.2823 52.2648 91.798 51.9802 94.151 51.1388C94.4216 51.3446 94.922 51.2553 95.2331 51.1091C96.1014 50.7111 96.8102 50.0478 97.573 49.4847C98.9932 48.4071 100.908 47.3838 102.653 47.0074Z" fill="#3F3D56"/>
<path d="M46.5845 116.534C46.7282 116.949 46.9443 117.335 47.2229 117.674C48.2022 118.952 49.5683 119.973 50.1986 121.465C50.3311 121.784 50.4285 122.12 50.5502 122.445C50.9204 123.425 51.524 124.3 52.3085 124.995C52.907 125.492 53.5573 125.923 54.2481 126.281C55.4437 126.933 56.7368 127.524 58.0947 127.488C58.3678 127.482 58.6396 127.45 58.9063 127.391C59.3289 127.303 59.7364 127.154 60.1155 126.947C60.9892 126.465 61.7385 125.523 61.5654 124.54C61.5304 124.353 61.4713 124.171 61.3896 123.999C61.2461 123.725 61.0805 123.463 60.8945 123.216C60.4374 122.583 59.9667 121.933 59.2985 121.527C58.5465 121.067 57.5997 120.953 56.9234 120.384C56.6566 120.143 56.4261 119.864 56.239 119.556C55.6261 118.613 55.1694 117.577 54.8865 116.488C54.6809 115.676 54.5429 114.786 53.9505 114.19C53.3581 113.594 52.5439 113.459 51.754 113.324C51.4871 113.268 51.215 113.242 50.9425 113.245C50.5556 113.259 50.1553 113.37 49.7928 113.188C49.4303 113.007 49.3086 112.75 48.8703 112.785C48.5215 112.832 48.1927 112.975 47.9209 113.199C46.8929 113.96 46.2112 115.313 46.5845 116.534Z" fill="#3F3D56"/>
<path d="M56.1958 117.766C56.3716 118.684 56.6421 119.661 57.3509 120.26C57.8026 120.65 58.4329 120.893 58.6574 121.443C58.8819 121.992 58.5925 122.683 58.2192 123.186C57.7426 123.823 57.1518 124.366 56.4771 124.786C55.9036 125.141 55.2192 125.412 54.5619 125.255C54.0209 125.128 53.5935 124.738 53.1904 124.361C52.2653 123.503 51.3185 122.612 50.7991 121.462C50.2581 120.249 50.231 118.844 49.6413 117.65C49.2978 116.954 48.7676 116.345 48.5593 115.598C48.4659 115.328 48.4659 115.034 48.5593 114.764C48.6602 114.571 48.8128 114.409 49 114.298C49.1873 114.186 49.4019 114.129 49.6197 114.133C50.0552 114.148 50.4848 114.239 50.8884 114.404C52.1096 114.839 53.3597 115.19 54.6295 115.452C55.1354 115.546 55.4411 115.544 55.7116 116.034C55.9615 116.583 56.1248 117.167 56.1958 117.766Z" fill="#FBBEBE"/>
<path d="M59.3337 125.526C59.1331 125.833 58.991 126.174 58.9144 126.533C58.8505 126.812 58.8404 127.1 58.8846 127.383C59.3073 127.295 59.7147 127.145 60.0938 126.939C60.9675 126.457 61.7169 125.515 61.5437 124.532C61.5088 124.345 61.4497 124.163 61.3679 123.991C61.2388 123.962 61.1044 123.967 60.9781 124.007C60.8518 124.046 60.7381 124.118 60.6483 124.215C60.1446 124.581 59.701 125.023 59.3337 125.526Z" fill="#FBBEBE"/>
<path d="M49.6386 104.955C49.5209 105.209 49.4859 105.493 49.5385 105.767C49.663 106.309 50.2175 106.62 50.718 106.867L55.4762 109.195C55.8063 109.348 56.1278 109.519 56.4393 109.707C57.2508 110.205 57.8892 110.909 58.5817 111.553C59.2742 112.197 60.0452 112.801 60.9622 113.028C61.8776 113.229 62.8344 113.104 63.6673 112.674C64.1161 112.45 64.5328 112.167 64.9062 111.832C65.2294 111.548 65.5281 111.237 65.7989 110.903C66.0316 110.657 66.1981 110.356 66.2831 110.029C66.3724 109.533 66.1262 109.046 65.8395 108.637C65.6744 108.401 65.4936 108.177 65.2985 107.966C63.4942 105.97 60.5375 104.936 57.9947 104.53C56.983 104.368 56.0227 103.989 55.0488 103.68C54.075 103.371 53.0444 103.139 52.0326 103.282C51.0209 103.426 50.0255 104.008 49.6386 104.955Z" fill="#3F3D56"/>
<path opacity="0.1" d="M49.6386 104.955C49.5209 105.209 49.4859 105.493 49.5385 105.767C49.663 106.309 50.2175 106.62 50.718 106.867L55.4762 109.195C55.8063 109.348 56.1278 109.519 56.4393 109.707C57.2508 110.205 57.8892 110.909 58.5817 111.553C59.2742 112.197 60.0452 112.801 60.9622 113.028C61.8776 113.229 62.8344 113.104 63.6673 112.674C64.1161 112.45 64.5328 112.167 64.9062 111.832C65.2294 111.548 65.5281 111.237 65.7989 110.903C66.0316 110.657 66.1981 110.356 66.2831 110.029C66.3724 109.533 66.1262 109.046 65.8395 108.637C65.6744 108.401 65.4936 108.177 65.2985 107.966C63.4942 105.97 60.5375 104.936 57.9947 104.53C56.983 104.368 56.0227 103.989 55.0488 103.68C54.075 103.371 53.0444 103.139 52.0326 103.282C51.0209 103.426 50.0255 104.008 49.6386 104.955Z" fill="black"/>
<path d="M61.5465 106.442C61.9123 106.853 62.2133 107.317 62.4391 107.82C62.6423 108.148 62.7147 108.542 62.642 108.921C62.5357 109.177 62.3651 109.401 62.147 109.571L61.6736 110.01C61.5306 110.159 61.3643 110.283 61.1813 110.378C60.9223 110.475 60.6458 110.517 60.3697 110.5C59.734 110.5 59.0496 110.5 58.533 110.118C57.8269 109.609 57.6998 108.556 58.0217 107.746C58.3436 106.937 59.0172 106.325 59.6962 105.778C60.248 105.332 61.1596 106.033 61.5465 106.442Z" fill="#FBBEBE"/>
<path d="M64.4355 109.241C64.3479 109.69 64.3902 110.155 64.5572 110.581C64.6762 110.987 64.7926 111.393 64.9089 111.807C64.9089 111.807 64.9089 111.807 64.9089 111.824C65.2321 111.54 65.5307 111.229 65.8016 110.895C66.0342 110.649 66.2008 110.348 66.2858 110.021C66.3751 109.525 66.1289 109.038 65.8422 108.629C65.677 108.393 65.4963 108.169 65.3011 107.958C65.174 108.123 65.0631 108.285 64.9711 108.391C64.7344 108.633 64.5518 108.923 64.4355 109.241Z" fill="#FBBEBE"/>
<path d="M52.0056 89.0631C51.4456 91.4185 51.6837 93.8822 51.9812 96.2863C52.2085 98.1165 52.4627 100.012 51.9217 101.774C51.7215 102.432 51.4051 103.101 51.5268 103.78C51.7567 105.061 53.2986 105.553 54.5754 105.794C54.9438 105.888 55.3265 105.911 55.7034 105.862C56.0816 105.759 56.4325 105.574 56.7314 105.321C58.5463 104 59.9247 102.166 60.689 100.055C61.1732 98.6417 61.3274 97.1391 61.4761 95.6528C61.725 93.1512 61.9766 90.6199 61.6114 88.1345C61.5032 87.4035 61.3409 86.6807 61.2733 85.9443C61.1881 84.6635 61.259 83.3771 61.4843 82.1134C61.9501 78.9829 62.6555 75.8929 63.5942 72.8706C61.0183 73.2129 58.4 72.7395 56.1065 71.5169C56.5502 71.7552 56.0416 75.5535 55.9875 76.0869C55.8234 77.6769 55.5367 79.2519 55.13 80.7976C54.3752 83.6864 52.69 86.1934 52.0056 89.0631Z" fill="#3F3D56"/>
<path opacity="0.1" d="M52.0056 89.0631C51.4456 91.4185 51.6837 93.8822 51.9812 96.2863C52.2085 98.1165 52.4627 100.012 51.9217 101.774C51.7215 102.432 51.4051 103.101 51.5268 103.78C51.7567 105.061 53.2986 105.553 54.5754 105.794C54.9438 105.888 55.3265 105.911 55.7034 105.862C56.0816 105.759 56.4325 105.574 56.7314 105.321C58.5463 104 59.9247 102.166 60.689 100.055C61.1732 98.6417 61.3274 97.1391 61.4761 95.6528C61.725 93.1512 61.9766 90.6199 61.6114 88.1345C61.5032 87.4035 61.3409 86.6807 61.2733 85.9443C61.1881 84.6635 61.259 83.3771 61.4843 82.1134C61.9501 78.9829 62.6555 75.8929 63.5942 72.8706C61.0183 73.2129 58.4 72.7395 56.1065 71.5169C56.5502 71.7552 56.0416 75.5535 55.9875 76.0869C55.8234 77.6769 55.5367 79.2519 55.13 80.7976C54.3752 83.6864 52.69 86.1934 52.0056 89.0631Z" fill="black"/>
<path d="M66.0505 75.2611C67.1325 78.3989 66.8944 81.8264 66.4265 85.1131C65.9585 88.3998 65.2687 91.6865 65.4716 94.9976C65.55 96.2971 65.761 97.6318 65.3823 98.8745C65.1718 99.4808 64.8932 100.061 64.5518 100.604L55.9199 115.544C55.6998 115.931 55.3867 116.258 55.0089 116.494C54.6311 116.731 54.2004 116.869 53.7558 116.897C52.8333 116.962 51.9271 116.659 51.0669 116.321C50.4953 116.131 49.9641 115.836 49.5006 115.451C49.2709 115.26 49.0909 115.016 48.9759 114.739C48.861 114.463 48.8146 114.163 48.8406 113.865C49.2274 111.271 49.809 108.615 50.2391 106.014C50.5317 104.248 51.1697 102.558 52.1165 101.04C52.7846 99.9574 53.607 98.9855 54.1832 97.8592C55.8387 94.6321 55.2652 90.6956 53.9884 87.3006C52.7116 83.9056 50.8099 80.7543 49.7955 77.2835C49.4948 76.3177 49.3229 75.3163 49.2842 74.3054C49.2717 73.2615 49.465 72.2254 49.8531 71.2563C50.2411 70.2873 50.8163 69.4043 51.5457 68.6579C51.7586 68.4167 52.0269 68.2308 52.3275 68.1165C52.6789 68.0349 53.045 68.0414 53.3933 68.1354C58.2003 69.0695 64.4626 70.6262 66.0505 75.2611Z" fill="#3F3D56"/>
<path d="M143.641 28.4161C143.798 29.602 143.37 30.8013 142.762 31.8274C140.46 35.6718 135.152 37.372 131.049 35.5825C129.358 34.8434 127.927 33.6251 126.526 32.423C126.055 32.0169 125.565 31.5918 125.327 31.0179C124.908 30.0026 125.414 28.7925 126.239 28.0669C127.064 27.3413 128.133 26.984 129.196 26.6618C132.704 25.568 142.805 22.1189 143.641 28.4161Z" fill="#FBBEBE"/>
<path d="M141.588 24.653C144.782 27.2249 149.432 29.6751 153.052 31.581C154.283 32.2308 155.649 32.9618 156.092 34.2884C156.33 34.9977 156.252 35.7693 156.174 36.5165C156.022 37.9541 155.865 39.4134 155.311 40.7481C154.659 42.3102 153.506 43.5989 152.581 45.0175C150.958 47.5029 150.006 50.4322 148.001 52.6278C149.354 57.1247 150.834 61.6162 151.315 66.2836C151.342 66.412 151.328 66.5455 151.275 66.6654C151.219 66.7442 151.147 66.8098 151.064 66.8576L147.698 69.0668C147.332 69.2811 147.003 69.5556 146.727 69.879C146.132 70.6533 146.211 71.7416 145.843 72.6432C145.641 73.0832 145.353 73.4779 144.995 73.8036C144.637 74.1293 144.217 74.3792 143.76 74.5383C142.84 74.8555 141.861 74.9591 140.895 74.8415C139.666 74.7641 138.482 74.347 137.476 73.6368C136.618 72.987 136.007 72.0746 135.417 71.1758C134.98 70.5627 134.617 69.9003 134.335 69.2021C133.976 68.2058 133.954 67.1202 133.967 66.0589C133.976 64.0394 134.169 62.025 134.544 60.0405C134.701 59.2527 134.895 58.4757 135.02 57.6824C135.269 56.0851 135.22 54.4553 135.404 52.8499C135.655 51.0441 136.058 49.2627 136.608 47.5245C136.908 46.4479 137.143 45.3539 137.311 44.2487C137.627 42.3048 138.258 40.4286 138.888 38.5633L139.97 35.3659C140.2 34.6755 140.433 33.9879 140.706 33.3137C141.214 32.0548 141.869 30.8284 142.042 29.4856C142.234 28.0209 140.654 26.2828 141.187 24.9075C141.231 24.7558 141.466 24.5555 141.588 24.653Z" fill="#3F3D56"/>
<path d="M155.227 33.5331C155.976 33.8715 156.39 34.6783 156.658 35.458C157.261 37.2152 157.407 39.0976 157.08 40.9268C156.974 41.3866 156.902 41.8535 156.863 42.3238C156.869 42.8689 156.922 43.4124 157.023 43.9482C157.293 46.0193 157.023 48.1229 157.112 50.213C157.204 52.5629 157.715 55.0456 156.731 57.1816C156.076 58.6003 154.837 59.6561 153.615 60.6145C149.062 64.1653 144.04 67.0663 138.691 69.2347C139.613 68.1247 139.629 66.4543 139.015 65.1466C138.401 63.839 137.26 62.8562 136.04 62.0927C137.592 61.7473 139.096 61.2099 140.516 60.4927C143.351 59.0524 145.781 56.9434 148.18 54.856C148.534 54.6013 148.809 54.2524 148.975 53.8489C149.219 53.0367 148.548 52.2651 148.083 51.5531C146.673 49.3872 147.001 46.5581 147.59 44.0511C148.248 41.3031 149.213 38.566 150.974 36.3568C152.073 34.9761 153.506 33.9148 155.227 33.5331Z" fill="#3F3D56"/>
<path d="M138.452 69.3023C138.209 69.699 137.894 70.0462 137.522 70.3257C136.71 70.8672 135.596 70.6614 134.69 70.277C133.847 69.9195 133.07 69.4245 132.39 68.8123C132.098 68.5012 131.753 68.2445 131.37 68.0542C130.662 67.7835 129.672 67.9866 129.274 67.3341C129.228 67.2656 129.205 67.1839 129.209 67.1013C129.233 66.8657 129.542 66.8008 129.78 66.7872C130.884 66.7141 131.956 66.3831 132.91 65.8207C132.605 65.6004 132.345 65.3249 132.141 65.0085C132.057 64.8981 132.012 64.763 132.012 64.6241C132.045 64.4731 132.128 64.3377 132.247 64.2396C133.116 63.4183 134.211 62.8747 135.39 62.678C136.569 62.4813 137.78 62.6404 138.869 63.135C139.082 63.2211 139.268 63.361 139.41 63.5411C139.51 63.7072 139.577 63.891 139.608 64.0826C139.783 64.8407 140.419 65.9777 140.189 66.7439C139.935 67.6238 138.975 68.5578 138.452 69.3023Z" fill="#FBBEBE"/>
<path d="M120.006 65.8884C123.372 61.9979 124.876 56.8784 126.271 51.9267L127.27 48.4071L129.677 39.9305C130.031 38.6797 130.386 37.4289 130.621 36.1537C131.024 33.9527 131.062 31.7029 131.038 29.4666C131.003 28.5396 130.791 27.6278 130.413 26.7809C130.178 26.1962 130.064 25.5735 129.872 24.9697C129.628 24.128 129.262 23.3264 128.787 22.59C128.655 22.3711 128.49 22.1738 128.298 22.0052C127.965 21.7788 127.588 21.6256 127.191 21.5558C126.331 21.2999 125.44 21.1641 124.543 21.1524C123.645 21.1849 122.72 21.4962 122.141 22.1785C121.7 22.701 121.497 23.3778 121.148 23.9653C120.985 24.2059 120.838 24.4563 120.707 24.7153C120.558 25.1086 120.476 25.524 120.464 25.9444C120.323 27.65 120.203 29.3574 120.104 31.0667C120.058 31.8437 120.017 32.6261 120.047 33.4058C120.071 34.0122 120.136 34.616 120.201 35.2197L120.842 41.1325C120.991 42.5214 120.886 43.8209 121.01 45.2125C121.313 48.5723 120.591 51.9321 119.849 55.2296C119.495 56.7971 119.13 58.3864 118.372 59.805C117.704 61.0612 116.703 62.3364 116.969 63.736C117.061 64.2234 117.307 64.6782 117.345 65.1709C117.326 65.4761 117.356 65.7822 117.434 66.0779C117.544 66.279 117.716 66.4397 117.923 66.5371C118.131 66.6344 118.364 66.6632 118.589 66.6194C119.125 66.5252 119.619 66.2703 120.006 65.8884Z" fill="#3F3D56"/>
<path d="M120.418 50.3185C120.52 51.0955 120.442 51.8833 120.48 52.6657C120.565 53.6734 120.746 54.6707 121.021 55.6438C121.291 56.7267 121.638 57.9396 122.592 58.5406C122.832 58.6652 123.061 58.8091 123.277 58.9711C123.383 59.0551 123.461 59.1695 123.501 59.2992C123.541 59.4288 123.54 59.5675 123.499 59.6967L122.755 59.5721C122.839 59.6367 122.909 59.7184 122.96 59.8119C123.01 59.9053 123.041 60.0084 123.049 60.1144C123.057 60.2205 123.043 60.327 123.007 60.4271C122.971 60.5272 122.914 60.6186 122.841 60.6953C122.767 60.772 122.678 60.8323 122.58 60.8722C122.481 60.9122 122.376 60.9309 122.269 60.9271C122.163 60.9233 122.059 60.8971 121.964 60.8502C121.868 60.8033 121.784 60.7368 121.716 60.6551C121.744 60.899 121.721 61.1461 121.648 61.3806C121.611 61.4957 121.539 61.5964 121.442 61.669C121.345 61.7417 121.228 61.7828 121.107 61.7867C120.967 61.7649 120.834 61.7092 120.721 61.6243L118.778 60.4195C118.196 60.106 117.712 59.6375 117.38 59.0659L116.53 57.7853C116.343 57.5385 116.194 57.2646 116.089 56.9731C115.773 55.8902 116.657 54.6881 116.198 53.6674C116.059 53.4159 115.897 53.1783 115.713 52.9581C114.731 51.6045 114.794 49.7635 114.902 48.0849C114.937 47.5191 115.04 46.8477 115.551 46.6013C115.957 46.4037 116.444 46.5796 116.82 46.826C117.196 47.0724 117.528 47.3973 117.956 47.5434C118.226 47.6355 118.524 47.6463 118.794 47.7438C119.173 47.8765 119.525 48.3936 119.779 48.6995C120.139 49.169 120.36 49.7298 120.418 50.3185Z" fill="#FBBEBE"/>
<path d="M96.7127 25.9877C96.483 26.5156 96.1605 26.9979 95.7605 27.4118C95.5596 27.6186 95.3129 27.7753 95.0404 27.8693C94.768 27.9634 94.4772 27.9921 94.1916 27.9532C93.5911 27.8341 93.1501 27.3387 92.7525 26.8703C91.7137 25.6493 90.6614 24.412 89.9635 22.9663C88.8977 20.7653 88.7273 18.2529 88.5731 15.8135C88.5352 15.1854 88.5028 14.5194 88.803 13.9699C89.1845 13.2687 89.9933 12.9384 90.7399 12.6595L94.8652 11.1163C95.118 10.9965 95.3978 10.9451 95.6767 10.9674C96.3232 11.0757 96.5613 11.8554 96.7371 12.4862C97.0518 13.6198 97.5747 14.6848 98.279 15.6267C99.2041 16.8613 101.279 18.5236 100.094 20.0641C98.6631 21.9105 97.7542 23.9031 96.7127 25.9877Z" fill="#BE6F72"/>
<path d="M101.99 18.9432C103.797 20.6434 104.409 23.2912 104.322 25.7684C104.236 28.2456 103.549 30.6606 103.156 33.108C102.764 35.5554 102.686 38.168 103.749 40.4178C104.114 41.1894 104.612 41.9041 104.866 42.719C105.079 43.5244 105.151 44.3607 105.08 45.1908C105.075 46.0659 104.908 46.9325 104.587 47.7465C104.011 49.0244 102.826 49.9124 101.693 50.7246C99.38 52.3977 97.0211 54.0979 94.3052 54.9724C92.4657 55.5653 90.5181 55.7603 88.592 55.8658C87.288 55.9699 85.9765 55.9326 84.6805 55.7548C82.4133 55.3767 80.3298 54.2728 78.7428 52.6089C78.4662 52.3407 78.2383 52.0265 78.0692 51.6803C77.9039 51.2298 77.8241 50.7523 77.8339 50.2725C77.7689 48.4947 77.7797 46.7169 77.8663 44.939C77.916 43.2448 78.1491 41.5609 78.5615 39.9169C79.0782 38.0218 79.9736 36.2458 80.6526 34.3994C83.0168 27.9803 82.7788 20.6759 86.0628 14.6819C86.7715 13.3878 87.9563 12.026 89.4171 12.2317C89.6981 12.2487 89.9626 12.3704 90.1583 12.5729C90.3261 12.8193 90.42 13.1086 90.4288 13.4067C90.7778 16.3198 91.2728 19.3087 92.6443 21.9375C93.1853 22.969 93.9968 24.5393 95.2439 24.8154C96.4909 25.0916 97.2267 23.9004 97.8949 23.0557C99.069 21.5067 100.447 20.1234 101.99 18.9432Z" fill="#E3E8F4"/>
<path d="M110.639 14.5601C111.007 14.7594 111.351 15.0011 111.664 15.2802C112.475 16.0491 112.773 17.2268 112.768 18.3422C112.762 19.4576 112.497 20.5568 112.335 21.6614C111.899 24.6395 112.27 27.6879 112.443 30.7039C112.496 31.1908 112.466 31.6832 112.356 32.1604C112.224 32.6153 111.951 33.0159 111.775 33.4572C111.258 34.7622 111.648 36.2512 111.345 37.6211C111.02 39.0804 109.908 40.407 110.117 41.8879C110.2 42.4672 110.479 43.0006 110.598 43.5745C110.717 44.1485 110.614 44.8416 110.119 45.1502C109.624 45.4588 108.905 45.2341 108.315 45.4047C108.075 45.4932 107.842 45.5981 107.617 45.7187C106.705 46.1303 105.618 45.9895 104.72 45.5401C103.84 45.0592 103.048 44.4311 102.38 43.6828C101.349 42.627 100.351 41.4709 99.8994 40.0658C99.2393 38.0299 99.8263 35.8126 100.543 33.7929C101.26 31.7733 102.115 29.7319 101.988 27.585C101.917 26.383 101.539 25.2269 101.311 24.0466C101.03 22.4111 100.929 20.7496 101.011 19.0921C101.046 17.8792 101.127 16.6285 101.65 15.532C102.022 14.8006 102.571 14.1744 103.248 13.7108C103.925 13.2473 104.707 12.9612 105.523 12.8788C107.417 12.673 109.04 13.6396 110.639 14.5601Z" fill="#3F3D56"/>
<path opacity="0.1" d="M105.523 40.7291C105.542 41.5954 105.697 42.4533 105.983 43.2713C106.467 42.1667 106.524 40.9267 106.589 39.7247C106.86 35.5852 107.777 31.6812 108.753 27.6716C108.042 28.2131 107.641 29.5668 107.3 30.379C105.948 33.6542 105.341 37.1898 105.523 40.7291Z" fill="black"/>
<path d="M87.2882 11.8852C85.9843 12.229 84.8536 13.0033 83.5903 13.5096C82.2783 14.0511 80.8663 14.2812 79.4894 14.6142C76.3028 15.3885 73.1026 16.8261 71.1793 19.4874C69.7618 21.4448 69.1748 23.8624 68.2037 26.0798C67.3922 27.9397 66.3101 29.6832 65.7123 31.619C64.9305 34.1449 65.0198 36.8522 65.2119 39.4892C65.3688 41.655 65.6068 43.8453 66.5888 45.7648C67.1027 46.7719 67.8115 47.6734 68.3254 48.6806C68.9422 49.8907 69.2668 51.2255 69.7808 52.4708C70.2948 53.7162 71.0495 54.9616 72.2424 55.6113L74.2171 54.4553C77.163 52.7307 80.1089 51.0035 82.9627 49.13C85.4514 47.5056 87.9618 45.6402 89.2873 42.9708C90.4613 40.6127 90.5776 37.8567 90.2746 35.2387C89.9716 32.6207 89.2791 30.0595 88.9221 27.4497C88.4672 24.1648 88.5357 20.8286 89.1249 17.5652C89.3955 16.0924 90.115 14.5709 90.2638 13.1035C90.4288 11.536 88.4162 11.5874 87.2882 11.8852Z" fill="#3F3D56"/>
<path d="M75.0801 54.9237C76.5922 56.3559 78.7671 56.7728 80.658 57.631C82.0629 58.2839 83.3279 59.2033 84.3829 60.3383C84.9645 60.9773 85.5272 61.8463 85.235 62.6585C84.9888 63.357 84.2341 63.7144 83.5416 63.9743C82.6814 64.2992 81.7211 64.5862 80.8636 64.2586C80.3604 64.0663 79.9546 63.6819 79.4921 63.4085C78.3586 62.7343 76.9304 62.7316 75.7672 62.1089C74.1279 61.2318 73.3109 59.3014 71.769 58.2591C70.925 57.6906 69.7591 57.2249 69.6726 56.2097C69.6686 55.8425 69.7462 55.4791 69.8998 55.1457C70.2109 54.3172 70.7411 51.4718 71.9259 51.5476C73.2162 51.6316 74.1198 54.2387 75.0801 54.9237Z" fill="#FBBEBE"/>
<path d="M67.1568 42.2344C67.6519 44.0158 68.8015 45.5346 69.9945 46.9479C70.852 47.9631 71.7934 49.0677 71.8231 50.397C71.8502 51.6532 71.0116 52.8092 69.9296 53.4509C68.8475 54.0925 67.5734 54.2983 66.3209 54.3795C65.319 54.476 64.308 54.4056 63.3291 54.171C60.8566 53.4996 59.1416 51.3419 57.1967 49.6742C56.0416 48.686 54.7431 47.825 53.8586 46.5878C52.974 45.3505 52.6007 43.5745 53.4717 42.3265C53.786 41.9219 54.1495 41.5581 54.5538 41.2435C56.031 39.9616 57.2908 38.4484 58.2841 36.7629C58.6845 36.0833 59.0686 35.3469 59.7422 34.9381C60.7079 34.3506 61.9468 34.6187 63.0397 34.9057C64.2272 35.217 67.5734 35.8261 67.8061 37.3423C67.9007 37.9649 67.1298 38.9342 67.0135 39.6029C66.8654 40.4798 66.9144 41.3788 67.1568 42.2344Z" fill="#FBBEBE"/>
<path d="M73.2731 45.6294C73.6274 46.2722 73.9191 46.9476 74.1441 47.6464C74.9692 50.5162 73.4949 53.4726 72.7915 56.3748C71.8935 60.092 72.2749 63.9797 72.2316 67.8052C72.2127 69.5541 72.026 71.479 70.7681 72.6919C70.4435 73.0006 70.054 73.2605 69.8349 73.6503C69.6995 73.936 69.5986 74.2368 69.5346 74.5464C69.3425 75.2154 69.0019 75.8322 68.5382 76.3509C68.0744 76.8695 67.4995 77.2766 66.8565 77.5416C66.2135 77.8066 65.5189 77.9228 64.8247 77.8814C64.1305 77.84 63.4546 77.6421 62.8476 77.3025C61.8224 76.7313 60.9324 75.7404 59.7584 75.7106C59.3892 75.7284 59.0215 75.7691 58.6574 75.8324C57.4888 75.9488 56.3445 75.5157 55.249 75.0906C54.9875 75.008 54.7435 74.8776 54.5294 74.7062C54.3319 74.5248 54.2048 74.2811 54.0236 74.0862C53.3554 73.366 52.2138 73.4906 51.2508 73.2902C50.5323 73.1293 49.8743 72.7672 49.3537 72.2461C48.833 71.725 48.4712 71.0665 48.3104 70.3474C48.1156 69.416 48.2806 68.4522 48.4429 67.5128L49.1679 63.3273C49.4721 61.792 49.6826 60.2396 49.7982 58.6788C49.8871 56.9148 49.736 55.147 49.3491 53.4238C49.0299 52.016 48.5538 50.638 48.3807 49.2031C48.079 46.6315 48.755 44.0405 50.2743 41.9447C50.6503 41.4276 51.1426 40.9105 51.781 40.8618C52.2977 40.8158 52.7819 41.0919 53.231 41.3572C57.1317 43.6675 61.0595 45.9299 65.0144 48.1445C66.0964 48.7537 67.2028 49.3655 68.4093 49.666C68.7718 49.7581 69.2911 49.7202 69.3425 49.352C69.349 49.2116 69.3122 49.0727 69.237 48.954C68.5608 47.6518 67.5815 46.5337 66.8025 45.2937C66.0234 44.0537 65.4228 42.5864 65.6528 41.1461C65.9666 39.1535 67.8169 37.835 69.329 39.3971C71.0251 41.1704 72.1613 43.45 73.2731 45.6294Z" fill="#374A5E"/>
<path d="M61.1596 70.8969C64.3327 71.1 67.5761 71.3166 70.5138 72.5349C71.4579 72.9247 72.4588 73.4283 73.4516 73.1874C73.9457 73.0369 74.4053 72.7903 74.8041 72.4618C76.0272 71.5642 77.1827 70.5779 78.2613 69.5108C78.1531 68.9179 77.3496 68.8367 76.7491 68.8421C75.2848 68.8508 73.8403 68.5033 72.54 67.8295C72.1125 67.5723 71.6592 67.3608 71.1874 67.1987C69.9025 66.8441 68.5932 67.5209 67.3029 67.8512C65.3931 68.3385 63.3805 68.0542 61.4301 67.7673L56.166 66.9903C55.6764 66.9199 55.1245 66.863 54.735 67.1662C54.4746 67.4125 54.2961 67.7329 54.2237 68.084C53.5799 70.2499 53.8883 70.4313 56.0307 70.5666L61.1596 70.8969Z" fill="#FBBEBE"/>
<path opacity="0.1" d="M133.04 33.3083C137.82 33.3083 141.696 29.4296 141.696 24.6449C141.696 19.8602 137.82 15.9814 133.04 15.9814C128.259 15.9814 124.383 19.8602 124.383 24.6449C124.383 29.4296 128.259 33.3083 133.04 33.3083Z" fill="black"/>
<path d="M132.977 32.932C137.758 32.932 141.634 29.0532 141.634 24.2685C141.634 19.4838 137.758 15.605 132.977 15.605C128.197 15.605 124.321 19.4838 124.321 24.2685C124.321 29.0532 128.197 32.932 132.977 32.932Z" fill="#FBBEBE"/>
<path d="M140.284 13.2686C140.976 13.6964 141.701 14.1566 142.08 14.8768C142.284 15.3657 142.439 15.8735 142.543 16.3929C143.016 18.0173 144.277 19.4278 144.352 21.1199C144.436 22.9744 143.046 24.5853 141.471 25.5572C141.112 25.8223 140.679 25.9681 140.232 25.9741C139.775 25.9444 139.38 25.6574 138.961 25.4733C137.184 24.6827 135.195 25.6845 133.313 26.1447C131.356 26.6176 129.303 26.4969 127.416 25.7982C126.401 25.4191 125.417 24.8506 124.781 23.9707C124.145 23.0908 123.918 21.859 124.459 20.9141C124.729 20.4322 125.179 19.9963 125.149 19.4468C125.133 19.1165 124.938 18.8187 124.878 18.4938C124.792 17.9767 125.062 17.4731 125.338 17.0318C126.59 15.0155 128.172 13.2244 130.018 11.7336C130.559 11.2896 131.184 10.8564 131.893 10.8239C133.315 10.7616 134.538 11.8229 136.002 11.8283C137.663 11.8337 138.856 12.386 140.284 13.2686Z" fill="#3F3D56"/>
<path opacity="0.1" d="M101.111 22.4384C106.041 22.4384 110.038 18.4384 110.038 13.5042C110.038 8.56995 106.041 4.56998 101.111 4.56998C96.1811 4.56998 92.1844 8.56995 92.1844 13.5042C92.1844 18.4384 96.1811 22.4384 101.111 22.4384Z" fill="black"/>
<path d="M101.268 22.2191C106.198 22.2191 110.195 18.2191 110.195 13.2849C110.195 8.35065 106.198 4.35068 101.268 4.35068C96.338 4.35068 92.3413 8.35065 92.3413 13.2849C92.3413 18.2191 96.338 22.2191 101.268 22.2191Z" fill="#BE6F72"/>
<path d="M106.037 18.3313C107.298 19.038 108.853 18.9649 110.26 18.6427C111.058 18.4926 111.814 18.1732 112.478 17.706C112.808 17.4701 113.08 17.1623 113.273 16.8059C113.467 16.4494 113.577 16.0536 113.595 15.6484C113.595 14.7414 113 13.9238 112.927 13.0169C112.838 11.8744 113.582 10.8185 113.66 9.67059C113.739 8.52268 113.173 7.48848 112.621 6.50301C111.672 4.81093 110.685 3.09718 109.24 1.80308C107.796 0.508974 105.794 -0.316762 103.9 0.119118C102.97 0.332998 102.107 0.833854 101.157 0.931318C100.313 1.00983 99.4801 0.755342 98.6388 0.647048C97.7975 0.538755 96.8534 0.606438 96.2502 1.18852C95.9202 1.51339 95.7092 1.97093 95.3224 2.20918C95.0601 2.33027 94.7887 2.43075 94.5108 2.50969C93.5343 2.90226 93.0879 4.00414 92.7417 4.99502L90.4207 11.6524C91.1971 12.1938 92.133 12.4402 92.9824 12.8571C93.8319 13.274 94.6569 13.9401 94.83 14.8714C94.9626 15.578 94.711 16.3902 95.1222 16.9804C95.4982 17.5219 96.2637 17.6139 96.913 17.5219C97.5622 17.4298 98.2141 17.2051 98.8633 17.3053C100.486 17.5516 101.09 18.5479 102.591 17.3053C104.092 16.0626 104.641 17.5462 106.037 18.3313Z" fill="#3F3D56"/>
<path opacity="0.1" d="M63.3318 41.5549C67.8138 41.5549 71.4471 37.9185 71.4471 33.4329C71.4471 28.9472 67.8138 25.3109 63.3318 25.3109C58.8498 25.3109 55.2165 28.9472 55.2165 33.4329C55.2165 37.9185 58.8498 41.5549 63.3318 41.5549Z" fill="black"/>
<path d="M63.6456 41.1136C68.1276 41.1136 71.7609 37.4772 71.7609 32.9916C71.7609 28.5059 68.1276 24.8696 63.6456 24.8696C59.1637 24.8696 55.5303 28.5059 55.5303 32.9916C55.5303 37.4772 59.1637 41.1136 63.6456 41.1136Z" fill="#FBBEBE"/>
<path d="M69.8592 25.051C67.9271 23.5674 65.7562 22.4248 63.44 21.6722C61.9576 21.1903 60.3454 20.86 58.8414 21.304C56.8017 21.8861 54.0723 22.7551 52.809 24.4635C52.1868 25.3027 51.5565 26.1664 51.2563 27.1708C50.6557 29.1905 51.5105 31.3428 51.4537 33.4491C51.3861 35.9047 50.085 38.1463 48.6648 40.1498C47.2446 42.1532 46.9579 45.023 46.1193 47.335C45.8325 48.1283 45.7406 49.2302 46.4791 49.6281C47.1283 49.9882 47.9128 49.5388 48.5133 49.1056L52.1246 46.493C52.4053 46.2621 52.7289 46.0891 53.0768 45.9841C53.8207 45.8108 54.5484 46.2765 55.1705 46.7178L62.7448 52.0783C62.8945 51.7724 62.9753 51.4373 62.9814 51.0967C62.9874 50.7561 62.9187 50.4184 62.78 50.1073C63.4914 50.3266 64.0081 50.9195 64.633 51.3419C65.2578 51.7642 66.2073 51.9023 66.6618 51.3121C67.1163 50.7219 66.7727 49.9287 66.2669 49.4522C65.761 48.9757 65.0955 48.6914 64.6005 48.2014C63.6186 47.224 63.5185 45.6808 62.899 44.4463C62.4554 43.58 61.7385 42.8544 61.4247 41.9312C60.9135 40.4232 61.5816 38.7988 62.2363 37.3477C63.018 35.6258 63.9026 33.7875 65.5662 32.8887C66.1262 32.5855 66.7456 32.4068 67.3191 32.1306C68.7474 31.4457 70.5301 29.8294 71.228 28.381C71.8394 27.095 70.898 25.8523 69.8592 25.051Z" fill="#3F3D56"/>
<path opacity="0.1" d="M57.5754 51.8915C58.3518 52.3869 59.2282 52.7037 59.991 53.2208C60.7539 53.7379 61.422 54.523 61.4437 55.4435C61.4653 56.3234 60.9027 57.095 60.3616 57.7935L53.772 66.4488L57.1318 67.3395C56.5907 68.0868 56.4528 69.0397 56.1714 69.9169C55.8901 70.7941 55.3599 71.7064 54.4618 71.9366C53.6503 72.145 52.8009 71.7173 51.9623 71.766C51.3428 71.8039 50.7585 72.0963 50.1391 72.1207C49.3411 72.1505 48.5999 71.7308 47.9344 71.2868C46.452 70.2932 44.9804 68.8692 44.9913 67.0823C45.0264 66.478 45.1475 65.8818 45.351 65.3117C46.3222 62.1414 47.3285 58.8954 49.3411 56.2584C50.4231 54.8506 51.7459 53.6621 53.0687 52.4817C53.3695 52.1786 53.7234 51.9336 54.1129 51.7588C54.9785 51.4339 55.9226 51.8346 56.818 52.0945C57.7134 52.3544 58.8414 52.3923 59.3581 51.6262" fill="black"/>
<path d="M57.2914 51.3581C58.0677 51.8509 58.9442 52.1703 59.707 52.6874C60.4699 53.2045 61.138 53.9896 61.1624 54.9074C61.1867 55.8252 60.6213 56.5616 60.0803 57.2601L53.488 65.9073L56.8477 66.798C56.3067 67.5453 56.1687 68.4955 55.8874 69.3754C55.6061 70.2553 55.0759 71.165 54.1778 71.3951C53.3663 71.6035 52.5169 71.1758 51.6783 71.2245C51.0588 71.2597 50.4745 71.5548 49.855 71.5765C49.057 71.6063 48.3158 71.1866 47.6504 70.7426C46.168 69.7517 44.6964 68.325 44.7099 66.5408C44.7423 65.9364 44.8626 65.3399 45.067 64.7702C46.0381 61.5972 47.0444 58.3512 49.057 55.7169C50.1391 54.3064 51.4646 53.1179 52.7847 51.9267C53.0869 51.6253 53.4405 51.3805 53.8288 51.2038C54.6945 50.8789 55.6385 51.2796 56.5339 51.5422C57.4293 51.8048 58.5573 51.84 59.074 51.0739" fill="#374A5E"/>
<g opacity="0.1">
<path opacity="0.1" d="M125.062 22.1758C125.698 23.0556 126.685 23.6269 127.697 24.0032C129.584 24.7048 131.638 24.8255 133.594 24.3498C135.488 23.8895 137.465 22.8878 139.242 23.6783C139.662 23.8651 140.054 24.1494 140.511 24.1819C140.958 24.1738 141.392 24.0272 141.753 23.7623C142.848 23.0854 143.855 22.1 144.336 20.9385C144.336 20.9981 144.336 21.0576 144.352 21.1199C144.436 22.9744 143.046 24.5853 141.471 25.5572C141.112 25.8223 140.679 25.9681 140.232 25.9742C139.775 25.9444 139.38 25.6574 138.961 25.4733C137.184 24.6828 135.195 25.6845 133.313 26.1447C131.356 26.6176 129.303 26.497 127.416 25.7982C126.401 25.4192 125.417 24.8506 124.781 23.9707C124.145 23.0908 123.918 21.859 124.459 20.9141L124.5 20.8465C124.587 21.3256 124.779 21.7795 125.062 22.1758Z" fill="black"/>
<path opacity="0.1" d="M125.422 17.6518C125.444 18.0688 125.192 18.418 124.951 18.7727C124.918 18.6847 124.892 18.5942 124.873 18.5019C124.792 18.0173 125.024 17.5462 125.281 17.1212C125.355 17.2898 125.402 17.4688 125.422 17.6518Z" fill="black"/>
</g>
<path opacity="0.1" d="M93.3747 4.11244L91.0537 10.7671C91.8301 11.3085 92.766 11.5576 93.6154 11.9718C94.4648 12.3861 95.2899 13.0548 95.463 13.9861C95.5956 14.6927 95.344 15.5049 95.7552 16.0978C96.1312 16.6393 96.8967 16.7286 97.5459 16.6393C98.1952 16.5499 98.8471 16.3225 99.4963 16.4227C101.119 16.6691 101.723 17.6653 103.224 16.4362C104.725 15.2071 105.269 16.6663 106.665 17.4515C107.925 18.1608 109.481 18.0877 110.887 17.7628C111.685 17.6136 112.441 17.2951 113.106 16.8288C113.2 16.7515 113.29 16.6693 113.376 16.5824C113.169 17.0261 112.857 17.4127 112.467 17.7087C111.803 18.1759 111.047 18.4954 110.249 18.6454C108.842 18.9676 107.273 19.0407 106.026 18.3341C104.631 17.5489 104.057 16.1168 102.586 17.3188C101.114 18.5209 100.476 17.5516 98.8579 17.3188C98.2087 17.2186 97.5595 17.4433 96.9075 17.5354C96.2556 17.6274 95.4928 17.5354 95.1168 16.9939C94.7056 16.4037 94.9572 15.5915 94.8246 14.8849C94.6515 13.9536 93.8264 13.2849 92.977 12.8707C92.1276 12.4564 91.1916 12.2047 90.4153 11.6659L92.7471 4.99232C93.0176 4.25864 93.3152 3.46539 93.8562 2.94287C93.6687 3.32106 93.5078 3.71186 93.3747 4.11244Z" fill="black"/>
<g opacity="0.1">
<path opacity="0.1" d="M63.3832 50.3997C63.981 50.6705 64.7357 50.7111 65.1144 50.2048C65.5391 49.6633 65.2254 48.8241 64.7195 48.3449C64.2137 47.8657 63.5482 47.5841 63.0532 47.0941C62.0712 46.1194 61.9711 44.5763 61.3516 43.3417C60.908 42.4727 60.1912 41.7471 59.8774 40.8239C59.3661 39.3186 60.0343 37.6915 60.6889 36.2431C61.4707 34.5212 62.3552 32.683 64.0189 31.7841C64.5788 31.4809 65.1983 31.3022 65.7718 31.0261C67.2001 30.3411 68.9827 28.7221 69.6807 27.2737C70.2677 26.0527 69.4399 24.8669 68.4553 24.0628C68.9341 24.3741 69.402 24.7017 69.8565 25.051C70.898 25.8632 71.8366 27.095 71.209 28.3756C70.5111 29.824 68.7285 31.4403 67.3002 32.1252C66.7267 32.396 66.1072 32.5801 65.5473 32.8833C63.8836 33.7821 62.9991 35.6204 62.2173 37.3423C61.5599 38.7934 60.8918 40.4178 61.4058 41.9258C61.7195 42.849 62.4364 43.5746 62.88 44.4409C63.5076 45.6754 63.5996 47.2186 64.5815 48.196C65.0766 48.686 65.742 48.9676 66.2479 49.4468C66.7537 49.926 67.0594 50.7544 66.6428 51.3067C66.2262 51.859 65.2362 51.7453 64.614 51.3365C64.1947 51.0522 63.8133 50.6786 63.3832 50.3997Z" fill="black"/>
<path opacity="0.1" d="M46.9768 47.9983L50.5881 45.3885C50.8687 45.1567 51.1923 44.9828 51.5403 44.8768C52.2842 44.7062 53.0118 45.1719 53.634 45.6132L61.2083 50.9737C61.3581 50.6673 61.4389 50.3318 61.4449 49.9908C61.451 49.6498 61.3822 49.3116 61.2435 49C61.9387 49.2166 62.4445 49.796 63.0478 50.2021C62.9601 50.1623 62.8697 50.1288 62.7773 50.1019C62.916 50.413 62.9847 50.7507 62.9787 51.0913C62.9726 51.4319 62.8918 51.767 62.7421 52.0729L55.1678 46.7124C54.5456 46.2711 53.8153 45.8054 53.0741 45.9787C52.7262 46.0837 52.4026 46.2567 52.1219 46.4876L48.5106 49.1002C47.91 49.5334 47.1256 49.9828 46.4763 49.6227C46.2987 49.5135 46.153 49.3595 46.0538 49.176C45.9545 48.9926 45.9053 48.7862 45.911 48.5777C46.2941 48.4411 46.6537 48.2456 46.9768 47.9983Z" fill="black"/>
</g>
<path d="M137.2 65.6799C137.2 65.6799 121.7 66.9226 118.616 64.7242L132.796 62.5367L137.2 65.6799Z" fill="#E3E8F4"/>
<path opacity="0.1" d="M137.2 65.6799C137.2 65.6799 121.7 66.9226 118.616 64.7242L132.796 62.5367L137.2 65.6799Z" fill="black"/>
<path d="M137.2 65.6799L132.858 62.9293C132.858 62.9293 119.906 66.6545 116.357 65.1168L119.968 60.046L132.801 62.5502L137.2 65.6799Z" fill="#E3E8F4"/>
<path d="M117.94 29.2067C117.461 29.812 117.077 30.4866 116.801 31.2074C116.676 31.5892 116.614 31.9871 116.509 32.3743C116.212 33.3384 115.755 34.2455 115.156 35.0573C113.822 36.9984 112.156 38.8719 111.821 41.2029C111.658 42.3535 111.837 43.5231 112.064 44.6629C112.187 45.4145 112.402 46.1482 112.703 46.8477C113.046 47.5895 113.557 48.242 113.95 48.9594C114.308 49.6636 114.61 50.3951 114.853 51.1469C115.316 50.684 115.589 50.064 115.96 49.5225C116.33 48.9811 116.882 48.4938 117.534 48.4856C118.286 48.4856 118.905 49.1083 119.649 49.2058C119.765 49.2292 119.886 49.2179 119.996 49.1733C120.266 49.0461 120.288 48.6806 120.266 48.3882C120.052 46.3441 118.884 44.3272 119.436 42.3454C119.944 40.5125 121.762 39.3673 122.717 37.724C123.409 36.53 123.615 35.1222 123.799 33.7523C124.029 32.1144 124.261 30.4629 124.159 28.8141C124.107 27.983 123.447 22.7308 122.241 23.2803C121.821 23.4699 121.456 24.2739 121.194 24.634L120.112 26.1691L117.94 29.2067Z" fill="#3F3D56"/>
<path d="M85.5624 63.089L76.8601 70.1795L65.6636 68.1761L73.2027 62.2524L85.5624 63.089Z" fill="#E3E8F4"/>
<path opacity="0.1" d="M85.8761 62.6477L77.1738 69.7382L65.9774 67.7348L73.5165 61.8112L85.8761 62.6477Z" fill="black"/>
<path d="M85.8139 62.2713L77.1116 69.3592L65.9125 67.3584L73.4543 61.4321L85.8139 62.2713Z" fill="#E3E8F4"/>
<path opacity="0.1" d="M86.0655 61.451L77.3605 68.5415L66.1641 66.5381L73.7059 60.6144L86.0655 61.451Z" fill="black"/>
<path d="M86.0006 61.0747L77.2982 68.1652L66.1018 66.1618L73.6409 60.2382L86.0006 61.0747Z" fill="#E3E8F4"/>
<path d="M200.472 157.957C200.678 157.857 200.904 157.808 201.132 157.816C201.36 157.824 201.583 157.887 201.781 158C201.979 158.114 202.147 158.274 202.269 158.467C202.391 158.66 202.464 158.88 202.482 159.107L202.966 165.391L200.094 165.911L198.579 161.368L200.472 157.957Z" fill="#3F3D56"/>
<path d="M99.9643 115.839L55.9983 138.169C55.4941 138.426 55.0711 138.819 54.7764 139.302C54.4817 139.786 54.3269 140.342 54.3291 140.908C54.3314 141.475 54.4906 142.03 54.7891 142.511C55.0876 142.992 55.5137 143.381 56.0199 143.635L150.712 191.195C152.397 192.039 154.263 192.456 156.146 192.409C158.03 192.361 159.873 191.852 161.513 190.924L201.397 168.415C201.881 168.139 202.281 167.735 202.552 167.249C202.824 166.762 202.958 166.21 202.939 165.653C202.92 165.096 202.75 164.554 202.446 164.087C202.143 163.619 201.717 163.244 201.216 163L102.667 115.809C102.244 115.606 101.781 115.504 101.312 115.509C100.843 115.514 100.382 115.627 99.9643 115.839Z" fill="#3F3D56"/>
<path d="M55.7035 134.284L54.3266 135.307L54.2184 140.207C54.2096 140.589 54.3085 140.966 54.5037 141.295C54.6989 141.623 54.9825 141.89 55.3221 142.065L151.632 191.528C151.85 191.64 152.094 191.695 152.34 191.686C152.586 191.678 152.825 191.606 153.035 191.478C153.245 191.35 153.419 191.17 153.539 190.955C153.66 190.741 153.723 190.499 153.723 190.252V183.135L55.7035 134.284Z" fill="#3F3D56"/>
<path d="M99.9643 110.159L55.9983 132.486C55.4937 132.743 55.0701 133.135 54.7747 133.618C54.4793 134.101 54.3237 134.657 54.3251 135.223C54.3265 135.79 54.4849 136.345 54.7827 136.827C55.0804 137.308 55.5059 137.698 56.0118 137.952L150.712 185.512C152.397 186.356 154.263 186.772 156.146 186.725C158.03 186.678 159.873 186.168 161.513 185.241L201.397 162.73C201.881 162.453 202.281 162.05 202.552 161.563C202.824 161.077 202.958 160.525 202.939 159.968C202.92 159.41 202.75 158.869 202.446 158.401C202.143 157.934 201.717 157.558 201.216 157.315L102.667 110.126C102.244 109.924 101.78 109.822 101.312 109.828C100.843 109.833 100.382 109.947 99.9643 110.159Z" fill="#E3E8F4"/>
<path d="M109.064 114.212L60.6213 138.829L143.882 180.495L193.839 155.117L109.064 114.212Z" fill="#3F3D56"/>
<path d="M174.349 172.92C177.171 172.92 179.459 171.564 179.459 169.891C179.459 168.217 177.171 166.861 174.349 166.861C171.527 166.861 169.239 168.217 169.239 169.891C169.239 171.564 171.527 172.92 174.349 172.92Z" fill="#3F3D56"/>
<path d="M81.153 122.545C81.4145 122.545 81.6264 122.333 81.6264 122.071C81.6264 121.809 81.4145 121.597 81.153 121.597C80.8916 121.597 80.6796 121.809 80.6796 122.071C80.6796 122.333 80.8916 122.545 81.153 122.545Z" fill="#3F3D56"/>
<path d="M79.7356 126.332C80.0493 126.332 80.3036 126.078 80.3036 125.764C80.3036 125.45 80.0493 125.195 79.7356 125.195C79.4218 125.195 79.1675 125.45 79.1675 125.764C79.1675 126.078 79.4218 126.332 79.7356 126.332Z" fill="#3F3D56"/>
<path d="M81.8158 124.816L87.4938 122.166" stroke="#3F3D56" stroke-miterlimit="10"/>
<path d="M132.115 137.139L116.086 146.401C113.757 147.747 112.959 150.727 114.304 153.058C115.648 155.389 118.626 156.188 120.955 154.842L136.984 145.58C139.313 144.234 140.111 141.254 138.766 138.923C137.422 136.592 134.444 135.794 132.115 137.139Z" fill="#374A5E"/>
<path d="M146.452 144.45L130.423 153.712C128.094 155.057 127.296 158.038 128.641 160.369C129.985 162.699 132.963 163.498 135.292 162.152L151.321 152.891C153.65 151.545 154.448 148.564 153.103 146.234C151.758 143.903 148.78 143.104 146.452 144.45Z" fill="#374A5E"/>
<path d="M119.13 128.748L103.102 138.009C100.773 139.355 99.975 142.335 101.32 144.666C102.664 146.997 105.642 147.796 107.971 146.45L124 137.188C126.329 135.843 127.126 132.862 125.782 130.531C124.437 128.201 121.459 127.402 119.13 128.748Z" fill="#374A5E"/>
</g>
<defs>
<clipPath id="clip0">
<rect width="250" height="221.698" fill="white"/>
</clipPath>
</defs>
</svg>
