<svg width="89" height="89" viewBox="0 0 89 89" fill="none" xmlns="http://www.w3.org/2000/svg">
<path d="M36.7901 4.67043C35.5648 4.67043 34.5845 3.68719 34.3394 2.70395C34.0944 1.4749 35.0746 0.24585 36.3 0.24585H36.5451C37.7704 4.04418e-05 38.9957 0.983281 38.9957 2.21233C39.2408 3.44138 38.2605 4.67043 37.0352 4.67043H36.7901ZM49.2886 5.16205C49.0436 5.16205 49.0436 5.16205 48.7985 5.16205C47.5732 4.91624 46.5929 3.68719 47.083 2.45814C47.3281 1.22909 48.5534 0.49166 49.7788 0.737471H50.0238C51.2492 0.983281 51.9844 2.21233 51.7393 3.44138C51.4943 4.42462 50.514 5.16205 49.5337 5.16205H49.2886ZM24.5367 8.11177C23.5564 8.11177 22.8212 7.62015 22.3311 6.88272C21.8409 5.65367 22.086 4.42462 23.3113 3.68719C24.5367 3.19557 25.762 3.68719 26.4972 4.67043C26.9874 5.89948 26.4972 7.12853 25.517 7.86596C25.2719 8.11177 24.7817 8.11177 24.5367 8.11177ZM60.8069 9.83244C60.3167 9.83244 60.0717 9.83244 59.5815 9.58663C58.6013 8.8492 58.1111 7.37434 58.8463 6.3911C59.5815 5.40786 60.8069 4.91624 62.0322 5.65367C62.0322 5.65367 62.0322 5.65367 62.2773 5.65367C63.2576 6.3911 63.7477 7.86596 63.0125 8.8492C62.5224 9.58663 61.7872 10.0783 61.052 10.0783L60.8069 9.83244ZM14.2438 15.2403C13.7536 15.2403 13.0184 14.9945 12.5283 14.5028C11.548 13.5196 11.548 12.0447 12.5283 11.3073C13.5086 10.3241 14.979 10.3241 15.7142 11.3073C16.6945 12.2905 16.6945 13.7654 15.7142 14.5028C15.2241 14.9945 14.7339 15.2403 13.9987 15.2403H14.2438ZM70.3646 17.9442C69.6294 17.9442 69.1392 17.6984 68.6491 17.2067V16.9609C67.9139 15.9777 67.9139 14.5028 68.8942 13.7654C69.8744 13.028 71.3448 13.028 72.0801 14.0112C72.8153 14.9945 72.8153 16.4693 71.835 17.2067C71.3448 17.6984 70.8547 17.6984 70.3646 17.6984V17.9442ZM6.89172 25.3185C6.64665 25.3185 6.15651 25.3185 5.91144 25.0727C4.6861 24.581 4.19596 23.1062 4.93117 21.8771C5.4213 20.6481 6.89172 20.1565 8.11706 20.8939C9.34241 21.3855 9.83255 22.8604 9.09734 24.0894C8.6072 24.8269 7.87199 25.3185 6.89172 25.3185ZM76.7364 28.7598C75.7561 28.7598 75.0209 28.2682 74.5307 27.285C74.0406 26.0559 74.5307 24.581 75.7561 24.3352C76.9814 23.8436 78.2068 24.3352 78.6969 25.5643C79.1871 26.7933 78.4518 28.0224 77.4716 28.514C77.2265 28.514 76.9814 28.7598 76.7364 28.7598ZM3.21568 37.3632H2.97062C1.74527 37.1174 0.764995 36.1341 1.01006 34.9051V34.6593C1.25513 33.4302 2.48048 32.447 3.70582 32.6928C4.93117 32.9386 5.91144 34.1676 5.66637 35.3967C5.4213 36.6257 4.44103 37.3632 3.46075 37.3632H3.21568ZM79.187 41.2961C77.9617 41.2961 76.9814 40.3129 76.7364 39.0838V38.838C76.7364 37.609 77.7166 36.3799 78.942 36.3799C80.1673 36.3799 81.3927 37.3632 81.3927 38.5922C81.3927 39.8213 80.4124 41.0503 79.187 41.0503V41.2961ZM3.70582 49.8995C2.72555 49.8995 1.74527 49.162 1.5002 48.1788V47.933C1.25513 46.7039 1.99034 45.4749 3.46075 45.2291C4.6861 44.9833 5.91144 45.7207 6.15651 47.1956C6.40158 48.4246 5.66637 49.6537 4.44103 49.8995C4.19596 49.8995 4.19596 49.8995 3.95089 49.8995H3.70582ZM77.7166 53.5866C77.4716 53.5866 77.2265 53.5866 76.9814 53.5866C75.7561 53.3408 75.0209 51.866 75.2659 50.6369V50.3911C75.7561 49.162 76.9814 48.4246 78.2068 48.9162C79.4321 49.4079 80.1673 50.6369 79.6772 51.866C79.4321 52.8492 78.4518 53.5866 77.4716 53.5866H77.7166ZM8.36213 61.6984C7.62693 61.6984 6.89172 61.2067 6.40158 60.7151C5.66637 59.4861 6.15651 58.257 7.13679 57.5196C8.36213 56.7822 9.58748 57.2738 10.3227 58.257C11.0579 59.4861 10.5678 60.9609 9.58748 61.4525C9.09734 61.6984 8.85227 61.6984 8.36213 61.6984ZM16.4494 71.285C15.9593 71.285 15.4691 71.0391 14.979 70.7933C13.9987 70.0559 13.7536 68.581 14.7339 67.5978C15.4691 66.6146 16.9395 66.3688 17.9198 67.352C18.9001 68.0894 18.9001 69.5643 18.1649 70.5475C17.6748 71.0391 16.9395 71.285 16.4494 71.285ZM27.2324 77.9218C26.9874 77.9218 26.7423 77.9218 26.2522 77.676C25.0268 77.1844 24.5367 75.9553 25.0268 74.7263C25.517 73.4972 26.7423 73.0056 27.9676 73.4972H28.2127C29.4381 73.9889 29.9282 75.2179 29.4381 76.447C28.9479 77.4302 28.2127 77.9218 27.2324 77.9218ZM51.9844 79.1509C51.0041 79.1509 50.0238 78.4134 49.7788 77.4302C49.2886 76.2011 50.0238 74.9721 51.2492 74.4805H51.4943C52.7196 74.2347 53.945 74.9721 54.4351 76.2011C54.6802 77.4302 53.945 78.6592 52.7196 79.1509C52.4745 79.1509 52.2295 79.1509 51.9844 79.1509ZM39.731 80.6257C38.5056 80.6257 37.5253 79.3967 37.5253 78.1676C37.5253 76.9386 38.5056 75.9553 39.731 75.9553C40.9563 75.9553 41.9366 77.1844 41.9366 78.4134C41.9366 79.6425 40.9563 80.6257 39.4859 80.6257H39.731Z" fill="#CECFCF"/>
<path d="M41.2015 46.9498C37.5254 46.9498 34.5846 44 34.5846 40.3129C34.5846 36.6257 37.5254 33.676 41.2015 33.676C44.8775 33.676 47.8183 36.6257 47.8183 40.3129C47.8183 44 44.8775 46.9498 41.2015 46.9498ZM41.2015 30.4805C35.8099 30.4805 31.1536 34.9051 31.1536 40.5587C31.1536 45.9665 35.5649 50.6369 41.2015 50.6369C46.838 50.6369 51.2493 46.2123 51.2493 40.5587C51.2493 35.1509 46.838 30.4805 41.2015 30.4805Z" fill="#683F7B"/>
<path d="M85.3139 84.3129H75.5111V79.6425C75.5111 78.6592 74.7759 77.9218 73.7956 77.9218H68.8942V73.2514C68.8942 72.2682 68.159 71.5307 67.1788 71.5307H61.2971L52.2295 62.4358L49.5338 59.7318C48.3084 60.2235 47.0831 60.7151 45.8578 60.9609C44.3873 61.2067 42.6719 61.4525 41.2014 61.4525C29.6832 61.4525 20.1255 51.8659 20.1255 40.3129C20.1255 28.7598 29.6832 19.1732 41.2014 19.1732C52.7197 19.1732 62.2774 28.7598 62.2774 40.3129C62.2774 42.0335 62.0323 43.7542 61.7872 45.2291C61.5422 46.4581 61.052 47.6872 60.5619 48.9162L63.2576 51.6201L85.5589 73.9888V84.3129H85.3139ZM88.7448 72.514C88.7448 72.2682 88.4998 72.0224 88.2547 72.0224L64.483 48.1788C65.2182 45.7207 65.7083 43.2626 65.7083 40.5587C65.7083 27.0391 54.6802 15.9777 41.2014 15.9777C27.7227 15.9777 16.6945 27.0391 16.6945 40.5587C16.6945 54.0782 27.7227 65.1397 41.2014 65.1397C43.8972 65.1397 46.3479 64.648 48.7986 63.9106L59.5816 74.7263C59.8267 74.9721 59.8267 74.9721 60.0718 75.2179C60.3168 75.2179 60.5619 75.4637 60.807 75.4637H65.7083V80.1341C65.7083 81.1173 66.4436 81.8547 67.4238 81.8547H72.3252V86.5251C72.3252 87.5084 73.0604 88.2458 74.0407 88.2458H87.2744C88.2547 88.2458 88.9899 87.5084 88.9899 86.5251V73.743V73.4972V73.2514L88.7448 72.514Z" fill="#683F7B"/>
</svg>
