<svg width="10" height="14" viewBox="0 0 10 14" fill="none" xmlns="http://www.w3.org/2000/svg">
<path d="M10 4.90373C10.0011 3.96464 9.72663 3.04502 9.20922 2.25445C8.69182 1.46388 7.95331 0.835676 7.08169 0.444694C6.21008 0.0537118 5.24209 -0.0835696 4.29307 0.0492056C3.34404 0.181981 2.45399 0.579215 1.72895 1.19358C1.00391 1.80795 0.474442 2.61354 0.203639 3.51439C-0.067165 4.41524 -0.0678922 5.37336 0.201544 6.27461C0.47098 7.17585 0.99922 7.98221 1.72333 8.59764C2.44744 9.21306 3.33689 9.61159 4.28571 9.74575V11.2011H3.57143C3.38198 11.2011 3.2003 11.2749 3.06635 11.4061C2.93239 11.5373 2.85714 11.7153 2.85714 11.9009C2.85714 12.0864 2.93239 12.2644 3.06635 12.3956C3.2003 12.5269 3.38198 12.6006 3.57143 12.6006H4.28571V13.3003C4.28571 13.4859 4.36097 13.6638 4.49492 13.7951C4.62888 13.9263 4.81056 14 5 14C5.18944 14 5.37112 13.9263 5.50507 13.7951C5.63903 13.6638 5.71428 13.4859 5.71428 13.3003V12.6006H6.42857C6.61801 12.6006 6.79969 12.5269 6.93364 12.3956C7.0676 12.2644 7.14285 12.0864 7.14285 11.9009C7.14285 11.7153 7.0676 11.5373 6.93364 11.4061C6.79969 11.2749 6.61801 11.2011 6.42857 11.2011H5.71428V9.74575C6.90328 9.57763 7.99074 8.99578 8.77773 8.10665C9.56471 7.21752 9.99859 6.08054 10 4.90373ZM5 8.4023C4.29363 8.4023 3.60314 8.19711 3.01582 7.81268C2.4285 7.42825 1.97074 6.88185 1.70043 6.24257C1.43011 5.6033 1.35939 4.89985 1.49719 4.2212C1.635 3.54254 1.97514 2.91916 2.47462 2.42987C2.97409 1.94059 3.61046 1.60738 4.30325 1.47239C4.99604 1.3374 5.71413 1.40668 6.36672 1.67148C7.01932 1.93628 7.5771 2.3847 7.96953 2.96003C8.36197 3.53537 8.57143 4.21178 8.57143 4.90373C8.57143 5.36317 8.47905 5.81811 8.29957 6.24257C8.12009 6.66704 7.85702 7.05272 7.52538 7.37759C7.19374 7.70246 6.80003 7.96017 6.36672 8.13598C5.93342 8.3118 5.469 8.4023 5 8.4023Z" fill="black"/>
</svg>
