<svg width="25" height="22" viewBox="0 0 25 22" fill="none" xmlns="http://www.w3.org/2000/svg">
<path d="M19.1519 16.5V22H16.9346V16.5C16.9346 11.6039 19.8659 7.3865 24.082 5.4824L25 7.4844C23.2558 8.27154 21.7768 9.54024 20.7398 11.139C19.7028 12.7377 19.1515 14.5988 19.1519 16.5ZM8.06541 16.5V22H5.84812V16.5C5.84828 14.599 5.29693 12.7381 4.25991 11.1396C3.22289 9.54109 1.74404 8.27256 0 7.4855L0.91796 5.4824C3.04954 6.44434 4.85699 7.99475 6.12442 9.94846C7.39184 11.9022 8.06567 14.1766 8.06541 16.5ZM12.5 11C11.0298 11 9.6199 10.4205 8.58034 9.38909C7.54078 8.35764 6.95676 6.95869 6.95676 5.5C6.95676 4.04131 7.54078 2.64236 8.58034 1.61091C9.6199 0.579463 11.0298 0 12.5 0C13.9702 0 15.3801 0.579463 16.4197 1.61091C17.4592 2.64236 18.0432 4.04131 18.0432 5.5C18.0432 6.95869 17.4592 8.35764 16.4197 9.38909C15.3801 10.4205 13.9702 11 12.5 11ZM12.5 8.8C12.9368 8.8 13.3693 8.71464 13.7728 8.5488C14.1763 8.38296 14.543 8.13989 14.8518 7.83345C15.1606 7.52702 15.4056 7.16323 15.5728 6.76286C15.7399 6.36248 15.8259 5.93336 15.8259 5.5C15.8259 5.06664 15.7399 4.63752 15.5728 4.23714C15.4056 3.83677 15.1606 3.47298 14.8518 3.16655C14.543 2.86011 14.1763 2.61704 13.7728 2.4512C13.3693 2.28536 12.9368 2.2 12.5 2.2C11.6179 2.2 10.7719 2.54768 10.1482 3.16655C9.52447 3.78542 9.17406 4.62479 9.17406 5.5C9.17406 6.37521 9.52447 7.21458 10.1482 7.83345C10.7719 8.45232 11.6179 8.8 12.5 8.8Z" fill="#374A5E"/>
</svg>
