<svg width="18" height="22" viewBox="0 0 18 22" fill="none" xmlns="http://www.w3.org/2000/svg">
<path d="M5.46779 7.35449L5.46554 7.35631L5.4634 7.35837L5.46779 7.35449ZM15.4219 7.16897C15.3523 7.10228 15.2751 7.04393 15.1919 6.99511C15.0741 6.92615 14.9433 6.88196 14.8076 6.86526C14.6719 6.84857 14.5343 6.85973 14.4031 6.89805C14.2719 6.93638 14.1501 7.00105 14.045 7.08808C13.94 7.1751 13.8541 7.28263 13.7925 7.40401C13.448 8.07901 12.9729 8.67973 12.3945 9.17169C12.4829 8.676 12.5275 8.17356 12.5278 7.67013C12.5296 6.1386 12.1234 4.63394 11.3504 3.30934C10.5775 1.98473 9.46537 0.887501 8.12739 0.129359C7.98 0.0462607 7.8138 0.0017665 7.64438 5.15272e-05C7.47496 -0.00166345 7.30788 0.039457 7.15882 0.119554C7.00976 0.199652 6.8836 0.3161 6.79218 0.457973C6.70076 0.599846 6.64709 0.762491 6.63618 0.930648C6.58022 1.87367 6.33235 2.79557 5.90758 3.6405C5.4828 4.48543 4.88998 5.23579 4.16502 5.84613L3.93455 6.03261C3.17647 6.53993 2.50545 7.16532 1.94726 7.88479C1.07957 8.97195 0.478505 10.2452 0.191717 11.6036C-0.0950706 12.962 -0.0596892 14.3682 0.295056 15.7107C0.6498 17.0531 1.31415 18.2949 2.23542 19.3375C3.15669 20.3802 4.30955 21.195 5.60256 21.7174C5.75437 21.7791 5.91913 21.8027 6.08228 21.7861C6.24543 21.7695 6.40197 21.7132 6.53809 21.6222C6.6742 21.5312 6.78571 21.4083 6.86278 21.2643C6.93985 21.1204 6.98011 20.9597 6.98001 20.7966C6.9793 20.6911 6.96251 20.5863 6.93021 20.4858C6.70649 19.6494 6.64206 18.7788 6.74026 17.9188C7.6865 19.6938 9.20539 21.1008 11.0528 21.9136C11.2782 22.0139 11.5332 22.0274 11.7681 21.9514C13.2276 21.4829 14.5425 20.651 15.5877 19.5347C16.633 18.4184 17.3738 17.0549 17.74 15.5736C18.1061 14.0923 18.0853 12.5426 17.6796 11.0716C17.2738 9.60053 16.4967 8.25712 15.4219 7.16897ZM11.5171 19.9303C10.6454 19.4909 9.87646 18.874 9.26025 18.1196C8.64404 17.3653 8.19436 16.4904 7.94044 15.5519C7.86289 15.2358 7.80291 14.9158 7.76075 14.5932C7.73219 14.3878 7.63979 14.1964 7.49648 14.0458C7.35316 13.8951 7.1661 13.7928 6.96144 13.7531C6.89839 13.7407 6.83428 13.7345 6.77001 13.7346C6.59426 13.7346 6.42159 13.7806 6.26943 13.8681C6.11726 13.9556 5.99098 14.0814 5.90332 14.2329C5.07359 15.6563 4.65632 17.2803 4.69775 18.925C3.96799 18.3607 3.3581 17.658 2.90343 16.8575C2.44876 16.0571 2.15835 15.1748 2.04903 14.2619C1.93971 13.349 2.01365 12.4236 2.26658 11.5393C2.5195 10.6551 2.94638 9.82952 3.52246 9.11053C3.95988 8.54546 4.48755 8.05559 5.08446 7.66046C5.1103 7.64387 5.13509 7.62571 5.15868 7.60607C5.15868 7.60607 5.45537 7.36192 5.46551 7.35634C6.8902 6.15785 7.90351 4.54721 8.36424 2.74884C9.45381 3.75059 10.1803 5.08211 10.431 6.53664C10.6817 7.99116 10.4424 9.48731 9.75047 10.7927C9.65905 10.9669 9.62154 11.1642 9.64269 11.3595C9.66384 11.5549 9.74269 11.7397 9.86929 11.8905C9.99589 12.0414 10.1646 12.1516 10.3541 12.2072C10.5436 12.2628 10.7454 12.2614 10.9341 12.203C12.4658 11.7255 13.8138 10.7927 14.7964 9.53015C15.3869 10.3977 15.773 11.3866 15.9258 12.4232C16.0787 13.4598 15.9944 14.5173 15.6792 15.517C15.364 16.5166 14.826 17.4327 14.1054 18.1968C13.3847 18.9609 12.5 19.5535 11.5171 19.9303L11.5171 19.9303Z" fill="#374A5E"/>
</svg>
