<svg width="19" height="22" viewBox="0 0 19 22" fill="none" xmlns="http://www.w3.org/2000/svg">
<path d="M3.56989 5.20481C5.25217 3.86701 7.34435 3.13959 9.5 3.143C11.7431 3.143 13.8046 3.91409 15.4301 5.20481L16.9638 3.68255L18.4564 5.16395L16.9227 6.68621C18.0391 8.07348 18.7383 9.74543 18.9396 11.5097C19.141 13.2739 18.8364 15.0587 18.0608 16.6587C17.2853 18.2587 16.0704 19.6088 14.5559 20.5538C13.0414 21.4987 11.2889 22 9.5 22C7.71112 22 5.95859 21.4987 4.44409 20.5538C2.92959 19.6088 1.71468 18.2587 0.939156 16.6587C0.163633 15.0587 -0.140978 13.2739 0.0603781 11.5097C0.261734 9.74543 0.960873 8.07348 2.07734 6.68621L0.543616 5.165L2.03617 3.6836L3.56989 5.20586V5.20481ZM9.5 19.9057C10.4703 19.9057 11.4311 19.716 12.3276 19.3474C13.2241 18.9789 14.0386 18.4387 14.7247 17.7577C15.4109 17.0767 15.9551 16.2682 16.3264 15.3785C16.6978 14.4887 16.8889 13.5351 16.8889 12.572C16.8889 11.6089 16.6978 10.6553 16.3264 9.76554C15.9551 8.87577 15.4109 8.06732 14.7247 7.38632C14.0386 6.70533 13.2241 6.16513 12.3276 5.79658C11.4311 5.42803 10.4703 5.23834 9.5 5.23834C7.54035 5.23834 5.66095 6.01099 4.27527 7.38632C2.88959 8.76165 2.11112 10.627 2.11112 12.572C2.11112 14.517 2.88959 16.3824 4.27527 17.7577C5.66095 19.133 7.54035 19.9057 9.5 19.9057ZM10.5556 11.5243H13.7222L8.44444 18.3342V13.6197H5.27778L10.5556 6.8046V11.5243ZM5.27778 0H13.7222V2.09534H5.27778V0Z" fill="white"/>
</svg>
