<svg width="50" height="50" viewBox="0 0 50 50" fill="none" xmlns="http://www.w3.org/2000/svg">
<path d="M34.4177 27.9007L24.2254 38.9282L21.8627 36.3348C21.7776 36.2414 21.6749 36.1656 21.5604 36.1119C21.446 36.0581 21.3221 36.0274 21.1959 36.0216C21.0696 36.0157 20.9434 36.0348 20.8245 36.0777C20.7056 36.1206 20.5963 36.1865 20.5028 36.2716C20.4094 36.3568 20.3336 36.4595 20.2799 36.5739C20.2261 36.6883 20.1955 36.8122 20.1896 36.9385C20.1837 37.0648 20.2028 37.1909 20.2457 37.3099C20.2886 37.4288 20.3545 37.5381 20.4396 37.6315L23.5111 40.9941C23.6002 41.0922 23.7087 41.1707 23.8298 41.2247C23.9509 41.2786 24.0818 41.3067 24.2144 41.3073C24.3473 41.3075 24.4789 41.2803 24.6008 41.2273C24.7228 41.1744 24.8325 41.0969 24.9232 40.9996L31.2638 34.148C32.3819 35.7266 32.9373 37.635 32.8409 39.567C32.7445 41.499 32.002 43.3427 30.7324 44.8022C29.4629 46.2617 27.7398 47.2524 25.8398 47.6155C23.9397 47.9785 21.9728 47.6928 20.2546 46.8042C18.5363 45.9156 17.1664 44.4756 16.3645 42.7152C15.5626 40.9548 15.3752 38.9761 15.8325 37.0965C16.2898 35.2169 17.3652 33.5454 18.8861 32.3501C20.4071 31.1549 22.2854 30.5051 24.2199 30.5051C24.8311 30.5058 25.4407 30.5703 26.0385 30.6974C26.1641 30.7297 26.2948 30.7362 26.4229 30.7166C26.551 30.6971 26.6739 30.6518 26.7841 30.5836C26.8942 30.5153 26.9895 30.4255 27.0641 30.3195C27.1387 30.2136 27.1911 30.0936 27.2181 29.9668C27.2452 29.8401 27.2463 29.7092 27.2215 29.582C27.1967 29.4548 27.1464 29.3339 27.0737 29.2266C27.001 29.1194 26.9073 29.0279 26.7984 28.9577C26.6894 28.8876 26.5674 28.8401 26.4396 28.8183C25.7171 28.6641 24.9806 28.5849 24.2418 28.5821C21.8734 28.5821 19.5737 29.3787 17.7128 30.8438C15.8518 32.3089 14.5377 34.3573 13.9818 36.6596C13.4258 38.9619 13.6604 41.3843 14.6478 43.5371C15.6352 45.69 17.3179 47.4482 19.4254 48.529C21.533 49.6097 23.9427 49.9503 26.2672 49.4958C28.5917 49.0413 30.6957 47.8183 32.241 46.0233C33.7862 44.2283 34.6828 41.9658 34.7866 39.5996C34.8905 37.2334 34.1954 34.901 32.8133 32.9777C32.7486 32.889 32.6686 32.8127 32.577 32.7524L35.8737 29.2084C35.9596 29.1157 36.0263 29.007 36.0702 28.8885C36.114 28.7699 36.1341 28.6439 36.1293 28.5177C36.1244 28.3914 36.0947 28.2673 36.0419 28.1525C35.9891 28.0377 35.9142 27.9344 35.8215 27.8485C35.7288 27.7627 35.6201 27.6959 35.5016 27.6521C35.383 27.6082 35.257 27.5881 35.1308 27.593C35.0045 27.5978 34.8804 27.6275 34.7656 27.6803C34.6508 27.7331 34.5475 27.808 34.4616 27.9007H34.4177Z" fill="#393333"/>
<path d="M20.2912 11.9724H29.9066C30.0347 11.9725 30.1616 11.9469 30.2797 11.8972C30.3978 11.8475 30.5048 11.7747 30.5944 11.6831C30.684 11.5914 30.7543 11.4828 30.8013 11.3636C30.8484 11.2444 30.8711 11.117 30.8681 10.9889V7.14275H34.1648L32.4176 8.90099C32.2376 9.08169 32.1368 9.32648 32.1373 9.58151C32.1378 9.83654 32.2396 10.0809 32.4203 10.2609C32.601 10.4409 32.8458 10.5417 33.1008 10.5412C33.3559 10.5406 33.6003 10.4388 33.7802 10.2581L37.1539 6.88451C37.3334 6.70429 37.4341 6.4603 37.4341 6.20594C37.4341 5.95158 37.3334 5.70758 37.1539 5.52737L33.7802 2.15374C33.6911 2.06427 33.5852 1.99322 33.4687 1.94466C33.3521 1.8961 33.2271 1.87098 33.1008 1.87072C32.9746 1.87047 32.8495 1.89509 32.7327 1.94318C32.6159 1.99126 32.5098 2.06188 32.4203 2.15099C32.3309 2.2401 32.2598 2.34596 32.2113 2.46253C32.1627 2.5791 32.1376 2.70409 32.1373 2.83037C32.1371 2.95665 32.1617 3.08174 32.2098 3.1985C32.2579 3.31526 32.3285 3.42141 32.4176 3.51088L34.1538 5.24165H30.8571V1.3955C30.8557 1.14333 30.7553 0.901808 30.5775 0.722981C30.3997 0.544153 30.1587 0.442331 29.9066 0.439453H20.2912C20.0362 0.439453 19.7916 0.540758 19.6113 0.721081C19.431 0.901405 19.3297 1.14598 19.3297 1.40099V10.9889C19.3267 11.117 19.3494 11.2444 19.3964 11.3636C19.4435 11.4828 19.5138 11.5914 19.6034 11.6831C19.693 11.7747 19.8 11.8475 19.9181 11.8972C20.0362 11.9469 20.1631 11.9725 20.2912 11.9724ZM21.2527 2.36253H28.9451V5.24165H26.478C26.223 5.24165 25.9784 5.34296 25.7981 5.52328C25.6178 5.7036 25.5165 5.94817 25.5165 6.20319C25.5165 6.45821 25.6178 6.70278 25.7981 6.8831C25.9784 7.06342 26.223 7.16473 26.478 7.16473H28.9451V10.0493H21.2527V2.36253Z" fill="#393333"/>
<path d="M48.8517 0.439453H39.2363C38.9813 0.439453 38.7367 0.540758 38.5564 0.721081C38.3761 0.901405 38.2748 1.14598 38.2748 1.40099V10.9889C38.2748 11.2439 38.3761 11.4885 38.5564 11.6688C38.7367 11.8491 38.9813 11.9504 39.2363 11.9504H43.0824V16.4834H24.1759C23.9208 16.4834 23.6763 16.5847 23.4959 16.765C23.3156 16.9454 23.2143 17.1899 23.2143 17.4449V23.6263L21.4781 21.8955C21.2974 21.7155 21.0526 21.6147 20.7975 21.6152C20.5425 21.6157 20.2981 21.7175 20.1182 21.8982C19.9382 22.0789 19.8374 22.3237 19.8379 22.5788C19.8384 22.8338 19.9402 23.0782 20.1209 23.2581L23.4945 26.6318C23.6747 26.8113 23.9187 26.9121 24.1731 26.9121C24.4275 26.9121 24.6715 26.8113 24.8517 26.6318L28.2253 23.2581C28.406 23.0782 28.5078 22.8338 28.5083 22.5788C28.5088 22.3237 28.408 22.0789 28.2281 21.8982C28.0481 21.7175 27.8037 21.6157 27.5487 21.6152C27.2936 21.6147 27.0489 21.7155 26.8682 21.8955L25.1374 23.6263V18.4065H44.044C44.299 18.4065 44.5436 18.3052 44.7239 18.1249C44.9042 17.9445 45.0055 17.7 45.0055 17.4449V11.9504H48.8517C49.1067 11.9504 49.3513 11.8491 49.5316 11.6688C49.7119 11.4885 49.8132 11.2439 49.8132 10.9889V1.40099C49.8132 1.14598 49.7119 0.901405 49.5316 0.721081C49.3513 0.540758 49.1067 0.439453 48.8517 0.439453ZM47.8901 10.0493H45.0055V6.89C45.0055 6.63499 44.9042 6.39042 44.7239 6.21009C44.5436 6.02977 44.299 5.92846 44.044 5.92846C43.789 5.92846 43.5444 6.02977 43.3641 6.21009C43.1838 6.39042 43.0824 6.63499 43.0824 6.89V10.0493H40.1978V2.36253H47.8901V10.0493Z" fill="#393333"/>
<path d="M14.8737 10.2581L18.2473 6.88451C18.3375 6.79602 18.4091 6.69043 18.4581 6.57391C18.507 6.4574 18.5322 6.3323 18.5322 6.20594C18.5322 6.07957 18.507 5.95447 18.4581 5.83796C18.4091 5.72145 18.3375 5.61586 18.2473 5.52737L14.8791 2.15374C14.79 2.06427 14.6842 1.99322 14.5676 1.94466C14.451 1.8961 14.326 1.87098 14.1998 1.87072C13.9447 1.87021 13.7 1.97102 13.5193 2.15099C13.3386 2.33096 13.2368 2.57534 13.2362 2.83037C13.2357 3.0854 13.3365 3.33018 13.5165 3.51088L15.2473 5.24165H11.9231V1.3955C11.9218 1.14612 11.8236 0.907016 11.6493 0.72864C11.4751 0.550265 11.2383 0.446575 10.989 0.439453H1.35168C1.09666 0.439453 0.852088 0.540758 0.671765 0.721081C0.491441 0.901405 0.390137 1.14598 0.390137 1.40099V10.9889C0.390137 11.2439 0.491441 11.4885 0.671765 11.6688C0.852088 11.8491 1.09666 11.9504 1.35168 11.9504H10.989C11.2393 11.9433 11.4768 11.8388 11.6513 11.6593C11.8257 11.4797 11.9232 11.2392 11.9231 10.9889V7.14275H15.2473L13.5165 8.90099C13.3796 9.03517 13.2858 9.20723 13.2474 9.39507C13.209 9.58291 13.2275 9.77795 13.3008 9.95514C13.374 10.1323 13.4986 10.2836 13.6584 10.3895C13.8183 10.4953 14.0061 10.551 14.1978 10.5493C14.3242 10.5482 14.449 10.5218 14.5651 10.4718C14.6811 10.4218 14.786 10.3492 14.8737 10.2581ZM10 10.0493H2.30772V2.36253H10V5.24165H6.70332C6.44831 5.24165 6.20374 5.34296 6.02341 5.52328C5.84309 5.7036 5.74178 5.94817 5.74178 6.20319C5.74178 6.45821 5.84309 6.70278 6.02341 6.8831C6.20374 7.06342 6.44831 7.16473 6.70332 7.16473H10V10.0493Z" fill="#393333"/>
</svg>
