<svg width="50" height="50" viewBox="0 0 50 50" fill="none" xmlns="http://www.w3.org/2000/svg">
<path d="M7.38451 31.759H26.4889C26.7439 31.759 26.9885 31.6577 27.1688 31.4774C27.3491 31.2971 27.4504 31.0525 27.4504 30.7975C27.4504 30.5425 27.3491 30.2979 27.1688 30.1176C26.9885 29.9372 26.7439 29.8359 26.4889 29.8359H7.38451C7.1295 29.8359 6.88493 29.9372 6.7046 30.1176C6.52428 30.2979 6.42297 30.5425 6.42297 30.7975C6.42297 31.0525 6.52428 31.2971 6.7046 31.4774C6.88493 31.6577 7.1295 31.759 7.38451 31.759Z" fill="#393333"/>
<path d="M30.7252 35.7148H7.38451C7.1295 35.7148 6.88493 35.8161 6.7046 35.9965C6.52428 36.1768 6.42297 36.4214 6.42297 36.6764C6.42297 36.9314 6.52428 37.176 6.7046 37.3563C6.88493 37.5366 7.1295 37.6379 7.38451 37.6379H30.7252C30.9802 37.6379 31.2248 37.5366 31.4051 37.3563C31.5854 37.176 31.6867 36.9314 31.6867 36.6764C31.6867 36.4214 31.5854 36.1768 31.4051 35.9965C31.2248 35.8161 30.9802 35.7148 30.7252 35.7148Z" fill="#393333"/>
<path d="M18.5438 19.9563H22.5273C22.7823 19.9563 23.0269 19.855 23.2072 19.6747C23.3876 19.4943 23.4889 19.2498 23.4889 18.9947C23.4889 18.7397 23.3876 18.4952 23.2072 18.3148C23.0269 18.1345 22.7823 18.0332 22.5273 18.0332H18.5713C18.3163 18.0332 18.0717 18.1345 17.8914 18.3148C17.711 18.4952 17.6097 18.7397 17.6097 18.9947C17.6097 19.2498 17.711 19.4943 17.8914 19.6747C18.0717 19.855 18.3163 19.9563 18.5713 19.9563H18.5438Z" fill="#393333"/>
<path d="M18.5438 25.8567H22.5273C22.7823 25.8567 23.0269 25.7554 23.2072 25.575C23.3876 25.3947 23.4889 25.1501 23.4889 24.8951C23.4889 24.6401 23.3876 24.3955 23.2072 24.2152C23.0269 24.0349 22.7823 23.9336 22.5273 23.9336H18.5713C18.3163 23.9336 18.0717 24.0349 17.8914 24.2152C17.711 24.3955 17.6097 24.6401 17.6097 24.8951C17.6097 25.1501 17.711 25.3947 17.8914 25.575C18.0717 25.7554 18.3163 25.8567 18.5713 25.8567H18.5438Z" fill="#393333"/>
<path d="M40.2087 22.7636L28.2472 11.368C28.0716 11.207 27.8425 11.1169 27.6043 11.1152H1.49993C1.37366 11.1167 1.2489 11.143 1.13279 11.1926C1.01668 11.2423 0.911487 11.3143 0.823219 11.4046C0.734951 11.4949 0.665336 11.6017 0.61835 11.719C0.571365 11.8362 0.547929 11.9615 0.54938 12.0878V48.857C0.54938 49.112 0.650685 49.3566 0.831008 49.5369C1.01133 49.7172 1.2559 49.8185 1.51092 49.8185H35.1208C36.5485 49.8171 37.9172 49.2493 38.9267 48.2398C39.9362 47.2303 40.504 45.8616 40.5054 44.4339V23.4559C40.5054 23.3264 40.4791 23.1983 40.4281 23.0793C40.3771 22.9603 40.3025 22.8529 40.2087 22.7636ZM32.0274 22.4889C31.1098 22.4874 30.2302 22.1222 29.5813 21.4734C28.9325 20.8245 28.5673 19.9449 28.5659 19.0273V14.324L37.1373 22.4889H32.0274ZM38.5823 44.4339C38.5809 45.3515 38.2157 46.2311 37.5669 46.88C36.918 47.5288 36.0384 47.894 35.1208 47.8955H2.46147V13.0383H26.6373V19.0273C26.6387 20.4555 27.2063 21.8248 28.2157 22.8352C29.225 23.8455 30.5938 24.4145 32.0219 24.4174H38.5823V44.4339Z" fill="#393333"/>
<path d="M49.5879 12.3847C49.5879 12.3847 37.2033 0.587955 37.2033 0.58246C37.0255 0.417403 36.7921 0.325226 36.5494 0.324219H9.4945C9.23948 0.324219 8.99491 0.425523 8.81459 0.605847C8.63426 0.78617 8.53296 1.03074 8.53296 1.28576V8.26927C8.53296 8.52429 8.63426 8.76886 8.81459 8.94918C8.99491 9.12951 9.23948 9.23081 9.4945 9.23081C9.74951 9.23081 9.99408 9.12951 10.1744 8.94918C10.3547 8.76886 10.456 8.52429 10.456 8.26927V2.22532H35.5879V8.48905C35.5894 9.95946 36.1737 11.3693 37.213 12.4096C38.2522 13.4498 39.6615 14.0356 41.1319 14.0385H47.9615V34.8242C47.963 35.3009 47.8704 35.7732 47.6892 36.2141C47.5079 36.655 47.2415 37.0558 46.9052 37.3936C46.5689 37.7315 46.1693 37.9997 45.7293 38.1829C45.2892 38.3662 44.8173 38.4609 44.3407 38.4616H43.4615C43.2065 38.4616 42.9619 38.5629 42.7816 38.7432C42.6013 38.9235 42.5 39.1681 42.5 39.4231C42.5 39.6781 42.6013 39.9227 42.7816 40.103C42.9619 40.2834 43.2065 40.3847 43.4615 40.3847H44.3407C45.813 40.3818 47.2239 39.7945 48.2634 38.7518C49.303 37.7092 49.8861 36.2965 49.8846 34.8242V13.077C49.8846 12.9475 49.8583 12.8194 49.8073 12.7004C49.7563 12.5814 49.6817 12.474 49.5879 12.3847ZM46.5055 12.1154H41.1319C40.171 12.114 39.2501 11.7313 38.5712 11.0513C37.8923 10.3714 37.511 9.44988 37.511 8.48905V3.544L46.5165 12.1154H46.5055Z" fill="#393333"/>
<path d="M7.38451 26.78H14.2856C14.4131 26.7822 14.5397 26.7591 14.6582 26.7122C14.7767 26.6653 14.8848 26.5954 14.9762 26.5065C15.0676 26.4177 15.1405 26.3116 15.1908 26.1945C15.2411 26.0773 15.2677 25.9514 15.2691 25.824V18.8954C15.2692 18.7672 15.2436 18.6404 15.1939 18.5223C15.1442 18.4042 15.0714 18.2972 14.9798 18.2076C14.8882 18.118 14.7795 18.0476 14.6603 18.0006C14.5411 17.9536 14.4137 17.9309 14.2856 17.9338H7.38451C7.1295 17.9338 6.88493 18.0352 6.7046 18.2155C6.52428 18.3958 6.42297 18.6404 6.42297 18.8954V25.824C6.42443 26.078 6.52637 26.3212 6.70654 26.5003C6.8867 26.6795 7.13045 26.78 7.38451 26.78ZM8.34605 19.8569H13.3461V24.8569H8.34605V19.8569Z" fill="#393333"/>
</svg>
