<svg width="30" height="30" viewBox="0 0 30 30" fill="none" xmlns="http://www.w3.org/2000/svg">
<path d="M20.1889 1H9.57778C4.84444 1 1 4.84444 1 9.57778V20.1889C1 24.9222 4.84444 28.7667 9.57778 28.7667H20.1889C24.9222 28.7667 28.7667 24.9222 28.7667 20.1889V9.57778C28.7667 4.84444 24.9222 1 20.1889 1ZM25.6667 20.2C25.6667 23.2222 23.2111 25.6889 20.1778 25.6889H9.56666C6.54444 25.6889 4.07778 23.2333 4.07778 20.2V9.58889C4.07778 6.56667 6.53333 4.1 9.56666 4.1H20.1778C23.2 4.1 25.6667 6.55556 25.6667 9.58889V20.2Z" fill="white"/>
<path d="M14.8778 7.78891C10.9667 7.78891 7.77783 10.9778 7.77783 14.8889C7.77783 18.8 10.9667 21.9889 14.8778 21.9889C18.7889 21.9889 21.9778 18.8 21.9778 14.8889C21.9778 10.9778 18.7889 7.78891 14.8778 7.78891ZM14.8778 19.2C12.5001 19.2 10.5667 17.2667 10.5667 14.8889C10.5667 12.5111 12.5001 10.5778 14.8778 10.5778C17.2556 10.5778 19.1889 12.5111 19.1889 14.8889C19.1889 17.2667 17.2556 19.2 14.8778 19.2Z" fill="white"/>
<path d="M22.5184 8.56725C23.1725 8.46121 23.6168 7.84497 23.5108 7.19084C23.4048 6.53672 22.7885 6.0924 22.1344 6.19844C21.4803 6.30448 21.036 6.92072 21.142 7.57485C21.2481 8.22898 21.8643 8.67329 22.5184 8.56725Z" fill="white"/>
</svg>
