<svg width="40" height="40" viewBox="0 0 40 40" fill="none" xmlns="http://www.w3.org/2000/svg">
<g clip-path="url(#clip0)">
<path d="M9.35036 37.844C8.00111 37.844 6.90369 36.7463 6.90369 35.3974C6.90369 34.0481 8.00111 32.9507 9.35036 32.9507C10.6993 32.9507 11.797 34.0481 11.797 35.3974C11.797 36.7463 10.6993 37.844 9.35036 37.844ZM9.35036 34.1691C8.67302 34.1691 8.1221 34.72 8.1221 35.397C8.1221 36.074 8.67302 36.6249 9.35036 36.6249C10.0274 36.6249 10.5783 36.074 10.5783 35.397C10.5783 34.72 10.0274 34.1691 9.35036 34.1691Z" fill="#393333"/>
<path d="M17.6203 37.844C16.2713 37.844 15.1736 36.7463 15.1736 35.3974C15.1736 34.0481 16.2713 32.9507 17.6203 32.9507C18.9695 32.9507 20.0673 34.0481 20.0673 35.3974C20.0673 36.7463 18.9695 37.844 17.6203 37.844ZM17.6203 34.1691C16.9432 34.1691 16.3923 34.72 16.3923 35.397C16.3923 36.074 16.9432 36.6249 17.6203 36.6249C18.2976 36.6249 18.8485 36.074 18.8485 35.397C18.8485 34.72 18.2976 34.1691 17.6203 34.1691Z" fill="#393333"/>
<path d="M20.6436 31.9502H8.82179C7.52556 31.9498 6.43765 31.0206 6.2351 29.7404C6.23442 29.7366 6.23408 29.7326 6.2334 29.7285L4.32099 15.9124C4.21019 15.2306 3.62971 14.7361 2.93808 14.7361H0.522338C0.185874 14.7361 -0.0870361 14.4632 -0.0870361 14.1267C-0.0870361 13.7902 0.185874 13.5173 0.522338 13.5173H2.93808C4.23466 13.5173 5.32256 14.4469 5.52546 15.7271C5.52614 15.7312 5.52682 15.7349 5.52716 15.739L7.43957 29.5551C7.55037 30.2369 8.13085 30.7314 8.82179 30.7314H20.6436C20.9801 30.7314 21.253 31.0043 21.253 31.3408C21.253 31.6773 20.9804 31.9502 20.6436 31.9502Z" fill="#393333"/>
<path d="M19.0109 26.0009C19.0106 26.0009 19.0102 26.0009 19.0102 26.0009H6.24224C5.90543 26.0009 5.63286 25.728 5.63286 25.3915C5.63286 25.055 5.90543 24.7821 6.24224 24.7821H19.0102H19.0106C19.607 24.7821 20.1389 24.4035 20.334 23.84L22.3004 18.166H5.23828C4.90182 18.166 4.62891 17.8934 4.62891 17.5566C4.62891 17.2202 4.90182 16.9473 5.23828 16.9473H23.1565C23.3537 16.9473 23.5385 17.0428 23.6531 17.2035C23.7673 17.3639 23.7968 17.5699 23.7323 17.7561L21.4854 24.239C21.1204 25.2929 20.126 26.0009 19.0109 26.0009Z" fill="#393333"/>
<path d="M35.8437 29.4889H13.0722C10.8159 29.4889 8.98059 27.6533 8.98059 25.3973C8.98059 25.0608 9.2535 24.7879 9.58997 24.7879C9.92643 24.7879 10.1993 25.0608 10.1993 25.3973C10.1993 26.9814 11.4881 28.2702 13.0722 28.2702H35.8437C37.4278 28.2702 38.7166 26.9814 38.7166 25.3973V6.24532C38.7166 4.66156 37.4278 3.3728 35.8437 3.3728H13.0722C11.4881 3.3728 10.1993 4.66156 10.1993 6.24532V17.5624C10.1993 17.8989 9.92643 18.1718 9.58997 18.1718C9.2535 18.1718 8.98059 17.8989 8.98059 17.5624V6.24532C8.98059 3.98931 10.8159 2.15405 13.0722 2.15405H35.8437C38.0997 2.15405 39.9353 3.98931 39.9353 6.24532V25.3973C39.9353 27.6533 38.0997 29.4889 35.8437 29.4889Z" fill="#393333"/>
<path d="M39.3259 10.4871H9.58997C9.2535 10.4871 8.98059 10.2141 8.98059 9.87768C8.98059 9.54122 9.2535 9.26831 9.58997 9.26831H39.3259C39.6624 9.26831 39.9353 9.54122 39.9353 9.87768C39.9353 10.2141 39.6624 10.4871 39.3259 10.4871Z" fill="#393333"/>
<path d="M17.7565 8.05752C16.8147 8.05752 16.0483 7.29112 16.0483 6.34936C16.0483 5.40726 16.8147 4.64087 17.7565 4.64087C18.6986 4.64087 19.465 5.40726 19.465 6.34936C19.465 7.29112 18.6986 8.05752 17.7565 8.05752ZM17.7565 5.85962C17.4866 5.85962 17.2671 6.07917 17.2671 6.34936C17.2671 6.61921 17.4866 6.83877 17.7565 6.83877C18.0267 6.83877 18.2462 6.61921 18.2462 6.34936C18.2462 6.07917 18.0267 5.85962 17.7565 5.85962Z" fill="#393333"/>
<path d="M12.82 8.04237C11.8782 8.04237 11.1118 7.27598 11.1118 6.33388C11.1118 5.39178 11.8782 4.62573 12.82 4.62573C13.7621 4.62573 14.5284 5.39178 14.5284 6.33388C14.5284 7.27598 13.7621 8.04237 12.82 8.04237ZM12.82 5.84448C12.5501 5.84448 12.3306 6.06403 12.3306 6.33388C12.3306 6.60407 12.5501 6.82362 12.82 6.82362C13.0901 6.82362 13.3097 6.60407 13.3097 6.33388C13.3097 6.06403 13.0901 5.84448 12.82 5.84448Z" fill="#393333"/>
<path d="M22.693 8.07314C21.7509 8.07314 20.9845 7.30675 20.9845 6.36465C20.9845 5.42255 21.7509 4.65649 22.693 4.65649C23.6347 4.65649 24.4011 5.42255 24.4011 6.36465C24.4011 7.30675 23.6347 8.07314 22.693 8.07314ZM22.693 5.87524C22.4228 5.87524 22.2032 6.0948 22.2032 6.36465C22.2032 6.6345 22.4228 6.85439 22.693 6.85439C22.9628 6.85439 23.1824 6.6345 23.1824 6.36465C23.1824 6.0948 22.9628 5.87524 22.693 5.87524Z" fill="#393333"/>
</g>
<defs>
<clipPath id="clip0">
<rect width="40" height="40" fill="white"/>
</clipPath>
</defs>
</svg>
