<svg width="50" height="50" viewBox="0 0 50 50" fill="none" xmlns="http://www.w3.org/2000/svg">
<path d="M31.3187 34.4834H27.7473C27.4923 34.4834 27.2477 34.5847 27.0674 34.765C26.8871 34.9454 26.7858 35.1899 26.7858 35.4449C26.7858 35.7 26.8871 35.9445 27.0674 36.1249C27.2477 36.3052 27.4923 36.4065 27.7473 36.4065H31.3187C31.5738 36.4065 31.8183 36.3052 31.9986 36.1249C32.179 35.9445 32.2803 35.7 32.2803 35.4449C32.2803 35.1899 32.179 34.9454 31.9986 34.765C31.8183 34.5847 31.5738 34.4834 31.3187 34.4834Z" fill="#393333"/>
<path d="M11.3902 16.643C12.1256 18.5295 13.3394 20.192 14.9121 21.4672C15.7712 22.3187 16.866 22.893 18.055 23.1155C18.7263 23.2297 19.4138 23.2052 20.0753 23.0436C20.7367 22.882 21.3581 22.5867 21.9011 22.176C23.9055 20.9075 25.4679 19.0495 26.3737 16.8573C27.2123 14.7177 27.6266 12.4353 27.5935 10.1375C27.5935 10.1375 27.5935 9.62102 27.5935 9.46168C27.519 8.00534 27.0685 6.59316 26.2858 5.36277C25.5369 4.15039 24.5105 3.13341 23.2913 2.39574C22.0675 1.64003 20.6682 1.21586 19.2308 1.16497C17.8353 1.11101 16.4496 1.41958 15.2088 2.06058C13.6123 2.85595 12.2943 4.11647 11.4286 5.67596C10.742 6.87001 10.3643 8.21658 10.3297 9.59354C10.3055 10.5235 10.3422 11.4541 10.4396 12.3793C10.581 13.834 10.9003 15.2659 11.3902 16.643ZM13.1099 6.62102C13.7883 5.39535 14.823 4.40471 16.077 3.78036C16.962 3.32304 17.9434 3.0838 18.9396 3.08255H19.1704C20.2764 3.12391 21.3531 3.44938 22.2968 4.02761C23.2605 4.60961 24.0707 5.41414 24.6594 6.37376C25.2955 7.52655 25.6442 8.81575 25.6759 10.132C25.7019 12.1861 25.3287 14.2257 24.577 16.1375C23.8339 17.9632 22.5417 19.5127 20.8792 20.5716C19.8737 21.2199 19.2638 21.3793 18.3737 21.2364C17.5361 21.0478 16.772 20.618 16.1759 20.0001C14.853 18.9385 13.824 17.5557 13.1869 15.9837C12.7524 14.7516 12.4701 13.471 12.3462 12.1705C12.2545 11.3294 12.2178 10.4833 12.2363 9.6375C12.273 8.57514 12.5732 7.53855 13.1099 6.62102Z" fill="#393333"/>
<path d="M38.8627 20.143L39.3627 18.8024C39.4468 18.5645 39.4341 18.3031 39.3272 18.0745C39.2203 17.8459 39.0279 17.6685 38.7914 17.5806C38.5549 17.4926 38.2933 17.5011 38.063 17.6043C37.8327 17.7075 37.6523 17.897 37.5605 18.1321L37.1924 19.1156H36.3022L35.9341 18.1321C35.8897 18.0137 35.8225 17.9053 35.7362 17.8129C35.6499 17.7206 35.5463 17.6461 35.4312 17.5938C35.1989 17.4882 34.9341 17.4792 34.6951 17.5689C34.5768 17.6132 34.4683 17.6805 34.376 17.7668C34.2836 17.8531 34.2092 17.9567 34.1569 18.0717C34.0513 18.3041 34.0423 18.5689 34.1319 18.8079L34.6154 20.143L33.0935 26.5936V26.676C31.3401 25.7544 29.485 25.0408 27.566 24.5496L27.7088 24.0661C27.7618 23.8922 27.7641 23.7068 27.7155 23.5316C27.6668 23.3564 27.5692 23.1988 27.4341 23.0771L26.0495 21.7859L26.2308 21.1925C26.5935 19.9727 29.5935 18.7529 31.6044 18.2749C31.7341 18.253 31.8578 18.2048 31.9681 18.1332C32.0783 18.0617 32.1727 17.9682 32.2454 17.8588C32.3182 17.7493 32.3677 17.626 32.3909 17.4966C32.4141 17.3673 32.4105 17.2345 32.3804 17.1065C32.3503 16.9786 32.2943 16.8582 32.2158 16.7527C32.1374 16.6473 32.0381 16.559 31.9242 16.4935C31.8103 16.4279 31.6841 16.3863 31.5535 16.3714C31.4229 16.3565 31.2906 16.3686 31.1649 16.4068C30.1759 16.6375 25.1924 17.9397 24.3902 20.643L23.9231 22.187L18.9781 26.9452L13.3957 21.6156C13.2163 21.4471 12.9796 21.3534 12.7336 21.3534C12.4876 21.3534 12.2508 21.4471 12.0715 21.6156L10.4891 23.0771C10.359 23.1998 10.2654 23.3562 10.2189 23.5288C10.1723 23.7015 10.1746 23.8837 10.2253 24.0551L10.3792 24.5606C8.40115 25.1101 2.3517 26.9507 1.3462 30.3024C1.32995 30.358 1.31892 30.415 1.31324 30.4727L0.313236 39.3848C0.298725 39.5101 0.309137 39.637 0.343873 39.7582C0.378608 39.8794 0.436981 39.9925 0.515629 40.0911C0.594277 40.1897 0.691647 40.2717 0.802132 40.3325C0.912617 40.3933 1.03403 40.4316 1.15939 40.4452H1.26928C1.50015 40.4401 1.72137 40.3516 1.89205 40.1961C2.06274 40.0405 2.17136 39.8285 2.19785 39.5991L3.21433 30.7694C3.88466 28.8463 8.09895 27.1321 10.9066 26.3738L12.1539 30.5881C12.1933 30.7162 12.2584 30.835 12.3453 30.937C12.4323 31.0391 12.5391 31.1223 12.6594 31.1815C12.7823 31.2357 12.9152 31.2637 13.0495 31.2637C13.1838 31.2637 13.3167 31.2357 13.4396 31.1815L15.6924 30.2749L16.3407 32.0057L14.066 44.4178C14.0365 44.5705 14.0451 44.7281 14.0911 44.8766C14.1371 45.0252 14.2191 45.1601 14.3297 45.2694L18.2803 49.2309C18.3691 49.3205 18.4748 49.3916 18.5913 49.4401C18.7078 49.4886 18.8327 49.5135 18.9588 49.5135C19.085 49.5135 19.2099 49.4886 19.3264 49.4401C19.4428 49.3916 19.5485 49.3205 19.6374 49.2309L23.6649 45.2529C23.7754 45.1411 23.8576 45.0045 23.9044 44.8544C23.9513 44.7043 23.9615 44.5451 23.9341 44.3903L21.5935 32.0661L22.2363 30.3463L24.4726 31.2474C24.5855 31.2953 24.707 31.3196 24.8297 31.3189C24.974 31.318 25.1164 31.2862 25.2473 31.2255C25.3681 31.167 25.4755 31.0841 25.5625 30.9819C25.6495 30.8798 25.7143 30.7606 25.7528 30.6321L27.011 26.3738C29.8627 27.1046 34.2418 28.8683 34.8352 30.8518C35.6759 33.6485 35.8022 39.4342 35.8022 39.4947C35.808 39.7459 35.9118 39.9848 36.0915 40.1604C36.2712 40.336 36.5125 40.4343 36.7638 40.4342C36.8901 40.4321 37.0147 40.4051 37.1305 40.3548C37.2464 40.3045 37.3511 40.2318 37.4389 40.141C37.5267 40.0502 37.5957 39.943 37.642 39.8255C37.6883 39.708 37.711 39.5825 37.7088 39.4562C37.7088 39.209 37.577 33.3463 36.6594 30.2969C36.2571 29.1935 35.5119 28.248 34.533 27.5991C34.7354 27.4739 34.8842 27.2781 34.9506 27.0496L36.3737 21.0716H37.088L38.5605 27.0331C38.5894 27.1568 38.6426 27.2736 38.717 27.3766C38.7913 27.4796 38.8853 27.5669 38.9936 27.6334C39.1018 27.6998 39.2222 27.7442 39.3477 27.7639C39.4732 27.7836 39.6013 27.7782 39.7247 27.7481C39.8482 27.718 39.9644 27.6637 40.0667 27.5884C40.169 27.5131 40.2554 27.4182 40.3208 27.3094C40.3863 27.2005 40.4295 27.0797 40.448 26.954C40.4665 26.8283 40.4599 26.7002 40.4286 26.5771L38.8627 20.143ZM12.2418 24.0881L12.7198 23.6375L17.033 27.7474L13.7363 29.0716L12.2418 24.0881ZM18.9671 47.198L16.044 44.2694L18.1319 32.9672H19.7803L21.9176 44.2529L18.9671 47.198ZM19.9341 31.0112H18.0165L17.4946 29.6211L18.9616 29.0277L20.4506 29.6321L19.9341 31.0112ZM24.2088 29.0716L20.9121 27.7419L25.2033 23.6266L25.6869 24.0771L24.2088 29.0716Z" fill="#393333"/>
<path d="M49.1594 20.6539C48.3517 17.9506 43.3736 16.6484 42.3846 16.4176C42.2594 16.3807 42.128 16.3697 41.9984 16.3853C41.8688 16.4008 41.7437 16.4426 41.6308 16.508C41.5179 16.5735 41.4194 16.6612 41.3415 16.7659C41.2636 16.8707 41.2078 16.9901 41.1775 17.1171C41.1473 17.2441 41.1432 17.3759 41.1656 17.5045C41.1879 17.6331 41.2362 17.7558 41.3075 17.8652C41.3788 17.9745 41.4716 18.0682 41.5803 18.1405C41.6889 18.2128 41.8112 18.2622 41.9396 18.2857C43.8956 18.7473 46.9561 19.9945 47.3187 21.2033C47.7016 22.7827 47.9189 24.3976 47.967 26.022C47.9728 26.2732 48.0766 26.5122 48.2563 26.6878C48.436 26.8634 48.6773 26.9616 48.9286 26.9616C49.1841 26.9544 49.4264 26.8463 49.6025 26.661C49.7785 26.4756 49.8741 26.2281 49.8681 25.9726C49.8239 24.1793 49.5863 22.3961 49.1594 20.6539Z" fill="#393333"/>
<path d="M45.2088 23.2913H42.7583C42.5033 23.2913 42.2587 23.3926 42.0784 23.5729C41.8981 23.7532 41.7968 23.9978 41.7968 24.2528C41.7968 24.5078 41.8981 24.7524 42.0784 24.9327C42.2587 25.113 42.5033 25.2143 42.7583 25.2143H45.2088C45.4639 25.2143 45.7084 25.113 45.8888 24.9327C46.0691 24.7524 46.1704 24.5078 46.1704 24.2528C46.1704 23.9978 46.0691 23.7532 45.8888 23.5729C45.7084 23.3926 45.4639 23.2913 45.2088 23.2913Z" fill="#393333"/>
<path d="M31.2693 11.478C31.7888 12.8227 32.6506 14.0084 33.7693 14.9176C34.5578 15.6992 35.6154 16.1494 36.7253 16.1758C37.5193 16.1755 38.2913 15.9149 38.9231 15.4341C40.3507 14.5279 41.4621 13.2015 42.1045 11.6374C42.6935 10.1365 42.9847 8.53526 42.9616 6.92309C42.9616 6.92309 42.9616 6.56045 42.9616 6.44506C42.9075 5.3971 42.5838 4.38082 42.022 3.49451C41.4837 2.6228 40.7454 1.89198 39.8682 1.36265C38.9848 0.815254 37.9729 0.510151 36.9341 0.478031C35.9298 0.432092 34.9306 0.645937 34.033 1.09891C32.8824 1.67571 31.9355 2.59011 31.3187 3.71979C30.8189 4.5788 30.5449 5.5504 30.522 6.54397C30.5059 7.19343 30.5335 7.84324 30.6044 8.48902C30.7049 9.50849 30.9281 10.5121 31.2693 11.478ZM32.9946 4.66484C33.43 3.87718 34.095 3.24087 34.9012 2.84067C35.4598 2.54565 36.0826 2.39279 36.7143 2.39561H36.8682C37.5749 2.42127 38.2625 2.63155 38.8627 3.0055C39.4641 3.39821 39.9799 3.90843 40.3792 4.5055C40.855 5.21642 41.0847 6.0637 41.033 6.91759C41.0552 8.28681 40.8107 9.64725 40.3132 10.9231C39.829 12.1202 38.9765 13.1324 37.8792 13.8132C36.9012 14.4176 35.588 13.9341 35.011 13.4451C34.1497 12.7542 33.4831 11.851 33.077 10.8242C32.7906 10.0018 32.6061 9.14747 32.5275 8.28023C32.4623 7.72044 32.4347 7.1569 32.4451 6.59342C32.4625 5.91448 32.6515 5.251 32.9946 4.66484Z" fill="#393333"/>
</svg>
