<svg width="18" height="18" viewBox="0 0 18 18" fill="none" xmlns="http://www.w3.org/2000/svg">
<path d="M14.9466 1.21484H5.45502C4.44455 1.21484 3.62251 2.03936 3.62251 3.05287V3.62195H3.04736C2.03688 3.62195 1.21484 4.44646 1.21484 5.46054V14.9467C1.21484 15.9602 2.03688 16.7847 3.04736 16.7847H12.5393C13.553 16.7847 14.3776 15.9602 14.3776 14.9467V14.3776H14.9466C15.9604 14.3776 16.7852 13.5531 16.7852 12.539V3.05281C16.7852 2.03936 15.9604 1.21484 14.9466 1.21484ZM13.2526 14.9466C13.2526 15.3399 12.9326 15.6597 12.5393 15.6597H3.04736C2.65732 15.6597 2.33984 15.3399 2.33984 14.9466V5.46048C2.33984 5.06718 2.65738 4.74689 3.04736 4.74689H4.18501H12.5393C12.9326 4.74689 13.2526 5.06713 13.2526 5.46048V13.815V14.9466ZM15.6602 12.539C15.6602 12.9323 15.3402 13.2526 14.9466 13.2526H14.3775V5.46048C14.3775 4.44646 13.553 3.62189 12.5392 3.62189H4.74746V3.05281C4.74746 2.65951 5.06499 2.33979 5.45497 2.33979H14.9466C15.3402 2.33979 15.6602 2.65951 15.6602 3.05281V12.539Z" fill="white"/>
</svg>
