<svg width="11" height="12" viewBox="0 0 11 12" fill="none" xmlns="http://www.w3.org/2000/svg">
<g clip-path="url(#clip0_2207_1758)">
<path d="M10.5383 3.66503L9.41534 2.94746L9.16232 1.82892C9.04998 1.33283 8.61975 1.00211 8.148 1.04176L6.86302 1.14797L6.12692 0.451928C5.76437 0.12155 5.23691 0.12155 4.87311 0.451584L4.13699 1.14795L2.85201 1.04174C2.38561 1.00679 1.94973 1.33313 1.84934 1.78821C1.82856 1.85719 1.45329 3.10296 1.47766 3.02203L0.461834 3.66466C0.0549198 3.93153 -0.108104 4.46726 0.0741054 4.93849L0.512494 6.07316L0.0744277 7.20752C-0.108104 7.67907 0.0552206 8.21448 0.461834 8.481L1.5837 9.19354L1.83767 10.3171C1.94939 10.8129 2.37772 11.1419 2.85199 11.1043L4.12312 10.9994L4.87307 11.7036C5.05468 11.869 5.27719 11.9517 5.50001 11.9517C5.7225 11.9517 5.94533 11.869 6.12692 11.7036L6.87687 10.9994L8.148 11.1043C8.62826 11.1449 9.0506 10.8132 9.16232 10.3171L9.41534 9.19857L10.5383 8.481C10.9446 8.21448 11.1077 7.67907 10.9258 7.20752L10.4874 6.07319L10.9261 4.93817C11.108 4.4673 10.945 3.93155 10.5383 3.66503ZM5.50001 9.86373C3.54534 9.86373 1.95508 8.1654 1.95508 6.07789C1.95508 3.99038 3.54534 2.29205 5.50001 2.29205C7.45468 2.29205 9.04493 3.99038 9.04493 6.07789C9.04493 8.1654 7.45468 9.86373 5.50001 9.86373Z" fill="#0AA880"/>
<path d="M5.5 2.98047C3.90064 2.98047 2.59961 4.36992 2.59961 6.07797C2.59961 7.78603 3.90064 9.17548 5.5 9.17548C7.09936 9.17548 8.40039 7.78603 8.40039 6.07797C8.40039 4.36992 7.09936 2.98047 5.5 2.98047ZM7.33917 5.2888L5.40558 7.3538C5.34263 7.42103 5.26017 7.45464 5.17773 7.45464C5.0953 7.45464 5.01282 7.42103 4.94989 7.3538L3.66083 5.97713C3.53495 5.8427 3.53495 5.62489 3.66083 5.49046C3.78671 5.35603 3.99066 5.35603 4.11654 5.49046L5.17773 6.6238L6.88349 4.80212C7.00936 4.66769 7.21331 4.66769 7.33919 4.80212C7.46507 4.93655 7.46507 5.15437 7.33917 5.2888Z" fill="#0AA880"/>
</g>
<defs>
<clipPath id="clip0_2207_1758">
<rect width="11" height="11.7476" fill="white" transform="translate(0 0.204102)"/>
</clipPath>
</defs>
</svg>
