<svg width="23" height="23" viewBox="0 0 23 23" fill="none" xmlns="http://www.w3.org/2000/svg">
<g clip-path="url(#clip0_1558_3991)">
<path d="M21.0506 2.41005C18.5298 -0.0564271 14.4999 -0.0558906 11.9797 2.41127L1.40987 12.9811C-0.501366 14.9374 -0.46484 18.0726 1.49145 19.9839C3.41556 21.8637 6.4885 21.8637 8.4126 19.9839L17.9837 10.4127C19.228 9.16847 19.228 7.15108 17.9837 5.90681C16.7395 4.66255 14.7221 4.66255 13.4778 5.90681L4.3228 15.0618C4.00348 15.3924 4.01265 15.9193 4.34328 16.2386C4.66582 16.5501 5.17713 16.5501 5.49967 16.2386L14.6546 7.08363C15.2617 6.50205 16.2253 6.52278 16.8069 7.12986C17.3709 7.71861 17.3709 8.64717 16.8069 9.23592L7.23579 18.807C5.94281 20.0816 3.86133 20.0667 2.58674 18.7737C1.32502 17.4938 1.32502 15.4379 2.58674 14.158L13.1566 3.58809C15.0393 1.70466 18.0923 1.70412 19.9758 3.58683C21.8592 5.46953 21.8598 8.52262 19.977 10.4061L9.40718 20.9759C9.05807 21.2749 9.0174 21.8003 9.31638 22.1494C9.61537 22.4985 10.1408 22.5392 10.4899 22.2402C10.5225 22.2123 10.5528 22.182 10.5807 22.1494L21.1506 11.5796C23.655 9.01988 23.6103 4.91453 21.0506 2.41005Z" fill="white"/>
</g>
<defs>
<clipPath id="clip0_1558_3991">
<rect width="23" height="23" fill="white"/>
</clipPath>
</defs>
</svg>
