<svg width="17" height="17" viewBox="0 0 17 17" fill="none" xmlns="http://www.w3.org/2000/svg">
<g clip-path="url(#clip0_1558_4013)">
<path d="M16.2865 5.00833L14.551 3.96994L14.1599 2.35128C13.9863 1.6334 13.3214 1.15481 12.5924 1.21218L10.6065 1.36588L9.46888 0.358631C8.90857 -0.119461 8.0934 -0.119461 7.53118 0.358133L6.39354 1.36585L4.40766 1.21215C3.68685 1.16158 3.01323 1.63383 2.85807 2.29238C2.82596 2.39219 2.246 4.19495 2.28365 4.07785L0.713743 5.0078C0.0848761 5.39398 -0.167069 6.16924 0.114527 6.85117L0.792036 8.49316L0.115025 10.1347C-0.167069 10.8171 0.0853409 11.5919 0.713743 11.9776L2.44754 13.0087L2.84004 14.6346C3.01269 15.352 3.67467 15.8282 4.40762 15.7737L6.37209 15.622L7.53111 16.6411C7.81177 16.8803 8.15566 17 8.50001 17C8.84386 17 9.18824 16.8803 9.46888 16.641L10.6279 15.622L12.5924 15.7737C13.3346 15.8325 13.9873 15.3525 14.1599 14.6346L14.551 13.016L16.2865 11.9776C16.9144 11.5919 17.1664 10.8171 16.8853 10.1347L16.2078 8.4932L16.8858 6.85071C17.1669 6.16931 16.9149 5.39402 16.2865 5.00833ZM8.50001 13.9785C5.47916 13.9785 3.02149 11.5209 3.02149 8.5C3.02149 5.47915 5.47916 3.02149 8.50001 3.02149C11.5209 3.02149 13.9785 5.47915 13.9785 8.5C13.9785 11.5209 11.5209 13.9785 8.50001 13.9785Z" fill="#0AA880"/>
<path d="M8.5 4.01758C6.02826 4.01758 4.01758 6.02826 4.01758 8.5C4.01758 10.9717 6.02826 12.9824 8.5 12.9824C10.9717 12.9824 12.9824 10.9717 12.9824 8.5C12.9824 6.02826 10.9717 4.01758 8.5 4.01758ZM11.3424 7.35798L8.35407 10.3463C8.25679 10.4435 8.12935 10.4922 8.00195 10.4922C7.87455 10.4922 7.74709 10.4435 7.64983 10.3463L5.65765 8.35407C5.46311 8.15953 5.46311 7.84434 5.65765 7.6498C5.85218 7.45526 6.16738 7.45526 6.36192 7.6498L8.00195 9.28987L10.6381 6.65371C10.8327 6.45917 11.1478 6.45917 11.3424 6.65371C11.5369 6.84824 11.5369 7.16344 11.3424 7.35798Z" fill="#0AA880"/>
</g>
<defs>
<clipPath id="clip0_1558_4013">
<rect width="17" height="17" fill="white"/>
</clipPath>
</defs>
</svg>
