<svg width="20" height="20" viewBox="0 0 20 20" fill="none" xmlns="http://www.w3.org/2000/svg">
<path d="M19.8105 10.0638C20.0488 9.67598 19.9178 9.1189 19.4951 8.91766C19.4951 8.91766 1.21118 0.173125 1.20724 0.172563C0.922802 0.0421479 0.572593 0.0876807 0.334811 0.302978C0.107148 0.510404 0.0149579 0.871293 0.121201 1.16192L2.91219 8.84009C2.91219 8.84009 8.01298 8.84009 8.02198 8.84009C9.03381 8.84009 9.05911 10.4304 8.02197 10.4298L2.91219 10.4298C2.91219 10.4298 0.123448 18.099 0.119514 18.1119C0.0278864 18.4025 0.100964 18.7184 0.305017 18.9416C0.526498 19.1845 0.918866 19.2216 1.21005 19.0968C1.21005 19.0968 19.4833 10.3573 19.4945 10.3517C19.6272 10.2898 19.7346 10.187 19.8105 10.0638Z" fill="white"/>
</svg>
