<svg width="16" height="14" viewBox="0 0 16 14" fill="none" xmlns="http://www.w3.org/2000/svg">
<path d="M14.3657 12H2.24414C1.69186 12 1.24414 12.4477 1.24414 13C1.24414 13.5523 1.69186 14 2.24414 14H14.3657C14.918 14 15.3657 13.5523 15.3657 13C15.3657 12.4477 14.918 12 14.3657 12Z" fill="#FF5F73"/>
<path d="M14.3647 8H5.50195C4.94967 8 4.50195 8.44772 4.50195 9C4.50195 9.55228 4.94967 10 5.50195 10H14.3647C14.9169 10 15.3647 9.55228 15.3647 9C15.3647 8.44772 14.9169 8 14.3647 8Z" fill="#FF5F73"/>
<path d="M14.366 4H1.1582C0.605918 4 0.158203 4.44772 0.158203 5C0.158203 5.55228 0.605918 6 1.1582 6H14.366C14.9183 6 15.366 5.55228 15.366 5C15.366 4.44772 14.9183 4 14.366 4Z" fill="#FF5F73"/>
<path d="M14.3654 0H3.33008C2.77779 0 2.33008 0.447715 2.33008 1C2.33008 1.55228 2.77779 2 3.33008 2H14.3654C14.9177 2 15.3654 1.55228 15.3654 1C15.3654 0.447715 14.9177 0 14.3654 0Z" fill="#FF5F73"/>
</svg>
