<svg width="13" height="7" viewBox="0 0 13 7" fill="none" xmlns="http://www.w3.org/2000/svg">
<path d="M6.58797 6.60576L12.0269 1.46238C12.1528 1.34342 12.2222 1.18462 12.2222 1.0153C12.2222 0.84597 12.1528 0.687168 12.0269 0.568208L11.6265 0.189434C11.3655 -0.0570369 10.9414 -0.0570369 10.6809 0.189434L6.11359 4.50846L1.54123 0.184641C1.41533 0.0656813 1.2475 -4.79718e-07 1.06854 -4.87541e-07C0.889379 -4.95372e-07 0.721548 0.0656813 0.595551 0.184641L0.195202 0.563416C0.0693035 0.68247 -5.43962e-05 0.841177 -5.44036e-05 1.0105C-5.4411e-05 1.17983 0.0693035 1.33863 0.195202 1.45759L5.63911 6.60576C5.76541 6.725 5.93403 6.7905 6.11329 6.79012C6.29325 6.7905 6.46177 6.725 6.58797 6.60576Z" fill="#444444"/>
</svg>
