<svg width="29" height="29" viewBox="0 0 29 29" fill="none" xmlns="http://www.w3.org/2000/svg">
<path d="M14.5 23.0792C15.6102 23.0792 16.5343 22.2286 16.6278 21.1223L18.0712 3.88369C18.1552 2.88389 17.8162 1.89554 17.1376 1.15735C16.4598 0.420111 15.5026 0 14.5 0C13.4974 0 12.5402 0.420111 11.8624 1.15735C11.1836 1.89554 10.8448 2.88389 10.9288 3.88369L12.3722 21.1223C12.4657 22.2286 13.3898 23.0792 14.5 23.0792Z" fill="white"/>
<path d="M14.5 24.3479C13.2151 24.3479 12.1739 25.3891 12.1739 26.674C12.1739 27.9588 13.2151 28.9999 14.5 28.9999C15.7848 28.9999 16.826 27.9588 16.826 26.674C16.826 25.3891 15.7848 24.3479 14.5 24.3479Z" fill="white"/>
</svg>
