<svg width="15" height="15" viewBox="0 0 15 15" fill="none" xmlns="http://www.w3.org/2000/svg">
<g clip-path="url(#clip0_2206_1520)">
<path d="M7.5 0C3.38057 0 0 3.38057 0 7.5C0 11.6194 3.38057 15 7.5 15C11.6194 15 15 11.6194 15 7.5C15 3.38057 11.6194 0 7.5 0ZM8.37891 11.0156C8.37891 11.5001 7.98451 11.8945 7.5 11.8945C7.01549 11.8945 6.62109 11.5001 6.62109 11.0156V6.62109C6.62109 6.13658 7.01549 5.74219 7.5 5.74219C7.98451 5.74219 8.37891 6.13658 8.37891 6.62109V11.0156ZM7.5 4.86328C7.01549 4.86328 6.62109 4.46889 6.62109 3.98438C6.62109 3.49986 7.01549 3.10547 7.5 3.10547C7.98451 3.10547 8.37891 3.49986 8.37891 3.98438C8.37891 4.46889 7.98451 4.86328 7.5 4.86328Z" fill="#6C6C6C"/>
</g>
<defs>
<clipPath id="clip0_2206_1520">
<rect width="15" height="15" fill="white"/>
</clipPath>
</defs>
</svg>
