<svg width="23" height="23" viewBox="0 0 23 23" fill="none" xmlns="http://www.w3.org/2000/svg">
<path d="M11.5 4.64453C7.10561 4.64453 3.12054 7.04875 0.179963 10.9538C-0.0599877 11.2738 -0.0599877 11.7207 0.179963 12.0407C3.12054 15.9505 7.10561 18.3547 11.5 18.3547C15.8944 18.3547 19.8795 15.9505 22.82 12.0454C23.06 11.7254 23.06 11.2785 22.82 10.9585C19.8795 7.04875 15.8944 4.64453 11.5 4.64453ZM11.8152 16.3268C8.89818 16.5103 6.48926 14.1061 6.67275 11.1844C6.82331 8.77545 8.77585 6.82291 11.1848 6.67235C14.1018 6.48886 16.5107 8.89307 16.3272 11.8148C16.172 14.219 14.2194 16.1716 11.8152 16.3268ZM11.6694 14.0967C10.0979 14.1955 8.79938 12.9017 8.90288 11.3302C8.98287 10.0317 10.0368 8.98247 11.3353 8.89778C12.9068 8.79898 14.2053 10.0928 14.1018 11.6643C14.0171 12.9675 12.9632 14.0167 11.6694 14.0967Z" fill="#444444"/>
</svg>
