<svg width="12" height="12" viewBox="0 0 12 12" fill="none" xmlns="http://www.w3.org/2000/svg">
<path d="M2.8125 4.0625H0V11.4856H2.8125V4.0625Z" fill="#0AA880"/>
<path d="M11.7443 7.16594C11.7443 6.89816 11.6555 6.65078 11.5058 6.45161C11.8049 6.23493 12 5.88311 12 5.48643C12 4.82955 11.4656 4.29513 10.8087 4.29513H8.10059L8.47746 2.99334V2.36959C8.47746 1.22024 7.54238 0.285156 6.39302 0.285156C6.11433 0.285156 5.88762 0.511891 5.88762 0.790563V2.17337C5.69967 2.47417 4.65595 3.64534 3.51562 4.87239V11.0245L4.4887 11.3894C5.06707 11.6063 5.67354 11.7163 6.29126 11.7163H10.0417C10.6986 11.7163 11.233 11.1818 11.233 10.5249C11.233 10.2573 11.1443 10.0099 10.9947 9.81081C11.2937 9.59416 11.4887 9.2421 11.4887 8.84542C11.4887 8.57765 11.3998 8.33027 11.2501 8.13109C11.5492 7.91448 11.7443 7.56266 11.7443 7.16594Z" fill="#0AA880"/>
</svg>
