<svg width="18" height="18" viewBox="0 0 18 18" fill="none" xmlns="http://www.w3.org/2000/svg">
<path d="M4.21875 11.9062H0V0.771563H4.21875V11.9062Z" fill="#7A2409"/>
<path d="M17.6165 7.25305C17.6165 7.65471 17.4832 8.02578 17.2587 8.32454C17.7073 8.64956 18 9.17729 18 9.77231C18 10.7576 17.1983 11.5593 16.213 11.5593H12.1509L12.7162 13.5119V14.4476C12.7162 16.1716 11.3136 17.5742 9.58954 17.5742C9.17149 17.5742 8.83143 17.2341 8.83143 16.8161V14.7419C8.54951 14.2907 6.98393 12.5339 5.27344 10.6934V1.4652L6.73305 0.917854C7.60061 0.59252 8.51031 0.427567 9.43689 0.427567H15.0626C16.0479 0.427567 16.8495 1.22923 16.8495 2.21456C16.8495 2.61604 16.7164 2.98705 16.492 3.28573C16.9406 3.61072 17.233 4.1388 17.233 4.73382C17.233 5.13548 17.0997 5.50655 16.8752 5.80531C17.3238 6.13023 17.6165 6.65796 17.6165 7.25305Z" fill="#7A2409"/>
</svg>
