<svg width="183" height="27" viewBox="0 0 183 27" fill="none" xmlns="http://www.w3.org/2000/svg">
<mask id="mask0_282_22481" style="mask-type:alpha" maskUnits="userSpaceOnUse" x="38" y="5" width="145" height="20">
<path fill-rule="evenodd" clip-rule="evenodd" d="M40.6197 11.2455C44.0638 11.2455 47.9689 11.254 49.4605 11.254V12.7266H51.6896C51.6896 11.4583 51.6896 10.1985 51.6896 8.93022C49.1505 8.93022 42.899 8.92171 38.4074 8.92171V8.93022H38.3906V21.9791H38.4074V22.0046C42.9409 22.0046 49.251 22.0131 51.832 22.0131C51.832 20.7534 51.832 19.4851 51.832 18.2253H49.603V19.6894C48.0695 19.6894 44.1057 19.6894 40.6113 19.6809V11.2455H40.6197ZM124.67 5.97656H126.916V8.90468C128.819 8.90468 130.712 8.90468 132.615 8.90468C132.615 11.7732 132.615 19.0765 132.615 21.945C130.712 21.945 128.819 21.9365 126.916 21.945V24.8817C126.17 24.8817 125.416 24.8817 124.67 24.8817V21.945C122.751 21.945 120.832 21.945 118.913 21.945V8.9132C120.439 8.9132 122.559 8.9132 124.67 8.9132V5.98507V5.97656ZM54.7147 8.93022C54.7147 13.2884 54.7147 17.6465 54.7147 22.0046C55.4606 22.0046 56.198 22.0046 56.9438 22.0046C56.9438 20.5065 56.9438 19.0169 56.9438 17.5188C58.8125 17.5188 60.5137 17.5188 62.3824 17.5188L65.2735 22.0046C66.0612 22.0046 67.0165 22.0046 67.8042 22.0046L64.9802 17.5188H65.0807H67.2763C67.2763 14.6503 67.2763 11.7902 67.2763 8.92171C63.0947 8.92171 58.9047 8.92171 54.7231 8.92171L54.7147 8.93022ZM65.0388 11.254V15.3057C62.3405 15.3057 59.6421 15.3057 56.9354 15.3057C56.9354 13.9523 56.9354 12.6074 56.9354 11.254C59.6338 11.254 62.3321 11.254 65.0304 11.254H65.0388ZM130.386 11.2285V19.7149C127.302 19.7149 124.218 19.7149 121.134 19.7149C121.134 16.8889 121.134 14.0544 121.134 11.2285C124.218 11.2285 127.302 11.2285 130.386 11.2285ZM87.0613 8.93022C87.0613 13.2884 87.0613 17.6465 87.0613 22.0046C87.8071 22.0046 88.5445 22.0046 89.2904 22.0046C89.2904 20.7363 89.2904 19.4595 89.2904 18.1913V17.5273H89.8015C93.0781 17.5273 96.3463 17.5273 99.6228 17.5273C99.6228 14.6588 99.6228 11.7988 99.6228 8.93022C95.4412 8.93022 91.2513 8.93022 87.0697 8.93022H87.0613ZM97.3854 11.254V15.3057C95.2066 15.3057 91.9133 15.3057 89.7932 15.3057H89.282V14.6332C89.282 13.731 89.282 12.8202 89.282 11.9179V11.254H89.7932C91.9217 11.254 95.215 11.254 97.3854 11.254ZM182.978 22.0131C180.9 17.655 178.813 13.2969 176.735 8.93873C175.822 8.93873 174.908 8.93873 173.995 8.93873C171.908 13.2969 169.822 17.655 167.735 22.0131C168.59 22.0131 169.444 22.0131 170.308 22.0131C170.66 21.2385 171.012 20.4725 171.355 19.6979L171.506 19.3744H171.799C174.171 19.3744 176.551 19.3744 178.922 19.3744H179.207L179.358 19.6979C179.71 20.4725 180.07 21.2385 180.422 22.0131C181.277 22.0131 182.123 22.0131 182.978 22.0131ZM175.796 11.9435C176.484 13.4416 177.171 14.9312 177.858 16.4293L178.327 17.4422H177.422C176.048 17.4422 174.665 17.4422 173.291 17.4422H172.386L172.855 16.4293C173.542 14.9312 174.229 13.4416 174.925 11.9435L175.361 10.9986L175.796 11.9435ZM154.553 8.93873C153.648 8.93873 152.752 8.93873 151.847 8.93873C151.847 13.2969 151.847 17.655 151.847 22.0131C152.592 22.0131 153.33 22.0131 154.076 22.0131C154.076 19.1276 154.076 16.242 154.076 13.3564V11.8328L154.93 12.8713C157.444 15.9186 159.958 18.9744 162.472 22.0216C163.377 22.0216 164.274 22.0216 165.179 22.0216C165.171 17.6635 165.179 13.3054 165.179 8.94724C164.433 8.94724 163.696 8.94724 162.95 8.94724C162.95 11.8413 162.95 14.7354 162.95 17.6295V19.1616L162.095 18.1232C159.581 15.0674 157.067 12.0116 154.553 8.94724V8.93873ZM138.246 8.93873C137.341 8.93873 136.444 8.93873 135.539 8.93873C135.539 13.2969 135.539 17.655 135.539 22.0131C136.285 22.0131 137.022 22.0131 137.768 22.0131C137.768 19.1276 137.768 16.242 137.768 13.3564V11.8328L138.623 12.8628C141.137 15.91 143.651 18.9658 146.165 22.0131C147.07 22.0131 147.967 22.0131 148.872 22.0131C148.872 17.655 148.872 13.2969 148.872 8.93873C148.126 8.93873 147.388 8.93873 146.643 8.93873C146.643 11.8328 146.643 14.7269 146.643 17.621V19.1531L145.788 18.1146C143.274 15.0588 140.76 12.003 138.246 8.93873ZM102.38 8.93873C102.38 9.71332 102.38 10.4879 102.38 11.2625C104.156 11.2625 105.925 11.2625 107.701 11.2625H108.212V11.9349C108.212 15.2972 108.212 18.6594 108.212 22.0216C108.958 22.0216 109.712 22.0216 110.458 22.0216C110.458 18.6594 110.458 15.2972 110.458 11.9349V11.2625H110.969C112.746 11.2625 114.514 11.2625 116.291 11.2625C116.291 10.4879 116.291 9.71332 116.291 8.93873C111.656 8.93873 107.022 8.93873 102.388 8.93873H102.38ZM72.4634 8.93873C71.5584 8.94724 70.6534 8.93873 69.7484 8.93873C71.726 11.7647 73.7037 14.5907 75.6813 17.4167L75.8154 17.6124V17.8763C75.8154 19.2553 75.8154 20.6427 75.8154 22.0216C76.5612 22.0216 77.2987 22.0216 78.0445 22.0216C78.0445 20.7023 78.0445 19.3829 78.0445 18.0721C78.0361 17.9359 78.0445 17.7997 78.0864 17.6805C78.145 17.4848 78.2121 17.4082 78.3126 17.2634L78.321 17.2464L78.3378 17.2294C80.2736 14.4715 82.2009 11.7136 84.1283 8.95576C83.2149 8.95576 82.3015 8.95576 81.3881 8.95576C80.0305 10.9731 78.6814 12.9989 77.3071 15.0078L76.9216 15.5696L76.5445 15.0078C75.1953 12.9904 73.8378 10.9731 72.4718 8.96427L72.4634 8.93873Z" fill="#FEFEFE"/>
</mask>
<g mask="url(#mask0_282_22481)">
<rect x="36.6914" y="1.69531" width="146.767" height="26.2583" fill="white"/>
</g>
<path fill-rule="evenodd" clip-rule="evenodd" d="M25.1934 11.4061H9.11233L11.9531 24.1825H22.3526L23.1152 20.7437H25.956L24.5649 27H9.73245L5.64304 8.5971H28.646L27.2549 14.8534H24.4141L25.1767 11.4146L25.1934 11.4061ZM3.51453 2.97919H30.7912L31.4532 0H34.294L33.0035 5.79666H1.30223L0.0117188 0H2.85252L3.51453 2.97919Z" fill="url(#paint0_linear_282_22481)"/>
<defs>
<linearGradient id="paint0_linear_282_22481" x1="8.94473" y1="25.7828" x2="25.706" y2="1.46072" gradientUnits="userSpaceOnUse">
<stop stop-color="#1EA74B"/>
<stop offset="1" stop-color="#37B7B8"/>
</linearGradient>
</defs>
</svg>
