<svg width="17" height="17" viewBox="0 0 17 17" fill="none" xmlns="http://www.w3.org/2000/svg">
<g clip-path="url(#clip0_282_6757)">
<path d="M0.830113 17.0001C0.665916 17.0001 0.505399 16.9515 0.368864 16.8603C0.23233 16.7691 0.125913 16.6394 0.063073 16.4877C0.000233508 16.336 -0.0162051 16.1691 0.0158365 16.008C0.0478781 15.847 0.12696 15.6991 0.24308 15.583L15.583 0.243156C15.7386 0.0874659 15.9498 0 16.17 0C16.3902 0 16.6013 0.0874659 16.757 0.243156C16.9127 0.398847 17.0002 0.610008 17.0002 0.830187C17.0002 1.05037 16.9127 1.26153 16.757 1.41722L1.41715 16.7571C1.34013 16.8342 1.24862 16.8954 1.14788 16.9371C1.04714 16.9789 0.939147 17.0003 0.830113 17.0001Z" fill="#2CB084"/>
<path d="M16.17 17.0001C16.061 17.0003 15.953 16.9789 15.8523 16.9371C15.7515 16.8954 15.66 16.8342 15.583 16.7571L0.243156 1.41722C0.087466 1.26153 0 1.05037 0 0.830187C0 0.610008 0.087466 0.398847 0.243156 0.243156C0.398847 0.0874659 0.610008 0 0.830188 0C1.05037 0 1.26153 0.0874659 1.41722 0.243156L16.7571 15.583C16.8732 15.6991 16.9523 15.847 16.9843 16.008C17.0163 16.1691 16.9999 16.336 16.9371 16.4877C16.8742 16.6394 16.7678 16.7691 16.6313 16.8603C16.4947 16.9515 16.3342 17.0001 16.17 17.0001V17.0001Z" fill="#2CB084"/>
</g>
<defs>
<clipPath id="clip0_282_6757">
<rect width="17" height="17" fill="white"/>
</clipPath>
</defs>
</svg>
