<svg width="9" height="9" viewBox="0 0 9 9" fill="none" xmlns="http://www.w3.org/2000/svg">
<path d="M4.85118 5.49933L8.85622 1.49422C8.94893 1.40158 9 1.27792 9 1.14607C9 1.01422 8.94893 0.890562 8.85622 0.797929L8.56135 0.50298C8.3692 0.311055 8.05691 0.311055 7.86506 0.50298L4.50187 3.86617L1.13494 0.499248C1.04224 0.406615 0.918651 0.355469 0.786871 0.355469C0.654945 0.355469 0.531361 0.406615 0.438581 0.499248L0.143779 0.794197C0.0510721 0.886903 0 1.01049 0 1.14234C0 1.27419 0.0510721 1.39785 0.143779 1.49048L4.15248 5.49933C4.24548 5.59218 4.36965 5.64318 4.50165 5.64289C4.63416 5.64318 4.75825 5.59218 4.85118 5.49933Z" fill="white"/>
</svg>
