<svg width="43" height="43" viewBox="0 0 43 43" fill="none" xmlns="http://www.w3.org/2000/svg">
<path d="M36.6611 14.4033C36.8225 14.4033 36.9839 14.3417 37.1069 14.2185L38.2341 13.0899V18.0732C38.2341 18.4212 38.5161 18.7031 38.8641 18.7031C39.212 18.7031 39.494 18.4212 39.494 18.0732V13.0887L40.6238 14.2188C40.7467 14.3418 40.9081 14.4033 41.0693 14.4033C41.2305 14.4033 41.3916 14.3419 41.5147 14.2189C41.7608 13.9729 41.7608 13.5741 41.5148 13.328L39.3096 11.1221C39.3018 11.1143 39.2947 11.1079 39.2883 11.1027C39.1762 11.0004 39.0277 10.9375 38.8641 10.9375C38.69 10.9375 38.5325 11.008 38.4185 11.1221C38.4184 11.1222 38.4183 11.1222 38.4183 11.1223L36.2154 13.3282C35.9696 13.5744 35.9699 13.9732 36.2161 14.2191C36.339 14.342 36.5 14.4033 36.6611 14.4033Z" fill="#0AA880"/>
<path d="M39.8214 25.5498C37.9383 23.8927 35.5226 23.068 33.0205 23.2258C32.8474 23.2369 32.6757 23.2543 32.5048 23.2745V19.0265L33.632 20.1551C33.755 20.2783 33.9163 20.3399 34.0778 20.3399C34.2388 20.3399 34.3999 20.2786 34.5229 20.1558C34.769 19.9099 34.7694 19.5111 34.5235 19.2649L32.3207 17.059C32.3206 17.059 32.3205 17.0589 32.3205 17.0588C32.3199 17.0582 32.3191 17.0576 32.3185 17.057C32.3114 17.05 32.3046 17.0437 32.298 17.0384C32.1862 16.9368 32.038 16.8743 31.875 16.8743C31.7121 16.8743 31.564 16.9367 31.4522 17.0382C31.4452 17.0439 31.4376 17.0507 31.4295 17.0589L29.2242 19.2647C28.9782 19.5108 28.9783 19.9096 29.2244 20.1556C29.3474 20.2786 29.5085 20.34 29.6697 20.34C29.831 20.34 29.9922 20.2785 30.1153 20.1555L31.245 19.0254V23.5106C29.8632 23.8684 28.5866 24.5342 27.4998 25.4709C26.5758 24.983 25.5847 24.6151 24.5952 24.401C24.3576 24.2221 23.9224 23.8836 23.4294 23.4998C23.0127 23.1765 22.5601 22.8237 22.1316 22.4945C23.4722 21.1852 24.5103 19.5592 24.9875 17.9038C25.536 17.7887 26.0886 17.4864 26.5363 17.0446C27.0957 16.4937 27.4157 15.7999 27.4157 15.1414V14.2881C27.4157 13.4668 26.7471 12.7982 25.9256 12.7982H25.2696V8.75928C25.2696 7.11227 24.6304 5.54596 23.4201 4.229C22.3677 3.08345 20.8819 2.14442 19.2364 1.58425C17.6942 1.06018 16.0623 0.885496 14.6428 1.09294C13.1502 1.31046 11.9314 1.93026 11.099 2.88945C9.40743 3.13384 6.89428 4.41973 6.98087 9.91331C6.98171 9.9679 6.98254 10.0124 6.98254 10.046V12.7983H6.32906C5.50593 12.7983 4.83649 13.4668 4.83649 14.2882V15.1415C4.83649 15.7991 5.15731 16.4928 5.71589 17.0438C6.16445 17.4864 6.71791 17.7888 7.26557 17.9038C7.75193 19.5845 8.81441 21.2356 10.1844 22.5542C9.76268 22.8792 9.32092 23.2219 8.91519 23.5377C8.44396 23.9039 8.02907 24.2264 7.79728 24.4011C6.07627 24.7732 4.31487 25.6298 2.94248 26.7679C2.67541 26.9896 2.63845 27.3869 2.86017 27.6548C2.98447 27.8051 3.1642 27.8824 3.34569 27.8824C3.48678 27.8824 3.62955 27.8345 3.74721 27.7371C4.92988 26.7561 6.43673 26.0094 7.91922 25.6634L11.5024 28.3275C11.5159 28.3376 11.5293 28.3468 11.5436 28.356C11.6771 28.4392 11.7644 28.5072 11.8342 28.5626C12.0584 28.7373 12.2508 28.8062 12.4204 28.8062C12.7043 28.8062 12.927 28.6147 13.1327 28.4056C13.2335 28.3031 13.3763 28.1578 13.5888 27.9655L13.9223 29.2732L11.8417 36.2022C11.84 36.2064 11.8384 36.2098 11.8384 36.214L11.8367 36.2198C11.7678 36.4189 11.7829 36.6078 11.8829 36.7993L13.0092 38.9318H6.65904V34.9894C6.65904 34.6417 6.37685 34.3595 6.02907 34.3595C5.68054 34.3595 5.3991 34.6417 5.3991 34.9894V38.9318H1.60175C1.53372 38.9318 1.46905 38.9326 1.40691 38.9334C1.36155 38.9343 1.31032 38.936 1.26161 38.9351C1.26077 38.915 1.25993 38.8915 1.25993 38.8654V32.3959C1.25993 31.4862 1.51105 30.5943 2.0058 29.7444C2.18049 29.4437 2.07887 29.0582 1.7782 28.8827C1.47754 28.708 1.09196 28.8096 0.916437 29.1103C0.308223 30.1548 0 31.2601 0 32.3956V38.8652C0 39.1616 0.0352734 39.59 0.341816 39.8906C0.663477 40.2064 1.07004 40.1997 1.4295 40.193C1.48409 40.1921 1.5412 40.1913 1.60167 40.1913H28.0832C29.6892 41.3655 31.6052 41.992 33.6008 41.992C33.8024 41.992 34.0056 41.9861 34.2089 41.9727C36.7111 41.8139 39.0033 40.6902 40.6613 38.8072C44.0824 34.9219 43.7061 28.974 39.8214 25.5498ZM25.2695 16.0467V14.0579H25.9255C26.0506 14.0579 26.1556 14.1637 26.1556 14.288V15.1413C26.1556 15.4596 25.9675 15.8358 25.6516 16.1474C25.5281 16.2692 25.3938 16.3733 25.2543 16.4581C25.2644 16.3188 25.2695 16.1818 25.2695 16.0467ZM6.60109 16.1475C6.28531 15.8359 6.09626 15.4596 6.09626 15.1413V14.2881C6.09626 14.1638 6.20292 14.0579 6.32889 14.0579H6.98238V16.0468C6.98238 16.1812 6.98826 16.3189 6.99833 16.4575C6.85892 16.3726 6.7237 16.2684 6.60109 16.1475ZM22.6556 24.4941C22.8849 24.6721 23.0958 24.8368 23.2806 24.9804L20.1585 27.3018C20.1106 27.332 20.067 27.3606 20.0275 27.3883C19.8923 27.2539 19.7084 27.0775 19.4488 26.8533L18.7961 26.2528C18.7768 26.2327 18.7567 26.2142 18.7348 26.1965L17.6009 25.1526C17.8823 25.0804 18.173 24.9888 18.4778 24.8746C19.4202 24.5227 20.3315 23.9936 21.1648 23.3402C21.646 23.7088 22.1752 24.1212 22.6556 24.4941ZM17.637 26.8987L17.1892 28.6565H15.0651L14.6434 27.0028L16.1973 25.5733L17.637 26.8987ZM11.4802 4.11209C11.6558 4.09698 11.817 4.00879 11.9246 3.86938C12.8057 2.72467 14.2823 2.26687 15.8421 2.26687C16.8491 2.26687 17.8915 2.45752 18.8306 2.77666C21.2193 3.59047 24.0096 5.64481 24.0096 8.75903V12.1739H23.0755C21.7484 12.1739 20.8984 11.3769 19.9149 10.4547C18.7322 9.34524 17.3917 8.08875 15.0164 8.08875H12.3252C10.3144 8.08875 9.99019 9.66942 9.75336 10.8234C9.49721 12.0731 9.31571 12.7156 8.24231 12.7904V10.0457C8.24231 10.007 8.24147 9.95581 8.24063 9.89366C8.20116 7.38925 8.73118 4.35397 11.4802 4.11209ZM8.37921 17.1847C8.2885 16.79 8.24231 16.407 8.24231 16.0467V14.052C10.4001 13.9403 10.752 12.2245 10.9881 11.0763C11.2501 9.79641 11.4224 9.34869 12.3253 9.34869H15.0164C16.8936 9.34869 17.9428 10.3321 19.0531 11.3736C20.1332 12.3866 21.2504 13.4339 23.0755 13.4339H24.0095V16.0467C24.0095 16.407 23.9642 16.79 23.8735 17.1855C23.2595 19.8849 20.7506 22.6825 18.0359 23.6946C17.3211 23.9625 16.7147 24.0876 16.1259 24.0876C15.5379 24.0876 14.9307 23.9625 14.215 23.6937C11.5038 22.6833 8.99489 19.8857 8.37921 17.1847ZM13.5297 26.315C13.5188 26.3242 13.5087 26.3343 13.4978 26.3444L12.9443 26.8533C12.6847 27.0784 12.5016 27.2539 12.3664 27.3883C12.3261 27.3614 12.2824 27.332 12.2337 27.3018L9.11163 24.9795C9.2838 24.8468 9.47789 24.6957 9.68869 24.5319C10.1599 24.1657 10.6789 23.7618 11.1577 23.3947C11.9716 24.0229 12.8578 24.5327 13.7733 24.8737C14.1193 25.0039 14.4469 25.1047 14.7644 25.1802L13.5297 26.315ZM19.2429 38.9315L20.371 36.7957C20.4726 36.6017 20.4852 36.4077 20.4113 36.2019L19.9728 34.7464C19.8729 34.413 19.5209 34.224 19.1883 34.3248C18.8549 34.4247 18.6659 34.7758 18.7666 35.1092L19.1555 36.4001L17.8183 38.9314H14.4342L13.097 36.4001L15.044 29.9162H17.2102L17.9402 32.3502C18.0216 32.6231 18.2719 32.7986 18.5432 32.7986C18.6029 32.7986 18.6642 32.7902 18.7238 32.7726C19.0572 32.6727 19.2463 32.3216 19.1463 31.9882L18.3324 29.2729L18.6911 27.8644C18.97 28.1096 19.1447 28.2868 19.2623 28.4061C19.4681 28.6152 19.6907 28.8067 19.9729 28.8067C20.1434 28.8067 20.3349 28.737 20.5584 28.5623C20.6289 28.5069 20.7163 28.4388 20.849 28.3557C20.8641 28.3465 20.8775 28.3372 20.8909 28.3271L24.4741 25.6631C25.1797 25.8277 25.8861 26.0771 26.5614 26.4005C24.9076 28.281 24.0844 30.6939 24.2432 33.1942C24.3801 35.3552 25.236 37.3575 26.6781 38.9314H19.2429V38.9315ZM39.7155 37.9748C38.2801 39.6051 36.2961 40.5785 34.1292 40.7153C32.9381 40.7909 31.7698 40.6095 30.6879 40.1913C29.9093 39.8906 29.176 39.4682 28.5124 38.9314C28.4201 38.8575 28.3294 38.7811 28.2403 38.7022C26.6109 37.2676 25.6382 35.2831 25.5004 33.1145C25.4895 32.9381 25.4836 32.7626 25.4836 32.5879C25.4836 30.61 26.1942 28.722 27.5129 27.2254C27.5709 27.159 27.6305 27.0943 27.691 27.0305C27.9875 26.7139 28.3058 26.4233 28.6435 26.1621C29.9177 25.1736 31.4564 24.5873 33.1002 24.4832C33.2757 24.4723 33.4512 24.4664 33.626 24.4664C35.6041 24.4664 37.4905 25.1769 38.9881 26.4955C42.3521 29.4603 42.678 34.6104 39.7155 37.9748Z" fill="#0AA880"/>
</svg>
