<svg width="14" height="14" viewBox="0 0 14 14" fill="none" xmlns="http://www.w3.org/2000/svg">
<path d="M11.9271 4.6382C11.7766 4.50873 11.6253 4.38505 11.4735 4.2666L9.70437 6.03577C9.81216 6.33729 9.87108 6.66189 9.87108 6.99999C9.87108 8.58311 8.58311 9.87109 6.99999 9.87109C6.66188 9.87109 6.33729 9.81216 6.03577 9.70434L4.70801 11.0321C5.48337 11.3502 6.25241 11.5117 6.99999 11.5117C7.89295 11.5117 8.81649 11.2821 9.74486 10.8293C10.4739 10.4737 11.2081 9.97997 11.9271 9.36178C13.1427 8.31654 13.8915 7.283 13.9228 7.2395C14.0257 7.09643 14.0257 6.90358 13.9228 6.76049C13.8915 6.71698 13.1427 5.68345 11.9271 4.6382Z" fill="#555555"/>
<path d="M6.99975 9.05053C8.13055 9.05053 9.05053 8.13055 9.05053 6.99975C9.05053 6.90137 9.04315 6.80468 9.02967 6.70996L6.70996 9.02967C6.80471 9.04315 6.90137 9.05053 6.99975 9.05053Z" fill="#555555"/>
<path d="M13.8799 0.120114C13.7197 -0.0400381 13.46 -0.0400381 13.2999 0.120114L10.0774 3.34252C9.96654 3.28215 9.85567 3.22464 9.7449 3.17064C8.81652 2.71783 7.89299 2.48825 7.00002 2.48825C6.10706 2.48825 5.18352 2.71783 4.25515 3.17061C3.52611 3.52622 2.79187 4.01999 2.07287 4.63818C0.857329 5.68342 0.108493 6.71696 0.0772119 6.76046C-0.0257373 6.90352 -0.0257373 7.09638 0.0772119 7.23947C0.108493 7.28297 0.857302 8.31654 2.07287 9.36175C2.44537 9.68203 2.82198 9.96857 3.19981 10.2201L0.120169 13.2998C-0.0400107 13.46 -0.0400107 13.7197 0.120169 13.8798C0.200259 13.9599 0.305204 14 0.410177 14C0.515149 14 0.620122 13.9599 0.700185 13.8798L13.8799 0.70013C14.0401 0.539978 14.0401 0.280267 13.8799 0.120114ZM4.12893 6.99997C4.12893 5.41684 5.4169 4.12887 7.00002 4.12887C7.64399 4.12887 8.2391 4.34199 8.71858 4.7014L8.13014 5.28983C7.80587 5.0748 7.41742 4.94918 7.00002 4.94918C5.86922 4.94918 4.94924 5.86916 4.94924 6.99997C4.94924 7.41734 5.07486 7.80579 5.28989 8.13008L4.70145 8.71852C4.34204 8.23905 4.12893 7.64394 4.12893 6.99997Z" fill="#555555"/>
</svg>
