<svg width="56" height="56" viewBox="0 0 56 56" fill="none" xmlns="http://www.w3.org/2000/svg">
<g clip-path="url(#clip0_282_22184)">
<path d="M22.1667 34.9993H8.16667C7.52267 34.9993 7 34.4767 7 33.8327C7 33.1887 7.52267 32.666 8.16667 32.666H22.1667C22.8107 32.666 23.3333 33.1887 23.3333 33.8327C23.3333 34.4767 22.8107 34.9993 22.1667 34.9993Z" fill="#0AA880"/>
<path d="M19.8333 41.9993H8.16667C7.52267 41.9993 7 41.4767 7 40.8327C7 40.1887 7.52267 39.666 8.16667 39.666H19.8333C20.4773 39.666 21 40.1887 21 40.8327C21 41.4767 20.4773 41.9993 19.8333 41.9993Z" fill="#0AA880"/>
<path d="M19.8346 16.3333C17.261 16.3333 15.168 14.2403 15.168 11.6667C15.168 9.093 17.261 7 19.8346 7C22.4083 7 24.5013 9.093 24.5013 11.6667C24.5013 14.2403 22.4083 16.3333 19.8346 16.3333ZM19.8346 9.33333C18.549 9.33333 17.5013 10.381 17.5013 11.6667C17.5013 12.9523 18.549 14 19.8346 14C21.1203 14 22.168 12.9523 22.168 11.6667C22.168 10.381 21.1203 9.33333 19.8346 9.33333Z" fill="#0AA880"/>
<path d="M28 27.9993C27.356 27.9993 26.8333 27.4767 26.8333 26.8327V24.4993C26.8333 22.5697 25.263 20.9993 23.3333 20.9993H16.3333C14.4037 20.9993 12.8333 22.5697 12.8333 24.4993V26.8327C12.8333 27.4767 12.3107 27.9993 11.6667 27.9993C11.0227 27.9993 10.5 27.4767 10.5 26.8327V24.4993C10.5 21.284 13.118 18.666 16.3333 18.666H23.3333C26.5487 18.666 29.1667 21.284 29.1667 24.4993V26.8327C29.1667 27.4767 28.644 27.9993 28 27.9993Z" fill="#0AA880"/>
<path d="M22.1667 49H5.83333C2.618 49 0 46.382 0 43.1667V5.83333C0 2.618 2.618 0 5.83333 0H33.8333C37.0487 0 39.6667 2.618 39.6667 5.83333V19.9733C39.6667 20.6173 39.144 21.14 38.5 21.14C37.856 21.14 37.3333 20.6173 37.3333 19.9733V5.83333C37.3333 3.90367 35.763 2.33333 33.8333 2.33333H5.83333C3.90367 2.33333 2.33333 3.90367 2.33333 5.83333V43.1667C2.33333 45.0963 3.90367 46.6667 5.83333 46.6667H22.1667C22.8107 46.6667 23.3333 47.1893 23.3333 47.8333C23.3333 48.4773 22.8107 49 22.1667 49Z" fill="#0AA880"/>
<path d="M40.8346 55.9994C32.472 55.9994 25.668 49.1954 25.668 40.8327C25.668 32.47 32.472 25.666 40.8346 25.666C49.1973 25.666 56.0013 32.47 56.0013 40.8327C56.0013 49.1954 49.1973 55.9994 40.8346 55.9994ZM40.8346 27.9993C33.7576 27.9993 28.0013 33.7557 28.0013 40.8327C28.0013 47.9097 33.7576 53.666 40.8346 53.666C47.9116 53.666 53.668 47.9097 53.668 40.8327C53.668 33.7557 47.9116 27.9993 40.8346 27.9993Z" fill="#0AA880"/>
<path d="M38.498 46.6661C38.19 46.6661 37.8913 46.5424 37.672 46.3254L33.0053 41.6588C32.5503 41.2038 32.5503 40.4641 33.0053 40.0091C33.4603 39.5541 34.2 39.5541 34.655 40.0091L38.4396 43.7938L45.785 35.3985C46.2096 34.9108 46.947 34.8618 47.4323 35.2888C47.9176 35.7135 47.9666 36.4508 47.542 36.9361L39.3753 46.2694C39.163 46.5121 38.8573 46.6568 38.5353 46.6661C38.5236 46.6661 38.5096 46.6661 38.498 46.6661Z" fill="#0AA880"/>
</g>
<defs>
<clipPath id="clip0_282_22184">
<rect width="56" height="56" fill="white"/>
</clipPath>
</defs>
</svg>
