<svg width="57" height="57" viewBox="0 0 57 57" fill="none" xmlns="http://www.w3.org/2000/svg">
<path d="M22.2656 5.34375H21.375C21.1388 5.34375 20.9123 5.43758 20.7452 5.60461C20.5782 5.77163 20.4844 5.99817 20.4844 6.23438C20.4844 6.47058 20.5782 6.69712 20.7452 6.86414C20.9123 7.03117 21.1388 7.125 21.375 7.125H22.2656C22.5018 7.125 22.7284 7.03117 22.8954 6.86414C23.0624 6.69712 23.1562 6.47058 23.1562 6.23438C23.1562 5.99817 23.0624 5.77163 22.8954 5.60461C22.7284 5.43758 22.5018 5.34375 22.2656 5.34375Z" fill="#0AA880"/>
<path d="M17.8125 5.34375H13.3594C13.1232 5.34375 12.8966 5.43758 12.7296 5.60461C12.5626 5.77163 12.4688 5.99817 12.4688 6.23438C12.4688 6.47058 12.5626 6.69712 12.7296 6.86414C12.8966 7.03117 13.1232 7.125 13.3594 7.125H17.8125C18.0487 7.125 18.2752 7.03117 18.4423 6.86414C18.6093 6.69712 18.7031 6.47058 18.7031 6.23438C18.7031 5.99817 18.6093 5.77163 18.4423 5.60461C18.2752 5.43758 18.0487 5.34375 17.8125 5.34375Z" fill="#0AA880"/>
<path d="M17.8125 51.6563C18.3409 51.6563 18.8575 51.4996 19.2969 51.206C19.7363 50.9124 20.0788 50.4951 20.281 50.0069C20.4832 49.5186 20.5361 48.9814 20.433 48.4631C20.3299 47.9448 20.0755 47.4687 19.7018 47.0951C19.3281 46.7214 18.852 46.4669 18.3338 46.3638C17.8155 46.2607 17.2782 46.3137 16.79 46.5159C16.3018 46.7181 15.8845 47.0606 15.5909 47.5C15.2973 47.9394 15.1406 48.4559 15.1406 48.9844C15.1406 49.693 15.4221 50.3726 15.9232 50.8737C16.4243 51.3748 17.1039 51.6563 17.8125 51.6563ZM17.8125 48.0938C17.9886 48.0938 18.1608 48.146 18.3073 48.2439C18.4538 48.3417 18.5679 48.4808 18.6353 48.6436C18.7027 48.8063 18.7204 48.9854 18.686 49.1581C18.6516 49.3309 18.5668 49.4896 18.4423 49.6142C18.3177 49.7387 18.159 49.8235 17.9863 49.8579C17.8135 49.8923 17.6344 49.8746 17.4717 49.8072C17.3089 49.7398 17.1698 49.6257 17.072 49.4792C16.9741 49.3327 16.9219 49.1605 16.9219 48.9844C16.9219 48.7482 17.0157 48.5216 17.1827 48.3546C17.3498 48.1876 17.5763 48.0938 17.8125 48.0938Z" fill="#0AA880"/>
<path d="M23.1562 49.875H24.9375C25.1737 49.875 25.4002 49.7812 25.5673 49.6141C25.7343 49.4471 25.8281 49.2206 25.8281 48.9844C25.8281 48.7482 25.7343 48.5216 25.5673 48.3546C25.4002 48.1876 25.1737 48.0938 24.9375 48.0938H23.1562C22.92 48.0938 22.6935 48.1876 22.5265 48.3546C22.3595 48.5216 22.2656 48.7482 22.2656 48.9844C22.2656 49.2206 22.3595 49.4471 22.5265 49.6141C22.6935 49.7812 22.92 49.875 23.1562 49.875Z" fill="#0AA880"/>
<path d="M10.6875 49.875H12.4688C12.705 49.875 12.9315 49.7812 13.0985 49.6141C13.2655 49.4471 13.3594 49.2206 13.3594 48.9844C13.3594 48.7482 13.2655 48.5216 13.0985 48.3546C12.9315 48.1876 12.705 48.0938 12.4688 48.0938H10.6875C10.4513 48.0938 10.2248 48.1876 10.0577 48.3546C9.89071 48.5216 9.79688 48.7482 9.79688 48.9844C9.79688 49.2206 9.89071 49.4471 10.0577 49.6141C10.2248 49.7812 10.4513 49.875 10.6875 49.875Z" fill="#0AA880"/>
<path d="M40.0781 27.6094C39.5497 27.6094 39.0331 27.7661 38.5937 28.0597C38.1543 28.3533 37.8119 28.7706 37.6096 29.2588C37.4074 29.747 37.3545 30.2842 37.4576 30.8025C37.5607 31.3208 37.8152 31.7969 38.1888 32.1706C38.5625 32.5442 39.0386 32.7987 39.5569 32.9018C40.0752 33.0049 40.6124 32.952 41.1006 32.7497C41.5888 32.5475 42.0061 32.2051 42.2997 31.7657C42.5933 31.3263 42.75 30.8097 42.75 30.2813C42.75 29.5726 42.4685 28.893 41.9674 28.392C41.4664 27.8909 40.7868 27.6094 40.0781 27.6094ZM40.0781 31.1719C39.902 31.1719 39.7298 31.1196 39.5833 31.0218C39.4369 30.9239 39.3227 30.7848 39.2553 30.6221C39.1879 30.4593 39.1703 30.2803 39.2046 30.1075C39.239 29.9347 39.3238 29.776 39.4484 29.6515C39.5729 29.5269 39.7316 29.4421 39.9044 29.4077C40.0771 29.3734 40.2562 29.391 40.419 29.4584C40.5817 29.5258 40.7208 29.64 40.8187 29.7865C40.9165 29.9329 40.9688 30.1051 40.9688 30.2813C40.9688 30.5175 40.8749 30.744 40.7079 30.911C40.5409 31.078 40.3143 31.1719 40.0781 31.1719Z" fill="#0AA880"/>
<path d="M52.0938 11.9188C52.0956 10.5937 51.8018 9.28487 51.2337 8.08775C50.6655 6.89063 49.8374 5.83537 48.8098 4.99889C47.7821 4.1624 46.5807 3.56577 45.2932 3.25249C44.0056 2.93921 42.6644 2.91717 41.3673 3.18798C40.0702 3.45879 38.8499 4.01563 37.7952 4.8179C36.7406 5.62017 35.8783 6.64766 35.2712 7.82546C34.664 9.00327 34.3273 10.3017 34.2857 11.6261C34.244 12.9506 34.4984 14.2676 35.0303 15.4813H30.7188V7.46563C30.7173 6.28502 30.2477 5.15317 29.4129 4.31836C28.5781 3.48354 27.4462 3.01392 26.2656 3.01251H8.45313C7.27252 3.01392 6.14067 3.48354 5.30585 4.31836C4.47104 5.15317 4.00141 6.28502 4 7.46563V50.2156C4.00141 51.3962 4.47104 52.5281 5.30585 53.3629C6.14067 54.1977 7.27252 54.6673 8.45313 54.6687H26.2656C27.4462 54.6673 28.5781 54.1977 29.4129 53.3629C30.2477 52.5281 30.7173 51.3962 30.7188 50.2156V42.2H43.1875C43.6599 42.2 44.113 42.0123 44.447 41.6783C44.7811 41.3442 44.9688 40.8912 44.9688 40.4187V36.8562C45.4412 36.8562 45.8942 36.6686 46.2283 36.3345C46.5623 36.0005 46.75 35.5474 46.75 35.075V26.1688C46.75 25.6963 46.5623 25.2433 46.2283 24.9092C45.8942 24.5752 45.4412 24.3875 44.9688 24.3875V20.825C44.9661 20.7653 44.9601 20.7059 44.9509 20.6469C46.9645 20.2371 48.7749 19.1448 50.0763 17.5545C51.3777 15.9643 52.0903 13.9736 52.0938 11.9188ZM37.8438 19.0438H15.5781C15.4609 19.0438 15.3449 19.0202 15.237 18.9743C15.1266 18.9267 15.0267 18.8577 14.9431 18.7712C14.863 18.6928 14.7996 18.5988 14.757 18.4951C14.6865 18.3306 14.6683 18.1484 14.7048 17.9732C14.7413 17.798 14.8307 17.6382 14.9609 17.5154C15.0414 17.4337 15.1375 17.3692 15.2436 17.3257C15.3497 17.2823 15.4635 17.2607 15.5781 17.2625H36.0625C36.5816 17.9265 37.1798 18.5246 37.8438 19.0438ZM5.78125 7.46563C5.78125 6.75701 6.06275 6.0774 6.56382 5.57633C7.0649 5.07526 7.7445 4.79376 8.45313 4.79376H26.2656C26.9743 4.79376 27.6539 5.07526 28.1549 5.57633C28.656 6.0774 28.9375 6.75701 28.9375 7.46563V8.35626H5.78125V7.46563ZM28.9375 50.2156C28.9375 50.9242 28.656 51.6038 28.1549 52.1049C27.6539 52.606 26.9743 52.8875 26.2656 52.8875H8.45313C7.7445 52.8875 7.0649 52.606 6.56382 52.1049C6.06275 51.6038 5.78125 50.9242 5.78125 50.2156V45.7625H28.9375V50.2156ZM28.9375 43.9812H5.78125V10.1375H28.9375V15.4813H15.5781C14.8707 15.4852 14.1934 15.768 13.6932 16.2682C13.193 16.7684 12.9102 17.4457 12.9063 18.1531V39.5281C12.9063 40.2367 13.1878 40.9163 13.6888 41.4174C14.1899 41.9185 14.8695 42.2 15.5781 42.2H28.9375V43.9812ZM44.9688 35.075H32.5V26.1688H44.9688V35.075ZM43.1875 24.3875H32.5C32.0276 24.3875 31.5745 24.5752 31.2405 24.9092C30.9064 25.2433 30.7188 25.6963 30.7188 26.1688V35.075C30.7188 35.5474 30.9064 36.0005 31.2405 36.3345C31.5745 36.6686 32.0276 36.8562 32.5 36.8562H43.1875V40.4187H15.5781C15.3419 40.4187 15.1154 40.3249 14.9484 40.1579C14.7813 39.9909 14.6875 39.7643 14.6875 39.5281V20.6745C14.7694 20.703 14.8567 20.719 14.9422 20.7404C14.9859 20.7511 15.0313 20.7653 15.0723 20.7742C15.2389 20.807 15.4083 20.8239 15.5781 20.825H43.1875V24.3875ZM43.1875 19.0438C41.7783 19.0438 40.4008 18.6259 39.2291 17.843C38.0574 17.0601 37.1441 15.9473 36.6049 14.6454C36.0656 13.3435 35.9245 11.9109 36.1994 10.5287C36.4743 9.14662 37.1529 7.87707 38.1494 6.88062C39.1458 5.88417 40.4154 5.20558 41.7975 4.93066C43.1796 4.65574 44.6122 4.79684 45.9141 5.33611C47.216 5.87539 48.3288 6.78862 49.1117 7.96032C49.8946 9.13202 50.3125 10.5096 50.3125 11.9188C50.3085 13.8072 49.5566 15.6171 48.2212 16.9525C46.8859 18.2878 45.0759 19.0398 43.1875 19.0438Z" fill="#0AA880"/>
<path d="M44.5312 10.6875H42.75C42.5138 10.6875 42.2873 10.5937 42.1202 10.4266C41.9532 10.2596 41.8594 10.0331 41.8594 9.79688C41.8594 9.56067 41.9532 9.33413 42.1202 9.16711C42.2873 9.00008 42.5138 8.90625 42.75 8.90625H45.4219C45.6581 8.90625 45.8846 8.81242 46.0516 8.64539C46.2187 8.47837 46.3125 8.25183 46.3125 8.01563C46.3125 7.77942 46.2187 7.55288 46.0516 7.38586C45.8846 7.21883 45.6581 7.125 45.4219 7.125H44.5312C44.5312 6.88879 44.4374 6.66226 44.2704 6.49523C44.1034 6.32821 43.8768 6.23438 43.6406 6.23438C43.4044 6.23438 43.1779 6.32821 43.0109 6.49523C42.8438 6.66226 42.75 6.88879 42.75 7.125C42.0414 7.125 41.3618 7.4065 40.8607 7.90757C40.3596 8.40865 40.0781 9.08825 40.0781 9.79688C40.0781 10.5055 40.3596 11.1851 40.8607 11.6862C41.3618 12.1873 42.0414 12.4688 42.75 12.4688H44.5312C44.7675 12.4688 44.994 12.5626 45.161 12.7296C45.328 12.8966 45.4219 13.1232 45.4219 13.3594C45.4219 13.5956 45.328 13.8221 45.161 13.9891C44.994 14.1562 44.7675 14.25 44.5312 14.25H41.8594C41.6232 14.25 41.3966 14.3438 41.2296 14.5109C41.0626 14.6779 40.9688 14.9044 40.9688 15.1406C40.9688 15.3768 41.0626 15.6034 41.2296 15.7704C41.3966 15.9374 41.6232 16.0313 41.8594 16.0313H42.75C42.75 16.2675 42.8438 16.494 43.0109 16.661C43.1779 16.828 43.4044 16.9219 43.6406 16.9219C43.8768 16.9219 44.1034 16.828 44.2704 16.661C44.4374 16.494 44.5312 16.2675 44.5312 16.0313C45.2399 16.0313 45.9195 15.7498 46.4205 15.2487C46.9216 14.7476 47.2031 14.068 47.2031 13.3594C47.2031 12.6508 46.9216 11.9711 46.4205 11.4701C45.9195 10.969 45.2399 10.6875 44.5312 10.6875Z" fill="#0AA880"/>
</svg>
