<svg width="7" height="4" viewBox="0 0 7 4" fill="none" xmlns="http://www.w3.org/2000/svg">
<path d="M3.22686 0.108605L0.111828 3.13852C0.0397232 3.2086 -3.0504e-08 3.30215 -2.61438e-08 3.4019C-2.17837e-08 3.50165 0.0397232 3.5952 0.111828 3.66527L0.341176 3.88841C0.490622 4.0336 0.733514 4.0336 0.882733 3.88841L3.49855 1.34411L6.11727 3.89123C6.18937 3.96131 6.28549 4 6.38799 4C6.4906 4 6.58672 3.96131 6.65888 3.89123L6.88817 3.6681C6.96028 3.59796 7 3.50447 7 3.40472C7 3.30497 6.96028 3.21142 6.88817 3.14135L3.77029 0.108605C3.69796 0.038361 3.60139 -0.000220662 3.49872 7.58825e-07C3.39566 -0.000220653 3.29914 0.0383611 3.22686 0.108605Z" fill="#444444"/>
</svg>
