<svg width="24" height="24" viewBox="0 0 24 24" fill="none" xmlns="http://www.w3.org/2000/svg">
<path d="M2.73064 12.8403C2.58407 11.5701 2.70621 10.3438 3.03843 9.2103C4.14259 5.44348 7.6065 2.67332 11.7153 2.62446V0.162105C11.7153 0.0253068 11.8863 -0.0479778 11.9987 0.035078L17.0651 3.75793C17.1481 3.82145 17.1481 3.94847 17.0651 4.0071L12.0036 7.72995C11.8863 7.81301 11.7202 7.73973 11.7202 7.60293V5.14545C9.01845 5.18942 6.71243 6.85543 5.72065 9.2103C5.34445 10.0995 5.15391 11.0815 5.20766 12.1124C5.28094 13.5292 5.81348 14.8337 6.6538 15.889C7.10328 16.4508 6.9958 17.2716 6.41441 17.6966C5.86233 18.1022 5.0904 17.9898 4.66535 17.4524C3.62471 16.1528 2.93095 14.5698 2.73064 12.8403ZM17.3582 8.11103C18.2034 9.16145 18.736 10.4708 18.8044 11.8876C18.8581 12.9234 18.6627 13.9054 18.2914 14.7897C17.2996 17.1446 14.9936 18.8155 12.2918 18.8545V16.3971C12.2918 16.2603 12.1208 16.187 12.0085 16.27L6.94206 19.9929C6.859 20.0564 6.859 20.1834 6.94206 20.2421L12.0036 23.9649C12.1208 24.048 12.2869 23.9747 12.2869 23.8379V21.3755C16.3958 21.3316 19.8646 18.5614 20.9638 14.7897C21.2961 13.6562 21.4133 12.4299 21.2716 11.1597C21.0762 9.43015 20.3824 7.84721 19.3418 6.54763C18.9119 6.01021 18.1448 5.89784 17.5927 6.30335C17.0162 6.7284 16.9088 7.54919 17.3582 8.11103Z" fill="white"/>
</svg>
