<svg width="12" height="12" viewBox="0 0 12 12" fill="none" xmlns="http://www.w3.org/2000/svg">
<path d="M11.9529 5.82424L11.2433 4.59499V3.17578C11.2433 3.05018 11.1763 2.93409 11.0675 2.8713L9.83829 2.16171L9.12872 0.932505C9.06591 0.823732 8.94985 0.756724 8.82425 0.756724H7.40501L6.17576 0.047083C6.06701 -0.0156826 5.93302 -0.0157061 5.82422 0.047083L4.595 0.7567H3.17579C3.05018 0.7567 2.9341 0.823708 2.87131 0.932505L2.16174 2.16171L0.932513 2.8713C0.823717 2.93409 0.756709 3.05015 0.756709 3.17578V4.59499L0.0470918 5.82424C-0.0156973 5.93301 -0.0156973 6.06698 0.0470918 6.17576L0.756685 7.40501V8.82422C0.756685 8.94982 0.823693 9.06591 0.93249 9.12869L2.16172 9.83829L2.87131 11.0675C2.9341 11.1763 3.05016 11.2433 3.17579 11.2433H4.59502L5.82425 11.9529C5.87862 11.9843 5.93932 12 6.00003 12C6.06073 12 6.12141 11.9843 6.17579 11.9529L7.40501 11.2433H8.82422C8.94982 11.2433 9.06591 11.1763 9.1287 11.0675L9.83827 9.83831L11.0675 9.12872C11.1763 9.06593 11.2433 8.94987 11.2433 8.82424V7.40503L11.9529 6.17578C12.0157 6.06698 12.0157 5.93301 11.9529 5.82424ZM4.28047 7.12969C4.28047 7.28461 4.17905 7.42125 4.03079 7.46616C3.8814 7.51134 3.72174 7.45268 3.63638 7.32469L2.77421 6.03143V7.12969C2.77421 7.32384 2.6168 7.48125 2.42265 7.48125C2.22849 7.48125 2.07108 7.32384 2.07108 7.12969V4.87031C2.07108 4.71539 2.1725 4.57875 2.32076 4.53384C2.46905 4.48898 2.62922 4.5464 2.71517 4.67531L3.57734 5.96857V4.87031C3.57734 4.67615 3.73475 4.51875 3.9289 4.51875C4.12306 4.51875 4.28047 4.67615 4.28047 4.87031V7.12969ZM5.81173 5.64844C6.00589 5.64844 6.16329 5.80584 6.16329 6C6.16329 6.19415 6.00589 6.35156 5.81173 6.35156H5.41018V6.77812H6.1883C6.38246 6.77812 6.53986 6.93553 6.53986 7.12969C6.53986 7.32384 6.38246 7.48125 6.1883 7.48125H5.05861C4.86446 7.48125 4.70705 7.32384 4.70705 7.12969V4.87031C4.70705 4.67615 4.86446 4.51875 5.05861 4.51875H6.1883C6.38246 4.51875 6.53986 4.67615 6.53986 4.87031C6.53986 5.06447 6.38246 5.22187 6.1883 5.22187H5.41018V5.64844H5.81173ZM10.1067 4.95558L9.54185 7.21495C9.50393 7.36659 9.37046 7.47501 9.21427 7.48101C9.20975 7.48118 9.20518 7.48127 9.20068 7.48127C9.04993 7.4813 8.91525 7.38487 8.86725 7.24087L8.44765 5.98205L8.02805 7.24087C7.97862 7.38916 7.8372 7.48662 7.68104 7.48101C7.52485 7.47501 7.39137 7.36659 7.35345 7.21495L6.78861 4.95558C6.74152 4.76721 6.85604 4.57633 7.0444 4.52927C7.23282 4.48209 7.42364 4.59668 7.47073 4.78507L7.74275 5.8732L8.11409 4.75917C8.16195 4.61562 8.29629 4.51877 8.44761 4.51877C8.59892 4.51877 8.73326 4.61562 8.78112 4.75917L9.15246 5.8732L9.42448 4.78507C9.47159 4.5967 9.66246 4.48214 9.85081 4.52927C10.0392 4.57633 10.1538 4.76719 10.1067 4.95558Z" fill="white"/>
</svg>
