<svg width="97" height="213" viewBox="0 0 97 213" fill="none" xmlns="http://www.w3.org/2000/svg">
<path d="M46.3656 140.584L46.904 138.201H48.2124L47.2961 142.244H35.9091L32.7758 128.41H50.4223L49.5061 132.453H48.1972L48.6858 130.292L48.3386 130.213L48.2118 129.675H35.0002H34.3742L34.5125 130.285L36.8464 140.584L36.9347 140.973H37.3341H45.8779H46.2775L46.3656 140.584ZM29.9136 123.492L30.0018 123.882H30.4012H52.8108H53.2102L53.2984 123.492L53.7541 121.48H55.0624L54.2291 125.153H28.9829L28.1496 121.48H29.4579L29.9136 123.492Z" stroke="#258389" stroke-opacity="0.3"/>
<path d="M46.3663 46.4176L46.9066 43.9569H48.2163L47.2936 48.1482H35.9116L32.7719 33.8779H50.4263L49.5036 38.0692H48.1933L48.6864 35.823L48.3419 35.7473L48.2118 35.2087H35.0002H34.3781L34.5119 35.8162L36.8458 46.4178L36.9322 46.8104H37.3341H45.8779H46.2801L46.3663 46.4176ZM29.9129 28.8237L29.9993 29.2162H30.4012H52.8108H53.2127L53.2991 28.8237L53.7566 26.7441H55.0664L54.2265 30.5541H28.9855L28.1457 26.7441H29.4554L29.9129 28.8237Z" stroke="#258389" stroke-opacity="0.3"/>
<path d="M46.3663 94.4273L46.9066 91.9666H48.2163L47.2936 96.158H35.9116L32.7719 81.8876H50.4263L49.5036 86.079H48.1933L48.6864 83.8327L48.3419 83.7571L48.2118 83.2184H35.0002H34.3781L34.5119 83.8259L36.8458 94.4276L36.9322 94.8201H37.3341H45.8779H46.2801L46.3663 94.4273ZM29.9129 76.8334L29.9993 77.226H30.4012H52.8108H53.2127L53.2991 76.8334L53.7566 74.7539H55.0664L54.2265 78.5639H28.9855L28.1457 74.7539H29.4554L29.9129 76.8334Z" stroke="#258389" stroke-opacity="0.3"/>
<path d="M100.135 140.584L100.674 138.201H101.982L101.066 142.244H89.6786L86.5454 128.41H104.192L103.276 132.453H101.967L102.455 130.292L102.108 130.213L101.981 129.675H88.7697H88.1437L88.2821 130.285L90.616 140.584L90.7042 140.973H91.1036H99.6475H100.047L100.135 140.584ZM83.6831 123.492L83.7713 123.882H84.1708H106.58H106.98L107.068 123.492L107.524 121.48H108.832L107.999 125.153H82.7525L81.9191 121.48H83.2274L83.6831 123.492Z" stroke="#258389" stroke-opacity="0.3"/>
<path d="M100.136 46.4176L100.676 43.9569H101.986L101.063 48.1482H89.6811L86.5414 33.8779H104.196L103.273 38.0692H101.963L102.456 35.823L102.111 35.7473L101.981 35.2087H88.7697H88.1477L88.2814 35.8162L90.6153 46.4178L90.7017 46.8104H91.1036H99.6475H100.05L100.136 46.4176ZM83.6824 28.8237L83.7688 29.2162H84.1708H106.58H106.982L107.069 28.8237L107.526 26.7441H108.836L107.996 30.5541H82.755L81.9152 26.7441H83.2249L83.6824 28.8237Z" stroke="#258389" stroke-opacity="0.3"/>
<path d="M100.135 92.5758L100.674 90.1936H101.982L101.066 94.2366H89.6786L86.5454 80.4025H104.192L103.276 84.4456H101.967L102.455 82.2839L102.108 82.2054L101.981 81.6668H88.7697H88.1437L88.2821 82.2773L90.616 92.5761L90.7042 92.9655H91.1036H99.6475H100.047L100.135 92.5758ZM83.6831 75.4845L83.7713 75.8741H84.1708H106.58H106.98L107.068 75.4845L107.524 73.4727H108.832L107.999 77.1452H82.7525L81.9191 73.4727H83.2274L83.6831 75.4845Z" stroke="#258389" stroke-opacity="0.3"/>
<path d="M9.32186 72.5727L8.78345 74.9548L7.47514 74.9548L8.39138 70.9118L19.7784 70.9118L22.9117 84.7459L5.26517 84.7459L6.1814 80.7029L7.49032 80.7029L7.00173 82.8646L7.3489 82.943L7.47566 83.4817L20.6873 83.4817L21.3133 83.4817L21.175 82.8712L18.8411 72.5724L18.7528 72.1829L18.3534 72.1829L9.80956 72.1829L9.40996 72.1829L9.32186 72.5727ZM25.7739 89.6639L25.6857 89.2743L25.2863 89.2743L2.87671 89.2743L2.47729 89.2743L2.38906 89.6639L1.9334 91.6758L0.625084 91.6758L1.45841 88.0032L26.7046 88.0033L27.5379 91.6758L26.2296 91.6758L25.7739 89.6639Z" stroke="#258389" stroke-opacity="0.3"/>
<path d="M63.0914 119.301L62.553 121.683L61.2447 121.683L62.1609 117.64L73.548 117.64L76.6812 131.474L59.0347 131.474L59.9509 127.431L61.2598 127.431L60.7713 129.593L61.1184 129.672L61.2452 130.21L74.4569 130.21L75.0828 130.21L74.9445 129.6L72.6106 119.301L72.5223 118.911L72.123 118.911L63.5791 118.911L63.1795 118.911L63.0914 119.301ZM79.5435 136.392L79.4552 136.003L79.0558 136.003L56.6462 136.003L56.2468 136.003L56.1586 136.392L55.7029 138.404L54.3946 138.404L55.2279 134.732L80.4741 134.732L81.3074 138.404L79.9991 138.404L79.5435 136.392Z" stroke="#258389" stroke-opacity="0.3"/>
<path d="M63.0914 24.5649L62.553 26.947L61.2447 26.947L62.1609 22.904L73.548 22.904L76.6812 36.7381L59.0347 36.7381L59.9509 32.695L61.2598 32.695L60.7713 34.8568L61.1184 34.9352L61.2452 35.4739L74.4569 35.4739L75.0828 35.4739L74.9445 34.8633L72.6106 24.5646L72.5223 24.1751L72.123 24.1751L63.5791 24.1751L63.1795 24.1751L63.0914 24.5649ZM79.5435 41.6561L79.4552 41.2665L79.0558 41.2665L56.6462 41.2665L56.2468 41.2665L56.1586 41.6561L55.7029 43.668L54.3946 43.668L55.2279 39.9954L80.4741 39.9954L81.3074 43.668L79.9991 43.668L79.5435 41.6561Z" stroke="#258389" stroke-opacity="0.3"/>
<path d="M9.3212 120.653L8.78093 123.113L7.4712 123.113L8.39391 118.922L19.7759 118.922L22.9156 133.192L5.26123 133.192L6.18394 129.001L7.49425 129.001L7.00106 131.247L7.34557 131.323L7.47566 131.862L20.6873 131.862L21.3094 131.862L21.1756 131.254L18.8417 120.652L18.7553 120.26L18.3534 120.26L9.80956 120.26L9.40743 120.26L9.3212 120.653ZM25.7746 138.247L25.6882 137.854L25.2863 137.854L2.87671 137.854L2.47475 137.854L2.38839 138.247L1.93087 140.326L0.621138 140.326L1.46095 136.516L26.702 136.516L27.5418 140.326L26.2321 140.326L25.7746 138.247Z" stroke="#258389" stroke-opacity="0.3"/>
<path d="M9.3212 144.977L8.78093 147.438L7.4712 147.438L8.39391 143.246L19.7759 143.246L22.9156 157.517L5.26123 157.517L6.18394 153.325L7.49425 153.325L7.00106 155.572L7.34557 155.647L7.47566 156.186L20.6873 156.186L21.3094 156.186L21.1756 155.578L18.8417 144.977L18.7553 144.584L18.3534 144.584L9.80956 144.584L9.40743 144.584L9.3212 144.977ZM25.7746 162.571L25.6882 162.178L25.2863 162.178L2.87671 162.178L2.47475 162.178L2.38839 162.571L1.93087 164.65L0.621138 164.65L1.46095 160.84L26.702 160.84L27.5418 164.65L26.2321 164.65L25.7746 162.571Z" stroke="#258389" stroke-opacity="0.3"/>
<path d="M63.0914 72.5727L62.553 74.9548L61.2447 74.9548L62.1609 70.9118L73.548 70.9118L76.6812 84.7459L59.0347 84.7459L59.9509 80.7029L61.2598 80.7029L60.7713 82.8646L61.1184 82.943L61.2452 83.4817L74.4569 83.4817L75.0828 83.4817L74.9445 82.8712L72.6106 72.5724L72.5223 72.1829L72.123 72.1829L63.5791 72.1829L63.1795 72.1829L63.0914 72.5727ZM79.5435 89.6639L79.4552 89.2743L79.0558 89.2743L56.6462 89.2743L56.2468 89.2743L56.1586 89.6639L55.7029 91.6758L54.3946 91.6758L55.2279 88.0032L80.4741 88.0033L81.3074 91.6758L79.9991 91.6758L79.5435 89.6639Z" stroke="#258389" stroke-opacity="0.3"/>
<path d="M46.3663 162.92L46.9066 160.459H48.2163L47.2936 164.65H35.9116L32.7719 150.38H50.4263L49.5036 154.571H48.1933L48.6864 152.325L48.3419 152.249L48.2118 151.711H35.0002H34.3781L34.5119 152.318L36.8458 162.92L36.9322 163.312H37.3341H45.8779H46.2801L46.3663 162.92ZM29.9129 145.326L29.9993 145.718H30.4012H52.8108H53.2127L53.2991 145.326L53.7566 143.246H55.0664L54.2265 147.056H28.9855L28.1457 143.246H29.4554L29.9129 145.326Z" stroke="#258389" stroke-opacity="0.3"/>
<path d="M46.3656 68.2516L46.904 65.8694H48.2124L47.2961 69.9124H35.9091L32.7758 56.0783H50.4223L49.5061 60.1214H48.1972L48.6858 57.9596L48.3386 57.8812L48.2118 57.3425H35.0002H34.3742L34.5125 57.9531L36.8464 68.2518L36.9347 68.6413H37.3341H45.8779H46.2775L46.3656 68.2516ZM29.9136 51.1603L30.0018 51.5499H30.4012H52.8108H53.2102L53.2984 51.1603L53.7541 49.1484H55.0624L54.2291 52.821H28.9829L28.1496 49.1484H29.4579L29.9136 51.1603Z" stroke="#258389" stroke-opacity="0.3"/>
<path d="M46.3656 116.261L46.904 113.879H48.2124L47.2961 117.922H35.9091L32.7758 104.088H50.4223L49.5061 108.131H48.1972L48.6858 105.969L48.3386 105.891L48.2118 105.352H35.0002H34.3742L34.5125 105.963L36.8464 116.262L36.9347 116.651H37.3341H45.8779H46.2775L46.3656 116.261ZM29.9136 99.1701L30.0018 99.5597H30.4012H52.8108H53.2102L53.2984 99.1701L53.7541 97.1582H55.0624L54.2291 100.831H28.9829L28.1496 97.1582H29.4579L29.9136 99.1701Z" stroke="#258389" stroke-opacity="0.3"/>
<path d="M100.136 162.92L100.676 160.459H101.986L101.063 164.65H89.6811L86.5414 150.38H104.196L103.273 154.571H101.963L102.456 152.325L102.111 152.249L101.981 151.711H88.7697H88.1477L88.2814 152.318L90.6153 162.92L90.7017 163.312H91.1036H99.6475H100.05L100.136 162.92ZM83.6824 145.326L83.7688 145.718H84.1708H106.58H106.982L107.069 145.326L107.526 143.246H108.836L107.996 147.056H82.755L81.9152 143.246H83.2249L83.6824 145.326Z" stroke="#258389" stroke-opacity="0.3"/>
<path d="M100.136 186.763L100.676 184.303H101.986L101.063 188.494H89.6811L86.5414 174.224H104.196L103.273 178.415H101.963L102.456 176.169L102.111 176.093L101.981 175.554H88.7697H88.1477L88.2814 176.162L90.6153 186.764L90.7017 187.156H91.1036H99.6475H100.05L100.136 186.763ZM83.6824 169.169L83.7688 169.562H84.1708H106.58H106.982L107.069 169.169L107.526 167.09H108.836L107.996 170.9H82.755L81.9152 167.09H83.2249L83.6824 169.169Z" stroke="#258389" stroke-opacity="0.3"/>
<path d="M100.136 210L100.676 207.539H101.986L101.063 211.73H89.6811L86.5414 197.46H104.196L103.273 201.651H101.963L102.456 199.405L102.111 199.329L101.981 198.791H88.7697H88.1477L88.2814 199.398L90.6153 210L90.7017 210.392H91.1036H99.6475H100.05L100.136 210ZM83.6824 192.406L83.7688 192.798H84.1708H106.58H106.982L107.069 192.406L107.526 190.326H108.836L107.996 194.136H82.755L81.9152 190.326H83.2249L83.6824 192.406Z" stroke="#258389" stroke-opacity="0.3"/>
<path d="M100.135 68.2516L100.674 65.8694H101.982L101.066 69.9124H89.6786L86.5454 56.0783H104.192L103.276 60.1214H101.967L102.455 57.9596L102.108 57.8812L101.981 57.3425H88.7697H88.1437L88.2821 57.9531L90.616 68.2518L90.7042 68.6413H91.1036H99.6475H100.047L100.135 68.2516ZM83.6831 51.1603L83.7713 51.5499H84.1708H106.58H106.98L107.068 51.1603L107.524 49.1484H108.832L107.999 52.821H82.7525L81.9191 49.1484H83.2274L83.6831 51.1603Z" stroke="#258389" stroke-opacity="0.3"/>
<path d="M100.136 114.91L100.676 112.449H101.986L101.063 116.64H89.6811L86.5414 102.37H104.196L103.273 106.561H101.963L102.456 104.315L102.111 104.24L101.981 103.701H88.7697H88.1477L88.2814 104.308L90.6153 114.91L90.7017 115.303H91.1036H99.6475H100.05L100.136 114.91ZM83.6824 97.3158L83.7688 97.7084H84.1708H106.58H106.982L107.069 97.3158L107.526 95.2363H108.836L107.996 99.0463H82.755L81.9152 95.2363H83.2249L83.6824 97.3158Z" stroke="#258389" stroke-opacity="0.3"/>
<path d="M9.32186 50.809L8.78345 53.1912L7.47514 53.1912L8.39138 49.1481L19.7784 49.1481L22.9117 62.9822L5.26517 62.9822L6.1814 58.9392L7.49032 58.9392L7.00173 61.1009L7.3489 61.1794L7.47566 61.718L20.6873 61.718L21.3133 61.718L21.175 61.1075L18.8411 50.8087L18.7528 50.4192L18.3534 50.4192L9.80956 50.4192L9.40996 50.4192L9.32186 50.809ZM25.7739 67.9002L25.6857 67.5107L25.2863 67.5107L2.87671 67.5107L2.47729 67.5107L2.38906 67.9002L1.9334 69.9121L0.625084 69.9121L1.45841 66.2396L26.7046 66.2396L27.5379 69.9121L26.2296 69.9121L25.7739 67.9002Z" stroke="#258389" stroke-opacity="0.3"/>
<path d="M63.0907 96.9672L62.5505 99.4279L61.2407 99.4279L62.1634 95.2365L73.5454 95.2365L76.6851 109.507L59.0308 109.507L59.9535 105.316L61.2638 105.316L60.7706 107.562L61.1151 107.637L61.2452 108.176L74.4569 108.176L75.0789 108.176L74.9452 107.569L72.6113 96.9669L72.5249 96.5744L72.123 96.5744L63.5791 96.5744L63.177 96.5744L63.0907 96.9672ZM79.5441 114.561L79.4578 114.169L79.0558 114.169L56.6462 114.169L56.2443 114.169L56.1579 114.561L55.7004 116.641L54.3907 116.641L55.2305 112.831L80.4716 112.831L81.3114 116.641L80.0016 116.641L79.5441 114.561Z" stroke="#258389" stroke-opacity="0.3"/>
<path d="M63.0907 2.23086L62.5505 4.69157L61.2407 4.69157L62.1634 0.500208L73.5454 0.500209L76.6851 14.7706L59.0308 14.7706L59.9535 10.5792L61.2638 10.5792L60.7706 12.8255L61.1151 12.9011L61.2452 13.4398L74.4569 13.4398L75.0789 13.4398L74.9452 12.8323L72.6113 2.23059L72.5249 1.83809L72.123 1.83809L63.5791 1.83809L63.177 1.83809L63.0907 2.23086ZM79.5441 19.8248L79.4578 19.4322L79.0558 19.4322L56.6462 19.4322L56.2443 19.4322L56.1579 19.8248L55.7004 21.9043L54.3907 21.9043L55.2305 18.0943L80.4716 18.0943L81.3114 21.9043L80.0016 21.9043L79.5441 19.8248Z" stroke="#258389" stroke-opacity="0.3"/>
<path d="M9.32186 98.8188L8.78345 101.201L7.47514 101.201L8.39138 97.1579L19.7784 97.1579L22.9117 110.992L5.26517 110.992L6.1814 106.949L7.49032 106.949L7.00173 109.111L7.3489 109.189L7.47566 109.728L20.6873 109.728L21.3133 109.728L21.175 109.117L18.8411 98.8185L18.7528 98.429L18.3534 98.429L9.80956 98.429L9.40996 98.429L9.32186 98.8188ZM25.7739 115.91L25.6857 115.52L25.2863 115.52L2.87671 115.52L2.47729 115.52L2.38906 115.91L1.9334 117.922L0.625084 117.922L1.45841 114.249L26.7046 114.249L27.5379 117.922L26.2296 117.922L25.7739 115.91Z" stroke="#258389" stroke-opacity="0.3"/>
<path d="M63.0907 144.977L62.5505 147.438L61.2407 147.438L62.1634 143.246L73.5454 143.246L76.6851 157.517L59.0308 157.517L59.9535 153.325L61.2638 153.325L60.7706 155.572L61.1151 155.647L61.2452 156.186L74.4569 156.186L75.0789 156.186L74.9452 155.578L72.6113 144.977L72.5249 144.584L72.123 144.584L63.5791 144.584L63.177 144.584L63.0907 144.977ZM79.5441 162.571L79.4578 162.178L79.0558 162.178L56.6462 162.178L56.2443 162.178L56.1579 162.571L55.7004 164.65L54.3907 164.65L55.2305 160.84L80.4716 160.84L81.3114 164.65L80.0016 164.65L79.5441 162.571Z" stroke="#258389" stroke-opacity="0.3"/>
<path d="M63.0907 167.245L62.5505 169.705L61.2407 169.705L62.1634 165.514L73.5454 165.514L76.6851 179.784L59.0308 179.784L59.9535 175.593L61.2638 175.593L60.7706 177.839L61.1151 177.915L61.2452 178.453L74.4569 178.453L75.0789 178.453L74.9452 177.846L72.6113 167.244L72.5249 166.852L72.123 166.852L63.5791 166.852L63.177 166.852L63.0907 167.245ZM79.5441 184.838L79.4578 184.446L79.0558 184.446L56.6462 184.446L56.2443 184.446L56.1579 184.838L55.7004 186.918L54.3907 186.918L55.2305 183.108L80.4716 183.108L81.3114 186.918L80.0016 186.918L79.5441 184.838Z" stroke="#258389" stroke-opacity="0.3"/>
<path d="M63.0914 50.809L62.553 53.1912L61.2447 53.1912L62.1609 49.1481L73.548 49.1481L76.6812 62.9822L59.0347 62.9822L59.9509 58.9392L61.2598 58.9392L60.7713 61.1009L61.1184 61.1794L61.2452 61.718L74.4569 61.718L75.0828 61.718L74.9445 61.1075L72.6106 50.8087L72.5223 50.4192L72.123 50.4192L63.5791 50.4192L63.1795 50.4192L63.0914 50.809ZM79.5435 67.9002L79.4552 67.5107L79.0558 67.5107L56.6462 67.5107L56.2468 67.5107L56.1586 67.9002L55.7029 69.9121L54.3946 69.9121L55.2279 66.2396L80.4741 66.2396L81.3074 69.9121L79.9991 69.9121L79.5435 67.9002Z" stroke="#258389" stroke-opacity="0.3"/>
</svg>
