<svg width="8" height="5" viewBox="0 0 8 5" fill="none" xmlns="http://www.w3.org/2000/svg">
<path d="M4.28095 4.6916L7.39598 1.59218C7.46809 1.52049 7.50781 1.4248 7.50781 1.32276C7.50781 1.22072 7.46809 1.12503 7.39598 1.05334L7.16664 0.825091C7.01719 0.676567 6.7743 0.676567 6.62508 0.825091L4.00926 3.42775L1.39055 0.822204C1.31844 0.750518 1.22232 0.710938 1.11982 0.710938C1.01721 0.710938 0.921093 0.750518 0.848932 0.822204L0.619641 1.05045C0.547536 1.1222 0.507813 1.21784 0.507813 1.31987C0.507813 1.42191 0.547536 1.5176 0.619641 1.58929L3.73752 4.6916C3.80985 4.76346 3.90643 4.80292 4.00909 4.8027C4.11216 4.80292 4.20868 4.76346 4.28095 4.6916Z" fill="#444444"/>
</svg>
