<svg width="18" height="18" viewBox="0 0 18 18" fill="none" xmlns="http://www.w3.org/2000/svg">
<path d="M8.20459 1.44922C4.48555 1.44922 1.45605 4.47871 1.45605 8.19777C1.45605 11.9168 4.48555 14.9522 8.20459 14.9522C9.79311 14.9522 11.254 14.3955 12.4087 13.4712L15.2197 16.2808C15.3616 16.4167 15.5511 16.4918 15.7476 16.4898C15.9441 16.4878 16.1319 16.4089 16.271 16.27C16.41 16.1312 16.4892 15.9434 16.4915 15.7469C16.4937 15.5504 16.419 15.3609 16.2832 15.2188L13.4722 12.4078C14.3972 11.2514 14.9546 9.78812 14.9546 8.19777C14.9546 4.47871 11.9236 1.44922 8.20459 1.44922ZM8.20459 2.94924C11.113 2.94924 13.4531 5.28939 13.4531 8.19777C13.4531 11.1061 11.113 13.4522 8.20459 13.4522C5.29621 13.4522 2.95605 11.1061 2.95605 8.19777C2.95605 5.28939 5.29621 2.94924 8.20459 2.94924Z" fill="white"/>
</svg>
