<svg width="10" height="10" viewBox="0 0 10 10" fill="none" xmlns="http://www.w3.org/2000/svg">
<g clip-path="url(#clip0_1519_1537)">
<path d="M2.22259 5.3902L6.67271 9.84025C6.77564 9.94325 6.91304 10 7.05954 10C7.20604 10 7.34344 9.94325 7.44637 9.84025L7.77409 9.51261C7.98734 9.29911 7.98734 8.95212 7.77409 8.73895L4.03721 5.00207L7.77823 1.26105C7.88116 1.15804 7.93799 1.02072 7.93799 0.874302C7.93799 0.727718 7.88116 0.590402 7.77823 0.487313L7.45051 0.159755C7.34751 0.0567474 7.21019 8.90048e-07 7.06369 8.7724e-07C6.91718 8.64433e-07 6.77979 0.0567473 6.67686 0.159755L2.22259 4.61386C2.11942 4.7172 2.06275 4.85516 2.06308 5.00183C2.06275 5.14906 2.11942 5.28695 2.22259 5.3902Z" fill="white"/>
</g>
<defs>
<clipPath id="clip0_1519_1537">
<rect width="10" height="10" fill="white" transform="translate(10 10) rotate(-180)"/>
</clipPath>
</defs>
</svg>
