<svg width="10" height="10" viewBox="0 0 16 16" fill="none" xmlns="http://www.w3.org/2000/svg">
    <g clip-path="url(#clip0_282_13969)">
        <path d="M0.781153 16.0001C0.626615 16.0001 0.47554 15.9543 0.347037 15.8685C0.218534 15.7826 0.118377 15.6606 0.0592336 15.5178C9.05213e-05 15.3751 -0.0153811 15.218 0.0147757 15.0664C0.0449325 14.9148 0.119363 14.7756 0.228652 14.6664L14.6662 0.228853C14.8127 0.0823209 15.0114 0 15.2187 0C15.4259 0 15.6246 0.0823209 15.7712 0.228853C15.9177 0.375385 16 0.574125 16 0.781353C16 0.988581 15.9177 1.18732 15.7712 1.33385L1.33365 15.7714C1.26117 15.844 1.17504 15.9016 1.08022 15.9409C0.98541 15.9801 0.883773 16.0002 0.781153 16.0001Z" fill="#AD2F3F"/>
        <path d="M15.2186 16.0001C15.116 16.0002 15.0144 15.9801 14.9195 15.9409C14.8247 15.9016 14.7386 15.844 14.6661 15.7714L0.228609 1.33385C0.0820768 1.18732 -0.000244141 0.988581 -0.000244141 0.781353C-0.000244141 0.574125 0.0820768 0.375385 0.228609 0.228853C0.375141 0.0823209 0.573881 0 0.781109 0C0.988337 0 1.18708 0.0823209 1.33361 0.228853L15.7711 14.6664C15.8804 14.7756 15.9548 14.9148 15.985 15.0664C16.0151 15.218 15.9997 15.3751 15.9405 15.5178C15.8814 15.6606 15.7812 15.7826 15.6527 15.8685C15.5242 15.9543 15.3731 16.0001 15.2186 16.0001Z" fill="#AD2F3F"/>
    </g>
    <defs>
        <clipPath id="clip0_282_13969">
            <rect width="16" height="16" fill="#AD2F3F"/>
        </clipPath>
    </defs>
</svg>
