<svg width="11" height="11" viewBox="0 0 11 11" fill="none" xmlns="http://www.w3.org/2000/svg">
<g clip-path="url(#clip0_2206_1571)">
<path d="M10.5383 3.24068L9.41534 2.56878L9.16232 1.52142C9.04998 1.0569 8.61975 0.747229 8.148 0.784354L6.86302 0.883805L6.12692 0.232055C5.76437 -0.0772981 5.23691 -0.0772981 4.87311 0.231733L4.13699 0.883784L2.85201 0.784333C2.38561 0.751612 1.94973 1.05718 1.84934 1.48331C1.82856 1.54789 1.45329 2.71438 1.47766 2.63861L0.461834 3.24034C0.0549198 3.49022 -0.108104 3.99186 0.0741054 4.43311L0.512494 5.49558L0.0744277 6.55774C-0.108104 6.99929 0.0552206 7.50063 0.461834 7.75019L1.5837 8.41739L1.83767 9.46948C1.94939 9.93367 2.37772 10.2418 2.85199 10.2065L4.12312 10.1084L4.87307 10.7678C5.05468 10.9226 5.27719 11 5.50001 11C5.7225 11 5.94533 10.9226 6.12692 10.7677L6.87687 10.1083L8.148 10.2065C8.62826 10.2446 9.0506 9.93397 9.16232 9.46945L9.41534 8.42209L10.5383 7.75019C10.9446 7.50063 11.1077 6.99929 10.9258 6.55774L10.4874 5.4956L10.9261 4.43281C11.108 3.99191 10.945 3.49025 10.5383 3.24068ZM5.50001 9.04492C3.54534 9.04492 1.95508 7.45467 1.95508 5.5C1.95508 3.54533 3.54534 1.95508 5.50001 1.95508C7.45468 1.95508 9.04493 3.54533 9.04493 5.5C9.04493 7.45467 7.45468 9.04492 5.50001 9.04492Z" fill="#5A5A5A"/>
<path d="M5.5 2.59961C3.90064 2.59961 2.59961 3.90064 2.59961 5.5C2.59961 7.09936 3.90064 8.40039 5.5 8.40039C7.09936 8.40039 8.40039 7.09936 8.40039 5.5C8.40039 3.90064 7.09936 2.59961 5.5 2.59961ZM7.33917 4.76104L5.40558 6.69464C5.34263 6.75759 5.26017 6.78906 5.17773 6.78906C5.0953 6.78906 5.01282 6.75759 4.94989 6.69464L3.66083 5.40558C3.53495 5.2797 3.53495 5.07575 3.66083 4.94987C3.78671 4.82399 3.99066 4.82399 4.11654 4.94987L5.17773 6.01109L6.88349 4.30534C7.00936 4.17946 7.21331 4.17946 7.33919 4.30534C7.46507 4.43122 7.46507 4.63517 7.33917 4.76104Z" fill="#5A5A5A"/>
</g>
<defs>
<clipPath id="clip0_2206_1571">
<rect width="11" height="11" fill="white"/>
</clipPath>
</defs>
</svg>
