<svg width="13" height="13" viewBox="0 0 13 13" fill="none" xmlns="http://www.w3.org/2000/svg">
<path d="M6.5 0C2.92982 0 0 2.92982 0 6.5C0 10.0702 2.92982 13 6.5 13C10.0702 13 13 10.0702 13 6.5C13 2.92982 10.0702 0 6.5 0ZM7.26172 9.54688C7.26172 9.96679 6.91991 10.3086 6.5 10.3086C6.08009 10.3086 5.73828 9.96679 5.73828 9.54688V5.73828C5.73828 5.31837 6.08009 4.97656 6.5 4.97656C6.91991 4.97656 7.26172 5.31837 7.26172 5.73828V9.54688ZM6.5 4.21484C6.08009 4.21484 5.73828 3.87304 5.73828 3.45312C5.73828 3.03321 6.08009 2.69141 6.5 2.69141C6.91991 2.69141 7.26172 3.03321 7.26172 3.45312C7.26172 3.87304 6.91991 4.21484 6.5 4.21484Z" fill="#AFAFAF"/>
</svg>
