<svg width="28" height="28" viewBox="0 0 28 28" fill="none" xmlns="http://www.w3.org/2000/svg">
<g clip-path="url(#clip0_282_2607)">
<path d="M3.2293 12.5244C1.6614 12.5244 0.384766 13.801 0.384766 15.3689V24.4715C0.384766 26.0394 1.6614 27.3161 3.2293 27.3161H6.64276C7.28337 27.3161 7.87273 27.0999 8.34949 26.7403V12.5244H3.2293Z" fill="#0C251E"/>
<path d="M27.6934 16.7915C27.6934 16.1077 27.4226 15.4705 26.9527 15.0006C27.4841 14.4191 27.7549 13.6397 27.6809 12.8285C27.5478 11.3823 26.2449 10.249 24.7135 10.249H17.6851C18.0333 9.19196 18.5908 7.25429 18.5908 5.69775C18.5908 3.22982 16.4938 1.14648 15.1774 1.14648C13.9952 1.14648 13.1509 1.81211 13.1145 1.83942C12.9803 1.94753 12.9017 2.11137 12.9017 2.28429V6.14262L9.62482 13.2415L9.48828 13.3109V25.5061C10.4145 25.943 11.5864 26.1785 12.3328 26.1785H22.7769C24.016 26.1785 25.1003 25.3434 25.3552 24.1908C25.486 23.598 25.4098 23.0006 25.1493 22.4817C25.9901 22.0585 26.5556 21.1926 26.5556 20.205C26.5556 19.8022 26.4634 19.4165 26.2882 19.0672C27.1291 18.6439 27.6934 17.778 27.6934 16.7915Z" fill="#0C251E"/>
</g>
<defs>
<clipPath id="clip0_282_2607">
<rect width="27.3077" height="27.3077" fill="white" transform="translate(0.384766 0.577148)"/>
</clipPath>
</defs>
</svg>
