<svg width="25" height="25" viewBox="0 0 25 25" fill="none" xmlns="http://www.w3.org/2000/svg">
<path fill-rule="evenodd" clip-rule="evenodd" d="M12.9552 20.3405C17.3641 20.3405 20.9382 16.7665 20.9382 12.3576C20.9382 7.94873 17.3641 4.37464 12.9552 4.37464C8.54638 4.37464 4.9723 7.94873 4.9723 12.3576C4.9723 16.7665 8.54638 20.3405 12.9552 20.3405ZM12.9552 22.3363C18.4663 22.3363 22.9339 17.8686 22.9339 12.3576C22.9339 6.84651 18.4663 2.37891 12.9552 2.37891C7.44417 2.37891 2.97656 6.84651 2.97656 12.3576C2.97656 17.8686 7.44417 22.3363 12.9552 22.3363Z" fill="white" stroke="url(#paint0_linear_294_3066)" stroke-width="0.4"/>
<path d="M12.9544 10.3618C12.9544 9.81067 13.4011 9.3639 13.9522 9.3639H14.9501C15.5012 9.3639 15.948 8.91714 15.948 8.36603C15.948 7.81493 15.5012 7.36816 14.9501 7.36816H13.9522C12.2989 7.36816 10.9586 8.70845 10.9586 10.3618V12.3575H9.96076C9.40966 12.3575 8.96289 12.8042 8.96289 13.3554C8.96289 13.9065 9.40965 14.3532 9.96076 14.3532H10.9586V20.3404C10.9586 20.8916 11.4054 21.3383 11.9565 21.3383C12.5076 21.3383 12.9544 20.8916 12.9544 20.3404V14.3532H14.9501C15.5012 14.3532 15.948 13.9065 15.948 13.3554C15.948 12.8042 15.5012 12.3575 14.9501 12.3575H12.9544V10.3618Z" fill="white" stroke="url(#paint1_linear_294_3066)" stroke-width="0.4"/>
<defs>
<linearGradient id="paint0_linear_294_3066" x1="2.69146" y1="2.37033" x2="22.106" y2="20.5892" gradientUnits="userSpaceOnUse">
<stop stop-color="#2D3941"/>
<stop offset="1" stop-color="#13181D"/>
</linearGradient>
<linearGradient id="paint1_linear_294_3066" x1="8.86311" y1="7.36216" x2="19.3363" y2="12.2763" gradientUnits="userSpaceOnUse">
<stop stop-color="#2D3941"/>
<stop offset="1" stop-color="#13181D"/>
</linearGradient>
</defs>
</svg>
