<svg width="44" height="44" viewBox="0 0 44 44" fill="none" xmlns="http://www.w3.org/2000/svg">
<path d="M39.6233 35.3283C38.333 34.7999 37.7811 34.0986 37.8344 33.0523C37.8894 31.831 37.1965 30.9364 36.8674 30.5829C37.0662 29.8235 37.6472 27.1965 36.868 24.9147C36.0307 22.4723 33.4744 18.7421 30.8367 15.0754C29.7568 13.5695 29.7058 11.9327 29.6468 10.0374C29.5902 8.22964 29.5265 6.18053 28.5183 3.90261C27.4222 1.42229 25.2228 0 22.4837 0C20.8542 0 19.1816 0.509249 17.8945 1.39705C15.2588 3.21606 15.6072 7.182 15.8377 9.80629C15.8693 10.1657 15.8991 10.5051 15.9164 10.7949C16.0699 13.3651 15.9302 14.7198 15.7476 15.1315C15.6294 15.4005 15.0478 16.1663 14.4322 16.977C13.7956 17.8155 13.0738 18.7659 12.4822 19.6515C11.7763 20.7172 11.2065 22.3461 10.6554 23.9213C10.2522 25.074 9.87131 26.1627 9.50055 26.8133C8.79784 28.065 8.97269 29.2321 9.11868 29.7715C8.85266 29.9563 8.46835 30.3201 8.1439 31.0059C7.75179 31.8426 6.95618 32.2923 5.30177 32.6104C4.5415 32.7659 4.01725 33.0856 3.74315 33.5605C3.34426 34.2517 3.56152 35.1202 3.75974 35.7137C4.05259 36.5862 3.8701 37.1384 3.53829 38.141C3.46183 38.3724 3.37513 38.6344 3.28727 38.9234C3.14893 39.3794 3.19884 39.794 3.43529 40.1557C4.06009 41.1108 5.88329 41.4477 7.76016 41.6693C8.88079 41.8023 10.1073 42.2505 11.2936 42.6842C12.4559 43.1089 13.6578 43.5482 14.7503 43.6815C14.9163 43.7024 15.0808 43.7129 15.2393 43.7129C16.8888 43.7129 17.6341 42.6184 17.8704 42.1687C18.4629 42.0478 20.5064 41.6606 22.6125 41.6087C24.7153 41.5487 26.7498 41.9639 27.3262 42.093C27.5073 42.4398 27.985 43.2319 28.7464 43.6401C29.1649 43.8689 29.7473 44 30.3439 44C30.344 44 30.3439 44 30.344 44C30.9811 44 32.193 43.8494 33.1522 42.8403C34.109 41.8264 36.4994 40.5321 38.245 39.587C38.6345 39.3761 38.9989 39.1787 39.3185 39.0006C40.299 38.457 40.8341 37.6803 40.7864 36.8696C40.7465 36.1964 40.3009 35.6058 39.6233 35.3283ZM17.916 35.1332C17.794 34.2733 16.6879 33.4206 15.407 32.4333C14.3596 31.6258 13.1725 30.7108 12.8454 29.9358C12.1696 28.3371 12.7023 25.5259 13.6312 24.0784C14.0903 23.3536 14.4652 22.2545 14.8279 21.1916C15.2194 20.0438 15.6244 18.8571 16.0772 18.3376C16.7944 17.5265 17.4571 15.9484 17.5745 14.7048C18.2461 15.3459 19.2878 16.1594 20.2502 16.1594C20.3983 16.1594 20.5422 16.14 20.6797 16.1012C21.3381 15.9111 22.3065 15.3515 23.2431 14.8105C24.0505 14.344 25.0462 13.7686 25.4209 13.7163C26.0633 14.6387 29.7961 22.8993 30.1775 25.5522C30.4793 27.6512 30.1605 29.3864 30.0002 30.066C29.8712 30.0484 29.7175 30.0342 29.5559 30.0342C28.5162 30.0342 28.2409 30.6017 28.1692 30.9406C27.9849 31.821 27.9654 34.6363 27.9634 35.2689C27.5874 35.7466 25.6862 37.9959 22.9566 38.4003C21.8447 38.5619 20.8065 38.6438 19.8708 38.6438C19.071 38.6438 18.5606 38.5821 18.3486 38.5499L16.977 36.9804C17.5178 36.7134 18.0585 36.1499 17.916 35.1332ZM19.6565 9.25434C19.6137 9.27281 19.5716 9.29257 19.5302 9.31363C19.526 9.22073 19.5163 9.12653 19.5015 9.03203C19.3517 8.17006 18.7801 7.54439 18.1426 7.54439C18.0955 7.54439 18.048 7.548 17.9959 7.55593C17.6167 7.61912 17.3192 7.90404 17.1562 8.30798C17.2991 7.42162 17.8013 6.76537 18.3971 6.76537C19.0968 6.76537 19.6878 7.70827 19.6878 8.82429C19.6878 8.96495 19.6776 9.10489 19.6565 9.25434ZM25.0932 9.91896C25.1573 9.71498 25.1919 9.49425 25.1919 9.26516C25.1919 8.2533 24.5499 7.46057 23.7304 7.46057C22.9294 7.46057 22.2778 8.27003 22.2778 9.26516C22.2778 9.33297 22.2811 9.40092 22.2875 9.46872C22.2451 9.45242 22.2037 9.43655 22.1633 9.42126C22.0711 9.14211 22.0245 8.85084 22.0245 8.55351C22.0245 7.34358 22.7977 6.35912 23.7484 6.35912C24.699 6.35912 25.4724 7.34358 25.4724 8.55351C25.4724 9.05685 25.3334 9.53724 25.0932 9.91896ZM24.3923 12.2739C24.3786 12.3351 24.3494 12.3622 24.0271 12.5298C23.8644 12.6145 23.6619 12.72 23.4084 12.8743L23.239 12.9769C22.5584 13.3895 20.9647 14.3559 20.5321 14.4126C20.2382 14.4521 20.0564 14.3382 19.6477 14.0605C19.5556 13.9977 19.4575 13.9311 19.3529 13.864C18.6161 13.3806 18.1422 12.8481 18.0887 12.6399C18.3289 12.4542 18.9243 11.9896 19.2291 11.7145C19.8478 11.1391 20.4705 10.7525 20.7786 10.7525C20.7949 10.7525 20.8096 10.7537 20.8249 10.7566C21.187 10.8205 22.0802 11.1769 22.7325 11.4372C23.034 11.5575 23.2944 11.6614 23.4776 11.7272C24.0548 11.9254 24.3558 12.179 24.3923 12.2739ZM29.5781 39.1603C29.9037 37.6915 30.2788 35.6935 30.2181 34.5156C30.2041 34.248 30.1804 33.9567 30.1575 33.6751C30.1146 33.1485 30.051 32.3659 30.1166 32.1338C30.1296 32.1277 30.144 32.1225 30.1601 32.118C30.1628 32.7915 30.3091 34.1347 31.3833 34.6031C31.7034 34.7428 32.0692 34.8135 32.4706 34.8135C33.5466 34.8135 34.7406 34.2856 35.2296 33.7966C35.5176 33.5086 35.7598 33.1563 35.9294 32.8773C35.9665 32.9859 35.9893 33.1279 35.9773 33.3108C35.9134 34.3041 36.3961 35.6218 37.3148 36.1074L37.4485 36.1776C37.7757 36.3493 38.6448 36.8056 38.6588 37.022C38.6586 37.0221 38.6514 37.0475 38.6029 37.0925C38.3852 37.2915 37.619 37.6827 36.8781 38.0611C35.5637 38.7322 34.0739 39.4929 33.4048 40.1966C32.4628 41.188 31.3973 41.8539 30.7538 41.8539C30.6764 41.8539 30.6058 41.8441 30.5431 41.8242C29.8443 41.6064 29.2691 40.5981 29.5781 39.1603ZM5.75865 35.4133C5.68738 35.0798 5.63112 34.8165 5.69157 34.5614C5.73542 34.3725 6.66837 34.1699 7.06683 34.0835C7.627 33.9619 8.20636 33.8362 8.5852 33.6063C9.09748 33.296 9.3749 32.7237 9.61957 32.2187C9.79672 31.8536 9.97965 31.4761 10.1973 31.3522C10.2096 31.3449 10.2284 31.3366 10.2641 31.3366C10.672 31.3366 11.5277 32.1939 12.0208 32.9613C12.1459 33.1547 12.3776 33.5424 12.6456 33.9912C13.4473 35.3325 14.545 37.1697 15.1183 37.7854C15.6349 38.339 16.4712 39.4032 16.2655 40.316C16.1149 41.0241 15.3131 41.6 15.1239 41.7274C15.0553 41.743 14.9703 41.7509 14.8703 41.7509C13.7731 41.7509 11.601 40.838 10.4341 40.3475L10.2614 40.275C9.60976 40.0017 8.54596 39.8296 7.51722 39.6632C6.69867 39.5306 5.57774 39.3492 5.39193 39.1854C5.24132 39.0164 5.41602 38.4672 5.5701 37.9826C5.68104 37.6344 5.79558 37.2743 5.85833 36.8973C5.94735 36.2961 5.84261 35.8066 5.75865 35.4133Z" fill="white"/>
</svg>
