<svg width="40" height="40" viewBox="0 0 40 40" fill="none" xmlns="http://www.w3.org/2000/svg">
<path d="M31.7969 0H8.20312C3.67992 0 0 3.67992 0 8.20312V31.7969C0 36.3201 3.67992 40 8.20312 40H31.7969C36.3201 40 40 36.3201 40 31.7969V8.20312C40 3.67992 36.3201 0 31.7969 0ZM12.3163 30.8215C11.955 31.4473 11.2971 31.7976 10.6216 31.7977C10.2904 31.7977 9.95508 31.7135 9.64828 31.5364C8.71562 30.998 8.39492 29.8011 8.93336 28.8684L9.3175 28.2031H13.828L12.3163 30.8215ZM8.63281 26.6406C7.55586 26.6406 6.67969 25.7645 6.67969 24.6875C6.67969 23.6105 7.55586 22.7344 8.63281 22.7344H12.4748L17.7447 13.6067L16.3165 11.133C15.778 10.2003 16.0987 9.00344 17.0313 8.46492H17.0314C17.9641 7.92648 19.1609 8.24727 19.6994 9.17984L20 9.70055L20.3006 9.17992C20.8393 8.24719 22.0362 7.92656 22.9686 8.465C23.4204 8.72586 23.7436 9.14703 23.8786 9.65094C24.0137 10.1548 23.9443 10.6813 23.6834 11.133L16.9854 22.7344H21.2103L23.4656 26.6406H8.63281ZM31.3672 26.6406H29.7804L31.0666 28.8684C31.6051 29.8009 31.2844 30.9978 30.3518 31.5363C30.0508 31.7101 29.7167 31.7989 29.3783 31.7989C29.2086 31.7989 29.038 31.7766 28.8696 31.7315C28.3656 31.5964 27.9445 31.2732 27.6836 30.8213L20.902 19.0754L23.1573 15.1691L27.5252 22.7344H31.3672C32.4441 22.7344 33.3203 23.6105 33.3203 24.6875C33.3203 25.7645 32.4441 26.6406 31.3672 26.6406Z" fill="white"/>
</svg>
