<svg width="30" height="30" viewBox="0 0 30 30" fill="none" xmlns="http://www.w3.org/2000/svg">
<g clip-path="url(#clip0_282_21954)">
<path d="M6.54799 0.479781C5.37431 -0.168932 3.99626 -0.153932 2.83008 0.489156L16.4981 13.0978L21.0897 8.5062L6.54799 0.479781Z" fill="white"/>
<path d="M1.46247 1.7793C1.12874 2.32489 0.9375 2.94923 0.9375 3.61107V26.3835C0.9375 27.0248 1.11187 27.636 1.42685 28.1703L15.1717 14.4255L1.46247 1.7793Z" fill="white"/>
<path d="M27.1783 11.866L22.7986 9.44922L17.877 14.3689L23.9085 19.9317L27.1802 18.1262C28.3576 17.4738 29.0626 16.3038 29.0626 14.9952C29.0607 13.6865 28.3576 12.5165 27.1783 11.866Z" fill="white"/>
<path d="M16.5499 15.6973L2.76758 29.4796C3.36567 29.8208 4.02188 30.0008 4.68184 30.0008C5.31931 30.0008 5.96052 29.8396 6.54736 29.5152L22.1784 20.8888L16.5499 15.6973Z" fill="white"/>
</g>
<defs>
<clipPath id="clip0_282_21954">
<rect width="30" height="30" fill="white"/>
</clipPath>
</defs>
</svg>
