<svg width="8" height="13" viewBox="0 0 8 13" fill="none" xmlns="http://www.w3.org/2000/svg">
<path d="M0.664956 5.99274L6.00511 0.207681C6.12862 0.0737718 6.2935 0 6.4693 0C6.6451 0 6.80998 0.0737718 6.93349 0.207681L7.32676 0.633613C7.58266 0.911155 7.58266 1.36224 7.32676 1.63936L2.8425 6.4973L7.33173 11.3606C7.45524 11.4945 7.52344 11.6731 7.52344 11.8634C7.52344 12.054 7.45524 12.2325 7.33173 12.3665L6.93847 12.7923C6.81486 12.9262 6.65008 13 6.47428 13C6.29847 13 6.1336 12.9262 6.01008 12.7923L0.664956 7.00198C0.541153 6.86764 0.473153 6.68829 0.473544 6.49762C0.473153 6.30622 0.541153 6.12697 0.664956 5.99274Z" fill="#38B8B9"/>
</svg>
