<svg width="13" height="13" viewBox="0 0 13 13" fill="none" xmlns="http://www.w3.org/2000/svg">
<g clip-path="url(#clip0_282_26508)">
<path d="M6.14054 0.148942C6.14039 0.149094 6.14021 0.149221 6.14006 0.1494L3.49944 2.80282C3.30162 3.0016 3.30235 3.32313 3.50116 3.521C3.69995 3.71884 4.02147 3.71808 4.21931 3.51929L5.99219 1.73779L5.99219 12.4922C5.99219 12.7727 6.21953 13 6.5 13C6.78046 13 7.00781 12.7727 7.00781 12.4922L7.00781 1.73781L8.78069 3.51927C8.97853 3.71805 9.30005 3.71881 9.49883 3.52097C9.69767 3.3231 9.69835 3.00155 9.50056 2.8028L6.85993 0.149374C6.85978 0.149221 6.8596 0.149094 6.85945 0.148916C6.66095 -0.0499679 6.33839 -0.0493337 6.14054 0.148942Z" fill="#01AA78"/>
</g>
<defs>
<clipPath id="clip0_282_26508">
<rect width="13" height="13" fill="white" transform="translate(0 13) rotate(-90)"/>
</clipPath>
</defs>
</svg>
