<svg width="239" height="108" viewBox="0 0 239 108" fill="none" xmlns="http://www.w3.org/2000/svg">
<g filter="url(#filter0_d)">
<path d="M46.0628 2.20174L34.5485 61.4612L7.99996 49.0577L46.0628 2.20174Z" fill="#1790FF"/>
</g>
<g filter="url(#filter1_d)">
<path d="M28.8568 91.6971L40.1908 32.4029L66.7769 44.7255L28.8568 91.6971Z" fill="#EFE732"/>
</g>
<path d="M98.7533 56H79.8833V32.2H98.7533V36.96H86.0033V41.55H96.0333V46.31H86.0033V51.24H98.7533V56ZM111.565 42.57C110.364 42.57 109.004 42.7967 107.485 43.25V56H101.535V37.98H106.805L107.145 39.68C108.211 38.9773 109.299 38.4673 110.409 38.15C111.543 37.81 112.495 37.64 113.265 37.64H114.795C116.337 37.64 117.572 38.1047 118.501 39.034C119.431 39.9633 119.895 41.1987 119.895 42.74V56H113.945V43.76C113.945 43.42 113.832 43.1367 113.605 42.91C113.379 42.6833 113.095 42.57 112.755 42.57H111.565ZM130.331 41.89C129.425 41.89 128.971 42.3433 128.971 43.25V45.12H134.751V43.25C134.751 42.3433 134.298 41.89 133.391 41.89H130.331ZM140.021 55.66C135.647 56.1133 131.68 56.34 128.121 56.34C126.58 56.34 125.345 55.8753 124.415 54.946C123.486 54.0167 123.021 52.7813 123.021 51.24V43.08C123.021 41.38 123.497 40.054 124.449 39.102C125.424 38.1273 126.761 37.64 128.461 37.64H135.261C136.961 37.64 138.287 38.1273 139.239 39.102C140.214 40.054 140.701 41.38 140.701 43.08V49.37H128.971V50.73C128.971 51.07 129.085 51.3533 129.311 51.58C129.538 51.8067 129.821 51.92 130.161 51.92C132.405 51.92 135.692 51.75 140.021 51.41V55.66ZM154.528 42.91C153.1 42.91 151.627 43.25 150.108 43.93V56H144.158V37.98H149.428L149.768 40.19C151.717 38.49 153.757 37.64 155.888 37.64H157.418V42.91H154.528ZM171.273 54.64C169.074 55.0933 167.147 55.32 165.493 55.32H164.303C162.761 55.32 161.526 54.8553 160.597 53.926C159.667 52.9967 159.203 51.7613 159.203 50.22V43.42C159.203 41.72 159.679 40.394 160.631 39.442C161.605 38.4673 162.943 37.98 164.643 37.98H177.223V57.02C177.223 58.5613 176.758 59.7967 175.829 60.726C174.899 61.6553 173.664 62.12 172.123 62.12C168.564 62.12 164.597 61.8933 160.223 61.44V57.02C164.552 57.36 167.839 57.53 170.083 57.53C170.423 57.53 170.706 57.4167 170.933 57.19C171.159 56.9633 171.273 56.68 171.273 56.34V54.64ZM167.193 50.73C168.621 50.73 169.981 50.6167 171.273 50.39V42.57H166.513C165.606 42.57 165.153 43.0233 165.153 43.93V49.54C165.153 49.88 165.266 50.1633 165.493 50.39C165.719 50.6167 166.003 50.73 166.343 50.73H167.193ZM191.657 51.24C196.259 51.58 199.885 51.75 202.537 51.75C202.877 51.75 203.161 51.6367 203.387 51.41C203.614 51.1833 203.727 50.9 203.727 50.56V49.37H196.417C194.876 49.37 193.641 48.9053 192.711 47.976C191.782 47.0467 191.317 45.8113 191.317 44.27V43.08C191.317 41.5387 191.782 40.3033 192.711 39.374C193.641 38.4447 194.876 37.98 196.417 37.98H207.977V42.4H198.457C198.117 42.4 197.834 42.5133 197.607 42.74C197.381 42.9667 197.267 43.25 197.267 43.59C197.267 43.93 197.381 44.2133 197.607 44.44C197.834 44.6667 198.117 44.78 198.457 44.78H204.577C206.119 44.78 207.354 45.2447 208.283 46.174C209.213 47.1033 209.677 48.3387 209.677 49.88V51.24C209.677 52.7813 209.213 54.0167 208.283 54.946C207.354 55.8753 206.119 56.34 204.577 56.34C200.565 56.34 196.259 56.1133 191.657 55.66V51.24ZM219.44 41.89C218.533 41.89 218.08 42.3433 218.08 43.25V45.12H223.86V43.25C223.86 42.3433 223.407 41.89 222.5 41.89H219.44ZM229.13 55.66C224.755 56.1133 220.789 56.34 217.23 56.34C215.689 56.34 214.453 55.8753 213.524 54.946C212.595 54.0167 212.13 52.7813 212.13 51.24V43.08C212.13 41.38 212.606 40.054 213.558 39.102C214.533 38.1273 215.87 37.64 217.57 37.64H224.37C226.07 37.64 227.396 38.1273 228.348 39.102C229.323 40.054 229.81 41.38 229.81 43.08V49.37H218.08V50.73C218.08 51.07 218.193 51.3533 218.42 51.58C218.647 51.8067 218.93 51.92 219.27 51.92C221.514 51.92 224.801 51.75 229.13 51.41V55.66Z" fill="#1790FF"/>
<path d="M188.517 38.66V56H182.567V43.25H180.017V38.66H188.517ZM182.567 31.86H188.517V36.62H182.567V31.86Z" fill="#EFE732"/>
<defs>
<filter id="filter0_d" x="0" y="-4" width="59.3371" height="73.4612" filterUnits="userSpaceOnUse" color-interpolation-filters="sRGB">
<feFlood flood-opacity="0" result="BackgroundImageFix"/>
<feColorMatrix in="SourceAlpha" type="matrix" values="0 0 0 0 0 0 0 0 0 0 0 0 0 0 0 0 0 0 127 0"/>
<feOffset dx="-4" dy="4"/>
<feGaussianBlur stdDeviation="2"/>
<feColorMatrix type="matrix" values="0 0 0 0 0 0 0 0 0 0 0 0 0 0 0 0 0 0 0.25 0"/>
<feBlend mode="normal" in2="BackgroundImageFix" result="effect1_dropShadow"/>
<feBlend mode="normal" in="SourceGraphic" in2="effect1_dropShadow" result="shape"/>
</filter>
<filter id="filter1_d" x="7.56372" y="32.4029" width="59.2131" height="75.4555" filterUnits="userSpaceOnUse" color-interpolation-filters="sRGB">
<feFlood flood-opacity="0" result="BackgroundImageFix"/>
<feColorMatrix in="SourceAlpha" type="matrix" values="0 0 0 0 0 0 0 0 0 0 0 0 0 0 0 0 0 0 127 0"/>
<feOffset dx="-4" dy="6"/>
<feGaussianBlur stdDeviation="2"/>
<feColorMatrix type="matrix" values="0 0 0 0 0 0 0 0 0 0 0 0 0 0 0 0 0 0 0.25 0"/>
<feBlend mode="normal" in2="BackgroundImageFix" result="effect1_dropShadow"/>
<feBlend mode="normal" in="SourceGraphic" in2="effect1_dropShadow" result="shape"/>
</filter>
</defs>
</svg>
