<svg width="238" height="128" viewBox="0 0 238 128" fill="none" xmlns="http://www.w3.org/2000/svg">
<g filter="url(#filter0_d)">
<path d="M54.5662 7.58724L40.4795 80.0855L7.99993 64.911L54.5662 7.58724Z" fill="#1790FF"/>
</g>
<g filter="url(#filter1_d)">
<path d="M33.5163 117.076L47.3823 44.5355L79.9079 59.611L33.5163 117.076Z" fill="#EFE732"/>
</g>
<path d="M105.253 59H86.3833V35.2H105.253V39.96H92.5033V44.55H102.533V49.31H92.5033V54.24H105.253V59ZM118.065 45.57C116.864 45.57 115.504 45.7967 113.985 46.25V59H108.035V40.98H113.305L113.645 42.68C114.711 41.9773 115.799 41.4673 116.909 41.15C118.043 40.81 118.995 40.64 119.765 40.64H121.295C122.837 40.64 124.072 41.1047 125.001 42.034C125.931 42.9633 126.395 44.1987 126.395 45.74V59H120.445V46.76C120.445 46.42 120.332 46.1367 120.105 45.91C119.879 45.6833 119.595 45.57 119.255 45.57H118.065ZM136.831 44.89C135.925 44.89 135.471 45.3433 135.471 46.25V48.12H141.251V46.25C141.251 45.3433 140.798 44.89 139.891 44.89H136.831ZM146.521 58.66C142.147 59.1133 138.18 59.34 134.621 59.34C133.08 59.34 131.845 58.8753 130.915 57.946C129.986 57.0167 129.521 55.7813 129.521 54.24V46.08C129.521 44.38 129.997 43.054 130.949 42.102C131.924 41.1273 133.261 40.64 134.961 40.64H141.761C143.461 40.64 144.787 41.1273 145.739 42.102C146.714 43.054 147.201 44.38 147.201 46.08V52.37H135.471V53.73C135.471 54.07 135.585 54.3533 135.811 54.58C136.038 54.8067 136.321 54.92 136.661 54.92C138.905 54.92 142.192 54.75 146.521 54.41V58.66ZM161.028 45.91C159.6 45.91 158.127 46.25 156.608 46.93V59H150.658V40.98H155.928L156.268 43.19C158.217 41.49 160.257 40.64 162.388 40.64H163.918V45.91H161.028ZM177.773 57.64C175.574 58.0933 173.647 58.32 171.993 58.32H170.803C169.261 58.32 168.026 57.8553 167.097 56.926C166.167 55.9967 165.703 54.7613 165.703 53.22V46.42C165.703 44.72 166.179 43.394 167.131 42.442C168.105 41.4673 169.443 40.98 171.143 40.98H183.723V60.02C183.723 61.5613 183.258 62.7967 182.329 63.726C181.399 64.6553 180.164 65.12 178.623 65.12C175.064 65.12 171.097 64.8933 166.723 64.44V60.02C171.052 60.36 174.339 60.53 176.583 60.53C176.923 60.53 177.206 60.4167 177.433 60.19C177.659 59.9633 177.773 59.68 177.773 59.34V57.64ZM173.693 53.73C175.121 53.73 176.481 53.6167 177.773 53.39V45.57H173.013C172.106 45.57 171.653 46.0233 171.653 46.93V52.54C171.653 52.88 171.766 53.1633 171.993 53.39C172.219 53.6167 172.503 53.73 172.843 53.73H173.693ZM198.157 54.24C202.759 54.58 206.385 54.75 209.037 54.75C209.377 54.75 209.661 54.6367 209.887 54.41C210.114 54.1833 210.227 53.9 210.227 53.56V52.37H202.917C201.376 52.37 200.141 51.9053 199.211 50.976C198.282 50.0467 197.817 48.8113 197.817 47.27V46.08C197.817 44.5387 198.282 43.3033 199.211 42.374C200.141 41.4447 201.376 40.98 202.917 40.98H214.477V45.4H204.957C204.617 45.4 204.334 45.5133 204.107 45.74C203.881 45.9667 203.767 46.25 203.767 46.59C203.767 46.93 203.881 47.2133 204.107 47.44C204.334 47.6667 204.617 47.78 204.957 47.78H211.077C212.619 47.78 213.854 48.2447 214.783 49.174C215.713 50.1033 216.177 51.3387 216.177 52.88V54.24C216.177 55.7813 215.713 57.0167 214.783 57.946C213.854 58.8753 212.619 59.34 211.077 59.34C207.065 59.34 202.759 59.1133 198.157 58.66V54.24ZM225.94 44.89C225.033 44.89 224.58 45.3433 224.58 46.25V48.12H230.36V46.25C230.36 45.3433 229.907 44.89 229 44.89H225.94ZM235.63 58.66C231.255 59.1133 227.289 59.34 223.73 59.34C222.189 59.34 220.953 58.8753 220.024 57.946C219.095 57.0167 218.63 55.7813 218.63 54.24V46.08C218.63 44.38 219.106 43.054 220.058 42.102C221.033 41.1273 222.37 40.64 224.07 40.64H230.87C232.57 40.64 233.896 41.1273 234.848 42.102C235.823 43.054 236.31 44.38 236.31 46.08V52.37H224.58V53.73C224.58 54.07 224.693 54.3533 224.92 54.58C225.147 54.8067 225.43 54.92 225.77 54.92C228.014 54.92 231.301 54.75 235.63 54.41V58.66Z" fill="#1790FF"/>
<path d="M195.017 41.66V59H189.067V46.25H186.517V41.66H195.017ZM189.067 34.86H195.017V39.62H189.067V34.86Z" fill="#EFE732"/>
<defs>
<filter id="filter0_d" x="0" y="7.58723" width="54.5663" height="80.4982" filterUnits="userSpaceOnUse" color-interpolation-filters="sRGB">
<feFlood flood-opacity="0" result="BackgroundImageFix"/>
<feColorMatrix in="SourceAlpha" type="matrix" values="0 0 0 0 0 0 0 0 0 0 0 0 0 0 0 0 0 0 127 0"/>
<feOffset dx="-4" dy="4"/>
<feGaussianBlur stdDeviation="2"/>
<feColorMatrix type="matrix" values="0 0 0 0 0 0 0 0 0 0 0 0 0 0 0 0 0 0 0.25 0"/>
<feBlend mode="normal" in2="BackgroundImageFix" result="effect1_dropShadow"/>
<feBlend mode="normal" in="SourceGraphic" in2="effect1_dropShadow" result="shape"/>
</filter>
<filter id="filter1_d" x="25.5164" y="44.5355" width="54.3916" height="82.5408" filterUnits="userSpaceOnUse" color-interpolation-filters="sRGB">
<feFlood flood-opacity="0" result="BackgroundImageFix"/>
<feColorMatrix in="SourceAlpha" type="matrix" values="0 0 0 0 0 0 0 0 0 0 0 0 0 0 0 0 0 0 127 0"/>
<feOffset dx="-4" dy="6"/>
<feGaussianBlur stdDeviation="2"/>
<feColorMatrix type="matrix" values="0 0 0 0 0 0 0 0 0 0 0 0 0 0 0 0 0 0 0.25 0"/>
<feBlend mode="normal" in2="BackgroundImageFix" result="effect1_dropShadow"/>
<feBlend mode="normal" in="SourceGraphic" in2="effect1_dropShadow" result="shape"/>
</filter>
</defs>
</svg>
