<svg width="349" height="334" viewBox="0 0 349 334" fill="none" xmlns="http://www.w3.org/2000/svg">
<path d="M181.5 211.75V242C157.432 242 134.349 251.561 117.33 268.58C100.311 285.599 90.75 308.682 90.75 332.75H60.5C60.5 300.659 73.2482 269.882 95.9401 247.19C118.632 224.498 149.409 211.75 181.5 211.75ZM181.5 196.625C131.361 196.625 90.75 156.014 90.75 105.875C90.75 55.7356 131.361 15.125 181.5 15.125C231.639 15.125 272.25 55.7356 272.25 105.875C272.25 156.014 231.639 196.625 181.5 196.625ZM181.5 166.375C214.926 166.375 242 139.301 242 105.875C242 72.4487 214.926 45.375 181.5 45.375C148.074 45.375 121 72.4487 121 105.875C121 139.301 148.074 166.375 181.5 166.375ZM220.749 284.531C218.832 276.461 218.832 268.054 220.749 259.984L205.745 251.317L220.87 225.12L235.874 233.787C241.897 228.083 249.176 223.876 257.125 221.506V204.188H287.375V221.506C295.421 223.895 302.682 228.161 308.626 233.787L323.63 225.12L338.755 251.317L323.751 259.984C325.666 268.049 325.666 276.451 323.751 284.516L338.755 293.183L323.63 319.379L308.626 310.713C302.603 316.417 295.324 320.624 287.375 322.994V340.312H257.125V322.994C249.176 320.624 241.897 316.417 235.874 310.713L220.87 319.379L205.745 293.183L220.749 284.531ZM272.25 294.938C278.267 294.938 284.038 292.547 288.292 288.292C292.547 284.038 294.938 278.267 294.938 272.25C294.938 266.233 292.547 260.462 288.292 256.208C284.038 251.953 278.267 249.562 272.25 249.562C266.233 249.562 260.462 251.953 256.208 256.208C251.953 260.462 249.562 266.233 249.562 272.25C249.562 278.267 251.953 284.038 256.208 288.292C260.462 292.547 266.233 294.938 272.25 294.938Z" fill="#E6EFFE"/>
</svg>
