<svg width="329" height="366" viewBox="0 0 329 366" fill="none" xmlns="http://www.w3.org/2000/svg">
<path d="M124.033 286.215C126.81 286.25 128.453 283.167 129.25 280.503C132.198 270.662 132.425 260.023 129.907 250.062L125.829 250.295C127.27 256.396 122.851 263.246 116.697 264.451C115.814 270.363 116.664 276.405 119.145 281.844C120.109 283.942 121.721 286.189 124.033 286.215Z" fill="#E6EFFE"/>
<path d="M327.234 260.79C323.541 259.901 323.717 254.527 321.452 251.478C317.953 246.765 310.55 249.222 305.43 252.087C297.546 256.493 289.347 260.58 281.682 265.363C272.659 270.991 271.765 282.151 270.351 291.612C269.646 296.334 267.127 300.254 271.437 303.245C279.588 308.904 291.068 295.519 299.285 294.301C310.222 292.681 310.866 308.103 317.558 313.88C319.052 315.15 320.803 316.081 322.691 316.609C324.579 317.137 326.56 317.249 328.495 316.937C330.426 316.597 332.26 315.842 333.87 314.724C335.481 313.607 336.83 312.153 337.825 310.464C339.384 304.34 342.047 300.49 345.656 295.283C348.267 291.516 351.004 287.25 350.312 282.721C349.703 278.739 346.611 275.691 344.246 272.428C341.433 268.489 339.539 263.97 338.703 259.203C337.867 254.436 338.11 249.543 339.415 244.882C335.692 244.86 334.237 249.617 333.677 253.3C333.112 256.979 330.856 261.662 327.234 260.79Z" fill="#E6EFFE"/>
<path d="M230.077 205.404L229.481 207.314C232.985 208.847 234.952 212.504 236.871 215.811C238.78 219.101 240.891 222.285 243.423 225.123C246.315 228.348 249.697 231.098 253.444 233.27C260.071 237.116 267.587 239.091 275.003 241.022C280.119 242.354 285.287 243.694 290.569 243.891C295.852 244.088 301.34 243.046 305.65 239.984C294.599 239.406 283.325 239.796 272.703 236.682C263.114 233.85 254.551 228.298 248.053 220.699C245.438 217.629 243.182 214.248 240.374 211.344C237.571 208.44 234.072 205.982 230.077 205.404Z" fill="#E6EFFE"/>
<path d="M276.676 229.14C277.613 229.197 278.594 229.183 279.426 228.754C281.406 227.734 281.612 225.057 281.857 222.846C282.26 219.193 283.456 215.673 285.361 212.531C286.277 211.024 287.359 209.592 287.937 207.927C288.515 206.263 288.484 204.244 287.315 202.925C285.974 201.41 283.57 201.309 281.691 202.062C279.812 202.811 278.296 204.235 276.706 205.479C274.192 207.445 271.38 209.04 269.041 211.217C266.702 213.389 264.819 216.346 264.915 219.539C264.999 222.316 266.624 224.913 268.866 226.56C271.104 228.202 273.899 228.969 276.676 229.14Z" fill="#E6EFFE"/>
<path d="M314.808 220.967C314.138 223.932 316.696 226.674 319.377 228.11C322.057 229.552 325.171 230.419 327.199 232.683C328.798 234.47 329.481 236.87 330.655 238.96C331.825 241.049 333.914 243.007 336.292 242.7C338.447 242.424 340.12 240.361 342.288 240.326C344.684 240.287 346.309 242.621 347.798 244.505C349.283 246.384 351.938 248.14 353.891 246.747C355.455 245.635 355.288 243.103 354.066 241.627C352.844 240.151 350.935 239.463 349.121 238.841C348.959 238.11 348.992 237.348 349.215 236.633C349.439 235.917 349.846 235.273 350.396 234.764L334.242 225.202C332.044 223.901 329.433 222.561 327.064 223.507C325.303 224.212 323.884 226.118 322.009 225.828C320.45 225.588 319.591 223.954 318.715 222.64C317.839 221.326 316.122 220.095 314.808 220.967Z" fill="#E6EFFE"/>
<path d="M317.204 117.489C316.074 114.751 313.941 111.935 314.962 109.158C315.172 108.584 315.518 108.028 315.47 107.419C315.382 106.368 314.239 105.812 313.323 105.291C309.548 103.144 307.761 98.7864 305.61 95.0152C303.46 91.244 299.908 87.4378 295.589 87.9065L300.836 94.7393C304.585 99.623 308.409 104.647 310.183 110.538C311.957 116.433 311.274 123.472 306.885 127.791C305.567 129.087 303.981 130.086 302.597 131.312C301.213 132.539 299.986 134.102 299.75 135.938C299.513 137.773 300.569 139.862 302.378 140.256C303.56 140.515 304.774 140.042 305.864 139.512C309.96 137.523 313.687 134.558 315.973 130.616C318.26 126.674 318.943 121.698 317.204 117.489Z" fill="#E6EFFE"/>
<path d="M316.679 323.06C316.289 323.607 316.214 324.312 316.153 324.983L315.483 332.293C316.534 332.832 317.704 331.855 318.444 330.935C320.571 328.293 322.34 325.381 323.704 322.276C322.552 322.718 321.273 322.35 320.06 322.162C318.851 321.969 317.393 322.057 316.679 323.06Z" fill="#E6EFFE"/>
<path d="M219 11.4229C104.498 11.4229 11.6772 104.244 11.6772 218.746C11.6772 333.248 104.498 426.069 219 426.069C333.502 426.069 426.323 333.248 426.323 218.746C426.323 104.244 333.502 11.4229 219 11.4229ZM287.46 41.7675C283.338 43.5502 279.256 45.6701 275.231 47.4045C260.321 53.8256 243.773 55.052 227.581 56.1952L202.212 57.9866C202.071 60.6234 199.798 62.9798 197.17 63.2163C194.542 63.4572 191.884 61.5476 191.27 58.9809C183.176 64.8983 172.305 66.8211 162.669 64.0485C162.682 60.4438 167.763 58.1005 170.514 60.4351C172.007 55.5163 167.907 50.3085 163.024 48.6966C158.14 47.0848 152.827 48.0747 147.786 49.0777C141.956 50.2384 135.995 51.4473 130.879 54.4739C125.763 57.5048 121.563 62.7565 121.436 68.7001L153.581 54.798L136.564 69.8783C133.126 72.9224 129.193 76.1592 124.602 75.9622C120.012 75.765 115.987 69.7601 119.202 66.4795C113.092 70.8069 105.414 71.5427 97.9063 72.721C130.787 45.3941 173.006 28.9428 219 28.9428C243.134 28.9428 266.208 33.5156 287.46 41.7675ZM77.5349 92.3784C82.4449 92.0455 87.5213 94.0472 90.6968 97.8315C94.5293 102.395 95.3834 109.246 92.7905 114.616L102.93 113.591L104.108 118.991L113.911 119.622C113.473 126.407 108.777 132.727 102.409 135.114C96.0404 137.497 88.3492 135.81 83.5618 130.984C80.1629 132.889 76.2954 128.597 76.0895 124.703C75.8837 120.809 77.4999 116.893 76.7159 113.074C75.8005 108.633 71.7183 105.79 67.185 104.958C70.455 100.62 73.9081 96.4228 77.5349 92.3784ZM256.738 404.769C257.439 402.942 257.671 400.984 257.181 399.062C260.433 399.508 263.743 399.255 266.889 398.32C270.036 397.385 272.947 395.789 275.428 393.639C278.161 386.977 274.32 379.076 268.49 374.853C262.66 370.631 255.315 369.216 248.237 367.911C232.675 365.042 216.902 366.79 201.336 368.616C188.485 370.123 173.965 372.9 164.89 383.004C161.118 387.201 158.666 392.803 157.982 398.426C83.1764 372.952 29.1972 302.058 29.1972 218.746C29.1972 209.71 29.8761 200.832 31.1025 192.124C33.4064 195.208 36.8754 197.441 40.6729 197.336L52.3806 246.3C57.2336 266.593 62.3451 287.464 74.5916 304.357C77.1714 307.918 80.325 311.444 84.578 312.565C91.494 314.387 98.5852 308.882 101.305 302.264C104.025 295.645 103.578 288.23 103.561 281.073C103.534 248.935 112.868 217.485 130.423 190.565C123.402 193.048 114.196 194.958 109.671 189.045C107.643 186.395 107.271 182.874 106.973 179.554L103.872 145.057C109.737 158.397 113.196 172.669 114.09 187.214C125.269 185.605 135.805 181.005 144.584 173.899C147.116 171.845 149.66 169.217 149.735 165.958C149.945 156.944 133.446 156.55 131.553 147.733C131.878 149.253 159.007 157.566 162.349 159.519C171.574 164.911 174.333 176.343 178.914 185.69C180.574 189.076 180.991 193.07 183.106 196.206C184.635 198.466 187.28 200.188 189.983 199.82C195.948 199.005 199.93 184.345 202.514 179.413C207.551 169.79 213.271 163.667 220.87 173.465C227.318 181.783 236.108 191.344 240.467 200.95C243.918 208.553 244.987 218.636 256.405 218.189C257.632 218.141 249.507 205.904 248.846 205.076C244.925 200.175 242.696 195.304 240.072 189.356C243.388 193.591 248.132 197.034 253.497 197.45C258.858 197.862 264.662 194.507 265.796 189.251C266.931 183.995 261.788 178.051 256.585 179.413C255.245 176.422 257.803 172.953 260.834 171.705C263.865 170.461 267.272 170.614 270.474 169.922C282.042 167.417 288.419 151.872 281.941 141.964C278.612 136.875 272.581 130.734 276.488 126.074C278.783 123.336 283.434 123.818 286.067 126.231C288.699 128.645 289.728 132.328 290.263 135.863L293.574 135.083C296.623 120.336 299.316 104.187 292.299 90.8585C290.32 87.0961 287.573 82.6285 289.777 78.9931C291.034 76.9214 293.513 75.9928 295.357 74.4204C297.201 72.848 298.243 69.598 296.263 68.2008L302.522 68.4811C302.054 78.7916 309.855 88.8612 319.955 90.9943C315.078 78.2887 311.433 65.1437 309.071 51.7407C368.402 83.868 408.794 146.686 408.794 218.763C408.803 310.485 343.379 387.218 256.738 404.769Z" fill="#E6EFFE"/>
</svg>
