<svg width="86" height="86" viewBox="0 0 86 86" fill="none" xmlns="http://www.w3.org/2000/svg">
<path d="M43 78.8333L32.25 68.0833H17.9167C13.9586 68.0833 10.75 64.8747 10.75 60.9166V14.3333C10.75 10.3753 13.9586 7.16663 17.9167 7.16663H68.0833C72.0414 7.16663 75.25 10.3753 75.25 14.3333V60.9166C75.25 64.8747 72.0414 68.0833 68.0833 68.0833H53.75L43 78.8333ZM17.9167 14.3333V60.9166H35.8333L43 68.0833L50.1667 60.9166H68.0833V14.3333H17.9167ZM57.3333 53.6998H28.6667V52.3166C29.0908 44.8099 35.4902 39.0504 43 39.4166C50.5098 39.0504 56.9092 44.8099 57.3333 52.3166V53.6962V53.6998ZM43 35.8333C41.0796 35.9 39.2177 35.1664 37.859 33.8077C36.5002 32.4489 35.7666 30.587 35.8333 28.6666C35.7677 26.7465 36.5016 24.8853 37.8601 23.5268C39.2186 22.1683 41.0799 21.4343 43 21.5C44.9201 21.4343 46.7814 22.1683 48.1399 23.5268C49.4984 24.8853 50.2323 26.7465 50.1667 28.6666C50.2334 30.587 49.4998 32.4489 48.141 33.8077C46.7823 35.1664 44.9204 35.9 43 35.8333Z" fill="#A1C3FC"/>
</svg>
