<svg width="87" height="86" viewBox="0 0 87 86" fill="none" xmlns="http://www.w3.org/2000/svg">
<path d="M60.8042 82.4167H24.9971C21.042 82.4167 17.8357 79.2081 17.8357 75.25V10.75C17.8357 6.792 21.042 3.58337 24.9971 3.58337H60.8042C64.7594 3.58337 67.9656 6.792 67.9656 10.75V75.25C67.9656 79.2081 64.7594 82.4167 60.8042 82.4167ZM24.9971 10.75V75.25H60.8042V10.75H24.9971ZM42.9007 71.6667C40.9231 71.6667 39.32 70.0624 39.32 68.0834C39.32 66.1043 40.9231 64.5 42.9007 64.5C44.8782 64.5 46.4814 66.1043 46.4814 68.0834C46.4814 70.0624 44.8782 71.6667 42.9007 71.6667Z" fill="#A1C3FC"/>
<path d="M35.8559 49.0061L25.6936 38.8364L35.8559 28.6667L38.2485 31.0594L30.4704 38.8432L38.2485 46.627L35.8575 49.0061H35.8559ZM49.3475 49.0061L46.9582 46.6152L54.7363 38.8314L46.9582 31.0476L49.3492 28.6667L59.5114 38.8364L49.3492 49.0061H49.3475Z" fill="#A1C3FC"/>
</svg>
