<?xml version="1.0" encoding="utf-8"?><svg width="117" height="107" viewBox="0 0 117 107" xmlns="http://www.w3.org/2000/svg" xmlns:xlink="http://www.w3.org/1999/xlink"><view id="edit" viewBox="53 37.2 17.02 17.03"/><svg viewBox="0 0 17.02 17.03" width="17.02" height="17.03" x="53" y="37.2"><title>edit</title><path d="M10.23 3.57a1.16 1.16 0 0 0-1.62 0l-.4.45-5.66 5.62-.18.18s-.57.57-1.85 4.72v.08l-.07.23-.09.17-.05.18-.12.42a1.63 1.63 0 0 0-.06 1.27 1.66 1.66 0 0 0 1.27-.06l.41-.13.22-.02.2-.06.24-.07h.07c3.94-1.22 4.65-1.8 4.71-1.85l.18-.18 5.6-5.69.4-.4a1.15 1.15 0 0 0 0-1.62zM6.55 13.93h-.06a12.74 12.74 0 0 1-2.08.89l-.51.2-1.87-1.89.18-.51a12.68 12.68 0 0 1 .82-2.08l.14-.14 3.45 3.46zm10.14-8.74l-.8.83a1.14 1.14 0 0 1-1.62 0l-3.24-3.25a1.15 1.15 0 0 1 0-1.62l.81-.81a1.14 1.14 0 0 1 1.62 0l3.23 3.23a1.15 1.15 0 0 1 0 1.62z"/><path class="acls-1" d="M10.23 3.57a1.16 1.16 0 0 0-1.62 0l-.4.45-5.66 5.62-.18.18s-.57.57-1.85 4.72v.08l-.07.23-.09.17-.05.18-.12.42a1.63 1.63 0 0 0-.06 1.27 1.66 1.66 0 0 0 1.27-.06l.41-.13.22-.02.2-.06.24-.07h.07c3.94-1.22 4.65-1.8 4.71-1.85l.18-.18 5.6-5.69.4-.4a1.15 1.15 0 0 0 0-1.62zM6.55 13.93h-.06a12.74 12.74 0 0 1-2.08.89l-.51.2-1.87-1.89.18-.51a12.68 12.68 0 0 1 .82-2.08l.14-.14 3.45 3.46zm10.14-8.74l-.8.83a1.14 1.14 0 0 1-1.62 0l-3.24-3.25a1.15 1.15 0 0 1 0-1.62l.81-.81a1.14 1.14 0 0 1 1.62 0l3.23 3.23a1.15 1.15 0 0 1 0 1.62z"/></svg><view id="lk-nav-anketa" viewBox="0 65.2 19 22"/><svg viewBox="0 0 19 22" width="19" height="22" y="65.2"><title>lk-nav-anketa</title><path class="bcls-1" d="M3 0h13a3 3 0 0 1 3 3v16a3 3 0 0 1-3 3H3a3 3 0 0 1-3-3V3a3 3 0 0 1 3-3zm11 18a1 1 0 1 0 0-2H5a1 1 0 1 0 0 2h9zm0-6.2a1 1 0 1 0 0-2H5a1 1 0 1 0 0 2h9zm0-6.2a1 1 0 0 0 0-2H5a1 1 0 0 0 0 2h9z"/></svg><view id="lk-nav-calendar" viewBox="0 87.2 19 19"/><svg viewBox="0 0 19 19" width="19" height="19" y="87.2"><title>lk-nav-calendar</title><path class="ccls-1" d="M17 6H2v11h15V6zm0 13H2a2 2 0 0 1-2-2V4a2 2 0 0 1 2-2h1v-.5a1.5 1.5 0 1 1 3 0V2h7v-.5a1.5 1.5 0 1 1 3 0V2h1a2 2 0 0 1 2 2v13a2 2 0 0 1-2 2zM7 11H4V8h3v3zm0 4H4v-3h3v3zm4-4H8V8h3v3zm0 4H8v-3h3v3zm4-4h-3V8h3v3zm0 4h-3v-3h3v3z"/></svg><view id="lk-nav-case" viewBox="96 0 21 19"/><svg viewBox="0 0 21 19" width="21" height="19" x="96"><title>lk-nav-case</title><path class="dcls-1" d="M0 8v9a2 2 0 0 0 2 2h17a2 2 0 0 0 2-2V8h-8v2H9V8H0zm21-2V4a2 2 0 0 0-2-2h-5a2 2 0 0 0-2-2H9a2 2 0 0 0-2 2H2a2 2 0 0 0-2 2v2h21z"/></svg><view id="lk-nav-heart" viewBox="41 65.2 21.85 18.97"/><svg viewBox="0 0 21.85 18.97" width="21.85" height="18.97" x="41" y="65.2"><title>lk-nav-heart</title><path d="M21.9 5.89a5.92 5.92 0 0 0-11-3.09 5.92 5.92 0 1 0-9 7.55l8.4 8.4a.76.76 0 0 0 1.07 0l8.4-8.4a5.9 5.9 0 0 0 2.13-4.46z"/><path class="ecls-1" d="M21.9 5.89a5.92 5.92 0 0 0-11-3.09 5.92 5.92 0 1 0-9 7.55l8.4 8.4a.76.76 0 0 0 1.07 0l8.4-8.4a5.9 5.9 0 0 0 2.13-4.46z"/></svg><view id="lk-nav-info" viewBox="72 21 23 23"/><svg viewBox="0 0 23 23" width="23" height="23" x="72" y="21"><title>lk-nav-info</title><path class="fcls-1" d="M11.51.01a11.5 11.5 0 1 0 11.5 11.5A11.5 11.5 0 0 0 11.51.01zm2.39 17.82q-.89.35-1.42.53a3.75 3.75 0 0 1-1.23.18 2.46 2.46 0 0 1-1.66-.53 1.7 1.7 0 0 1-.58-1.31 4.88 4.88 0 0 1 0-.69 2.32 2.32 0 0 1 .14-.74l.78-2.62c.08-.2.08-.44.16-.64a3.16 3.16 0 0 0 .07-.62 1 1 0 0 0-.21-.7 1.18 1.18 0 0 0-.79-.2 2.09 2.09 0 0 0-.59.09l-.56.16.2-.81q.8-.3 1.43-.51a4.12 4.12 0 0 1 1.26-.21 2.4 2.4 0 0 1 1.65.52 1.71 1.71 0 0 1 .58 1.34v.6a4 4 0 0 1-.15.79l-.78 2.61a7.36 7.36 0 0 0-.16.72 3.76 3.76 0 0 0-.07.61.88.88 0 0 0 .23.71 1.3 1.3 0 0 0 .8.19 2.32 2.32 0 0 0 .61-.09 3.46 3.46 0 0 0 .49-.2zm-.12-10.59a1.76 1.76 0 0 1-1.24.48 1.78 1.78 0 0 1-1.25-.48 1.56 1.56 0 0 1-.13-2.23l.13-.13a1.76 1.76 0 0 1 1.25-.48 1.74 1.74 0 0 1 1.24.48 1.57 1.57 0 0 1 .11 2.22z"/></svg><view id="lk-nav-like" viewBox="62.85 65.2 16.09 18.04"/><svg viewBox="0 0 16.09 18.04" width="16.09" height="18.04" x="62.85" y="65.2"><title>lk-nav-like</title><path d="M14.56 9.96a1.443 1.443 0 0 0 .18-2.88l-5.12-.64a9.34 9.34 0 0 0 1.07-4.43 1.8 1.8 0 0 0-2-2c-.59 0-.74 1.13-.74 1.13a8.09 8.09 0 0 1-.93 2.52C6.38 5.01 5.47 4.84 4.4 6.01a6 6 0 0 0-.69 1 .32.32 0 0 0-.06.1l-.07.13-.12.23a2.87 2.87 0 0 1-2.11.54A1.21 1.21 0 0 0 .02 9.34v6.1a1.08 1.08 0 0 0 1.33 1.24h1.34a6.56 6.56 0 0 1 2 .67 17.21 17.21 0 0 0 5.57.67h2a1.62 1.62 0 0 0 1.12-.47.86.86 0 0 0 .29-.54v-.25a1.08 1.08 0 0 0-.72-1.18h.87a1.44 1.44 0 0 0 1.53-1.35v-.11a1.4 1.4 0 0 0-1.33-1.34h.46a1.42 1.42 0 0 0 .08-2.82z"/><path class="gcls-1" d="M14.56 9.96a1.443 1.443 0 0 0 .18-2.88l-5.12-.64a9.34 9.34 0 0 0 1.07-4.43 1.8 1.8 0 0 0-2-2c-.59 0-.74 1.13-.74 1.13a8.09 8.09 0 0 1-.93 2.52C6.38 5.01 5.47 4.84 4.4 6.01a6 6 0 0 0-.69 1 .32.32 0 0 0-.06.1l-.07.13-.12.23a2.87 2.87 0 0 1-2.11.54A1.21 1.21 0 0 0 .02 9.34v6.1a1.08 1.08 0 0 0 1.33 1.24h1.34a6.56 6.56 0 0 1 2 .67 17.21 17.21 0 0 0 5.57.67h2a1.62 1.62 0 0 0 1.12-.47.86.86 0 0 0 .29-.54v-.25a1.08 1.08 0 0 0-.72-1.18h.87a1.44 1.44 0 0 0 1.53-1.35v-.11a1.4 1.4 0 0 0-1.33-1.34h.46a1.42 1.42 0 0 0 .08-2.82z"/></svg><view id="lk-nav-mail" viewBox="72 44 22 18.01"/><svg viewBox="0 0 22 18.01" width="22" height="18.01" x="72" y="44"><title>lk-nav-mail</title><path d="M2.11 5.55l2.52 1.82L7.84 9.7l.52.39.64.49.64.42a3.64 3.64 0 0 0 .71.35 1.9 1.9 0 0 0 .61.12 1.9 1.9 0 0 0 .61-.12 3.64 3.64 0 0 0 .76-.35l.67-.42.66-.49.52-.39 5.72-4.15A6 6 0 0 0 21.4 4a3.47 3.47 0 0 0 .6-2 2 2 0 0 0-.58-1.44A1.86 1.86 0 0 0 20 0H2A1.72 1.72 0 0 0 .55.66 2.65 2.65 0 0 0 0 2.32a3.06 3.06 0 0 0 .68 1.74 6.22 6.22 0 0 0 1.43 1.49zm18.66 1.36q-4 2.84-6.11 4.41-.71.54-1.14.84a7 7 0 0 1-1.16.61 3.42 3.42 0 0 1-1.35.31 3.42 3.42 0 0 1-1.35-.31 7 7 0 0 1-1.16-.61q-.43-.3-1.14-.84-1.66-1.26-6.1-4.41A6.59 6.59 0 0 1 0 5.8V16a2 2 0 0 0 .58 1.45A1.85 1.85 0 0 0 2 18h18a1.85 1.85 0 0 0 1.39-.6A2 2 0 0 0 22 16V5.8a6.89 6.89 0 0 1-1.23 1.11z"/><path class="hcls-1" d="M2.11 5.55l2.52 1.82L7.84 9.7l.52.39.64.49.64.42a3.64 3.64 0 0 0 .71.35 1.9 1.9 0 0 0 .61.12 1.9 1.9 0 0 0 .61-.12 3.64 3.64 0 0 0 .76-.35l.67-.42.66-.49.52-.39 5.72-4.15A6 6 0 0 0 21.4 4a3.47 3.47 0 0 0 .6-2 2 2 0 0 0-.58-1.44A1.86 1.86 0 0 0 20 0H2A1.72 1.72 0 0 0 .55.66 2.65 2.65 0 0 0 0 2.32a3.06 3.06 0 0 0 .68 1.74 6.22 6.22 0 0 0 1.43 1.49zm18.66 1.36q-4 2.84-6.11 4.41-.71.54-1.14.84a7 7 0 0 1-1.16.61 3.42 3.42 0 0 1-1.35.31 3.42 3.42 0 0 1-1.35-.31 7 7 0 0 1-1.16-.61q-.43-.3-1.14-.84-1.66-1.26-6.1-4.41A6.59 6.59 0 0 1 0 5.8V16a2 2 0 0 0 .58 1.45A1.85 1.85 0 0 0 2 18h18a1.85 1.85 0 0 0 1.39-.6A2 2 0 0 0 22 16V5.8a6.89 6.89 0 0 1-1.23 1.11z"/></svg><view id="lk-nav-pay" viewBox="28 37.2 25 18"/><svg viewBox="0 0 25 18" width="25" height="18" x="28" y="37.2"><title>lk-nav-pay</title><path class="icls-1" d="M2 3h1V2a2 2 0 0 1 2-2h18a2 2 0 0 1 2 2v11a2 2 0 0 1-2 2h-1v1a2 2 0 0 1-2 2H2a2 2 0 0 1-2-2V5a2 2 0 0 1 2-2zm3 0h15a2 2 0 0 1 2 2v8h1V2H5v1zM2 14a2 2 0 0 0 2 2h14a2 2 0 0 0 2-2V7a2 2 0 0 0-2-2H4a2 2 0 0 0-2 2h16.5a1.5 1.5 0 1 1 0 3H2v4zm2.5-3h5a.5.5 0 0 1 0 1h-5a.5.5 0 0 1 0-1zm0 2h3a.5.5 0 0 1 0 1h-3a.5.5 0 0 1 0-1z"/><path class="icls-2" d="M2 3h1V2a2 2 0 0 1 2-2h18a2 2 0 0 1 2 2v11a2 2 0 0 1-2 2h-1v1a2 2 0 0 1-2 2H2a2 2 0 0 1-2-2V5a2 2 0 0 1 2-2zm3 0h15a2 2 0 0 1 2 2v8h1V2H5v1zM2 14a2 2 0 0 0 2 2h14a2 2 0 0 0 2-2V7a2 2 0 0 0-2-2H4a2 2 0 0 0-2 2h16.5a1.5 1.5 0 1 1 0 3H2v4zm2.5-3h5a.5.5 0 0 1 0 1h-5a.5.5 0 0 1 0-1zm0 2h3a.5.5 0 0 1 0 1h-3a.5.5 0 0 1 0-1z"/></svg><view id="lk-nav-star" viewBox="72 0 24 21"/><svg viewBox="0 0 24 21" width="24" height="21" x="72"><title>lk-nav-star</title><path class="jcls-1" d="M22 17h-4v3.5a.5.5 0 1 1-1 0v-1a.5.5 0 1 1-1 0v-1a.5.5 0 1 1-1 0v-1a.5.5 0 0 1-1 0V17H2a2 2 0 0 1-2-2V2a2 2 0 0 1 2-2h20a2 2 0 0 1 2 2v13a2 2 0 0 1-2 2zm-5.86-9.93l-2.63-.25a.45.45 0 0 1-.38-.28l-.94-2.29a.45.45 0 0 0-.84 0l-.93 2.28a.45.45 0 0 1-.38.28L7.41 7a.45.45 0 0 0-.26.79l2 1.74a.45.45 0 0 1 .14.45l-.6 2.44a.45.45 0 0 0 .67.5l2.2-1.29a.46.46 0 0 1 .46 0L14.19 13a.45.45 0 0 0 .67-.5l-.58-2.5a.45.45 0 0 1 .14-.45l2-1.74a.46.46 0 0 0-.28-.74z"/></svg><view id="lk-nav-user" viewBox="19 65.2 22 21.99"/><svg viewBox="0 0 22 21.99" width="22" height="21.99" x="19" y="65.2"><title>lk-nav-user</title><path class="kcls-1" d="M17.87 15.11H16.5a2.75 2.75 0 0 1-2.75-2.75v-.88A7 7 0 0 0 15.07 9a.75.75 0 0 1 .27-.33 1.7 1.7 0 0 0 .23-2 .59.59 0 0 1-.15-.3V3.94a4 4 0 0 0-1-2.7A3.84 3.84 0 0 0 12.36.13a6.93 6.93 0 0 0-3 .07 3.63 3.63 0 0 0-2.13 1.44 4.17 4.17 0 0 0-.66 2.18v2.46a.8.8 0 0 1-.18.41 1.7 1.7 0 0 0 .39 2.08.81.81 0 0 1 .22.46 6.64 6.64 0 0 0 1.24 2.22v.91a2.75 2.75 0 0 1-2.74 2.75H4.12S1.63 15.8 0 19.23v1.37A1.37 1.37 0 0 0 1.35 22h19.27A1.37 1.37 0 0 0 22 20.63v-1.4c-1.63-3.43-4.13-4.12-4.13-4.12z"/></svg><view id="photo-load" viewBox="39 0 33 21"/><svg viewBox="0 0 33 21" width="33" height="21" x="39"><title>photo-load</title><path d="M30.13 10.6a8.93 8.93 0 0 0 .18-1.77 8.78 8.78 0 0 0-16.84-3.54 6.63 6.63 0 0 0-10.26 5.14A5.54 5.54 0 0 0 5.5 21h8a.43.43 0 0 0 .41-.43V17a.55.55 0 0 0-.55-.55h-1.5c-.3 0-.4-.2-.22-.44l4.59-6.23a.39.39 0 0 1 .65 0L21.41 16c.18.24.08.44-.22.44h-1.5a.55.55 0 0 0-.55.55v3.56a.44.44 0 0 0 .43.43h7.93a5.54 5.54 0 0 0 2.63-10.38z"/><path d="M30.13 10.6a8.93 8.93 0 0 0 .18-1.77 8.78 8.78 0 0 0-16.84-3.54 6.63 6.63 0 0 0-10.26 5.14A5.54 5.54 0 0 0 5.5 21h8a.43.43 0 0 0 .41-.43V17a.55.55 0 0 0-.55-.55h-1.5c-.3 0-.4-.2-.22-.44l4.59-6.23a.39.39 0 0 1 .65 0L21.41 16c.18.24.08.44-.22.44h-1.5a.55.55 0 0 0-.55.55v3.56a.44.44 0 0 0 .43.43h7.93a5.54 5.54 0 0 0 2.63-10.38z"/><path class="lcls-1" d="M30.13 10.6a8.93 8.93 0 0 0 .18-1.77 8.78 8.78 0 0 0-16.84-3.54 6.63 6.63 0 0 0-10.26 5.14A5.54 5.54 0 0 0 5.5 21h8a.43.43 0 0 0 .41-.43V17a.55.55 0 0 0-.55-.55h-1.5c-.3 0-.4-.2-.22-.44l4.59-6.23a.39.39 0 0 1 .65 0L21.41 16c.18.24.08.44-.22.44h-1.5a.55.55 0 0 0-.55.55v3.56a.44.44 0 0 0 .43.43h7.93a5.54 5.54 0 0 0 2.63-10.38z"/><path class="lcls-2" d="M30.13 10.6a8.93 8.93 0 0 0 .18-1.77 8.78 8.78 0 0 0-16.84-3.54 6.63 6.63 0 0 0-10.26 5.14A5.54 5.54 0 0 0 5.5 21h8a.43.43 0 0 0 .41-.43V17a.55.55 0 0 0-.55-.55h-1.5c-.3 0-.4-.2-.22-.44l4.59-6.23a.39.39 0 0 1 .65 0L21.41 16c.18.24.08.44-.22.44h-1.5a.55.55 0 0 0-.55.55v3.56a.44.44 0 0 0 .43.43h7.93a5.54 5.54 0 0 0 2.63-10.38z"/></svg><view id="plus" viewBox="0 37.2 28 28"/><svg viewBox="0 0 28 28" width="28" height="28" y="37.2"><title>plus</title><path d="M0 16v-4h12V0h4v12h12v4H16v12h-4V16H0z"/><path class="mcls-1" d="M0 16v-4h12V0h4v12h12v4H16v12h-4V16H0z"/></svg><view id="smile-happy" viewBox="96 39.980000000000004 20.97 20.97"/><svg viewBox="0 0 20.97 20.97" width="20.97" height="20.97" x="96" y="39.980000000000004"><title>smile-happy</title><path d="M17.9 3.06a10.49 10.49 0 1 0 0 14.83 10.5 10.5 0 0 0 0-14.83zm-1.14 13.69a8.87 8.87 0 1 1 0-12.55 8.89 8.89 0 0 1 0 12.55zm-9-7.89a1.23 1.23 0 1 0-1.19-1.22A1.23 1.23 0 0 0 7.8 8.87zm5.56 0a1.23 1.23 0 1 0-1.23-1.23 1.23 1.23 0 0 0 1.27 1.24zm1.68 3.8a4.9 4.9 0 0 1-4.54 2.89 4.85 4.85 0 0 1-4.55-2.91.58.58 0 0 1 .32-.78.58.58 0 0 1 .22 0 .58.58 0 0 1 .55.37 3.68 3.68 0 0 0 3.46 2.18 3.71 3.71 0 0 0 3.45-2.18.59.59 0 0 1 1.09.43z"/></svg><view id="smile-sad" viewBox="96 19 20.98 20.98"/><svg viewBox="0 0 20.98 20.98" width="20.98" height="20.98" x="96" y="19"><title>smile-sad</title><path d="M17.91 3.08a10.49 10.49 0 1 0 0 14.84 10.5 10.5 0 0 0 0-14.84zm-1.14 13.69a8.87 8.87 0 1 1 0-12.55 8.87 8.87 0 0 1 0 12.55zm-9-7.89a1.23 1.23 0 1 0-1.19-1.27 1.23 1.23 0 0 0 1.23 1.28zm5.56 0a1.23 1.23 0 1 0-1.23-1.23 1.23 1.23 0 0 0 1.22 1.24zm-7.44 5.88a4.9 4.9 0 0 1 4.54-2.89 4.85 4.85 0 0 1 4.58 2.91.58.58 0 0 1-.29.77.77.77 0 0 1-.77-.37 3.68 3.68 0 0 0-3.52-2.16 3.71 3.71 0 0 0-3.42 2.17.6.6 0 0 1-1.12-.43z"/></svg><view id="soc-odk" viewBox="96 60.95 19 19"/><svg width="19" height="19" viewBox="0 0 19 19" x="96" y="60.95"><title>Forma 1</title><path d="M9.509 7.87c.907 0 1.63-.73 1.626-1.64A1.625 1.625 0 0 0 9.501 4.6c-.916 0-1.646.73-1.639 1.65.006.91.737 1.63 1.647 1.62zM9.5 0A9.497 9.497 0 0 0 .001 9.5c0 5.25 4.253 9.5 9.499 9.5 5.247 0 9.5-4.25 9.5-9.5S14.747 0 9.5 0zm3.761 10.9c-.409.42-.901.72-1.448.93-.517.2-1.084.3-1.645.37.085.09.125.14.178.19.761.77 1.526 1.53 2.284 2.29.259.27.313.59.171.89-.156.34-.504.56-.846.53-.217-.01-.386-.12-.535-.27-.575-.58-1.16-1.15-1.723-1.74-.164-.17-.242-.14-.387.01-.578.6-1.166 1.18-1.756 1.77-.265.26-.581.31-.889.16-.327-.16-.535-.5-.519-.83.011-.23.123-.4.279-.56.753-.75 1.504-1.5 2.256-2.26.05-.05.096-.1.168-.18-1.024-.11-1.949-.36-2.74-.98-.098-.07-.2-.15-.289-.23-.346-.34-.381-.72-.107-1.11.234-.34.628-.43 1.037-.23.079.03.154.08.227.13 1.474 1.01 3.5 1.04 4.98.05.147-.12.303-.21.485-.25a.77.77 0 0 1 .872.34c.217.36.214.7-.053.98zM9.514 2.89c1.85 0 3.335 1.52 3.326 3.39-.01 1.83-1.519 3.31-3.366 3.3-1.829-.01-3.328-1.52-3.317-3.35.01-1.85 1.51-3.35 3.357-3.34z"/><path d="M9.509 7.87c.907 0 1.63-.73 1.626-1.64A1.625 1.625 0 0 0 9.501 4.6c-.916 0-1.646.73-1.639 1.65.006.91.737 1.63 1.647 1.62zM9.5 0A9.497 9.497 0 0 0 .001 9.5c0 5.25 4.253 9.5 9.499 9.5 5.247 0 9.5-4.25 9.5-9.5S14.747 0 9.5 0zm3.761 10.9c-.409.42-.901.72-1.448.93-.517.2-1.084.3-1.645.37.085.09.125.14.178.19.761.77 1.526 1.53 2.284 2.29.259.27.313.59.171.89-.156.34-.504.56-.846.53-.217-.01-.386-.12-.535-.27-.575-.58-1.16-1.15-1.723-1.74-.164-.17-.242-.14-.387.01-.578.6-1.166 1.18-1.756 1.77-.265.26-.581.31-.889.16-.327-.16-.535-.5-.519-.83.011-.23.123-.4.279-.56.753-.75 1.504-1.5 2.256-2.26.05-.05.096-.1.168-.18-1.024-.11-1.949-.36-2.74-.98-.098-.07-.2-.15-.289-.23-.346-.34-.381-.72-.107-1.11.234-.34.628-.43 1.037-.23.079.03.154.08.227.13 1.474 1.01 3.5 1.04 4.98.05.147-.12.303-.21.485-.25a.77.77 0 0 1 .872.34c.217.36.214.7-.053.98zM9.514 2.89c1.85 0 3.335 1.52 3.326 3.39-.01 1.83-1.519 3.31-3.366 3.3-1.829-.01-3.328-1.52-3.317-3.35.01-1.85 1.51-3.35 3.357-3.34z" fill="#adadad"/></svg><view id="star" viewBox="0 0 39 37.2"/><svg data-name="Слой 1" viewBox="0 0 39 37.2" width="39" height="37.2"><title>star</title><path d="M39 14.41a1.75 1.75 0 0 1-.61 1.13l-8.51 8.3 2 11.72a3.2 3.2 0 0 1 0 .47 1 1 0 0 1-1 1.17 1.9 1.9 0 0 1-.88-.29l-10.5-5.53L9 36.91a2 2 0 0 1-.94.28 1 1 0 0 1-1-1.17 3.11 3.11 0 0 1 0-.47l2-11.72-8.53-8.3A1.83 1.83 0 0 1 0 14.41a1.3 1.3 0 0 1 1.31-1.08l11.77-1.71L18.35.96a1.46 1.46 0 0 1 1.15-1 1.46 1.46 0 0 1 1.15 1l5.27 10.66 11.77 1.71A1.32 1.32 0 0 1 39 14.41z"/></svg><view id="vk" viewBox="39 21 28 16.18"/><svg viewBox="0 0 28 16.18" width="28" height="16.18" x="39" y="21"><title>vk</title><path d="M26.79 12.62a23.57 23.57 0 0 0-2-2l-.72-.69c-.68-.67-.71-.92-.17-1.68.37-.52.77-1 1.15-1.55s.71-.93 1-1.41l.07-.09a10.72 10.72 0 0 0 1.7-3 1.35 1.35 0 0 0 0-1.11 1.33 1.33 0 0 0-1-.53 2.3 2.3 0 0 0-.45 0H22.1a1.33 1.33 0 0 0-1.34.93c-.24.61-.5 1.25-.8 1.86a15.25 15.25 0 0 1-2.46 3.79.79.79 0 0 1-.39.29H17a1.15 1.15 0 0 1-.37-.89v-5A1.45 1.45 0 0 0 15.36 0H10.8a1.79 1.79 0 0 0-1.51.74.67.67 0 0 0-.21.66.68.68 0 0 0 .57.42 1.13 1.13 0 0 1 1 1.05 14.7 14.7 0 0 1 .06 3.49 2.85 2.85 0 0 1-.2.91.4.4 0 0 1-.2.25.5.5 0 0 1-.31-.14 3.84 3.84 0 0 1-.9-1 23.79 23.79 0 0 1-2.59-4.8A1.53 1.53 0 0 0 5.11.53H1.2A1.21 1.21 0 0 0 .12 1a1.2 1.2 0 0 0 0 1.17 47.89 47.89 0 0 0 5.07 9 12.73 12.73 0 0 0 3.94 3.68 10.16 10.16 0 0 0 5.2 1.29h.69a1.42 1.42 0 0 0 1.63-1.59 3.8 3.8 0 0 1 .37-1.68.45.45 0 0 1 .4-.33.74.74 0 0 1 .38.14 3.47 3.47 0 0 1 .64.58l.56.56c.35.4.72.81 1.1 1.2a3.43 3.43 0 0 0 2.82 1.14h4a1.13 1.13 0 0 0 .93-.6 1.58 1.58 0 0 0 0-1.5 8.32 8.32 0 0 0-1.06-1.44z"/><path class="rcls-1" d="M26.79 12.62a23.57 23.57 0 0 0-2-2l-.72-.69c-.68-.67-.71-.92-.17-1.68.37-.52.77-1 1.15-1.55s.71-.93 1-1.41l.07-.09a10.72 10.72 0 0 0 1.7-3 1.35 1.35 0 0 0 0-1.11 1.33 1.33 0 0 0-1-.53 2.3 2.3 0 0 0-.45 0H22.1a1.33 1.33 0 0 0-1.34.93c-.24.61-.5 1.25-.8 1.86a15.25 15.25 0 0 1-2.46 3.79.79.79 0 0 1-.39.29H17a1.15 1.15 0 0 1-.37-.89v-5A1.45 1.45 0 0 0 15.36 0H10.8a1.79 1.79 0 0 0-1.51.74.67.67 0 0 0-.21.66.68.68 0 0 0 .57.42 1.13 1.13 0 0 1 1 1.05 14.7 14.7 0 0 1 .06 3.49 2.85 2.85 0 0 1-.2.91.4.4 0 0 1-.2.25.5.5 0 0 1-.31-.14 3.84 3.84 0 0 1-.9-1 23.79 23.79 0 0 1-2.59-4.8A1.53 1.53 0 0 0 5.11.53H1.2A1.21 1.21 0 0 0 .12 1a1.2 1.2 0 0 0 0 1.17 47.89 47.89 0 0 0 5.07 9 12.73 12.73 0 0 0 3.94 3.68 10.16 10.16 0 0 0 5.2 1.29h.69a1.42 1.42 0 0 0 1.63-1.59 3.8 3.8 0 0 1 .37-1.68.45.45 0 0 1 .4-.33.74.74 0 0 1 .38.14 3.47 3.47 0 0 1 .64.58l.56.56c.35.4.72.81 1.1 1.2a3.43 3.43 0 0 0 2.82 1.14h4a1.13 1.13 0 0 0 .93-.6 1.58 1.58 0 0 0 0-1.5 8.32 8.32 0 0 0-1.06-1.44z"/></svg></svg>