<svg width="24" height="25" viewBox="0 0 24 25" fill="none" xmlns="http://www.w3.org/2000/svg">
<path d="M13.196 2.30788L16.446 7.93788C16.722 8.41488 16.558 9.02688 16.08 9.30288L14.78 10.0529L15.781 11.7849L14.049 12.7849L13.049 11.0519L11.75 11.8029C11.272 12.0789 10.66 11.9149 10.384 11.4369L8.546 8.25488C6.494 8.87688 5 10.7849 5 13.0399C5 13.6649 5.115 14.2639 5.324 14.8159C6.1 14.3239 7.016 14.0399 8 14.0399C9.684 14.0399 11.174 14.8729 12.08 16.1489L19.768 11.7099L20.768 13.4419L12.89 17.9909C12.962 18.3289 13 18.6809 13 19.0399C13 19.3829 12.966 19.7169 12.9 20.0399H21V22.0399L4 22.0409C3.372 21.2049 3 20.1659 3 19.0399C3 18.0329 3.298 17.0949 3.81 16.3099C3.293 15.3349 3 14.2219 3 13.0399C3 10.0449 4.881 7.48888 7.527 6.48988L7.134 5.80788C6.582 4.85088 6.909 3.62788 7.866 3.07588L10.464 1.57588C11.421 1.02388 12.644 1.35088 13.196 2.30788ZM8 16.0399C6.343 16.0399 5 17.3829 5 19.0399C5 19.3899 5.06 19.7269 5.17 20.0399H10.83C10.94 19.7269 11 19.3899 11 19.0399C11 17.3829 9.657 16.0399 8 16.0399ZM11.464 3.30788L8.866 4.80788L11.616 9.57088L14.214 8.07088L11.464 3.30788Z" fill="#97B8B6"/>
</svg>
