<svg width="694" height="17" viewBox="0 0 694 17" fill="none" xmlns="http://www.w3.org/2000/svg">
<path d="M207.685 16.04C201.73 16.04 198.789 12.0781 195.848 8.26861C192.907 4.45909 190.18 0.801944 184.585 0.801944C178.989 0.801944 176.263 4.45909 173.322 8.26861C170.452 12.0781 167.439 16.04 161.485 16.04C155.53 16.04 152.589 12.0781 149.648 8.26861C146.707 4.45909 143.98 0.801944 138.385 0.801944C132.789 0.801944 130.063 4.45909 127.122 8.26861C124.252 12.0781 121.239 16.04 115.285 16.04C109.33 16.04 106.389 12.0781 103.448 8.26861C100.507 4.45909 97.7804 0.801944 92.1848 0.801944C86.5891 0.801944 83.863 4.45909 80.9217 8.26861C78.0522 12.0781 75.0391 16.04 69.0848 16.04C63.1304 16.04 60.1891 12.0781 57.2478 8.26861C54.5217 4.45909 51.7239 0.801944 46.1283 0.801944C40.5326 0.801944 37.8065 4.45909 34.8652 8.26861C31.9957 12.0781 28.9826 16.04 23.0283 16.04C17.0739 16.04 14.1326 12.0781 11.1913 8.26861C8.32174 4.45909 5.59565 0.801944 0 0.801944V0.0400391C5.95435 0.0400391 8.89565 4.00194 11.837 7.81147C14.7783 11.621 17.5043 15.2781 23.1 15.2781C28.6957 15.2781 31.4217 11.621 34.363 7.81147C37.2326 4.00194 40.2457 0.0400391 46.2 0.0400391C52.1544 0.0400391 55.0957 4.00194 58.037 7.81147C60.9783 11.621 63.7043 15.2781 69.3 15.2781C74.8957 15.2781 77.6217 11.621 80.563 7.81147C83.4326 4.00194 86.4457 0.0400391 92.4 0.0400391C98.3544 0.0400391 101.296 4.00194 104.237 7.81147C107.178 11.621 109.904 15.2781 115.5 15.2781C121.096 15.2781 123.822 11.621 126.763 7.81147C129.633 4.00194 132.646 0.0400391 138.6 0.0400391C144.554 0.0400391 147.496 4.00194 150.437 7.81147C153.378 11.621 156.104 15.2781 161.7 15.2781C167.296 15.2781 170.022 11.621 172.963 7.81147C175.833 4.00194 178.846 0.0400391 184.8 0.0400391C190.754 0.0400391 193.767 4.00194 196.637 7.81147C199.578 11.621 202.304 15.2781 207.9 15.2781C213.496 15.2781 216.222 11.621 219.163 7.81147C222.033 4.00194 225.046 0.0400391 231 0.0400391V0.801944C225.404 0.801944 222.678 4.45909 219.737 8.26861C216.652 12.0781 213.639 16.04 207.685 16.04Z" fill="#97B8B6"/>
<path d="M438.685 16.04C432.73 16.04 429.789 12.0781 426.848 8.26861C423.907 4.45909 421.18 0.801944 415.585 0.801944C409.989 0.801944 407.263 4.45909 404.322 8.26861C401.452 12.0781 398.439 16.04 392.485 16.04C386.53 16.04 383.589 12.0781 380.648 8.26861C377.707 4.45909 374.98 0.801944 369.385 0.801944C363.789 0.801944 361.063 4.45909 358.122 8.26861C355.252 12.0781 352.239 16.04 346.285 16.04C340.33 16.04 337.389 12.0781 334.448 8.26861C331.507 4.45909 328.78 0.801944 323.185 0.801944C317.589 0.801944 314.863 4.45909 311.922 8.26861C309.052 12.0781 306.039 16.04 300.085 16.04C294.13 16.04 291.189 12.0781 288.248 8.26861C285.522 4.45909 282.724 0.801944 277.128 0.801944C271.533 0.801944 268.807 4.45909 265.865 8.26861C262.996 12.0781 259.983 16.04 254.028 16.04C248.074 16.04 245.133 12.0781 242.191 8.26861C239.322 4.45909 236.596 0.801944 231 0.801944V0.0400391C236.954 0.0400391 239.896 4.00194 242.837 7.81147C245.778 11.621 248.504 15.2781 254.1 15.2781C259.696 15.2781 262.422 11.621 265.363 7.81147C268.233 4.00194 271.246 0.0400391 277.2 0.0400391C283.154 0.0400391 286.096 4.00194 289.037 7.81147C291.978 11.621 294.704 15.2781 300.3 15.2781C305.896 15.2781 308.622 11.621 311.563 7.81147C314.433 4.00194 317.446 0.0400391 323.4 0.0400391C329.354 0.0400391 332.296 4.00194 335.237 7.81147C338.178 11.621 340.904 15.2781 346.5 15.2781C352.096 15.2781 354.822 11.621 357.763 7.81147C360.633 4.00194 363.646 0.0400391 369.6 0.0400391C375.554 0.0400391 378.496 4.00194 381.437 7.81147C384.378 11.621 387.104 15.2781 392.7 15.2781C398.296 15.2781 401.022 11.621 403.963 7.81147C406.833 4.00194 409.846 0.0400391 415.8 0.0400391C421.754 0.0400391 424.767 4.00194 427.637 7.81147C430.578 11.621 433.304 15.2781 438.9 15.2781C444.496 15.2781 447.222 11.621 450.163 7.81147C453.033 4.00194 456.046 0.0400391 462 0.0400391V0.801944C456.404 0.801944 453.678 4.45909 450.737 8.26861C447.652 12.0781 444.639 16.04 438.685 16.04Z" fill="#97B8B6"/>
<path d="M670.584 16.04C664.604 16.04 661.65 12.0781 658.696 8.26861C655.742 4.45909 653.004 0.801944 647.384 0.801944C641.764 0.801944 639.026 4.45909 636.072 8.26861C633.19 12.0781 630.164 16.04 624.184 16.04C618.204 16.04 615.25 12.0781 612.296 8.26861C609.342 4.45909 606.604 0.801944 600.984 0.801944C595.364 0.801944 592.626 4.45909 589.672 8.26861C586.79 12.0781 583.764 16.04 577.784 16.04C571.804 16.04 568.85 12.0781 565.896 8.26861C562.942 4.45909 560.204 0.801944 554.584 0.801944C548.964 0.801944 546.226 4.45909 543.272 8.26861C540.39 12.0781 537.364 16.04 531.384 16.04C525.404 16.04 522.45 12.0781 519.496 8.26861C516.758 4.45909 513.948 0.801944 508.328 0.801944C502.708 0.801944 499.97 4.45909 497.016 8.26861C494.134 12.0781 491.108 16.04 485.128 16.04C479.148 16.04 476.194 12.0781 473.24 8.26861C470.358 4.45909 467.62 0.801944 462 0.801944V0.0400391C467.98 0.0400391 470.934 4.00194 473.888 7.81147C476.842 11.621 479.58 15.2781 485.2 15.2781C490.82 15.2781 493.558 11.621 496.512 7.81147C499.394 4.00194 502.42 0.0400391 508.4 0.0400391C514.38 0.0400391 517.334 4.00194 520.288 7.81147C523.242 11.621 525.98 15.2781 531.6 15.2781C537.22 15.2781 539.958 11.621 542.912 7.81147C545.794 4.00194 548.82 0.0400391 554.8 0.0400391C560.78 0.0400391 563.734 4.00194 566.688 7.81147C569.642 11.621 572.38 15.2781 578 15.2781C583.62 15.2781 586.358 11.621 589.312 7.81147C592.194 4.00194 595.22 0.0400391 601.2 0.0400391C607.18 0.0400391 610.134 4.00194 613.088 7.81147C616.042 11.621 618.78 15.2781 624.4 15.2781C630.02 15.2781 632.758 11.621 635.712 7.81147C638.594 4.00194 641.62 0.0400391 647.6 0.0400391C653.58 0.0400391 656.606 4.00194 659.488 7.81147C662.442 11.621 665.18 15.2781 670.8 15.2781C676.42 15.2781 679.158 11.621 682.112 7.81147C684.994 4.00194 688.02 0.0400391 694 0.0400391V0.801944C688.38 0.801944 685.642 4.45909 682.688 8.26861C679.59 12.0781 676.564 16.04 670.584 16.04Z" fill="#97B8B6"/>
</svg>
