<svg width="179" height="30" viewBox="0 0 179 30" fill="none" xmlns="http://www.w3.org/2000/svg">
<path d="M23.5442 19.3509H23.3312L23.2944 19.5638C23.154 20.417 22.9048 21.2477 22.5531 22.0351C21.8926 23.5734 20.8032 24.8798 19.4202 25.7922C17.782 26.8274 15.1569 27.3492 11.5694 27.3492H5.75807L22.4262 1.60106L22.4671 1.53843V0.757812H1.0525V0.991581L0.602017 8.26768V8.50981L0.839543 8.53068L1.29003 8.57242H1.52347L1.55214 8.33865C1.6479 7.44033 1.90764 6.56817 2.31796 5.76718C2.74077 5.01077 3.30744 4.34799 3.98477 3.81769C4.88311 3.0965 5.92178 2.57852 7.03172 2.29819C8.5834 1.96364 10.1681 1.81513 11.7536 1.8557H16.8606L0.0409498 27.6038L0 27.6665V28.4471H23.6056V28.2175L24.2117 19.6473V19.3926H23.9619L23.5442 19.3509Z" fill="white"/>
<path d="M27.4467 0.733398H27.2051V1.67265H27.4344C28.0286 1.68907 28.6174 1.79167 29.1831 1.97739C29.6182 2.13742 30.0088 2.40239 30.3216 2.74967C30.7183 3.16223 30.9898 3.68252 31.1039 4.2483C31.2703 5.23089 31.3403 6.22795 31.3128 7.2247V21.9146C31.3403 22.9114 31.2703 23.9085 31.1039 24.8911C30.9918 25.4545 30.7232 25.9734 30.3298 26.3856C30.0114 26.7262 29.6225 26.9899 29.1913 27.1578C28.6257 27.3512 28.0348 27.4567 27.4385 27.4709H27.2091V28.4101H40.1914V27.4709H39.9621C39.2581 27.4542 38.5634 27.3027 37.9144 27.0242C37.4112 26.7841 36.9852 26.4034 36.6858 25.9264C36.4404 25.4812 36.2805 24.9924 36.2149 24.4861C36.0988 23.6343 36.0481 22.7746 36.0634 21.9146V7.23723C36.0627 6.44091 36.1051 5.64517 36.1903 4.8536C36.2467 4.0787 36.5535 3.3447 37.0626 2.76637C37.3832 2.42158 37.7768 2.15601 38.2134 1.98991C38.7748 1.80381 39.3596 1.70118 39.9498 1.68517H40.1792V0.745921H27.4467V0.733398Z" fill="white"/>
<path d="M63.1875 0.733499H62.9459V1.67275H63.1752C63.7654 1.68875 64.3503 1.79139 64.9116 1.97749C65.3942 2.16071 65.8232 2.46541 66.1591 2.8632C66.4949 3.26101 66.7265 3.73896 66.8324 4.25258C67.0056 5.23296 67.0784 6.22907 67.0495 7.2248V20.9004L51.6018 0.812815L51.5281 0.716797H43.6445V1.65605H43.8738C44.4708 1.67092 45.0625 1.77356 45.6308 1.9608C46.0608 2.12362 46.4469 2.38832 46.757 2.73307C47.1461 3.15488 47.4139 3.67767 47.531 4.24423C47.7031 5.21492 47.7759 6.20122 47.7481 7.18723V21.8981C47.7764 22.891 47.7037 23.8843 47.531 24.8619C47.4147 25.4267 47.1484 25.9481 46.7611 26.369C46.4406 26.7138 46.0469 26.9795 45.6103 27.1454C45.0488 27.3315 44.4641 27.4341 43.8738 27.4502H43.6445V28.3893H53.1457V27.4502H52.9163C52.3262 27.4341 51.7414 27.3315 51.18 27.1454C50.6992 26.9646 50.2709 26.6633 49.9345 26.2694C49.5981 25.8754 49.3645 25.4015 49.2552 24.8912C49.0817 23.9108 49.009 22.9147 49.038 21.919V5.29619L67.029 28.3435L67.1027 28.4353H68.3313V7.22064C68.3034 6.23461 68.3761 5.2483 68.5484 4.27763C68.6646 3.71285 68.931 3.19153 69.3182 2.77064C69.6976 2.39942 70.148 2.11184 70.6412 1.92583C71.1344 1.73981 71.6599 1.65935 72.185 1.68945H72.4267V0.737671H63.1875V0.733499Z" fill="white"/>
<path d="M98.105 19.3509H97.8928L97.8559 19.5638C97.7147 20.417 97.4656 21.2477 97.1141 22.0351C96.4534 23.5734 95.3647 24.8798 93.9816 25.7922C92.3429 26.8274 89.7181 27.3492 86.1306 27.3492H80.3193L96.9877 1.60106L97.0283 1.53843V0.757812H75.6096V0.991581L75.1591 8.26768V8.50981L75.3966 8.53068L75.8472 8.57242H76.0806L76.1092 8.33865C76.205 7.44033 76.4647 6.56817 76.875 5.76718C77.298 5.01084 77.8646 4.34807 78.5419 3.81769C79.4402 3.0965 80.4789 2.57852 81.5888 2.29819C83.1405 1.96364 84.7253 1.81513 86.3108 1.8557H91.4504L74.6308 27.6038L74.5898 27.6665V28.4471H98.1954V28.2175L98.8016 19.6473V19.3926H98.5516L98.105 19.3509Z" fill="white"/>
<path d="M102.912 0.73296H102.67V1.67221H102.9C103.494 1.68863 104.083 1.79123 104.648 1.97696C105.084 2.13699 105.474 2.40196 105.787 2.74923C106.183 3.16179 106.455 3.68208 106.569 4.24786C106.735 5.23045 106.805 6.22752 106.778 7.22426V21.9142C106.805 22.911 106.735 23.908 106.569 24.8906C106.457 25.4541 106.188 25.973 105.795 26.3851C105.477 26.7257 105.087 26.9895 104.656 27.1573C104.091 27.3508 103.5 27.4563 102.903 27.4704H102.675V28.4097H115.64V27.4704H115.411C114.707 27.4538 114.012 27.3024 113.363 27.0238C112.86 26.7835 112.435 26.4029 112.135 25.9259C111.889 25.4808 111.73 24.9919 111.663 24.4857C111.548 23.6338 111.497 22.7741 111.512 21.9142V7.23679C111.506 6.43374 111.545 5.63101 111.626 4.8323C111.684 4.0574 111.99 3.32339 112.499 2.74505C112.819 2.40027 113.213 2.1347 113.65 1.9686C114.212 1.7825 114.796 1.67987 115.386 1.66386H115.616V0.724609H102.912V0.73296Z" fill="white"/>
<path d="M150.057 1.47629V0.524514H140.556V1.46377H140.785C141.375 1.47977 141.96 1.5824 142.522 1.76851C143.004 1.95173 143.434 2.25642 143.768 2.65422C144.104 3.05202 144.336 3.52998 144.442 4.04359C144.615 5.02397 144.688 6.02008 144.659 7.01582V20.6914L129.211 0.603831L129.138 0.507812H121.242V1.44707H121.471C122.068 1.46194 122.66 1.56458 123.229 1.75181C123.659 1.91464 124.044 2.17933 124.354 2.52408C124.744 2.94589 125.011 3.46869 125.129 4.03525C125.301 5.00594 125.373 5.99223 125.345 6.97825V21.6891C125.374 22.682 125.301 23.6753 125.129 24.6529C125.012 25.2177 124.746 25.7391 124.359 26.16C124.038 26.5048 123.645 26.7705 123.207 26.9364C122.647 27.1225 122.062 27.2251 121.471 27.2412H121.242V28.1803H130.743V27.2412H130.514C129.924 27.2251 129.339 27.1225 128.778 26.9364C128.295 26.7532 127.866 26.4484 127.53 26.0507C127.194 25.6529 126.963 25.1749 126.857 24.6613C126.683 23.6809 126.61 22.6848 126.64 21.6891V5.08721L144.63 28.1345L144.704 28.2263H145.933V7.01165C145.904 6.02563 145.977 5.03931 146.15 4.06864C146.266 3.50386 146.533 2.98254 146.92 2.56165C147.3 2.19043 147.75 1.90286 148.243 1.71684C148.736 1.53083 149.261 1.45036 149.787 1.48046L150.057 1.47629Z" fill="white"/>
<path d="M175.494 5.27065C174.106 3.64339 172.4 2.3284 170.485 1.40926C168.632 0.511693 166.607 0.0440647 164.555 0.0400391C162.926 0.0462165 161.311 0.338532 159.78 0.904151C158.192 1.48166 156.703 2.30844 155.365 3.35457C153.616 4.70766 152.187 6.44561 151.188 8.43907C150.229 10.4034 149.739 12.5699 149.754 14.7634C149.751 16.4739 150.05 18.1709 150.639 19.7727C151.217 21.3527 152.078 22.8094 153.178 24.0683C154.554 25.6676 156.253 26.9448 158.158 27.8128C160.074 28.6886 162.152 29.1378 164.252 29.1306C166.352 29.1234 168.427 28.66 170.338 27.7711C172.278 26.874 174.008 25.5679 175.416 23.9389C176.56 22.6483 177.463 21.1559 178.082 19.5348C178.689 17.9371 178.999 16.2386 178.999 14.5255C179.01 11.1018 177.758 7.79892 175.494 5.27065ZM167.86 27.195C166.769 27.7282 165.572 27.9928 164.363 27.9673C163.159 27.9918 161.968 27.7243 160.885 27.1867C159.767 26.5683 158.789 25.7146 158.019 24.682C156.004 22.0937 154.98 18.8627 154.98 15.0806C154.963 13.0194 155.239 10.9664 155.8 8.98593C156.274 7.26011 157.069 5.64318 158.142 4.22285C158.864 3.24758 159.793 2.45245 160.861 1.89768C161.956 1.39789 163.147 1.154 164.346 1.18384C165.559 1.15412 166.762 1.40085 167.868 1.90602C168.931 2.45336 169.856 3.24507 170.567 4.21869C171.637 5.64668 172.436 7.26649 172.922 8.99429C173.499 10.9366 173.794 12.955 173.795 14.9847C173.795 18.8043 172.77 22.0813 170.755 24.6653C169.979 25.7089 168.992 26.5702 167.86 27.1908V27.195Z" fill="white"/>
</svg>
