<svg width="51" height="32" viewBox="0 0 51 32" fill="none" xmlns="http://www.w3.org/2000/svg">
<path d="M32.3961 3.87012H18.748V28.3902H32.3961V3.87012Z" fill="#FF5A00"/>
<path d="M19.6579 16.1305C19.6579 11.1488 21.9999 6.72729 25.5936 3.87049C22.9488 1.79097 19.6125 0.53418 15.9733 0.53418C7.35241 0.53418 0.376953 7.50964 0.376953 16.1305C0.376953 24.7514 7.35241 31.7269 15.9733 31.7269C19.6125 31.7269 22.9488 30.4701 25.5936 28.3906C21.9948 25.5742 19.6579 21.1123 19.6579 16.1305Z" fill="#EB001B"/>
<path d="M50.8104 16.1305C50.8104 24.7514 43.8349 31.7269 35.214 31.7269C31.5749 31.7269 28.2386 30.4701 25.5938 28.3906C29.2329 25.5287 31.5295 21.1123 31.5295 16.1305C31.5295 11.1488 29.1875 6.72729 25.5938 3.87049C28.2335 1.79097 31.5698 0.53418 35.209 0.53418C43.8349 0.53418 50.8104 7.55506 50.8104 16.1305Z" fill="#F79E1B"/>
<path d="M9.45336 18.99V16.3906C9.45336 15.3963 8.84768 14.7452 7.80792 14.7452C7.28804 14.7452 6.72274 14.9168 6.33409 15.4821C6.03125 15.0076 5.59717 14.7452 4.94606 14.7452C4.51199 14.7452 4.07792 14.8764 3.7347 15.3509V14.831H2.82617V18.99H3.7347V16.6935C3.7347 15.9566 4.12334 15.6083 4.72903 15.6083C5.33471 15.6083 5.63755 15.9969 5.63755 16.6935V18.99H6.54608V16.6935C6.54608 15.9566 6.98015 15.6083 7.54041 15.6083C8.14609 15.6083 8.44894 15.9969 8.44894 16.6935V18.99H9.45336ZM22.9298 14.831H21.456V13.5742H20.5475V14.831H19.7247V15.6537H20.5475V17.5616C20.5475 18.5156 20.9361 19.0758 21.9759 19.0758C22.3645 19.0758 22.7986 18.9446 23.1014 18.773L22.839 17.9906C22.5765 18.1622 22.2737 18.2077 22.0566 18.2077C21.6226 18.2077 21.4509 17.9452 21.4509 17.5162V15.6537H22.9248V14.831H22.9298ZM30.6422 14.7401C30.1223 14.7401 29.7741 15.0026 29.557 15.3458V14.8259H28.6485V18.985H29.557V16.643C29.557 15.9515 29.8599 15.5578 30.4252 15.5578C30.5968 15.5578 30.8138 15.6032 30.9905 15.6436L31.2529 14.7755C31.0712 14.7401 30.8138 14.7401 30.6422 14.7401ZM18.9878 15.1742C18.5538 14.8714 17.9481 14.7401 17.297 14.7401C16.2572 14.7401 15.5657 15.26 15.5657 16.0827C15.5657 16.7742 16.0856 17.1679 16.9941 17.2941L17.4282 17.3395C17.9026 17.4253 18.1651 17.5566 18.1651 17.7736C18.1651 18.0764 17.8168 18.2935 17.2112 18.2935C16.6055 18.2935 16.126 18.0764 15.8231 17.8594L15.3891 18.5509C15.8635 18.8992 16.5146 19.0708 17.1657 19.0708C18.3771 19.0708 19.0736 18.5055 19.0736 17.7282C19.0736 16.9913 18.5083 16.6026 17.6452 16.4714L17.2112 16.426C16.8225 16.3805 16.5197 16.2947 16.5197 16.0373C16.5197 15.7345 16.8225 15.5629 17.302 15.5629C17.8219 15.5629 18.3418 15.7799 18.6042 15.9111L18.9878 15.1742ZM43.1597 14.7401C42.6398 14.7401 42.2915 15.0026 42.0745 15.3458V14.8259H41.166V18.985H42.0745V16.643C42.0745 15.9515 42.3773 15.5578 42.9426 15.5578C43.1142 15.5578 43.3313 15.6032 43.5079 15.6436L43.7704 14.7856C43.5937 14.7401 43.3363 14.7401 43.1597 14.7401ZM31.5507 16.9105C31.5507 18.1673 32.4189 19.0758 33.7615 19.0758C34.3672 19.0758 34.8012 18.9446 35.2353 18.6014L34.8012 17.8645C34.453 18.1269 34.1097 18.2531 33.716 18.2531C32.9791 18.2531 32.4592 17.7332 32.4592 16.9105C32.4592 16.1282 32.9791 15.6083 33.716 15.5679C34.1047 15.5679 34.453 15.6991 34.8012 15.9566L35.2353 15.2196C34.8012 14.8714 34.3672 14.7452 33.7615 14.7452C32.4189 14.7401 31.5507 15.6537 31.5507 16.9105ZM39.9546 16.9105V14.831H39.0461V15.3509C38.7432 14.9622 38.3091 14.7452 37.7438 14.7452C36.5728 14.7452 35.6643 15.6537 35.6643 16.9105C35.6643 18.1673 36.5728 19.0758 37.7438 19.0758C38.3495 19.0758 38.7836 18.8588 39.0461 18.4701V18.99H39.9546V16.9105ZM36.6183 16.9105C36.6183 16.1736 37.0927 15.5679 37.8751 15.5679C38.612 15.5679 39.1319 16.1332 39.1319 16.9105C39.1319 17.6474 38.612 18.2531 37.8751 18.2531C37.0978 18.2077 36.6183 17.6424 36.6183 16.9105ZM25.7463 14.7401C24.5349 14.7401 23.6667 15.6083 23.6667 16.9055C23.6667 18.2077 24.5349 19.0708 25.7917 19.0708C26.3974 19.0708 27.003 18.8992 27.4825 18.5055L27.0485 17.8544C26.7002 18.1168 26.2661 18.2884 25.8371 18.2884C25.2718 18.2884 24.7115 18.026 24.5803 17.2941H27.6542C27.6542 17.1629 27.6542 17.0771 27.6542 16.9458C27.6945 15.6083 26.9122 14.7401 25.7463 14.7401ZM25.7463 15.5225C26.3116 15.5225 26.7002 15.8707 26.786 16.5168H24.6207C24.7065 15.9566 25.0951 15.5225 25.7463 15.5225ZM48.3181 16.9105V13.1855H47.4095V15.3509C47.1067 14.9622 46.6726 14.7452 46.1073 14.7452C44.9363 14.7452 44.0278 15.6537 44.0278 16.9105C44.0278 18.1673 44.9363 19.0758 46.1073 19.0758C46.713 19.0758 47.1471 18.8588 47.4095 18.4701V18.99H48.3181V16.9105ZM44.9818 16.9105C44.9818 16.1736 45.4562 15.5679 46.2386 15.5679C46.9755 15.5679 47.4953 16.1332 47.4953 16.9105C47.4953 17.6474 46.9755 18.2531 46.2386 18.2531C45.4562 18.2077 44.9818 17.6424 44.9818 16.9105ZM14.5663 16.9105V14.831H13.6578V15.3509C13.355 14.9622 12.9209 14.7452 12.3556 14.7452C11.1846 14.7452 10.2761 15.6537 10.2761 16.9105C10.2761 18.1673 11.1846 19.0758 12.3556 19.0758C12.9613 19.0758 13.3954 18.8588 13.6578 18.4701V18.99H14.5663V16.9105ZM11.1897 16.9105C11.1897 16.1736 11.6641 15.5679 12.4464 15.5679C13.1834 15.5679 13.7032 16.1332 13.7032 16.9105C13.7032 17.6474 13.1834 18.2531 12.4464 18.2531C11.6641 18.2077 11.1897 17.6424 11.1897 16.9105Z" fill="white"/>
</svg>
