<svg width="91" height="31" viewBox="0 0 91 31" fill="none" xmlns="http://www.w3.org/2000/svg">
<g clip-path="url(#clip0_622_899)">
<path d="M39.4341 29.698H32.0625L36.6733 0.657227H44.0445L39.4341 29.698Z" fill="white"/>
<path d="M66.1559 1.36724C64.7019 0.779642 62.3957 0.130859 59.5441 0.130859C52.2644 0.130859 47.138 4.08515 47.1066 9.73858C47.0461 13.9097 50.7769 16.2264 53.5672 17.6172C56.4192 19.0383 57.3887 19.9659 57.3887 21.2327C57.3597 23.1782 55.0841 24.075 52.9617 24.075C50.0186 24.075 48.4417 23.6127 46.0452 22.5303L45.0745 22.0663L44.043 28.5853C45.7719 29.3876 48.9573 30.0997 52.2644 30.1309C59.9992 30.1309 65.0348 26.2378 65.0945 20.2131C65.1239 16.9072 63.1539 14.3741 58.9068 12.3041C56.3285 10.9754 54.7495 10.0794 54.7495 8.71983C54.7798 7.48386 56.085 6.21791 58.9955 6.21791C61.3919 6.15591 63.1527 6.74269 64.4866 7.32988L65.1534 7.63825L66.1559 1.36724Z" fill="white"/>
<path d="M75.952 19.4099C76.5591 17.7415 78.8951 11.2845 78.8951 11.2845C78.8645 11.3465 79.501 9.58537 79.865 8.5042L80.3802 11.0065C80.3802 11.0065 81.7761 17.9579 82.0793 19.4099C80.9272 19.4099 77.408 19.4099 75.952 19.4099ZM85.0514 0.657227H79.3494C77.591 0.657227 76.2551 1.182 75.4965 3.06675L64.5469 29.6976H72.2817C72.2817 29.6976 73.5551 26.1133 73.8288 25.3413C74.6774 25.3413 82.2018 25.3413 83.2934 25.3413C83.505 26.3609 84.173 29.6976 84.173 29.6976H90.9984L85.0514 0.657227Z" fill="white"/>
<path d="M25.905 0.657227L18.6857 20.4603L17.8969 16.444C16.5622 11.8097 12.3763 6.77467 7.70508 4.27111L14.3177 29.6672H22.113L33.6999 0.657227H25.905Z" fill="white"/>
<path d="M11.9816 0.657227H0.121335L0 1.244C9.25173 3.65394 15.379 9.463 17.8964 16.4452L15.3181 3.09837C14.8936 1.24359 13.5892 0.718409 11.9816 0.657227Z" fill="#FAA61A"/>
</g>
<defs>
<clipPath id="clip0_622_899">
<rect width="91" height="30" fill="white" transform="translate(0 0.130859)"/>
</clipPath>
</defs>
</svg>
