<svg width="36" height="36" viewBox="0 0 36 36" fill="none" xmlns="http://www.w3.org/2000/svg">
<path d="M27.2113 32.8526C26.1554 32.9132 25.1035 32.6784 24.1736 32.1743C23.2438 31.6703 22.4728 30.9171 21.9473 29.9992C21.4218 29.0813 21.1625 28.0351 21.1986 26.9781C21.2347 25.921 21.5647 24.895 22.1516 24.0151L26.1066 18.1285C26.2284 17.9474 26.3929 17.799 26.5855 17.6963C26.7781 17.5937 26.9931 17.54 27.2113 17.54C27.4296 17.54 27.6445 17.5937 27.8371 17.6963C28.0298 17.799 28.1942 17.9474 28.316 18.1285L32.1988 23.9002C32.8411 24.8505 33.1979 25.9649 33.2269 27.1115C33.1879 28.6697 32.5329 30.1488 31.4053 31.225C30.2778 32.3011 28.7696 32.8864 27.2113 32.8526ZM27.2113 20.4057L24.0001 25.1821C23.6221 25.7314 23.4085 26.377 23.3843 27.0432C23.36 27.7095 23.526 28.3689 23.863 28.9443C24.1999 29.5196 24.6938 29.987 25.2868 30.2917C25.8798 30.5965 26.5474 30.726 27.2113 30.6651C28.1896 30.6991 29.1415 30.3443 29.8588 29.6784C30.5762 29.0125 31.0007 28.0896 31.0394 27.1115C31.0141 26.3781 30.7746 25.6682 30.3504 25.0695L27.2113 20.4057Z" fill="white"/>
<path d="M12.4453 17.54V12.0713H13.5391C14.6989 12.0698 15.8109 11.6084 16.6311 10.7883C17.4512 9.96812 17.9126 8.85617 17.9141 7.69629V4.41504H14.6328C13.5128 4.41687 12.4366 4.85056 11.6283 5.62582C11.0619 4.59744 10.2301 3.73974 9.21963 3.14206C8.20912 2.54437 7.05684 2.22857 5.88281 2.22754H2.60156V5.50879C2.60359 7.24865 3.29564 8.91667 4.52591 10.1469C5.75618 11.3772 7.4242 12.0693 9.16406 12.0713H10.2578V17.54H2.60156V19.7275H17.9141V17.54H12.4453ZM14.6328 6.60254H15.7266V7.69629C15.726 8.27627 15.4953 8.83233 15.0852 9.24245C14.6751 9.65256 14.119 9.88321 13.5391 9.88379H12.4453V8.79004C12.4459 8.21006 12.6765 7.65399 13.0867 7.24388C13.4968 6.83377 14.0528 6.60312 14.6328 6.60254ZM9.16406 9.88379C8.00418 9.88234 6.89223 9.42094 6.07207 8.60078C5.25191 7.78062 4.79051 6.66867 4.78906 5.50879V4.41504H5.88281C7.04269 4.41649 8.15465 4.87789 8.97481 5.69805C9.79496 6.5182 10.2564 7.63016 10.2578 8.79004V9.88379H9.16406Z" fill="white"/>
<path d="M2.60156 23.0088H17.9141V25.1963H2.60156V23.0088Z" fill="white"/>
<path d="M2.60156 28.4775H17.9141V30.665H2.60156V28.4775Z" fill="white"/>
</svg>
