<svg width="25" height="25" viewBox="0 0 25 25" fill="none" xmlns="http://www.w3.org/2000/svg">
<path d="M8.75 19.29C9.16421 19.29 9.5 18.9543 9.5 18.54C9.5 18.1258 9.16421 17.79 8.75 17.79C8.33579 17.79 8 18.1258 8 18.54C8 18.9543 8.33579 19.29 8.75 19.29Z" stroke="#D9B5A5" stroke-width="1.3" stroke-linecap="round" stroke-linejoin="round"/>
<path d="M19.25 19.29C19.6642 19.29 20 18.9543 20 18.54C20 18.1258 19.6642 17.79 19.25 17.79C18.8358 17.79 18.5 18.1258 18.5 18.54C18.5 18.9543 18.8358 19.29 19.25 19.29Z" stroke="#D9B5A5" stroke-width="1.3" stroke-linecap="round" stroke-linejoin="round"/>
<path d="M2.75 2.79004H5.75L8 15.54H20" stroke="#D9B5A5" stroke-width="1.3" stroke-linecap="round" stroke-linejoin="round"/>
<path d="M8 12.54H19.6925C19.7792 12.5401 19.8633 12.5101 19.9304 12.4551C19.9975 12.4002 20.0434 12.3237 20.0605 12.2386L21.4105 5.48863C21.4214 5.4342 21.42 5.37804 21.4066 5.32418C21.3931 5.27033 21.3679 5.22013 21.3327 5.17721C21.2975 5.1343 21.2532 5.09973 21.203 5.07601C21.1528 5.05228 21.098 5.04 21.0425 5.04004H6.5" stroke="#D9B5A5" stroke-width="1.3" stroke-linecap="round" stroke-linejoin="round"/>
</svg>
