<svg width="40" height="41" viewBox="0 0 40 41" fill="none" xmlns="http://www.w3.org/2000/svg">
<path d="M12.1168 16.7223C10.7102 14.9923 9.39016 14.6214 8.15516 15.6081C6.30266 17.0881 5.77099 22.2481 7.26099 26.7973C8.75182 31.3464 11.6502 37.5414 17.5018 37.5414C23.3527 37.5414 24.7368 31.3081 27.1235 27.5398C29.511 23.7714 30.7735 20.1356 28.4343 15.6081" stroke="#97B8B6" stroke-width="2.8" stroke-linecap="round" stroke-linejoin="round"/>
<path d="M9.16738 15.0707C8.06571 13.3875 6.95458 11.7106 5.83405 10.0399C4.62905 8.25237 7.70988 5.94154 9.16738 7.51321C10.1391 8.56154 11.4299 10.1049 13.0399 12.144" stroke="#97B8B6" stroke-width="2.8" stroke-linecap="round"/>
<path d="M12.5206 21.4058C12.1165 16.3525 12.4456 13.0625 13.5056 11.535C15.0973 9.24333 18.0531 8.375 20.8365 8.375C22.4948 8.375 24.0081 9.08083 25.3781 10.4925" stroke="#97B8B6" stroke-width="2.8" stroke-linecap="round" stroke-linejoin="round"/>
<path d="M34.1665 10.5503C34.6549 12.2469 33.8582 13.7978 31.4032 14.1486C28.949 14.4994 27.109 15.7336 25.7824 16.7719C24.4549 17.8103 22.0824 20.9603 21.6132 22.5411C21.1449 24.1228 18.4665 22.6686 17.7474 22.0369C17.0282 21.4053 16.3207 20.0236 17.7474 18.5778C19.174 17.1319 18.8649 16.8436 18.8649 15.3778C18.8649 13.9111 26.6665 9.06109 31.0607 8.61776C32.0374 8.56109 33.679 8.85276 34.1665 10.5503V10.5503Z" stroke="#97B8B6" stroke-width="2.8"/>
<path d="M29.6782 8.97031C29.4098 9.89115 29.4098 10.7536 29.6782 11.5595C29.9465 12.3653 30.5223 13.2278 31.404 14.1486M19.174 3.37281V7.75865V3.37281ZM16.9232 8.97115C14.4082 5.81031 12.3807 4.04615 10.8398 3.67948L16.9232 8.97115ZM14.1707 5.89698L14.9957 2.50781L14.1707 5.89698Z" stroke="#97B8B6" stroke-width="2.8" stroke-linecap="round"/>
</svg>
