<svg width="246" height="17" viewBox="0 0 246 17" fill="none" xmlns="http://www.w3.org/2000/svg">
<path d="M221.171 16.0898C214.83 16.0898 211.698 12.1279 208.565 8.31842C205.433 4.50889 202.53 0.851749 196.571 0.851749C190.612 0.851749 187.709 4.50889 184.576 8.31842C181.521 12.1279 178.312 16.0898 171.971 16.0898C165.63 16.0898 162.498 12.1279 159.365 8.31842C156.233 4.50889 153.33 0.851749 147.371 0.851749C141.412 0.851749 138.509 4.50889 135.376 8.31842C132.32 12.1279 129.112 16.0898 122.771 16.0898C116.43 16.0898 113.298 12.1279 110.165 8.31842C107.033 4.50889 104.13 0.851749 98.1708 0.851749C92.2118 0.851749 89.3087 4.50889 86.1764 8.31842C83.1205 12.1279 79.9118 16.0898 73.5708 16.0898C67.2298 16.0898 64.0975 12.1279 60.9652 8.31842C58.0621 4.50889 55.0826 0.851749 49.1236 0.851749C43.1646 0.851749 40.2615 4.50889 37.1292 8.31842C34.0733 12.1279 30.8646 16.0898 24.5236 16.0898C18.1826 16.0898 15.0503 12.1279 11.918 8.31842C8.86211 4.50889 5.95901 0.851749 0 0.851749V0.0898438C6.34099 0.0898438 9.47329 4.05175 12.6056 7.86127C15.7379 11.6708 18.641 15.3279 24.6 15.3279C30.559 15.3279 33.4621 11.6708 36.5944 7.86127C39.6503 4.05175 42.859 0.0898438 49.2 0.0898438C55.541 0.0898438 58.6733 4.05175 61.8056 7.86127C64.9379 11.6708 67.841 15.3279 73.8 15.3279C79.759 15.3279 82.6621 11.6708 85.7944 7.86127C88.8503 4.05175 92.059 0.0898438 98.4 0.0898438C104.741 0.0898438 107.873 4.05175 111.006 7.86127C114.138 11.6708 117.041 15.3279 123 15.3279C128.959 15.3279 131.862 11.6708 134.994 7.86127C138.05 4.05175 141.259 0.0898438 147.6 0.0898438C153.941 0.0898438 157.073 4.05175 160.206 7.86127C163.338 11.6708 166.241 15.3279 172.2 15.3279C178.159 15.3279 181.062 11.6708 184.194 7.86127C187.25 4.05175 190.459 0.0898438 196.8 0.0898438C203.141 0.0898438 206.35 4.05175 209.406 7.86127C212.538 11.6708 215.441 15.3279 221.4 15.3279C227.359 15.3279 230.262 11.6708 233.394 7.86127C236.45 4.05175 239.659 0.0898438 246 0.0898438V0.851749C240.041 0.851749 237.138 4.50889 234.006 8.31842C230.72 12.1279 227.512 16.0898 221.171 16.0898Z" fill="#97B8B6"/>
</svg>
