<svg width="24" height="24" viewBox="0 0 24 24" fill="none" xmlns="http://www.w3.org/2000/svg">
<path d="M10.9695 1.89341C11.248 1.63011 11.6167 1.4834 12 1.4834C12.3833 1.4834 12.752 1.63011 13.0305 1.89341L20.2965 8.76191C20.7465 9.18641 21 9.77891 21 10.3969V18.7519C21 19.3486 20.7629 19.9209 20.341 20.3429C19.919 20.7649 19.3467 21.0019 18.75 21.0019H15.75C15.4544 21.0019 15.1617 20.9437 14.8886 20.8305C14.6155 20.7173 14.3674 20.5515 14.1585 20.3424C13.9495 20.1333 13.7838 19.8851 13.6708 19.6119C13.5579 19.3388 13.4998 19.046 13.5 18.7504V15.0004C13.5 14.8015 13.421 14.6107 13.2803 14.4701C13.1397 14.3294 12.9489 14.2504 12.75 14.2504H11.25C11.0511 14.2504 10.8603 14.3294 10.7197 14.4701C10.579 14.6107 10.5 14.8015 10.5 15.0004V18.7504C10.5 19.3472 10.2629 19.9194 9.84099 20.3414C9.41903 20.7634 8.84674 21.0004 8.25 21.0004H5.25C4.65326 21.0004 4.08097 20.7634 3.65901 20.3414C3.23705 19.9194 3 19.3472 3 18.7504V10.3954C3 9.77741 3.255 9.18491 3.705 8.76041L10.9695 1.89041V1.89341ZM12 2.98241L4.734 9.85241C4.66024 9.92234 4.60146 10.0065 4.56123 10.0999C4.52101 10.1932 4.50017 10.2938 4.5 10.3954V18.7504C4.5 18.9493 4.57902 19.1401 4.71967 19.2807C4.86032 19.4214 5.05109 19.5004 5.25 19.5004H8.25C8.44891 19.5004 8.63968 19.4214 8.78033 19.2807C8.92098 19.1401 9 18.9493 9 18.7504V15.0004C9 14.4037 9.23705 13.8314 9.65901 13.4094C10.081 12.9875 10.6533 12.7504 11.25 12.7504H12.75C13.3467 12.7504 13.919 12.9875 14.341 13.4094C14.7629 13.8314 15 14.4037 15 15.0004V18.7504C15 18.9493 15.079 19.1401 15.2197 19.2807C15.3603 19.4214 15.5511 19.5004 15.75 19.5004H18.75C18.9489 19.5004 19.1397 19.4214 19.2803 19.2807C19.421 19.1401 19.5 18.9493 19.5 18.7504V10.3954C19.5 10.2935 19.4793 10.1927 19.4391 10.0991C19.3988 10.0055 19.3399 9.92102 19.266 9.85091L12 2.98241Z" fill="#D9B5A5"/>
</svg>
