<svg width="585" height="108" viewBox="0 0 585 108" fill="none" xmlns="http://www.w3.org/2000/svg">
<g clip-path="url(#clip0_622_460)">
<g opacity="0.2">
<path opacity="0.4" d="M83.637 69.7834H82.8805L82.7497 70.5522C82.2509 73.6327 81.3656 76.6322 80.1165 79.4753C77.77 85.0296 73.9 89.7466 68.9871 93.0408C63.1679 96.7787 53.8426 98.6629 41.0984 98.6629H20.4546L79.6655 5.69411L79.811 5.468V2.64941H3.73884V3.49348L2.13857 29.7653V30.6395L2.98234 30.7149L4.58264 30.8656H5.41189L5.51373 30.0215C5.85392 26.7779 6.77659 23.6288 8.2342 20.7367C9.73616 18.0056 11.7492 15.6124 14.1553 13.6977C17.3465 11.0937 21.0362 9.22343 24.9791 8.21126C30.4912 7.00329 36.1206 6.46706 41.7529 6.61354H59.8945L0.145468 99.5821L0 99.8084V102.627H83.8553V101.798L86.0084 70.8537V69.9341H85.1208L83.637 69.7834Z" fill="url(#paint0_linear_622_460)"/>
<path opacity="0.4" d="M97.499 2.55957H96.6406V5.95093H97.4551C99.566 6.0102 101.658 6.38067 103.667 7.05123C105.213 7.62908 106.6 8.58581 107.712 9.8397C109.121 11.3293 110.085 13.2079 110.49 15.2508C111.082 18.7986 111.33 22.3987 111.232 25.9977V79.0386C111.33 82.6376 111.082 86.2377 110.49 89.7856C110.093 91.8201 109.138 93.6935 107.741 95.1817C106.61 96.4115 105.228 97.3639 103.696 97.9702C101.687 98.6683 99.5882 99.0493 97.4699 99.1005H96.655V102.492H142.773V99.1005H141.958C139.457 99.0402 136.989 98.4932 134.684 97.4876C132.896 96.6208 131.383 95.2461 130.319 93.5238C129.448 91.9163 128.879 90.1513 128.646 88.3234C128.234 85.2477 128.054 82.1435 128.108 79.0386V26.0429C128.106 23.1677 128.256 20.2945 128.559 17.4364C128.76 14.6384 129.849 11.9882 131.658 9.89999C132.797 8.65507 134.195 7.69618 135.746 7.09644C137.74 6.4245 139.818 6.05393 141.914 5.99615H142.729V2.60479H97.499V2.55957Z" fill="url(#paint1_linear_622_460)"/>
<path opacity="0.4" d="M224.462 2.55933H223.604V5.95068H224.419C226.515 6.00846 228.593 6.37904 230.587 7.05102C232.301 7.71256 233.825 8.81273 235.018 10.249C236.212 11.6854 237.034 13.4111 237.41 15.2657C238.026 18.8055 238.284 22.4022 238.181 25.9975V75.3758L183.306 2.84572L183.044 2.49902H155.039V5.89039H155.854C157.974 5.94408 160.076 6.31468 162.095 6.99073C163.623 7.57864 164.994 8.53438 166.096 9.77917C167.478 11.3022 168.429 13.1898 168.845 15.2355C169.457 18.7404 169.715 22.3016 169.616 25.8618V78.9782C169.717 82.5633 169.459 86.1498 168.845 89.6797C168.432 91.719 167.486 93.6015 166.11 95.1213C164.972 96.3663 163.573 97.3255 162.022 97.9247C160.028 98.5966 157.95 98.9672 155.854 99.0251H155.039V102.416H188.791V99.0251H187.976C185.879 98.9672 183.802 98.5966 181.807 97.9247C180.1 97.272 178.578 96.1841 177.383 94.7616C176.188 93.339 175.358 91.6279 174.97 89.7854C174.354 86.2456 174.095 82.649 174.199 79.0537V19.0338L238.109 102.251L238.371 102.582H242.735V25.9824C242.636 22.4222 242.894 18.8609 243.506 15.3561C243.919 13.3169 244.865 11.4345 246.241 9.91482C247.589 8.57445 249.188 7.5361 250.94 6.86446C252.693 6.19282 254.559 5.90228 256.425 6.01097H257.283V2.57439H224.462V2.55933Z" fill="url(#paint2_linear_622_460)"/>
<path opacity="0.4" d="M348.499 69.7824H347.745L347.614 70.5512C347.112 73.6317 346.227 76.6312 344.979 79.4743C342.632 85.0286 338.764 89.7457 333.851 93.0399C328.03 96.7777 318.705 98.6619 305.962 98.6619H285.318L344.53 5.69313L344.674 5.46702V2.64844H268.587V3.4925L266.987 29.7643V30.6385L267.831 30.7139L269.431 30.8646H270.261L270.362 30.0206C270.702 26.777 271.625 23.6279 273.083 20.7358C274.585 18.0048 276.598 15.6118 279.004 13.6967C282.195 11.0927 285.885 9.22245 289.828 8.21028C295.34 7.00231 300.969 6.46608 306.602 6.61257H324.859L265.11 99.5812L264.965 99.8074V102.626H348.82V101.797L350.973 70.8527V69.9331H350.085L348.499 69.7824Z" fill="url(#paint3_linear_622_460)"/>
<path opacity="0.4" d="M365.578 2.55945H364.719V5.9508H365.535C367.646 6.01008 369.737 6.38055 371.746 7.05114C373.293 7.62896 374.68 8.58568 375.791 9.83958C377.2 11.3292 378.164 13.2078 378.57 15.2507C379.16 18.7985 379.409 22.3986 379.311 25.9976V79.0386C379.409 82.6376 379.16 86.2376 378.57 89.7855C378.17 91.8201 377.217 93.6934 375.82 95.1816C374.689 96.4115 373.306 97.3639 371.776 97.9698C369.766 98.6682 367.669 99.0492 365.548 99.1004H364.735V102.492H410.793V99.1004H409.98C407.479 99.0404 405.011 98.4934 402.704 97.4875C400.917 96.6201 399.406 95.2457 398.341 93.5234C397.469 91.9162 396.902 90.1513 396.666 88.3233C396.256 85.2476 396.076 82.1434 396.129 79.0386V26.0428C396.109 23.1432 396.247 20.2448 396.535 17.3609C396.738 14.563 397.826 11.9127 399.636 9.82451C400.773 8.57959 402.173 7.62069 403.723 7.02096C405.719 6.34901 407.794 5.97844 409.892 5.92066H410.708V2.5293H365.578V2.55945Z" fill="url(#paint4_linear_622_460)"/>
<path opacity="0.4" d="M533.05 5.24492V1.80835H499.3V5.1997H500.116C502.21 5.25749 504.288 5.62806 506.284 6.30004C507.995 6.96158 509.523 8.06175 510.713 9.49807C511.906 10.9344 512.728 12.6602 513.105 14.5147C513.721 18.0545 513.98 21.6512 513.875 25.2465V74.6248L459.001 2.09474L458.738 1.74805H430.691V5.13942H431.504C433.625 5.1931 435.729 5.5637 437.748 6.23975C439.276 6.82766 440.646 7.7834 441.747 9.02819C443.13 10.5512 444.081 12.4389 444.497 14.4845C445.11 17.9894 445.366 21.5506 445.267 25.1108V78.2272C445.369 81.8123 445.11 85.3988 444.497 88.9287C444.084 90.968 443.137 92.8505 441.763 94.3702C440.623 95.6153 439.226 96.5745 437.673 97.1737C435.68 97.8456 433.602 98.2162 431.504 98.2741H430.691V101.665H464.442V98.2741H463.629C461.531 98.2162 459.453 97.8456 457.46 97.1737C455.746 96.5122 454.222 95.4118 453.029 93.9757C451.836 92.5392 451.013 90.8136 450.636 88.9588C450.02 85.4191 449.761 81.8225 449.866 78.2272V18.2828L513.774 101.5L514.036 101.831H518.402V25.2314C518.3 21.6712 518.559 18.1099 519.172 14.6051C519.585 12.5659 520.532 10.6835 521.909 9.16384C523.256 7.82347 524.856 6.78512 526.606 6.11348C528.36 5.44184 530.225 5.1513 532.093 5.25999L533.05 5.24492Z" fill="url(#paint5_linear_622_460)"/>
<path opacity="0.4" d="M623.417 18.9428C618.484 13.0672 612.424 8.31921 605.622 5.0005C599.041 1.75964 591.846 0.0711758 584.557 0.0566406C578.772 0.0789456 573.033 1.13441 567.595 3.17669C561.954 5.2619 556.664 8.24713 551.911 12.0244C545.697 16.91 540.623 23.1852 537.073 30.383C533.668 37.4754 531.924 45.298 531.98 53.2182C531.967 59.3944 533.032 65.5218 535.123 71.3054C537.175 77.0101 540.233 82.2698 544.143 86.8155C549.03 92.5899 555.064 97.2017 561.833 100.336C568.641 103.498 576.022 105.12 583.482 105.094C590.942 105.068 598.313 103.394 605.101 100.185C611.991 96.946 618.137 92.2299 623.138 86.3481C627.203 81.6882 630.411 76.2995 632.611 70.4465C634.764 64.6774 635.869 58.5449 635.869 52.3592C635.905 39.9974 631.46 28.0716 623.417 18.9428ZM596.298 98.105C592.423 100.03 588.169 100.986 583.875 100.893C579.598 100.982 575.366 100.016 571.522 98.0748C567.549 95.8421 564.075 92.7596 561.338 89.0312C554.183 79.6858 550.545 68.0197 550.545 54.3637C550.482 46.9211 551.462 39.5083 553.455 32.3575C555.14 26.1261 557.965 20.2879 561.777 15.1595C564.34 11.6381 567.641 8.76714 571.436 6.764C575.324 4.95945 579.555 4.07883 583.816 4.18657C588.123 4.07923 592.397 4.97011 596.327 6.79415C600.103 8.77042 603.387 11.629 605.914 15.1445C609.716 20.3005 612.555 26.1492 614.279 32.3877C616.331 39.4009 617.376 46.6887 617.379 54.0172C617.379 67.8087 613.741 79.6408 606.583 88.9709C603.826 92.739 600.319 95.8489 596.298 98.0897V98.105Z" fill="url(#paint6_linear_622_460)"/>
</g>
</g>
<defs>
<linearGradient id="paint0_linear_622_460" x1="43.0042" y1="101.044" x2="43.0042" y2="-23.7647" gradientUnits="userSpaceOnUse">
<stop stop-color="#FBF8F5"/>
<stop offset="1" stop-color="#FBF8F5" stop-opacity="0"/>
</linearGradient>
<linearGradient id="paint1_linear_622_460" x1="119.707" y1="100.91" x2="119.707" y2="-23.8426" gradientUnits="userSpaceOnUse">
<stop stop-color="#FBF8F5"/>
<stop offset="1" stop-color="#FBF8F5" stop-opacity="0"/>
</linearGradient>
<linearGradient id="paint2_linear_622_460" x1="206.161" y1="100.998" x2="206.161" y2="-23.943" gradientUnits="userSpaceOnUse">
<stop stop-color="#FBF8F5"/>
<stop offset="1" stop-color="#FBF8F5" stop-opacity="0"/>
</linearGradient>
<linearGradient id="paint3_linear_622_460" x1="307.969" y1="101.043" x2="307.969" y2="-23.7657" gradientUnits="userSpaceOnUse">
<stop stop-color="#FBF8F5"/>
<stop offset="1" stop-color="#FBF8F5" stop-opacity="0"/>
</linearGradient>
<linearGradient id="paint4_linear_622_460" x1="387.756" y1="100.909" x2="387.756" y2="-23.8808" gradientUnits="userSpaceOnUse">
<stop stop-color="#FBF8F5"/>
<stop offset="1" stop-color="#FBF8F5" stop-opacity="0"/>
</linearGradient>
<linearGradient id="paint5_linear_622_460" x1="481.871" y1="100.247" x2="481.871" y2="-24.6939" gradientUnits="userSpaceOnUse">
<stop stop-color="#FBF8F5"/>
<stop offset="1" stop-color="#FBF8F5" stop-opacity="0"/>
</linearGradient>
<linearGradient id="paint6_linear_622_460" x1="583.924" y1="103.431" x2="583.924" y2="-27.6943" gradientUnits="userSpaceOnUse">
<stop stop-color="#FBF8F5"/>
<stop offset="1" stop-color="#FBF8F5" stop-opacity="0"/>
</linearGradient>
<clipPath id="clip0_622_460">
<rect width="585" height="107" fill="white" transform="translate(0 0.5)"/>
</clipPath>
</defs>
</svg>
