<?xml version="1.0" encoding="UTF-8" standalone="no"?>
<svg
   xmlns:dc="http://purl.org/dc/elements/1.1/"
   xmlns:cc="http://creativecommons.org/ns#"
   xmlns:rdf="http://www.w3.org/1999/02/22-rdf-syntax-ns#"
   xmlns:svg="http://www.w3.org/2000/svg"
   xmlns="http://www.w3.org/2000/svg"
   viewBox="0 0 30.000021 50.507389"
   height="50.507389"
   width="30.000021"
   id="svg3699"
   version="1.1">
  <metadata
     id="metadata3705">
    <rdf:RDF>
      <cc:Work
         rdf:about="">
        <dc:format>image/svg+xml</dc:format>
        <dc:type
           rdf:resource="http://purl.org/dc/dcmitype/StillImage" />
        <dc:title></dc:title>
      </cc:Work>
    </rdf:RDF>
  </metadata>
  <defs
     id="defs3703" />
  <path
     id="path3733"
     d="m 1.876507,50.113773 c -0.509952,-0.26833 -1.020913,-0.8219 -1.348739,-1.46122 L 0,47.623313 V 31.765283 C 0,14.566394 0.0032,14.518814 1.291145,12.769804 2.050386,11.738735 4.168054,10.328596 5.922724,9.6856694 l 1.348739,-0.494191 0.0018,-1.200028 c 0.0045,-3.070156 0.768361,-5.430675 2.127318,-6.574162 1.430706,-1.20385999 2.200162,-1.40212199 5.494207,-1.41566499 2.87132,-0.0118 3.126687,0.02545 4.37464,0.638304 2.279577,1.11946399 3.172126,2.80113399 3.410181,6.42519699 l 0.14131,2.151243 1.368009,0.498801 c 2.225419,0.8114276 4.162532,2.2696436 4.996573,3.7613056 l 0.721339,1.2901 0.06476,16.488379 c 0.07173,18.26466 0.129275,17.521 -1.442414,18.64209 l -0.733412,0.52315 -12.549137,0.0628 c -11.805388,0.0591 -12.597794,0.0372 -13.370109,-0.3692 z m 26.705033,-1.15724 0.856156,-0.87725 -0.938253,-0.11964 -0.938253,-0.11964 -0.07005,-1.61348 -0.07005,-1.61347 -0.552333,0.51889 c -0.303783,0.28538 -0.95836,0.6131 -1.454616,0.72826 -0.496256,0.11516 -5.229977,0.20727 -10.519379,0.20468 -10.033721,-0.005 -10.774115,-0.0701 -11.849662,-1.04346 -0.428791,-0.38805 -0.444422,-0.35115 -0.512241,1.20916 l -0.06995,1.60942 -0.76233,0.0735 c -0.963333,0.0929 -0.97672,0.52537 -0.04064,1.31303 l 0.721687,0.60726 H 15.053505 27.725384 Z M 2.070592,46.080773 c 0.04224,-0.70955 0.0068,-2.05536 -0.07865,-2.99068 -0.146138,-1.59864 -0.189412,-1.70058 -0.721853,-1.70058 H 0.703693 v 3.0649 3.0649 l 0.64505,-0.0742 c 0.605451,-0.0697 0.649763,-0.15341 0.721852,-1.36432 z m 27.249823,-1.64194 v -3.04932 h -0.586409 -0.586408 v 3.04932 3.04932 h 0.586408 0.586409 z m -3.293229,0.55461 c 1.29907,-0.76738 1.416722,-1.26933 1.416722,-6.0444 0,-2.39903 -0.04763,-4.36187 -0.105837,-4.36187 -0.05821,0 -0.713708,0.15833 -1.456662,0.35185 -1.080462,0.28142 -3.051947,0.35184 -9.850251,0.35184 H 7.53173 l -0.07149,1.11418 -0.07149,1.11417 H 6.215933 5.043117 l -0.06968,-1.06975 c -0.06925,-1.06311 -0.07696,-1.07198 -1.245053,-1.43042 l -1.175375,-0.36068 0.07224,4.55692 0.07224,4.55691 0.876167,0.80245 0.876168,0.80244 h 10.463962 c 9.265611,0 10.538338,-0.0439 11.11341,-0.38364 z M 2.041818,35.877273 c 0.02642,-2.70921 0.108852,-5.26082 0.18319,-5.67024 0.167199,-0.92087 1.470838,-2.11309 2.519884,-2.30451 0.422041,-0.077 5.324915,-0.10861 10.895278,-0.0702 9.806676,0.0676 10.14847,0.0851 10.77542,0.55343 1.514878,1.13149 1.518654,1.14843 1.568855,7.0368 l 0.04587,5.38056 0.64505,0.0742 0.645049,0.0742 v -12.47886 c 0,-8.59569 -0.08245,-12.754069 -0.264972,-13.363269 -0.389507,-1.30005 -1.815804,-3.045743 -2.997166,-3.668325 C 25.38898,11.088337 24.623987,10.89625 23.888565,10.89625 h -1.135924 v 1.172816 c 0,0.645048 0.08751,1.172818 0.194467,1.172818 0.106956,0 0.4274,0.50138 0.712094,1.11417 0.489982,1.05468 0.514046,1.37724 0.450582,6.040009 l -0.06704,4.92583 -1.700584,0.0689 -1.700584,0.0689 v -5.04711 c 0,-4.721299 0.0333,-5.115659 0.515866,-6.108919 0.283727,-0.584 0.600388,-1.06181 0.70369,-1.06181 0.103303,0 0.187823,-0.52777 0.187823,-1.172818 V 10.89628 H 15.012052 7.975153 v 1.041691 c 0,0.572933 0.107062,1.107863 0.237915,1.188733 0.130854,0.0809 0.447514,0.55789 0.70369,1.06003 0.423035,0.82922 0.465775,1.38832 0.465775,6.093009 v 5.18001 l -1.700584,-0.0689 -1.700584,-0.0689 -0.06339,-4.86561 c -0.06236,-4.786289 -0.05383,-4.884469 0.523307,-6.023399 0.322686,-0.63679 0.694263,-1.22428 0.825726,-1.30553 0.131463,-0.0812 0.239023,-0.61648 0.239023,-1.189413 V 10.89631 h -1.18035 c -0.649193,0 -1.531102,0.146553 -1.959799,0.325674 -1.104201,0.461365 -2.44852,1.88622 -3.100343,3.28609 l -0.557261,1.19678 -0.0023,12.623359 -0.0023,12.62336 0.645049,-0.0742 0.645049,-0.0742 z m 11.262276,-14.84237 c -0.915413,-0.5672 -1.658725,-2.18009 -1.454972,-3.15712 0.478626,-2.295069 2.851267,-3.448219 4.733488,-2.300559 2.878377,1.755059 1.773065,5.884279 -1.570558,5.867289 -0.581457,-0.003 -1.348561,-0.18693 -1.707958,-0.40961 z m 3.643106,-0.97987 c 1.486137,-1.66314 0.297528,-4.311109 -1.935148,-4.311109 -1.479314,0 -2.580196,1.13585 -2.580196,2.662149 0,2.33159 2.944498,3.40689 4.515344,1.64896 z M 6.802337,36.229113 c 0,-0.84442 -0.05864,-0.93825 -0.586409,-0.93825 -0.527767,0 -0.586408,0.0938 -0.586408,0.93825 0,0.84443 0.05864,0.93826 0.586408,0.93826 0.527768,0 0.586409,-0.0938 0.586409,-0.93826 z m 19.544251,-2.01583 1.09732,-0.3739 v -1.63154 c 0,-1.80624 -0.352612,-2.73164 -1.269855,-3.33264 -0.52591,-0.34459 -1.728478,-0.38668 -11.048115,-0.38668 -11.622566,0 -11.569169,-0.007 -12.212374,1.53271 -0.183352,0.43882 -0.333367,1.48398 -0.333367,2.32256 0,2.34824 -0.672247,2.22287 11.979584,2.23399 9.183624,0.008 10.844071,-0.0433 11.786807,-0.3645 z M 8.913406,20.278813 V 15.587544 H 7.74059 6.567773 v 4.691269 4.69126 H 7.74059 8.913406 Z m 14.542926,0 v -4.691269 h -1.172817 -1.172817 v 4.534889 c 0,2.49419 0.07037,4.60526 0.156376,4.69127 0.08601,0.086 0.613773,0.15637 1.172816,0.15637 h 1.016442 z M 8.326998,14.414734 c -0.445278,-0.86108 -0.891286,-0.89891 -1.252447,-0.10625 -0.37497,0.82297 -0.385786,0.80994 0.672062,0.80994 H 8.69089 Z m 14.894771,0.59744 c 0,-0.0584 -0.122499,-0.37509 -0.272216,-0.70369 -0.361159,-0.79266 -0.807169,-0.75483 -1.252447,0.10625 l -0.363892,0.70369 h 0.944277 c 0.519352,0 0.944278,-0.0478 0.944278,-0.10625 z M 7.506026,9.9799864 c 0,-0.116932 -0.211107,-0.157398 -0.469126,-0.08992 -0.25802,0.06747 -0.469127,0.1631446 -0.469127,0.2126026 0,0.04946 0.211107,0.08992 0.469127,0.08992 0.258019,0 0.469126,-0.09567 0.469126,-0.2126026 z m 14.484739,-0.0806 c -0.153665,-0.46315 -1.819125,-0.610513 -6.861431,-0.607114 -5.134816,0.0035 -6.948037,0.158588 -7.096333,0.607114 -0.07612,0.2302256 1.42293,0.2932036 6.979051,0.2932036 5.556302,0 7.055101,-0.06297 6.978713,-0.2932036 z m 1.524208,0.1378566 c -0.161262,-0.06507 -0.425146,-0.06507 -0.586408,0 -0.161263,0.06507 -0.02932,0.11831 0.293204,0.11831 0.322524,0 0.454466,-0.05324 0.293204,-0.11831 z M 22.048892,7.6635004 C 22.048954,6.3611274 21.600548,4.9996064 20.92583,4.2534914 19.213061,2.3594804 12.812356,1.8863104 10.019492,3.4472454 8.527988,4.2808484 8.1493,4.9703774 8.027442,7.0744504 L 7.92157,8.9024914 h 7.063631 7.063631 z M 21.25629,3.2143314 C 20.111121,1.0131094 16.450473,-0.14153959 12.857821,0.56527141 10.691414,0.99148641 9.401234,1.8076274 8.636194,3.2357844 c -0.19683,0.367438 -0.07957,0.344645 0.785246,-0.152637 2.802489,-1.611469 9.248774,-1.441355 11.454695,0.302284 0.760409,0.601055 0.777792,0.593231 0.380155,-0.1711 z"
     style="fill:#000000;stroke-width:0.23456331" />
</svg>
