<svg width="468" height="78" viewBox="0 0 468 78" fill="none" xmlns="http://www.w3.org/2000/svg">
<path d="M0 2.68411H10.1633V38.0614L47.3422 2.68411H61.5501L29.8158 31.984L62.4316 75.3162H49.3645L22.5044 38.7037L10.1633 50.0185V75.3162H0V2.68411Z" fill="black"/>
<path d="M78.9344 38.9013C78.9344 43.447 79.5394 47.5645 80.7493 51.2537C81.9592 54.91 83.6531 58.0228 85.8309 60.5921C88.0434 63.1614 90.6879 65.1543 93.7645 66.5707C96.8757 67.9542 100.298 68.6459 104.032 68.6459C107.281 68.6459 110.185 68.0859 112.743 66.966C115.336 65.846 117.565 64.3802 119.432 62.5685C121.299 60.7239 122.802 58.6487 123.943 56.3429C125.084 54.0371 125.845 51.6984 126.225 49.3268H132.39C132.183 51.4349 135.386 53.5925 134.625 55.7994C133.899 57.9734 132.897 60.098 131.618 62.1733C130.373 64.2155 128.869 66.159 127.106 68.0036C125.343 69.8153 123.304 71.3964 120.988 72.7469C118.706 74.0974 116.148 75.168 113.313 75.9585C110.479 76.7491 107.385 77.1444 104.032 77.1444C101.715 77.1444 99.2264 76.9138 96.5646 76.4526C93.9374 75.9915 91.3101 75.2174 88.6829 74.1304C86.0902 73.0434 83.5839 71.594 81.1641 69.7823C78.7789 67.9377 76.6701 65.6319 74.838 62.865C73.0058 60.0981 71.5366 56.837 70.4304 53.0819C69.3242 49.2938 68.7711 44.8964 68.7711 39.8895C68.7711 34.9815 69.2551 30.6005 70.223 26.7466C71.2255 22.8926 72.5737 19.5328 74.2676 16.667C75.996 13.7683 78.0011 11.3143 80.2826 9.305C82.5987 7.29567 85.0704 5.66516 87.6977 4.41345C90.3249 3.16174 93.0559 2.2559 95.8905 1.69592C98.7252 1.13594 101.543 0.855957 104.343 0.855957C107.8 0.855957 110.945 1.20182 113.78 1.89356C116.649 2.55235 119.207 3.47466 121.454 4.6605C123.736 5.81339 125.724 7.16391 127.417 8.71208C129.111 10.2602 130.529 11.9072 131.669 13.653C132.845 15.3659 133.744 17.1282 134.366 18.9399C135.023 20.7516 135.42 22.5138 135.558 24.2267H125.603C124.946 21.888 123.978 19.7963 122.699 17.9517C121.42 16.107 119.864 14.5589 118.032 13.3072C116.234 12.0225 114.195 11.0508 111.913 10.392C109.666 9.70027 107.246 9.35441 104.654 9.35441C100.747 9.35441 97.2041 10.0461 94.0238 11.4296C90.878 12.8131 88.1816 14.7895 85.9346 17.3588C83.6877 19.9281 81.9592 23.0409 80.7493 26.6972C79.5394 30.3205 78.9344 34.3886 78.9344 38.9013Z" fill="black"/>
<path d="M142.962 2.68411H204.979V11.1826H179.052V75.3162H168.837V11.1826H142.962V2.68411Z" fill="black"/>
<path d="M330.765 2.68411H392.782V11.1826H366.855V75.3162H356.64V11.1826H330.765V2.68411Z" fill="black"/>
<path d="M407.072 2.68411H417.235V61.4321H417.443L456.229 2.68411H468V75.3162H457.785V16.2223H457.577L418.843 75.3162H407.072V2.68411Z" fill="black"/>
<path d="M295.657 65.9914C300.401 65.9914 305.164 64.4869 309.945 61.4778C314.851 58.3472 319.015 54.2619 322.166 49.4876L323.309 49.9274C320.033 56.0328 315.574 61.4846 310.171 65.9914C304.847 70.3894 300.017 72.5884 295.681 72.5884C294.492 72.65 293.302 72.4762 292.185 72.078C291.069 71.6797 290.05 71.0656 289.193 70.2737C287.631 68.7305 286.842 66.601 286.842 63.8928C286.842 59.2016 290.599 52.1984 298.112 42.883C279.135 51.0256 260.795 58.1009 243.09 64.1088C225.385 70.1168 212.285 73.1233 203.789 73.1284C198.122 73.1284 195.291 71.7344 195.296 68.9465C195.296 65.5773 199.179 60.9222 206.945 54.9811C214.711 49.0401 224.196 43.6699 235.402 38.8708C246.608 34.0614 256.343 31.6592 264.608 31.6644C268.898 31.6123 273.155 32.3999 277.117 33.9791C280.874 35.5222 283.512 37.0268 285.031 38.4927L287.212 40.8074L286.182 41.471C285.57 40.8846 284.708 40.1336 283.598 39.2181C282.487 38.3025 280.058 37.091 276.312 35.5839C272.531 34.0743 268.471 33.3082 264.374 33.331C258.471 33.331 251.626 34.6683 243.839 37.3431C236.468 39.8281 229.36 42.9774 222.61 46.7486C216.902 49.9216 211.472 53.5341 206.373 57.5505C201.898 61.1512 199.659 63.8284 199.659 65.5825C199.659 66.6112 200.958 67.1256 203.556 67.1256C211.821 67.1256 225.237 64.5537 243.806 59.4099C262.992 54.0756 281.842 47.6868 300.261 40.2751C306.46 32.724 310.246 27.5802 311.62 24.8437C312.513 23.2484 313.025 21.4825 313.118 19.6742C313.118 13.5016 304.088 10.4154 286.029 10.4154C271.914 10.482 257.849 12.0345 244.088 15.0448C229.673 18.131 216.916 22.1998 205.818 27.251L205.359 26.1476C235.413 11.637 261.731 4.37917 284.314 4.37402C294.328 4.37402 301.92 5.62137 307.088 8.11611C312.256 10.6108 314.837 13.9826 314.832 18.2314C314.832 21.0193 313.839 24.0438 311.853 27.305C309.263 31.3903 306.388 35.3034 303.248 39.0174C310.896 35.9312 318.124 32.778 324.935 29.558L325.506 30.5533C320.988 32.7548 312.879 36.4198 301.179 41.5481C298.496 44.7733 296.47 47.2655 295.101 49.0247C293.572 51.0105 292.208 53.1079 291.02 55.2975C289.684 57.7125 289.015 59.734 289.015 61.3466C288.999 64.4174 291.213 65.9657 295.657 65.9914Z" fill="black"/>
<path fill-rule="evenodd" clip-rule="evenodd" d="M205.469 26.189L205.864 27.1383C216.95 22.1017 229.684 18.0439 244.068 14.9643C257.835 11.9527 271.906 10.3996 286.027 10.3329L286.028 10.3329C295.06 10.3329 301.845 11.1044 306.374 12.6525C308.639 13.4267 310.346 14.397 311.488 15.5676C312.631 16.74 313.204 18.1105 313.204 19.6753V19.6774L313.204 19.6794C313.111 21.4995 312.596 23.2769 311.697 24.8827C310.318 27.6294 306.525 32.7799 300.329 40.328L300.315 40.345L300.294 40.3534C281.872 47.7664 263.019 54.1563 243.83 59.4915C225.261 64.6354 211.833 67.2105 203.555 67.2105C202.253 67.2105 201.265 67.082 200.599 66.8184C200.266 66.6863 200.008 66.5183 199.834 66.3113C199.659 66.103 199.571 65.8592 199.571 65.5838C199.571 64.6766 200.147 63.5495 201.269 62.208C202.393 60.8633 204.076 59.2897 206.316 57.4878L206.317 57.4872C211.419 53.468 216.853 49.8529 222.565 46.6776C229.32 42.9038 236.433 39.7523 243.808 37.2655C251.601 34.5888 258.457 33.2486 264.373 33.2485C264.373 33.2485 264.373 33.2485 264.373 33.2485L264.373 33.3322L264.373 33.2486C264.373 33.2486 264.373 33.2485 264.373 33.2485C268.481 33.2258 272.553 33.994 276.345 35.5079L276.346 35.508C280.09 37.0146 282.531 38.2304 283.654 39.1559C284.735 40.047 285.581 40.7832 286.192 41.3643L286.132 41.4028L286.181 41.4722L286.243 41.4131C286.226 41.397 286.209 41.3807 286.192 41.3643L287.079 40.7931L287.146 40.8646L287.211 40.8087L287.163 40.7393L287.079 40.7931L284.968 38.5528L285.03 38.4939L284.965 38.5499L284.966 38.5515C283.46 37.0977 280.835 35.5988 277.082 34.0573C277.083 34.0574 277.083 34.0574 277.083 34.0575L277.117 33.9803L277.082 34.0571C277.082 34.0572 277.082 34.0572 277.082 34.0573C273.131 32.4826 268.887 31.6972 264.608 31.7492L264.607 31.7492C256.359 31.7441 246.636 34.1416 235.437 38.9483C224.237 43.7452 214.758 49.1119 206.999 55.0477C203.118 58.0164 200.212 60.661 198.276 62.9817C196.339 65.3046 195.383 67.292 195.383 68.9478C195.382 69.6306 195.554 70.2244 195.897 70.732C196.24 71.24 196.758 71.6666 197.455 72.0099C198.852 72.6977 200.96 73.0461 203.789 73.0461C212.268 73.041 225.356 70.039 243.06 64.0313C260.762 58.0242 279.101 50.9497 298.075 42.8079L298.393 42.6715L298.181 42.9353C294.426 47.5907 291.612 51.666 289.737 55.1614C287.861 58.6583 286.929 61.5679 286.929 63.8941C286.929 66.5858 287.712 68.6921 289.254 70.2158C289.253 70.2155 289.253 70.2151 289.252 70.2148L289.192 70.275L289.255 70.2168C289.254 70.2165 289.254 70.2162 289.254 70.2158C290.103 70.9993 291.111 71.6069 292.215 72.0009C293.32 72.3951 294.498 72.5671 295.675 72.5062L295.678 72.506H295.68C299.986 72.506 304.796 70.322 310.113 65.9297L310.17 65.9927L310.113 65.9294C310.113 65.9295 310.113 65.9296 310.113 65.9297C315.484 61.4499 319.92 56.035 323.186 49.972L323.275 50.0063L323.308 49.9287L323.23 49.8905C323.215 49.9177 323.201 49.9449 323.186 49.972L322.2 49.5925C322.213 49.5728 322.226 49.5531 322.239 49.5334L322.165 49.4888L322.132 49.5664L322.2 49.5925C319.047 54.3513 314.889 58.4244 309.993 61.5486L309.993 61.5489C305.2 64.5651 300.42 66.0764 295.656 66.0764L295.655 66.0764C293.425 66.0634 291.739 65.6689 290.611 64.8797C289.477 64.0869 288.919 62.9044 288.927 61.3474C288.927 61.3476 288.927 61.3477 288.927 61.3478H289.014L288.927 61.3474C288.927 59.7149 289.603 57.6793 290.942 55.2597C290.942 55.2599 290.941 55.2601 290.941 55.2603L291.019 55.2988L290.942 55.2597C292.132 53.0664 293.498 50.9655 295.03 48.9763L295.03 48.976C296.399 47.2157 298.426 44.7226 301.11 41.4973L301.123 41.4816L301.142 41.4733C312.772 36.3752 320.853 32.7239 325.385 30.5191L325.429 30.5947L325.505 30.5545L325.466 30.4799C325.439 30.4929 325.412 30.506 325.385 30.5191L324.898 29.6697C324.923 29.6579 324.948 29.646 324.973 29.6342L324.934 29.5592L324.857 29.5994L324.898 29.6697C318.107 32.8782 310.902 36.0202 303.281 39.0957L302.96 39.2254L303.179 38.9661C306.317 35.2551 309.189 31.3453 311.777 27.2634C311.777 27.2636 311.777 27.2639 311.777 27.2641L311.853 27.3062L311.778 27.2628C311.778 27.263 311.777 27.2632 311.777 27.2634C313.758 24.0109 314.744 21.0011 314.744 18.2324C314.749 14.0251 312.197 10.6775 307.048 8.1919C301.898 5.70591 294.323 4.45879 284.313 4.45879C261.767 4.46393 235.486 11.7046 205.469 26.189ZM205.319 26.0742C235.379 11.5603 261.711 4.29665 284.313 4.2915C294.333 4.2915 301.94 5.53909 307.126 8.04258C312.314 10.5465 314.924 13.9424 314.919 18.2326C314.919 21.0396 313.919 24.0787 311.928 27.3483L311.927 27.3495C309.395 31.3432 306.591 35.1724 303.534 38.8121C311.061 35.7677 318.182 32.6584 324.895 29.4842L324.97 29.4487L325.626 30.5898L325.545 30.629C321.027 32.8302 312.923 36.4931 301.234 41.617C298.557 44.8342 296.536 47.3203 295.171 49.0755C293.645 51.0579 292.283 53.1515 291.097 55.3373L291.096 55.3379C289.763 57.7481 289.102 59.7552 289.102 61.3478L289.102 61.3483C289.094 62.8621 289.634 63.9893 290.714 64.7447C291.8 65.5038 293.442 65.8963 295.656 65.9091C300.38 65.909 305.126 64.4112 309.896 61.4095C314.792 58.2854 318.947 54.2086 322.091 49.4442L322.13 49.3852L323.429 49.8853L323.386 49.9668C320.105 56.0817 315.64 61.5419 310.228 66.0557L310.227 66.056C304.898 70.4586 300.049 72.6725 295.682 72.6733C294.482 72.7352 293.281 72.5596 292.154 72.1576C291.026 71.7554 289.997 71.1351 289.131 70.3351L289.13 70.3341L289.129 70.3331C287.548 68.7707 286.754 66.6182 286.754 63.8941C286.754 61.5291 287.7 58.5915 289.581 55.0851C291.427 51.6435 294.177 47.6472 297.83 43.0965C278.964 51.1828 260.727 58.2136 243.118 64.189C225.413 70.1972 212.3 73.2082 203.789 73.2134C200.95 73.2134 198.809 72.8648 197.375 72.1586C196.656 71.8049 196.113 71.3603 195.75 70.8228C195.386 70.2849 195.207 69.6588 195.208 68.9477C195.208 67.2344 196.194 65.2096 198.139 62.8774C200.086 60.543 203.004 57.8895 206.889 54.9171C214.662 48.9707 224.154 43.5971 235.365 38.7957C246.577 33.9836 256.325 31.5769 264.606 31.5819C268.909 31.5298 273.177 32.3196 277.15 33.9031L277.151 33.9034C280.911 35.4477 283.561 36.9574 285.092 38.4351L285.093 38.4365L285.095 38.438L287.344 40.8242L286.17 41.5801L286.119 41.5313C285.509 40.947 284.65 40.1976 283.54 39.2826C282.441 38.3769 280.025 37.17 276.278 35.6623C272.507 34.157 268.459 33.3931 264.374 33.4158H264.373C258.483 33.4158 251.648 34.7503 243.867 37.423L243.867 37.4232C236.502 39.9065 229.399 43.0535 222.654 46.822L222.654 46.8221C216.949 49.9927 211.523 53.6025 206.429 57.6159C204.193 59.4145 202.519 60.98 201.406 62.3125C200.289 63.6484 199.746 64.7369 199.746 65.5838C199.746 65.8227 199.821 66.029 199.97 66.2064C200.121 66.3852 200.35 66.5388 200.666 66.6638C201.3 66.9146 202.26 67.0433 203.555 67.0433C211.806 67.0433 225.212 64.4746 243.781 59.3309C243.781 59.3309 243.781 59.3309 243.781 59.3309C262.957 53.9995 281.796 47.6146 300.206 40.2076C300.201 40.2133 300.196 40.219 300.192 40.2247L300.261 40.2763L300.227 40.1992C300.22 40.202 300.213 40.2048 300.206 40.2076C306.397 32.6643 310.172 27.5335 311.54 24.8087L311.541 24.8071L311.542 24.8055C312.429 23.2216 312.937 21.4684 313.029 19.6731C313.029 19.6739 313.029 19.6746 313.029 19.6753H313.117L313.029 19.6713C313.029 19.6719 313.029 19.6725 313.029 19.6731C313.029 18.1527 312.473 16.8234 311.36 15.6816C310.244 14.5375 308.565 13.5789 306.315 12.81C301.815 11.2718 295.055 10.5002 286.028 10.5001C286.028 10.5001 286.028 10.5001 286.028 10.5001L286.028 10.4175V10.5001C286.028 10.5001 286.028 10.5001 286.028 10.5001C271.92 10.5668 257.862 12.1185 244.107 15.1275L244.106 15.1275C229.697 18.2127 216.946 22.2797 205.855 27.3277L205.77 27.3661L205.247 26.1087L205.319 26.0742Z" fill="black"/>
</svg>
