<svg width="839" height="47" viewBox="0 0 839 47" fill="none" xmlns="http://www.w3.org/2000/svg">
<path d="M5.92246 22.8481V1.11757H0V45.6962H5.92246V30.1744L13.0788 23.2206L28.6869 45.6962H36.275L17.3355 19.1229L35.7815 1.11757H27.5147L5.92246 22.8481Z" fill="black"/>
<path d="M83.6103 23.4069C83.6103 19.93 83.1167 16.8256 82.1296 13.9075C81.1426 11.0515 79.7853 8.56803 77.9346 6.51916C76.0838 4.47028 73.8629 2.85601 71.1484 1.73845C68.4957 0.558785 65.411 0 62.018 0C58.6249 0 55.602 0.558785 52.8875 1.73845C50.2348 2.85601 47.9521 4.47028 46.1014 6.51916C44.3123 8.56803 42.8934 11.0515 41.9063 13.9075C40.9192 16.8256 40.4257 19.93 40.4257 23.4069C40.4257 25.3316 40.6108 27.2563 40.9809 29.1189C41.4128 31.0436 41.968 32.8441 42.77 34.5826C43.5103 36.321 44.4974 37.9353 45.7312 39.4254C46.9034 40.9155 48.3223 42.2193 49.8646 43.2748C51.4686 44.3923 53.3194 45.2616 55.2935 45.8824C57.3294 46.5033 59.612 46.8137 62.018 46.8137C64.4857 46.8137 66.7066 46.5033 68.7424 45.8824C70.7783 45.2616 72.5673 44.3923 74.1713 43.2748C75.7753 42.2193 77.1943 40.9155 78.3664 39.4254C79.5386 37.9353 80.464 36.321 81.266 34.5826C82.068 32.8441 82.6232 31.0436 82.9933 29.1189C83.4252 27.2563 83.6103 25.3316 83.6103 23.4069ZM77.6878 23.4069C77.6878 26.1387 77.3793 28.6222 76.7007 30.7952C76.0838 33.0304 75.1584 34.9551 73.8629 36.5694C72.5673 38.1836 70.9017 39.3633 68.9275 40.2946C66.9534 41.1638 64.6707 41.5984 62.018 41.5984C59.3652 41.5984 57.0826 41.1638 55.1084 40.2946C53.196 39.3633 51.5303 38.1836 50.2348 36.5694C48.9392 34.9551 47.9521 33.0304 47.2735 30.7952C46.6566 28.6222 46.3481 26.1387 46.3481 23.4069C46.3481 20.7992 46.7183 18.3157 47.3969 16.0806C48.0755 13.8454 49.1243 11.9207 50.4815 10.3065C51.7771 8.69221 53.4427 7.45046 55.3552 6.58124C57.3294 5.64994 59.5503 5.21533 62.018 5.21533C64.4857 5.21533 66.7066 5.64994 68.6807 6.58124C70.5932 7.45046 72.2589 8.69221 73.6161 10.3065C74.9117 11.9207 75.9604 13.8454 76.639 16.0806C77.3176 18.3157 77.6878 20.7992 77.6878 23.4069Z" fill="black"/>
<path d="M113.075 38.6182L100.551 1.11757H92.0379V45.6962H97.5902V8.19551H97.7136L110.175 45.6962H116.098L128.56 8.19551H128.683V45.6962H134.235V1.11757H125.722L113.198 38.6182H113.075Z" fill="black"/>
<path d="M180.276 45.6962V1.11757H144.865V45.6962H150.787V6.3329H174.354V45.6962H180.276Z" fill="black"/>
<path d="M242.46 41.9709C245.01 41.9709 247.56 41.1224 250.11 39.4254C252.701 37.7283 254.901 35.4725 256.711 32.6579L257.328 32.9062C255.477 36.4659 253.112 39.4875 250.233 41.9709C247.395 44.4544 244.804 45.6962 242.46 45.6962C240.979 45.6962 239.807 45.2616 238.943 44.3923C238.121 43.5231 237.71 42.3228 237.71 40.7913C237.71 38.1422 239.725 34.1894 243.755 28.9326C233.556 33.5271 223.685 37.5214 214.143 40.9155C204.642 44.3096 197.61 46.0066 193.044 46.0066C190.001 46.0066 188.479 45.2202 188.479 43.6473C188.479 41.7433 190.556 39.1149 194.71 35.7622C198.905 32.4095 204.005 29.3879 210.01 26.6975C216.056 23.9657 221.299 22.5997 225.741 22.5997C228.209 22.5997 230.45 23.0343 232.466 23.9036C234.481 24.7728 235.9 25.6213 236.722 26.4491L237.895 27.753L237.339 28.1255C237.01 27.7944 236.537 27.3805 235.92 26.8838C235.345 26.3457 234.049 25.6627 232.034 24.8349C230.019 23.9657 227.88 23.531 225.618 23.531C222.451 23.531 218.77 24.2968 214.575 25.8283C210.38 27.3184 206.576 29.0775 203.162 31.1057C199.748 33.1339 196.828 35.162 194.402 37.1902C192.016 39.2184 190.823 40.7292 190.823 41.7226C190.823 42.3021 191.523 42.5918 192.921 42.5918C197.363 42.5918 204.581 41.1431 214.575 38.2457C224.569 35.3483 234.687 31.7472 244.928 27.4425C248.259 23.1792 250.295 20.2818 251.035 18.7503C251.57 17.6328 251.837 16.6601 251.837 15.8322C251.837 12.3554 246.984 10.6169 237.278 10.6169C229.998 10.6169 222.472 11.4861 214.698 13.2246C206.966 14.963 200.118 17.2602 194.155 20.1162L193.908 19.4954C210.071 11.2999 224.219 7.20212 236.352 7.20212C241.74 7.20212 245.812 7.90577 248.567 9.31308C251.364 10.7204 252.762 12.6244 252.762 15.0251C252.762 16.598 252.228 18.3157 251.158 20.1783C250.089 21.9996 248.547 24.1933 246.532 26.7596C250.644 25.0211 254.531 23.2413 258.191 21.4201L258.5 21.9789C256.073 23.2206 251.714 25.2902 245.421 28.1876C243.982 30.0088 242.892 31.4161 242.151 32.4095C241.411 33.4029 240.671 34.5826 239.93 35.9485C239.231 37.3144 238.882 38.4527 238.882 39.3633C238.882 41.1017 240.074 41.9709 242.46 41.9709Z" fill="black"/>
<path d="M272.225 19.4954V1.11757H266.303V45.6962H272.225V24.7107H295.792V45.6962H301.714V1.11757H295.792V19.4954H272.225Z" fill="black"/>
<path d="M318.184 37.1902V1.11757H312.262V45.6962H319.109L341.627 9.43725H341.75V45.6962H347.673V1.11757H340.825L318.307 37.1902H318.184Z" fill="black"/>
<path d="M387.216 26.7596V45.6962H393.138V1.11757H374.815C374.137 1.11757 373.273 1.11757 372.348 1.17966C371.422 1.17966 370.435 1.24175 369.448 1.36592C368.461 1.42801 367.474 1.61427 366.487 1.86262C365.5 2.11097 364.636 2.4214 363.896 2.85601C363.217 3.22854 362.539 3.78732 361.86 4.40819C361.181 5.02906 360.565 5.8362 360.071 6.70542C359.516 7.63673 359.084 8.63012 358.775 9.80978C358.467 10.9273 358.282 12.2312 358.282 13.6592C358.282 15.646 358.59 17.2602 359.146 18.5641C359.701 19.8058 360.318 20.8613 361.181 21.6684C361.922 22.4135 362.724 23.0344 363.649 23.469L365.87 24.4003C364.451 24.8349 363.402 25.3937 362.6 26.0145C361.737 26.6354 361.12 27.3805 360.688 28.1876C360.256 28.9947 360.009 29.8639 359.824 30.7952L359.454 33.7133L358.961 39.7979C358.837 40.6671 358.775 41.4122 358.652 42.033C358.467 42.6539 358.344 43.1506 358.159 43.6473C357.973 44.0819 357.727 44.4544 357.542 44.827C357.357 45.1374 357.11 45.4478 356.863 45.6962H363.649C363.896 45.2616 364.019 44.827 364.143 44.4544L364.513 43.2748C364.575 42.9022 364.698 42.4055 364.76 41.9089C364.821 41.4742 364.883 40.9155 364.883 40.3567L365.191 35.5139C365.253 34.2721 365.377 33.2787 365.562 32.4716C365.685 31.6024 365.932 30.9194 366.179 30.3606C366.425 29.8019 366.734 29.3052 367.042 28.9326C367.412 28.5601 367.783 28.2497 368.276 27.9392C368.646 27.6909 369.078 27.5046 369.448 27.3184C369.88 27.1942 370.374 27.07 370.991 26.9458C371.546 26.8838 372.286 26.8217 373.088 26.7596H376.173H387.216ZM372.039 6.39498H387.216V21.7305H374.445H372.163C371.484 21.7305 370.805 21.6684 370.189 21.6063C369.572 21.4822 369.016 21.358 368.523 21.1096C367.968 20.9234 367.412 20.6129 366.919 20.2404C366.302 19.8058 365.808 19.3091 365.438 18.7503C365.13 18.2536 364.821 17.6948 364.636 17.1361C364.389 16.5773 364.266 16.0185 364.204 15.5218C364.143 14.963 364.143 14.5284 364.143 14.0938C364.143 13.4729 364.204 12.852 364.328 12.1691C364.451 11.5482 364.636 10.9273 364.945 10.3065C365.191 9.6856 365.5 9.18891 365.932 8.63012C366.364 8.13342 366.857 7.69881 367.474 7.38838C367.906 7.14003 368.338 6.95377 368.893 6.82959C369.387 6.70542 369.88 6.58124 370.435 6.51916C370.991 6.45707 371.546 6.45707 372.039 6.39498Z" fill="black"/>
<path d="M412.272 20.2404V13.6592H405.98V20.2404H412.272ZM412.272 45.6962V39.1149H405.98V45.6962H412.272Z" fill="black"/>
<path d="M444.982 31.354H439.307C439.245 36.1347 440.787 39.9221 443.934 42.7781C447.018 45.572 451.337 47 456.827 47C461.578 47 465.711 45.9445 469.289 43.8336C472.806 41.7226 474.595 38.1836 474.595 33.2166C474.595 29.2431 473.176 26.2629 470.4 24.1519C468.734 22.9723 466.451 22.041 463.428 21.358L457.259 19.93C453.064 18.9366 450.411 18.1295 449.178 17.5086C447.388 16.5152 446.525 14.9009 446.525 12.7279C446.525 10.7411 447.265 9.00264 448.807 7.51255C450.35 6.02246 452.941 5.27741 456.457 5.27741C460.776 5.27741 463.922 6.39498 465.773 8.7543C466.76 9.99604 467.377 11.8587 467.685 14.218H473.299C473.299 9.31308 471.695 5.64994 468.487 3.4148C465.218 1.17966 461.269 0.0620904 456.642 0.0620904C451.584 0.0620904 447.697 1.30383 444.921 3.91149C442.206 6.45707 440.787 9.74769 440.787 13.7213C440.787 17.4465 442.206 20.2404 445.044 22.103C446.648 23.1585 449.424 24.1519 453.311 25.0211L459.357 26.3871C462.565 27.1321 464.971 28.0013 466.513 28.9947C467.994 30.0502 468.734 31.7886 468.734 34.21C468.734 37.4386 467.007 39.6737 463.367 40.9155C461.578 41.5984 459.48 41.9089 457.259 41.9089C452.2 41.9089 448.746 40.4188 446.71 37.5007C445.661 35.8864 445.106 33.8375 444.982 31.354Z" fill="black"/>
<path d="M504.903 1.17966L494.909 37.3765L486.58 1.17966H480.041L491.639 45.6962H497.932L508.173 8.7543L518.414 45.6962H524.706L536.304 1.17966H529.765L521.375 37.3765L511.381 1.17966H504.903Z" fill="black"/>
<path d="M554.102 31.2299V25.5799H538.987V31.2299H554.102Z" fill="black"/>
<path d="M567.014 31.354H561.338C561.276 36.1347 562.819 39.9221 565.965 42.7781C569.05 45.572 573.368 47 578.859 47C583.609 47 587.742 45.9445 591.32 43.8336C594.837 41.7226 596.626 38.1836 596.626 33.2166C596.626 29.2431 595.207 26.2629 592.431 24.1519C590.765 22.9723 588.483 22.041 585.46 21.358L579.291 19.93C575.095 18.9366 572.443 18.1295 571.209 17.5086C569.42 16.5152 568.556 14.9009 568.556 12.7279C568.556 10.7411 569.296 9.00264 570.839 7.51255C572.381 6.02246 574.972 5.27741 578.489 5.27741C582.807 5.27741 585.953 6.39498 587.804 8.7543C588.791 9.99604 589.408 11.8587 589.716 14.218H595.331C595.331 9.31308 593.727 5.64994 590.519 3.4148C587.249 1.17966 583.301 0.0620904 578.674 0.0620904C573.615 0.0620904 569.728 1.30383 566.952 3.91149C564.238 6.45707 562.819 9.74769 562.819 13.7213C562.819 17.4465 564.238 20.2404 567.076 22.103C568.68 23.1585 571.456 24.1519 575.342 25.0211L581.388 26.3871C584.596 27.1321 587.002 28.0013 588.544 28.9947C590.025 30.0502 590.765 31.7886 590.765 34.21C590.765 37.4386 589.038 39.6737 585.398 40.9155C583.609 41.5984 581.511 41.9089 579.291 41.9089C574.232 41.9089 570.777 40.4188 568.741 37.5007C567.692 35.8864 567.137 33.8375 567.014 31.354Z" fill="black"/>
<path d="M622.924 6.45707H637.854V1.17966H601.949V6.45707H616.878V45.6962H622.924V6.45707Z" fill="black"/>
<path d="M666.023 1.17966H645.542V45.6962H651.526V26.5733H665.16C667.627 26.5733 669.417 26.8838 670.589 27.4425C672.563 28.4359 673.612 30.3606 673.797 33.2787L674.167 40.6671C674.229 42.4056 674.352 43.5852 674.475 44.2061C674.599 44.827 674.722 45.3237 674.907 45.6962H682.31V44.7028C681.323 44.3303 680.706 43.3989 680.336 41.9709C680.151 41.1638 679.966 39.86 679.966 38.1836L679.719 32.2233C679.657 29.6156 679.164 27.753 678.3 26.5733C677.375 25.4558 676.079 24.5244 674.352 23.7794C676.326 22.786 677.868 21.4201 678.979 19.7437C680.028 18.0053 680.583 15.8322 680.583 13.1625C680.583 8.07134 678.547 4.53237 674.352 2.66975C672.193 1.67636 669.416 1.17966 666.023 1.17966ZM665.406 21.5443H651.526V6.3329H666.147C668.244 6.3329 669.848 6.64333 671.082 7.2642C673.365 8.38177 674.537 10.5548 674.537 13.7213C674.537 16.7015 673.673 18.7503 672.069 19.8679C670.404 20.9855 668.183 21.5443 665.406 21.5443Z" fill="black"/>
<path d="M726.48 45.6962L710.44 1.17966H703.654L686.997 45.6962H693.104L697.916 32.3474H715.437L719.879 45.6962H726.48ZM699.644 27.4425L706.738 7.7609L713.463 27.4425H699.644Z" fill="black"/>
<path d="M732.049 6.45707H757.22L730.075 40.6671V45.6962H764.931V40.4188H737.663L764.931 6.3329V1.17966H732.049V6.45707Z" fill="black"/>
<path d="M793.841 46.6275C786.644 46.6275 780.66 45.5927 775.889 43.5231C771.159 41.4122 768.794 38.8666 768.794 35.8864C768.794 34.5205 769.288 33.4443 770.275 32.6579C771.262 31.83 772.455 31.4161 773.853 31.4161C776.074 31.4161 778.171 32.4095 780.146 34.3963L779.652 34.9551C777.719 33.1753 775.807 32.2853 773.915 32.2853C772.64 32.2853 771.612 32.6372 770.83 33.3408C770.09 34.0031 769.72 34.8309 769.72 35.8243C769.72 37.1074 770.398 38.2457 771.755 39.2391C773.113 40.2325 774.902 40.9982 777.123 41.5363C779.385 42.033 781.77 42.4055 784.279 42.6539C786.788 42.9022 789.399 43.0264 792.114 43.0264C797.09 43.0264 801.738 42.6125 806.056 41.7847C810.375 40.9155 814.056 39.7979 817.099 38.432C820.184 37.0661 822.96 35.4725 825.428 33.6513C827.895 31.7886 829.89 29.9053 831.412 28.0013C832.975 26.0973 834.27 24.1519 835.298 22.1651C836.327 20.1369 837.046 18.3157 837.458 16.7015C837.869 15.0458 838.075 13.535 838.075 12.1691C838.075 9.76838 837.334 8.56803 835.854 8.56803C834.867 8.56803 833.715 9.14751 832.399 10.3065C831.083 11.424 829.746 12.8314 828.389 14.5284C827.073 16.2255 825.448 18.0674 823.515 20.0542C821.623 22.041 819.649 23.8829 817.593 25.5799C815.536 27.277 813.048 28.705 810.128 29.8639C807.249 30.9815 804.226 31.5403 801.059 31.5403C797.029 31.5403 793.512 30.7539 790.51 29.181C787.508 27.5667 786.006 25.642 786.006 23.4069C786.006 22.3721 786.397 21.4408 787.179 20.6129C787.96 19.7437 788.885 19.0401 789.955 18.502C791.065 17.9225 792.176 17.3637 793.286 16.8256C794.396 16.2875 795.342 15.6667 796.124 14.963C796.905 14.218 797.296 13.3901 797.296 12.4795C797.296 10.8239 795.877 9.99604 793.039 9.99604C790.201 9.99604 786.993 10.6583 783.415 11.9828C779.837 13.3074 776.465 14.9216 773.298 16.8256L772.928 16.3289C774.408 15.17 776.033 14.011 777.801 12.852C779.57 11.6931 781.914 10.472 784.834 9.18891C787.795 7.86438 790.345 7.20212 792.484 7.20212C794.376 7.20212 795.795 7.67812 796.741 8.63012C797.728 9.54073 798.221 10.6583 798.221 11.9828C798.221 13.1418 797.831 14.1973 797.049 15.1493C796.268 16.0599 795.322 16.8049 794.211 17.3844C793.142 17.9639 792.052 18.5227 790.942 19.0608C789.831 19.5989 788.885 20.199 788.104 20.8613C787.323 21.5236 786.932 22.2686 786.932 23.0964C786.932 24.7107 788.207 26.0145 790.757 27.0079C793.307 27.9599 796.453 28.4359 800.196 28.4359C804.473 28.4359 808.38 27.7323 811.917 26.325C815.495 24.8763 818.395 23.1378 820.616 21.1096C822.837 19.0815 824.831 17.0533 826.6 15.0251C828.368 12.9969 830.013 11.2792 831.535 9.87186C833.098 8.42316 834.538 7.69881 835.854 7.69881C837.951 7.69881 839 9.27169 839 12.4174C839 14.694 838.465 17.2602 837.396 20.1162C836.368 22.9309 834.661 25.9111 832.276 29.0568C829.89 32.2026 827.011 35.0793 823.639 37.6869C820.266 40.2532 815.968 42.3849 810.745 44.0819C805.563 45.779 799.928 46.6275 793.841 46.6275Z" fill="black"/>
</svg>
