<svg width="16" height="18" viewBox="0 0 16 18" fill="none" xmlns="http://www.w3.org/2000/svg">
<path d="M11.6798 17.1206C15.3887 15.7671 16.9092 12.48 15.4415 8.44577L14.712 6.45944C14.0001 4.49948 12.6202 3.66452 11.003 4.21823C10.5548 3.67331 9.878 3.49753 9.15729 3.7612C8.91999 3.84909 8.70905 3.96335 8.51569 4.11277C8.03229 3.53269 7.32038 3.32175 6.5821 3.59421C6.4239 3.64694 6.27448 3.73484 6.12507 3.8403L5.22858 1.37058C4.8155 0.228 3.77839 -0.255399 2.70612 0.13132C1.61628 0.526828 1.12409 1.56394 1.54597 2.70652L3.91901 9.228C3.93659 9.28073 3.9278 9.31589 3.88386 9.33347C3.85749 9.34226 3.82233 9.33347 3.79597 9.3071L2.94343 8.38425C2.42487 7.88327 1.80085 7.73386 1.1944 7.95359C0.289129 8.28757 -0.247003 9.1489 0.113348 10.1333C0.210028 10.4145 0.394598 10.7485 0.614325 11.0122L3.60261 14.6069C5.89655 17.3755 8.63874 18.228 11.6798 17.1206ZM11.2051 15.6792C8.86725 16.5317 6.73151 16.0483 4.71882 13.6665L1.70417 10.1245C1.62507 10.0278 1.56354 9.93991 1.5196 9.81687C1.43171 9.56198 1.53718 9.28073 1.836 9.17527C2.07331 9.08737 2.27546 9.17527 2.46003 9.37741L4.5694 11.4868C4.91218 11.8384 5.24616 11.8823 5.57136 11.768C5.95808 11.6186 6.14265 11.2143 5.98444 10.7661L2.84675 2.13523C2.73249 1.82761 2.86432 1.52878 3.16315 1.42331C3.47077 1.31784 3.75202 1.45847 3.86628 1.76609L6.07233 7.82175C6.19538 8.15573 6.57331 8.31394 6.90729 8.19968C7.23249 8.07663 7.40827 7.71628 7.28522 7.3823L6.503 5.23777C6.61725 5.1323 6.76667 5.03562 6.91608 4.98288C7.27643 4.85105 7.58405 5.00925 7.72468 5.38718L8.43659 7.33835C8.55964 7.68112 8.92878 7.83054 9.25397 7.70749C9.57038 7.59323 9.76374 7.25046 9.64069 6.8989L9.09577 5.40476C9.20124 5.29929 9.35065 5.20261 9.50007 5.14987C9.86042 5.01804 10.168 5.17624 10.3087 5.55417L10.7745 6.84616C10.9063 7.19773 11.2842 7.33835 11.6094 7.22409C11.9346 7.10984 12.128 6.75827 11.9962 6.40671L11.6973 5.58054C12.3565 5.34323 12.963 5.853 13.3848 7.00437L14.0352 8.79734C15.2393 12.0932 14.1407 14.6069 11.2051 15.6792Z" fill="#57585A"/>
</svg>
