<svg width="18" height="18" viewBox="0 0 18 18" fill="none" xmlns="http://www.w3.org/2000/svg">
<path d="M9 8.1C8.76131 8.1 8.53239 8.19482 8.36361 8.3636C8.19482 8.53238 8.1 8.7613 8.1 9V12.6C8.1 12.8387 8.19482 13.0676 8.36361 13.2364C8.53239 13.4052 8.76131 13.5 9 13.5C9.2387 13.5 9.46762 13.4052 9.6364 13.2364C9.80518 13.0676 9.9 12.8387 9.9 12.6V9C9.9 8.7613 9.80518 8.53238 9.6364 8.3636C9.46762 8.19482 9.2387 8.1 9 8.1ZM9.342 4.572C9.12289 4.48198 8.87712 4.48198 8.658 4.572C8.54753 4.61483 8.4466 4.67906 8.361 4.761C8.2815 4.84848 8.21758 4.94893 8.172 5.058C8.12162 5.16481 8.09696 5.28194 8.1 5.4C8.09932 5.51844 8.12202 5.63586 8.16681 5.74551C8.2116 5.85517 8.27759 5.9549 8.361 6.039C8.44848 6.1185 8.54893 6.18242 8.658 6.228C8.79435 6.28401 8.94237 6.30568 9.08905 6.2911C9.23574 6.27652 9.37659 6.22613 9.49924 6.14436C9.62189 6.06259 9.72258 5.95195 9.79246 5.82216C9.86234 5.69237 9.89927 5.5474 9.9 5.4C9.89669 5.16171 9.80346 4.93347 9.639 4.761C9.55341 4.67906 9.45248 4.61483 9.342 4.572ZM9 0C7.21997 0 5.47991 0.527841 3.99987 1.51677C2.51983 2.50571 1.36628 3.91131 0.685088 5.55585C0.00389956 7.20038 -0.17433 9.00998 0.172936 10.7558C0.520203 12.5016 1.37737 14.1053 2.63604 15.364C3.89471 16.6226 5.49836 17.4798 7.24419 17.8271C8.99002 18.1743 10.7996 17.9961 12.4442 17.3149C14.0887 16.6337 15.4943 15.4802 16.4832 14.0001C17.4722 12.5201 18 10.78 18 9C18 7.8181 17.7672 6.64778 17.3149 5.55585C16.8626 4.46392 16.1997 3.47177 15.364 2.63604C14.5282 1.80031 13.5361 1.13738 12.4442 0.685084C11.3522 0.232792 10.1819 0 9 0ZM9 16.2C7.57598 16.2 6.18393 15.7777 4.9999 14.9866C3.81586 14.1954 2.89302 13.0709 2.34807 11.7553C1.80312 10.4397 1.66054 8.99201 1.93835 7.59535C2.21616 6.19868 2.9019 4.91577 3.90883 3.90883C4.91577 2.90189 6.19869 2.21616 7.59535 1.93835C8.99201 1.66053 10.4397 1.80312 11.7553 2.34807C13.0709 2.89302 14.1954 3.81586 14.9866 4.99989C15.7777 6.18393 16.2 7.57597 16.2 9C16.2 10.9096 15.4414 12.7409 14.0912 14.0912C12.7409 15.4414 10.9096 16.2 9 16.2Z" fill="#F7A491"/>
</svg>
