<svg width="51" height="51" viewBox="0 0 51 51" fill="none" xmlns="http://www.w3.org/2000/svg">
<path fill-rule="evenodd" clip-rule="evenodd" d="M49.441 17.609C53.9826 30.6479 47.0943 44.8995 34.0554 49.4412C21.0166 53.9828 6.76493 47.0945 2.2233 34.0556C-2.3183 21.0168 4.57004 6.76508 17.6088 2.22348C30.6477 -2.31815 44.8994 4.57021 49.441 17.609ZM18.1355 24.003C20.3568 23.2293 21.5304 20.8012 20.7567 18.5797C19.9829 16.3584 17.5548 15.1847 15.3335 15.9584C13.112 16.7322 11.9384 19.1604 12.7121 21.3817C13.4859 23.6032 15.914 24.7768 18.1355 24.003ZM30.7268 19.6173C32.9483 18.8435 34.1219 16.4154 33.3481 14.1939C32.5744 11.9726 30.1462 10.7989 27.9247 11.5727C25.7035 12.3464 24.5299 14.7746 25.3036 16.9959C26.0774 19.2174 28.5055 20.391 30.7268 19.6173ZM28.8699 33.9908C23.4613 35.8747 17.5494 33.0173 15.6656 27.6087L11.4684 29.0706C14.1597 36.7972 22.6053 40.8793 30.3319 38.188C38.0587 35.4967 42.1405 27.0511 39.4493 19.3245L35.252 20.7864C37.1359 26.195 34.2787 32.1068 28.8699 33.9908Z" fill="#FED431"/>
</svg>
