<svg width="79" height="94" viewBox="0 0 79 94" fill="none" xmlns="http://www.w3.org/2000/svg">
<path d="M7.49782 6.83608C14.894 2.33856 23.3931 -0.0182084 32.0492 0.028132C40.7053 0.0744762 49.1788 2.52211 56.5263 7.09857C63.8739 11.675 69.8072 18.2007 73.666 25.9493C77.5247 33.6979 79.1574 42.3654 78.3823 50.9868C77.6072 59.6083 74.4547 67.8455 69.2758 74.7816C64.0969 81.7177 57.0947 87.0804 49.0487 90.273C41.0027 93.4655 32.2285 94.3625 23.703 92.8642C15.1774 91.3658 7.23487 87.5309 0.759545 81.7863L14.8025 65.9571C18.3482 69.1027 22.6973 71.2026 27.3657 72.023C32.0341 72.8435 36.8386 72.3523 41.2444 70.6042C45.6502 68.856 49.4844 65.9195 52.3203 62.1215C55.1561 58.3235 56.8823 53.813 57.3068 49.0921C57.7312 44.3712 56.8372 39.6251 54.7242 35.3822C52.6113 31.1392 49.3623 27.5659 45.339 25.0599C41.3157 22.554 36.6758 21.2137 31.9359 21.1884C27.1961 21.163 22.5421 22.4535 18.4922 24.9162L7.49782 6.83608Z" fill="#E54646"/>
</svg>
