<svg width="720" height="639" viewBox="0 0 720 639" fill="none" xmlns="http://www.w3.org/2000/svg">
<path d="M49.7996 0H50.9996V720H49.7996V0Z" fill="#E5E5E5"/>
<path d="M18.5996 0H19.7996V720H18.5996V0Z" fill="#E5E5E5"/>
<path d="M80.9996 0H82.1996V720H80.9996V0Z" fill="#E5E5E5"/>
<path d="M112.2 0H113.4V720H112.2V0Z" fill="#E5E5E5"/>
<path d="M143.4 0H144.6V720H143.4V0Z" fill="#E5E5E5"/>
<path d="M174.6 0H175.8V720H174.6V0Z" fill="#E5E5E5"/>
<path d="M361.8 0H363V720H361.8V0Z" fill="#E5E5E5"/>
<path d="M330.6 0H331.8V720H330.6V0Z" fill="#E5E5E5"/>
<path d="M299.4 0H300.6V720H299.4V0Z" fill="#E5E5E5"/>
<path d="M268.2 0H269.4V720H268.2V0Z" fill="#E5E5E5"/>
<path d="M237 0H238.2V720H237V0Z" fill="#E5E5E5"/>
<path d="M205.8 0H207V720H205.8V0Z" fill="#E5E5E5"/>
<path d="M424.2 0H425.4V720H424.2V0Z" fill="#E5E5E5"/>
<path d="M393 0H394.2V720H393V0Z" fill="#E5E5E5"/>
<path d="M455.4 0H456.6V720H455.4V0Z" fill="#E5E5E5"/>
<path d="M486.6 0H487.8V720H486.6V0Z" fill="#E5E5E5"/>
<path d="M517.8 0H519V720H517.8V0Z" fill="#E5E5E5"/>
<path d="M549 0H550.2V720H549V0Z" fill="#E5E5E5"/>
<path d="M705 0H706.2V720H705V0Z" fill="#E5E5E5"/>
<path d="M673.8 0H675V720H673.8V0Z" fill="#E5E5E5"/>
<path d="M642.6 0H643.8V720H642.6V0Z" fill="#E5E5E5"/>
<path d="M611.4 0H612.6V720H611.4V0Z" fill="#E5E5E5"/>
<path d="M580.2 0H581.4V720H580.2V0Z" fill="#E5E5E5"/>
<path d="M0 705L1.43098e-08 703.8H720V705H0Z" fill="#E5E5E5"/>
<path d="M3.72056e-07 673.8L3.86366e-07 672.6H720V673.8H3.72056e-07Z" fill="#E5E5E5"/>
<path d="M7.44112e-07 642.6L7.58422e-07 641.4H720V642.6H7.44112e-07Z" fill="#E5E5E5"/>
<path d="M1.11617e-06 611.4L1.13048e-06 610.2H720V611.4H1.11617e-06Z" fill="#E5E5E5"/>
<path d="M1.48823e-06 580.2L1.50254e-06 579H720V580.2H1.48823e-06Z" fill="#E5E5E5"/>
<path d="M3.72056e-06 393L3.73487e-06 391.8H720V393H3.72056e-06Z" fill="#E5E5E5"/>
<path d="M3.34851e-06 424.2L3.36282e-06 423H720V424.2H3.34851e-06Z" fill="#E5E5E5"/>
<path d="M2.97645e-06 455.4L2.99076e-06 454.2H720V455.4H2.97645e-06Z" fill="#E5E5E5"/>
<path d="M2.60439e-06 486.6L2.6187e-06 485.4H720V486.6H2.60439e-06Z" fill="#E5E5E5"/>
<path d="M2.23234e-06 517.8L2.24665e-06 516.6H720V517.8H2.23234e-06Z" fill="#E5E5E5"/>
<path d="M1.86028e-06 549L1.87459e-06 547.8H720V549H1.86028e-06Z" fill="#E5E5E5"/>
<path d="M4.46468e-06 330.6L4.47899e-06 329.4H720V330.6H4.46468e-06Z" fill="#E5E5E5"/>
<path d="M4.09262e-06 361.8L4.10693e-06 360.6H720V361.8H4.09262e-06Z" fill="#E5E5E5"/>
<path d="M4.83673e-06 299.4L4.85104e-06 298.2H720V299.4H4.83673e-06Z" fill="#E5E5E5"/>
<path d="M5.20879e-06 268.2L5.2231e-06 267H720V268.2H5.20879e-06Z" fill="#E5E5E5"/>
<path d="M5.58084e-06 237L5.59515e-06 235.8H720V237H5.58084e-06Z" fill="#E5E5E5"/>
<path d="M5.9529e-06 205.8L5.96721e-06 204.6H720V205.8H5.9529e-06Z" fill="#E5E5E5"/>
<path d="M8.18524e-06 18.6L8.19955e-06 17.4L720 17.4V18.6L8.18524e-06 18.6Z" fill="#E5E5E5"/>
<path d="M7.81318e-06 49.8L7.82749e-06 48.6L720 48.6V49.8L7.81318e-06 49.8Z" fill="#E5E5E5"/>
<path d="M7.44113e-06 81L7.45544e-06 79.8L720 79.8V81L7.44113e-06 81Z" fill="#E5E5E5"/>
<path d="M7.06907e-06 112.2L7.08338e-06 111L720 111V112.2L7.06907e-06 112.2Z" fill="#E5E5E5"/>
<path d="M6.69701e-06 143.4L6.71132e-06 142.2H720V143.4H6.69701e-06Z" fill="#E5E5E5"/>
<path d="M6.32496e-06 174.6L6.33927e-06 173.4H720V174.6H6.32496e-06Z" fill="#E5E5E5"/>
</svg>
