<svg width="155" height="155" viewBox="0 0 155 155" fill="none" xmlns="http://www.w3.org/2000/svg">
<path d="M153.263 61.6809C156.942 79.19 154.436 97.4331 146.172 113.302C137.908 129.17 124.398 141.683 107.943 148.707C91.4879 155.731 73.1065 156.832 55.9305 151.823C38.7546 146.814 23.8469 136.004 13.7476 121.235C3.64828 106.467 -1.01783 88.6533 0.544331 70.8302C2.10649 53.007 9.80026 36.2769 22.3147 23.4904C34.8292 10.7039 51.39 2.65227 69.1755 0.707284C86.9609 -1.2377 104.871 3.04435 119.853 12.8238L104.068 37.0062C94.6805 30.8786 83.4588 28.1955 72.3148 29.4142C61.1709 30.6329 50.7942 35.6779 42.9529 43.6896C35.1117 51.7013 30.2909 62.184 29.3121 73.3516C28.3333 84.5192 31.257 95.6806 37.585 104.934C43.913 114.188 53.2538 120.961 64.0158 124.1C74.7779 127.238 86.2953 126.548 96.6056 122.147C106.916 117.746 115.381 109.906 120.559 99.9633C125.737 90.0204 127.307 78.5897 125.002 67.6188L153.263 61.6809Z" fill="#FED431"/>
</svg>
