<svg width="201" height="201" viewBox="0 0 201 201" fill="none" xmlns="http://www.w3.org/2000/svg">
<path d="M187.701 52.2621C198.847 72.4506 202.648 95.8793 198.456 118.556C194.265 141.233 182.34 161.755 164.714 176.625C147.088 191.496 124.851 199.794 101.792 200.107C78.7329 200.42 56.2788 192.728 38.2555 178.342C20.2322 163.956 7.75475 143.765 2.94919 121.21C-1.85637 98.6554 1.30729 75.1321 11.9011 54.6485C22.4949 34.1648 39.8635 17.9881 61.0473 8.87467C82.2311 -0.238761 105.92 -1.72505 128.076 4.66905L117.756 40.4317C103.873 36.4253 89.0303 37.3566 75.757 43.0668C62.4837 48.7771 51.601 58.913 44.9631 71.7476C38.3253 84.5822 36.343 99.3213 39.3541 113.454C42.3651 127.586 50.1832 140.237 61.4762 149.251C72.7692 158.265 86.8384 163.085 101.287 162.889C115.735 162.693 129.668 157.493 140.712 148.176C151.756 138.858 159.228 126 161.854 111.791C164.481 97.5819 162.099 82.9021 155.115 70.2524L187.701 52.2621Z" fill="#FED431"/>
</svg>
