<svg width="92" height="87" viewBox="0 0 92 87" fill="none" xmlns="http://www.w3.org/2000/svg">
<path d="M66.7625 0.284415C74.2343 4.1907 80.4755 10.0939 84.7913 17.3369C89.1072 24.5798 91.3283 32.8784 91.2075 41.3089C91.0867 49.7394 88.6287 57.9709 84.1071 65.0873C79.5855 72.2036 73.1777 77.9255 65.597 81.6161C58.0164 85.3067 49.5602 86.8212 41.1698 85.9909C32.7795 85.1606 24.7842 82.0181 18.0739 76.9133C11.3635 71.8085 6.20153 64.9417 3.16242 57.0771C0.123302 49.2126 -0.673669 40.6589 0.860217 32.3683L21.127 36.1179C20.2871 40.6577 20.7235 45.3414 22.3876 49.6479C24.0518 53.9543 26.8784 57.7144 30.5528 60.5097C34.2271 63.3049 38.6052 65.0257 43.1995 65.4803C47.7939 65.935 52.4243 65.1057 56.5753 63.0848C60.7263 61.064 64.235 57.9308 66.7109 54.034C69.1868 50.1373 70.5328 45.6299 70.5989 41.0136C70.6651 36.3973 69.4488 31.8532 67.0856 27.8871C64.7223 23.921 61.3048 20.6886 57.2134 18.5496L66.7625 0.284415Z" fill="#E54646"/>
</svg>
