<svg width="20" height="20" viewBox="0 0 20 20" fill="none" xmlns="http://www.w3.org/2000/svg">
<path d="M6.49996 1.66663H13.5C16.1666 1.66663 18.3333 3.83329 18.3333 6.49996V13.5C18.3333 14.7818 17.8241 16.0112 16.9176 16.9176C16.0112 17.8241 14.7818 18.3333 13.5 18.3333H6.49996C3.83329 18.3333 1.66663 16.1666 1.66663 13.5V6.49996C1.66663 5.21808 2.17585 3.9887 3.08228 3.08228C3.9887 2.17585 5.21808 1.66663 6.49996 1.66663ZM6.33329 3.33329C5.53764 3.33329 4.77458 3.64936 4.21197 4.21197C3.64936 4.77458 3.33329 5.53764 3.33329 6.33329V13.6666C3.33329 15.325 4.67496 16.6666 6.33329 16.6666H13.6666C14.4623 16.6666 15.2253 16.3506 15.7879 15.7879C16.3506 15.2253 16.6666 14.4623 16.6666 13.6666V6.33329C16.6666 4.67496 15.325 3.33329 13.6666 3.33329H6.33329ZM14.375 4.58329C14.6512 4.58329 14.9162 4.69304 15.1115 4.88839C15.3069 5.08374 15.4166 5.34869 15.4166 5.62496C15.4166 5.90123 15.3069 6.16618 15.1115 6.36153C14.9162 6.55688 14.6512 6.66663 14.375 6.66663C14.0987 6.66663 13.8337 6.55688 13.6384 6.36153C13.443 6.16618 13.3333 5.90123 13.3333 5.62496C13.3333 5.34869 13.443 5.08374 13.6384 4.88839C13.8337 4.69304 14.0987 4.58329 14.375 4.58329ZM9.99996 5.83329C11.105 5.83329 12.1648 6.27228 12.9462 7.05368C13.7276 7.83508 14.1666 8.89489 14.1666 9.99996C14.1666 11.105 13.7276 12.1648 12.9462 12.9462C12.1648 13.7276 11.105 14.1666 9.99996 14.1666C8.89489 14.1666 7.83508 13.7276 7.05368 12.9462C6.27228 12.1648 5.83329 11.105 5.83329 9.99996C5.83329 8.89489 6.27228 7.83508 7.05368 7.05368C7.83508 6.27228 8.89489 5.83329 9.99996 5.83329ZM9.99996 7.49996C9.33692 7.49996 8.70103 7.76335 8.23219 8.23219C7.76335 8.70103 7.49996 9.33692 7.49996 9.99996C7.49996 10.663 7.76335 11.2989 8.23219 11.7677C8.70103 12.2366 9.33692 12.5 9.99996 12.5C10.663 12.5 11.2989 12.2366 11.7677 11.7677C12.2366 11.2989 12.5 10.663 12.5 9.99996C12.5 9.33692 12.2366 8.70103 11.7677 8.23219C11.2989 7.76335 10.663 7.49996 9.99996 7.49996Z" fill="white"/>
</svg>
