<svg width="186" height="186" viewBox="0 0 186 186" fill="none" xmlns="http://www.w3.org/2000/svg">
<path d="M8.55004 130.362C-0.137336 110.775 -1.76411 88.7803 3.94692 68.1275C9.65794 47.4745 22.3534 29.4408 39.8701 17.0989C57.3869 4.75705 78.6411 -1.12931 100.011 0.442797C121.382 2.0149 141.546 10.9482 157.068 25.7206C172.59 40.493 182.509 60.1904 185.137 81.4567C187.764 102.723 182.936 124.242 171.476 142.348C160.015 160.454 142.632 174.026 122.287 180.751C101.941 187.477 79.8937 186.94 59.9 179.232L72.341 146.961C84.8686 151.791 98.6832 152.127 111.431 147.913C124.179 143.699 135.071 135.195 142.252 123.85C149.433 112.506 152.458 99.0222 150.811 85.6972C149.165 72.3723 142.95 60.0303 133.224 50.7743C123.498 41.5182 110.864 35.9208 97.4738 34.9358C84.0837 33.9508 70.7664 37.639 59.7908 45.3721C48.8152 53.1053 40.8605 64.4048 37.2821 77.3454C33.7037 90.2861 34.723 104.067 40.1663 116.34L8.55004 130.362Z" fill="#E54646"/>
</svg>
