<svg width="130" height="129" viewBox="0 0 130 129" fill="none" xmlns="http://www.w3.org/2000/svg">
<path d="M126.878 46.9898C130.925 61.3314 129.874 76.6327 123.905 90.2866C117.935 103.94 107.416 115.102 94.1394 121.869C80.8629 128.637 65.6506 130.591 51.0945 127.4C36.5384 124.209 23.5391 116.069 14.3116 104.368C5.0841 92.6671 0.199262 78.1284 0.489416 63.2294C0.779571 48.3304 6.22677 33.993 15.9029 22.66C25.579 11.327 38.8853 3.69967 53.5546 1.0776C68.2239 -1.54446 83.3486 1.00097 96.3515 8.28019L84.6023 29.2678C76.455 24.7068 66.9782 23.1119 57.7868 24.7549C48.5954 26.3978 40.2579 31.1769 34.1951 38.2779C28.1323 45.3789 24.7192 54.3624 24.5374 63.6977C24.3556 73.0331 27.4163 82.1427 33.1981 89.4743C38.9798 96.806 47.1248 101.906 56.2453 103.906C65.3659 105.905 74.8975 104.68 83.2163 100.44C91.535 96.1998 98.1261 89.2063 101.867 80.6511C105.607 72.096 106.265 62.5085 103.729 53.5224L126.878 46.9898Z" fill="#FED431"/>
</svg>
