<?xml version="1.0" encoding="UTF-8"?> <svg xmlns="http://www.w3.org/2000/svg" width="531" height="527" viewBox="0 0 531 527" fill="none"> <path fill-rule="evenodd" clip-rule="evenodd" d="M1.74121 93.9881V67.2288H8.75893C8.75933 67.2279 8.75974 67.227 8.76014 67.2261C8.84469 67.0358 8.93598 66.6732 8.93598 66.0529V66.0245L10.9843 0.704902H44.5504V67.2288H50.749V93.9881H34.2837V81.8124H18.2065V93.9881H1.74121ZM9.42041 69.0415H3.55391V92.1754H16.3938V79.9997H36.0964V92.1754H48.9363V69.0415H42.7377V2.5176H12.7411L10.7487 66.0529C10.7487 67.6026 10.3059 68.5988 9.42041 69.0415ZM22.5924 69.0415H29.7871V12.4796H24.8061L22.9244 65.8315C22.9244 66.3172 22.9068 66.7853 22.8716 67.2288C22.8185 67.897 22.7254 68.5092 22.5924 69.0415ZM24.6894 67.2288H27.9744V14.2923H26.556L24.7371 65.8642C24.7364 66.3273 24.721 66.7843 24.6894 67.2288ZM68.0078 81.8124H51.5425V0.704902H68.0078V26.637L72.1306 13.9632V0.704902H88.7065V81.8124H72.1306V56.1158L68.0078 68.5592V81.8124ZM66.1951 68.2667V79.9997H53.3552V2.5176H66.1951V32.2929C66.1951 35.0262 65.9368 38.0177 65.4202 41.1158C65.3534 41.5165 65.2823 41.9189 65.2068 42.3229C65.2042 42.3371 65.2015 42.3513 65.1989 42.3655H65.4202C66.0844 39.0449 66.8592 35.7242 67.9661 32.6249L73.9433 14.2506V2.5176H86.8938V79.9997H73.9433V50.2244C73.9433 47.4911 74.2015 44.5856 74.7181 41.432C74.7857 41.0195 74.8576 40.6027 74.9341 40.1815C74.9359 40.1716 74.9377 40.1617 74.9395 40.1518H74.7181C74.2753 43.3617 73.3898 46.5717 72.2829 49.8924L66.1951 68.2667ZM92.8345 81.8124V0.704902H129.999V81.8124H113.423V15.2885H109.3V81.8124H92.8345ZM107.487 13.4758H115.235V79.9997H128.186V2.5176H94.6472V79.9997H107.487V13.4758ZM130.806 82.2551V66.786H134.279C134.842 66.786 135.019 66.6366 135.105 66.5403C135.246 66.3851 135.473 65.9843 135.569 65.0464L137.842 0.704902H171.291V81.8124H154.825V14.2923H153.408L151.588 66.9837C151.587 66.9865 151.587 66.9893 151.587 66.9921C151.468 71.694 150.167 75.6629 147.373 78.3237C144.518 81.0481 140.814 82.2551 136.271 82.2551H130.806ZM151.657 12.4796L149.775 66.9384C149.665 71.366 148.447 74.7973 146.123 77.0111C143.688 79.3356 140.478 80.4424 136.271 80.4424H132.619V68.5988H134.279C136.161 68.5988 137.157 67.4919 137.378 65.1674L139.592 2.5176H169.478V79.9997H156.638V12.4796H151.657ZM179.602 4.44581C182.421 1.62699 186.003 0.262146 190.403 0.262146H197.598C201.879 0.262146 205.575 1.62192 208.399 4.4458C211.213 7.25943 212.583 10.8386 212.583 15.1361V67.3812C212.583 71.7812 211.218 75.3634 208.399 78.1822C205.549 81.0319 201.836 82.2551 197.598 82.2551H190.403C186.047 82.2551 182.447 81.0272 179.602 78.1822C176.784 75.3634 175.419 71.7812 175.419 67.3812V15.1361C175.419 10.8386 176.789 7.25943 179.602 4.44581ZM191.911 66.7595C191.989 66.7733 192.11 66.786 192.285 66.786H195.606C195.793 66.786 195.908 66.7686 195.973 66.7532C195.989 66.6864 196.007 66.5691 196.007 66.385V16.1323C196.007 15.9326 195.981 15.8245 195.964 15.7743C195.914 15.7567 195.805 15.7312 195.606 15.7312H192.285C192.101 15.7312 191.984 15.7492 191.917 15.7649C191.901 15.8298 191.884 15.945 191.884 16.1323V66.385C191.884 66.56 191.897 66.6809 191.911 66.7595ZM196 15.7909C195.999 15.7911 195.996 15.7896 195.991 15.7856C195.997 15.7887 196 15.7907 196 15.7909ZM195.952 15.747C195.948 15.7417 195.947 15.7386 195.947 15.7385C195.947 15.7383 195.949 15.7409 195.952 15.747ZM231.737 81.8124H216.157V0.704902H238.845L244.127 46.2964L249.223 0.704902H271.917V81.8124H256.448V50.2906L252.325 81.8124H235.859L231.737 50.1644V81.8124ZM237.451 79.9997L230.589 27.3119C230.146 24.8767 229.814 21.4454 229.592 17.1285H229.371L229.393 17.4817C229.426 17.9854 229.457 18.4719 229.487 18.9412C229.753 23.1347 229.924 25.95 229.924 27.3119V79.9997H217.97V2.5176H237.23L243.539 56.9764C243.76 59.7437 243.982 63.175 243.982 67.1598H244.203C244.203 62.9536 244.314 59.633 244.757 56.9764L250.845 2.5176H270.104V79.9997H258.261V27.6439C258.261 27.636 258.261 27.6281 258.261 27.6201C258.261 27.6113 258.261 27.6025 258.261 27.5936C258.262 25.3405 258.343 22.6117 258.57 19.2733C258.609 18.6935 258.653 18.0952 258.702 17.4779C258.703 17.4722 258.703 17.4664 258.703 17.4606H258.482C258.218 20.802 257.954 23.6545 257.746 25.907C257.692 26.4899 257.642 27.0326 257.597 27.5332L250.734 79.9997H237.451ZM291.979 81.8124H275.514V0.704902H291.979V26.637L296.102 13.9631V0.704902H312.678V81.8124H296.102V56.1157L291.979 68.5591V81.8124ZM290.167 68.2667L296.255 49.8924C297.361 46.5717 298.247 43.3617 298.69 40.1518H298.911C298.909 40.1617 298.908 40.1716 298.906 40.1815C298.829 40.6027 298.757 41.0195 298.69 41.432C298.173 44.5856 297.915 47.4911 297.915 50.2244V79.9997H310.865V2.5176H297.915V14.2506L291.938 32.6249C290.831 35.7242 290.056 39.0449 289.392 42.3655H289.171C289.173 42.3513 289.176 42.3371 289.178 42.3229C289.254 41.9189 289.325 41.5165 289.392 41.1158C289.908 38.0178 290.167 35.0262 290.167 32.2929V2.5176H277.327V79.9997H290.167V68.2667ZM180.884 5.72758C183.319 3.29243 186.419 2.07485 190.403 2.07485H197.598C201.472 2.07485 204.682 3.29243 207.117 5.72758C209.552 8.16272 210.77 11.262 210.77 15.1361V67.3812C210.77 71.366 209.552 74.4653 207.117 76.9004C204.682 79.3356 201.472 80.4424 197.598 80.4424H190.403C186.419 80.4424 183.319 79.3356 180.884 76.9004C178.449 74.4653 177.231 71.366 177.231 67.3812V15.1361C177.231 11.262 178.449 8.16272 180.884 5.72758ZM190.071 66.385C190.071 67.9346 190.735 68.5988 192.285 68.5988H195.606C197.045 68.5988 197.819 67.9346 197.819 66.385V16.1323C197.819 14.6934 197.045 13.9185 195.606 13.9185H192.285C190.735 13.9185 190.071 14.6934 190.071 16.1323V66.385Z" fill="#CF1D20"></path> <path fill-rule="evenodd" clip-rule="evenodd" d="M219.301 526.886V500.127H226.319C226.319 500.126 226.319 500.125 226.32 500.124C226.404 499.934 226.496 499.571 226.496 498.951V498.922L228.544 433.603H262.11V500.127H268.309V526.886H251.843V514.71H235.766V526.886H219.301ZM226.98 501.939H221.113V525.073H233.953V512.897H253.656V525.073H266.496V501.939H260.297V435.415H230.301L228.308 498.951C228.308 500.5 227.865 501.497 226.98 501.939ZM240.152 501.939H247.347V445.377H242.366L240.484 498.729C240.484 499.215 240.466 499.683 240.431 500.127C240.378 500.795 240.285 501.407 240.152 501.939ZM242.249 500.127H245.534V447.19H244.116L242.297 498.762C242.296 499.225 242.281 499.682 242.249 500.127ZM285.567 514.71H269.102V433.603H285.567V459.535L289.69 446.861V433.603H306.266V514.71H289.69V489.014L285.567 501.457V514.71ZM283.755 501.164V512.897H270.915V435.415H283.755V465.191C283.755 467.924 283.496 470.916 282.98 474.014C282.913 474.414 282.842 474.817 282.766 475.221C282.764 475.235 282.761 475.249 282.758 475.263H282.98C283.644 471.943 284.419 468.622 285.526 465.523L291.503 447.148V435.415H304.453V512.897H291.503V483.122C291.503 480.389 291.761 477.483 292.278 474.33C292.345 473.917 292.417 473.5 292.494 473.079C292.495 473.069 292.497 473.059 292.499 473.05H292.278C291.835 476.259 290.949 479.469 289.843 482.79L283.755 501.164ZM310.394 514.71V433.603H347.558V514.71H330.982V448.186H326.859V514.71H310.394ZM325.047 446.374H332.795V512.897H345.745V435.415H312.207V512.897H325.047V446.374ZM348.366 515.153V499.684H351.839C352.402 499.684 352.578 499.534 352.665 499.438C352.805 499.283 353.032 498.882 353.128 497.944L355.402 433.603H388.85V514.71H372.385V447.19H370.968L369.147 499.881C369.147 499.884 369.147 499.887 369.147 499.89C369.028 504.592 367.726 508.561 364.932 511.222C362.077 513.946 358.374 515.153 353.831 515.153H348.366ZM369.217 445.377L367.335 499.836C367.224 504.264 366.007 507.695 363.682 509.909C361.247 512.233 358.037 513.34 353.831 513.34H350.178V501.497H351.839C353.72 501.497 354.716 500.39 354.938 498.065L357.152 435.415H387.038V512.897H374.198V445.377H369.217ZM397.162 437.344C399.981 434.525 403.563 433.16 407.963 433.16H415.158C419.439 433.16 423.135 434.52 425.959 437.344C428.772 440.157 430.142 443.736 430.142 448.034V500.279C430.142 504.679 428.777 508.261 425.959 511.08C423.109 513.93 419.396 515.153 415.158 515.153H407.963C403.606 515.153 400.007 513.925 397.162 511.08C394.343 508.261 392.978 504.679 392.978 500.279V448.034C392.978 443.736 394.348 440.157 397.162 437.344ZM409.47 499.657C409.549 499.671 409.67 499.684 409.845 499.684H413.165C413.353 499.684 413.468 499.666 413.533 499.651C413.548 499.584 413.566 499.467 413.566 499.283V449.03C413.566 448.83 413.541 448.722 413.523 448.672C413.473 448.654 413.365 448.629 413.165 448.629H409.845C409.66 448.629 409.543 448.647 409.476 448.663C409.461 448.728 409.444 448.843 409.444 449.03V499.283C409.444 499.458 409.456 499.579 409.47 499.657ZM413.559 448.689C413.559 448.689 413.556 448.687 413.551 448.683C413.557 448.686 413.559 448.688 413.559 448.689ZM413.512 448.645C413.508 448.639 413.506 448.636 413.507 448.636C413.507 448.636 413.509 448.639 413.512 448.645ZM449.297 514.71H433.717V433.603H456.404L461.686 479.194L466.783 433.603H489.477V514.71H474.008V483.188L469.884 514.71H453.419L449.297 483.062V514.71ZM455.011 512.897L448.148 460.21C447.705 457.774 447.373 454.343 447.152 450.026H446.93L446.953 450.38C446.985 450.883 447.016 451.37 447.046 451.839C447.313 456.032 447.484 458.848 447.484 460.21V512.897H435.53V435.415H454.789L461.099 489.874C461.32 492.641 461.541 496.073 461.541 500.058H461.763C461.763 495.851 461.873 492.531 462.316 489.874L468.404 435.415H487.664V512.897H475.82V460.542C475.82 460.534 475.82 460.526 475.82 460.518C475.82 460.509 475.82 460.5 475.82 460.491C475.821 458.238 475.902 455.509 476.13 452.171C476.169 451.591 476.213 450.993 476.262 450.376C476.262 450.37 476.263 450.364 476.263 450.358H476.042C475.778 453.7 475.514 456.552 475.306 458.805C475.252 459.388 475.202 459.93 475.156 460.431L468.293 512.897H455.011ZM509.539 514.71H493.074V433.603H509.539V459.535L513.662 446.861V433.603H530.238V514.71H513.662V489.014L509.539 501.457V514.71ZM507.726 501.164L513.814 482.79C514.921 479.469 515.807 476.259 516.249 473.05H516.471C516.469 473.059 516.467 473.069 516.465 473.079C516.389 473.5 516.317 473.917 516.249 474.33C515.733 477.483 515.474 480.389 515.474 483.122V512.897H528.425V435.415H515.474V447.148L509.497 465.523C508.39 468.622 507.616 471.943 506.951 475.263H506.73C506.733 475.249 506.735 475.235 506.738 475.221C506.814 474.817 506.885 474.414 506.951 474.014C507.468 470.916 507.726 467.924 507.726 465.191V435.415H494.886V512.897H507.726V501.164ZM398.444 438.625C400.879 436.19 403.978 434.973 407.963 434.973H415.158C419.032 434.973 422.242 436.19 424.677 438.625C427.112 441.06 428.33 444.16 428.33 448.034V500.279C428.33 504.264 427.112 507.363 424.677 509.798C422.242 512.233 419.032 513.34 415.158 513.34H407.963C403.978 513.34 400.879 512.233 398.444 509.798C396.009 507.363 394.791 504.264 394.791 500.279V448.034C394.791 444.16 396.009 441.06 398.444 438.625ZM407.631 499.283C407.631 500.832 408.295 501.497 409.845 501.497H413.165C414.604 501.497 415.379 500.832 415.379 499.283V449.03C415.379 447.591 414.604 446.816 413.165 446.816H409.845C408.295 446.816 407.631 447.591 407.631 449.03V499.283Z" fill="#CF1D20"></path> <path fill-rule="evenodd" clip-rule="evenodd" d="M30.4122 143.235L14.8741 143.235C10.4742 143.235 6.89194 141.87 4.07313 139.051C1.22342 136.202 0.000166692 132.488 0.000166877 128.25L0.000167192 121.056C0.000167382 116.699 1.22812 113.1 4.07314 110.255C6.89194 107.436 10.4742 106.071 14.8741 106.071L67.1192 106.071C71.4167 106.071 74.9959 107.441 77.8095 110.255C80.6283 113.073 81.9932 116.656 81.9932 121.056L81.9932 128.25C81.9932 132.531 80.6334 136.227 77.8095 139.051C74.9959 141.865 71.4167 143.235 67.1192 143.235L51.0277 143.235L51.0277 126.659L66.123 126.659C66.3227 126.659 66.4308 126.634 66.481 126.616C66.4986 126.566 66.5241 126.458 66.5241 126.258L66.5241 122.937C66.5241 122.753 66.5062 122.636 66.4904 122.569C66.4255 122.554 66.3103 122.536 66.123 122.536L15.8703 122.536C15.6953 122.536 15.5744 122.549 15.4958 122.563C15.482 122.641 15.4693 122.762 15.4693 122.937L15.4693 126.258C15.4693 126.445 15.4867 126.56 15.5022 126.625C15.5689 126.641 15.6862 126.659 15.8703 126.659L30.4122 126.659L30.4122 143.235ZM66.4644 126.652C66.4642 126.652 66.4658 126.648 66.4697 126.643C66.4666 126.649 66.4646 126.652 66.4644 126.652ZM66.5082 126.605C66.5135 126.601 66.5166 126.599 66.5168 126.599C66.5171 126.6 66.5144 126.601 66.5082 126.605ZM52.8404 141.422L52.8404 128.472L66.123 128.472C67.562 128.472 68.3368 127.697 68.3368 126.258L68.3368 122.937C68.3368 121.388 67.562 120.723 66.123 120.723L15.8703 120.723C14.3207 120.723 13.6566 121.388 13.6566 122.937L13.6566 126.258C13.6566 127.697 14.3207 128.472 15.8703 128.472L28.5995 128.472L28.5995 141.422L14.8741 141.422C10.8893 141.422 7.79005 140.205 5.3549 137.77C2.91975 135.334 1.81287 132.124 1.81287 128.25L1.81287 121.056C1.81287 117.071 2.91975 113.971 5.3549 111.536C7.79005 109.101 10.8893 107.884 14.8741 107.884L67.1192 107.884C70.9933 107.884 74.0926 109.101 76.5277 111.536C78.9629 113.971 80.1805 117.071 80.1805 121.056L80.1805 128.25C80.1805 132.124 78.9629 135.334 76.5277 137.77C74.0926 140.205 70.9933 141.422 67.1192 141.422L52.8404 141.422ZM0.442921 175.685L0.442923 146.822L81.5504 146.822L81.5504 175.685L66.9668 175.685L66.9668 163.288L48.2331 163.288L48.2331 174.578L33.7602 174.578L33.7602 163.288L15.0265 163.288L15.0265 175.685L0.442921 175.685ZM13.2138 173.872L2.25562 173.872L2.25562 148.635L79.7377 148.635L79.7377 173.872L68.7795 173.872L68.7795 161.475L46.4204 161.475L46.4204 172.765L35.5729 172.765L35.5729 161.475L13.2138 161.475L13.2138 173.872ZM0.442921 195.068L0.442921 178.602L81.5504 178.602L81.5504 200.782C81.5504 205.063 80.1906 208.759 77.3668 211.583C76.2219 212.727 74.9511 213.632 73.5508 214.304L81.5504 214.304L81.5504 249.807L66.9668 249.807L66.9668 240.288L0.442919 240.288L0.442919 223.823L66.9668 223.823L66.9668 215.762C66.8339 215.765 66.7002 215.766 66.5657 215.766L47.5273 215.766C43.1273 215.766 39.5451 214.401 36.7263 211.583C33.8766 208.733 32.6533 205.02 32.6533 200.782L32.6533 195.068L0.442921 195.068ZM2.25562 193.255L2.25562 180.415L79.7377 180.415L79.7377 200.782C79.7377 204.656 78.5201 207.866 76.085 210.301C73.6498 212.736 70.5505 213.954 66.5657 213.954L47.5273 213.954C43.5425 213.954 40.4432 212.736 38.0081 210.301C35.5729 207.866 34.466 204.656 34.466 200.782L34.466 193.255L2.25562 193.255ZM66.9237 199.147C66.9414 199.097 66.9668 198.989 66.9668 198.789L66.9668 195.068L47.1262 195.068L47.1262 198.789C47.1262 198.977 47.1437 199.092 47.1591 199.157C47.2259 199.172 47.3431 199.19 47.5273 199.19L66.5657 199.19C66.7655 199.19 66.8736 199.165 66.9237 199.147ZM66.9072 199.183C66.9069 199.183 66.9085 199.18 66.9124 199.175C66.9094 199.181 66.9074 199.183 66.9072 199.183ZM66.951 199.136C66.9563 199.132 66.9594 199.13 66.9596 199.131C66.9598 199.131 66.9572 199.133 66.951 199.136ZM68.7795 216.116L79.7377 216.116L79.7377 247.995L68.7795 247.995L68.7795 238.475L2.25562 238.475L2.25562 225.636L68.7795 225.636L68.7795 216.116ZM0.442917 267.058L0.442918 250.593L81.5504 250.593L81.5504 267.058L55.6183 267.058L68.2921 271.181L81.5504 271.181L81.5504 287.757L0.442917 287.757L0.442917 271.181L26.1395 271.181L13.6961 267.058L0.442917 267.058ZM13.9886 265.246L2.25562 265.246L2.25562 252.406L79.7377 252.406L79.7377 265.246L49.9624 265.246C47.2292 265.246 44.2376 264.987 41.1396 264.471C40.7389 264.404 40.3364 264.333 39.9325 264.257C39.9182 264.255 39.904 264.252 39.8898 264.249L39.8898 264.471C43.2104 265.135 46.5311 265.91 49.6304 267.017L68.0047 272.994L79.7377 272.994L79.7377 285.944L2.25562 285.944L2.25562 272.994L32.0309 272.994C34.7642 272.994 37.6696 273.252 40.8232 273.769C41.2358 273.836 41.6526 273.908 42.0738 273.985C42.0837 273.986 42.0936 273.988 42.1035 273.99L42.1035 273.769C38.8936 273.326 35.6836 272.44 32.3629 271.334L13.9886 265.246ZM79.7377 313.733L79.7377 326.683L72.2109 326.683L72.2109 333.546C72.2109 337.42 70.9933 340.63 68.5581 343.065C66.123 345.5 62.913 346.718 59.0389 346.718L22.9544 346.718C18.9696 346.718 15.8703 345.5 13.4352 343.065C11 340.63 9.78245 337.42 9.78245 333.546L9.78245 326.683L2.25561 326.683L2.25561 313.733L9.78245 313.733L9.78245 306.87C9.78245 302.885 11 299.786 13.4352 297.351C15.8703 294.915 18.9696 293.698 22.9544 293.698L59.0389 293.698C62.913 293.698 66.123 294.915 68.5581 297.351C70.9933 299.786 72.2109 302.885 72.2109 306.87L72.2109 313.733L79.7377 313.733ZM74.0236 311.92L74.0236 306.87C74.0236 302.47 72.6587 298.888 69.8399 296.069C67.016 293.245 63.3201 291.885 59.0389 291.885L22.9544 291.885C18.5544 291.885 14.9722 293.25 12.1534 296.069C9.33459 298.888 7.96975 302.47 7.96975 306.87L7.96975 311.92L0.442916 311.92L0.442915 328.496L7.96975 328.496L7.96975 333.546C7.96975 337.827 9.32951 341.523 12.1534 344.347C14.9722 347.166 18.5544 348.53 22.9544 348.53L59.0389 348.53C63.3201 348.53 67.016 347.171 69.8399 344.347C72.6638 341.523 74.0236 337.827 74.0236 333.546L74.0236 328.496L81.5504 328.496L81.5504 311.92L74.0236 311.92ZM58.4438 328.496L23.5495 328.496L23.5495 331.664C23.5495 331.851 23.567 331.967 23.5824 332.032C23.6492 332.047 23.7664 332.065 23.9506 332.065L58.0427 332.065C58.2424 332.065 58.3506 332.04 58.4007 332.022C58.4184 331.972 58.4438 331.864 58.4438 331.664L58.4438 328.496ZM58.3842 332.058C58.3838 332.058 58.3853 332.055 58.3894 332.049C58.3864 332.055 58.3845 332.058 58.3842 332.058ZM58.428 332.011C58.4334 332.007 58.4365 332.005 58.4366 332.006C58.4367 332.006 58.4341 332.008 58.428 332.011ZM58.4101 308.383C58.3452 308.368 58.23 308.35 58.0427 308.35L23.9506 308.35C23.7755 308.35 23.6547 308.363 23.5761 308.377C23.5623 308.456 23.5495 308.576 23.5495 308.752L23.5495 311.92L58.4438 311.92L58.4438 308.752C58.4438 308.567 58.4259 308.45 58.4101 308.383ZM0.442914 352.634L81.5504 352.634L81.5504 369.1L0.442913 369.1L0.442914 352.634ZM2.25561 367.287L2.25561 354.447L79.7377 354.447L79.7377 367.287L2.25561 367.287ZM81.5504 373.172L81.5504 389.637L65.5197 389.637L81.5504 393.963L81.5504 410.197L41.9916 398.132L8.15257 408.406L81.5504 417.528L81.5504 437.999L0.44291 448.079L0.44291 432.443L17.0462 430.672L17.0462 424.844L0.442911 422.962L0.442912 394.517L18.4918 389.637L0.442912 389.637L0.442913 373.172L81.5504 373.172ZM32.1416 387.825L2.25561 395.905L2.25561 408.302L41.9929 396.237L79.7377 407.749L79.7377 395.352L51.8441 387.825L79.7377 387.825L79.7377 374.985L2.25561 374.985L2.25561 387.825L32.1416 387.825ZM2.25561 421.344L18.8589 423.225L18.8589 432.302L2.25561 434.073L2.25561 446.027L79.7377 436.397L79.7377 419.13L2.25561 409.5L2.25561 421.344ZM29.8171 424.443L29.8171 431.084L54.7221 428.317C57.3786 427.985 60.6992 427.874 64.7947 427.874L64.7947 427.653C60.6992 427.653 57.3786 427.431 54.7221 427.21L54.5975 427.196L54.5817 427.194L29.8171 424.443ZM43.2883 427.763L31.6298 426.468L31.6298 429.059L43.2883 427.763ZM66.9668 442.167L81.5504 442.167L81.5504 477.67L66.9668 477.67L66.9668 468.151L0.442909 468.151L0.442909 451.686L66.9668 451.686L66.9668 442.167ZM68.7795 443.979L79.7377 443.979L79.7377 475.858L68.7795 475.858L68.7795 466.339L2.25561 466.338L2.25561 453.499L68.7795 453.499L68.7795 443.979ZM0.442908 494.921L0.442908 478.456L81.5504 478.456L81.5504 494.921L55.6183 494.921L68.2922 499.044L81.5504 499.044L81.5504 515.62L0.442907 515.62L0.442907 499.044L26.1395 499.044L13.6962 494.921L0.442908 494.921ZM13.9886 493.109L2.25561 493.109L2.25561 480.269L79.7377 480.269L79.7377 493.109L49.9624 493.109C47.2291 493.109 44.2375 492.85 41.1395 492.334C40.7388 492.267 40.3364 492.196 39.9324 492.121C39.9182 492.118 39.904 492.115 39.8898 492.113L39.8898 492.334C43.2104 492.998 46.5311 493.773 49.6304 494.88L68.0047 500.857L79.7377 500.857L79.7377 513.807L2.25561 513.807L2.25561 500.857L32.0309 500.857C34.7642 500.857 37.6697 501.115 40.8233 501.632C41.2358 501.699 41.6526 501.771 42.0737 501.848C42.0837 501.85 42.0936 501.851 42.1035 501.853L42.1035 501.632C38.8936 501.189 35.6836 500.303 32.3629 499.197L13.9886 493.109ZM66.5657 201.003C68.0047 201.003 68.7795 200.228 68.7795 198.789L68.7795 193.255L45.3135 193.255L45.3135 198.789C45.3135 200.228 45.9777 201.003 47.5273 201.003L66.5657 201.003ZM21.7368 326.683L21.7368 331.664C21.7368 333.103 22.401 333.878 23.9506 333.878L58.0427 333.878C59.4817 333.878 60.2565 333.103 60.2565 331.664L60.2565 326.683L21.7368 326.683ZM60.2565 308.752C60.2565 307.202 59.4817 306.538 58.0427 306.538L23.9506 306.538C22.401 306.538 21.7368 307.202 21.7368 308.752L21.7368 313.733L60.2565 313.733L60.2565 308.752Z" fill="#CF1D20"></path> <path fill-rule="evenodd" clip-rule="evenodd" d="M499.844 373.295L515.382 373.295C519.782 373.295 523.364 374.66 526.183 377.479C529.032 380.328 530.256 384.042 530.256 388.28L530.256 395.474C530.256 399.831 529.028 403.43 526.183 406.275C523.364 409.094 519.782 410.459 515.382 410.459L463.137 410.459C458.839 410.459 455.26 409.089 452.446 406.275C449.628 403.457 448.263 399.874 448.263 395.474L448.263 388.28C448.263 383.998 449.622 380.302 452.446 377.479C455.26 374.665 458.839 373.295 463.137 373.295L479.228 373.295L479.228 389.871L464.133 389.871C463.933 389.871 463.825 389.896 463.775 389.914C463.757 389.964 463.732 390.072 463.732 390.272L463.732 393.593C463.732 393.777 463.75 393.894 463.765 393.961C463.83 393.976 463.946 393.994 464.133 393.994L514.386 393.994C514.561 393.994 514.681 393.981 514.76 393.967C514.774 393.889 514.787 393.768 514.787 393.593L514.787 390.272C514.787 390.085 514.769 389.969 514.754 389.905C514.687 389.889 514.57 389.871 514.386 389.871L499.844 389.871L499.844 373.295ZM463.791 389.878C463.792 389.878 463.79 389.881 463.786 389.887C463.789 389.881 463.791 389.878 463.791 389.878ZM463.748 389.925C463.742 389.929 463.739 389.931 463.739 389.931C463.739 389.93 463.741 389.928 463.748 389.925ZM477.416 375.108L477.416 388.058L464.133 388.058C462.694 388.058 461.919 388.833 461.919 390.272L461.919 393.593C461.919 395.142 462.694 395.806 464.133 395.806L514.386 395.806C515.935 395.806 516.599 395.142 516.599 393.593L516.599 390.272C516.599 388.833 515.935 388.058 514.386 388.058L501.656 388.058L501.656 375.108L515.382 375.108C519.367 375.108 522.466 376.325 524.901 378.76C527.336 381.195 528.443 384.405 528.443 388.28L528.443 395.474C528.443 399.459 527.336 402.558 524.901 404.994C522.466 407.429 519.367 408.646 515.382 408.646L463.137 408.646C459.263 408.646 456.163 407.429 453.728 404.994C451.293 402.558 450.075 399.459 450.075 395.474L450.075 388.28C450.075 384.405 451.293 381.195 453.728 378.76C456.163 376.325 459.263 375.108 463.137 375.108L477.416 375.108ZM529.813 340.845L529.813 369.707L448.705 369.707L448.705 340.845L463.289 340.845L463.289 353.242L482.023 353.242L482.023 341.952L496.496 341.952L496.496 353.242L515.229 353.242L515.229 340.845L529.813 340.845ZM517.042 342.658L528 342.658L528 367.895L450.518 367.895L450.518 342.658L461.476 342.658L461.476 355.055L483.835 355.055L483.835 343.765L494.683 343.765L494.683 355.055L517.042 355.055L517.042 342.658ZM529.813 321.462L529.813 337.928L448.705 337.928L448.705 315.748C448.705 311.467 450.065 307.771 452.889 304.947C454.034 303.802 455.305 302.897 456.705 302.226L448.705 302.226L448.705 266.722L463.289 266.722L463.289 276.242L529.813 276.242L529.813 292.707L463.289 292.707L463.289 300.767C463.422 300.765 463.556 300.764 463.69 300.764L482.729 300.764C487.129 300.764 490.711 302.128 493.53 304.947C496.379 307.797 497.603 311.51 497.603 315.748L497.603 321.462L529.813 321.462ZM528 323.275L528 336.115L450.518 336.115L450.518 315.748C450.518 311.874 451.736 308.664 454.171 306.229C456.606 303.794 459.705 302.576 463.69 302.576L482.729 302.576C486.713 302.576 489.813 303.794 492.248 306.229C494.683 308.664 495.79 311.874 495.79 315.748L495.79 323.275L528 323.275ZM463.332 317.383C463.314 317.433 463.289 317.541 463.289 317.741L463.289 321.462L483.13 321.462L483.13 317.741C483.13 317.553 483.112 317.438 483.097 317.373C483.03 317.357 482.913 317.34 482.729 317.34L463.69 317.34C463.49 317.34 463.382 317.365 463.332 317.383ZM463.349 317.347C463.349 317.347 463.347 317.35 463.343 317.355C463.346 317.349 463.348 317.347 463.349 317.347ZM463.305 317.394C463.3 317.398 463.296 317.399 463.296 317.399C463.296 317.399 463.299 317.397 463.305 317.394ZM461.476 300.414L450.518 300.414L450.518 268.535L461.476 268.535L461.476 278.054L528 278.054L528 290.894L461.476 290.894L461.476 300.414ZM529.813 249.471L529.813 265.937L448.705 265.937L448.705 249.471L474.638 249.471L461.964 245.349L448.705 245.349L448.705 228.773L529.813 228.773L529.813 245.349L504.116 245.349L516.56 249.471L529.813 249.471ZM516.267 251.284L528 251.284L528 264.124L450.518 264.124L450.518 251.284L480.293 251.284C483.027 251.284 486.018 251.542 489.116 252.059C489.517 252.126 489.919 252.197 490.323 252.272C490.338 252.275 490.352 252.278 490.366 252.28L490.366 252.059C487.045 251.395 483.725 250.62 480.625 249.513L462.251 243.536L450.518 243.536L450.518 230.585L528 230.585L528 243.536L498.225 243.536C495.492 243.536 492.586 243.278 489.433 242.761C489.02 242.694 488.603 242.622 488.182 242.545C488.172 242.543 488.162 242.542 488.152 242.54L488.152 242.761C491.362 243.204 494.572 244.089 497.893 245.196L516.267 251.284ZM450.518 202.797L450.518 189.847L458.045 189.847L458.045 182.984C458.045 179.11 459.263 175.9 461.698 173.465C464.133 171.03 467.343 169.812 471.217 169.812L507.301 169.812C511.286 169.812 514.386 171.03 516.821 173.465C519.256 175.9 520.473 179.11 520.473 182.984L520.473 189.847L528 189.847L528 202.797L520.473 202.797L520.473 209.66C520.473 213.645 519.256 216.744 516.821 219.179C514.386 221.614 511.286 222.832 507.301 222.832L471.217 222.832C467.343 222.832 464.133 221.614 461.698 219.179C459.263 216.744 458.045 213.645 458.045 209.66L458.045 202.797L450.518 202.797ZM456.232 204.61L456.232 209.66C456.232 214.06 457.597 217.642 460.416 220.461C463.24 223.285 466.936 224.645 471.217 224.645L507.301 224.645C511.701 224.645 515.284 223.28 518.102 220.461C520.921 217.642 522.286 214.06 522.286 209.66L522.286 204.61L529.813 204.61L529.813 188.034L522.286 188.034L522.286 182.984C522.286 178.703 520.926 175.007 518.102 172.183C515.284 169.364 511.701 167.999 507.301 167.999L471.217 167.999C466.936 167.999 463.24 169.359 460.416 172.183C457.592 175.007 456.232 178.703 456.232 182.984L456.232 188.034L448.705 188.034L448.705 204.61L456.232 204.61ZM471.812 188.034L506.706 188.034L506.706 184.866C506.706 184.678 506.689 184.563 506.673 184.498C506.607 184.483 506.489 184.465 506.305 184.465L472.213 184.465C472.013 184.465 471.905 184.49 471.855 184.508C471.837 184.558 471.812 184.666 471.812 184.866L471.812 188.034ZM471.872 184.472C471.872 184.472 471.87 184.475 471.866 184.48C471.869 184.475 471.871 184.472 471.872 184.472ZM471.828 184.519C471.822 184.523 471.819 184.525 471.819 184.524C471.819 184.524 471.822 184.522 471.828 184.519ZM471.846 208.146C471.911 208.162 472.026 208.179 472.213 208.179L506.305 208.179C506.48 208.179 506.601 208.167 506.68 208.153C506.694 208.074 506.706 207.953 506.706 207.778L506.706 204.61L471.812 204.61L471.812 207.778C471.812 207.962 471.83 208.08 471.846 208.146ZM529.813 163.896L448.705 163.896L448.705 147.43L529.813 147.43L529.813 163.896ZM528 149.243L528 162.083L450.518 162.083L450.518 149.243L528 149.243ZM448.705 143.358L448.705 126.892L464.736 126.892L448.705 122.567L448.705 106.333L488.264 118.398L522.103 108.124L448.705 99.0014L448.705 78.5313L529.813 68.4508L529.813 84.0867L513.21 85.8578L513.21 91.6857L529.813 93.5674L529.813 122.013L511.764 126.892L529.813 126.892L529.813 143.358L448.705 143.358ZM498.114 128.705L528 120.625L528 108.228L488.263 120.293L450.518 108.781L450.518 121.178L478.412 128.705L450.518 128.705L450.518 141.545L528 141.545L528 128.705L498.114 128.705ZM528 95.1863L511.397 93.3046L511.397 84.2281L528 82.4571L528 70.5027L450.518 80.1326L450.518 97.4001L528 107.03L528 95.1863ZM500.439 92.087L500.439 85.4457L475.534 88.2129C472.877 88.545 469.557 88.6557 465.461 88.6557L465.461 88.877C469.557 88.877 472.877 89.0984 475.534 89.3198L475.658 89.3336L475.674 89.3354L500.439 92.087ZM486.967 88.7664L498.626 90.0617L498.626 87.471L486.967 88.7664ZM463.289 74.3632L448.705 74.3632L448.705 38.8594L463.289 38.8594L463.289 48.3787L529.813 48.3787L529.813 64.8439L463.289 64.8439L463.289 74.3632ZM461.476 72.5505L450.518 72.5505L450.518 40.6721L461.476 40.6721L461.476 50.1913L528 50.1913L528 63.0312L461.476 63.0312L461.476 72.5505ZM529.813 21.6084L529.813 38.0737L448.705 38.0737L448.705 21.6084L474.637 21.6084L461.964 17.4856L448.705 17.4856L448.705 0.909668L529.813 0.909664L529.813 17.4856L504.116 17.4856L516.56 21.6084L529.813 21.6084ZM516.267 23.4211L528 23.4211L528 36.261L450.518 36.261L450.518 23.4211L480.293 23.4211C483.027 23.4211 486.018 23.6794 489.116 24.196C489.517 24.2628 489.919 24.3339 490.323 24.4093C490.338 24.412 490.352 24.4147 490.366 24.4173L490.366 24.196C487.045 23.5318 483.725 22.757 480.625 21.6501L462.251 15.6729L450.518 15.6729L450.518 2.72235L528 2.72235L528 15.6729L498.225 15.6729C495.492 15.6729 492.586 15.4147 489.432 14.8981C489.02 14.8305 488.603 14.7585 488.182 14.6821C488.172 14.6803 488.162 14.6785 488.152 14.6767L488.152 14.8981C491.362 15.3409 494.572 16.2264 497.893 17.3332L516.267 23.4211ZM463.69 315.527C462.251 315.527 461.476 316.302 461.476 317.741L461.476 323.275L484.942 323.275L484.942 317.741C484.942 316.302 484.278 315.527 482.729 315.527L463.69 315.527ZM508.519 189.847L508.519 184.866C508.519 183.427 507.855 182.652 506.305 182.652L472.213 182.652C470.774 182.652 469.999 183.427 469.999 184.866L469.999 189.847L508.519 189.847ZM469.999 207.778C469.999 209.328 470.774 209.992 472.213 209.992L506.305 209.992C507.855 209.992 508.519 209.328 508.519 207.778L508.519 202.797L469.999 202.797L469.999 207.778Z" fill="#CF1D20"></path> </svg> 