<svg width="20" height="20" viewBox="0 0 20 20" fill="none" xmlns="http://www.w3.org/2000/svg">
<g clip-path="url(#clip0_1102_1654)">
<path d="M16.6732 12.3898C16.8891 11.8333 17.0371 11.2432 17.1073 10.6298L18.0187 10.4357C19.3702 10.1478 20.2324 8.81886 19.9446 7.46736L19.6386 6.03076L18.461 6.28159C17.7181 6.4398 17.1237 6.91292 16.7862 7.53112C16.5891 6.93455 16.3156 6.36593 15.9735 5.8421L16.2464 5.4978C17.1686 4.33445 16.9731 2.64375 15.8097 1.7215L14.5731 0.741211L13.7695 1.75493C12.8473 2.91832 13.0428 4.60903 14.2062 5.53123L14.2358 5.55475C15.3439 6.66507 15.9785 8.21293 15.9785 9.81248C15.9785 13.1045 13.3003 15.7828 10.0082 15.7828C6.71622 15.7828 4.03793 13.1045 4.03793 9.81248C4.03793 8.16676 4.70849 6.59575 5.88396 5.46998C5.93236 5.42812 5.97872 5.38478 6.0234 5.34026C6.02567 5.33822 6.02786 5.3361 6.03014 5.33402L6.02982 5.33367C6.979 4.38137 7.08618 2.84832 6.23048 1.76884L5.42687 0.755124L4.19027 1.73541C3.02688 2.65762 2.83139 4.34837 3.75364 5.51172L4.03574 5.86757C3.69191 6.39356 3.41848 6.96293 3.22237 7.56044C2.88638 6.93467 2.28809 6.45505 1.53903 6.2955L0.36137 6.04468L0.0554048 7.48127C-0.232454 8.83278 0.62983 10.1617 1.98134 10.4496L2.91127 10.6476C2.98349 11.2653 3.13438 11.8592 3.35436 12.4188C2.67008 12.0481 1.81787 12.0203 1.0839 12.4209L0.0808399 12.9684L0.748618 14.1919C1.37685 15.3429 2.81928 15.7668 3.97033 15.1385L4.79119 14.6905C5.29801 15.2322 5.88791 15.6951 6.54045 16.0588C5.80459 16.2253 5.15908 16.7361 4.85291 17.4878L4.4193 18.5525L5.71806 19.0815C6.93992 19.5791 8.33379 18.992 8.83144 17.7702L9.18154 16.9105C9.45286 16.9419 9.72857 16.9586 10.0082 16.9586C10.2843 16.9586 10.5566 16.9423 10.8246 16.9117L11.1685 17.7562C11.6661 18.978 13.06 19.5651 14.2819 19.0675L15.5806 18.5385L15.147 17.4738C14.8449 16.7321 14.2124 16.2249 13.4886 16.0517C14.1375 15.6883 14.7241 15.2268 15.2283 14.6872L16.0296 15.1246C17.1807 15.7528 18.6231 15.329 19.2514 14.1779L19.9191 12.9544L18.9161 12.407C18.192 12.0117 17.3527 12.0332 16.6732 12.3898Z" fill="#CF1D20"/>
</g>
<defs>
<clipPath id="clip0_1102_1654">
<rect width="20" height="20" fill="white"/>
</clipPath>
</defs>
</svg>
