<?xml version="1.0" encoding="UTF-8"?> <svg xmlns="http://www.w3.org/2000/svg" width="628" height="181" viewBox="0 0 628 181" fill="none"> <path d="M20.9746 0L581 0L568 181L0 181L20.9746 0Z" fill="#CE1D20"></path> <path d="M589.866 0L627.866 0L616 181L576.866 181L589.866 0Z" fill="#CE1D20"></path> <path d="M2 21H42L40 35H0L2 21Z" fill="#1C1507"></path> <circle cx="581" cy="47" r="28" fill="#1C1507"></circle> <g clip-path="url(#clip0)"> <path d="M575.348 57.7831C575.455 58.1838 575.866 58.4208 576.266 58.3134L582.741 56.5785L580.46 48.0663L573.261 49.9953L575.348 57.7831ZM584.281 56.166L590.755 54.4311C591.156 54.3238 591.393 53.9133 591.286 53.5126L589.199 45.7248L582 47.6538L584.281 56.166ZM588.105 40.1944L584.764 41.0898C584.942 40.5228 584.969 39.8992 584.804 39.2835C584.342 37.5606 582.565 36.5348 580.843 36.9964C579.905 37.2475 579.173 37.8904 578.776 38.7004C578.027 38.1973 577.071 38.007 576.134 38.2582C574.411 38.7198 573.385 40.4966 573.847 42.2194C574.012 42.8352 574.345 43.3623 574.785 43.7637L571.443 44.659C571.042 44.7664 570.805 45.1769 570.913 45.5776L571.762 48.747L580.048 46.5269L579.004 42.633L580.544 42.2205L581.587 46.1144L589.873 43.8942L589.024 40.7247C588.916 40.324 588.506 40.087 588.105 40.1944ZM578.98 42.5424L577.395 42.967C576.522 43.2012 575.62 42.6808 575.386 41.8069C575.152 40.9331 575.672 40.0317 576.546 39.7976C577.42 39.5634 578.321 40.0838 578.556 40.9577L578.98 42.5424ZM582.104 41.7053L580.52 42.1299L580.095 40.5452C579.861 39.6713 580.381 38.77 581.255 38.5359C582.129 38.3017 583.03 38.8221 583.264 39.696C583.499 40.5698 582.978 41.4711 582.104 41.7053Z" fill="white"></path> </g> <defs> <clipPath id="clip0"> <rect width="24" height="24" fill="white" transform="translate(566.303 38.5146) rotate(-15)"></rect> </clipPath> </defs> </svg> 