<svg width="108" height="703" viewBox="0 0 108 703" fill="none" xmlns="http://www.w3.org/2000/svg">
<path fill-rule="evenodd" clip-rule="evenodd" d="M88.7462 46.0762L88.7462 33.5168L1.00017 22.7128L1.00017 1.7466L88.7462 12.5506L88.7462 -0.00109946L107.2 2.23575L107.2 48.313L88.7462 46.0762ZM90.7462 14.812L3.00017 4.00796L3.00017 20.944L90.7462 31.748L90.7462 44.304L105.2 46.056L105.2 4.00796L90.7462 2.25596L90.7462 14.812ZM1.00017 37.0575L107.2 50.105L107.2 78.7383C107.2 84.3125 105.425 88.8291 101.728 92.1902L101.709 92.2073L101.689 92.2239C97.9491 95.4542 93.256 96.5379 87.6053 95.9101L87.5945 95.9089L62.4636 92.8406L62.4555 92.8395C55.6389 91.9504 50.3447 88.7908 46.9037 83.4673L8.00027 86.8776L107.2 111.536L107.2 137.727L1.00016 137.878L1.00016 118.081L22.9002 118.373L22.9002 110.015L1.00016 104.905L1.00016 67.7047L43.4862 64.0547L43.4862 63.2781L1.00017 58.0221L1.00017 37.0575ZM45.4862 61.5103L45.4862 65.8903L3.00016 69.5403L3.00016 85.3083L47.9682 81.3663C51.0342 86.7683 55.9982 89.9803 62.7142 90.8563L87.8262 93.9223C93.0822 94.5063 97.1702 93.4843 100.382 90.7103C103.594 87.7903 105.2 83.8483 105.2 78.7383L105.2 51.8743L3.00017 39.3183L3.00017 56.2543L45.4862 61.5103ZM24.9002 108.428L24.9002 120.4L3.00016 120.108L3.00016 135.876L105.2 135.73L105.2 113.1L3.00016 87.6956L3.00016 103.318L24.9002 108.428ZM88.7462 68.828L61.7942 65.5226L61.7942 70.7083C61.7942 71.3635 61.9435 71.5443 61.9768 71.5814C62.0212 71.6309 62.2298 71.8281 62.9786 71.9377L88.0195 74.995C88.4196 75.0216 88.6014 74.9681 88.6622 74.9427C88.6911 74.8827 88.7462 74.7179 88.7462 74.3583L88.7462 68.828ZM88.6449 74.971C88.6446 74.9707 88.647 74.9667 88.653 74.96C88.6482 74.968 88.6452 74.9713 88.6449 74.971ZM87.8262 76.9863C89.7242 77.1323 90.7462 76.2563 90.7462 74.3583L90.7462 67.0583L59.7942 63.2623L59.7942 70.7083C59.7942 72.6063 60.6702 73.6283 62.7142 73.9203L87.8262 76.9863ZM39.3542 111.932L39.3542 120.692L72.2042 121.13C75.7193 121.13 79.4504 121.346 83.4902 121.87C84.1331 121.954 84.7838 122.045 85.4427 122.144C85.4585 122.147 85.4743 122.149 85.4902 122.152L85.4902 121.86C80.2444 120.985 75.8712 120.256 72.2255 119.528C72.2184 119.526 72.2113 119.525 72.2042 119.524L39.3542 111.932ZM60.9684 118.98L41.3542 114.447L41.3542 118.718L60.9684 118.98ZM1.00016 159.811L1.00016 139.429L107.2 152.476L107.2 172.398L72.2636 176.07L107.2 180.362L107.2 200.744L1.00016 187.697L1.00016 167.775L35.8849 164.097L1.00016 159.811ZM3.00016 158.041L3.00016 141.689L105.2 154.245L105.2 170.597L62.1302 175.123C58.9255 175.541 54.7901 175.826 49.7238 175.852C49.5293 175.853 49.3334 175.853 49.1362 175.853C49.0876 175.853 49.0389 175.853 48.9902 175.853L49.1362 176.145C53.3371 176.145 57.6818 176.289 62.3129 176.862C62.3278 176.864 62.3427 176.865 62.3576 176.867C62.3791 176.87 62.4006 176.873 62.4222 176.875L105.2 182.131L105.2 198.483L3.00016 185.927L3.00016 169.575L45.9242 165.049C48.9936 164.491 53.1297 164.333 58.3324 164.32C58.5262 164.32 58.7214 164.32 58.9182 164.319C58.9667 164.319 59.0154 164.319 59.0642 164.319L58.9182 164.027C54.5382 164.027 50.1582 163.735 45.7782 163.297L3.00016 158.041ZM5.60013 235.889L5.58674 235.873C2.0094 231.808 0.416158 226.938 0.416159 221.412L0.416159 211.922C0.416159 206.287 1.99651 201.716 5.76162 198.453C9.5112 195.055 14.2333 193.97 19.9051 194.755C19.9098 194.756 19.9146 194.757 19.9193 194.757L40.4782 197.307L40.4782 218.257L20.7008 215.95L20.6753 215.946C20.3972 215.906 20.204 215.9 20.0776 215.907C20.0568 216.021 20.0382 216.196 20.0382 216.448L20.0382 220.828C20.0382 221.485 20.1889 221.735 20.264 221.824C20.3296 221.902 20.5402 222.103 21.2194 222.203L38.384 224.24C39.4913 224.324 40.3263 223.986 41.0682 223.153C41.0692 223.152 41.0703 223.151 41.0714 223.15L53.844 208.635C55.8101 205.884 58.4421 203.762 61.8562 202.461C65.1927 201.19 68.5922 200.693 72.1695 201.179C72.1738 201.179 72.1781 201.18 72.1824 201.181L88.7833 203.219C88.7865 203.22 88.7898 203.22 88.793 203.22C94.3854 203.862 98.9105 206.282 102.44 210.133C106.037 214.056 107.784 219.087 107.784 224.77L107.784 234.26C107.784 239.822 106.015 244.369 102.273 247.6C98.5716 250.797 93.8997 252.068 88.3291 251.431L88.3195 251.43L67.7222 248.876L67.7222 227.761L87.5183 230.235L87.5463 230.239C87.8466 230.286 88.0171 230.274 88.1011 230.258C88.1274 230.18 88.1622 230.021 88.1622 229.734L88.1622 225.354C88.1622 224.663 87.9945 224.431 87.9273 224.356C87.848 224.268 87.6187 224.082 86.9668 223.977L71.335 222.078L71.2914 222.071C70.274 221.901 69.5901 222.189 69.0246 222.997L68.9577 223.093L55.9402 237.719C53.9572 240.336 51.182 242.434 47.8042 243.721C44.4702 244.991 41.0963 245.48 37.7045 245.157L37.6723 245.154L19.4064 242.816C13.6749 242.176 9.14773 239.759 5.61385 235.904L5.60013 235.889ZM19.6442 240.83C14.3882 240.246 10.3002 238.056 7.08816 234.552C3.87616 230.902 2.41616 226.522 2.41616 221.412L2.41616 211.922C2.41616 206.666 3.87616 202.724 7.08816 199.95C10.3002 197.03 14.3882 196.008 19.6442 196.738L38.4782 199.074L38.4782 216.01L20.9582 213.966C18.9142 213.674 18.0382 214.404 18.0382 216.448L18.0382 220.828C18.0382 222.726 18.9142 223.894 20.9582 224.186L38.1862 226.23C39.9382 226.376 41.3982 225.792 42.5662 224.478L55.4142 209.878C57.1662 207.396 59.5022 205.498 62.5682 204.33C65.6342 203.162 68.7002 202.724 71.9122 203.162L88.5562 205.206C93.6662 205.79 97.7542 207.98 100.966 211.484C104.178 214.988 105.784 219.514 105.784 224.77L105.784 234.26C105.784 239.37 104.178 243.312 100.966 246.086C97.7542 248.86 93.6662 250.028 88.5562 249.444L69.7222 247.108L69.7222 230.026L87.2422 232.216C89.1402 232.508 90.1622 231.632 90.1622 229.734L90.1622 225.354C90.1622 223.31 89.1402 222.288 87.2422 221.996L71.6202 220.098C69.8682 219.806 68.4082 220.39 67.3862 221.85L54.3922 236.45C52.6402 238.786 50.1582 240.684 47.0922 241.852C44.0262 243.02 40.9602 243.458 37.8942 243.166L19.6442 240.83ZM88.0722 230.323C88.072 230.323 88.0739 230.319 88.0786 230.313C88.0748 230.32 88.0724 230.323 88.0722 230.323ZM88.1592 230.244C88.165 230.24 88.1683 230.239 88.1684 230.24C88.1685 230.24 88.1657 230.241 88.1592 230.244ZM1.00016 245.364L107.2 258.412L107.2 295.749L88.7462 293.325L88.7462 277.133L63.2542 273.978L63.2542 288.867L44.9462 286.625L44.9462 271.732L1.00016 266.33L1.00016 245.364ZM46.9462 269.963L46.9462 284.855L61.2542 286.607L61.2542 271.715L90.7462 275.365L90.7462 291.571L105.2 293.469L105.2 260.181L3.00016 247.625L3.00016 264.561L46.9462 269.963ZM7.08815 327.975C3.87615 324.325 2.41615 319.945 2.41615 314.835L2.41615 305.345C2.41616 300.089 3.87615 296.147 7.08815 293.373C10.3002 290.453 14.3882 289.431 19.6442 290.161L88.5562 298.629C93.6662 299.213 97.7542 301.403 100.966 304.907C104.178 308.411 105.784 312.937 105.784 318.193L105.784 327.683C105.784 332.793 104.178 336.735 100.966 339.509C97.7542 342.283 93.6662 343.451 88.5562 342.867L19.6442 334.253C14.3882 333.669 10.3002 331.479 7.08815 327.975ZM19.4233 336.241C19.4193 336.24 19.4152 336.24 19.4112 336.24C13.6774 335.6 9.14871 333.183 5.61385 329.327L5.60013 329.312L5.58673 329.296C2.00939 325.231 0.416154 320.36 0.416154 314.835L0.416155 305.345C0.416155 299.709 1.99654 295.139 5.76195 291.876C9.51103 288.479 14.2323 287.394 19.9031 288.178C19.9085 288.179 19.9139 288.179 19.9193 288.18L88.7833 296.642C88.7866 296.642 88.79 296.643 88.7934 296.643C94.3856 297.285 98.9106 299.705 102.44 303.556C106.037 307.479 107.784 312.51 107.784 318.193L107.784 327.683C107.784 333.244 106.015 337.791 102.273 341.023C98.5716 344.22 93.8997 345.491 88.3291 344.854L88.3186 344.853L19.4233 336.241ZM20.6964 309.372L20.6753 309.369C20.3972 309.329 20.204 309.323 20.0776 309.329C20.0568 309.444 20.0382 309.619 20.0382 309.871L20.0382 314.251C20.0382 314.908 20.1889 315.158 20.264 315.247C20.3297 315.325 20.5407 315.526 21.2219 315.626C21.2282 315.627 21.2346 315.628 21.241 315.629L87.5146 323.658L87.5463 323.662C87.8466 323.709 88.0171 323.697 88.1011 323.681C88.1274 323.603 88.1622 323.444 88.1622 323.157L88.1622 318.777C88.1622 318.086 87.9945 317.854 87.9273 317.779C87.848 317.691 87.6187 317.505 86.9666 317.4L20.6964 309.372ZM87.2422 315.419C89.1402 315.711 90.1622 316.733 90.1622 318.777L90.1622 323.157C90.1622 325.055 89.1402 325.931 87.2422 325.639L20.9582 317.609C18.9142 317.317 18.0382 316.149 18.0382 314.251L18.0382 309.871C18.0382 307.827 18.9142 307.097 20.9582 307.389L87.2422 315.419ZM88.0722 323.746C88.072 323.745 88.0739 323.742 88.0786 323.736C88.0747 323.743 88.0723 323.746 88.0722 323.746ZM88.1592 323.667C88.1649 323.663 88.1681 323.662 88.1684 323.662C88.1687 323.663 88.1658 323.664 88.1592 323.667ZM1.00015 340.321L107.2 353.369L107.2 382.002C107.2 387.576 105.425 392.093 101.728 395.454L101.709 395.471L101.689 395.488C97.949 398.718 93.256 399.802 87.6053 399.174L87.5945 399.173L62.4718 396.105L62.4636 396.104L62.4555 396.103C55.6388 395.214 50.3446 392.054 46.9037 386.731L1.00015 390.755L1.00015 370.968L43.4862 367.318L43.4862 366.542L1.00015 361.286L1.00015 340.321ZM45.4862 364.774L45.4862 369.154L3.00015 372.804L3.00015 388.572L47.9682 384.63C51.0342 390.032 55.9982 393.244 62.7142 394.12L87.8262 397.186C93.0822 397.77 97.1702 396.748 100.382 393.974C103.594 391.054 105.2 387.112 105.2 382.002L105.2 355.138L3.00015 342.582L3.00015 359.518L45.4862 364.774ZM88.7462 372.092L61.7942 368.786L61.7942 373.972C61.7942 374.627 61.9435 374.808 61.9768 374.845C62.0211 374.895 62.2297 375.092 62.9779 375.201C62.9842 375.202 62.9906 375.203 62.997 375.204L88.0195 378.259C88.4196 378.285 88.6014 378.232 88.6622 378.206C88.6911 378.146 88.7462 377.982 88.7462 377.622L88.7462 372.092ZM88.6449 378.235C88.6445 378.235 88.6468 378.23 88.653 378.224C88.6483 378.231 88.6454 378.235 88.6449 378.235ZM87.8262 380.25C89.7242 380.396 90.7462 379.52 90.7462 377.622L90.7462 370.322L59.7942 366.526L59.7942 373.972C59.7942 375.87 60.6702 376.892 62.7142 377.184L87.8262 380.25ZM1.00015 392.203L107.2 405.25L107.2 434.44L44.1259 433.927L107.2 448.798L107.2 478.046L1.00015 464.999L1.00015 445.347L47.6275 451.065L1.00015 439.235L1.00015 418.176L48.3979 417.778L1.00015 412.002L1.00015 392.203ZM72.4888 418.698L72.4962 418.699C75.8542 419.137 80.3802 419.429 85.9282 419.721L85.9282 420.013C85.923 420.013 85.9179 420.013 85.9128 420.013C85.2254 419.988 84.5638 419.965 83.9282 419.942C77.0123 419.698 73.1643 419.575 72.4962 419.575L3.00015 420.159L3.00015 437.679L72.0582 455.199C72.0918 455.206 72.1253 455.213 72.1588 455.22C72.1602 455.22 72.1616 455.22 72.1629 455.221C74.1291 455.623 75.9162 455.984 77.5201 456.307C81.1113 457.032 83.7838 457.572 85.4901 457.973L85.4901 458.265C85.4682 458.261 85.4462 458.257 85.4243 458.253C84.8941 458.157 84.377 458.064 83.8729 457.973C78.3018 456.975 74.3264 456.342 72.0582 456.075L3.00015 447.607L3.00015 463.229L105.2 475.785L105.2 450.381L33.3682 433.445C33.3638 433.444 33.3595 433.443 33.3551 433.442C28.9792 432.276 24.4577 431.547 19.9362 431.255L19.9362 430.963C19.9424 430.964 19.9487 430.964 19.9549 430.965C20.6421 431.014 21.3025 431.061 21.9362 431.106C28.8304 431.595 32.5665 431.839 33.3682 431.839L105.2 432.423L105.2 407.019L3.00015 394.463L3.00015 410.231L72.4888 418.698ZM1.00015 485.731L1.00015 465.964L107.2 492.362L107.2 518.553L1.00015 518.705L1.00015 498.907L22.9002 499.199L22.9002 490.841L1.00015 485.731ZM24.9002 489.254L3.00015 484.144L3.00015 468.522L105.2 493.926L105.2 516.556L3.00015 516.702L3.00015 500.934L24.9002 501.226L24.9002 489.254ZM39.3542 492.758L39.3541 501.518L72.2042 501.956C75.7193 501.956 79.4504 502.172 83.4901 502.696C84.133 502.78 84.7838 502.871 85.4427 502.971C85.4585 502.973 85.4743 502.975 85.4901 502.978L85.4901 502.686C80.2444 501.812 75.8712 501.083 72.2255 500.354C72.2184 500.353 72.2113 500.351 72.2042 500.35L39.3542 492.758ZM60.9684 499.806L41.3542 495.273L41.3541 499.544L60.9684 499.806ZM88.7461 568.625L88.7461 556.066L1.00014 545.262L1.00014 524.295L88.7462 535.099L88.7462 522.548L107.2 524.785L107.2 570.862L88.7461 568.625ZM90.7462 537.361L3.00014 526.557L3.00014 543.493L90.7461 554.297L90.7461 566.853L105.2 568.605L105.2 526.557L90.7462 524.805L90.7462 537.361ZM1.00014 559.606L107.2 572.654L107.2 593.62L1.00014 580.572L1.00014 559.606ZM3.00014 578.803L3.00014 561.867L105.2 574.423L105.2 591.359L3.00014 578.803ZM7.08814 628.815C3.87614 625.165 2.41614 620.785 2.41614 615.675L2.41614 606.185C2.41614 600.929 3.87614 596.987 7.08814 594.213C10.3001 591.293 14.3882 590.271 19.6442 591.001L88.5561 599.469C93.6662 600.053 97.7542 602.243 100.966 605.747C104.178 609.251 105.784 613.777 105.784 619.033L105.784 628.523C105.784 633.633 104.178 637.575 100.966 640.349C97.7542 643.123 93.6662 644.291 88.5561 643.707L19.6442 635.093C14.3881 634.509 10.3001 632.319 7.08814 628.815ZM19.4233 637.081C19.4177 637.08 19.4122 637.079 19.4066 637.079C13.6749 636.438 9.14775 634.022 5.61383 630.166L5.60012 630.151L5.58672 630.136C2.00938 626.071 0.416141 621.2 0.416141 615.675L0.416142 606.185C0.416142 600.55 1.99631 595.979 5.76117 592.716C9.51037 589.318 14.2319 588.233 19.9031 589.018C19.9085 589.018 19.9139 589.019 19.9193 589.02L88.7832 597.482C88.7854 597.482 88.7876 597.482 88.7897 597.483C94.3836 598.123 98.9098 600.544 102.44 604.396C106.037 608.319 107.784 613.35 107.784 619.033L107.784 628.523C107.784 634.084 106.015 638.631 102.273 641.863C98.5716 645.06 93.8997 646.331 88.3291 645.694L88.3186 645.693L88.3081 645.691L19.4233 637.081ZM20.6964 610.212L20.6753 610.209C20.3972 610.169 20.204 610.163 20.0776 610.169C20.0568 610.284 20.0382 610.458 20.0382 610.711L20.0382 615.091C20.0382 615.748 20.1889 615.997 20.264 616.087C20.3296 616.165 20.5404 616.366 21.2207 616.466C21.2274 616.467 21.2342 616.468 21.241 616.469L87.5145 624.497L87.5463 624.502C87.8466 624.548 88.0171 624.536 88.1011 624.521C88.1274 624.443 88.1621 624.284 88.1621 623.997L88.1621 619.617C88.1621 618.926 87.9945 618.693 87.9273 618.619C87.848 618.531 87.619 618.345 86.9681 618.24L20.6964 610.212ZM87.2421 616.259C89.1401 616.551 90.1621 617.573 90.1621 619.617L90.1621 623.997C90.1621 625.895 89.1401 626.771 87.2421 626.479L20.9581 618.449C18.9141 618.157 18.0382 616.989 18.0382 615.091L18.0382 610.711C18.0382 608.667 18.9142 607.937 20.9581 608.229L87.2421 616.259ZM88.0722 624.586C88.0719 624.585 88.0738 624.582 88.0786 624.576C88.0748 624.583 88.0724 624.586 88.0722 624.586ZM88.1591 624.506C88.1651 624.503 88.1683 624.502 88.1684 624.502C88.1684 624.502 88.1655 624.504 88.1591 624.506ZM1.00014 661.543L1.00014 641.161L107.2 654.208L107.2 674.131L72.2635 677.802L107.2 682.094L107.2 702.477L1.00014 689.429L1.00014 669.508L35.8848 665.829L1.00014 661.543ZM3.00014 659.774L3.00014 643.422L105.2 655.978L105.2 672.33L62.6479 676.801L62.644 676.802L62.1301 676.856C58.9255 677.274 54.7901 677.559 49.7239 677.584C49.5293 677.585 49.3334 677.586 49.1361 677.586C49.0876 677.586 49.0389 677.586 48.9901 677.586L49.1361 677.878C53.3371 677.878 57.6818 678.021 62.3128 678.594C62.3278 678.596 62.3427 678.598 62.3576 678.6C62.3791 678.602 62.4006 678.605 62.4221 678.608L105.2 683.864L105.2 700.216L3.00014 687.66L3.00014 671.308L45.9241 666.782C48.9936 666.224 53.1297 666.066 58.3325 666.053C58.5262 666.052 58.7214 666.052 58.9181 666.052C58.9667 666.052 59.0154 666.052 59.0641 666.052L58.9181 665.76C54.5381 665.76 50.1581 665.468 45.7781 665.03L3.00014 659.774Z" fill="#CF1D20"/>
</svg>
