<svg width="1205" height="750" viewBox="0 0 1205 750" fill="none" xmlns="http://www.w3.org/2000/svg">
<circle opacity="0.3" cx="574" cy="749" r="1" fill="white"/>
<circle opacity="0.3" cx="574" cy="413" r="1" fill="white"/>
<circle opacity="0.3" cx="238" cy="749" r="1" fill="white"/>
<circle opacity="0.3" cx="910" cy="749" r="1" fill="white"/>
<circle opacity="0.3" cx="238" cy="413" r="1" fill="white"/>
<circle opacity="0.3" cx="910" cy="413" r="1" fill="white"/>
<circle opacity="0.3" cx="574" cy="581" r="1" fill="white"/>
<circle opacity="0.3" cx="574" cy="245" r="1" fill="white"/>
<circle opacity="0.3" cx="574" cy="77" r="1" fill="white"/>
<circle opacity="0.3" cx="238" cy="581" r="1" fill="white"/>
<circle opacity="0.3" cx="910" cy="581" r="1" fill="white"/>
<circle opacity="0.3" cx="238" cy="245" r="1" fill="white"/>
<circle opacity="0.3" cx="238" cy="77" r="1" fill="white"/>
<circle opacity="0.3" cx="910" cy="245" r="1" fill="white"/>
<circle opacity="0.3" cx="910" cy="77" r="1" fill="white"/>
<circle opacity="0.3" cx="70" cy="749" r="1" fill="white"/>
<circle opacity="0.3" cx="742" cy="749" r="1" fill="white"/>
<circle opacity="0.3" cx="70" cy="413" r="1" fill="white"/>
<circle opacity="0.3" cx="742" cy="413" r="1" fill="white"/>
<circle opacity="0.3" cx="406" cy="749" r="1" fill="white"/>
<circle opacity="0.3" cx="1078" cy="749" r="1" fill="white"/>
<circle opacity="0.3" cx="406" cy="413" r="1" fill="white"/>
<circle opacity="0.3" cx="1078" cy="413" r="1" fill="white"/>
<circle opacity="0.3" cx="70" cy="581" r="1" fill="white"/>
<circle opacity="0.3" cx="742" cy="581" r="1" fill="white"/>
<circle opacity="0.3" cx="70" cy="245" r="1" fill="white"/>
<circle opacity="0.3" cx="70" cy="77" r="1" fill="white"/>
<circle opacity="0.3" cx="742" cy="245" r="1" fill="white"/>
<circle opacity="0.3" cx="742" cy="77" r="1" fill="white"/>
<circle opacity="0.3" cx="406" cy="581" r="1" fill="white"/>
<circle opacity="0.3" cx="1078" cy="581" r="1" fill="white"/>
<circle opacity="0.3" cx="406" cy="245" r="1" fill="white"/>
<circle opacity="0.3" cx="406" cy="77" r="1" fill="white"/>
<circle opacity="0.3" cx="1078" cy="245" r="1" fill="white"/>
<circle opacity="0.3" cx="1078" cy="77" r="1" fill="white"/>
<circle opacity="0.3" cx="574" cy="665" r="1" fill="white"/>
<circle opacity="0.3" cx="574" cy="329" r="1" fill="white"/>
<circle opacity="0.3" cx="238" cy="665" r="1" fill="white"/>
<circle opacity="0.3" cx="910" cy="665" r="1" fill="white"/>
<circle opacity="0.3" cx="238" cy="329" r="1" fill="white"/>
<circle opacity="0.3" cx="910" cy="329" r="1" fill="white"/>
<circle opacity="0.3" cx="574" cy="497" r="1" fill="white"/>
<circle opacity="0.3" cx="574" cy="161" r="1" fill="white"/>
<circle opacity="0.3" cx="238" cy="497" r="1" fill="white"/>
<circle opacity="0.3" cx="910" cy="497" r="1" fill="white"/>
<circle opacity="0.3" cx="238" cy="161" r="1" fill="white"/>
<circle opacity="0.3" cx="910" cy="161" r="1" fill="white"/>
<circle opacity="0.3" cx="70" cy="665" r="1" fill="white"/>
<circle opacity="0.3" cx="742" cy="665" r="1" fill="white"/>
<circle opacity="0.3" cx="70" cy="329" r="1" fill="white"/>
<circle opacity="0.3" cx="742" cy="329" r="1" fill="white"/>
<circle opacity="0.3" cx="406" cy="665" r="1" fill="white"/>
<circle opacity="0.3" cx="1078" cy="665" r="1" fill="white"/>
<circle opacity="0.3" cx="406" cy="329" r="1" fill="white"/>
<circle opacity="0.3" cx="1078" cy="329" r="1" fill="white"/>
<circle opacity="0.3" cx="70" cy="497" r="1" fill="white"/>
<circle opacity="0.3" cx="742" cy="497" r="1" fill="white"/>
<circle opacity="0.3" cx="70" cy="161" r="1" fill="white"/>
<circle opacity="0.3" cx="742" cy="161" r="1" fill="white"/>
<circle opacity="0.3" cx="406" cy="497" r="1" fill="white"/>
<circle opacity="0.3" cx="1078" cy="497" r="1" fill="white"/>
<circle opacity="0.3" cx="406" cy="161" r="1" fill="white"/>
<circle opacity="0.3" cx="1078" cy="161" r="1" fill="white"/>
<circle opacity="0.3" cx="658" cy="749" r="1" fill="white"/>
<circle opacity="0.3" cx="658" cy="413" r="1" fill="white"/>
<circle opacity="0.3" cx="322" cy="749" r="1" fill="white"/>
<circle opacity="0.3" cx="994" cy="749" r="1" fill="white"/>
<circle opacity="0.3" cx="322" cy="413" r="1" fill="white"/>
<circle opacity="0.3" cx="994" cy="413" r="1" fill="white"/>
<circle opacity="0.3" cx="658" cy="581" r="1" fill="white"/>
<circle opacity="0.3" cx="658" cy="245" r="1" fill="white"/>
<circle opacity="0.3" cx="658" cy="77" r="1" fill="white"/>
<circle opacity="0.3" cx="322" cy="581" r="1" fill="white"/>
<circle opacity="0.3" cx="994" cy="581" r="1" fill="white"/>
<circle opacity="0.3" cx="322" cy="245" r="1" fill="white"/>
<circle opacity="0.3" cx="322" cy="77" r="1" fill="white"/>
<circle opacity="0.3" cx="994" cy="245" r="1" fill="white"/>
<circle opacity="0.3" cx="994" cy="77" r="1" fill="white"/>
<circle opacity="0.3" cx="154" cy="749" r="1" fill="white"/>
<circle opacity="0.3" cx="826" cy="749" r="1" fill="white"/>
<circle opacity="0.3" cx="154" cy="413" r="1" fill="white"/>
<circle opacity="0.3" cx="826" cy="413" r="1" fill="white"/>
<circle opacity="0.3" cx="490" cy="749" r="1" fill="white"/>
<circle opacity="0.3" cx="1162" cy="749" r="1" fill="white"/>
<circle opacity="0.3" cx="490" cy="413" r="1" fill="white"/>
<circle opacity="0.3" cx="1162" cy="413" r="1" fill="white"/>
<circle opacity="0.3" cx="154" cy="581" r="1" fill="white"/>
<circle opacity="0.3" cx="826" cy="581" r="1" fill="white"/>
<circle opacity="0.3" cx="154" cy="245" r="1" fill="white"/>
<circle opacity="0.3" cx="154" cy="77" r="1" fill="white"/>
<circle opacity="0.3" cx="826" cy="245" r="1" fill="white"/>
<circle opacity="0.3" cx="826" cy="77" r="1" fill="white"/>
<circle opacity="0.3" cx="490" cy="581" r="1" fill="white"/>
<circle opacity="0.3" cx="1162" cy="581" r="1" fill="white"/>
<circle opacity="0.3" cx="490" cy="245" r="1" fill="white"/>
<circle opacity="0.3" cx="490" cy="77" r="1" fill="white"/>
<circle opacity="0.3" cx="1162" cy="245" r="1" fill="white"/>
<circle opacity="0.3" cx="1162" cy="77" r="1" fill="white"/>
<circle opacity="0.3" cx="658" cy="665" r="1" fill="white"/>
<circle opacity="0.3" cx="658" cy="329" r="1" fill="white"/>
<circle opacity="0.3" cx="322" cy="665" r="1" fill="white"/>
<circle opacity="0.3" cx="994" cy="665" r="1" fill="white"/>
<circle opacity="0.3" cx="322" cy="329" r="1" fill="white"/>
<circle opacity="0.3" cx="994" cy="329" r="1" fill="white"/>
<circle opacity="0.3" cx="658" cy="497" r="1" fill="white"/>
<circle opacity="0.3" cx="658" cy="161" r="1" fill="white"/>
<circle opacity="0.3" cx="322" cy="497" r="1" fill="white"/>
<circle opacity="0.3" cx="994" cy="497" r="1" fill="white"/>
<circle opacity="0.3" cx="322" cy="161" r="1" fill="white"/>
<circle opacity="0.3" cx="994" cy="161" r="1" fill="white"/>
<circle opacity="0.3" cx="154" cy="665" r="1" fill="white"/>
<circle opacity="0.3" cx="826" cy="665" r="1" fill="white"/>
<circle opacity="0.3" cx="154" cy="329" r="1" fill="white"/>
<circle opacity="0.3" cx="826" cy="329" r="1" fill="white"/>
<circle opacity="0.3" cx="490" cy="665" r="1" fill="white"/>
<circle opacity="0.3" cx="1162" cy="665" r="1" fill="white"/>
<circle opacity="0.3" cx="490" cy="329" r="1" fill="white"/>
<circle opacity="0.3" cx="1162" cy="329" r="1" fill="white"/>
<circle opacity="0.3" cx="154" cy="497" r="1" fill="white"/>
<circle opacity="0.3" cx="826" cy="497" r="1" fill="white"/>
<circle opacity="0.3" cx="154" cy="161" r="1" fill="white"/>
<circle opacity="0.3" cx="826" cy="161" r="1" fill="white"/>
<circle opacity="0.3" cx="490" cy="497" r="1" fill="white"/>
<circle opacity="0.3" cx="1162" cy="497" r="1" fill="white"/>
<circle opacity="0.3" cx="490" cy="161" r="1" fill="white"/>
<circle opacity="0.3" cx="1162" cy="161" r="1" fill="white"/>
<circle opacity="0.3" cx="574" cy="707" r="1" fill="white"/>
<circle opacity="0.3" cx="574" cy="371" r="1" fill="white"/>
<circle opacity="0.3" cx="238" cy="707" r="1" fill="white"/>
<circle opacity="0.3" cx="910" cy="707" r="1" fill="white"/>
<circle opacity="0.3" cx="238" cy="371" r="1" fill="white"/>
<circle opacity="0.3" cx="910" cy="371" r="1" fill="white"/>
<circle opacity="0.3" cx="574" cy="539" r="1" fill="white"/>
<circle opacity="0.3" cx="574" cy="203" r="1" fill="white"/>
<circle opacity="0.3" cx="574" cy="35" r="1" fill="white"/>
<circle opacity="0.3" cx="238" cy="539" r="1" fill="white"/>
<circle opacity="0.3" cx="910" cy="539" r="1" fill="white"/>
<circle opacity="0.3" cx="238" cy="203" r="1" fill="white"/>
<circle opacity="0.3" cx="238" cy="35" r="1" fill="white"/>
<circle opacity="0.3" cx="910" cy="203" r="1" fill="white"/>
<circle opacity="0.3" cx="910" cy="35" r="1" fill="white"/>
<circle opacity="0.3" cx="70" cy="707" r="1" fill="white"/>
<circle opacity="0.3" cx="742" cy="707" r="1" fill="white"/>
<circle opacity="0.3" cx="70" cy="371" r="1" fill="white"/>
<circle opacity="0.3" cx="742" cy="371" r="1" fill="white"/>
<circle opacity="0.3" cx="406" cy="707" r="1" fill="white"/>
<circle opacity="0.3" cx="1078" cy="707" r="1" fill="white"/>
<circle opacity="0.3" cx="406" cy="371" r="1" fill="white"/>
<circle opacity="0.3" cx="1078" cy="371" r="1" fill="white"/>
<circle opacity="0.3" cx="70" cy="539" r="1" fill="white"/>
<circle opacity="0.3" cx="742" cy="539" r="1" fill="white"/>
<circle opacity="0.3" cx="70" cy="203" r="1" fill="white"/>
<circle opacity="0.3" cx="70" cy="35" r="1" fill="white"/>
<circle opacity="0.3" cx="742" cy="203" r="1" fill="white"/>
<circle opacity="0.3" cx="742" cy="35" r="1" fill="white"/>
<circle opacity="0.3" cx="406" cy="539" r="1" fill="white"/>
<circle opacity="0.3" cx="1078" cy="539" r="1" fill="white"/>
<circle opacity="0.3" cx="406" cy="203" r="1" fill="white"/>
<circle opacity="0.3" cx="406" cy="35" r="1" fill="white"/>
<circle opacity="0.3" cx="1078" cy="203" r="1" fill="white"/>
<circle opacity="0.3" cx="1078" cy="35" r="1" fill="white"/>
<circle opacity="0.3" cx="574" cy="623" r="1" fill="white"/>
<circle opacity="0.3" cx="574" cy="287" r="1" fill="white"/>
<circle opacity="0.3" cx="238" cy="623" r="1" fill="white"/>
<circle opacity="0.3" cx="910" cy="623" r="1" fill="white"/>
<circle opacity="0.3" cx="238" cy="287" r="1" fill="white"/>
<circle opacity="0.3" cx="910" cy="287" r="1" fill="white"/>
<circle opacity="0.3" cx="574" cy="455" r="1" fill="white"/>
<circle opacity="0.3" cx="574" cy="119" r="1" fill="white"/>
<circle opacity="0.3" cx="238" cy="455" r="1" fill="white"/>
<circle opacity="0.3" cx="910" cy="455" r="1" fill="white"/>
<circle opacity="0.3" cx="238" cy="119" r="1" fill="white"/>
<circle opacity="0.3" cx="910" cy="119" r="1" fill="white"/>
<circle opacity="0.3" cx="70" cy="623" r="1" fill="white"/>
<circle opacity="0.3" cx="742" cy="623" r="1" fill="white"/>
<circle opacity="0.3" cx="70" cy="287" r="1" fill="white"/>
<circle opacity="0.3" cx="742" cy="287" r="1" fill="white"/>
<circle opacity="0.3" cx="406" cy="623" r="1" fill="white"/>
<circle opacity="0.3" cx="1078" cy="623" r="1" fill="white"/>
<circle opacity="0.3" cx="406" cy="287" r="1" fill="white"/>
<circle opacity="0.3" cx="1078" cy="287" r="1" fill="white"/>
<circle opacity="0.3" cx="70" cy="455" r="1" fill="white"/>
<circle opacity="0.3" cx="742" cy="455" r="1" fill="white"/>
<circle opacity="0.3" cx="70" cy="119" r="1" fill="white"/>
<circle opacity="0.3" cx="742" cy="119" r="1" fill="white"/>
<circle opacity="0.3" cx="406" cy="455" r="1" fill="white"/>
<circle opacity="0.3" cx="1078" cy="455" r="1" fill="white"/>
<circle opacity="0.3" cx="406" cy="119" r="1" fill="white"/>
<circle opacity="0.3" cx="1078" cy="119" r="1" fill="white"/>
<circle opacity="0.3" cx="658" cy="707" r="1" fill="white"/>
<circle opacity="0.3" cx="658" cy="371" r="1" fill="white"/>
<circle opacity="0.3" cx="322" cy="707" r="1" fill="white"/>
<circle opacity="0.3" cx="994" cy="707" r="1" fill="white"/>
<circle opacity="0.3" cx="322" cy="371" r="1" fill="white"/>
<circle opacity="0.3" cx="994" cy="371" r="1" fill="white"/>
<circle opacity="0.3" cx="658" cy="539" r="1" fill="white"/>
<circle opacity="0.3" cx="658" cy="203" r="1" fill="white"/>
<circle opacity="0.3" cx="658" cy="35" r="1" fill="white"/>
<circle opacity="0.3" cx="322" cy="539" r="1" fill="white"/>
<circle opacity="0.3" cx="994" cy="539" r="1" fill="white"/>
<circle opacity="0.3" cx="322" cy="203" r="1" fill="white"/>
<circle opacity="0.3" cx="322" cy="35" r="1" fill="white"/>
<circle opacity="0.3" cx="994" cy="203" r="1" fill="white"/>
<circle opacity="0.3" cx="994" cy="35" r="1" fill="white"/>
<circle opacity="0.3" cx="154" cy="707" r="1" fill="white"/>
<circle opacity="0.3" cx="826" cy="707" r="1" fill="white"/>
<circle opacity="0.3" cx="154" cy="371" r="1" fill="white"/>
<circle opacity="0.3" cx="826" cy="371" r="1" fill="white"/>
<circle opacity="0.3" cx="490" cy="707" r="1" fill="white"/>
<circle opacity="0.3" cx="1162" cy="707" r="1" fill="white"/>
<circle opacity="0.3" cx="490" cy="371" r="1" fill="white"/>
<circle opacity="0.3" cx="1162" cy="371" r="1" fill="white"/>
<circle opacity="0.3" cx="154" cy="539" r="1" fill="white"/>
<circle opacity="0.3" cx="826" cy="539" r="1" fill="white"/>
<circle opacity="0.3" cx="154" cy="203" r="1" fill="white"/>
<circle opacity="0.3" cx="154" cy="35" r="1" fill="white"/>
<circle opacity="0.3" cx="826" cy="203" r="1" fill="white"/>
<circle opacity="0.3" cx="826" cy="35" r="1" fill="white"/>
<circle opacity="0.3" cx="490" cy="539" r="1" fill="white"/>
<circle opacity="0.3" cx="1162" cy="539" r="1" fill="white"/>
<circle opacity="0.3" cx="490" cy="203" r="1" fill="white"/>
<circle opacity="0.3" cx="490" cy="35" r="1" fill="white"/>
<circle opacity="0.3" cx="1162" cy="203" r="1" fill="white"/>
<circle opacity="0.3" cx="1162" cy="35" r="1" fill="white"/>
<circle opacity="0.3" cx="658" cy="623" r="1" fill="white"/>
<circle opacity="0.3" cx="658" cy="287" r="1" fill="white"/>
<circle opacity="0.3" cx="322" cy="623" r="1" fill="white"/>
<circle opacity="0.3" cx="994" cy="623" r="1" fill="white"/>
<circle opacity="0.3" cx="322" cy="287" r="1" fill="white"/>
<circle opacity="0.3" cx="994" cy="287" r="1" fill="white"/>
<circle opacity="0.3" cx="658" cy="455" r="1" fill="white"/>
<circle opacity="0.3" cx="658" cy="119" r="1" fill="white"/>
<circle opacity="0.3" cx="322" cy="455" r="1" fill="white"/>
<circle opacity="0.3" cx="994" cy="455" r="1" fill="white"/>
<circle opacity="0.3" cx="322" cy="119" r="1" fill="white"/>
<circle opacity="0.3" cx="994" cy="119" r="1" fill="white"/>
<circle opacity="0.3" cx="154" cy="623" r="1" fill="white"/>
<circle opacity="0.3" cx="826" cy="623" r="1" fill="white"/>
<circle opacity="0.3" cx="154" cy="287" r="1" fill="white"/>
<circle opacity="0.3" cx="826" cy="287" r="1" fill="white"/>
<circle opacity="0.3" cx="490" cy="623" r="1" fill="white"/>
<circle opacity="0.3" cx="1162" cy="623" r="1" fill="white"/>
<circle opacity="0.3" cx="490" cy="287" r="1" fill="white"/>
<circle opacity="0.3" cx="1162" cy="287" r="1" fill="white"/>
<circle opacity="0.3" cx="154" cy="455" r="1" fill="white"/>
<circle opacity="0.3" cx="826" cy="455" r="1" fill="white"/>
<circle opacity="0.3" cx="154" cy="119" r="1" fill="white"/>
<circle opacity="0.3" cx="826" cy="119" r="1" fill="white"/>
<circle opacity="0.3" cx="490" cy="455" r="1" fill="white"/>
<circle opacity="0.3" cx="1162" cy="455" r="1" fill="white"/>
<circle opacity="0.3" cx="490" cy="119" r="1" fill="white"/>
<circle opacity="0.3" cx="1162" cy="119" r="1" fill="white"/>
<circle opacity="0.3" cx="616" cy="749" r="1" fill="white"/>
<circle opacity="0.3" cx="616" cy="413" r="1" fill="white"/>
<circle opacity="0.3" cx="280" cy="749" r="1" fill="white"/>
<circle opacity="0.3" cx="952" cy="749" r="1" fill="white"/>
<circle opacity="0.3" cx="280" cy="413" r="1" fill="white"/>
<circle opacity="0.3" cx="952" cy="413" r="1" fill="white"/>
<circle opacity="0.3" cx="616" cy="581" r="1" fill="white"/>
<circle opacity="0.3" cx="616" cy="245" r="1" fill="white"/>
<circle opacity="0.3" cx="616" cy="77" r="1" fill="white"/>
<circle opacity="0.3" cx="280" cy="581" r="1" fill="white"/>
<circle opacity="0.3" cx="952" cy="581" r="1" fill="white"/>
<circle opacity="0.3" cx="280" cy="245" r="1" fill="white"/>
<circle opacity="0.3" cx="280" cy="77" r="1" fill="white"/>
<circle opacity="0.3" cx="952" cy="245" r="1" fill="white"/>
<circle opacity="0.3" cx="952" cy="77" r="1" fill="white"/>
<circle opacity="0.3" cx="112" cy="749" r="1" fill="white"/>
<circle opacity="0.3" cx="784" cy="749" r="1" fill="white"/>
<circle opacity="0.3" cx="112" cy="413" r="1" fill="white"/>
<circle opacity="0.3" cx="784" cy="413" r="1" fill="white"/>
<circle opacity="0.3" cx="448" cy="749" r="1" fill="white"/>
<circle opacity="0.3" cx="1120" cy="749" r="1" fill="white"/>
<circle opacity="0.3" cx="448" cy="413" r="1" fill="white"/>
<circle opacity="0.3" cx="1120" cy="413" r="1" fill="white"/>
<circle opacity="0.3" cx="112" cy="581" r="1" fill="white"/>
<circle opacity="0.3" cx="784" cy="581" r="1" fill="white"/>
<circle opacity="0.3" cx="112" cy="245" r="1" fill="white"/>
<circle opacity="0.3" cx="112" cy="77" r="1" fill="white"/>
<circle opacity="0.3" cx="784" cy="245" r="1" fill="white"/>
<circle opacity="0.3" cx="784" cy="77" r="1" fill="white"/>
<circle opacity="0.3" cx="448" cy="581" r="1" fill="white"/>
<circle opacity="0.3" cx="1120" cy="581" r="1" fill="white"/>
<circle opacity="0.3" cx="448" cy="245" r="1" fill="white"/>
<circle opacity="0.3" cx="448" cy="77" r="1" fill="white"/>
<circle opacity="0.3" cx="1120" cy="245" r="1" fill="white"/>
<circle opacity="0.3" cx="1120" cy="77" r="1" fill="white"/>
<circle opacity="0.3" cx="616" cy="665" r="1" fill="white"/>
<circle opacity="0.3" cx="616" cy="329" r="1" fill="white"/>
<circle opacity="0.3" cx="280" cy="665" r="1" fill="white"/>
<circle opacity="0.3" cx="952" cy="665" r="1" fill="white"/>
<circle opacity="0.3" cx="280" cy="329" r="1" fill="white"/>
<circle opacity="0.3" cx="952" cy="329" r="1" fill="white"/>
<circle opacity="0.3" cx="616" cy="497" r="1" fill="white"/>
<circle opacity="0.3" cx="616" cy="161" r="1" fill="white"/>
<circle opacity="0.3" cx="280" cy="497" r="1" fill="white"/>
<circle opacity="0.3" cx="952" cy="497" r="1" fill="white"/>
<circle opacity="0.3" cx="280" cy="161" r="1" fill="white"/>
<circle opacity="0.3" cx="952" cy="161" r="1" fill="white"/>
<circle opacity="0.3" cx="112" cy="665" r="1" fill="white"/>
<circle opacity="0.3" cx="784" cy="665" r="1" fill="white"/>
<circle opacity="0.3" cx="112" cy="329" r="1" fill="white"/>
<circle opacity="0.3" cx="784" cy="329" r="1" fill="white"/>
<circle opacity="0.3" cx="448" cy="665" r="1" fill="white"/>
<circle opacity="0.3" cx="1120" cy="665" r="1" fill="white"/>
<circle opacity="0.3" cx="448" cy="329" r="1" fill="white"/>
<circle opacity="0.3" cx="1120" cy="329" r="1" fill="white"/>
<circle opacity="0.3" cx="112" cy="497" r="1" fill="white"/>
<circle opacity="0.3" cx="784" cy="497" r="1" fill="white"/>
<circle opacity="0.3" cx="112" cy="161" r="1" fill="white"/>
<circle opacity="0.3" cx="784" cy="161" r="1" fill="white"/>
<circle opacity="0.3" cx="448" cy="497" r="1" fill="white"/>
<circle opacity="0.3" cx="1120" cy="497" r="1" fill="white"/>
<circle opacity="0.3" cx="448" cy="161" r="1" fill="white"/>
<circle opacity="0.3" cx="1120" cy="161" r="1" fill="white"/>
<circle opacity="0.3" cx="28" cy="749" r="1" fill="white"/>
<circle opacity="0.3" cx="700" cy="749" r="1" fill="white"/>
<circle opacity="0.3" cx="28" cy="413" r="1" fill="white"/>
<circle opacity="0.3" cx="700" cy="413" r="1" fill="white"/>
<circle opacity="0.3" cx="364" cy="749" r="1" fill="white"/>
<circle opacity="0.3" cx="1036" cy="749" r="1" fill="white"/>
<circle opacity="0.3" cx="364" cy="413" r="1" fill="white"/>
<circle opacity="0.3" cx="1036" cy="413" r="1" fill="white"/>
<circle opacity="0.3" cx="28" cy="581" r="1" fill="white"/>
<circle opacity="0.3" cx="700" cy="581" r="1" fill="white"/>
<circle opacity="0.3" cx="28" cy="245" r="1" fill="white"/>
<circle opacity="0.3" cx="28" cy="77" r="1" fill="white"/>
<circle opacity="0.3" cx="700" cy="245" r="1" fill="white"/>
<circle opacity="0.3" cx="700" cy="77" r="1" fill="white"/>
<circle opacity="0.3" cx="364" cy="581" r="1" fill="white"/>
<circle opacity="0.3" cx="1036" cy="581" r="1" fill="white"/>
<circle opacity="0.3" cx="364" cy="245" r="1" fill="white"/>
<circle opacity="0.3" cx="364" cy="77" r="1" fill="white"/>
<circle opacity="0.3" cx="1036" cy="245" r="1" fill="white"/>
<circle opacity="0.3" cx="1036" cy="77" r="1" fill="white"/>
<circle opacity="0.3" cx="196" cy="749" r="1" fill="white"/>
<circle opacity="0.3" cx="868" cy="749" r="1" fill="white"/>
<circle opacity="0.3" cx="196" cy="413" r="1" fill="white"/>
<circle opacity="0.3" cx="868" cy="413" r="1" fill="white"/>
<circle opacity="0.3" cx="532" cy="749" r="1" fill="white"/>
<circle opacity="0.3" cx="1204" cy="749" r="1" fill="white"/>
<circle opacity="0.3" cx="532" cy="413" r="1" fill="white"/>
<circle opacity="0.3" cx="1204" cy="413" r="1" fill="white"/>
<circle opacity="0.3" cx="196" cy="581" r="1" fill="white"/>
<circle opacity="0.3" cx="868" cy="581" r="1" fill="white"/>
<circle opacity="0.3" cx="196" cy="245" r="1" fill="white"/>
<circle opacity="0.3" cx="196" cy="77" r="1" fill="white"/>
<circle opacity="0.3" cx="868" cy="245" r="1" fill="white"/>
<circle opacity="0.3" cx="868" cy="77" r="1" fill="white"/>
<circle opacity="0.3" cx="532" cy="581" r="1" fill="white"/>
<circle opacity="0.3" cx="1204" cy="581" r="1" fill="white"/>
<circle opacity="0.3" cx="532" cy="245" r="1" fill="white"/>
<circle opacity="0.3" cx="532" cy="77" r="1" fill="white"/>
<circle opacity="0.3" cx="1204" cy="245" r="1" fill="white"/>
<circle opacity="0.3" cx="1204" cy="77" r="1" fill="white"/>
<circle opacity="0.3" cx="28" cy="665" r="1" fill="white"/>
<circle opacity="0.3" cx="700" cy="665" r="1" fill="white"/>
<circle opacity="0.3" cx="28" cy="329" r="1" fill="white"/>
<circle opacity="0.3" cx="700" cy="329" r="1" fill="white"/>
<circle opacity="0.3" cx="364" cy="665" r="1" fill="white"/>
<circle opacity="0.3" cx="1036" cy="665" r="1" fill="white"/>
<circle opacity="0.3" cx="364" cy="329" r="1" fill="white"/>
<circle opacity="0.3" cx="1036" cy="329" r="1" fill="white"/>
<circle opacity="0.3" cx="28" cy="497" r="1" fill="white"/>
<circle opacity="0.3" cx="700" cy="497" r="1" fill="white"/>
<circle opacity="0.3" cx="28" cy="161" r="1" fill="white"/>
<circle opacity="0.3" cx="700" cy="161" r="1" fill="white"/>
<circle opacity="0.3" cx="364" cy="497" r="1" fill="white"/>
<circle opacity="0.3" cx="1036" cy="497" r="1" fill="white"/>
<circle opacity="0.3" cx="364" cy="161" r="1" fill="white"/>
<circle opacity="0.3" cx="1036" cy="161" r="1" fill="white"/>
<circle opacity="0.3" cx="196" cy="665" r="1" fill="white"/>
<circle opacity="0.3" cx="868" cy="665" r="1" fill="white"/>
<circle opacity="0.3" cx="196" cy="329" r="1" fill="white"/>
<circle opacity="0.3" cx="868" cy="329" r="1" fill="white"/>
<circle opacity="0.3" cx="532" cy="665" r="1" fill="white"/>
<circle opacity="0.3" cx="1204" cy="665" r="1" fill="white"/>
<circle opacity="0.3" cx="532" cy="329" r="1" fill="white"/>
<circle opacity="0.3" cx="1204" cy="329" r="1" fill="white"/>
<circle opacity="0.3" cx="196" cy="497" r="1" fill="white"/>
<circle opacity="0.3" cx="868" cy="497" r="1" fill="white"/>
<circle opacity="0.3" cx="196" cy="161" r="1" fill="white"/>
<circle opacity="0.3" cx="868" cy="161" r="1" fill="white"/>
<circle opacity="0.3" cx="532" cy="497" r="1" fill="white"/>
<circle opacity="0.3" cx="1204" cy="497" r="1" fill="white"/>
<circle opacity="0.3" cx="532" cy="161" r="1" fill="white"/>
<circle opacity="0.3" cx="1204" cy="161" r="1" fill="white"/>
<circle opacity="0.3" cx="616" cy="707" r="1" fill="white"/>
<circle opacity="0.3" cx="616" cy="371" r="1" fill="white"/>
<circle opacity="0.3" cx="280" cy="707" r="1" fill="white"/>
<circle opacity="0.3" cx="952" cy="707" r="1" fill="white"/>
<circle opacity="0.3" cx="280" cy="371" r="1" fill="white"/>
<circle opacity="0.3" cx="952" cy="371" r="1" fill="white"/>
<circle opacity="0.3" cx="616" cy="539" r="1" fill="white"/>
<circle opacity="0.3" cx="616" cy="203" r="1" fill="white"/>
<circle opacity="0.3" cx="616" cy="35" r="1" fill="white"/>
<circle opacity="0.3" cx="280" cy="539" r="1" fill="white"/>
<circle opacity="0.3" cx="952" cy="539" r="1" fill="white"/>
<circle opacity="0.3" cx="280" cy="203" r="1" fill="white"/>
<circle opacity="0.3" cx="280" cy="35" r="1" fill="white"/>
<circle opacity="0.3" cx="952" cy="203" r="1" fill="white"/>
<circle opacity="0.3" cx="952" cy="35" r="1" fill="white"/>
<circle opacity="0.3" cx="112" cy="707" r="1" fill="white"/>
<circle opacity="0.3" cx="784" cy="707" r="1" fill="white"/>
<circle opacity="0.3" cx="112" cy="371" r="1" fill="white"/>
<circle opacity="0.3" cx="784" cy="371" r="1" fill="white"/>
<circle opacity="0.3" cx="448" cy="707" r="1" fill="white"/>
<circle opacity="0.3" cx="1120" cy="707" r="1" fill="white"/>
<circle opacity="0.3" cx="448" cy="371" r="1" fill="white"/>
<circle opacity="0.3" cx="1120" cy="371" r="1" fill="white"/>
<circle opacity="0.3" cx="112" cy="539" r="1" fill="white"/>
<circle opacity="0.3" cx="784" cy="539" r="1" fill="white"/>
<circle opacity="0.3" cx="112" cy="203" r="1" fill="white"/>
<circle opacity="0.3" cx="112" cy="35" r="1" fill="white"/>
<circle opacity="0.3" cx="784" cy="203" r="1" fill="white"/>
<circle opacity="0.3" cx="784" cy="35" r="1" fill="white"/>
<circle opacity="0.3" cx="448" cy="539" r="1" fill="white"/>
<circle opacity="0.3" cx="1120" cy="539" r="1" fill="white"/>
<circle opacity="0.3" cx="448" cy="203" r="1" fill="white"/>
<circle opacity="0.3" cx="448" cy="35" r="1" fill="white"/>
<circle opacity="0.3" cx="1120" cy="203" r="1" fill="white"/>
<circle opacity="0.3" cx="1120" cy="35" r="1" fill="white"/>
<circle opacity="0.3" cx="616" cy="623" r="1" fill="white"/>
<circle opacity="0.3" cx="616" cy="287" r="1" fill="white"/>
<circle opacity="0.3" cx="280" cy="623" r="1" fill="white"/>
<circle opacity="0.3" cx="952" cy="623" r="1" fill="white"/>
<circle opacity="0.3" cx="280" cy="287" r="1" fill="white"/>
<circle opacity="0.3" cx="952" cy="287" r="1" fill="white"/>
<circle opacity="0.3" cx="616" cy="455" r="1" fill="white"/>
<circle opacity="0.3" cx="616" cy="119" r="1" fill="white"/>
<circle opacity="0.3" cx="280" cy="455" r="1" fill="white"/>
<circle opacity="0.3" cx="952" cy="455" r="1" fill="white"/>
<circle opacity="0.3" cx="280" cy="119" r="1" fill="white"/>
<circle opacity="0.3" cx="952" cy="119" r="1" fill="white"/>
<circle opacity="0.3" cx="112" cy="623" r="1" fill="white"/>
<circle opacity="0.3" cx="784" cy="623" r="1" fill="white"/>
<circle opacity="0.3" cx="112" cy="287" r="1" fill="white"/>
<circle opacity="0.3" cx="784" cy="287" r="1" fill="white"/>
<circle opacity="0.3" cx="448" cy="623" r="1" fill="white"/>
<circle opacity="0.3" cx="1120" cy="623" r="1" fill="white"/>
<circle opacity="0.3" cx="448" cy="287" r="1" fill="white"/>
<circle opacity="0.3" cx="1120" cy="287" r="1" fill="white"/>
<circle opacity="0.3" cx="112" cy="455" r="1" fill="white"/>
<circle opacity="0.3" cx="784" cy="455" r="1" fill="white"/>
<circle opacity="0.3" cx="112" cy="119" r="1" fill="white"/>
<circle opacity="0.3" cx="784" cy="119" r="1" fill="white"/>
<circle opacity="0.3" cx="448" cy="455" r="1" fill="white"/>
<circle opacity="0.3" cx="1120" cy="455" r="1" fill="white"/>
<circle opacity="0.3" cx="448" cy="119" r="1" fill="white"/>
<circle opacity="0.3" cx="1120" cy="119" r="1" fill="white"/>
<circle opacity="0.3" cx="28" cy="707" r="1" fill="white"/>
<circle opacity="0.3" cx="700" cy="707" r="1" fill="white"/>
<circle opacity="0.3" cx="28" cy="371" r="1" fill="white"/>
<circle opacity="0.3" cx="700" cy="371" r="1" fill="white"/>
<circle opacity="0.3" cx="364" cy="707" r="1" fill="white"/>
<circle opacity="0.3" cx="1036" cy="707" r="1" fill="white"/>
<circle opacity="0.3" cx="364" cy="371" r="1" fill="white"/>
<circle opacity="0.3" cx="1036" cy="371" r="1" fill="white"/>
<circle opacity="0.3" cx="28" cy="539" r="1" fill="white"/>
<circle opacity="0.3" cx="700" cy="539" r="1" fill="white"/>
<circle opacity="0.3" cx="28" cy="203" r="1" fill="white"/>
<circle opacity="0.3" cx="28" cy="35" r="1" fill="white"/>
<circle opacity="0.3" cx="700" cy="203" r="1" fill="white"/>
<circle opacity="0.3" cx="700" cy="35" r="1" fill="white"/>
<circle opacity="0.3" cx="364" cy="539" r="1" fill="white"/>
<circle opacity="0.3" cx="1036" cy="539" r="1" fill="white"/>
<circle opacity="0.3" cx="364" cy="203" r="1" fill="white"/>
<circle opacity="0.3" cx="364" cy="35" r="1" fill="white"/>
<circle opacity="0.3" cx="1036" cy="203" r="1" fill="white"/>
<circle opacity="0.3" cx="1036" cy="35" r="1" fill="white"/>
<circle opacity="0.3" cx="196" cy="707" r="1" fill="white"/>
<circle opacity="0.3" cx="868" cy="707" r="1" fill="white"/>
<circle opacity="0.3" cx="196" cy="371" r="1" fill="white"/>
<circle opacity="0.3" cx="868" cy="371" r="1" fill="white"/>
<circle opacity="0.3" cx="532" cy="707" r="1" fill="white"/>
<circle opacity="0.3" cx="1204" cy="707" r="1" fill="white"/>
<circle opacity="0.3" cx="532" cy="371" r="1" fill="white"/>
<circle opacity="0.3" cx="1204" cy="371" r="1" fill="white"/>
<circle opacity="0.3" cx="196" cy="539" r="1" fill="white"/>
<circle opacity="0.3" cx="868" cy="539" r="1" fill="white"/>
<circle opacity="0.3" cx="196" cy="203" r="1" fill="white"/>
<circle opacity="0.3" cx="196" cy="35" r="1" fill="white"/>
<circle opacity="0.3" cx="868" cy="203" r="1" fill="white"/>
<circle opacity="0.3" cx="868" cy="35" r="1" fill="white"/>
<circle opacity="0.3" cx="532" cy="539" r="1" fill="white"/>
<circle opacity="0.3" cx="1204" cy="539" r="1" fill="white"/>
<circle opacity="0.3" cx="532" cy="203" r="1" fill="white"/>
<circle opacity="0.3" cx="532" cy="35" r="1" fill="white"/>
<circle opacity="0.3" cx="1204" cy="203" r="1" fill="white"/>
<circle opacity="0.3" cx="1204" cy="35" r="1" fill="white"/>
<circle opacity="0.3" cx="28" cy="623" r="1" fill="white"/>
<circle opacity="0.3" cx="700" cy="623" r="1" fill="white"/>
<circle opacity="0.3" cx="28" cy="287" r="1" fill="white"/>
<circle opacity="0.3" cx="700" cy="287" r="1" fill="white"/>
<circle opacity="0.3" cx="364" cy="623" r="1" fill="white"/>
<circle opacity="0.3" cx="1036" cy="623" r="1" fill="white"/>
<circle opacity="0.3" cx="364" cy="287" r="1" fill="white"/>
<circle opacity="0.3" cx="1036" cy="287" r="1" fill="white"/>
<circle opacity="0.3" cx="28" cy="455" r="1" fill="white"/>
<circle opacity="0.3" cx="700" cy="455" r="1" fill="white"/>
<circle opacity="0.3" cx="28" cy="119" r="1" fill="white"/>
<circle opacity="0.3" cx="700" cy="119" r="1" fill="white"/>
<circle opacity="0.3" cx="364" cy="455" r="1" fill="white"/>
<circle opacity="0.3" cx="1036" cy="455" r="1" fill="white"/>
<circle opacity="0.3" cx="364" cy="119" r="1" fill="white"/>
<circle opacity="0.3" cx="1036" cy="119" r="1" fill="white"/>
<circle opacity="0.3" cx="196" cy="623" r="1" fill="white"/>
<circle opacity="0.3" cx="868" cy="623" r="1" fill="white"/>
<circle opacity="0.3" cx="196" cy="287" r="1" fill="white"/>
<circle opacity="0.3" cx="868" cy="287" r="1" fill="white"/>
<circle opacity="0.3" cx="532" cy="623" r="1" fill="white"/>
<circle opacity="0.3" cx="1204" cy="623" r="1" fill="white"/>
<circle opacity="0.3" cx="532" cy="287" r="1" fill="white"/>
<circle opacity="0.3" cx="1204" cy="287" r="1" fill="white"/>
<circle opacity="0.3" cx="196" cy="455" r="1" fill="white"/>
<circle opacity="0.3" cx="868" cy="455" r="1" fill="white"/>
<circle opacity="0.3" cx="196" cy="119" r="1" fill="white"/>
<circle opacity="0.3" cx="868" cy="119" r="1" fill="white"/>
<circle opacity="0.3" cx="532" cy="455" r="1" fill="white"/>
<circle opacity="0.3" cx="1204" cy="455" r="1" fill="white"/>
<circle opacity="0.3" cx="532" cy="119" r="1" fill="white"/>
<circle opacity="0.3" cx="1204" cy="119" r="1" fill="white"/>
</svg>
