<svg width="108" height="585" viewBox="0 0 108 585" fill="none" xmlns="http://www.w3.org/2000/svg">
<path fill-rule="evenodd" clip-rule="evenodd" d="M88.5562 55.582L19.6442 46.968C14.3882 46.384 10.3002 44.194 7.08816 40.69C3.87617 37.04 2.41617 32.66 2.41617 27.55L2.41617 18.06C2.41617 12.804 3.87617 8.86199 7.08817 6.08799C10.3002 3.16799 14.3882 2.14599 19.6442 2.87599L88.5562 11.344C93.6662 11.928 97.7542 14.118 100.966 17.622C104.178 21.126 105.784 25.652 105.784 30.908L105.784 40.398C105.784 45.508 104.178 49.45 100.966 52.224C97.7542 54.998 93.6662 56.166 88.5562 55.582ZM88.7833 9.35693C88.7861 9.35726 88.789 9.35759 88.7919 9.35791C94.3848 9.99905 98.9103 12.4194 102.44 16.2705C106.037 20.1941 107.784 25.2249 107.784 30.908L107.784 40.398C107.784 45.9594 106.015 50.5063 102.273 53.7376C98.5716 56.9347 93.8997 58.2057 88.3291 57.5691L88.3186 57.5679L19.4095 48.9542C13.6765 48.3142 9.14837 45.8973 5.61386 42.0414L5.60014 42.0265L5.58674 42.0112C2.00941 37.9461 0.416167 33.0754 0.416167 27.55L0.416167 18.06C0.416168 12.4245 1.9965 7.85369 5.76157 4.59109C9.51077 1.19339 14.2323 0.108401 19.9034 0.892803L88.7833 9.35693ZM20.6965 22.0869L20.6753 22.0839C20.3972 22.0442 20.204 22.0382 20.0776 22.0443C20.0568 22.1589 20.0382 22.3336 20.0382 22.586L20.0382 26.966C20.0382 27.6227 20.189 27.8725 20.2641 27.962C20.3297 28.0403 20.5407 28.2409 21.2219 28.3413L87.5146 36.3724L87.5463 36.3773C87.8466 36.4235 88.0171 36.4115 88.1011 36.3962C88.1274 36.3177 88.1622 36.1586 88.1622 35.872L88.1622 31.492C88.1622 30.8007 87.9945 30.5685 87.9273 30.4939C87.848 30.4058 87.6187 30.2199 86.9669 30.1153L20.6965 22.0869ZM87.2422 28.134C89.1402 28.426 90.1622 29.448 90.1622 31.492L90.1622 35.872C90.1622 37.77 89.1402 38.646 87.2422 38.354L20.9582 30.324C18.9142 30.032 18.0382 28.864 18.0382 26.966L18.0382 22.586C18.0382 20.542 18.9142 19.812 20.9582 20.104L87.2422 28.134ZM88.0722 36.4606C88.0719 36.4604 88.0739 36.4568 88.0787 36.4505C88.0748 36.4577 88.0724 36.4608 88.0722 36.4606ZM88.1591 36.3815C88.165 36.3783 88.1683 36.3771 88.1684 36.3773C88.1686 36.3775 88.1656 36.3791 88.1591 36.3815ZM1.00016 90.3571L1.00017 53.0361L107.2 66.0835L107.2 87.0502L19.4542 76.2462L19.4542 92.5939L1.00016 90.3571ZM17.4542 73.9848L105.2 84.7888L105.2 67.8528L3.00017 55.2968L3.00016 88.5848L17.4542 90.3368L17.4542 73.9848ZM5.60014 134.845L5.58674 134.83C2.0094 130.764 0.416163 125.894 0.416163 120.368L0.416163 110.878C0.416164 105.243 1.99652 100.672 5.76162 97.4094C9.51086 94.0117 14.2324 92.9267 19.9036 93.7112L88.7833 102.175C88.786 102.176 88.7888 102.176 88.7916 102.176C94.3846 102.817 98.9102 105.238 102.44 109.089C106.037 113.012 107.784 118.043 107.784 123.726L107.784 133.216C107.784 138.778 106.015 143.325 102.273 146.556C98.5716 149.753 93.8997 151.024 88.3291 150.387L88.3195 150.386L67.7222 147.832L67.7222 126.717L87.5183 129.191L87.5463 129.196C87.8466 129.242 88.0171 129.23 88.1011 129.215C88.1274 129.136 88.1622 128.977 88.1622 128.69L88.1622 124.31C88.1622 123.619 87.9945 123.387 87.9273 123.312C87.848 123.224 87.6188 123.038 86.967 122.934L20.6965 114.905L20.6753 114.902C20.3972 114.863 20.204 114.857 20.0776 114.863C20.0568 114.977 20.0382 115.152 20.0382 115.404L20.0382 119.784C20.0382 120.441 20.189 120.691 20.264 120.78C20.3297 120.859 20.5403 121.059 21.2201 121.159L41.0042 123.518L41.0042 117.696L59.4582 119.746L59.4582 146.721L19.4233 141.774C19.419 141.774 19.4147 141.773 19.4104 141.773C13.677 141.133 9.14855 138.716 5.61386 134.86L5.60014 134.845ZM43.0042 125.77L20.9582 123.142C18.9142 122.85 18.0382 121.682 18.0382 119.784L18.0382 115.404C18.0382 113.36 18.9142 112.63 20.9582 112.922L87.2422 120.952C89.1402 121.244 90.1622 122.266 90.1622 124.31L90.1622 128.69C90.1622 130.588 89.1402 131.464 87.2422 131.172L69.7222 128.982L69.7222 146.064L88.5562 148.4C93.6662 148.984 97.7542 147.816 100.966 145.042C104.178 142.268 105.784 138.326 105.784 133.216L105.784 123.726C105.784 118.47 104.178 113.944 100.966 110.44C97.7542 106.936 93.6662 104.746 88.5562 104.162L19.6442 95.6943C14.3882 94.9644 10.3002 95.9863 7.08816 98.9063C3.87616 101.68 2.41616 105.622 2.41616 110.878L2.41616 120.368C2.41616 125.478 3.87616 129.858 7.08816 133.508C10.3002 137.012 14.3882 139.202 19.6442 139.786L57.4582 144.458L57.4582 121.536L43.0042 119.93L43.0042 125.77ZM88.0722 129.279C88.072 129.279 88.0739 129.275 88.0786 129.269C88.0748 129.276 88.0724 129.279 88.0722 129.279ZM88.1591 129.2C88.165 129.197 88.1682 129.195 88.1684 129.196C88.1686 129.196 88.1657 129.197 88.1591 129.2ZM1.00016 159.094L1.00016 139.327L107.2 165.725L107.2 191.916L1.00016 192.068L1.00016 172.27L22.9002 172.562L22.9002 164.204L1.00016 159.094ZM24.9002 162.617L3.00016 157.507L3.00016 141.885L105.2 167.289L105.2 189.919L3.00016 190.065L3.00016 174.297L24.9002 174.589L24.9002 162.617ZM39.3542 166.121L39.3542 174.881L72.2042 175.319C75.7193 175.319 79.4504 175.535 83.4902 176.06C84.1331 176.143 84.7838 176.234 85.4427 176.334C85.4585 176.336 85.4743 176.339 85.4902 176.341L85.4902 176.049L85.4886 176.049C80.2436 175.175 75.8709 174.446 72.2255 173.717C72.2184 173.716 72.2113 173.715 72.2042 173.713L39.3542 166.121ZM60.9684 173.169L41.3542 168.636L41.3542 172.908L60.9684 173.169ZM18.8243 270.663L18.8195 270.662C13.5001 270.018 9.09298 267.578 5.84372 263.679C2.5836 259.767 1.00016 254.915 1.00016 249.405L1.00016 220.28L107.2 233.328L107.2 261.231C107.2 266.745 105.612 271.217 102.416 274.58L102.399 274.599L102.38 274.617C99.114 277.884 94.8386 279.183 89.8235 278.698L89.7914 278.695L69.4977 276.067C63.8104 275.516 59.3198 272.894 56.2071 268.492C54.9267 270.066 53.3927 271.315 51.6013 272.19C48.8576 273.529 45.6737 273.91 42.168 273.435C42.162 273.434 42.156 273.433 42.1499 273.433L18.8243 270.663ZM42.4202 271.451C47.9807 272.209 52.2285 270.561 55.069 266.695C55.5101 266.095 55.9173 265.441 56.2902 264.735C56.6453 265.445 57.0291 266.117 57.4413 266.75C60.2493 271.062 64.3751 273.57 69.7222 274.079L90.0162 276.707C94.5422 277.145 98.1922 275.977 100.966 273.203C103.74 270.283 105.2 266.341 105.2 261.231L105.2 235.097L3.00016 222.541L3.00016 249.405C3.00016 254.515 4.46016 258.895 7.38016 262.399C10.3002 265.903 14.2422 268.093 19.0602 268.677L42.4202 271.451ZM87.8262 259.479C89.7242 259.771 90.7462 258.895 90.7462 256.851L90.7462 250.281L63.2982 246.923L63.2982 253.493C63.2982 255.391 64.1742 256.413 66.2182 256.705L87.8262 259.479ZM65.2982 249.183L65.2982 253.493C65.2982 254.148 65.4475 254.329 65.4808 254.366C65.5253 254.416 65.7349 254.614 66.4884 254.723C66.4926 254.724 66.4968 254.724 66.501 254.725L88.1056 257.498L88.1303 257.502C88.4165 257.546 88.5802 257.537 88.6623 257.523C88.6957 257.434 88.7462 257.234 88.7462 256.851L88.7462 252.051L65.2982 249.183ZM88.718 257.51C88.726 257.506 88.7305 257.504 88.7308 257.505C88.7312 257.505 88.7271 257.507 88.718 257.51ZM17.4542 241.229L17.4542 248.675C17.4542 250.573 18.3302 251.595 20.3742 251.887L45.9242 255.099C47.8222 255.245 48.8442 254.369 48.8442 252.471L48.8442 245.171L17.4542 241.229ZM19.4542 243.496L19.4542 248.675C19.4542 249.33 19.6035 249.511 19.6368 249.548C19.6812 249.598 19.8904 249.795 20.6415 249.905L46.1206 253.108C46.5185 253.134 46.6995 253.081 46.7601 253.055C46.7891 252.995 46.8442 252.831 46.8442 252.471L46.8442 246.936L19.4542 243.496ZM46.743 253.084C46.7424 253.084 46.7448 253.08 46.751 253.073C46.7464 253.08 46.7434 253.084 46.743 253.084ZM1.00016 287.272L1.00016 267.505L107.2 293.903L107.2 320.094L15.7578 320.225L88.7462 347.174L88.7462 329.1L107.2 331.336L107.2 370.557L92.8973 368.791L19.4542 341.532L19.4542 359.748L1.00015 357.511L1.00015 300.448L22.9002 300.74L22.9002 292.382L1.00016 287.272ZM24.9002 290.795L3.00016 285.685L3.00016 270.063L105.2 295.467L105.2 318.097L3.00015 318.243L3.00015 302.475L24.9002 302.767L24.9002 290.795ZM17.4542 338.657L93.3742 366.835L105.2 368.295L105.2 333.109L90.7462 331.357L90.7462 350.045L14.8262 322.013L3.00015 320.553L3.00015 355.739L17.4542 357.491L17.4542 338.657ZM39.3542 294.299L39.3542 303.059L72.2042 303.497C75.7193 303.497 79.4504 303.713 83.4902 304.237C84.1331 304.321 84.7838 304.412 85.4427 304.512C85.4585 304.514 85.4743 304.516 85.4902 304.519L85.4902 304.227C80.2444 303.353 75.8712 302.624 72.2255 301.895C72.2184 301.894 72.2113 301.892 72.2042 301.891L39.3542 294.299ZM60.9684 301.347L41.3542 296.814L41.3542 301.085L60.9684 301.347ZM1.00015 360.149L107.2 373.197L107.2 394.163L1.00015 381.115L1.00015 360.149ZM3.00015 379.346L3.00015 362.41L105.2 374.966L105.2 391.902L3.00015 379.346ZM1.00015 408.2L1.00015 387.239L107.2 400.287L107.2 421.253L83.839 418.379L107.2 427.557L107.2 448.304L55.1793 426.031L8.85078 434.419L107.2 458.866L107.2 485.057L1.00015 485.209L1.00015 465.411L22.9002 465.703L22.9002 457.345L1.00015 452.235L1.00015 415.362L27.4904 411.536L1.00015 408.2ZM3.00015 406.436L3.00015 389.5L105.2 402.056L105.2 418.992L68.4082 414.466L105.2 428.92L105.2 445.272L55.4142 423.956L3.00015 433.446L3.00015 417.094L42.4201 411.4L3.00015 406.436ZM3.00015 450.648L24.9002 455.758L24.9002 467.73L3.00015 467.438L3.00015 483.206L105.2 483.06L105.2 460.43L3.00015 435.026L3.00015 450.648ZM39.3542 459.262L39.3542 468.022L72.2042 468.46C75.7193 468.46 79.4504 468.676 83.4901 469.2C84.133 469.284 84.7838 469.375 85.4427 469.475C85.4585 469.477 85.4743 469.479 85.4901 469.482L85.4901 469.19C80.2444 468.315 75.8712 467.587 72.2255 466.858C72.2184 466.857 72.2113 466.855 72.2042 466.854L39.3542 459.262ZM60.9684 466.31L41.3542 461.777L41.3542 466.048L60.9684 466.31ZM1.00014 524.08L1.00015 486.759L107.2 499.806L107.2 520.773L19.4542 509.969L19.4542 526.317L1.00014 524.08ZM17.4542 507.707L105.2 518.511L105.2 501.576L3.00015 489.019L3.00015 522.307L17.4542 524.06L17.4542 507.707ZM7.08814 567.231C3.87614 563.581 2.41614 559.201 2.41614 554.091L2.41614 544.601C2.41614 539.345 3.87614 535.403 7.08814 532.629C10.3001 529.709 14.3882 528.687 19.6442 529.417L88.5562 537.885C93.6662 538.469 97.7542 540.659 100.966 544.163C104.178 547.667 105.784 552.193 105.784 557.449L105.784 566.939C105.784 572.049 104.178 575.991 100.966 578.765C97.7542 581.539 93.6662 582.707 88.5561 582.123L19.6442 573.509C14.3882 572.925 10.3001 570.735 7.08814 567.231ZM19.4233 575.497C19.4177 575.496 19.4122 575.496 19.4066 575.495C13.6749 574.854 9.14776 572.438 5.61384 568.582L5.60012 568.568L5.58672 568.552C2.00938 564.487 0.416144 559.616 0.416144 554.091L0.416144 544.601C0.416145 538.966 1.99631 534.395 5.76118 531.132C9.51038 527.735 14.2319 526.649 19.9031 527.434C19.9085 527.435 19.9139 527.435 19.9193 527.436L88.7832 535.898C88.7854 535.898 88.7876 535.898 88.7897 535.899C94.3836 536.539 98.9098 538.96 102.44 542.812C106.037 546.735 107.784 551.766 107.784 557.449L107.784 566.939C107.784 572.5 106.015 577.047 102.273 580.279C98.5716 583.476 93.8997 584.747 88.3291 584.11L88.3186 584.109L88.3081 584.108L19.4233 575.497ZM20.6964 548.628L20.6753 548.625C20.3972 548.585 20.204 548.579 20.0776 548.585C20.0568 548.7 20.0382 548.875 20.0382 549.127L20.0382 553.507C20.0382 554.164 20.1889 554.414 20.264 554.503C20.3296 554.581 20.5404 554.782 21.2207 554.882C21.2274 554.883 21.2342 554.884 21.241 554.885L87.5145 562.913L87.5463 562.918C87.8466 562.964 88.0171 562.952 88.1011 562.937C88.1274 562.859 88.1621 562.7 88.1621 562.413L88.1621 558.033C88.1621 557.342 87.9945 557.11 87.9273 557.035C87.848 556.947 87.619 556.761 86.9681 556.656L20.6964 548.628ZM87.2421 554.675C89.1402 554.967 90.1621 555.989 90.1621 558.033L90.1621 562.413C90.1621 564.311 89.1402 565.187 87.2421 564.895L20.9582 556.865C18.9142 556.573 18.0382 555.405 18.0382 553.507L18.0382 549.127C18.0382 547.083 18.9142 546.353 20.9582 546.645L87.2421 554.675ZM88.1684 562.918C88.1687 562.918 88.1658 562.92 88.1591 562.922C88.1648 562.919 88.168 562.918 88.1684 562.918Z" fill="#CF1D20"/>
</svg>
