<?xml version="1.0" encoding="UTF-8"?> <svg xmlns="http://www.w3.org/2000/svg" width="44" height="23" viewBox="0 0 44 23" fill="none"> <path d="M2.69939 2L44 2L41.0307 21H0L2.69939 2Z" fill="#CF1D20"></path> <path d="M6.73137 17H9.67538C10.2354 17 10.7154 16.824 11.0994 16.472C11.4834 16.12 11.7234 15.672 11.8034 15.096L12.1394 12.344C12.2034 11.784 12.0914 11.336 11.7874 10.984C11.4674 10.632 11.0354 10.456 10.4754 10.456H9.40338L9.77138 7.384H12.2514L12.4434 5.8H8.10738L6.73137 17ZM8.77938 15.416L9.19538 12.024H9.99538C10.2034 12.024 10.2994 12.136 10.2834 12.344L9.94738 15.096C9.91538 15.32 9.80338 15.416 9.59538 15.416H8.77938ZM12.6898 15.176C12.6098 15.752 12.7218 16.2 13.0418 16.552C13.3458 16.904 13.7778 17.064 14.3538 17.064H15.3938C15.9538 17.064 16.4338 16.904 16.8338 16.552C17.2178 16.2 17.4578 15.752 17.5218 15.176L18.4658 7.624C18.5298 7.064 18.4018 6.616 18.0978 6.264C17.7938 5.912 17.3618 5.736 16.8018 5.736H15.7618C15.1858 5.736 14.6898 5.912 14.3058 6.264C13.9218 6.616 13.6818 7.064 13.6178 7.624L12.6898 15.176ZM14.8498 15.352C14.6258 15.352 14.5458 15.256 14.5778 15.032L15.4578 7.768C15.4898 7.56 15.6018 7.448 15.8258 7.448H16.3058C16.5138 7.448 16.6098 7.56 16.5778 7.768L15.6978 15.032C15.6658 15.256 15.5378 15.352 15.3298 15.352H14.8498ZM18.4345 17H20.2905L20.8825 12.184H22.0025L21.4105 17H23.2825L24.6585 5.8H22.7865L22.1945 10.616H21.0745L21.6665 5.8H19.8105L18.4345 17ZM25.6353 17C26.6913 17 27.4113 16.36 27.7953 15.064L30.4673 5.8H28.7233L27.5073 10.504C27.3633 11.08 27.2833 11.56 27.2513 11.96H27.2193C27.2673 11.24 27.2833 10.76 27.2833 10.504L27.0433 5.8H25.2993L25.8913 13.624H26.5633L26.1953 14.824C26.1473 14.952 26.0513 15.064 25.9073 15.144C25.7633 15.24 25.6033 15.272 25.4433 15.272H25.0433L24.8353 17H25.6353ZM31.4788 17.064H32.5188C33.0788 17.064 33.5588 16.904 33.9588 16.552C34.3428 16.2 34.5828 15.752 34.6468 15.176L34.9028 13.192H33.0308L32.8228 15.032C32.7908 15.256 32.6628 15.352 32.4548 15.352H31.9748C31.7508 15.352 31.6708 15.256 31.7028 15.032L32.5828 7.768C32.6148 7.56 32.7268 7.448 32.9508 7.448H33.4308C33.6388 7.448 33.7348 7.56 33.7028 7.768L33.4628 9.688H35.3348L35.5908 7.624C35.6548 7.064 35.5268 6.616 35.2228 6.264C34.9188 5.912 34.4868 5.736 33.9268 5.736H32.8868C32.3108 5.736 31.8148 5.912 31.4308 6.264C31.0468 6.616 30.8068 7.064 30.7428 7.624L29.8148 15.176C29.7348 15.752 29.8468 16.2 30.1668 16.552C30.4708 16.904 30.9028 17.064 31.4788 17.064Z" fill="white"></path> </svg> 