<svg width="95" height="95" viewBox="0 0 95 95" fill="none" xmlns="http://www.w3.org/2000/svg">
<path d="M47.4941 6.27299C67.9041 6.27299 84.8231 21.2198 87.9023 40.7645" stroke="#CF1D20" stroke-width="0.809524"/>
<path d="M87.3315 51.241C87.2361 51.0639 87.155 50.8328 87.0883 50.5476C87.028 50.263 87.0137 49.9336 87.0456 49.5593C87.1054 48.856 87.3249 48.3384 87.7041 48.0067C88.0892 47.682 88.6721 47.5528 89.4529 47.6192L91.7276 47.8127L91.5794 49.555L89.5951 49.3862C89.208 49.3533 88.9269 49.4106 88.7518 49.5582C88.5768 49.7058 88.4769 49.9248 88.4522 50.2152C88.4292 50.4862 88.4393 50.7113 88.4825 50.8905C88.5317 51.0766 88.5868 51.2308 88.6479 51.353L91.4065 51.5876L91.2583 53.3299L84.4828 52.7536L84.631 51.0114L87.3315 51.241Z" fill="black"/>
<path d="M90.846 55.8285L89.6046 60.6248L88.3068 60.2889L89.11 57.1854L87.8216 56.852L87.0914 59.6733L85.8689 59.3569L86.599 56.5355L85.1226 56.1534L84.3194 59.2569L83.0215 58.921L84.2629 54.1247L90.846 55.8285Z" fill="black"/>
<path d="M88.9944 62.4814L87.8685 65.0107C87.484 65.8745 87.0115 66.4263 86.4512 66.666C85.8941 66.9142 85.2842 66.8909 84.6215 66.5959C83.9589 66.3009 83.5304 65.8621 83.3361 65.2794C83.1451 64.7052 83.2418 63.9862 83.6263 63.1224L84.0411 62.1906L82.0709 61.3136L82.782 59.7161L88.9944 62.4814ZM85.0188 63.5296C84.8371 63.9378 84.7774 64.2551 84.8397 64.4813C84.9021 64.7075 85.0664 64.8799 85.3326 64.9984C85.5989 65.1169 85.8369 65.1237 86.0467 65.0186C86.2565 64.9135 86.4523 64.6568 86.634 64.2486L86.9698 63.4942L85.3546 62.7752L85.0188 63.5296Z" fill="black"/>
<path d="M85.6163 69.5559L82.8655 73.6763L81.7505 72.932L83.5305 70.2658L82.4236 69.5269L80.8055 71.9506L79.7552 71.2495L81.3733 68.8257L80.1049 67.9789L78.3249 70.645L77.21 69.9007L79.9608 65.7802L85.6163 69.5559Z" fill="black"/>
<path d="M74.8486 72.3924C75.4994 71.6976 76.142 71.3146 76.7766 71.2435C77.4114 71.1815 78.0071 71.3934 78.5636 71.8792L77.3285 73.1979C77.0839 73.0043 76.8401 72.9046 76.597 72.8988C76.3587 72.8974 76.1068 73.0386 75.8412 73.3222C75.5755 73.6058 75.4349 73.8601 75.4194 74.0851C75.4038 74.3101 75.4906 74.5111 75.6797 74.6882C75.7695 74.7724 75.8655 74.8356 75.9677 74.8781C76.0701 74.9298 76.1784 74.9468 76.2923 74.9294C76.4066 74.921 76.5333 74.8711 76.6723 74.7795C76.8117 74.697 76.9632 74.5684 77.127 74.3935L77.552 73.9397L78.417 74.7499L77.992 75.2036C77.868 75.336 77.7782 75.4603 77.7224 75.5767C77.6714 75.6975 77.6475 75.8083 77.6508 75.9089C77.6497 76.0144 77.6711 76.1099 77.7152 76.1955C77.7592 76.2811 77.8167 76.3571 77.8876 76.4235C77.9585 76.4899 78.0335 76.5425 78.1127 76.5811C78.1965 76.6242 78.2843 76.6442 78.3758 76.6412C78.4673 76.6382 78.5671 76.6075 78.6752 76.549C78.7788 76.4952 78.8882 76.4068 79.0033 76.2839C79.2158 76.0571 79.3232 75.8382 79.3254 75.6274C79.3324 75.421 79.2362 75.2111 79.0368 74.9976L80.272 73.6789C80.8026 74.2114 81.0475 74.7646 81.0067 75.3387C80.9659 75.9128 80.629 76.5377 79.9959 77.2136C79.3628 77.8896 78.7796 78.2706 78.2464 78.3568C77.7131 78.4429 77.2172 78.2713 76.7587 77.8419C76.4988 77.5984 76.3386 77.3241 76.2782 77.0191C76.2182 76.7233 76.2608 76.4172 76.4063 76.1009C76.052 76.337 75.7002 76.4378 75.3509 76.4034C75.0019 76.3782 74.6666 76.215 74.3452 75.914C74.1231 75.7059 73.9597 75.473 73.855 75.2153C73.7551 74.962 73.7209 74.6859 73.7523 74.387C73.7838 74.0882 73.8902 73.7708 74.0717 73.435C74.2487 73.1039 74.5077 72.7564 74.8486 72.3924Z" fill="black"/>
<path d="M71.3934 77.7925L70.1535 78.6468L72.1982 81.6146L72.8319 79.8803L73.824 81.3202L73.1878 83.068L71.7559 84.0545L68.7136 79.6389L67.7137 80.3278L66.8979 79.1439L70.5777 76.6086L71.3934 77.7925Z" fill="black"/>
<path d="M66.7429 87.0674L65.0742 87.7079L62.0791 85.1636L61.5735 89.0515L59.941 89.6781L57.5044 83.3296L59.1369 82.703L60.5327 86.3398L60.9218 83.4227L61.8288 83.0746L64.0697 84.9823L62.6739 81.3455L64.3064 80.719L66.7429 87.0674Z" fill="black"/>
<path d="M57.7893 90.216L56.0635 90.4975L55.4067 86.4707L53.427 90.9275L51.845 91.1856L50.7503 84.4743L52.4761 84.1928L53.1329 88.2196L55.1127 83.7627L56.6946 83.5047L57.7893 90.216Z" fill="black"/>
<path d="M49.0309 91.3985L47.2836 91.3311L47.3833 88.749L44.8595 88.6515L44.7598 91.2336L43.0125 91.1662L43.2749 84.3712L45.0222 84.4387L44.915 87.2149L47.4388 87.3124L47.546 84.5361L49.2933 84.6036L49.0309 91.3985Z" fill="black"/>
<path d="M40.6388 83.777C40.7082 83.7927 40.777 83.8116 40.845 83.8337C40.9068 83.8543 40.9615 83.8767 41.0091 83.9008L40.6893 85.3124C40.6402 85.2946 40.5911 85.2769 40.542 85.2591C40.4929 85.2413 40.4336 85.2246 40.3641 85.2088C40.2252 85.1774 40.1101 85.1579 40.0188 85.1505C39.9261 85.1494 39.847 85.1614 39.7815 85.1864C39.7161 85.2114 39.6573 85.2512 39.6051 85.3058C39.5529 85.3604 39.5003 85.4314 39.4472 85.519L41.003 90.9614L39.2787 90.5707L38.2786 86.8081L36.1333 89.858L34.4659 89.4802L37.8205 84.9612C38.0388 84.672 38.2425 84.4326 38.4315 84.243C38.6191 84.0598 38.8202 83.9194 39.0349 83.822C39.2495 83.7245 39.4865 83.6753 39.7457 83.6742C40 83.6655 40.2977 83.6997 40.6388 83.777Z" fill="black"/>
<path d="M31.9781 86.9705L33.9077 87.7697L33.3575 89.098L27.8828 86.8305L28.433 85.5022L30.3626 86.3014L32.4145 81.3472L34.03 82.0163L31.9781 86.9705Z" fill="black"/>
<path d="M29.061 79.5331C29.1213 79.5709 29.18 79.6115 29.2369 79.6548C29.2884 79.6946 29.3327 79.7338 29.3697 79.7722L28.6017 80.9991C28.5612 80.9661 28.5207 80.9331 28.4802 80.9002C28.4398 80.8672 28.3893 80.8318 28.329 80.794C28.2082 80.7184 28.1059 80.662 28.0222 80.6249C27.9351 80.5933 27.8565 80.5784 27.7864 80.5804C27.7164 80.5825 27.6478 80.6006 27.5805 80.6349C27.5132 80.6691 27.44 80.7189 27.361 80.784L27.0326 86.4349L25.534 85.4967L25.8323 81.6149L22.8003 83.7854L21.3511 82.8783L26.0098 79.7204C26.3113 79.5195 26.5826 79.3607 26.8236 79.2442C27.0612 79.1332 27.2974 79.0671 27.5322 79.046C27.767 79.0249 28.0069 79.0566 28.2519 79.1412C28.4948 79.2169 28.7645 79.3476 29.061 79.5331Z" fill="black"/>
<path d="M17.9571 78.0117L19.434 79.4885L18.4174 80.5051L14.2272 76.315L15.2439 75.2984L16.7207 76.7752L20.5124 72.9835L21.7488 74.22L17.9571 78.0117Z" fill="black"/>
<path d="M13.1375 75.1687L12.1613 73.718L14.0311 72.4598L13.5701 71.7747C13.0423 70.9903 12.8228 70.2988 12.9118 69.7003C12.9973 69.0964 13.3301 68.5992 13.9104 68.2087C14.4907 67.8182 15.0766 67.6971 15.6682 67.8455C16.2561 67.9884 16.8141 68.4521 17.3419 69.2366L18.7791 71.3723L13.1375 75.1687ZM16.2576 70.2004C16.0298 69.8619 15.8008 69.6608 15.5707 69.5972C15.3405 69.5335 15.1233 69.5704 14.9191 69.7077C14.7149 69.8451 14.599 70.0324 14.5713 70.2697C14.5436 70.5069 14.6436 70.7947 14.8714 71.1332L15.2239 71.6571L16.6101 70.7243L16.2576 70.2004ZM9.88351 70.333L8.9073 68.8823L14.5489 65.086L15.5251 66.5367L9.88351 70.333Z" fill="black"/>
<path d="M12.7322 60.5474C12.755 60.6149 12.7747 60.6834 12.7913 60.753C12.8058 60.8164 12.8153 60.8748 12.8195 60.928L11.4479 61.3903C11.4375 61.3392 11.4271 61.288 11.4167 61.2369C11.4063 61.1857 11.3897 61.1264 11.3669 61.0589C11.3214 60.9238 11.2781 60.8154 11.2368 60.7337C11.1894 60.654 11.138 60.5927 11.0826 60.5499C11.0272 60.507 10.9626 60.4776 10.8888 60.4614C10.815 60.4453 10.7269 60.4374 10.6245 60.4378L6.78941 64.6009L6.22466 62.9255L8.9154 60.1118L5.19446 59.8693L4.64833 58.2492L10.2533 58.7587C10.6138 58.7943 10.9243 58.8434 11.1846 58.906C11.4387 58.9707 11.6633 59.0693 11.8583 59.2017C12.0533 59.3342 12.2188 59.5108 12.3547 59.7315C12.4947 59.944 12.6205 60.216 12.7322 60.5474Z" fill="black"/>
<path d="M10.7656 53.127C10.9081 54.0683 10.8107 54.8101 10.4736 55.3524C10.1291 55.8892 9.59376 56.2256 8.86766 56.3617L8.59731 54.5752C8.9008 54.5031 9.13007 54.3734 9.28514 54.1862C9.4338 54 9.47907 53.7147 9.42093 53.3305C9.36279 52.9463 9.2502 52.6785 9.08317 52.5269C8.91613 52.3753 8.70455 52.3189 8.44842 52.3577C8.32675 52.3761 8.2176 52.4122 8.12096 52.4662C8.01695 52.5147 7.93651 52.589 7.87964 52.6894C7.8154 52.7842 7.77618 52.9146 7.76199 53.0805C7.74042 53.241 7.74756 53.4397 7.78341 53.6766L7.87643 54.2913L6.70463 54.4686L6.61161 53.8539C6.58448 53.6746 6.5425 53.527 6.48567 53.4112C6.42243 53.2963 6.35027 53.209 6.26917 53.1492C6.18711 53.083 6.09883 53.0407 6.00434 53.0223C5.90985 53.0038 5.81458 53.0019 5.71853 53.0164C5.62248 53.0309 5.53477 53.0573 5.45541 53.0955C5.36964 53.1347 5.29958 53.1911 5.24524 53.2649C5.19089 53.3386 5.15323 53.436 5.13226 53.557C5.11031 53.6717 5.11193 53.8123 5.13713 53.9788C5.18364 54.2861 5.28896 54.506 5.45308 54.6384C5.61081 54.7717 5.8352 54.8262 6.12625 54.8018L6.3966 56.5883C5.64994 56.6751 5.06389 56.5247 4.63845 56.1371C4.213 55.7496 3.931 55.0979 3.79243 54.1823C3.65387 53.2666 3.7159 52.5727 3.97851 52.1007C4.24113 51.6287 4.68299 51.3457 5.30411 51.2517C5.65629 51.1984 5.97081 51.2425 6.24767 51.384C6.51716 51.52 6.73104 51.7431 6.88932 52.0532C6.92335 51.6289 7.06205 51.2902 7.30541 51.0372C7.54141 50.7788 7.87712 50.6167 8.31254 50.5508C8.61349 50.5053 8.89756 50.5212 9.16473 50.5987C9.42549 50.6771 9.66345 50.8212 9.87859 51.031C10.0937 51.2408 10.277 51.5209 10.4282 51.8714C10.5785 52.2154 10.691 52.634 10.7656 53.127Z" fill="black"/>
<path d="M3.27366 48.7828L3.34112 47.0355L5.9232 47.1352L6.02065 44.6114L3.43858 44.5117L3.50604 42.7644L10.301 43.0268L10.2335 44.774L7.4573 44.6668L7.35984 47.1907L10.1361 47.2979L10.0686 49.0451L3.27366 48.7828Z" fill="black"/>
<path d="M10.0497 37.6171L9.53896 39.8321L10.7026 40.579L10.3316 42.1882L4.26203 38.2464L4.65492 36.5426L11.8376 35.6567L11.4229 37.4552L10.0497 37.6171ZM8.34399 39.0481L8.63211 37.7986L6.51914 37.9694L8.34399 39.0481Z" fill="black"/>
<path d="M5.72642 32.684L7.62222 28.1067L8.86076 28.6197L7.63407 31.5815L8.86363 32.0907L9.97881 29.3982L11.1456 29.8815L10.0304 32.574L11.4394 33.1576L12.6661 30.1958L13.9047 30.7088L12.0089 35.286L5.72642 32.684Z" fill="black"/>
<path d="M8.43252 26.2119L9.4034 24.7577L13.8631 27.7351L14.7262 26.4424L10.2664 23.465L11.2373 22.0107L15.697 24.9881L16.5601 23.6955L12.1003 20.7181L13.0712 19.2638L18.7267 23.0395L14.088 29.9876L8.43252 26.2119Z" fill="black"/>
<path d="M14.5277 17.704L15.7775 16.4811L17.3537 18.092L18.0827 17.3787C18.7586 16.7174 19.3989 16.3763 20.0036 16.3555C20.613 16.33 21.1622 16.5673 21.6514 17.0672C22.1405 17.5672 22.3658 18.1215 22.3271 18.7301C22.293 19.3343 21.9381 19.967 21.2622 20.6282L19.2833 22.5645L14.5277 17.704ZM20.1179 19.7365C20.4095 19.4511 20.5658 19.1895 20.5867 18.9516C20.6076 18.7137 20.532 18.5068 20.3599 18.3309C20.1878 18.155 19.9826 18.0749 19.7443 18.0906C19.506 18.1063 19.241 18.2569 18.9494 18.5422L18.3592 19.1197L19.5277 20.3139L20.1179 19.7365Z" fill="black"/>
<path d="M22.2434 10.8664L23.7423 9.96595L25.128 12.2726L25.5444 12.0225L25.9408 8.64533L27.5729 7.66488L26.9603 11.7385L31.1578 13.444L29.4091 14.4945L26.1746 13.0717L25.7583 13.3219L27.244 15.7951L25.7451 16.6955L22.2434 10.8664Z" fill="black"/>
<path d="M34.5928 10.7489L32.4676 11.5555L32.4935 12.938L30.9495 13.5239L30.8528 6.28742L32.4876 5.66699L37.2163 11.1456L35.4907 11.8005L34.5928 10.7489ZM32.4551 10.1264L33.654 9.67138L32.3376 8.00976L32.4551 10.1264Z" fill="black"/>
<path d="M36.4571 4.34621L38.176 4.02516L38.67 6.67028L39.1475 6.5811L40.697 3.5543L42.5686 3.20472L40.5736 6.80886L43.9126 9.87129L41.9073 10.2458L39.3722 7.78429L38.8948 7.87347L39.4245 10.7096L37.7056 11.0306L36.4571 4.34621Z" fill="black"/>
</svg>
