<svg width="16" height="16" viewBox="0 0 16 16" fill="none" xmlns="http://www.w3.org/2000/svg">
<path d="M3 4.20314C3.55729 3.97397 4.76562 3.54689 5.29688 3.51564L5.30871 3.51494C5.92955 3.47839 6.6226 3.43759 8.70312 4.17189C10.5625 4.82814 12.0781 4.51564 12.5625 4.39064C13.0469 4.26564 14.4219 3.73439 14.4062 4.17189C14.3938 4.52189 14.4635 5.45314 14.5 5.87501V8.93752V10.25L12.25 11.125C11.8854 11.1823 10.8688 11.1938 9.71875 10.7813C8.28125 10.2656 7.39062 9.96877 5.15625 10.1563C3.55328 10.2908 3.10382 10.4186 3.06191 10.4811L3.0625 10.5C3.05766 10.4946 3.05708 10.4883 3.06191 10.4811L3 8.50002V4.20314Z" fill="white"/>
<path d="M7.6 5.92024V8.04837C8.41563 8.23274 9.14062 8.53587 9.9 8.74524V6.61399C9.0875 6.43274 8.35625 6.12961 7.6 5.92024ZM5.3 10.1577C4.49375 10.2421 3.7375 10.4094 3 10.6719V8.48438C3.81875 8.19376 4.48438 8.00462 5.3 7.92962V10.1577ZM14.5 5.95313C13.7625 6.25938 13.0531 6.56399 12.2 6.70149V8.92337C12.975 8.81712 13.8062 8.55313 14.5 8.10938V10.2969C13.7156 10.8 12.9844 11.0813 12.2 11.1563V8.92337C11.3562 9.03899 10.7031 8.97024 9.9 8.74837V10.8438C9.15312 10.6125 8.42188 10.3327 7.6 10.189V8.04837C6.98438 7.91087 6.325 7.83587 5.3 7.92962V5.74211C4.6 5.83899 3.90625 6.06087 3 6.39524V4.20313C4.0375 3.82188 4.56563 3.58438 5.3 3.51563V5.74211C6.14375 5.62649 6.8125 5.70149 7.6 5.92024V3.81399C8.34062 4.04524 9.075 4.33586 9.9 4.47961V6.61712C10.6406 6.78274 11.3875 6.83274 12.2 6.70149V4.45461C13.0437 4.30461 13.8344 4.01251 14.5 3.73438V5.95313Z" fill="black"/>
</svg>
