<?xml version="1.0" encoding="UTF-8"?> <svg xmlns="http://www.w3.org/2000/svg" width="240" height="1084" viewBox="0 0 240 1084" fill="none"> <path d="M0.5 1083.48V23.4796L239.5 13.5213V1073.52L0.5 1083.48Z" fill="#181818" stroke="#FFBD37"></path> <path d="M0 10L240 0V15L0 25V10Z" fill="#FFBD37"></path> <path d="M106.613 16.2856L107.692 16.2404L108.072 11.4603C108.092 11.2292 108.099 10.9187 108.103 10.5382L108.123 10.5373C108.127 11.0977 108.13 11.4078 108.132 11.4578L108.371 16.2119L109.57 16.1617L110.571 11.3856C110.643 10.9422 110.69 10.6299 110.722 10.4584L110.742 10.4576C110.681 10.9005 110.644 11.2124 110.631 11.3831L110.25 16.1332L111.319 16.0884L111.885 9.05852L110.146 9.13138L109.193 14.0956C109.126 14.3987 109.089 14.7105 109.082 15.0211L109.062 15.022C109.079 14.4608 109.086 14.1602 109.083 14.1002L108.917 9.18289L107.179 9.25575L106.613 16.2856ZM112.75 16.0284L113.037 14.5151L113.856 14.4807L113.899 15.9802L114.978 15.935L114.675 8.94158L113.126 9.00649L111.681 16.0732L112.75 16.0284ZM113.235 13.5159L113.66 11.2461C113.7 10.9942 113.737 10.6924 113.782 10.3302L113.802 10.3293C113.766 10.6611 113.759 10.9617 113.77 11.2415L113.835 13.4908L113.235 13.5159ZM115.376 15.9183L116.535 15.8698L116.773 12.9472L117.452 12.9188C117.802 12.9041 118.097 12.7916 118.328 12.5618C118.558 12.3319 118.697 12.0459 118.731 11.6841L118.869 9.95683C118.894 9.59547 118.812 9.31864 118.613 9.10679C118.404 8.89536 118.13 8.79676 117.78 8.81142L115.942 8.88847L115.376 15.9183ZM117.022 9.83405L117.522 9.81312C117.652 9.80767 117.715 9.8751 117.71 10.0054L117.572 11.7327C117.558 11.8734 117.491 11.9363 117.361 11.9417L116.851 11.9631L117.022 9.83405ZM119.492 15.7458L119.779 14.2325L120.598 14.1981L120.641 15.6977L121.72 15.6524L121.417 8.659L119.868 8.72391L118.423 15.7906L119.492 15.7458ZM119.977 13.2333L120.403 10.9635C120.442 10.7116 120.479 10.4098 120.524 10.0476L120.544 10.0468C120.508 10.3786 120.501 10.6791 120.512 10.9589L120.577 13.2082L119.977 13.2333ZM122.182 13.7615C122.147 14.1232 122.228 14.4001 122.437 14.6115C122.636 14.8233 122.911 14.9219 123.271 14.9069L123.9 14.8805L123.839 15.5637L125.008 15.5147L125.059 14.8319L125.678 14.8059C126.038 14.7909 126.333 14.6684 126.564 14.4385C126.794 14.2087 126.933 13.9226 126.967 13.5609L127.231 10.287C127.256 9.93561 127.174 9.6488 126.975 9.43695C126.766 9.22552 126.491 9.12692 126.142 9.14157L125.512 9.16796L125.574 8.48478L124.405 8.53378L124.353 9.21653L123.724 9.24291C123.364 9.25799 123.069 9.38046 122.838 9.61031C122.608 9.84017 122.47 10.1362 122.445 10.4876L122.182 13.7615ZM123.535 13.8148C123.395 13.8207 123.333 13.7633 123.347 13.6225L123.598 10.5293C123.602 10.399 123.669 10.3262 123.809 10.3203L124.269 10.301L123.985 13.796L123.535 13.8148ZM125.144 13.7474L125.428 10.2525L125.877 10.2336C126.007 10.2282 126.07 10.2956 126.065 10.4259L125.805 13.5195C125.791 13.6602 125.723 13.7231 125.593 13.7286L125.144 13.7474ZM127.606 14.2648C127.571 14.6265 127.653 14.9034 127.862 15.1148C128.061 15.3266 128.335 15.4152 128.694 15.4002L129.344 15.373C129.693 15.3583 129.989 15.2458 130.229 15.0155C130.46 14.7857 130.598 14.4997 130.623 14.1383L131.015 9.39773C131.04 9.04636 130.949 8.76996 130.75 8.5581C130.55 8.34625 130.276 8.24766 129.926 8.26231L129.277 8.28953C128.917 8.30461 128.612 8.42749 128.382 8.65735C128.151 8.88721 128.013 9.17324 127.988 9.52461L127.606 14.2648ZM128.959 14.3181C128.819 14.324 128.767 14.2661 128.781 14.1254L129.14 9.56637C129.155 9.43565 129.222 9.36278 129.362 9.35692L129.661 9.34436C129.791 9.33891 129.854 9.40634 129.84 9.53706L129.48 14.0961C129.466 14.2368 129.389 14.3001 129.259 14.3056L128.959 14.3181ZM131.241 15.2534L132.4 15.2048L132.643 12.182L133.343 12.1527L133.099 15.1755L134.268 15.1265L134.834 8.09665L133.665 8.14564L133.422 11.1685L132.722 11.1978L132.966 8.17496L131.807 8.22353L131.241 15.2534Z" fill="#1F180B"></path> </svg> 