<?xml version="1.0" encoding="UTF-8"?> <svg xmlns="http://www.w3.org/2000/svg" width="240" height="1084" viewBox="0 0 240 1084" fill="none"> <path d="M0 23L240 13V1074L0 1084V23Z" fill="#1E1E1E"></path> <path d="M0 10L240 0V15L0 25V10Z" fill="#CF1D20"></path> <path d="M92.6511 16.7408L93.81 16.6922L93.8955 15.6277L94.5754 13.9377C94.7114 13.6017 94.8092 13.3074 94.8782 13.0443L94.8982 13.0434C94.8042 13.4277 94.7473 13.7404 94.7365 13.961L94.5094 16.6629L95.6784 16.6139L96.2445 9.58402L95.0755 9.63301L94.99 10.6975L94.3202 12.3871C94.1921 12.6727 94.0843 12.9674 94.0174 13.2805L93.9974 13.2814C94.0814 12.8975 94.1388 12.5948 94.1591 12.3638L94.3762 9.66232L93.2172 9.7109L92.6511 16.7408ZM96.3783 16.5846L97.5372 16.536L97.7809 13.5131L98.4803 13.4838L98.2366 16.5067L99.4056 16.4577L99.9717 9.4278L98.8027 9.47679L98.5591 12.4996L97.8597 12.529L98.1034 9.50611L96.9444 9.55468L96.3783 16.5846ZM100.881 17.4968L100.975 16.3919L102.743 16.3178L102.659 17.4223L103.818 17.3737L103.981 15.2751L103.421 15.2985L103.909 9.26279L101.201 9.37627L100.562 15.1481C100.528 15.2896 100.482 15.3817 100.414 15.4246L99.8842 15.4467L99.7219 17.5454L100.881 17.4968ZM101.603 15.3747C101.638 15.2532 101.654 15.1624 101.66 15.082L102.218 10.2344L102.668 10.2156L102.252 15.3475L101.603 15.3747ZM104.301 16.2525L105.46 16.2039L105.545 15.1394L106.225 13.4495C106.361 13.1135 106.459 12.8191 106.528 12.556L106.548 12.5552C106.454 12.9394 106.397 13.2521 106.386 13.4727L106.159 16.1746L107.328 16.1256L107.894 9.09574L106.725 9.14473L106.64 10.2092L105.97 11.8988C105.842 12.1844 105.734 12.4792 105.667 12.7922L105.647 12.7931C105.731 12.4092 105.789 12.1066 105.809 11.8755L106.026 9.17405L104.867 9.22262L104.301 16.2525ZM109.867 16.0192C110.216 16.0046 110.512 15.8921 110.743 15.6822C110.975 15.4723 111.113 15.1963 111.139 14.8649L111.262 13.2584C111.304 12.8162 111.13 12.5032 110.763 12.3285C111.135 12.1227 111.341 11.8038 111.364 11.3825L111.485 9.98615C111.502 9.67516 111.412 9.42873 111.214 9.24686C111.006 9.0654 110.732 8.97679 110.383 8.99145L108.594 9.06641L108.028 16.0963L109.867 16.0192ZM109.266 15.0535L109.445 12.8941L109.945 12.8732C110.075 12.8677 110.138 12.9352 110.133 13.0655L109.987 14.8232C109.972 14.9639 109.905 15.0267 109.775 15.0322L109.266 15.0535ZM109.675 10.012L110.124 9.99314C110.264 9.98728 110.327 10.0547 110.313 10.1854L110.185 11.6721C110.171 11.8128 110.103 11.8757 109.973 11.8811L109.524 11.9L109.675 10.012ZM111.658 15.9442L112.817 15.8956L112.902 14.8311L113.582 13.1411C113.718 12.8051 113.816 12.5108 113.885 12.2476L113.905 12.2468C113.811 12.6311 113.754 12.9437 113.743 13.1644L113.516 15.8663L114.685 15.8173L115.251 8.7874L114.082 8.83639L113.997 9.90091L113.327 11.5904C113.199 11.8761 113.091 12.1708 113.024 12.4839L113.004 12.4847C113.088 12.1009 113.146 11.7982 113.166 11.5672L113.383 8.8657L112.224 8.91428L111.658 15.9442ZM116.16 16.8564L116.254 15.7515L118.023 15.6774L117.939 16.7819L119.098 16.7333L119.26 14.6347L118.701 14.6581L119.188 8.62239L116.481 8.73587L115.842 14.5077C115.808 14.6492 115.762 14.7413 115.693 14.7841L115.164 14.8063L115.001 16.905L116.16 16.8564ZM116.882 14.7343C116.917 14.6127 116.933 14.522 116.94 14.4416L117.497 9.59404L117.947 9.5752L117.532 14.7071L116.882 14.7343ZM120.174 15.5872C120.834 15.5596 121.267 15.1411 121.472 14.3217L122.898 8.46688L121.809 8.51253L121.173 11.4818C121.098 11.8452 121.061 12.1471 121.051 12.3977L121.031 12.3985C121.043 11.9477 121.04 11.6475 121.033 11.4876L120.76 8.5565L119.671 8.60214L120.246 13.4724L120.665 13.4548L120.467 14.2137C120.44 14.2949 120.383 14.3674 120.296 14.4211C120.208 14.4848 120.109 14.509 120.009 14.5132L119.759 14.5237L119.675 15.6081L120.174 15.5872ZM123.326 15.4551L123.613 13.9418L124.432 13.9074L124.475 15.407L125.554 15.3617L125.251 8.36829L123.702 8.43319L122.257 15.4999L123.326 15.4551ZM123.811 12.9426L124.237 10.6728C124.276 10.4209 124.313 10.1191 124.358 9.75689L124.378 9.75605C124.342 10.0879 124.335 10.3884 124.346 10.6682L124.411 12.9175L123.811 12.9426ZM125.644 15.398L125.974 15.3842C126.353 15.3683 126.649 15.2558 126.88 15.0359C127.111 14.8261 127.248 14.51 127.291 14.1079L127.855 9.15995L128.314 9.14069L127.82 15.2667L128.979 15.2182L129.545 8.1883L126.848 8.30136L126.196 13.9937C126.18 14.0944 126.153 14.1656 126.095 14.2281C126.038 14.2905 125.959 14.3139 125.879 14.3172L125.729 14.3235L125.644 15.398ZM131.517 15.1118C131.867 15.0971 132.162 14.9747 132.393 14.7448C132.623 14.5149 132.762 14.2289 132.796 13.8671L132.934 12.1399C132.96 11.7885 132.878 11.5117 132.679 11.2998C132.47 11.0884 132.195 10.9898 131.846 11.0044L131.176 11.0325L131.404 8.11039L130.245 8.15896L129.679 15.1888L131.517 15.1118ZM130.917 14.1461L131.088 12.0171L131.587 11.9961C131.717 11.9907 131.78 12.0581 131.775 12.1884L131.638 13.9157C131.623 14.0564 131.556 14.1193 131.426 14.1247L130.917 14.1461ZM133.26 15.0388L134.419 14.9902L134.663 11.9673L135.362 11.938L135.118 14.9609L136.287 14.9119L136.853 7.882L135.684 7.93099L135.441 10.9538L134.741 10.9832L134.985 7.96031L133.826 8.00888L133.26 15.0388ZM136.987 14.8825L138.826 14.8055C139.175 14.7908 139.47 14.6684 139.701 14.4385C139.932 14.2087 140.07 13.9226 140.105 13.5608L140.242 11.8336C140.268 11.4822 140.186 11.2054 139.987 10.9935C139.778 10.7821 139.504 10.6835 139.154 10.6981L138.484 10.7262L138.712 7.80409L137.553 7.85267L136.987 14.8825ZM141.573 14.6903L142.139 7.66046L140.98 7.70903L140.414 14.7389L141.573 14.6903ZM138.225 13.8398L138.396 11.7108L138.895 11.6898C139.025 11.6844 139.088 11.7518 139.083 11.8821L138.946 13.6094C138.931 13.7501 138.864 13.813 138.734 13.8185L138.225 13.8398ZM143.434 14.6123L143.52 13.5478L144.2 11.8579C144.336 11.5219 144.434 11.2275 144.503 10.9644L144.523 10.9635C144.429 11.3478 144.372 11.6605 144.361 11.8811L144.134 14.583L145.303 14.534L145.869 7.50414L144.7 7.55313L144.614 8.61765L143.945 10.3072C143.816 10.5928 143.709 10.8876 143.642 11.2006L143.622 11.2015C143.706 10.8176 143.763 10.515 143.783 10.2839L144.001 7.58244L142.842 7.63102L142.275 14.6609L143.434 14.6123ZM143.303 6.45068C143.274 6.72212 143.343 6.92942 143.489 7.08342C143.636 7.23742 143.839 7.30897 144.109 7.29766L144.598 7.27715C144.858 7.26626 145.085 7.1767 145.278 7.00846C145.471 6.84023 145.571 6.61581 145.601 6.35437L145.621 6.12331L144.752 6.15974L144.738 6.31045C144.73 6.37082 144.712 6.41162 144.684 6.45284C144.646 6.49448 144.606 6.51614 144.566 6.51781L144.307 6.5287C144.207 6.53289 144.164 6.47462 144.178 6.3339L144.192 6.18319L143.323 6.21963L143.303 6.45068Z" fill="white"></path> </svg> 