<?xml version="1.0" encoding="UTF-8"?> <svg xmlns="http://www.w3.org/2000/svg" width="240" height="1084" viewBox="0 0 240 1084" fill="none"> <path d="M0 23L240 13V1074L0 1084V23Z" fill="#1E1E1E"></path> <path d="M0 10L240 0V15L0 25V10Z" fill="white"></path> <path d="M106.451 10.3135L106.529 9.31938L103.652 9.43998L103.574 10.4341L104.433 10.3981L103.945 16.4338L105.104 16.3853L105.592 10.3495L106.451 10.3135ZM106.362 16.3326L107.521 16.284L107.758 13.3615L108.438 13.333C108.787 13.3183 109.083 13.2059 109.314 12.976C109.544 12.7461 109.682 12.4601 109.717 12.0983L109.855 10.371C109.88 10.0097 109.798 9.73286 109.599 9.52101C109.39 9.30958 109.116 9.21098 108.766 9.22564L106.928 9.30269L106.362 16.3326ZM108.008 10.2483L108.508 10.2273C108.638 10.2219 108.701 10.2893 108.696 10.4196L108.558 12.1469C108.544 12.2876 108.477 12.3505 108.347 12.3559L107.837 12.3773L108.008 10.2483ZM109.884 16.1849L112.162 16.0895L112.24 15.0953L111.121 15.1422L111.286 13.1135L112.306 13.0708L112.384 12.0866L111.365 12.1293L111.531 10.1006L112.64 10.0542L112.728 9.05959L110.45 9.15506L109.884 16.1849ZM112.752 16.0647L113.911 16.0161L114.155 12.9933L114.854 12.964L114.611 15.9868L115.78 15.9378L116.346 8.90795L115.177 8.95695L114.933 11.9798L114.234 12.0091L114.478 8.98626L113.319 9.03483L112.752 16.0647ZM116.48 15.9085L117.639 15.8599L117.724 14.7954L118.404 13.1055C118.54 12.7695 118.638 12.4751 118.707 12.212L118.727 12.2111C118.633 12.5954 118.576 12.9081 118.565 13.1287L118.338 15.8306L119.507 15.7816L120.073 8.75174L118.904 8.80073L118.819 9.86524L118.149 11.5548C118.021 11.8404 117.913 12.1352 117.846 12.4482L117.826 12.4491C117.91 12.0652 117.967 11.7626 117.988 11.5315L118.205 8.83004L117.046 8.87862L116.48 15.9085ZM120.207 15.7523L121.366 15.7037L121.604 12.7812L122.283 12.7527C122.633 12.738 122.928 12.6256 123.159 12.3957C123.389 12.1659 123.528 11.8798 123.562 11.518L123.7 9.79076C123.725 9.4294 123.643 9.15257 123.444 8.94072C123.235 8.72929 122.961 8.6307 122.611 8.64535L120.773 8.7224L120.207 15.7523ZM121.853 9.66798L122.353 9.64705C122.483 9.6416 122.546 9.70903 122.541 9.83933L122.403 11.5666C122.389 11.7073 122.322 11.7702 122.192 11.7757L121.682 11.797L121.853 9.66798ZM123.821 14.4598C123.786 14.8216 123.868 15.0984 124.077 15.3098C124.276 15.5217 124.55 15.6103 124.91 15.5952L125.559 15.568C125.909 15.5533 126.204 15.4408 126.445 15.2106C126.676 14.9807 126.814 14.6947 126.839 14.3333L127.23 9.59275C127.256 9.24139 127.164 8.96498 126.965 8.75313C126.766 8.54128 126.492 8.44268 126.142 8.45734L125.492 8.48456C125.133 8.49963 124.828 8.62252 124.597 8.85238C124.367 9.08223 124.228 9.36827 124.203 9.71964L123.821 14.4598ZM125.175 14.5132C125.035 14.519 124.982 14.4612 124.996 14.3205L125.356 9.7614C125.37 9.63068 125.437 9.55781 125.577 9.55195L125.877 9.53938C126.007 9.53394 126.07 9.60137 126.055 9.73209L125.696 14.2911C125.682 14.4319 125.604 14.4952 125.474 14.5006L125.175 14.5132ZM129.295 15.3714C129.644 15.3567 129.94 15.2442 130.171 15.0344C130.403 14.8245 130.541 14.5485 130.567 14.2171L130.69 12.6105C130.732 12.1684 130.559 11.8554 130.191 11.6806C130.563 11.4749 130.769 11.1559 130.792 10.7346L130.913 9.3383C130.93 9.02732 130.84 8.78089 130.642 8.59901C130.434 8.41755 130.161 8.32895 129.811 8.3436L128.022 8.41856L127.456 15.4484L129.295 15.3714ZM128.694 14.4057L128.873 12.2463L129.373 12.2253C129.503 12.2199 129.566 12.2873 129.561 12.4176L129.415 14.1753C129.401 14.316 129.333 14.3789 129.203 14.3843L128.694 14.4057ZM129.103 9.36414L129.553 9.3453C129.692 9.33943 129.755 9.40686 129.741 9.53758L129.613 11.0242C129.599 11.165 129.531 11.2278 129.402 11.2333L128.952 11.2521L129.103 9.36414ZM132.245 15.2477L132.472 12.5359L132.974 15.2172L134.093 15.1703L133.294 11.6106L134.609 8.14248L133.49 8.18938L132.607 10.7486L132.811 8.21786L131.652 8.26643L131.086 15.2963L132.245 15.2477ZM134.491 15.1536L135.65 15.105L135.736 14.0405L136.415 12.3505C136.552 12.0146 136.649 11.7202 136.718 11.4571L136.738 11.4562C136.644 11.8405 136.587 12.1532 136.577 12.3738L136.35 15.0757L137.518 15.0267L138.085 7.99683L136.916 8.04582L136.83 9.11034L136.16 10.7999C136.032 11.0855 135.924 11.3803 135.857 11.6933L135.837 11.6942C135.921 11.3103 135.979 11.0077 135.999 10.7766L136.216 8.07514L135.057 8.12371L134.491 15.1536Z" fill="#1F180B"></path> </svg> 