<?xml version="1.0" encoding="UTF-8"?> <svg xmlns="http://www.w3.org/2000/svg" width="1204" height="491" viewBox="0 0 1204 491" fill="none"> <path d="M53 58L1183 28L1153 461L3 491L53 58Z" fill="#CE1D20"></path> <mask id="mask0" mask-type="alpha" maskUnits="userSpaceOnUse" x="3" y="28" width="1180" height="463"> <path d="M53 58L1183 28L1153 461L3 491L53 58Z" fill="#CE1D20"></path> </mask> <g mask="url(#mask0)"> <circle opacity="0.3" cx="629" cy="414" r="1" fill="white"></circle> <circle opacity="0.3" cx="293" cy="414" r="1" fill="white"></circle> <circle opacity="0.3" cx="965" cy="414" r="1" fill="white"></circle> <circle opacity="0.3" cx="629" cy="246" r="1" fill="white"></circle> <circle opacity="0.3" cx="629" cy="78" r="1" fill="white"></circle> <circle opacity="0.3" cx="293" cy="246" r="1" fill="white"></circle> <circle opacity="0.3" cx="293" cy="78" r="1" fill="white"></circle> <circle opacity="0.3" cx="965" cy="246" r="1" fill="white"></circle> <circle opacity="0.3" cx="965" cy="78" r="1" fill="white"></circle> <circle opacity="0.3" cx="125" cy="414" r="1" fill="white"></circle> <circle opacity="0.3" cx="797" cy="414" r="1" fill="white"></circle> <circle opacity="0.3" cx="461" cy="414" r="1" fill="white"></circle> <circle opacity="0.3" cx="1133" cy="414" r="1" fill="white"></circle> <circle opacity="0.3" cx="125" cy="246" r="1" fill="white"></circle> <circle opacity="0.3" cx="125" cy="78" r="1" fill="white"></circle> <circle opacity="0.3" cx="797" cy="246" r="1" fill="white"></circle> <circle opacity="0.3" cx="797" cy="78" r="1" fill="white"></circle> <circle opacity="0.3" cx="461" cy="246" r="1" fill="white"></circle> <circle opacity="0.3" cx="461" cy="78" r="1" fill="white"></circle> <circle opacity="0.3" cx="1133" cy="246" r="1" fill="white"></circle> <circle opacity="0.3" cx="1133" cy="78" r="1" fill="white"></circle> <circle opacity="0.3" cx="629" cy="330" r="1" fill="white"></circle> <circle opacity="0.3" cx="293" cy="330" r="1" fill="white"></circle> <circle opacity="0.3" cx="965" cy="330" r="1" fill="white"></circle> <circle opacity="0.3" cx="629" cy="162" r="1" fill="white"></circle> <circle opacity="0.3" cx="293" cy="162" r="1" fill="white"></circle> <circle opacity="0.3" cx="965" cy="162" r="1" fill="white"></circle> <circle opacity="0.3" cx="125" cy="330" r="1" fill="white"></circle> <circle opacity="0.3" cx="797" cy="330" r="1" fill="white"></circle> <circle opacity="0.3" cx="461" cy="330" r="1" fill="white"></circle> <circle opacity="0.3" cx="1133" cy="330" r="1" fill="white"></circle> <circle opacity="0.3" cx="125" cy="162" r="1" fill="white"></circle> <circle opacity="0.3" cx="797" cy="162" r="1" fill="white"></circle> <circle opacity="0.3" cx="461" cy="162" r="1" fill="white"></circle> <circle opacity="0.3" cx="1133" cy="162" r="1" fill="white"></circle> <circle opacity="0.3" cx="41" cy="414" r="1" fill="white"></circle> <circle opacity="0.3" cx="713" cy="414" r="1" fill="white"></circle> <circle opacity="0.3" cx="377" cy="414" r="1" fill="white"></circle> <circle opacity="0.3" cx="1049" cy="414" r="1" fill="white"></circle> <circle opacity="0.3" cx="41" cy="246" r="1" fill="white"></circle> <circle opacity="0.3" cx="41" cy="78" r="1" fill="white"></circle> <circle opacity="0.3" cx="713" cy="246" r="1" fill="white"></circle> <circle opacity="0.3" cx="713" cy="78" r="1" fill="white"></circle> <circle opacity="0.3" cx="377" cy="246" r="1" fill="white"></circle> <circle opacity="0.3" cx="377" cy="78" r="1" fill="white"></circle> <circle opacity="0.3" cx="1049" cy="246" r="1" fill="white"></circle> <circle opacity="0.3" cx="1049" cy="78" r="1" fill="white"></circle> <circle opacity="0.3" cx="209" cy="414" r="1" fill="white"></circle> <circle opacity="0.3" cx="881" cy="414" r="1" fill="white"></circle> <circle opacity="0.3" cx="545" cy="414" r="1" fill="white"></circle> <circle opacity="0.3" cx="209" cy="246" r="1" fill="white"></circle> <circle opacity="0.3" cx="209" cy="78" r="1" fill="white"></circle> <circle opacity="0.3" cx="881" cy="246" r="1" fill="white"></circle> <circle opacity="0.3" cx="881" cy="78" r="1" fill="white"></circle> <circle opacity="0.3" cx="545" cy="246" r="1" fill="white"></circle> <circle opacity="0.3" cx="545" cy="78" r="1" fill="white"></circle> <circle opacity="0.3" cx="41" cy="330" r="1" fill="white"></circle> <circle opacity="0.3" cx="713" cy="330" r="1" fill="white"></circle> <circle opacity="0.3" cx="377" cy="330" r="1" fill="white"></circle> <circle opacity="0.3" cx="1049" cy="330" r="1" fill="white"></circle> <circle opacity="0.3" cx="41" cy="162" r="1" fill="white"></circle> <circle opacity="0.3" cx="713" cy="162" r="1" fill="white"></circle> <circle opacity="0.3" cx="377" cy="162" r="1" fill="white"></circle> <circle opacity="0.3" cx="1049" cy="162" r="1" fill="white"></circle> <circle opacity="0.3" cx="209" cy="330" r="1" fill="white"></circle> <circle opacity="0.3" cx="881" cy="330" r="1" fill="white"></circle> <circle opacity="0.3" cx="545" cy="330" r="1" fill="white"></circle> <circle opacity="0.3" cx="209" cy="162" r="1" fill="white"></circle> <circle opacity="0.3" cx="881" cy="162" r="1" fill="white"></circle> <circle opacity="0.3" cx="545" cy="162" r="1" fill="white"></circle> <circle opacity="0.3" cx="629" cy="372" r="1" fill="white"></circle> <circle opacity="0.3" cx="293" cy="372" r="1" fill="white"></circle> <circle opacity="0.3" cx="965" cy="372" r="1" fill="white"></circle> <circle opacity="0.3" cx="629" cy="204" r="1" fill="white"></circle> <circle opacity="0.3" cx="629" cy="36" r="1" fill="white"></circle> <circle opacity="0.3" cx="293" cy="204" r="1" fill="white"></circle> <circle opacity="0.3" cx="293" cy="36" r="1" fill="white"></circle> <circle opacity="0.3" cx="965" cy="204" r="1" fill="white"></circle> <circle opacity="0.3" cx="965" cy="36" r="1" fill="white"></circle> <circle opacity="0.3" cx="125" cy="372" r="1" fill="white"></circle> <circle opacity="0.3" cx="797" cy="372" r="1" fill="white"></circle> <circle opacity="0.3" cx="461" cy="372" r="1" fill="white"></circle> <circle opacity="0.3" cx="1133" cy="372" r="1" fill="white"></circle> <circle opacity="0.3" cx="125" cy="204" r="1" fill="white"></circle> <circle opacity="0.3" cx="125" cy="36" r="1" fill="white"></circle> <circle opacity="0.3" cx="797" cy="204" r="1" fill="white"></circle> <circle opacity="0.3" cx="797" cy="36" r="1" fill="white"></circle> <circle opacity="0.3" cx="461" cy="204" r="1" fill="white"></circle> <circle opacity="0.3" cx="461" cy="36" r="1" fill="white"></circle> <circle opacity="0.3" cx="1133" cy="204" r="1" fill="white"></circle> <circle opacity="0.3" cx="1133" cy="36" r="1" fill="white"></circle> <circle opacity="0.3" cx="629" cy="288" r="1" fill="white"></circle> <circle opacity="0.3" cx="293" cy="288" r="1" fill="white"></circle> <circle opacity="0.3" cx="965" cy="288" r="1" fill="white"></circle> <circle opacity="0.3" cx="629" cy="456" r="1" fill="white"></circle> <circle opacity="0.3" cx="629" cy="120" r="1" fill="white"></circle> <circle opacity="0.3" cx="293" cy="456" r="1" fill="white"></circle> <circle opacity="0.3" cx="965" cy="456" r="1" fill="white"></circle> <circle opacity="0.3" cx="293" cy="120" r="1" fill="white"></circle> <circle opacity="0.3" cx="965" cy="120" r="1" fill="white"></circle> <circle opacity="0.3" cx="125" cy="288" r="1" fill="white"></circle> <circle opacity="0.3" cx="797" cy="288" r="1" fill="white"></circle> <circle opacity="0.3" cx="461" cy="288" r="1" fill="white"></circle> <circle opacity="0.3" cx="1133" cy="288" r="1" fill="white"></circle> <circle opacity="0.3" cx="125" cy="456" r="1" fill="white"></circle> <circle opacity="0.3" cx="797" cy="456" r="1" fill="white"></circle> <circle opacity="0.3" cx="125" cy="120" r="1" fill="white"></circle> <circle opacity="0.3" cx="797" cy="120" r="1" fill="white"></circle> <circle opacity="0.3" cx="461" cy="456" r="1" fill="white"></circle> <circle opacity="0.3" cx="1133" cy="456" r="1" fill="white"></circle> <circle opacity="0.3" cx="461" cy="120" r="1" fill="white"></circle> <circle opacity="0.3" cx="1133" cy="120" r="1" fill="white"></circle> <circle opacity="0.3" cx="41" cy="372" r="1" fill="white"></circle> <circle opacity="0.3" cx="713" cy="372" r="1" fill="white"></circle> <circle opacity="0.3" cx="377" cy="372" r="1" fill="white"></circle> <circle opacity="0.3" cx="1049" cy="372" r="1" fill="white"></circle> <circle opacity="0.3" cx="41" cy="204" r="1" fill="white"></circle> <circle opacity="0.3" cx="41" cy="36" r="1" fill="white"></circle> <circle opacity="0.3" cx="713" cy="204" r="1" fill="white"></circle> <circle opacity="0.3" cx="713" cy="36" r="1" fill="white"></circle> <circle opacity="0.3" cx="377" cy="204" r="1" fill="white"></circle> <circle opacity="0.3" cx="377" cy="36" r="1" fill="white"></circle> <circle opacity="0.3" cx="1049" cy="204" r="1" fill="white"></circle> <circle opacity="0.3" cx="1049" cy="36" r="1" fill="white"></circle> <circle opacity="0.3" cx="209" cy="372" r="1" fill="white"></circle> <circle opacity="0.3" cx="881" cy="372" r="1" fill="white"></circle> <circle opacity="0.3" cx="545" cy="372" r="1" fill="white"></circle> <circle opacity="0.3" cx="209" cy="204" r="1" fill="white"></circle> <circle opacity="0.3" cx="209" cy="36" r="1" fill="white"></circle> <circle opacity="0.3" cx="881" cy="204" r="1" fill="white"></circle> <circle opacity="0.3" cx="881" cy="36" r="1" fill="white"></circle> <circle opacity="0.3" cx="545" cy="204" r="1" fill="white"></circle> <circle opacity="0.3" cx="545" cy="36" r="1" fill="white"></circle> <circle opacity="0.3" cx="41" cy="288" r="1" fill="white"></circle> <circle opacity="0.3" cx="713" cy="288" r="1" fill="white"></circle> <circle opacity="0.3" cx="377" cy="288" r="1" fill="white"></circle> <circle opacity="0.3" cx="1049" cy="288" r="1" fill="white"></circle> <circle opacity="0.3" cx="41" cy="456" r="1" fill="white"></circle> <circle opacity="0.3" cx="713" cy="456" r="1" fill="white"></circle> <circle opacity="0.3" cx="41" cy="120" r="1" fill="white"></circle> <circle opacity="0.3" cx="713" cy="120" r="1" fill="white"></circle> <circle opacity="0.3" cx="377" cy="456" r="1" fill="white"></circle> <circle opacity="0.3" cx="1049" cy="456" r="1" fill="white"></circle> <circle opacity="0.3" cx="377" cy="120" r="1" fill="white"></circle> <circle opacity="0.3" cx="1049" cy="120" r="1" fill="white"></circle> <circle opacity="0.3" cx="209" cy="288" r="1" fill="white"></circle> <circle opacity="0.3" cx="881" cy="288" r="1" fill="white"></circle> <circle opacity="0.3" cx="545" cy="288" r="1" fill="white"></circle> <circle opacity="0.3" cx="209" cy="456" r="1" fill="white"></circle> <circle opacity="0.3" cx="881" cy="456" r="1" fill="white"></circle> <circle opacity="0.3" cx="209" cy="120" r="1" fill="white"></circle> <circle opacity="0.3" cx="881" cy="120" r="1" fill="white"></circle> <circle opacity="0.3" cx="545" cy="456" r="1" fill="white"></circle> <circle opacity="0.3" cx="545" cy="120" r="1" fill="white"></circle> <circle opacity="0.3" cx="671" cy="414" r="1" fill="white"></circle> <circle opacity="0.3" cx="335" cy="414" r="1" fill="white"></circle> <circle opacity="0.3" cx="1007" cy="414" r="1" fill="white"></circle> <circle opacity="0.3" cx="671" cy="246" r="1" fill="white"></circle> <circle opacity="0.3" cx="671" cy="78" r="1" fill="white"></circle> <circle opacity="0.3" cx="335" cy="246" r="1" fill="white"></circle> <circle opacity="0.3" cx="335" cy="78" r="1" fill="white"></circle> <circle opacity="0.3" cx="1007" cy="246" r="1" fill="white"></circle> <circle opacity="0.3" cx="1007" cy="78" r="1" fill="white"></circle> <circle opacity="0.3" cx="167" cy="414" r="1" fill="white"></circle> <circle opacity="0.3" cx="839" cy="414" r="1" fill="white"></circle> <circle opacity="0.3" cx="503" cy="414" r="1" fill="white"></circle> <circle opacity="0.3" cx="1175" cy="414" r="1" fill="white"></circle> <circle opacity="0.3" cx="167" cy="246" r="1" fill="white"></circle> <circle opacity="0.3" cx="167" cy="78" r="1" fill="white"></circle> <circle opacity="0.3" cx="839" cy="246" r="1" fill="white"></circle> <circle opacity="0.3" cx="839" cy="78" r="1" fill="white"></circle> <circle opacity="0.3" cx="503" cy="246" r="1" fill="white"></circle> <circle opacity="0.3" cx="503" cy="78" r="1" fill="white"></circle> <circle opacity="0.3" cx="1175" cy="246" r="1" fill="white"></circle> <circle opacity="0.3" cx="1175" cy="78" r="1" fill="white"></circle> <circle opacity="0.3" cx="671" cy="330" r="1" fill="white"></circle> <circle opacity="0.3" cx="335" cy="330" r="1" fill="white"></circle> <circle opacity="0.3" cx="1007" cy="330" r="1" fill="white"></circle> <circle opacity="0.3" cx="671" cy="162" r="1" fill="white"></circle> <circle opacity="0.3" cx="335" cy="162" r="1" fill="white"></circle> <circle opacity="0.3" cx="1007" cy="162" r="1" fill="white"></circle> <circle opacity="0.3" cx="167" cy="330" r="1" fill="white"></circle> <circle opacity="0.3" cx="839" cy="330" r="1" fill="white"></circle> <circle opacity="0.3" cx="503" cy="330" r="1" fill="white"></circle> <circle opacity="0.3" cx="1175" cy="330" r="1" fill="white"></circle> <circle opacity="0.3" cx="167" cy="162" r="1" fill="white"></circle> <circle opacity="0.3" cx="839" cy="162" r="1" fill="white"></circle> <circle opacity="0.3" cx="503" cy="162" r="1" fill="white"></circle> <circle opacity="0.3" cx="1175" cy="162" r="1" fill="white"></circle> <circle opacity="0.3" cx="83" cy="414" r="1" fill="white"></circle> <circle opacity="0.3" cx="755" cy="414" r="1" fill="white"></circle> <circle opacity="0.3" cx="419" cy="414" r="1" fill="white"></circle> <circle opacity="0.3" cx="1091" cy="414" r="1" fill="white"></circle> <circle opacity="0.3" cx="83" cy="246" r="1" fill="white"></circle> <circle opacity="0.3" cx="83" cy="78" r="1" fill="white"></circle> <circle opacity="0.3" cx="755" cy="246" r="1" fill="white"></circle> <circle opacity="0.3" cx="755" cy="78" r="1" fill="white"></circle> <circle opacity="0.3" cx="419" cy="246" r="1" fill="white"></circle> <circle opacity="0.3" cx="419" cy="78" r="1" fill="white"></circle> <circle opacity="0.3" cx="1091" cy="246" r="1" fill="white"></circle> <circle opacity="0.3" cx="1091" cy="78" r="1" fill="white"></circle> <circle opacity="0.3" cx="251" cy="414" r="1" fill="white"></circle> <circle opacity="0.3" cx="923" cy="414" r="1" fill="white"></circle> <circle opacity="0.3" cx="587" cy="414" r="1" fill="white"></circle> <circle opacity="0.3" cx="251" cy="246" r="1" fill="white"></circle> <circle opacity="0.3" cx="251" cy="78" r="1" fill="white"></circle> <circle opacity="0.3" cx="923" cy="246" r="1" fill="white"></circle> <circle opacity="0.3" cx="923" cy="78" r="1" fill="white"></circle> <circle opacity="0.3" cx="587" cy="246" r="1" fill="white"></circle> <circle opacity="0.3" cx="587" cy="78" r="1" fill="white"></circle> <circle opacity="0.3" cx="83" cy="330" r="1" fill="white"></circle> <circle opacity="0.3" cx="755" cy="330" r="1" fill="white"></circle> <circle opacity="0.3" cx="419" cy="330" r="1" fill="white"></circle> <circle opacity="0.3" cx="1091" cy="330" r="1" fill="white"></circle> <circle opacity="0.3" cx="83" cy="162" r="1" fill="white"></circle> <circle opacity="0.3" cx="755" cy="162" r="1" fill="white"></circle> <circle opacity="0.3" cx="419" cy="162" r="1" fill="white"></circle> <circle opacity="0.3" cx="1091" cy="162" r="1" fill="white"></circle> <circle opacity="0.3" cx="251" cy="330" r="1" fill="white"></circle> <circle opacity="0.3" cx="923" cy="330" r="1" fill="white"></circle> <circle opacity="0.3" cx="587" cy="330" r="1" fill="white"></circle> <circle opacity="0.3" cx="251" cy="162" r="1" fill="white"></circle> <circle opacity="0.3" cx="923" cy="162" r="1" fill="white"></circle> <circle opacity="0.3" cx="587" cy="162" r="1" fill="white"></circle> <circle opacity="0.3" cx="671" cy="372" r="1" fill="white"></circle> <circle opacity="0.3" cx="335" cy="372" r="1" fill="white"></circle> <circle opacity="0.3" cx="1007" cy="372" r="1" fill="white"></circle> <circle opacity="0.3" cx="671" cy="204" r="1" fill="white"></circle> <circle opacity="0.3" cx="671" cy="36" r="1" fill="white"></circle> <circle opacity="0.3" cx="335" cy="204" r="1" fill="white"></circle> <circle opacity="0.3" cx="335" cy="36" r="1" fill="white"></circle> <circle opacity="0.3" cx="1007" cy="204" r="1" fill="white"></circle> <circle opacity="0.3" cx="1007" cy="36" r="1" fill="white"></circle> <circle opacity="0.3" cx="167" cy="372" r="1" fill="white"></circle> <circle opacity="0.3" cx="839" cy="372" r="1" fill="white"></circle> <circle opacity="0.3" cx="503" cy="372" r="1" fill="white"></circle> <circle opacity="0.3" cx="1175" cy="372" r="1" fill="white"></circle> <circle opacity="0.3" cx="167" cy="204" r="1" fill="white"></circle> <circle opacity="0.3" cx="167" cy="36" r="1" fill="white"></circle> <circle opacity="0.3" cx="839" cy="204" r="1" fill="white"></circle> <circle opacity="0.3" cx="839" cy="36" r="1" fill="white"></circle> <circle opacity="0.3" cx="503" cy="204" r="1" fill="white"></circle> <circle opacity="0.3" cx="503" cy="36" r="1" fill="white"></circle> <circle opacity="0.3" cx="1175" cy="204" r="1" fill="white"></circle> <circle opacity="0.3" cx="1175" cy="36" r="1" fill="white"></circle> <circle opacity="0.3" cx="671" cy="288" r="1" fill="white"></circle> <circle opacity="0.3" cx="335" cy="288" r="1" fill="white"></circle> <circle opacity="0.3" cx="1007" cy="288" r="1" fill="white"></circle> <circle opacity="0.3" cx="671" cy="456" r="1" fill="white"></circle> <circle opacity="0.3" cx="671" cy="120" r="1" fill="white"></circle> <circle opacity="0.3" cx="335" cy="456" r="1" fill="white"></circle> <circle opacity="0.3" cx="1007" cy="456" r="1" fill="white"></circle> <circle opacity="0.3" cx="335" cy="120" r="1" fill="white"></circle> <circle opacity="0.3" cx="1007" cy="120" r="1" fill="white"></circle> <circle opacity="0.3" cx="167" cy="288" r="1" fill="white"></circle> <circle opacity="0.3" cx="839" cy="288" r="1" fill="white"></circle> <circle opacity="0.3" cx="503" cy="288" r="1" fill="white"></circle> <circle opacity="0.3" cx="1175" cy="288" r="1" fill="white"></circle> <circle opacity="0.3" cx="167" cy="456" r="1" fill="white"></circle> <circle opacity="0.3" cx="839" cy="456" r="1" fill="white"></circle> <circle opacity="0.3" cx="167" cy="120" r="1" fill="white"></circle> <circle opacity="0.3" cx="839" cy="120" r="1" fill="white"></circle> <circle opacity="0.3" cx="503" cy="456" r="1" fill="white"></circle> <circle opacity="0.3" cx="1175" cy="456" r="1" fill="white"></circle> <circle opacity="0.3" cx="503" cy="120" r="1" fill="white"></circle> <circle opacity="0.3" cx="1175" cy="120" r="1" fill="white"></circle> <circle opacity="0.3" cx="83" cy="372" r="1" fill="white"></circle> <circle opacity="0.3" cx="755" cy="372" r="1" fill="white"></circle> <circle opacity="0.3" cx="419" cy="372" r="1" fill="white"></circle> <circle opacity="0.3" cx="1091" cy="372" r="1" fill="white"></circle> <circle opacity="0.3" cx="83" cy="204" r="1" fill="white"></circle> <circle opacity="0.3" cx="83" cy="36" r="1" fill="white"></circle> <circle opacity="0.3" cx="755" cy="204" r="1" fill="white"></circle> <circle opacity="0.3" cx="755" cy="36" r="1" fill="white"></circle> <circle opacity="0.3" cx="419" cy="204" r="1" fill="white"></circle> <circle opacity="0.3" cx="419" cy="36" r="1" fill="white"></circle> <circle opacity="0.3" cx="1091" cy="204" r="1" fill="white"></circle> <circle opacity="0.3" cx="1091" cy="36" r="1" fill="white"></circle> <circle opacity="0.3" cx="251" cy="372" r="1" fill="white"></circle> <circle opacity="0.3" cx="923" cy="372" r="1" fill="white"></circle> <circle opacity="0.3" cx="587" cy="372" r="1" fill="white"></circle> <circle opacity="0.3" cx="251" cy="204" r="1" fill="white"></circle> <circle opacity="0.3" cx="251" cy="36" r="1" fill="white"></circle> <circle opacity="0.3" cx="923" cy="204" r="1" fill="white"></circle> <circle opacity="0.3" cx="923" cy="36" r="1" fill="white"></circle> <circle opacity="0.3" cx="587" cy="204" r="1" fill="white"></circle> <circle opacity="0.3" cx="587" cy="36" r="1" fill="white"></circle> <circle opacity="0.3" cx="83" cy="288" r="1" fill="white"></circle> <circle opacity="0.3" cx="755" cy="288" r="1" fill="white"></circle> <circle opacity="0.3" cx="419" cy="288" r="1" fill="white"></circle> <circle opacity="0.3" cx="1091" cy="288" r="1" fill="white"></circle> <circle opacity="0.3" cx="83" cy="456" r="1" fill="white"></circle> <circle opacity="0.3" cx="755" cy="456" r="1" fill="white"></circle> <circle opacity="0.3" cx="83" cy="120" r="1" fill="white"></circle> <circle opacity="0.3" cx="755" cy="120" r="1" fill="white"></circle> <circle opacity="0.3" cx="419" cy="456" r="1" fill="white"></circle> <circle opacity="0.3" cx="1091" cy="456" r="1" fill="white"></circle> <circle opacity="0.3" cx="419" cy="120" r="1" fill="white"></circle> <circle opacity="0.3" cx="1091" cy="120" r="1" fill="white"></circle> <circle opacity="0.3" cx="251" cy="288" r="1" fill="white"></circle> <circle opacity="0.3" cx="923" cy="288" r="1" fill="white"></circle> <circle opacity="0.3" cx="587" cy="288" r="1" fill="white"></circle> <circle opacity="0.3" cx="251" cy="456" r="1" fill="white"></circle> <circle opacity="0.3" cx="923" cy="456" r="1" fill="white"></circle> <circle opacity="0.3" cx="251" cy="120" r="1" fill="white"></circle> <circle opacity="0.3" cx="923" cy="120" r="1" fill="white"></circle> <circle opacity="0.3" cx="587" cy="456" r="1" fill="white"></circle> <circle opacity="0.3" cx="587" cy="120" r="1" fill="white"></circle> </g> <path d="M1176.8 0H1204L1190.2 119.5H1163L1176.8 0Z" fill="#FFBD37"></path> <path d="M14.802 282H42L27.198 401.5H0L14.802 282Z" fill="#252525"></path> </svg> 