<svg width="30" height="30" viewBox="0 0 30 30" fill="none" xmlns="http://www.w3.org/2000/svg">
<path d="M9 23.2035C7.35 23.2035 6 24.5087 6 26.1039C6 27.6992 7.35 29.0044 9 29.0044C10.65 29.0044 12 27.6992 12 26.1039C12 24.5087 10.65 23.2035 9 23.2035ZM0 0V2.90044H3L8.4 13.9221L6.3 17.4026C6.15 17.8377 6 18.4178 6 18.8528C6 20.4481 7.35 21.7533 9 21.7533H27V18.8528H9.6C9.45 18.8528 9.3 18.7078 9.3 18.5628V18.4177L10.65 15.9523H21.75C22.95 15.9523 23.85 15.3723 24.3 14.5021L29.7 5.07576C30 4.78572 30 4.6407 30 4.35066C30 3.48052 29.4 2.90044 28.5 2.90044H6.3L4.95 0H0ZM24 23.2035C22.35 23.2035 21 24.5087 21 26.1039C21 27.6992 22.35 29.0044 24 29.0044C25.65 29.0044 27 27.6992 27 26.1039C27 24.5087 25.65 23.2035 24 23.2035Z" fill="#CEDBCF"/>
</svg>
