<svg id="SvgjsSvg1025" xmlns="http://www.w3.org/2000/svg" viewBox="0 0 24 21"><defs></defs><title>lk-nav-star</title><path id="SvgjsPath1028" class="cls-1" d="M22,17H18v3.5a0.5,0.5,0,1,1-1,0v-1a0.5,0.5,0,1,1-1,0v-1a0.5,0.5,0,1,1-1,0v-1a0.5,0.5,0,0,1-1,0V17H2a2,2,0,0,1-2-2V2A2,2,0,0,1,2,0H22a2,2,0,0,1,2,2V15A2,2,0,0,1,22,17ZM16.14,7.07l-2.63-.25a0.45,0.45,0,0,1-.38-0.28L12.19,4.25a0.45,0.45,0,0,0-.84,0L10.42,6.53a0.45,0.45,0,0,1-.38.28L7.41,7a0.45,0.45,0,0,0-.26.79l2,1.74a0.45,0.45,0,0,1,.14.45l-0.6,2.44a0.45,0.45,0,0,0,.67.5l2.2-1.29a0.46,0.46,0,0,1,.46,0L14.19,13a0.45,0.45,0,0,0,.67-0.5L14.28,10a0.45,0.45,0,0,1,.14-0.45l2-1.74A0.46,0.46,0,0,0,16.14,7.07Z" transform="translate(0 0)"/></svg>