<svg id="SvgjsSvg1041" xmlns="http://www.w3.org/2000/svg" viewBox="0 0 23 23"><defs></defs><title>lk-nav-info</title><path id="SvgjsPath1044" class="cls-1" d="M11.5,0A11.5,11.5,0,1,0,23,11.5,11.5,11.5,0,0,0,11.5,0h0Zm2.39,17.82q-0.89.35-1.42,0.53a3.75,3.75,0,0,1-1.23.18A2.46,2.46,0,0,1,9.58,18,1.7,1.7,0,0,1,9,16.69,4.88,4.88,0,0,1,9,16a2.32,2.32,0,0,1,.14-0.74l0.78-2.62C10,12.44,10,12.2,10.08,12a3.16,3.16,0,0,0,.07-0.62,1,1,0,0,0-.21-0.7,1.18,1.18,0,0,0-.79-0.2,2.09,2.09,0,0,0-.59.09L8,10.73l0.2-.81Q9,9.62,9.63,9.41a4.12,4.12,0,0,1,1.26-.21,2.4,2.4,0,0,1,1.65.52,1.71,1.71,0,0,1,.58,1.34v0.6a4,4,0,0,1-.15.79l-0.78,2.61a7.36,7.36,0,0,0-.16.72,3.76,3.76,0,0,0-.07.61,0.88,0.88,0,0,0,.23.71,1.3,1.3,0,0,0,.8.19,2.32,2.32,0,0,0,.61-0.09A3.46,3.46,0,0,0,14.09,17ZM13.77,7.23a1.76,1.76,0,0,1-1.24.48,1.78,1.78,0,0,1-1.25-.48A1.56,1.56,0,0,1,11.15,5l0.13-.13a1.76,1.76,0,0,1,1.25-.48,1.74,1.74,0,0,1,1.24.48,1.57,1.57,0,0,1,.11,2.22Z" transform="translate(0.01 0.01)"/></svg>