<svg id="SvgjsSvg1000" xmlns="http://www.w3.org/2000/svg" viewBox="0 0 22 21.99"><defs></defs><title>lk-nav-user</title><path id="SvgjsPath1008" class="cls-1" d="M17.87,15.11H16.5a2.75,2.75,0,0,1-2.75-2.75V11.48A7,7,0,0,0,15.07,9a0.75,0.75,0,0,1,.27-0.33,1.7,1.7,0,0,0,.23-2,0.59,0.59,0,0,1-.15-0.3V3.94a4,4,0,0,0-1-2.7A3.84,3.84,0,0,0,12.36.13a6.93,6.93,0,0,0-3,.07A3.63,3.63,0,0,0,7.23,1.64a4.17,4.17,0,0,0-.66,2.18V6.28a0.8,0.8,0,0,1-.18.41,1.7,1.7,0,0,0,.39,2.08A0.81,0.81,0,0,1,7,9.23a6.64,6.64,0,0,0,1.24,2.22v0.91A2.75,2.75,0,0,1,5.5,15.11H4.12S1.63,15.8,0,19.23V20.6A1.37,1.37,0,0,0,1.35,22H20.62A1.37,1.37,0,0,0,22,20.63s0,0,0,0V19.23C20.37,15.8,17.87,15.11,17.87,15.11Z" transform="translate(0 0)"/></svg>