<svg id="SvgjsSvg1000" xmlns="http://www.w3.org/2000/svg" viewBox="0 0 20.98 20.98"><title>smile-sad</title><path id="SvgjsPath1007" d="M17.9,3.06a10.49,10.49,0,1,0,0,14.84h0A10.5,10.5,0,0,0,17.9,3.06ZM16.76,16.75a8.87,8.87,0,1,1,0-12.55A8.87,8.87,0,0,1,16.76,16.75Zm-9-7.89A1.23,1.23,0,1,0,6.57,7.59s0,0,0,0A1.23,1.23,0,0,0,7.8,8.87h0Zm5.56,0a1.23,1.23,0,1,0-1.23-1.23h0a1.23,1.23,0,0,0,1.22,1.24h0ZM5.88,14.74a4.9,4.9,0,0,1,4.54-2.89A4.85,4.85,0,0,1,15,14.76a0.58,0.58,0,0,1-.29.77h0a0.77,0.77,0,0,1-.77-0.37A3.68,3.68,0,0,0,10.42,13,3.71,3.71,0,0,0,7,15.17,0.59,0.59,0,0,1,5.88,14.74Z" transform="translate(0.01 0.02)"/></svg>