<svg id="SvgjsSvg1017" xmlns="http://www.w3.org/2000/svg" version="1.1" xmlns:xlink="http://www.w3.org/1999/xlink" xmlns:svgjs="http://svgjs.com/svgjs" width="19" height="19" viewBox="0 0 19 19"><title>Forma 1</title><desc>Created with Avocode.</desc><defs id="SvgjsDefs1018"></defs><path id="SvgjsPath1019" d="M638.509 1907.87C639.416 1907.87 640.139 1907.1399999999999 640.135 1906.2299999999998C640.132 1905.3199999999997 639.408 1904.5999999999997 638.501 1904.5999999999997C637.5849999999999 1904.5999999999997 636.855 1905.3299999999997 636.862 1906.2499999999998C636.8679999999999 1907.1599999999999 637.5989999999999 1907.8799999999999 638.509 1907.8699999999997ZM638.5 1900C633.254 1900 629.001 1904.25 629.001 1909.5C629.001 1914.75 633.254 1919 638.5 1919C643.747 1919 648 1914.75 648 1909.5C648 1904.25 643.747 1900 638.5 1900ZM642.261 1910.9C641.852 1911.3200000000002 641.36 1911.6200000000001 640.813 1911.8300000000002C640.2959999999999 1912.0300000000002 639.729 1912.13 639.168 1912.2C639.253 1912.29 639.293 1912.3400000000001 639.346 1912.39C640.107 1913.16 640.872 1913.92 641.63 1914.68C641.889 1914.95 641.943 1915.27 641.801 1915.5700000000002C641.6450000000001 1915.91 641.297 1916.13 640.955 1916.1000000000001C640.738 1916.0900000000001 640.5690000000001 1915.9800000000002 640.4200000000001 1915.8300000000002C639.845 1915.2500000000002 639.2600000000001 1914.68 638.6970000000001 1914.0900000000001C638.5330000000001 1913.92 638.4550000000002 1913.95 638.3100000000002 1914.1000000000001C637.7320000000002 1914.7 637.1440000000001 1915.2800000000002 636.5540000000002 1915.8700000000001C636.2890000000002 1916.13 635.9730000000002 1916.18 635.6650000000002 1916.0300000000002C635.3380000000002 1915.8700000000001 635.1300000000002 1915.5300000000002 635.1460000000002 1915.2000000000003C635.1570000000002 1914.9700000000003 635.2690000000002 1914.8000000000002 635.4250000000002 1914.6400000000003C636.1780000000002 1913.8900000000003 636.9290000000002 1913.1400000000003 637.6810000000002 1912.3800000000003C637.7310000000001 1912.3300000000004 637.7770000000002 1912.2800000000004 637.8490000000002 1912.2000000000003C636.8250000000002 1912.0900000000004 635.9000000000002 1911.8400000000004 635.1090000000002 1911.2200000000003C635.0110000000002 1911.1500000000003 634.9090000000001 1911.0700000000002 634.8200000000002 1910.9900000000002C634.4740000000002 1910.6500000000003 634.4390000000002 1910.2700000000002 634.7130000000002 1909.8800000000003C634.9470000000002 1909.5400000000004 635.3410000000002 1909.4500000000003 635.7500000000002 1909.6500000000003C635.8290000000002 1909.6800000000003 635.9040000000002 1909.7300000000002 635.9770000000002 1909.7800000000004C637.4510000000002 1910.7900000000004 639.4770000000002 1910.8200000000004 640.9570000000002 1909.8300000000004C641.1040000000003 1909.7100000000005 641.2600000000002 1909.6200000000003 641.4420000000002 1909.5800000000004C641.7950000000002 1909.4900000000005 642.1250000000002 1909.6200000000003 642.3140000000002 1909.9200000000003C642.5310000000002 1910.2800000000002 642.5280000000002 1910.6200000000003 642.2610000000002 1910.9000000000003ZM638.514 1902.89C640.364 1902.89 641.849 1904.41 641.84 1906.2800000000002C641.83 1908.1100000000001 640.321 1909.5900000000001 638.474 1909.5800000000002C636.6450000000001 1909.5700000000002 635.1460000000001 1908.0600000000002 635.157 1906.2300000000002C635.167 1904.3800000000003 636.667 1902.8800000000003 638.514 1902.8900000000003Z " fill="#000000" fill-opacity="1" transform="matrix(1,0,0,1,-629,-1900)"></path><path id="SvgjsPath1020" d="M638.509 1907.87C639.416 1907.87 640.139 1907.1399999999999 640.135 1906.2299999999998C640.132 1905.3199999999997 639.408 1904.5999999999997 638.501 1904.5999999999997C637.5849999999999 1904.5999999999997 636.855 1905.3299999999997 636.862 1906.2499999999998C636.8679999999999 1907.1599999999999 637.5989999999999 1907.8799999999999 638.509 1907.8699999999997ZM638.5 1900C633.254 1900 629.001 1904.25 629.001 1909.5C629.001 1914.75 633.254 1919 638.5 1919C643.747 1919 648 1914.75 648 1909.5C648 1904.25 643.747 1900 638.5 1900ZM642.261 1910.9C641.852 1911.3200000000002 641.36 1911.6200000000001 640.813 1911.8300000000002C640.2959999999999 1912.0300000000002 639.729 1912.13 639.168 1912.2C639.253 1912.29 639.293 1912.3400000000001 639.346 1912.39C640.107 1913.16 640.872 1913.92 641.63 1914.68C641.889 1914.95 641.943 1915.27 641.801 1915.5700000000002C641.6450000000001 1915.91 641.297 1916.13 640.955 1916.1000000000001C640.738 1916.0900000000001 640.5690000000001 1915.9800000000002 640.4200000000001 1915.8300000000002C639.845 1915.2500000000002 639.2600000000001 1914.68 638.6970000000001 1914.0900000000001C638.5330000000001 1913.92 638.4550000000002 1913.95 638.3100000000002 1914.1000000000001C637.7320000000002 1914.7 637.1440000000001 1915.2800000000002 636.5540000000002 1915.8700000000001C636.2890000000002 1916.13 635.9730000000002 1916.18 635.6650000000002 1916.0300000000002C635.3380000000002 1915.8700000000001 635.1300000000002 1915.5300000000002 635.1460000000002 1915.2000000000003C635.1570000000002 1914.9700000000003 635.2690000000002 1914.8000000000002 635.4250000000002 1914.6400000000003C636.1780000000002 1913.8900000000003 636.9290000000002 1913.1400000000003 637.6810000000002 1912.3800000000003C637.7310000000001 1912.3300000000004 637.7770000000002 1912.2800000000004 637.8490000000002 1912.2000000000003C636.8250000000002 1912.0900000000004 635.9000000000002 1911.8400000000004 635.1090000000002 1911.2200000000003C635.0110000000002 1911.1500000000003 634.9090000000001 1911.0700000000002 634.8200000000002 1910.9900000000002C634.4740000000002 1910.6500000000003 634.4390000000002 1910.2700000000002 634.7130000000002 1909.8800000000003C634.9470000000002 1909.5400000000004 635.3410000000002 1909.4500000000003 635.7500000000002 1909.6500000000003C635.8290000000002 1909.6800000000003 635.9040000000002 1909.7300000000002 635.9770000000002 1909.7800000000004C637.4510000000002 1910.7900000000004 639.4770000000002 1910.8200000000004 640.9570000000002 1909.8300000000004C641.1040000000003 1909.7100000000005 641.2600000000002 1909.6200000000003 641.4420000000002 1909.5800000000004C641.7950000000002 1909.4900000000005 642.1250000000002 1909.6200000000003 642.3140000000002 1909.9200000000003C642.5310000000002 1910.2800000000002 642.5280000000002 1910.6200000000003 642.2610000000002 1910.9000000000003ZM638.514 1902.89C640.364 1902.89 641.849 1904.41 641.84 1906.2800000000002C641.83 1908.1100000000001 640.321 1909.5900000000001 638.474 1909.5800000000002C636.6450000000001 1909.5700000000002 635.1460000000001 1908.0600000000002 635.157 1906.2300000000002C635.167 1904.3800000000003 636.667 1902.8800000000003 638.514 1902.8900000000003Z " fill="#adadad" fill-opacity="1" transform="matrix(1,0,0,1,-629,-1900)"></path></svg>