<svg id="Слой_1" data-name="Слой 1" xmlns="http://www.w3.org/2000/svg" viewBox="0 0 39 37.2"><title>star</title><path d="M39,15.16a1.75,1.75,0,0,1-.61,1.13l-8.51,8.3,2,11.72a3.2,3.2,0,0,1,0,.47,1,1,0,0,1-1,1.17A1.9,1.9,0,0,1,30,37.66L19.5,32.13,9,37.66a2,2,0,0,1-.94.28,1,1,0,0,1-1-1.17,3.11,3.11,0,0,1,0-.47l2-11.72-8.53-8.3A1.83,1.83,0,0,1,0,15.16a1.3,1.3,0,0,1,1.31-1.08l11.77-1.71L18.35,1.71a1.46,1.46,0,0,1,1.15-1,1.46,1.46,0,0,1,1.15,1l5.27,10.66,11.77,1.71A1.32,1.32,0,0,1,39,15.16h0Z" transform="translate(0 -0.75)"/></svg>