<svg width="28" height="35" viewBox="0 0 28 35" fill="none" xmlns="http://www.w3.org/2000/svg">
<path d="M14.6636 21.967H14.4808L14.5026 21.9452L23.2988 13.1491C23.7785 12.6694 23.7785 11.8887 23.2988 11.409L17.4628 5.57299C17.2304 5.34057 16.9214 5.2126 16.5927 5.2126C16.2641 5.2126 15.9551 5.34062 15.7227 5.57299L6.92657 14.3691L4.52393 16.7718C4.25979 17.0359 4.11432 17.387 4.11432 17.7605C4.11432 18.1339 4.25979 18.4851 4.52387 18.7492L8.44196 22.6673C8.5189 22.7442 8.62319 22.7874 8.73202 22.7874H10.6303H11.478H13.0708H13.4907H14.6637C14.8903 22.7874 15.0739 22.6038 15.0739 22.3773C15.0739 22.1507 14.8902 21.967 14.6636 21.967ZM13.0708 21.967H11.4779H10.6303H8.90188L5.10394 18.1691C4.99479 18.06 4.93463 17.9149 4.93463 17.7605C4.93463 17.6061 4.99479 17.461 5.104 17.3518L7.21663 15.2391L13.6326 21.6552L13.3207 21.967H13.0708ZM16.5927 6.03291C16.7022 6.03291 16.8053 6.07557 16.8828 6.15306L22.7187 11.989C22.8786 12.1489 22.8786 12.4091 22.7187 12.5691L14.2127 21.0751L7.79665 14.6591L16.3028 6.15301C16.3802 6.07557 16.4832 6.03291 16.5927 6.03291Z" fill="white"/>
<path d="M14.6636 21.967H14.4808L14.5026 21.9452L23.2988 13.1491C23.7785 12.6694 23.7785 11.8887 23.2988 11.409L17.4628 5.57299C17.2304 5.34057 16.9214 5.2126 16.5927 5.2126C16.2641 5.2126 15.9551 5.34062 15.7227 5.57299L6.92657 14.3691L4.52393 16.7718C4.25979 17.0359 4.11432 17.387 4.11432 17.7605C4.11432 18.1339 4.25979 18.4851 4.52387 18.7492L8.44196 22.6673C8.5189 22.7442 8.62319 22.7874 8.73202 22.7874H10.6303H11.478H13.0708H13.4907H14.6637C14.8903 22.7874 15.0739 22.6038 15.0739 22.3773C15.0739 22.1507 14.8902 21.967 14.6636 21.967ZM13.0708 21.967H11.4779H10.6303H8.90188L5.10394 18.1691C4.99479 18.06 4.93463 17.9149 4.93463 17.7605C4.93463 17.6061 4.99479 17.461 5.104 17.3518L7.21663 15.2391L13.6326 21.6552L13.3207 21.967H13.0708ZM16.5927 6.03291C16.7022 6.03291 16.8053 6.07557 16.8828 6.15306L22.7187 11.989C22.8786 12.1489 22.8786 12.4091 22.7187 12.5691L14.2127 21.0751L7.79665 14.6591L16.3028 6.15301C16.3802 6.07557 16.4832 6.03291 16.5927 6.03291Z" fill="black"/>
<path d="M21.0351 21.967H19.4422C19.2156 21.967 19.032 22.1506 19.032 22.3772C19.032 22.6038 19.2156 22.7874 19.4422 22.7874H21.0351C21.2617 22.7874 21.4452 22.6038 21.4452 22.3772C21.4452 22.1506 21.2616 21.967 21.0351 21.967Z" fill="white"/>
<path d="M21.0351 21.967H19.4422C19.2156 21.967 19.032 22.1506 19.032 22.3772C19.032 22.6038 19.2156 22.7874 19.4422 22.7874H21.0351C21.2617 22.7874 21.4452 22.6038 21.4452 22.3772C21.4452 22.1506 21.2616 21.967 21.0351 21.967Z" fill="black"/>
<path d="M17.8493 21.967H16.2565C16.03 21.967 15.8464 22.1506 15.8464 22.3772C15.8464 22.6038 16.03 22.7874 16.2565 22.7874H17.8493C18.0759 22.7874 18.2595 22.6038 18.2595 22.3772C18.2595 22.1506 18.0758 21.967 17.8493 21.967Z" fill="white"/>
<path d="M17.8493 21.967H16.2565C16.03 21.967 15.8464 22.1506 15.8464 22.3772C15.8464 22.6038 16.03 22.7874 16.2565 22.7874H17.8493C18.0759 22.7874 18.2595 22.6038 18.2595 22.3772C18.2595 22.1506 18.0758 21.967 17.8493 21.967Z" fill="black"/>
<path d="M23.4756 21.967H22.6279C22.4014 21.967 22.2178 22.1506 22.2178 22.3772C22.2178 22.6038 22.4014 22.7874 22.6279 22.7874H23.4756C23.7022 22.7874 23.8857 22.6038 23.8857 22.3772C23.8857 22.1506 23.7021 21.967 23.4756 21.967Z" fill="white"/>
<path d="M23.4756 21.967H22.6279C22.4014 21.967 22.2178 22.1506 22.2178 22.3772C22.2178 22.6038 22.4014 22.7874 22.6279 22.7874H23.4756C23.7022 22.7874 23.8857 22.6038 23.8857 22.3772C23.8857 22.1506 23.7021 21.967 23.4756 21.967Z" fill="black"/>
</svg>
