<svg width="30" height="40" viewBox="0 0 30 40" fill="none" xmlns="http://www.w3.org/2000/svg">
<path d="M18.0466 24.5024L21.5773 21.1678C22.8744 19.943 23.5251 18.3332 23.5245 16.7279C23.5248 15.5905 23.1969 14.4518 22.5454 13.4486C22.8798 13.3797 23.1996 13.2236 23.4587 12.9789C23.8186 12.6393 24.0006 12.1899 24 11.7451C24.0006 11.3002 23.8186 10.8505 23.459 10.5112C23.0995 10.1713 22.6237 9.99944 22.1526 10C21.6816 9.99944 21.2055 10.1713 20.8462 10.5109C20.5871 10.7554 20.4215 11.0574 20.3489 11.3733C19.2867 10.7579 18.081 10.448 16.8768 10.4485C15.1771 10.448 13.4726 11.0625 12.1757 12.2876L8.64448 15.6224C8.37908 15.8728 8.03597 15.9962 7.68807 15.9967C7.34017 15.9962 6.99706 15.8728 6.73166 15.6227L6 16.3137L10.7617 20.811C9.85196 21.3355 9.25061 22.2809 9.25061 23.3589C9.25031 24.1944 9.60807 24.954 10.1843 25.5C10.7597 26.0467 11.56 26.3858 12.4379 26.3855C13.1579 26.386 13.8226 26.1633 14.3516 25.7859C14.6699 25.5592 14.9392 25.2767 15.1484 24.9543L17.3144 27L18.046 26.309C17.7809 26.0583 17.6503 25.7343 17.6497 25.4057C17.6512 25.0771 17.7815 24.7531 18.0466 24.5024ZM21.3394 11.7448C21.34 11.5466 21.4177 11.353 21.5776 11.2019C21.7375 11.0512 21.9425 10.9775 22.1523 10.977C22.3621 10.9775 22.5672 11.0509 22.7271 11.2019C22.8867 11.3532 22.9647 11.5469 22.9653 11.7448C22.9647 11.9429 22.887 12.1366 22.7271 12.2876C22.5669 12.4383 22.3618 12.512 22.1523 12.5126C21.9425 12.512 21.7375 12.4386 21.5776 12.2879C21.4177 12.1366 21.34 11.9429 21.3394 11.7448ZM9.37614 16.3135L12.9071 12.9786C14.0046 11.9424 15.4383 11.4264 16.8765 11.4258C18.315 11.4264 19.7484 11.9426 20.8459 12.9786C21.9431 14.0151 22.4895 15.3692 22.4901 16.7276C22.4895 18.0862 21.9428 19.44 20.8459 20.4765L17.315 23.8117C16.9608 24.1462 16.7411 24.5622 16.6562 24.9961L8.12204 16.9356C8.58112 16.8554 9.02197 16.6482 9.37614 16.3135ZM13.7296 25.0054C13.3731 25.2586 12.9337 25.4077 12.4385 25.4082C11.8443 25.4079 11.3096 25.1813 10.9181 24.8104C10.5271 24.4389 10.2859 23.9296 10.2856 23.3586C10.2856 22.5431 10.7913 21.8481 11.526 21.5322L14.3851 24.2325C14.2332 24.5408 14.0094 24.8064 13.7296 25.0054Z" fill="black"/>
<path d="M8 10.7917L7.39175 10C6.49625 10.6878 5.68785 11.4963 5 12.3918L5.79167 13C6.42617 12.1737 7.17401 11.4259 8 10.7917Z" fill="white"/>
<path d="M24 25.6053L23.2188 25C22.5784 25.8269 21.8269 26.5784 21 27.2188L21.6053 28C22.4984 27.3079 23.3079 26.4984 24 25.6053Z" fill="white"/>
<path d="M6.46621 6C4.72232 7.18039 3.18011 8.72232 2 10.4662L2.78885 11C3.8988 9.35901 5.35929 7.8988 7 6.78885L6.46621 6Z" fill="white"/>
<path d="M27.0732 26C25.7126 27.9532 23.9529 29.7126 22 31.0732L22.6459 32C24.7117 30.5601 26.5601 28.7117 28 26.6459L27.0732 26Z" fill="white"/>
</svg>
