<svg width="39" height="43" viewBox="0 0 39 43" fill="none" xmlns="http://www.w3.org/2000/svg">
<g clip-path="url(#clip0)">
<path d="M19.9382 8.39529C19.4875 8.51843 19.1375 8.88566 18.9472 9.44711C18.272 11.4384 17.5735 13.498 12.263 14.9488L11.9753 15.0256C10.057 15.5265 8.87507 15.8417 8.15168 16.0394C7.33854 16.2615 7.00055 16.3538 6.8744 16.4526C6.32582 16.7262 4.94065 17.6879 5.51192 20.2347C5.51199 20.2625 5.51656 20.2903 5.52488 20.3185C5.5268 20.3233 5.54186 20.3829 5.54385 20.388C5.55067 20.4151 5.56071 20.4408 5.57465 20.4643C6.37772 22.9504 8.06026 23.074 8.67166 23.0314C8.8309 23.0516 9.16889 22.9592 9.98147 22.7372C9.98877 22.7352 9.99746 22.7329 10.0048 22.7309L14.5817 26.978C14.8332 27.2002 15.3753 27.4458 16.0361 27.2652C16.3208 27.1875 16.6284 27.03 16.9433 26.7573C18.5545 25.364 18.5545 25.364 18.3289 25.1099L14.5978 21.4551C14.858 21.3905 15.1104 21.3322 15.3525 21.2818C15.3849 21.2836 15.4176 21.2838 15.4507 21.2748C15.4669 21.2703 15.4789 21.26 15.4939 21.2532C19.6922 20.4137 21.1887 21.6856 22.6434 22.9368C23.0786 23.3108 23.5664 23.4492 24.0177 23.3259C24.3403 23.2378 24.6294 23.0151 24.8107 22.7144C24.991 22.4166 25.0477 22.0759 24.9672 21.781L21.5419 9.243C21.3705 8.61684 20.6066 8.21269 19.9382 8.39529ZM17.6764 25.3186C17.4949 25.4805 17.1605 25.7747 16.5442 26.3083C15.672 27.0632 15.0564 26.585 14.9962 26.5348L10.6922 22.5407C11.4127 22.3403 12.4074 22.06 13.7896 21.6655L13.9111 21.6314L17.6764 25.3186ZM14.989 20.7424C14.6475 20.8186 14.2927 20.9054 13.9182 21.0077L13.6247 21.0897C10.2108 22.0629 9.13981 22.3463 8.86364 22.4123C8.83123 22.4084 8.79765 22.4102 8.76382 22.4176C8.68943 22.4344 6.94225 22.7947 6.13806 20.2251C6.13441 20.2139 6.13005 20.2024 6.12528 20.1915C6.12388 20.1798 6.12176 20.1676 6.11909 20.1556C5.50543 17.5342 7.19284 16.9562 7.26311 16.9332C7.29731 16.9226 7.32725 16.9065 7.35347 16.8866C7.62474 16.8027 8.69148 16.5015 12.1262 15.6046L12.4207 15.5259C12.7951 15.4237 13.1448 15.318 13.4776 15.2099L14.989 20.7424ZM24.3789 21.9414C24.4165 22.0792 24.3824 22.2544 24.2882 22.4114C24.187 22.5785 24.0304 22.7013 23.8593 22.748C23.6082 22.8166 23.3267 22.725 23.0309 22.4711C21.5001 21.1538 19.9148 19.8032 15.5881 20.6226L14.0545 15.0091C18.1968 13.5143 18.8763 11.5432 19.5302 9.61486C19.6488 9.26344 19.845 9.04132 20.0957 8.97281C20.4665 8.87151 20.877 9.1249 20.9532 9.40384L24.3783 21.9415L24.3789 21.9414ZM10.6181 17.4577L7.78456 18.2317C7.62215 18.2761 7.52592 18.4413 7.56952 18.6009C7.61312 18.7605 7.77998 18.8538 7.94239 18.8095L10.7759 18.0354C10.9383 17.991 11.0345 17.8258 10.9909 17.6662C10.9473 17.5066 10.7805 17.4133 10.6181 17.4577ZM11.1223 19.3033L8.28877 20.0774C8.12636 20.1217 8.03013 20.287 8.07373 20.4465C8.11732 20.6061 8.28419 20.6995 8.44659 20.6551L11.2801 19.881C11.4425 19.8366 11.5387 19.6714 11.4951 19.5118C11.4515 19.3523 11.2847 19.2589 11.1223 19.3033ZM26.5728 8.62244C26.4187 8.56147 26.2392 8.63479 26.175 8.78801C26.1108 8.94149 26.1844 9.116 26.3395 9.17847C28.2101 9.9275 29.6481 11.55 30.1859 13.5186C30.7261 15.4963 30.3343 17.5562 29.1111 19.1703C29.0105 19.3032 29.0377 19.4909 29.172 19.5896C29.2499 19.6465 29.3464 19.6608 29.4336 19.6369C29.4973 19.6195 29.5554 19.5818 29.5983 19.5259C30.9345 17.7628 31.3628 15.5143 30.7738 13.358C30.1874 11.2116 28.6173 9.44096 26.5728 8.62244ZM24.737 11.0339C24.5843 10.9645 24.4035 11.0299 24.3314 11.1799C24.2595 11.3305 24.3245 11.5086 24.4761 11.5782C25.7403 12.1564 26.605 13.092 26.9112 14.2127C27.216 15.3282 26.9505 16.5677 26.1644 17.7043C26.0694 17.8419 26.1049 18.028 26.2435 18.1204C26.3198 18.1713 26.4116 18.1829 26.4943 18.1603C26.5622 18.1418 26.6236 18.1007 26.6666 18.0386C27.5548 16.7548 27.8504 15.3391 27.4988 14.0521C27.1457 12.7594 26.165 11.6873 24.737 11.0339Z" fill="black"/>
</g>
<defs>
<clipPath id="clip0">
<rect width="29.2183" height="35.4794" fill="white" transform="translate(0.610107 7.95181) rotate(-15.2798)"/>
</clipPath>
</defs>
</svg>
