<svg width="28" height="35" viewBox="0 0 28 35" fill="none" xmlns="http://www.w3.org/2000/svg">
<path d="M25.0957 4.13073C25.0957 4.33526 25.0957 4.53979 25.0957 4.74432C25.0957 5.29417 25.0957 5.84667 25.0957 6.39651C25.0957 7.1987 25.0957 8.00088 25.0957 8.80042C25.0957 9.75667 25.0957 10.7156 25.0957 11.6718C25.0957 12.6839 25.0957 13.6985 25.0957 14.7106C25.0957 15.6934 25.0957 16.6762 25.0957 17.659C25.0957 18.5117 25.0957 19.3643 25.0957 20.217C25.0957 20.8439 25.0957 21.4707 25.0957 22.1003C25.0957 22.4084 25.0957 22.7139 25.0957 23.022C25.0957 23.6887 24.6133 24.2093 23.9709 24.212C23.7119 24.212 23.4504 24.212 23.1914 24.212C22.643 24.212 22.092 24.212 21.5436 24.212C20.7793 24.212 20.0151 24.212 19.2508 24.212C18.3469 24.212 17.443 24.212 16.5391 24.212C15.5692 24.212 14.6018 24.212 13.6319 24.212C12.6721 24.212 11.7123 24.212 10.7526 24.212C9.87913 24.212 9.00823 24.212 8.13479 24.212C7.41624 24.212 6.70022 24.212 5.98166 24.212C5.4967 24.212 5.01174 24.212 4.52678 24.212C4.34397 24.212 4.16116 24.2146 3.97834 24.212C3.38674 24.2014 2.91194 23.6834 2.90432 23.0698C2.90432 23.0114 2.90432 22.9556 2.90432 22.8971C2.90432 22.504 2.90432 22.1082 2.90432 21.7151C2.90432 21.0245 2.90432 20.3312 2.90432 19.6406C2.90432 18.7481 2.90432 17.8529 2.90432 16.9604C2.90432 15.9617 2.90432 14.9603 2.90432 13.9615C2.90432 12.9495 2.90432 11.9401 2.90432 10.9281C2.90432 10.001 2.90432 9.07401 2.90432 8.14698C2.90432 7.40057 2.90432 6.65151 2.90432 5.9051C2.90432 5.43229 2.90432 4.96213 2.90432 4.48932C2.90432 4.38573 2.90432 4.27948 2.90432 4.17588C2.90432 3.84917 3.01096 3.54635 3.23694 3.31526C3.45276 3.09479 3.73459 2.9912 4.0342 2.9912C4.12815 2.9912 4.21956 2.9912 4.3135 2.9912C4.73245 2.9912 5.15139 2.9912 5.57288 2.9912C6.24319 2.9912 6.9135 2.9912 7.58381 2.9912C8.42678 2.9912 9.26721 2.9912 10.1102 2.9912C11.0573 2.9912 12.0043 2.9912 12.9514 2.9912C13.9239 2.9912 14.8989 2.9912 15.8713 2.9912C16.7981 2.9912 17.7223 2.9912 18.649 2.9912C19.4514 2.9912 20.2563 2.9912 21.0586 2.9912C21.6629 2.9912 22.2672 2.9912 22.8715 2.9912C23.2067 2.9912 23.5418 2.9912 23.8795 2.9912C23.9227 2.9912 23.9658 2.9912 24.0065 2.9912C24.6031 2.99651 25.0881 3.50385 25.0957 4.13073C25.1008 4.47338 25.6086 4.47338 25.6035 4.13073C25.5934 3.36838 25.0881 2.67245 24.367 2.50245C24.2147 2.46526 24.0598 2.45729 23.9049 2.45729C23.585 2.45729 23.2625 2.45729 22.9426 2.45729C22.3383 2.45729 21.734 2.45729 21.1297 2.45729C20.3248 2.45729 19.5199 2.45729 18.7151 2.45729C17.7832 2.45729 16.8514 2.45729 15.9196 2.45729C14.9369 2.45729 13.9569 2.45729 12.9742 2.45729C12.0196 2.45729 11.0649 2.45729 10.1076 2.45729C9.25198 2.45729 8.39631 2.45729 7.54065 2.45729C6.87034 2.45729 6.19749 2.45729 5.52717 2.45729C5.11331 2.45729 4.69944 2.45729 4.28303 2.45729C4.1967 2.45729 4.11038 2.45729 4.02405 2.45729C3.6051 2.45995 3.20901 2.61401 2.90178 2.91151C2.5717 3.23292 2.39651 3.68713 2.39651 4.15463C2.39651 4.25026 2.39651 4.34323 2.39651 4.43885C2.39651 4.9037 2.39651 5.36854 2.39651 5.83604C2.39651 6.58245 2.39651 7.32885 2.39651 8.07792C2.39651 9.01026 2.39651 9.9426 2.39651 10.8749C2.39651 11.8949 2.39651 12.9149 2.39651 13.9323C2.39651 14.9417 2.39651 15.951 2.39651 16.9578C2.39651 17.8582 2.39651 18.7587 2.39651 19.6592C2.39651 20.3524 2.39651 21.0484 2.39651 21.7417C2.39651 22.1321 2.39651 22.5253 2.39651 22.9157C2.39651 22.9901 2.39397 23.0645 2.39905 23.1415C2.43713 23.8985 2.97795 24.5812 3.70159 24.7114C3.95549 24.7565 4.21956 24.7406 4.476 24.7406C4.95081 24.7406 5.42815 24.7406 5.90295 24.7406C6.61897 24.7406 7.33499 24.7406 8.051 24.7406C8.93459 24.7406 9.81819 24.7406 10.7043 24.7406C11.6717 24.7406 12.6391 24.7406 13.6065 24.7406C14.584 24.7406 15.5615 24.7406 16.5391 24.7406C17.4506 24.7406 18.3621 24.7406 19.2737 24.7406C20.043 24.7406 20.8098 24.7406 21.5791 24.7406C22.1276 24.7406 22.676 24.7406 23.2244 24.7406C23.4758 24.7406 23.7297 24.7406 23.9811 24.7406C24.8824 24.7379 25.6035 23.9782 25.6061 23.0379C25.6061 22.7457 25.6061 22.4535 25.6061 22.1614C25.6061 21.5398 25.6061 20.9182 25.6061 20.294C25.6061 19.4387 25.6061 18.586 25.6061 17.7307C25.6061 16.7426 25.6061 15.7518 25.6061 14.7637C25.6061 13.7331 25.6061 12.7024 25.6061 11.6718C25.6061 10.7076 25.6061 9.74338 25.6061 8.77651C25.6061 7.97167 25.6061 7.16417 25.6061 6.35932C25.6061 5.80948 25.6061 5.26229 25.6061 4.71245C25.6061 4.51854 25.6061 4.32198 25.6061 4.12807C25.6035 3.79073 25.0957 3.78807 25.0957 4.13073Z" fill="black"/>
<path d="M17.8086 15.9827C17.2297 16.328 16.6533 16.6759 16.0744 17.0212C15.041 17.6402 14.0102 18.2591 12.9768 18.8753C12.6213 19.0878 12.2633 19.303 11.9078 19.5155C11.824 19.5659 11.7428 19.6164 11.659 19.6642C11.6362 19.6775 11.6158 19.6881 11.593 19.7014C11.4432 19.7811 11.2604 19.8422 11.1385 19.8448C11.1207 19.8448 11.0166 19.8316 11.0776 19.8448C11.0522 19.8395 11.0268 19.8316 11.0014 19.8262C10.9582 19.813 11.0014 19.8289 11.0115 19.8316C10.9988 19.8262 10.9836 19.8183 10.9709 19.8103C10.9582 19.8023 10.9455 19.7944 10.9328 19.7864C10.8922 19.7598 10.9658 19.8236 10.9303 19.7837C10.9151 19.7678 10.8998 19.7519 10.8846 19.7359C10.8363 19.6881 10.8973 19.7652 10.8694 19.7173C10.8567 19.6961 10.844 19.6748 10.8313 19.6536C10.8211 19.6323 10.7906 19.5527 10.8186 19.6297C10.7906 19.55 10.7703 19.473 10.7551 19.3906C10.7399 19.3136 10.7551 19.457 10.7526 19.372C10.7526 19.3614 10.75 19.3508 10.75 19.3375C10.7424 19.1409 10.75 18.9417 10.75 18.7452C10.75 17.6189 10.75 16.4927 10.75 15.3664C10.75 14.3198 10.75 13.2706 10.75 12.2241C10.75 12.1205 10.75 12.0169 10.75 11.9133C10.75 11.8973 10.75 11.8841 10.75 11.8681C10.7526 11.7805 10.7551 11.7167 10.7729 11.637C10.783 11.5919 10.7932 11.5467 10.811 11.5042C10.7957 11.5441 10.8389 11.4511 10.8465 11.4405C10.8516 11.4298 10.8744 11.398 10.8414 11.4431C10.849 11.4325 10.8592 11.4219 10.8668 11.4113C10.877 11.4006 10.8897 11.3873 10.8998 11.3767C10.9252 11.3502 10.8617 11.4033 10.8922 11.382C10.9151 11.3661 10.9379 11.3528 10.9608 11.3395C10.8998 11.3714 10.976 11.3369 10.9988 11.3316C11.009 11.3289 11.0217 11.3263 11.0319 11.3236C11.0877 11.3103 10.9862 11.3263 11.0242 11.3236C11.0496 11.3236 11.075 11.3209 11.103 11.3209C11.1258 11.3209 11.1487 11.3236 11.1715 11.3236C11.1766 11.3236 11.235 11.3316 11.1893 11.3263C11.1461 11.3183 11.2071 11.3289 11.2147 11.3316C11.3061 11.3528 11.3949 11.382 11.4838 11.4166C11.5397 11.4378 11.4457 11.3953 11.4762 11.4139C11.4889 11.4219 11.5041 11.4272 11.5194 11.4352C11.5346 11.4431 11.5473 11.4484 11.56 11.4564C12.1211 11.7752 12.6619 12.1391 13.2104 12.4817C14.2311 13.1166 15.2543 13.7514 16.275 14.3863C16.6483 14.6173 17.0215 14.8484 17.3947 15.0822C17.5953 15.207 17.8822 15.3345 17.9432 15.5789C17.9635 15.6639 17.9457 15.5577 17.9483 15.6081C17.9508 15.632 17.9483 15.6533 17.9483 15.6772C17.9508 15.632 17.9381 15.7223 17.9356 15.7356C17.9305 15.7516 17.9254 15.7675 17.9203 15.7834C17.8975 15.8578 17.933 15.7595 17.9127 15.7994C17.8975 15.8313 17.8822 15.8605 17.8645 15.8897C17.8492 15.9136 17.834 15.9348 17.8188 15.9561C17.8594 15.895 17.8086 15.9667 17.7985 15.9773C17.7858 15.9933 17.7705 16.0092 17.7553 16.0225C17.5141 16.2536 17.8746 16.6281 18.1133 16.397C18.3088 16.2111 18.4485 15.9242 18.4535 15.648C18.4586 15.3027 18.2428 15.0025 17.9762 14.8245C17.7528 14.6758 17.5192 14.5403 17.2906 14.3969C16.2903 13.7753 15.2924 13.1564 14.292 12.5348C13.5049 12.0461 12.7153 11.5547 11.9281 11.0659C11.7453 10.9517 11.5473 10.8588 11.3365 10.8189C11.0547 10.7658 10.7551 10.795 10.5367 11.0075C10.3133 11.228 10.2473 11.5706 10.2447 11.8761C10.2346 12.6677 10.2447 13.4592 10.2447 14.2508C10.2447 15.5178 10.2447 16.7822 10.2447 18.0492C10.2447 18.4264 10.2447 18.8062 10.2447 19.1834C10.2447 19.3906 10.2625 19.5872 10.3362 19.7837C10.4403 20.052 10.6332 20.2805 10.9125 20.3495C11.2451 20.4319 11.5981 20.3044 11.8901 20.137C12.0957 20.0202 12.2963 19.8953 12.4994 19.7731C13.4897 19.1808 14.4799 18.5858 15.4701 17.9934C16.2903 17.502 17.1104 17.0106 17.9305 16.5192C17.9762 16.4927 18.0194 16.4661 18.0651 16.4395C18.3494 16.2722 18.093 15.8127 17.8086 15.9827Z" fill="black"/>
<path d="M25.0971 4.13313C25.0971 4.88485 25.0971 5.63656 25.0971 6.38828C25.1809 6.30063 25.2672 6.21031 25.351 6.12266C25.1479 6.12266 24.9448 6.12266 24.7442 6.12266C24.1932 6.12266 23.6422 6.12266 23.0912 6.12266C22.2762 6.12266 21.4612 6.12266 20.6461 6.12266C19.6508 6.12266 18.658 6.12266 17.6627 6.12266C16.5786 6.12266 15.4944 6.12266 14.4077 6.12266C13.3082 6.12266 12.2088 6.12266 11.1094 6.12266C10.0836 6.12266 9.06039 6.12266 8.03461 6.12266C7.17133 6.12266 6.30804 6.12266 5.44476 6.12266C4.82015 6.12266 4.19808 6.12266 3.57347 6.12266C3.27894 6.12266 2.98187 6.10938 2.68734 6.12266C2.67465 6.12266 2.66195 6.12266 2.64926 6.12266C2.73304 6.21031 2.81937 6.30063 2.90316 6.38828C2.90316 5.96328 2.90316 5.54094 2.90316 5.11594C2.90316 4.85828 2.90316 4.60063 2.90316 4.34031C2.90316 4.14641 2.90062 3.96047 2.95902 3.77188C3.10629 3.2911 3.54808 2.98828 4.02035 2.98563C4.13207 2.98563 4.24379 2.98563 4.35551 2.98563C4.90902 2.98563 5.46 2.98563 6.01351 2.98563C6.90219 2.98563 7.7934 2.98563 8.68207 2.98563C9.77387 2.98563 10.8631 2.98563 11.9549 2.98563C13.1254 2.98563 14.2959 2.98563 15.4664 2.98563C16.5836 2.98563 17.6983 2.98563 18.8155 2.98563C19.7448 2.98563 20.6741 2.98563 21.6034 2.98563C22.2229 2.98563 22.8399 2.98563 23.4594 2.98563C23.8707 2.98563 24.2948 2.93782 24.6477 3.2061C24.9295 3.42391 25.092 3.77188 25.0971 4.13313C25.1022 4.47578 25.61 4.47578 25.6049 4.13313C25.5922 3.21672 24.8813 2.46766 24.0053 2.45703C23.9317 2.45703 23.858 2.45703 23.787 2.45703C23.2817 2.45703 22.7739 2.45703 22.2686 2.45703C21.4002 2.45703 20.5319 2.45703 19.6661 2.45703C18.5666 2.45703 17.4698 2.45703 16.3703 2.45703C15.1846 2.45703 13.9989 2.45703 12.8131 2.45703C11.6731 2.45703 10.533 2.45703 9.39047 2.45703C8.4307 2.45703 7.47094 2.45703 6.51117 2.45703C5.86879 2.45703 5.2264 2.45703 4.58402 2.45703C4.12699 2.45703 3.67758 2.41985 3.25609 2.65094C2.87523 2.85813 2.58324 3.23797 2.46136 3.66828C2.40043 3.88344 2.39789 4.10391 2.39789 4.32703C2.39789 4.87953 2.39789 5.43203 2.39789 5.98719C2.39789 6.12266 2.39789 6.25547 2.39789 6.39094C2.39789 6.53438 2.51469 6.65656 2.65179 6.65656C2.85492 6.65656 3.05804 6.65656 3.25863 6.65656C3.80961 6.65656 4.36058 6.65656 4.91156 6.65656C5.7266 6.65656 6.54164 6.65656 7.35668 6.65656C8.35199 6.65656 9.34476 6.65656 10.3401 6.65656C11.4243 6.65656 12.5084 6.65656 13.5952 6.65656C14.6946 6.65656 15.794 6.65656 16.8934 6.65656C17.9192 6.65656 18.9424 6.65656 19.9682 6.65656C20.8315 6.65656 21.6948 6.65656 22.558 6.65656C23.1827 6.65656 23.8047 6.65656 24.4293 6.65656C24.7239 6.65656 25.0209 6.66188 25.3155 6.65656C25.3282 6.65656 25.3409 6.65656 25.3536 6.65656C25.4907 6.65656 25.6075 6.53438 25.6075 6.39094C25.6075 5.63922 25.6075 4.8875 25.6075 4.13578C25.6049 3.79313 25.0971 3.79047 25.0971 4.13313Z" fill="black"/>
<path d="M20.9089 4.5661C20.9089 4.55282 20.9215 4.51298 20.9114 4.54485C20.9139 4.52626 20.9215 4.51032 20.9342 4.49704C20.9469 4.4811 20.9495 4.47844 20.9393 4.48907C20.9266 4.50235 20.9698 4.47048 20.9749 4.46516C20.9952 4.45719 20.9952 4.45719 20.9749 4.46251C20.9876 4.45985 20.9977 4.45985 21.0104 4.45719C21.0231 4.45719 21.0637 4.47048 21.0307 4.45985C21.0409 4.46516 21.051 4.46782 21.0637 4.47313C21.0917 4.49704 21.0993 4.50235 21.084 4.48907C21.0714 4.47579 21.1018 4.52094 21.1069 4.52626C21.1145 4.54485 21.1145 4.54751 21.112 4.53423C21.1069 4.51298 21.1069 4.5236 21.1145 4.56344C21.1145 4.57673 21.1018 4.61923 21.112 4.58469C21.1044 4.6086 21.0942 4.62719 21.079 4.64579C21.1044 4.61657 21.0587 4.65641 21.0485 4.66438C21.018 4.68298 21.0688 4.66704 21.0307 4.66969C21.0155 4.66969 20.9546 4.65907 20.9952 4.67235C20.9723 4.66438 20.9546 4.65376 20.9368 4.63782C20.9647 4.66438 20.9266 4.61923 20.919 4.60594C20.9114 4.58735 20.9114 4.58469 20.9139 4.59798C20.9165 4.61391 20.9165 4.60329 20.9089 4.5661C20.9165 4.70423 21.0206 4.83969 21.1628 4.83173C21.2948 4.82641 21.4243 4.71485 21.4167 4.5661C21.404 4.33501 21.2389 4.1411 21.0104 4.1411C20.787 4.1411 20.6092 4.33501 20.6042 4.5661C20.5991 4.79454 20.787 4.98313 21.0028 4.9911C21.2364 4.99907 21.4065 4.79719 21.4167 4.5661C21.4243 4.42798 21.2948 4.29516 21.1628 4.30048C21.018 4.30579 20.9165 4.41469 20.9089 4.5661Z" fill="black"/>
<path d="M23.2575 4.5661C23.2575 4.55282 23.2702 4.51298 23.26 4.54485C23.2626 4.52626 23.2702 4.51032 23.2829 4.49704C23.2956 4.4811 23.2981 4.47844 23.288 4.48907C23.2753 4.50235 23.3184 4.47048 23.3235 4.46516C23.3438 4.45719 23.3438 4.45719 23.3235 4.46251C23.3362 4.45985 23.3464 4.45985 23.359 4.45719C23.3717 4.45719 23.4124 4.47048 23.3794 4.45985C23.3895 4.46516 23.3997 4.46782 23.4124 4.47313C23.4403 4.49704 23.4479 4.50235 23.4327 4.48907C23.42 4.47579 23.4505 4.52094 23.4555 4.52626C23.4631 4.54485 23.4631 4.54751 23.4606 4.53423C23.4555 4.51298 23.4555 4.5236 23.4631 4.56344C23.4631 4.57673 23.4505 4.61923 23.4606 4.58469C23.453 4.6086 23.4428 4.62719 23.4276 4.64579C23.453 4.61657 23.4073 4.65641 23.3971 4.66438C23.3667 4.68298 23.4174 4.66704 23.3794 4.66969C23.3641 4.66969 23.3032 4.65907 23.3438 4.67235C23.321 4.66438 23.3032 4.65376 23.2854 4.63782C23.3133 4.66438 23.2753 4.61923 23.2676 4.60594C23.26 4.58735 23.26 4.58469 23.2626 4.59798C23.2651 4.61391 23.2651 4.60329 23.2575 4.5661C23.2651 4.70423 23.3692 4.83969 23.5114 4.83173C23.6434 4.82641 23.7729 4.71485 23.7653 4.5661C23.7526 4.33501 23.5876 4.1411 23.359 4.1411C23.1356 4.1411 22.9579 4.33501 22.9528 4.5661C22.9477 4.79454 23.1356 4.98313 23.3514 4.9911C23.585 4.99907 23.7551 4.79719 23.7653 4.5661C23.7729 4.42798 23.6434 4.29516 23.5114 4.30048C23.3667 4.30579 23.2651 4.41469 23.2575 4.5661Z" fill="black"/>
<path d="M18.5602 4.5661C18.5602 4.55282 18.5729 4.51298 18.5628 4.54485C18.5653 4.52626 18.5729 4.51032 18.5856 4.49704C18.5983 4.4811 18.6008 4.47844 18.5907 4.48907C18.578 4.50235 18.6212 4.47048 18.6262 4.46516C18.6465 4.45719 18.6465 4.45719 18.6262 4.46251C18.6389 4.45985 18.6491 4.45985 18.6618 4.45719C18.6745 4.45719 18.7151 4.47048 18.6821 4.45985C18.6923 4.46516 18.7024 4.46782 18.7151 4.47313C18.743 4.49704 18.7506 4.50235 18.7354 4.48907C18.7227 4.47579 18.7532 4.52094 18.7583 4.52626C18.7659 4.54485 18.7659 4.54751 18.7633 4.53423C18.7583 4.51298 18.7583 4.5236 18.7659 4.56344C18.7659 4.57673 18.7532 4.61923 18.7633 4.58469C18.7557 4.6086 18.7456 4.62719 18.7303 4.64579C18.7557 4.61657 18.71 4.65641 18.6999 4.66438C18.6694 4.68298 18.7202 4.66704 18.6821 4.66969C18.6669 4.66969 18.6059 4.65907 18.6465 4.67235C18.6237 4.66438 18.6059 4.65376 18.5881 4.63782C18.6161 4.66438 18.578 4.61923 18.5704 4.60594C18.5628 4.58735 18.5628 4.58469 18.5653 4.59798C18.5678 4.61391 18.5678 4.60329 18.5602 4.5661C18.5678 4.70423 18.6719 4.83969 18.8141 4.83173C18.9462 4.82641 19.0756 4.71485 19.068 4.5661C19.0553 4.33501 18.8903 4.1411 18.6618 4.1411C18.4383 4.1411 18.2606 4.33501 18.2555 4.5661C18.2505 4.79454 18.4383 4.98313 18.6542 4.9911C18.8878 4.99907 19.0579 4.79719 19.068 4.5661C19.0756 4.42798 18.9462 4.29516 18.8141 4.30048C18.6694 4.30579 18.5678 4.41469 18.5602 4.5661Z" fill="black"/>
</svg>
