<svg width="437" height="295" viewBox="0 0 437 295" fill="none" xmlns="http://www.w3.org/2000/svg">
<path d="M116.984 112.801L118.486 106.153H123.387L120.712 117.958H90.5684L82.264 81.2915H128.998L126.323 93.0967H121.422L122.875 86.6684L122.553 86.5956L122.422 86.0408H88.8754H88.2494L88.3877 86.6513L94.3139 112.802L94.4022 113.191H94.8016H116.496H116.896L116.984 112.801ZM76.7102 69.4035L76.7984 69.793H77.1978H134.1H134.499L134.587 69.4035L135.88 63.6953H140.781L138.315 74.5597H72.982L70.5168 63.6953H75.4174L76.7102 69.4035Z" stroke="#258389" stroke-opacity="0.3"/>
<path d="M390.046 112.801L391.549 106.153H396.449L393.774 117.958H363.631L355.327 81.2915H402.061L399.386 93.0967H394.484L395.937 86.6684L395.615 86.5956L395.485 86.0408H361.938H361.312L361.45 86.6513L367.376 112.802L367.465 113.191H367.864H389.558H389.958L390.046 112.801ZM349.773 69.4035L349.861 69.793H350.26H407.162H407.562L407.65 69.4035L408.943 63.6953H413.843L411.378 74.5597H346.045L343.579 63.6953H348.48L349.773 69.4035Z" stroke="#258389" stroke-opacity="0.3"/>
<path d="M116.984 -4.39819L118.489 -11.2509H123.391L120.709 0.93087H90.5709L82.2601 -36.8433H129.002L126.321 -24.6615H121.418L122.876 -31.2998L122.556 -31.3699L122.422 -31.9249H88.8754H88.2533L88.3871 -31.3174L94.3132 -4.39792L94.3997 -4.00542H94.8016H116.496H116.898L116.984 -4.39819ZM76.7095 -49.0726L76.7959 -48.68H77.1978H134.1H134.502L134.588 -49.0726L135.883 -54.957H140.785L138.313 -43.7437H72.9845L70.5128 -54.957H75.4149L76.7095 -49.0726Z" stroke="#258389" stroke-opacity="0.3"/>
<path d="M390.047 -4.39819L391.551 -11.2509H396.453L393.772 0.93087H363.633L355.323 -36.8433H402.065L399.383 -24.6615H394.481L395.938 -31.2998L395.619 -31.3699L395.485 -31.9249H361.938H361.316L361.45 -31.3174L367.376 -4.39792L367.462 -4.00542H367.864H389.558H389.961L390.047 -4.39819ZM349.772 -49.0726L349.858 -48.68H350.26H407.162H407.564L407.65 -49.0726L408.945 -54.957H413.847L411.375 -43.7437H346.047L343.575 -54.957H348.477L349.772 -49.0726Z" stroke="#258389" stroke-opacity="0.3"/>
<path d="M253.515 112.801L255.018 106.153H259.918L257.243 117.958H227.1L218.795 81.2915H265.53L262.854 93.0967H257.953L259.406 86.6684L259.084 86.5956L258.953 86.0408H225.407H224.781L224.919 86.6513L230.845 112.802L230.933 113.191H231.333H253.027H253.427L253.515 112.801ZM213.241 69.4035L213.33 69.793H213.729H270.631H271.03L271.119 69.4035L272.411 63.6953H277.312L274.847 74.5597H209.513L207.048 63.6953H211.949L213.241 69.4035Z" stroke="#258389" stroke-opacity="0.3"/>
<path d="M160.954 59.099L159.451 65.7477L154.551 65.7477L157.226 53.9426L187.369 53.9426L195.673 90.6089L148.939 90.6089L151.614 78.8037L156.516 78.8037L155.063 85.232L155.385 85.3048L155.515 85.8596L189.062 85.8596L189.688 85.8596L189.55 85.2491L183.624 59.0987L183.535 58.7092L183.136 58.7092L161.442 58.7092L161.042 58.7092L160.954 59.099ZM201.227 102.497L201.139 102.107L200.74 102.107L143.838 102.107L143.438 102.107L143.35 102.497L142.057 108.205L137.157 108.205L139.622 97.3407L204.955 97.3407L207.421 108.205L202.52 108.205L201.227 102.497Z" stroke="#258389" stroke-opacity="0.3"/>
<path d="M434.016 59.099L432.514 65.7477L427.613 65.7477L430.288 53.9426L460.432 53.9426L468.736 90.6089L422.002 90.6089L424.677 78.8037L429.578 78.8037L428.125 85.232L428.447 85.3048L428.578 85.8596L462.125 85.8596L462.751 85.8596L462.612 85.2491L456.686 59.0987L456.598 58.7092L456.198 58.7092L434.504 58.7092L434.104 58.7092L434.016 59.099ZM474.29 102.497L474.202 102.107L473.802 102.107L416.9 102.107L416.501 102.107L416.413 102.497L415.12 108.205L410.219 108.205L412.685 97.3407L478.018 97.3407L480.483 108.205L475.583 108.205L474.29 102.497Z" stroke="#258389" stroke-opacity="0.3"/>
<path d="M24.422 62.5212L22.9174 69.374L18.0154 69.374L20.6972 57.1922L50.8353 57.1922L59.1462 94.9663L12.4039 94.9663L15.0856 82.7846L19.9882 82.7846L18.5307 89.4228L18.8501 89.4929L18.9841 90.048L52.5309 90.048L53.1529 90.048L53.0192 89.4405L47.093 62.521L47.0066 62.1285L46.6047 62.1285L24.9103 62.1285L24.5082 62.1285L24.422 62.5212ZM64.6967 107.196L64.6104 106.803L64.2084 106.803L7.3066 106.803L6.90465 106.803L6.81828 107.196L5.52363 113.08L0.621613 113.08L3.09332 101.867L68.4217 101.867L70.8934 113.08L65.9914 113.08L64.6967 107.196Z" stroke="#258389" stroke-opacity="0.3"/>
<path d="M297.484 62.5212L295.98 69.374L291.078 69.374L293.76 57.1922L323.898 57.1922L332.209 94.9663L285.466 94.9663L288.148 82.7846L293.051 82.7846L291.593 89.4228L291.913 89.4929L292.047 90.048L325.593 90.048L326.215 90.048L326.082 89.4405L320.156 62.521L320.069 62.1285L319.667 62.1285L297.973 62.1285L297.571 62.1285L297.484 62.5212ZM337.759 107.196L337.673 106.803L337.271 106.803L280.369 106.803L279.967 106.803L279.881 107.196L278.586 113.08L273.684 113.08L276.156 101.867L341.484 101.867L343.956 113.08L339.054 113.08L337.759 107.196Z" stroke="#258389" stroke-opacity="0.3"/>
<path d="M24.422 124.287L22.9174 131.14L18.0154 131.14L20.6972 118.958L50.8353 118.958L59.1462 156.732L12.4039 156.732L15.0856 144.55L19.9882 144.55L18.5307 151.188L18.8501 151.259L18.9841 151.814L52.5309 151.814L53.1529 151.814L53.0192 151.206L47.093 124.287L47.0066 123.894L46.6047 123.894L24.9103 123.894L24.5082 123.894L24.422 124.287ZM64.6967 168.961L64.6104 168.569L64.2084 168.569L7.3066 168.569L6.90465 168.569L6.81828 168.961L5.52363 174.846L0.621613 174.846L3.09332 163.632L68.4217 163.632L70.8934 174.846L65.9914 174.846L64.6967 168.961Z" stroke="#258389" stroke-opacity="0.3"/>
<path d="M297.484 124.287L295.98 131.14L291.078 131.14L293.76 118.958L323.898 118.958L332.209 156.732L285.466 156.732L288.148 144.55L293.051 144.55L291.593 151.188L291.913 151.259L292.047 151.814L325.593 151.814L326.215 151.814L326.082 151.206L320.156 124.287L320.069 123.894L319.667 123.894L297.973 123.894L297.571 123.894L297.484 124.287ZM337.759 168.961L337.673 168.569L337.271 168.569L280.369 168.569L279.967 168.569L279.881 168.961L278.586 174.846L273.684 174.846L276.156 163.632L341.484 163.632L343.956 174.846L339.054 174.846L337.759 168.961Z" stroke="#258389" stroke-opacity="0.3"/>
<path d="M297.484 183.472L295.98 190.325L291.078 190.325L293.76 178.143L323.898 178.143L332.209 215.918L285.466 215.918L288.148 203.736L293.051 203.736L291.593 210.374L291.913 210.444L292.047 210.999L325.593 210.999L326.215 210.999L326.082 210.392L320.156 183.472L320.069 183.08L319.667 183.08L297.973 183.08L297.571 183.08L297.484 183.472ZM337.759 228.147L337.673 227.754L337.271 227.754L280.369 227.754L279.967 227.754L279.881 228.147L278.586 234.031L273.684 234.031L276.156 222.818L341.484 222.818L343.956 234.031L339.054 234.031L337.759 228.147Z" stroke="#258389" stroke-opacity="0.3"/>
<path d="M116.984 169.516L118.489 162.663H123.391L120.709 174.845H90.5709L82.2601 137.071H129.002L126.321 149.253H121.418L122.876 142.614L122.556 142.544L122.422 141.989H88.8754H88.2533L88.3871 142.597L94.3132 169.516L94.3997 169.909H94.8016H116.496H116.898L116.984 169.516ZM76.7095 124.842L76.7959 125.234H77.1978H134.1H134.502L134.588 124.842L135.883 118.957H140.785L138.313 130.17H72.9845L70.5128 118.957H75.4149L76.7095 124.842Z" stroke="#258389" stroke-opacity="0.3"/>
<path d="M390.047 169.516L391.551 162.663H396.453L393.772 174.845H363.633L355.323 137.071H402.065L399.383 149.253H394.481L395.938 142.614L395.619 142.544L395.485 141.989H361.938H361.316L361.45 142.597L367.376 169.516L367.462 169.909H367.864H389.558H389.961L390.047 169.516ZM349.772 124.842L349.858 125.234H350.26H407.162H407.564L407.65 124.842L408.945 118.957H413.847L411.375 130.17H346.047L343.575 118.957H348.477L349.772 124.842Z" stroke="#258389" stroke-opacity="0.3"/>
<path d="M390.047 229.85L391.551 222.997H396.453L393.772 235.179H363.633L355.323 197.405H402.065L399.383 209.587H394.481L395.938 202.948L395.619 202.878L395.485 202.323H361.938H361.316L361.45 202.931L367.376 229.85L367.462 230.243H367.864H389.558H389.961L390.047 229.85ZM349.772 185.175L349.858 185.568H350.26H407.162H407.564L407.65 185.175L408.945 179.291H413.847L411.375 190.504H346.047L343.575 179.291H348.477L349.772 185.175Z" stroke="#258389" stroke-opacity="0.3"/>
<path d="M116.984 51.0358L118.486 44.3871H123.387L120.712 56.1922H90.5684L82.264 19.5259H128.998L126.323 31.3311H121.422L122.875 24.9028L122.553 24.83L122.422 24.2751H88.8754H88.2494L88.3877 24.8857L94.3139 51.0361L94.4022 51.4255H94.8016H116.496H116.896L116.984 51.0358ZM76.7102 7.63783L76.7984 8.02738H77.1978H134.1H134.499L134.587 7.63783L135.88 1.92969H140.781L138.315 12.7941H72.982L70.5168 1.92969H75.4174L76.7102 7.63783Z" stroke="#258389" stroke-opacity="0.3"/>
<path d="M390.046 51.0358L391.549 44.3871H396.449L393.774 56.1922H363.631L355.327 19.5259H402.061L399.386 31.3311H394.484L395.937 24.9028L395.615 24.83L395.485 24.2751H361.938H361.312L361.45 24.8857L367.376 51.0361L367.465 51.4255H367.864H389.558H389.958L390.046 51.0358ZM349.773 7.63783L349.861 8.02738H350.26H407.162H407.562L407.65 7.63783L408.943 1.92969H413.843L411.378 12.7941H346.045L343.579 1.92969H348.48L349.773 7.63783Z" stroke="#258389" stroke-opacity="0.3"/>
<path d="M253.516 169.516L255.02 162.663H259.922L257.24 174.845H227.102L218.791 137.071H265.534L262.852 149.253H257.949L259.407 142.614L259.087 142.544L258.953 141.989H225.407H224.785L224.918 142.597L230.844 169.516L230.931 169.909H231.333H253.027H253.429L253.516 169.516ZM213.241 124.842L213.327 125.234H213.729H270.631H271.033L271.119 124.842L272.414 118.957H277.316L274.844 130.17H209.516L207.044 118.957H211.946L213.241 124.842Z" stroke="#258389" stroke-opacity="0.3"/>
<path d="M253.516 230.059L255.02 223.206H259.922L257.24 235.388H227.102L218.791 197.614H265.534L262.852 209.796H257.949L259.407 203.157L259.087 203.087L258.953 202.532H225.407H224.785L224.918 203.14L230.844 230.059L230.931 230.452H231.333H253.027H253.429L253.516 230.059ZM213.241 185.384L213.327 185.777H213.729H270.631H271.033L271.119 185.384L272.414 179.5H277.316L274.844 190.713H209.516L207.044 179.5H211.946L213.241 185.384Z" stroke="#258389" stroke-opacity="0.3"/>
<path d="M253.516 289.059L255.02 282.206H259.922L257.24 294.388H227.102L218.791 256.614H265.534L262.852 268.796H257.949L259.407 262.157L259.087 262.087L258.953 261.532H225.407H224.785L224.918 262.14L230.844 289.059L230.931 289.452H231.333H253.027H253.429L253.516 289.059ZM213.241 244.384L213.327 244.777H213.729H270.631H271.033L271.119 244.384L272.414 238.5H277.316L274.844 249.713H209.516L207.044 238.5H211.946L213.241 244.384Z" stroke="#258389" stroke-opacity="0.3"/>
<path d="M253.516 47.6135L255.02 40.7608H259.922L257.24 52.9426H227.102L218.791 15.1684H265.534L262.852 27.3502H257.949L259.407 20.7119L259.087 20.6418L258.953 20.0868H225.407H224.785L224.918 20.6943L230.844 47.6138L230.931 48.0063H231.333H253.027H253.429L253.516 47.6135ZM213.241 2.93916L213.327 3.33173H213.729H270.631H271.033L271.119 2.93916L272.414 -2.94531H277.316L274.844 8.26801H209.516L207.044 -2.94531H211.946L213.241 2.93916Z" stroke="#258389" stroke-opacity="0.3"/>
<path d="M160.953 2.38452L159.449 9.23724L154.547 9.23724L157.228 -2.94454L187.367 -2.94454L195.677 34.8296L148.935 34.8296L151.617 22.6478L156.519 22.6478L155.062 29.2861L155.381 29.3562L155.515 29.9113L189.062 29.9113L189.684 29.9113L189.55 29.3038L183.624 2.38425L183.538 1.99175L183.136 1.99175L161.442 1.99174L161.039 1.99174L160.953 2.38452ZM201.228 47.0589L201.142 46.6663L200.74 46.6663L143.838 46.6663L143.436 46.6663L143.35 47.0589L142.055 52.9434L137.153 52.9434L139.625 41.73L204.953 41.73L207.425 52.9434L202.523 52.9434L201.228 47.0589Z" stroke="#258389" stroke-opacity="0.3"/>
<path d="M434.016 2.38452L432.511 9.23724L427.609 9.23724L430.291 -2.94454L460.429 -2.94454L468.74 34.8296L421.998 34.8296L424.679 22.6478L429.582 22.6478L428.124 29.2861L428.444 29.3562L428.578 29.9113L462.125 29.9113L462.747 29.9113L462.613 29.3038L456.687 2.38425L456.6 1.99175L456.198 1.99175L434.504 1.99174L434.102 1.99174L434.016 2.38452ZM474.29 47.0589L474.204 46.6663L473.802 46.6663L416.9 46.6663L416.498 46.6663L416.412 47.0589L415.117 52.9434L410.215 52.9434L412.687 41.73L478.015 41.73L480.487 52.9434L475.585 52.9434L474.29 47.0589Z" stroke="#258389" stroke-opacity="0.3"/>
<path d="M24.4226 7.08728L22.9199 13.736L18.0193 13.736L20.6946 1.93083L50.8378 1.93083L59.1422 38.5972L12.4078 38.5972L15.0831 26.792L19.9843 26.792L18.5314 33.2203L18.8536 33.2931L18.9841 33.8479L52.5309 33.8479L53.1569 33.8479L53.0185 33.2374L47.0923 7.087L47.0041 6.69751L46.6047 6.69751L24.9103 6.69751L24.5107 6.69751L24.4226 7.08728ZM64.6961 50.4852L64.6078 50.0957L64.2084 50.0957L7.3066 50.0957L6.90718 50.0957L6.81896 50.4852L5.52615 56.1934L0.625557 56.1934L3.09078 45.329L68.4242 45.329L70.8895 56.1934L65.9889 56.1934L64.6961 50.4852Z" stroke="#258389" stroke-opacity="0.3"/>
<path d="M297.485 7.08728L295.982 13.736L291.082 13.736L293.757 1.93083L323.9 1.93083L332.205 38.5972L285.47 38.5972L288.146 26.792L293.047 26.792L291.594 33.2203L291.916 33.2931L292.047 33.8479L325.593 33.8479L326.219 33.8479L326.081 33.2374L320.155 7.087L320.067 6.69751L319.667 6.69751L297.973 6.69751L297.573 6.69751L297.485 7.08728ZM337.759 50.4852L337.67 50.0957L337.271 50.0957L280.369 50.0957L279.97 50.0957L279.881 50.4852L278.589 56.1934L273.688 56.1934L276.153 45.329L341.487 45.329L343.952 56.1934L339.051 56.1934L337.759 50.4852Z" stroke="#258389" stroke-opacity="0.3"/>
<path d="M160.953 124.285L159.449 131.138L154.547 131.138L157.228 118.956L187.367 118.956L195.677 156.73L148.935 156.73L151.617 144.548L156.519 144.548L155.062 151.186L155.381 151.257L155.515 151.812L189.062 151.812L189.684 151.812L189.55 151.204L183.624 124.285L183.538 123.892L183.136 123.892L161.442 123.892L161.039 123.892L160.953 124.285ZM201.228 168.959L201.142 168.567L200.74 168.567L143.838 168.567L143.436 168.567L143.35 168.959L142.055 174.844L137.153 174.844L139.625 163.63L204.953 163.63L207.425 174.844L202.523 174.844L201.228 168.959Z" stroke="#258389" stroke-opacity="0.3"/>
<path d="M160.953 180.828L159.449 187.681L154.547 187.681L157.228 175.499L187.367 175.499L195.677 213.273L148.935 213.273L151.617 201.091L156.519 201.091L155.062 207.729L155.381 207.8L155.515 208.355L189.062 208.355L189.684 208.355L189.55 207.747L183.624 180.828L183.538 180.435L183.136 180.435L161.442 180.435L161.039 180.435L160.953 180.828ZM201.228 225.502L201.142 225.11L200.74 225.11L143.838 225.11L143.436 225.11L143.35 225.502L142.055 231.387L137.153 231.387L139.625 220.173L204.953 220.173L207.425 231.387L202.523 231.387L201.228 225.502Z" stroke="#258389" stroke-opacity="0.3"/>
<path d="M434.016 124.287L432.511 131.14L427.609 131.14L430.291 118.958L460.429 118.958L468.74 156.732L421.998 156.732L424.679 144.55L429.582 144.55L428.124 151.188L428.444 151.259L428.578 151.814L462.125 151.814L462.747 151.814L462.613 151.206L456.687 124.287L456.6 123.894L456.198 123.894L434.504 123.894L434.102 123.894L434.016 124.287ZM474.29 168.961L474.204 168.569L473.802 168.569L416.9 168.569L416.498 168.569L416.412 168.961L415.117 174.846L410.215 174.846L412.687 163.632L478.015 163.632L480.487 174.846L475.585 174.846L474.29 168.961Z" stroke="#258389" stroke-opacity="0.3"/>
</svg>
