<svg width="9" height="9" viewBox="0 0 9 9" fill="none" xmlns="http://www.w3.org/2000/svg">
<path d="M5.49933 4.14882L1.49422 0.143779C1.40158 0.0510728 1.27792 0 1.14607 0C1.01422 0 0.890562 0.0510728 0.797929 0.143779L0.50298 0.438655C0.311055 0.6308 0.311055 0.94309 0.50298 1.13494L3.86617 4.49813L0.499248 7.86506C0.406615 7.95776 0.355469 8.08135 0.355469 8.21313C0.355469 8.34505 0.406615 8.46864 0.499248 8.56142L0.794197 8.85622C0.886903 8.94893 1.01049 9 1.14234 9C1.27419 9 1.39785 8.94893 1.49048 8.85622L5.49933 4.84752C5.59218 4.75452 5.64318 4.63035 5.64289 4.49835C5.64318 4.36584 5.59218 4.24175 5.49933 4.14882Z" fill="white"/>
</svg>
