<svg width="296" height="220" viewBox="0 0 296 220" fill="none" xmlns="http://www.w3.org/2000/svg">
<path d="M33.8922 181.679L34.7655 177.815H37.3214L35.7942 184.554H17.8931L12.9638 162.79H40.7127L39.1856 169.529H36.6291L37.4525 165.885L37.1141 165.808L36.986 165.264H16.7118H16.0858L16.2242 165.875L19.8057 181.679L19.894 182.068H20.2933H33.4045H33.8041L33.8922 181.679ZM9.16678 155.451L9.25501 155.84H9.65443H44.0434H44.4428L44.531 155.451L45.2774 152.155H47.8334L46.4333 158.326H7.26454L5.86445 152.155H8.42038L9.16678 155.451Z" stroke="white" stroke-opacity="0.05"/>
<path d="M198.919 181.679L199.793 177.815H202.349L200.822 184.554H182.92L177.991 162.79H205.74L204.213 169.529H201.656L202.48 165.885L202.141 165.808L202.013 165.264H181.739H181.113L181.252 165.875L184.833 181.679L184.921 182.068H185.321H198.432H198.831L198.919 181.679ZM174.194 155.451L174.282 155.84H174.682H209.071H209.47L209.558 155.451L210.305 152.155H212.861L211.461 158.326H172.292L170.892 152.155H173.448L174.194 155.451Z" stroke="white" stroke-opacity="0.05"/>
<path d="M33.8928 37.1765L34.768 33.1904H37.3253L35.7917 40.1569H17.8956L12.9599 17.7235H40.7167L39.1831 24.69H36.6251L37.4532 20.9184L37.1174 20.8446L36.986 20.3003H16.7118H16.0898L16.2235 20.9078L19.805 37.1768L19.8914 37.5693H20.2933H33.4045H33.8066L33.8928 37.1765ZM9.16611 10.1774L9.25248 10.5699H9.65443H44.0434H44.4453L44.5317 10.1774L45.2799 6.77637H47.8373L46.4307 13.1576H7.26707L5.8605 6.77637H8.41785L9.16611 10.1774Z" stroke="white" stroke-opacity="0.05"/>
<path d="M198.92 37.1765L199.795 33.1904H202.353L200.819 40.1569H182.923L177.987 17.7235H205.744L204.21 24.69H201.652L202.481 20.9184L202.145 20.8446L202.013 20.3003H181.739H181.117L181.251 20.9078L184.832 37.1768L184.919 37.5693H185.321H198.432H198.834L198.92 37.1765ZM174.193 10.1774L174.28 10.5699H174.682H209.071H209.473L209.559 10.1774L210.307 6.77637H212.865L211.458 13.1576H172.294L170.888 6.77637H173.445L174.193 10.1774Z" stroke="white" stroke-opacity="0.05"/>
<path d="M33.8928 110.848L34.768 106.862H37.3253L35.7917 113.829H17.8956L12.9599 91.3954H40.7167L39.1831 98.3619H36.6251L37.4532 94.5902L37.1174 94.5165L36.986 93.9722H16.7118H16.0898L16.2235 94.5797L19.805 110.849L19.8914 111.241H20.2933H33.4045H33.8066L33.8928 110.848ZM9.16611 83.8492L9.25248 84.2418H9.65443H44.0434H44.4453L44.5317 83.8492L45.2799 80.4482H47.8373L46.4307 86.8294H7.26707L5.8605 80.4482H8.41785L9.16611 83.8492Z" stroke="white" stroke-opacity="0.05"/>
<path d="M198.92 110.848L199.795 106.862H202.353L200.819 113.829H182.923L177.987 91.3954H205.744L204.21 98.3619H201.652L202.481 94.5902L202.145 94.5165L202.013 93.9722H181.739H181.117L181.251 94.5797L184.832 110.849L184.919 111.241H185.321H198.432H198.834L198.92 110.848ZM174.193 83.8492L174.28 84.2418H174.682H209.071H209.473L209.559 83.8492L210.307 80.4482H212.865L211.458 86.8294H172.294L170.888 80.4482H173.445L174.193 83.8492Z" stroke="white" stroke-opacity="0.05"/>
<path d="M116.408 181.679L117.281 177.815H119.837L118.31 184.554H100.409L95.4795 162.79H123.228L121.701 169.529H119.145L119.968 165.885L119.63 165.808L119.502 165.264H99.2274H98.6015L98.7398 165.875L102.321 181.679L102.41 182.068H102.809H115.92H116.32L116.408 181.679ZM91.6824 155.451L91.7706 155.84H92.1701H126.559H126.958L127.047 155.451L127.793 152.155H130.349L128.949 158.326H89.7802L88.3801 152.155H90.936L91.6824 155.451Z" stroke="white" stroke-opacity="0.05"/>
<path d="M281.431 181.679L282.305 177.815H284.86L283.333 184.554H265.432L260.503 162.79H288.252L286.725 169.529H284.168L284.992 165.885L284.653 165.808L284.525 165.264H264.251H263.625L263.763 165.875L267.345 181.679L267.433 182.068H267.832H280.944H281.343L281.431 181.679ZM256.706 155.451L256.794 155.84H257.193H291.582H291.982L292.07 155.451L292.816 152.155H295.372L293.972 158.326H254.804L253.404 152.155H255.959L256.706 155.451Z" stroke="white" stroke-opacity="0.05"/>
<path d="M116.408 37.1765L117.284 33.1904H119.841L118.307 40.1569H100.411L95.4755 17.7235H123.232L121.699 24.69H119.141L119.969 20.9184L119.633 20.8446L119.502 20.3003H99.2274H98.6054L98.7391 20.9078L102.321 37.1768L102.407 37.5693H102.809H115.92H116.322L116.408 37.1765ZM91.6817 10.1774L91.7681 10.5699H92.1701H126.559H126.961L127.047 10.1774L127.796 6.77637H130.353L128.946 13.1576H89.7827L88.3761 6.77637H90.9335L91.6817 10.1774Z" stroke="white" stroke-opacity="0.05"/>
<path d="M116.408 108.007L117.281 104.143H119.837L118.31 110.882H100.409L95.4795 89.1178H123.228L121.701 95.8566H119.145L119.968 92.2131L119.63 92.1366L119.502 91.5924H99.2274H98.6015L98.7398 92.2029L102.321 108.007L102.41 108.397H102.809H115.92H116.32L116.408 108.007ZM91.6824 81.779L91.7706 82.1686H92.1701H126.559H126.958L127.047 81.779L127.793 78.4834H130.349L128.949 84.6537H89.7802L88.3801 78.4834H90.936L91.6824 81.779Z" stroke="white" stroke-opacity="0.05"/>
<path d="M281.431 108.007L282.305 104.143H284.86L283.333 110.882H265.432L260.503 89.1178H288.252L286.725 95.8566H284.168L284.992 92.2131L284.653 92.1366L284.525 91.5924H264.251H263.625L263.763 92.2029L267.345 108.007L267.433 108.397H267.832H280.944H281.343L281.431 108.007ZM256.706 81.779L256.794 82.1686H257.193H291.582H291.982L292.07 81.779L292.816 78.4834H295.372L293.972 84.6537H254.804L253.404 78.4834H255.959L256.706 81.779Z" stroke="white" stroke-opacity="0.05"/>
<path d="M-22.4312 77.4288L-23.3045 81.2928L-25.8605 81.2928L-24.3333 74.5539L-6.43211 74.5539L-1.5029 96.3178L-29.2518 96.3178L-27.7246 89.5789L-25.1681 89.5789L-25.9916 93.2224L-25.6531 93.2989L-25.525 93.8432L-5.25089 93.8432L-4.6249 93.8432L-4.76325 93.2327L-8.34477 77.4285L-8.43304 77.039L-8.83241 77.039L-21.9435 77.039L-22.3431 77.039L-22.4312 77.4288ZM2.29415 103.657L2.20593 103.267L1.8065 103.267L-32.5824 103.267L-32.9819 103.267L-33.0701 103.657L-33.8165 106.952L-36.3724 106.952L-34.9723 100.782L4.1964 100.782L5.59649 106.952L3.04056 106.952L2.29415 103.657Z" stroke="white" stroke-opacity="0.05"/>
<path d="M142.596 77.4288L141.723 81.2928L139.167 81.2928L140.694 74.5539L158.595 74.5539L163.524 96.3178L135.776 96.3178L137.303 89.5789L139.859 89.5789L139.036 93.2224L139.374 93.2989L139.502 93.8432L159.776 93.8432L160.402 93.8432L160.264 93.2327L156.683 77.4285L156.594 77.039L156.195 77.039L143.084 77.039L142.684 77.039L142.596 77.4288ZM167.321 103.657L167.233 103.267L166.834 103.267L132.445 103.267L132.045 103.267L131.957 103.657L131.211 106.952L128.655 106.952L130.055 100.782L169.224 100.782L170.624 106.952L168.068 106.952L167.321 103.657Z" stroke="white" stroke-opacity="0.05"/>
<path d="M60.0805 149.138L59.2072 153.002L56.6513 153.002L58.1784 146.263L76.0796 146.263L81.0088 168.027L53.2599 168.027L54.7871 161.288L57.3436 161.288L56.5201 164.931L56.8586 165.008L56.9867 165.552L77.2608 165.552L77.8868 165.552L77.7485 164.942L74.1669 149.138L74.0787 148.748L73.6793 148.748L60.5682 148.748L60.1686 148.748L60.0805 149.138ZM84.8059 175.366L84.7176 174.976L84.3182 174.976L49.9293 174.976L49.5299 174.976L49.4416 175.366L48.6952 178.661L46.1393 178.661L47.5394 172.491L86.7081 172.491L88.1082 178.661L85.5523 178.661L84.8059 175.366Z" stroke="white" stroke-opacity="0.05"/>
<path d="M225.108 149.138L224.235 153.002L221.679 153.002L223.206 146.263L241.107 146.263L246.036 168.027L218.287 168.027L219.814 161.288L222.371 161.288L221.547 164.931L221.886 165.008L222.014 165.552L242.288 165.552L242.914 165.552L242.776 164.942L239.194 149.138L239.106 148.748L238.707 148.748L225.596 148.748L225.196 148.748L225.108 149.138ZM249.833 175.366L249.745 174.976L249.346 174.976L214.957 174.976L214.557 174.976L214.469 175.366L213.723 178.661L211.167 178.661L212.567 172.491L251.735 172.491L253.136 178.661L250.58 178.661L249.833 175.366Z" stroke="white" stroke-opacity="0.05"/>
<path d="M60.0805 3.75694L59.2072 7.62092L56.6513 7.62092L58.1784 0.882047L76.0796 0.882048L81.0088 22.6459L53.2599 22.6459L54.7871 15.907L57.3436 15.907L56.5201 19.5506L56.8586 19.6271L56.9867 20.1713L77.2608 20.1713L77.8868 20.1713L77.7485 19.5608L74.1669 3.75666L74.0787 3.36717L73.6793 3.36717L60.5682 3.36717L60.1686 3.36717L60.0805 3.75694ZM84.8059 29.9847L84.7176 29.5951L84.3182 29.5951L49.9293 29.5951L49.5299 29.5951L49.4416 29.9846L48.6952 33.2803L46.1393 33.2803L47.5394 27.11L86.7081 27.11L88.1082 33.2803L85.5523 33.2803L84.8059 29.9847Z" stroke="white" stroke-opacity="0.05"/>
<path d="M-22.4319 151.208L-23.3071 155.194L-25.8644 155.194L-24.3308 148.228L-6.43464 148.228L-1.49896 170.661L-29.2558 170.661L-27.7221 163.695L-25.1642 163.695L-25.9923 167.466L-25.6565 167.54L-25.525 168.084L-5.25089 168.084L-4.62884 168.084L-4.76258 167.477L-8.3441 151.208L-8.43051 150.815L-8.83241 150.815L-21.9435 150.815L-22.3456 150.815L-22.4319 151.208ZM2.29482 178.207L2.20846 177.815L1.8065 177.815L-32.5824 177.815L-32.9844 177.815L-33.0708 178.207L-33.819 181.608L-36.3764 181.608L-34.9698 175.227L4.19386 175.227L5.60044 181.608L3.04309 181.608L2.29482 178.207Z" stroke="white" stroke-opacity="0.05"/>
<path d="M142.595 151.208L141.72 155.194L139.163 155.194L140.697 148.228L158.593 148.228L163.528 170.661L135.772 170.661L137.305 163.695L139.863 163.695L139.035 167.466L139.371 167.54L139.502 168.084L159.776 168.084L160.399 168.084L160.265 167.477L156.683 151.208L156.597 150.815L156.195 150.815L143.084 150.815L142.682 150.815L142.595 151.208ZM167.322 178.207L167.236 177.815L166.834 177.815L132.445 177.815L132.043 177.815L131.957 178.207L131.208 181.608L128.651 181.608L130.058 175.227L169.221 175.227L170.628 181.608L168.07 181.608L167.322 178.207Z" stroke="white" stroke-opacity="0.05"/>
<path d="M-22.4319 188.534L-23.3071 192.521L-25.8644 192.521L-24.3308 185.554L-6.43464 185.554L-1.49896 207.987L-29.2558 207.987L-27.7221 201.021L-25.1642 201.021L-25.9923 204.793L-25.6565 204.866L-25.525 205.411L-5.25089 205.411L-4.62884 205.411L-4.76258 204.803L-8.3441 188.534L-8.43051 188.142L-8.83241 188.142L-21.9435 188.142L-22.3456 188.142L-22.4319 188.534ZM2.29482 215.534L2.20846 215.141L1.8065 215.141L-32.5824 215.141L-32.9844 215.141L-33.0708 215.534L-33.819 218.935L-36.3764 218.935L-34.9698 212.553L4.19386 212.553L5.60044 218.935L3.04309 218.935L2.29482 215.534Z" stroke="white" stroke-opacity="0.05"/>
<path d="M142.595 188.534L141.72 192.521L139.163 192.521L140.697 185.554L158.593 185.554L163.528 207.987L135.772 207.987L137.305 201.021L139.863 201.021L139.035 204.793L139.371 204.866L139.502 205.411L159.776 205.411L160.399 205.411L160.265 204.803L156.683 188.534L156.597 188.142L156.195 188.142L143.084 188.142L142.682 188.142L142.595 188.534ZM167.322 215.534L167.236 215.141L166.834 215.141L132.445 215.141L132.043 215.141L131.957 215.534L131.208 218.935L128.651 218.935L130.058 212.553L169.221 212.553L170.628 218.935L168.07 218.935L167.322 215.534Z" stroke="white" stroke-opacity="0.05"/>
<path d="M142.596 3.75694L141.723 7.62092L139.167 7.62092L140.694 0.882047L158.595 0.882048L163.524 22.6459L135.776 22.6459L137.303 15.907L139.859 15.907L139.036 19.5506L139.374 19.6271L139.502 20.1713L159.776 20.1713L160.402 20.1713L160.264 19.5608L156.683 3.75666L156.594 3.36717L156.195 3.36717L143.084 3.36717L142.684 3.36717L142.596 3.75694ZM167.321 29.9847L167.233 29.5951L166.834 29.5951L132.445 29.5951L132.045 29.5951L131.957 29.9846L131.211 33.2803L128.655 33.2803L130.055 27.11L169.224 27.11L170.624 33.2803L168.068 33.2803L167.321 29.9847Z" stroke="white" stroke-opacity="0.05"/>
<path d="M60.0805 77.4288L59.2072 81.2928L56.6513 81.2928L58.1784 74.5539L76.0796 74.5539L81.0088 96.3178L53.2599 96.3178L54.7871 89.5789L57.3436 89.5789L56.5201 93.2224L56.8586 93.2989L56.9867 93.8432L77.2608 93.8432L77.8868 93.8432L77.7485 93.2327L74.1669 77.4285L74.0787 77.039L73.6793 77.039L60.5682 77.039L60.1686 77.039L60.0805 77.4288ZM84.8059 103.657L84.7176 103.267L84.3182 103.267L49.9293 103.267L49.5299 103.267L49.4416 103.657L48.6952 106.952L46.1393 106.952L47.5394 100.782L86.7081 100.782L88.1082 106.952L85.5523 106.952L84.8059 103.657Z" stroke="white" stroke-opacity="0.05"/>
<path d="M225.108 77.4288L224.235 81.2928L221.679 81.2928L223.206 74.5539L241.107 74.5539L246.036 96.3178L218.287 96.3178L219.814 89.5789L222.371 89.5789L221.547 93.2224L221.886 93.2989L222.014 93.8432L242.288 93.8432L242.914 93.8432L242.776 93.2327L239.194 77.4285L239.106 77.039L238.707 77.039L225.596 77.039L225.196 77.039L225.108 77.4288ZM249.833 103.657L249.745 103.267L249.346 103.267L214.957 103.267L214.557 103.267L214.469 103.657L213.723 106.952L211.167 106.952L212.567 100.782L251.735 100.782L253.136 106.952L250.58 106.952L249.833 103.657Z" stroke="white" stroke-opacity="0.05"/>
<path d="M33.8928 215.954L34.768 211.968H37.3253L35.7917 218.934H17.8956L12.9599 196.501H40.7167L39.1831 203.467H36.6251L37.4532 199.696L37.1174 199.622L36.986 199.078H16.7118H16.0898L16.2235 199.685L19.805 215.954L19.8914 216.347H20.2933H33.4045H33.8066L33.8928 215.954ZM9.16611 188.955L9.25248 189.347H9.65443H44.0434H44.4453L44.5317 188.955L45.2799 185.554H47.8373L46.4307 191.935H7.26707L5.8605 185.554H8.41785L9.16611 188.955Z" stroke="white" stroke-opacity="0.05"/>
<path d="M198.92 215.954L199.795 211.968H202.353L200.819 218.934H182.923L177.987 196.501H205.744L204.21 203.467H201.652L202.481 199.696L202.145 199.622L202.013 199.078H181.739H181.117L181.251 199.685L184.832 215.954L184.919 216.347H185.321H198.432H198.834L198.92 215.954ZM174.193 188.955L174.28 189.347H174.682H209.071H209.473L209.559 188.955L210.307 185.554H212.865L211.458 191.935H172.294L170.888 185.554H173.445L174.193 188.955Z" stroke="white" stroke-opacity="0.05"/>
<path d="M33.8922 70.6786L34.7655 66.8146H37.3214L35.7942 73.5535H17.8931L12.9638 51.7896H40.7127L39.1856 58.5285H36.6291L37.4525 54.885L37.1141 54.8085L36.986 54.2642H16.7118H16.0858L16.2242 54.8747L19.8057 70.6789L19.894 71.0684H20.2933H33.4045H33.8041L33.8922 70.6786ZM9.16678 44.4509L9.25501 44.8405H9.65443H44.0434H44.4428L44.531 44.4509L45.2774 41.1553H47.8334L46.4333 47.3256H7.26454L5.86445 41.1553H8.42038L9.16678 44.4509Z" stroke="white" stroke-opacity="0.05"/>
<path d="M198.919 70.6786L199.793 66.8146H202.349L200.822 73.5535H182.92L177.991 51.7896H205.74L204.213 58.5285H201.656L202.48 54.885L202.141 54.8085L202.013 54.2642H181.739H181.113L181.252 54.8747L184.833 70.6789L184.921 71.0684H185.321H198.432H198.831L198.919 70.6786ZM174.194 44.4509L174.282 44.8405H174.682H209.071H209.47L209.558 44.4509L210.305 41.1553H212.861L211.461 47.3256H172.292L170.892 41.1553H173.448L174.194 44.4509Z" stroke="white" stroke-opacity="0.05"/>
<path d="M33.8922 144.352L34.7655 140.488H37.3214L35.7942 147.227H17.8931L12.9638 125.463H40.7127L39.1856 132.202H36.6291L37.4525 128.559L37.1141 128.482L36.986 127.938H16.7118H16.0858L16.2242 128.549L19.8057 144.353L19.894 144.742H20.2933H33.4045H33.8041L33.8922 144.352ZM9.16678 118.125L9.25501 118.514H9.65443H44.0434H44.4428L44.531 118.125L45.2774 114.829H47.8334L46.4333 120.999H7.26454L5.86445 114.829H8.42038L9.16678 118.125Z" stroke="white" stroke-opacity="0.05"/>
<path d="M198.919 144.352L199.793 140.488H202.349L200.822 147.227H182.92L177.991 125.463H205.74L204.213 132.202H201.656L202.48 128.559L202.141 128.482L202.013 127.938H181.739H181.113L181.252 128.549L184.833 144.353L184.921 144.742H185.321H198.432H198.831L198.919 144.352ZM174.194 118.125L174.282 118.514H174.682H209.071H209.47L209.558 118.125L210.305 114.829H212.861L211.461 120.999H172.292L170.892 114.829H173.448L174.194 118.125Z" stroke="white" stroke-opacity="0.05"/>
<path d="M116.408 215.954L117.284 211.968H119.841L118.307 218.934H100.411L95.4755 196.501H123.232L121.699 203.467H119.141L119.969 199.696L119.633 199.622L119.502 199.078H99.2274H98.6054L98.7391 199.685L102.321 215.954L102.407 216.347H102.809H115.92H116.322L116.408 215.954ZM91.6817 188.955L91.7681 189.347H92.1701H126.559H126.961L127.047 188.955L127.796 185.554H130.353L128.946 191.935H89.7827L88.3761 185.554H90.9335L91.6817 188.955Z" stroke="white" stroke-opacity="0.05"/>
<path d="M281.432 215.954L282.307 211.968H284.864L283.331 218.934H265.435L260.499 196.501H288.256L286.722 203.467H284.164L284.992 199.696L284.656 199.622L284.525 199.078H264.251H263.629L263.763 199.685L267.344 215.954L267.431 216.347H267.832H280.944H281.346L281.432 215.954ZM256.705 188.955L256.792 189.347H257.193H291.582H291.984L292.071 188.955L292.819 185.554H295.376L293.97 191.935H254.806L253.4 185.554H255.957L256.705 188.955Z" stroke="white" stroke-opacity="0.05"/>
<path d="M116.408 70.6786L117.281 66.8146H119.837L118.31 73.5535H100.409L95.4795 51.7896H123.228L121.701 58.5285H119.145L119.968 54.885L119.63 54.8085L119.502 54.2642H99.2274H98.6015L98.7398 54.8747L102.321 70.6789L102.41 71.0684H102.809H115.92H116.32L116.408 70.6786ZM91.6824 44.4509L91.7706 44.8405H92.1701H126.559H126.958L127.047 44.4509L127.793 41.1553H130.349L128.949 47.3256H89.7802L88.3801 41.1553H90.936L91.6824 44.4509Z" stroke="white" stroke-opacity="0.05"/>
<path d="M281.431 70.6786L282.305 66.8146H284.86L283.333 73.5535H265.432L260.503 51.7896H288.252L286.725 58.5285H284.168L284.992 54.885L284.653 54.8085L284.525 54.2642H264.251H263.625L263.763 54.8747L267.345 70.6789L267.433 71.0684H267.832H280.944H281.343L281.431 70.6786ZM256.706 44.4509L256.794 44.8405H257.193H291.582H291.982L292.07 44.4509L292.816 41.1553H295.372L293.972 47.3256H254.804L253.404 41.1553H255.959L256.706 44.4509Z" stroke="white" stroke-opacity="0.05"/>
<path d="M281.431 36.9911L282.305 33.1271H284.86L283.333 39.866H265.432L260.503 18.1021H288.252L286.725 24.841H284.168L284.992 21.1975L284.653 21.121L284.525 20.5767H264.251H263.625L263.763 21.1872L267.345 36.9914L267.433 37.3809H267.832H280.944H281.343L281.431 36.9911ZM256.706 10.7634L256.794 11.153H257.193H291.582H291.982L292.07 10.7634L292.816 7.46777H295.372L293.972 13.6381H254.804L253.404 7.46777H255.959L256.706 10.7634Z" stroke="white" stroke-opacity="0.05"/>
<path d="M116.408 142.282L117.284 138.296H119.841L118.307 145.262H100.411L95.4755 122.829H123.232L121.699 129.795H119.141L119.969 126.024L119.633 125.95L119.502 125.406H99.2274H98.6054L98.7391 126.013L102.321 142.282L102.407 142.675H102.809H115.92H116.322L116.408 142.282ZM91.6817 115.283L91.7681 115.675H92.1701H126.559H126.961L127.047 115.283L127.796 111.882H130.353L128.946 118.263H89.7827L88.3761 111.882H90.9335L91.6817 115.283Z" stroke="white" stroke-opacity="0.05"/>
<path d="M281.432 142.282L282.307 138.296H284.864L283.331 145.262H265.435L260.499 122.829H288.256L286.722 129.795H284.164L284.992 126.024L284.656 125.95L284.525 125.406H264.251H263.629L263.763 126.013L267.344 142.282L267.431 142.675H267.832H280.944H281.346L281.432 142.282ZM256.705 115.283L256.792 115.675H257.193H291.582H291.984L292.071 115.283L292.819 111.882H295.376L293.97 118.263H254.806L253.4 111.882H255.957L256.705 115.283Z" stroke="white" stroke-opacity="0.05"/>
<path d="M-22.4312 44.0304L-23.3045 47.8944L-25.8605 47.8944L-24.3333 41.1555L-6.43211 41.1555L-1.5029 62.9193L-29.2518 62.9193L-27.7246 56.1805L-25.1681 56.1805L-25.9916 59.824L-25.6531 59.9005L-25.525 60.4447L-5.25089 60.4447L-4.6249 60.4447L-4.76325 59.8342L-8.34477 44.0301L-8.43304 43.6406L-8.83241 43.6406L-21.9435 43.6406L-22.3431 43.6406L-22.4312 44.0304ZM2.29415 70.2581L2.20593 69.8685L1.8065 69.8685L-32.5824 69.8685L-32.9819 69.8685L-33.0701 70.2581L-33.8165 73.5537L-36.3724 73.5537L-34.9723 67.3834L4.1964 67.3834L5.59649 73.5537L3.04056 73.5537L2.29415 70.2581Z" stroke="white" stroke-opacity="0.05"/>
<path d="M142.596 44.0304L141.723 47.8944L139.167 47.8944L140.694 41.1555L158.595 41.1555L163.524 62.9193L135.776 62.9193L137.303 56.1805L139.859 56.1805L139.036 59.824L139.374 59.9005L139.502 60.4447L159.776 60.4447L160.402 60.4447L160.264 59.8342L156.683 44.0301L156.594 43.6406L156.195 43.6406L143.084 43.6406L142.684 43.6406L142.596 44.0304ZM167.321 70.2581L167.233 69.8685L166.834 69.8685L132.445 69.8685L132.045 69.8685L131.957 70.2581L131.211 73.5537L128.655 73.5537L130.055 67.3834L169.224 67.3834L170.624 73.5537L168.068 73.5537L167.321 70.2581Z" stroke="white" stroke-opacity="0.05"/>
<path d="M60.0798 114.863L59.2047 118.849L56.6473 118.849L58.181 111.882L76.0771 111.882L81.0128 134.316L53.256 134.316L54.7896 127.349L57.3475 127.349L56.5194 131.121L56.8552 131.194L56.9867 131.739L77.2608 131.739L77.8829 131.739L77.7491 131.131L74.1676 114.862L74.0812 114.47L73.6793 114.47L60.5682 114.47L60.1661 114.47L60.0798 114.863ZM84.8065 141.862L84.7202 141.469L84.3182 141.469L49.9293 141.469L49.5273 141.469L49.441 141.862L48.6927 145.263L46.1353 145.263L47.5419 138.882L86.7056 138.882L88.1122 145.263L85.5548 145.263L84.8065 141.862Z" stroke="white" stroke-opacity="0.05"/>
<path d="M225.107 114.863L224.232 118.849L221.675 118.849L223.208 111.882L241.104 111.882L246.04 134.316L218.283 134.316L219.817 127.349L222.375 127.349L221.547 131.121L221.883 131.194L222.014 131.739L242.288 131.739L242.91 131.739L242.776 131.131L239.195 114.862L239.109 114.47L238.707 114.47L225.596 114.47L225.193 114.47L225.107 114.863ZM249.834 141.862L249.748 141.469L249.346 141.469L214.957 141.469L214.555 141.469L214.468 141.862L213.72 145.263L211.163 145.263L212.569 138.882L251.733 138.882L253.14 145.263L250.582 145.263L249.834 141.862Z" stroke="white" stroke-opacity="0.05"/>
<path d="M-22.4312 117.704L-23.3045 121.568L-25.8605 121.568L-24.3333 114.829L-6.43211 114.829L-1.5029 136.593L-29.2518 136.593L-27.7246 129.854L-25.1681 129.854L-25.9916 133.498L-25.6531 133.574L-25.525 134.119L-5.25089 134.119L-4.6249 134.119L-4.76325 133.508L-8.34477 117.704L-8.43304 117.314L-8.83241 117.314L-21.9435 117.314L-22.3431 117.314L-22.4312 117.704ZM2.29415 143.932L2.20593 143.542L1.8065 143.542L-32.5824 143.542L-32.9819 143.542L-33.0701 143.932L-33.8165 147.228L-36.3724 147.228L-34.9723 141.057L4.1964 141.057L5.59649 147.228L3.04056 147.228L2.29415 143.932Z" stroke="white" stroke-opacity="0.05"/>
<path d="M142.596 117.704L141.723 121.568L139.167 121.568L140.694 114.829L158.595 114.829L163.524 136.593L135.776 136.593L137.303 129.854L139.859 129.854L139.036 133.498L139.374 133.574L139.502 134.119L159.776 134.119L160.402 134.119L160.264 133.508L156.683 117.704L156.594 117.314L156.195 117.314L143.084 117.314L142.684 117.314L142.596 117.704ZM167.321 143.932L167.233 143.542L166.834 143.542L132.445 143.542L132.045 143.542L131.957 143.932L131.211 147.228L128.655 147.228L130.055 141.057L169.224 141.057L170.624 147.228L168.068 147.228L167.321 143.932Z" stroke="white" stroke-opacity="0.05"/>
<path d="M60.0798 188.534L59.2047 192.521L56.6473 192.521L58.181 185.554L76.0771 185.554L81.0128 207.987L53.256 207.987L54.7896 201.021L57.3475 201.021L56.5194 204.793L56.8552 204.866L56.9867 205.411L77.2608 205.411L77.8829 205.411L77.7491 204.803L74.1676 188.534L74.0812 188.142L73.6793 188.142L60.5682 188.142L60.1661 188.142L60.0798 188.534ZM84.8065 215.534L84.7202 215.141L84.3182 215.141L49.9293 215.141L49.5273 215.141L49.441 215.534L48.6927 218.935L46.1353 218.935L47.5419 212.553L86.7056 212.553L88.1122 218.935L85.5548 218.935L84.8065 215.534Z" stroke="white" stroke-opacity="0.05"/>
<path d="M225.107 188.534L224.232 192.521L221.675 192.521L223.208 185.554L241.104 185.554L246.04 207.987L218.283 207.987L219.817 201.021L222.375 201.021L221.547 204.793L221.883 204.866L222.014 205.411L242.288 205.411L242.91 205.411L242.776 204.803L239.195 188.534L239.109 188.142L238.707 188.142L225.596 188.142L225.193 188.142L225.107 188.534ZM249.834 215.534L249.748 215.141L249.346 215.141L214.957 215.141L214.555 215.141L214.468 215.534L213.72 218.935L211.163 218.935L212.569 212.553L251.733 212.553L253.14 218.935L250.582 218.935L249.834 215.534Z" stroke="white" stroke-opacity="0.05"/>
<path d="M60.0805 44.0304L59.2072 47.8944L56.6513 47.8944L58.1784 41.1555L76.0796 41.1555L81.0088 62.9193L53.2599 62.9193L54.7871 56.1805L57.3436 56.1805L56.5201 59.824L56.8586 59.9005L56.9867 60.4447L77.2608 60.4447L77.8868 60.4447L77.7485 59.8342L74.1669 44.0301L74.0787 43.6406L73.6793 43.6406L60.5682 43.6406L60.1686 43.6406L60.0805 44.0304ZM84.8059 70.2581L84.7176 69.8685L84.3182 69.8685L49.9293 69.8685L49.5299 69.8685L49.4416 70.2581L48.6952 73.5537L46.1393 73.5537L47.5394 67.3834L86.7081 67.3834L88.1082 73.5537L85.5523 73.5537L84.8059 70.2581Z" stroke="white" stroke-opacity="0.05"/>
<path d="M225.108 44.0304L224.235 47.8944L221.679 47.8944L223.206 41.1555L241.107 41.1555L246.036 62.9193L218.287 62.9193L219.814 56.1805L222.371 56.1805L221.547 59.824L221.886 59.9005L222.014 60.4447L242.288 60.4447L242.914 60.4447L242.776 59.8342L239.194 44.0301L239.106 43.6406L238.707 43.6406L225.596 43.6406L225.196 43.6406L225.108 44.0304ZM249.833 70.2581L249.745 69.8685L249.346 69.8685L214.957 69.8685L214.557 69.8685L214.469 70.2581L213.723 73.5537L211.167 73.5537L212.567 67.3834L251.735 67.3834L253.136 73.5537L250.58 73.5537L249.833 70.2581Z" stroke="white" stroke-opacity="0.05"/>
</svg>
