<svg width="60" height="60" viewBox="0 0 60 60" fill="none" xmlns="http://www.w3.org/2000/svg">
<path d="M25.25 58.6768C25.8688 58.779 26.5025 58.8643 27.1344 58.9234L27.3219 57.0577C26.7287 56.9996 26.1416 56.9224 25.5603 56.8262L25.25 58.6768Z" fill="#0AA880"/>
<path d="M5.21594 18.8086L3.50781 18.0352C3.24719 18.6108 3.00344 19.2014 2.78125 19.7939L4.53719 20.4502C4.74656 19.8945 4.97281 19.3473 5.21594 18.8086Z" fill="#0AA880"/>
<path d="M8.95781 12.7796L7.5075 11.5918C7.1075 12.0812 6.72219 12.5837 6.35156 13.0993L7.87312 14.1915C8.22125 13.7096 8.58281 13.239 8.95781 12.7796Z" fill="#0AA880"/>
<path d="M6.89109 15.6698L5.29734 14.6816C4.96359 15.2191 4.64703 15.7679 4.34766 16.3279L6.00141 17.211C6.28203 16.6873 6.57859 16.1735 6.89109 15.6698Z" fill="#0AA880"/>
<path d="M11.3867 10.1841L10.1033 8.8125C9.64484 9.24281 9.19297 9.69563 8.76172 10.1578L10.1323 11.4375C10.5361 11.0075 10.9542 10.5897 11.3867 10.1841Z" fill="#0AA880"/>
<path d="M23.768 3.53039L23.3386 1.70508C22.7186 1.85133 22.107 2.01633 21.5039 2.20008L22.0505 3.99352C22.6161 3.82102 23.1886 3.66664 23.768 3.53039Z" fill="#0AA880"/>
<path d="M3.16844 25.5978L1.31406 25.2969C1.21281 25.9181 1.13156 26.5462 1.07031 27.1812L2.93688 27.3603C2.99688 26.7672 3.07406 26.1797 3.16844 25.5978Z" fill="#0AA880"/>
<path d="M27.2692 2.94766L27.0817 1.08203C26.448 1.14453 25.8205 1.22797 25.1992 1.33234L25.5058 3.18203C26.0877 3.08516 26.6755 3.00703 27.2692 2.94766Z" fill="#0AA880"/>
<path d="M17.1388 6.03961L16.2509 4.38867C15.6934 4.68805 15.1463 5.00555 14.6094 5.34117L15.6031 6.93492C16.105 6.6193 16.6169 6.32086 17.1388 6.03961Z" fill="#0AA880"/>
<path d="M14.1281 7.92391L13.0312 6.40234C12.5175 6.77297 12.0175 7.15953 11.5312 7.56203L12.7237 9.00859C13.1787 8.63297 13.6469 8.27141 14.1281 7.92391Z" fill="#0AA880"/>
<path d="M20.37 4.56844L19.7053 2.8125C19.1122 3.0375 18.5281 3.28125 17.9531 3.54375L18.7322 5.25C19.2684 5.00625 19.8144 4.77906 20.37 4.56844Z" fill="#0AA880"/>
<path d="M3.96656 22.1366L2.17125 21.5957C1.98937 22.1982 1.82812 22.812 1.6875 23.437L3.51375 23.8598C3.645 23.2766 3.79594 22.7023 3.96656 22.1366Z" fill="#0AA880"/>
<path d="M14.6406 54.6778C15.1775 55.0122 15.7263 55.3297 16.2869 55.6303L17.1719 53.9775C16.6488 53.6969 16.1359 53.3997 15.6334 53.0859L14.6406 54.6778Z" fill="#0AA880"/>
<path d="M2.8125 30.0005C2.8125 29.7105 2.81719 29.4224 2.82656 29.1362L0.951562 29.0762C0.942187 29.3799 0.9375 29.688 0.9375 30.0005C0.9375 30.3277 0.9375 30.6568 0.953437 30.9774L2.82844 30.9146C2.81719 30.6109 2.8125 30.3071 2.8125 30.0005Z" fill="#0AA880"/>
<path d="M8.78516 49.8645C9.21828 50.3264 9.66578 50.7742 10.1277 51.208L11.4102 49.8402C10.9783 49.4345 10.5592 49.0152 10.153 48.582L8.78516 49.8645Z" fill="#0AA880"/>
<path d="M17.9922 56.4748C18.565 56.7354 19.1566 56.9801 19.7491 57.2041L20.41 55.4501C19.8544 55.2401 19.3069 55.0126 18.7675 54.7676L17.9922 56.4748Z" fill="#0AA880"/>
<path d="M21.5508 57.8139C22.1545 57.997 22.7664 58.1608 23.3864 58.3052L23.8111 56.4789C23.2317 56.3445 22.6595 56.1914 22.0945 56.0195L21.5508 57.8139Z" fill="#0AA880"/>
<path d="M11.5547 52.4621C12.0441 52.864 12.5463 53.2502 13.0612 53.6209L14.1544 52.0974C13.6725 51.7518 13.2038 51.3905 12.7481 51.0137L11.5547 52.4621Z" fill="#0AA880"/>
<path d="M2.94375 32.6875L1.07812 32.875C1.14062 33.5088 1.22312 34.1366 1.32562 34.7584L3.17531 34.4547C3.07969 33.8703 3.0025 33.2813 2.94375 32.6875Z" fill="#0AA880"/>
<path d="M3.52062 36.1875L1.69531 36.615C1.83969 37.2344 2.00344 37.8459 2.18656 38.4497L3.98094 37.9059C3.80906 37.3434 3.65562 36.7706 3.52062 36.1875Z" fill="#0AA880"/>
<path d="M7.8975 45.8379L6.375 46.932C6.74562 47.4457 7.13125 47.9476 7.53188 48.4376L8.98125 47.2507C8.60562 46.7907 8.24437 46.3198 7.8975 45.8379Z" fill="#0AA880"/>
<path d="M4.55094 39.5918L2.79688 40.2546C3.02125 40.8471 3.26375 41.4312 3.52438 42.0068L5.23156 41.2315C4.98719 40.694 4.76031 40.1474 4.55094 39.5918Z" fill="#0AA880"/>
<path d="M6.02 42.8242L4.36719 43.7083C4.66344 44.2623 4.98312 44.8155 5.31781 45.3527L6.91156 44.3598C6.59719 43.8592 6.3 43.3473 6.02 42.8242Z" fill="#0AA880"/>
<path d="M51.375 10.3125H53.4375V8.4375H48.75C48.5014 8.4375 48.2629 8.53627 48.0871 8.71209C47.9113 8.8879 47.8125 9.12636 47.8125 9.375V14.0625H49.6875V11.2613C53.3572 15.1132 55.8157 19.9575 56.7582 25.1936C57.7006 30.4296 57.0857 35.8272 54.9895 40.717C52.8934 45.6069 49.4082 49.774 44.966 52.7018C40.5239 55.6296 35.3202 57.1893 30 57.1875V59.0625C35.6468 59.0639 41.1717 57.42 45.8992 54.3317C50.6267 51.2435 54.352 46.8446 56.6195 41.6731C58.8871 36.5015 59.5986 30.7813 58.6672 25.2118C57.7358 19.6423 55.2018 14.4649 51.375 10.3125Z" fill="#0AA880"/>
<path d="M6.5625 30C6.5625 34.6355 7.93709 39.1669 10.5124 43.0212C13.0878 46.8755 16.7482 49.8795 21.0309 51.6534C25.3135 53.4274 30.026 53.8915 34.5724 52.9872C39.1189 52.0828 43.295 49.8506 46.5728 46.5728C49.8506 43.295 52.0828 39.1189 52.9872 34.5724C53.8915 30.026 53.4274 25.3135 51.6534 21.0309C49.8795 16.7482 46.8755 13.0878 43.0212 10.5124C39.1669 7.93709 34.6355 6.5625 30 6.5625C23.7861 6.56945 17.8287 9.04098 13.4349 13.4349C9.04098 17.8287 6.56945 23.7861 6.5625 30ZM30 8.4375C34.2647 8.4375 38.4335 9.70212 41.9795 12.0714C45.5254 14.4408 48.2891 17.8084 49.9212 21.7484C51.5532 25.6884 51.9802 30.0239 51.1482 34.2066C50.3162 38.3893 48.2626 42.2314 45.247 45.247C42.2314 48.2626 38.3893 50.3162 34.2066 51.1482C30.0239 51.9802 25.6884 51.5532 21.7484 49.9212C17.8084 48.2891 14.4408 45.5254 12.0714 41.9795C9.70212 38.4335 8.4375 34.2647 8.4375 30C8.44395 24.2832 10.7178 18.8025 14.7601 14.7601C18.8025 10.7178 24.2832 8.44395 30 8.4375Z" fill="#0AA880"/>
<path d="M30 49.6875C33.8938 49.6875 37.7002 48.5328 40.9378 46.3695C44.1754 44.2063 46.6988 41.1315 48.1889 37.5341C49.679 33.9367 50.0689 29.9782 49.3092 26.1592C48.5496 22.3402 46.6745 18.8322 43.9212 16.0788C41.1678 13.3255 37.6598 11.4504 33.8408 10.6908C30.0218 9.93115 26.0633 10.321 22.4659 11.8111C18.8685 13.3012 15.7937 15.8246 13.6304 19.0622C11.4672 22.2998 10.3125 26.1062 10.3125 30C10.3182 35.2197 12.3943 40.224 16.0851 43.9149C19.776 47.6057 24.7803 49.6818 30 49.6875ZM30 12.1875C33.523 12.1875 36.9668 13.2322 39.8961 15.1895C42.8253 17.1467 45.1084 19.9286 46.4566 23.1835C47.8048 26.4383 48.1575 30.0198 47.4702 33.475C46.7829 36.9303 45.0865 40.1042 42.5953 42.5953C40.1042 45.0865 36.9303 46.7829 33.475 47.4702C30.0198 48.1575 26.4383 47.8048 23.1835 46.4566C19.9286 45.1084 17.1467 42.8253 15.1894 39.8961C13.2322 36.9668 12.1875 33.523 12.1875 30C12.1927 25.2774 14.0711 20.7498 17.4104 17.4104C20.7498 14.0711 25.2774 12.1927 30 12.1875Z" fill="#0AA880"/>
<path d="M16.875 28.125V27.6562C16.875 27.2833 17.0232 26.9256 17.2869 26.6619C17.5506 26.3982 17.9083 26.25 18.2812 26.25C18.6542 26.25 19.0119 26.3982 19.2756 26.6619C19.5393 26.9256 19.6875 27.2833 19.6875 27.6562C19.6869 28.3455 19.4452 29.0128 19.0041 29.5425L15.2175 34.0875C15.1035 34.2244 15.0308 34.3909 15.0081 34.5676C14.9853 34.7443 15.0133 34.9238 15.0888 35.0851C15.1644 35.2464 15.2843 35.3829 15.4346 35.4785C15.5849 35.5741 15.7594 35.6249 15.9375 35.625H21.5625V33.75H17.9391L20.445 30.7425C21.1666 29.8759 21.562 28.784 21.5625 27.6562C21.5625 26.786 21.2168 25.9514 20.6014 25.3361C19.9861 24.7207 19.1515 24.375 18.2812 24.375C17.411 24.375 16.5764 24.7207 15.9611 25.3361C15.3457 25.9514 15 26.786 15 27.6562V28.125H16.875Z" fill="#0AA880"/>
<path d="M23.4375 33.75H27.1875V35.625H29.0625V33.75H30.9375V31.875H29.0625V25.3125C29.0625 25.1089 28.9962 24.9109 28.8737 24.7483C28.7512 24.5857 28.5791 24.4674 28.3835 24.4113C28.1878 24.3552 27.9791 24.3643 27.7891 24.4372C27.599 24.5102 27.4379 24.643 27.33 24.8156L22.6425 32.3156C22.5538 32.4575 22.5047 32.6206 22.5003 32.7879C22.4959 32.9552 22.5364 33.1206 22.6175 33.267C22.6986 33.4133 22.8175 33.5353 22.9617 33.6203C23.1059 33.7052 23.2702 33.75 23.4375 33.75ZM27.1875 28.5816V31.875H25.125L27.1875 28.5816Z" fill="#0AA880"/>
<path d="M31.9102 35.4102L34.728 24.1621L36.5467 24.6177L33.7289 35.8658L31.9102 35.4102Z" fill="#0AA880"/>
<path d="M39.375 26.25H42.4809C41.0549 29.1131 40.3126 32.268 40.3125 35.4666V35.625H42.1875V35.4666C42.1877 32.0597 43.1135 28.7169 44.8659 25.7953C44.9514 25.6531 44.9976 25.4907 44.9998 25.3248C45.0019 25.1589 44.96 24.9953 44.8783 24.8509C44.7966 24.7065 44.6781 24.5863 44.5347 24.5027C44.3914 24.4191 44.2284 24.375 44.0625 24.375H38.4375C38.1889 24.375 37.9504 24.4738 37.7746 24.6496C37.5988 24.8254 37.5 25.0639 37.5 25.3125V27.1875H39.375V26.25Z" fill="#0AA880"/>
</svg>
