<svg width="42" height="42" viewBox="0 0 42 42" fill="none" xmlns="http://www.w3.org/2000/svg">
<path d="M7.02377 13.1712C7.02377 13.1711 7.02377 13.171 7.02377 13.1709L7.00482 12.9839C6.90614 12.0058 6.06237 11.2635 5.07627 11.2959L3.03582 11.3617C2.51771 11.3785 2.02471 11.6118 1.68337 12.0018C1.34196 12.3919 1.17601 12.9115 1.22818 13.4272L1.27519 13.8923C1.32728 14.408 1.59371 14.8839 2.00625 15.1978C2.33462 15.4477 2.73715 15.581 3.14542 15.581C3.25009 15.581 3.35525 15.5722 3.45943 15.5544L5.47174 15.2106C6.44086 15.0452 7.12262 14.1493 7.02377 13.1712ZM5.26461 13.9978L3.2523 14.3416C3.07348 14.3721 2.8958 14.3285 2.75142 14.2186C2.60713 14.1089 2.51763 13.9491 2.4995 13.7686L2.4525 13.3034C2.43421 13.123 2.48999 12.9485 2.60934 12.8121C2.72878 12.6757 2.89432 12.5974 3.07553 12.5915L5.11597 12.5258C5.12303 12.5255 5.12992 12.5254 5.13689 12.5254C5.46665 12.5254 5.74736 12.7773 5.78075 13.1078L5.7997 13.2947C5.83366 13.6319 5.59856 13.9407 5.26461 13.9978Z" fill="#0AA880"/>
<path d="M3.49508 9.06445L5.40961 9.77287C5.62223 9.85154 5.84093 9.88894 6.05675 9.88894C6.77666 9.88894 7.46309 9.47231 7.7735 8.7825L7.85069 8.61089C8.2542 7.71438 7.89122 6.64871 7.02447 6.18482L5.22454 5.22161C4.76746 4.97699 4.22401 4.93269 3.7333 5.09963C3.24258 5.26673 2.83907 5.63365 2.6262 6.10648L2.43441 6.53288C2.22162 7.00562 2.21449 7.55089 2.41481 8.02905C2.61513 8.50721 3.00888 8.88455 3.49508 9.06445ZM3.55652 7.03786L3.74831 6.61155C3.82271 6.44617 3.95831 6.32288 4.12992 6.26447C4.19882 6.24101 4.26937 6.22936 4.33967 6.22936C4.44434 6.22936 4.54828 6.25528 4.64393 6.30647L6.44377 7.26977C6.74261 7.42964 6.86771 7.79698 6.72867 8.10599L6.65148 8.2776C6.51235 8.58669 6.1542 8.73648 5.83658 8.61893L3.92205 7.91051C3.75208 7.84759 3.61976 7.72086 3.54971 7.55359C3.47966 7.38641 3.48212 7.20324 3.55652 7.03786Z" fill="#0AA880"/>
<path d="M7.93585 4.9208C8.3045 5.36492 8.84147 5.59731 9.38362 5.59731C9.7649 5.59731 10.1488 5.48222 10.4782 5.24499L10.6308 5.13499C11.4285 4.56036 11.647 3.45597 11.1283 2.62081L10.0511 0.886668C9.77761 0.446324 9.32907 0.136 8.82055 0.0354293C8.31237 -0.0652231 7.77917 0.0509333 7.35859 0.353957L6.9792 0.627285C6.55854 0.930309 6.27972 1.39904 6.21417 1.91329C6.14855 2.42746 6.30088 2.95115 6.63188 3.34999L7.93585 4.9208ZM7.43472 2.0689C7.45769 1.88901 7.55137 1.73159 7.69845 1.62561L8.07784 1.35228C8.18965 1.27172 8.31984 1.22989 8.45396 1.22989C8.49637 1.22989 8.53911 1.23407 8.58184 1.24252C8.75969 1.27771 8.9103 1.38189 9.00595 1.53595L10.0831 3.27009C10.2619 3.55793 10.1866 3.93864 9.91165 4.13667L9.75899 4.24667C9.48394 4.44469 9.09922 4.39564 8.88265 4.13494L7.57868 2.56404C7.46294 2.42459 7.41183 2.24872 7.43472 2.0689Z" fill="#0AA880"/>
<path d="M40.7809 24.8021C40.7809 24.802 40.7809 24.8019 40.7809 24.8017C40.7809 24.063 40.4932 23.3686 39.9706 22.846C39.4991 22.3745 38.8872 22.095 38.2295 22.0448V17.8886C38.2295 15.5325 36.7023 13.485 34.5121 12.7822C34.7581 11.9063 34.8877 10.9878 34.8877 10.0469C34.8877 4.50696 30.3808 0 24.8409 0C19.395 0 14.9475 4.35627 14.799 9.76746C13.5824 10.4474 12.505 11.3809 11.6499 12.5242H11.2392C10.0512 12.5242 8.93377 12.9869 8.09213 13.8274C7.25311 14.6674 6.7907 15.7831 6.78956 16.9695C6.78947 16.971 6.78906 16.9724 6.78906 16.9739V37.5498C6.78906 38.7388 7.25197 39.8564 8.09229 40.6968C8.93279 41.5372 10.0504 42 11.2393 42H32.8653C33.8287 42 34.7735 41.7416 35.5975 41.2527C35.8897 41.0793 35.986 40.7019 35.8127 40.4097C35.6394 40.1174 35.2618 40.0212 34.9697 40.1945C34.3357 40.5707 33.6079 40.7695 32.8654 40.7695H18.7692V29.7878C19.7787 29.5161 20.5243 28.5931 20.5243 27.4988C20.5243 26.1918 19.4609 25.1285 18.1539 25.1285C16.8469 25.1285 15.7835 26.1918 15.7835 27.4988C15.7835 28.5931 16.529 29.5161 17.5387 29.7878V40.7695H15.6124V35.3645C15.6124 35.2013 15.5476 35.0448 15.4323 34.9295L13.6554 33.1527C13.857 32.8043 13.973 32.4005 13.973 31.9699C13.973 30.6629 12.9096 29.5995 11.6026 29.5995C10.2955 29.5995 9.2322 30.6629 9.2322 31.9699C9.2322 33.2769 10.2956 34.3402 11.6026 34.3402C12.0332 34.3402 12.4368 34.2243 12.7852 34.0228L14.382 35.6194V40.7695H11.2394C10.3792 40.7695 9.5705 40.4347 8.96256 39.8267C8.35455 39.2187 8.0197 38.4101 8.0197 37.5498V20.0455C8.64445 20.7014 9.47026 21.1698 10.4122 21.3458C10.6797 21.3974 10.958 21.4236 11.2393 21.4236H32.8652C35.1447 21.4236 36.9992 23.2781 36.9992 25.5575C36.9992 25.5613 36.9997 25.5649 36.9998 25.5686V26.3381H34.4909C34.4909 26.3381 34.4909 26.3381 34.4909 26.3381C33.1816 26.3381 31.9504 26.848 31.0245 27.7738C30.0985 28.6997 29.5885 29.9307 29.5885 31.24C29.5885 33.943 31.7876 36.142 34.4905 36.142H36.9998V36.6359C36.9998 37.3524 36.8141 38.0573 36.4626 38.6742C36.2945 38.9694 36.3976 39.3451 36.6928 39.5133C36.789 39.568 36.8936 39.594 36.9967 39.594C37.2106 39.594 37.4186 39.4823 37.5319 39.2831C37.9888 38.4809 38.2303 37.5656 38.2303 36.6359V36.1327C39.6552 36.0222 40.7812 34.8283 40.7812 33.3756L40.7809 24.8021ZM17.0139 27.4988C17.0139 26.8703 17.5252 26.3589 18.1538 26.3589C18.7824 26.3589 19.2937 26.8703 19.2937 27.4988C19.2937 28.1274 18.7824 28.6388 18.1538 28.6388C17.5252 28.6388 17.0139 28.1274 17.0139 27.4988ZM10.4625 31.9698C10.4625 31.3413 10.9739 30.8299 11.6024 30.8299C12.2309 30.8299 12.7423 31.3413 12.7423 31.9698C12.7423 32.5983 12.231 33.1097 11.6024 33.1097C10.9738 33.1097 10.4625 32.5983 10.4625 31.9698ZM39.1006 23.7161C39.3907 24.0062 39.5504 24.3917 39.5504 24.8017C39.5504 25.5757 38.9749 26.216 38.23 26.3212V25.5577C38.23 25.5539 38.2295 25.5503 38.2294 25.5466V23.2829C38.5581 23.3287 38.8618 23.4773 39.1006 23.7161ZM24.8409 1.23047C29.7023 1.23047 33.6573 5.18544 33.6573 10.0468C33.6573 13.05 32.156 15.794 29.6828 17.4157C29.6335 16.9733 29.5554 16.5396 29.4504 16.1163C31.3447 14.6779 32.4633 12.4411 32.4633 10.0471C32.4633 9.47814 32.4 8.91048 32.2749 8.35972C32.1996 8.02832 31.8698 7.82078 31.5387 7.89592C31.2074 7.97114 30.9998 8.30074 31.0749 8.63207C31.1797 9.09357 31.2328 9.56968 31.2328 10.0471C31.2328 11.9057 30.4286 13.6515 29.0484 14.8576C28.7735 14.1613 28.4227 13.503 28.0067 12.8925C28.345 12.4783 28.529 11.9645 28.529 11.4219C28.529 10.5249 28.0196 9.74482 27.2751 9.35476C27.456 9.05502 27.5604 8.70401 27.5604 8.32913C27.5604 7.44639 26.9825 6.69637 26.1853 6.43658V5.39068C26.1853 5.05091 25.9099 4.77545 25.57 4.77545C25.2302 4.77545 24.9548 5.05091 24.9548 5.39068V6.33888H24.3742V5.39068C24.3742 5.05091 24.0988 4.77545 23.759 4.77545C23.4191 4.77545 23.1437 5.05091 23.1437 5.39068V6.33888H23.0546H21.9864C21.6466 6.33888 21.3712 6.61434 21.3712 6.95412C21.3712 7.29389 21.6466 7.56935 21.9864 7.56935H22.4393V8.8693C21.568 8.62198 20.6487 8.48941 19.6992 8.48941C19.3392 8.48941 18.9818 8.50992 18.6278 8.54798C19.3054 5.70905 21.8468 3.65531 24.8409 3.65531C27.0122 3.65531 29.0163 4.74329 30.2019 6.56578C30.3872 6.85068 30.7684 6.93123 31.0532 6.746C31.338 6.5607 31.4187 6.17958 31.2334 5.89485C29.8199 3.72209 27.4302 2.42493 24.8409 2.42493C21.0921 2.42493 17.9379 5.12498 17.327 8.77464C16.8983 8.87906 16.4782 9.01179 16.0689 9.1706C16.5101 4.71909 20.2757 1.23047 24.8409 1.23047ZM25.5701 7.56935C25.9891 7.56935 26.33 7.91027 26.33 8.32921C26.33 8.74814 25.9891 9.08906 25.5701 9.08906H23.6699V7.56935H25.5701ZM26.1964 10.3199C26.8041 10.3199 27.2986 10.8143 27.2986 11.422C27.2986 11.5776 27.2658 11.7277 27.2049 11.8657C26.6898 11.2867 26.1092 10.7674 25.4744 10.3199H26.1964ZM8.02002 16.9739C8.02002 16.1143 8.35488 15.3056 8.96224 14.6975C9.47764 14.1827 10.1366 13.8647 10.8483 13.779C10.0634 15.2344 9.65286 16.8582 9.65286 18.5359C9.65286 18.9673 9.68116 19.3968 9.73554 19.8214C8.70359 19.2768 8.02002 18.1933 8.02002 16.9739ZM11.0386 20.1862C10.9361 19.646 10.8833 19.0928 10.8833 18.5357C10.8833 16.7193 11.4313 14.9752 12.4679 13.4921C14.1184 11.13 16.8217 9.7198 19.6992 9.7198C24.5603 9.7198 28.5151 13.6746 28.5151 18.5357C28.5151 19.0955 28.4622 19.6509 28.3587 20.1931H27.1383C27.2587 19.6516 27.3208 19.0971 27.3208 18.5357C27.3208 14.3332 23.9018 10.9142 19.6993 10.9142C15.4968 10.9142 12.0778 14.3332 12.0778 18.5357C12.0778 19.097 12.1399 19.6515 12.2602 20.1931H11.2393C11.1719 20.1931 11.1051 20.1903 11.0386 20.1862ZM18.5282 20.1931V18.8089H21.0541C21.6618 18.8089 22.1563 19.3033 22.1563 19.911C22.1563 20.007 22.1434 20.1018 22.1192 20.1931H18.5282ZM20.428 16.0586C20.847 16.0586 21.1879 16.3995 21.1879 16.8185C21.1879 17.2374 20.8471 17.5783 20.428 17.5783H18.5278V16.0586H20.428ZM22.1332 17.8439C22.3141 17.5442 22.4184 17.1933 22.4184 16.8185C22.4184 15.9356 21.8405 15.1857 21.0432 14.9259V13.8799C21.0432 13.5402 20.7678 13.2647 20.428 13.2647C20.0881 13.2647 19.8128 13.5402 19.8128 13.8799V14.8281H19.2321V13.8799C19.2321 13.5402 18.9568 13.2647 18.6169 13.2647C18.2771 13.2647 18.0017 13.5402 18.0017 13.8799V14.8281H17.9126H16.8445C16.5046 14.8281 16.2292 15.1036 16.2292 15.4434C16.2292 15.7831 16.5046 16.0586 16.8445 16.0586H17.2974V18.1935C17.2974 18.1963 17.2977 18.1988 17.2978 18.2015V20.1931H13.5267C13.3824 19.6553 13.3082 19.0997 13.3082 18.5358C13.3082 15.0117 16.1752 12.1447 19.6992 12.1447C23.2232 12.1447 26.0902 15.0117 26.0902 18.5358C26.0902 19.0999 26.016 19.6553 25.8718 20.1931H23.3686C23.3799 20.0999 23.3867 20.0058 23.3867 19.911C23.3868 19.014 22.8775 18.2341 22.1332 17.8439ZM36.999 22.1424C36.0143 20.9524 34.5268 20.1931 32.8651 20.1931H29.608C29.6833 19.7407 29.7285 19.2812 29.7413 18.8185C31.7376 17.7032 33.2524 15.979 34.1056 13.9446C35.8086 14.477 36.999 16.0622 36.999 17.8885V22.1424ZM39.5505 33.3756C39.5505 34.2225 38.8616 34.9116 38.0145 34.9116H34.4904C32.4658 34.9116 30.8188 33.2646 30.8188 31.24C30.8188 30.2594 31.2008 29.3374 31.8943 28.6439C32.5879 27.9504 33.5099 27.5686 34.4907 27.5686H38.0149C38.5826 27.5686 39.1109 27.3965 39.5505 27.102V33.3756H39.5505Z" fill="#0AA880"/>
<path d="M34.4915 28.8711C33.1844 28.8711 32.1211 29.9345 32.1211 31.2415C32.1211 32.5485 33.1845 33.6118 34.4915 33.6118C35.7985 33.6118 36.8618 32.5485 36.8618 31.2415C36.8618 29.9345 35.7985 28.8711 34.4915 28.8711ZM34.4915 32.3814C33.8629 32.3814 33.3516 31.87 33.3516 31.2415C33.3516 30.6129 33.8629 30.1016 34.4915 30.1016C35.12 30.1016 35.6314 30.6129 35.6314 31.2415C35.6314 31.87 35.12 32.3814 34.4915 32.3814Z" fill="#0AA880"/>
</svg>
