<svg width="12" height="12" viewBox="0 0 12 12" fill="none" xmlns="http://www.w3.org/2000/svg">
<g clip-path="url(#clip0_359_766)">
<path d="M0.586048 12.0001C0.470144 12.0001 0.356838 11.9657 0.260461 11.9014C0.164084 11.837 0.0889656 11.7455 0.0446083 11.6384C0.000250996 11.5313 -0.0113527 11.4135 0.0112649 11.2998C0.0338825 11.1861 0.0897053 11.0817 0.171672 10.9998L10.9998 0.17164C11.1097 0.0617407 11.2588 0 11.4142 0C11.5696 0 11.7187 0.0617407 11.8286 0.17164C11.9385 0.281539 12.0002 0.430594 12.0002 0.586015C12.0002 0.741436 11.9385 0.890491 11.8286 1.00039L1.00042 11.8285C0.946057 11.883 0.881463 11.9262 0.810352 11.9556C0.73924 11.9851 0.663013 12.0002 0.586048 12.0001Z" fill="white"/>
<path d="M11.4143 12.0001C11.3373 12.0002 11.2611 11.9851 11.19 11.9556C11.1188 11.9262 11.0543 11.883 10.9999 11.8285L0.171762 1.00039C0.0618627 0.890491 0.00012207 0.741436 0.00012207 0.586015C0.00012207 0.430594 0.0618627 0.281539 0.171762 0.17164C0.281661 0.0617407 0.430716 0 0.586137 0C0.741558 0 0.890613 0.0617407 1.00051 0.17164L11.8286 10.9998C11.9106 11.0817 11.9664 11.1861 11.989 11.2998C12.0117 11.4135 12.0001 11.5313 11.9557 11.6384C11.9113 11.7455 11.8362 11.837 11.7398 11.9014C11.6435 11.9657 11.5302 12.0001 11.4143 12.0001Z" fill="white"/>
</g>
<defs>
<clipPath id="clip0_359_766">
<rect width="12" height="12" fill="white"/>
</clipPath>
</defs>
</svg>
