<svg width="121" height="128" viewBox="0 0 121 128" fill="none" xmlns="http://www.w3.org/2000/svg">
<g filter="url(#filter0_d_1328_2713)">
<path d="M25 18C25 16.3431 26.3431 15 28 15H93C94.6569 15 96 16.3431 96 18V82.5357C96 84.1926 94.6569 85.5357 93 85.5357H71.7062C70.9352 85.5357 70.1937 85.8326 69.6357 86.3648L63.5868 92.1338C62.4748 93.1943 60.7412 93.2432 59.5713 92.2469L52.5307 86.2516C51.988 85.7895 51.2985 85.5357 50.5858 85.5357H28C26.3431 85.5357 25 84.1926 25 82.5357V18Z" fill="#1B2E33"/>
<path d="M26 18C26 16.8954 26.8954 16 28 16H93C94.1046 16 95 16.8954 95 18V82.5357C95 83.6403 94.1046 84.5357 93 84.5357H71.7062C70.6782 84.5357 69.6895 84.9316 68.9456 85.6411L62.8966 91.4101C62.1553 92.1172 60.9996 92.1497 60.2196 91.4856L53.1791 85.4903C52.4555 84.8741 51.5361 84.5357 50.5858 84.5357H28C26.8954 84.5357 26 83.6403 26 82.5357V18Z" stroke="#FDD54E" stroke-width="2"/>
</g>
<path d="M60.5002 59.4459C61.9166 59.4459 63.0957 58.3607 63.2149 56.9491L65.0565 34.9551C65.1637 33.6795 64.7312 32.4184 63.8653 31.4766C63.0005 30.536 61.7793 30 60.5002 30C59.221 30 57.9998 30.536 57.1349 31.4766C56.2689 32.4184 55.8366 33.6795 55.9438 34.9551L57.7854 56.9491C57.9047 58.3607 59.0837 59.4459 60.5002 59.4459Z" fill="#FDD54E"/>
<path d="M60.501 61.0645C58.8616 61.0645 57.5332 62.3928 57.5332 64.0322C57.5332 65.6714 58.8616 66.9998 60.501 66.9998C62.1403 66.9998 63.4687 65.6714 63.4687 64.0322C63.4687 62.3928 62.1403 61.0645 60.501 61.0645Z" fill="#FDD54E"/>
<defs>
<filter id="filter0_d_1328_2713" x="0" y="0" width="121" height="127.963" filterUnits="userSpaceOnUse" color-interpolation-filters="sRGB">
<feFlood flood-opacity="0" result="BackgroundImageFix"/>
<feColorMatrix in="SourceAlpha" type="matrix" values="0 0 0 0 0 0 0 0 0 0 0 0 0 0 0 0 0 0 127 0" result="hardAlpha"/>
<feOffset dy="10"/>
<feGaussianBlur stdDeviation="12.5"/>
<feComposite in2="hardAlpha" operator="out"/>
<feColorMatrix type="matrix" values="0 0 0 0 0.0734028 0 0 0 0 0.104306 0 0 0 0 0.116667 0 0 0 1 0"/>
<feBlend mode="normal" in2="BackgroundImageFix" result="effect1_dropShadow_1328_2713"/>
<feBlend mode="normal" in="SourceGraphic" in2="effect1_dropShadow_1328_2713" result="shape"/>
</filter>
</defs>
</svg>
