<svg width="11" height="11" viewBox="0 0 11 11" fill="none" xmlns="http://www.w3.org/2000/svg">
<path d="M4.42716 8.84966C5.41035 8.84969 6.36543 8.52165 7.1411 7.9175L10.0674 10.8438C10.2861 11.055 10.6344 11.0489 10.8455 10.8303C11.0515 10.6171 11.0515 10.279 10.8455 10.0658L7.91917 7.13942C9.41834 5.20959 9.06923 2.42985 7.1394 0.930682C5.20957 -0.568483 2.42985 -0.219379 0.930683 1.71045C-0.568483 3.64028 -0.219379 6.42002 1.71045 7.91919C2.48739 8.52275 3.44332 8.85016 4.42716 8.84966ZM2.07586 2.07417C3.37446 0.775544 5.4799 0.77552 6.77853 2.07412C8.07715 3.37272 8.07717 5.47816 6.77857 6.77678C5.47997 8.0754 3.37453 8.07543 2.07591 6.77683C2.07588 6.7768 2.07588 6.7768 2.07586 6.77678C0.77726 5.48764 0.769609 3.38988 2.05875 2.09128C2.06444 2.08556 2.07014 2.07986 2.07586 2.07417Z" fill="white"/>
</svg>
