<svg width="45" height="44" viewBox="0 0 45 44" fill="none" xmlns="http://www.w3.org/2000/svg">
<path d="M40.873 4.125H36.3453L33.7967 1.57635C33.7329 1.51251 33.6571 1.46187 33.5736 1.42732C33.4902 1.39278 33.4008 1.375 33.3105 1.375H14.0605C13.3315 1.37582 12.6325 1.66581 12.1169 2.18136C11.6014 2.69691 11.3114 3.39591 11.3105 4.125V13.75H12.6855V4.125C12.686 3.76046 12.831 3.41097 13.0888 3.15321C13.3465 2.89544 13.696 2.75043 14.0605 2.75H32.623V6.875C32.6239 7.60409 32.9139 8.30309 33.4294 8.81864C33.945 9.33419 34.644 9.62418 35.373 9.625H39.498V35.75C39.4976 36.1145 39.3526 36.464 39.0948 36.7218C38.8371 36.9796 38.4876 37.1246 38.123 37.125H25.748V38.5H38.123C38.8521 38.4992 39.5511 38.2092 40.0667 37.6936C40.5822 37.1781 40.8722 36.4791 40.873 35.75V8.9375C40.8731 8.84722 40.8553 8.75781 40.8207 8.6744C40.7862 8.59099 40.7355 8.51519 40.6717 8.45135L37.7203 5.5H40.873C41.2376 5.50043 41.5871 5.64544 41.8448 5.90321C42.1026 6.16097 42.2476 6.51046 42.248 6.875V38.5C42.2476 38.8645 42.1026 39.214 41.8448 39.4718C41.5871 39.7296 41.2376 39.8746 40.873 39.875H25.748V41.25H40.873C41.6021 41.2492 42.3011 40.9592 42.8167 40.4436C43.3322 39.9281 43.6222 39.2291 43.623 38.5V6.875C43.6222 6.14591 43.3322 5.44691 42.8167 4.93136C42.3011 4.41581 41.6021 4.12582 40.873 4.125ZM33.998 6.875V3.72221L38.5258 8.25H35.373C35.0085 8.24957 34.659 8.10456 34.4013 7.84679C34.1435 7.58903 33.9985 7.23954 33.998 6.875ZM12.6855 22V26.125H11.3105V22H12.6855ZM16.123 5.5H14.748V4.125H16.123V5.5ZM18.873 5.5H17.498V4.125H18.873V5.5ZM21.623 5.5H20.248V4.125H21.623V5.5ZM24.373 29.5625V40.5625C24.3724 41.1093 24.1549 41.6336 23.7683 42.0202C23.3816 42.4069 22.8574 42.6244 22.3105 42.625H4.43555C3.88873 42.6244 3.36448 42.4069 2.97782 42.0202C2.59116 41.6336 2.37366 41.1093 2.37305 40.5625V32.3125H3.74805V40.5625C3.74825 40.7448 3.82075 40.9195 3.94964 41.0484C4.07852 41.1773 4.25327 41.2498 4.43555 41.25H22.3105C22.4928 41.2498 22.6676 41.1773 22.7965 41.0484C22.9253 40.9195 22.9978 40.7448 22.998 40.5625V29.5625C22.9978 29.3802 22.9253 29.2055 22.7965 29.0766C22.6676 28.9477 22.4928 28.8752 22.3105 28.875H4.43555C4.25327 28.8752 4.07852 28.9477 3.94964 29.0766C3.82075 29.2055 3.74825 29.3802 3.74805 29.5625V30.9375H2.37305V29.5625C2.37366 29.0157 2.59116 28.4914 2.97782 28.1048C3.36448 27.7181 3.88873 27.5006 4.43555 27.5H16.8105V23.375C16.8105 22.4633 16.4484 21.589 15.8037 20.9443C15.1591 20.2997 14.2847 19.9375 13.373 19.9375C12.4614 19.9375 11.587 20.2997 10.9424 20.9443C10.2977 21.589 9.93555 22.4633 9.93555 23.375V25.4375C9.93555 25.6198 9.86311 25.7947 9.73418 25.9236C9.60525 26.0526 9.43038 26.125 9.24805 26.125H5.81055C5.62821 26.125 5.45334 26.0526 5.32441 25.9236C5.19548 25.7947 5.12305 25.6198 5.12305 25.4375V23.375C5.11855 22.2507 5.34601 21.1376 5.79123 20.1052C6.23644 19.0729 6.88982 18.1434 7.71054 17.375L8.65456 18.3749C7.97056 19.0152 7.426 19.7898 7.05495 20.6501C6.68389 21.5104 6.4943 22.4381 6.49805 23.375V24.75H8.56055V23.375C8.56055 22.0986 9.06758 20.8746 9.9701 19.972C10.8726 19.0695 12.0967 18.5625 13.373 18.5625C14.6494 18.5625 15.8735 19.0695 16.776 19.972C17.6785 20.8746 18.1855 22.0986 18.1855 23.375V27.5H20.248V23.375C20.2478 22.1372 19.9135 20.9224 19.2803 19.8589C18.6471 18.7953 17.7386 17.9223 16.6506 17.3321C15.5626 16.7419 14.3355 16.4563 13.0986 16.5055C11.8618 16.5546 10.6612 16.9367 9.62351 17.6114L8.87259 16.4599C10.1178 15.6499 11.5585 15.191 13.0428 15.1318C14.527 15.0726 15.9998 15.4151 17.3055 16.1233C18.6113 16.8315 19.7017 17.879 20.4616 19.1554C21.2215 20.4317 21.6228 21.8896 21.623 23.375V27.5H22.3105C22.8574 27.5006 23.3816 27.7181 23.7683 28.1048C24.1549 28.4914 24.3724 29.0157 24.373 29.5625ZM14.0605 37.8125V36.3192C14.5193 36.1571 14.9059 35.838 15.152 35.4183C15.3982 34.9986 15.4881 34.5055 15.4058 34.0259C15.3236 33.5464 15.0744 33.1114 14.7024 32.7978C14.3305 32.4842 13.8596 32.3122 13.373 32.3122C12.8865 32.3122 12.4156 32.4842 12.0437 32.7978C11.6717 33.1114 11.4225 33.5464 11.3403 34.0259C11.258 34.5055 11.3479 34.9986 11.5941 35.4183C11.8402 35.838 12.2268 36.1571 12.6855 36.3192V37.8125H14.0605ZM13.373 33.6875C13.509 33.6875 13.6419 33.7278 13.755 33.8034C13.8681 33.8789 13.9562 33.9863 14.0082 34.1119C14.0602 34.2375 14.0739 34.3758 14.0473 34.5091C14.0208 34.6425 13.9553 34.765 13.8592 34.8611C13.763 34.9573 13.6405 35.0228 13.5072 35.0493C13.3738 35.0758 13.2356 35.0622 13.11 35.0102C12.9843 34.9581 12.877 34.87 12.8014 34.757C12.7259 34.6439 12.6855 34.511 12.6855 34.375C12.6858 34.1927 12.7583 34.018 12.8871 33.8891C13.016 33.7602 13.1908 33.6877 13.373 33.6875ZM14.748 11C14.748 11.547 14.9653 12.0716 15.3521 12.4584C15.7389 12.8452 16.2635 13.0625 16.8105 13.0625C17.3576 13.0625 17.8822 12.8452 18.269 12.4584C18.6557 12.0716 18.873 11.547 18.873 11V9.625C18.873 9.07799 18.6557 8.55339 18.269 8.16659C17.8822 7.7798 17.3576 7.5625 16.8105 7.5625C16.2635 7.5625 15.7389 7.7798 15.3521 8.16659C14.9653 8.55339 14.748 9.07799 14.748 9.625V11ZM16.123 9.625C16.123 9.44266 16.1955 9.2678 16.3244 9.13886C16.4533 9.00993 16.6282 8.9375 16.8105 8.9375C16.9929 8.9375 17.1678 9.00993 17.2967 9.13886C17.4256 9.2678 17.498 9.44266 17.498 9.625V11C17.498 11.1823 17.4256 11.3572 17.2967 11.4861C17.1678 11.6151 16.9929 11.6875 16.8105 11.6875C16.6282 11.6875 16.4533 11.6151 16.3244 11.4861C16.1955 11.3572 16.123 11.1823 16.123 11V9.625ZM20.248 7.5625H21.623V13.0625H20.248V7.5625ZM25.0605 7.5625C24.5137 7.56311 23.9895 7.78061 23.6028 8.16727C23.2162 8.55393 22.9987 9.07818 22.998 9.625V11C22.998 11.547 23.2153 12.0716 23.6021 12.4584C23.9889 12.8452 24.5135 13.0625 25.0605 13.0625C25.6076 13.0625 26.1322 12.8452 26.519 12.4584C26.9057 12.0716 27.123 11.547 27.123 11V9.625C27.1224 9.07818 26.9049 8.55393 26.5183 8.16727C26.1316 7.78061 25.6074 7.56311 25.0605 7.5625ZM25.748 11C25.748 11.1823 25.6756 11.3572 25.5467 11.4861C25.4178 11.6151 25.2429 11.6875 25.0605 11.6875C24.8782 11.6875 24.7033 11.6151 24.5744 11.4861C24.4455 11.3572 24.373 11.1823 24.373 11V9.625C24.373 9.44266 24.4455 9.2678 24.5744 9.13886C24.7033 9.00993 24.8782 8.9375 25.0605 8.9375C25.2429 8.9375 25.4178 9.00993 25.5467 9.13886C25.6756 9.2678 25.748 9.44266 25.748 9.625V11ZM30.5605 7.5625C30.0137 7.56311 29.4895 7.78061 29.1028 8.16727C28.7162 8.55393 28.4987 9.07818 28.498 9.625V11C28.498 11.547 28.7153 12.0716 29.1021 12.4584C29.4889 12.8452 30.0135 13.0625 30.5605 13.0625C31.1076 13.0625 31.6322 12.8452 32.019 12.4584C32.4057 12.0716 32.623 11.547 32.623 11V9.625C32.6224 9.07818 32.4049 8.55393 32.0183 8.16727C31.6316 7.78061 31.1074 7.56311 30.5605 7.5625ZM31.248 11C31.248 11.1823 31.1756 11.3572 31.0467 11.4861C30.9178 11.6151 30.7429 11.6875 30.5605 11.6875C30.3782 11.6875 30.2033 11.6151 30.0744 11.4861C29.9455 11.3572 29.873 11.1823 29.873 11V9.625C29.873 9.44266 29.9455 9.2678 30.0744 9.13886C30.2033 9.00993 30.3782 8.9375 30.5605 8.9375C30.7429 8.9375 30.9178 9.00993 31.0467 9.13886C31.1756 9.2678 31.248 9.44266 31.248 9.625V11ZM22.3105 16.5V17.875C22.3105 18.422 22.5278 18.9466 22.9146 19.3334C23.3014 19.7202 23.826 19.9375 24.373 19.9375C24.9201 19.9375 25.4447 19.7202 25.8315 19.3334C26.2182 18.9466 26.4355 18.422 26.4355 17.875V16.5C26.4355 15.953 26.2182 15.4284 25.8315 15.0416C25.4447 14.6548 24.9201 14.4375 24.373 14.4375C23.826 14.4375 23.3014 14.6548 22.9146 15.0416C22.5278 15.4284 22.3105 15.953 22.3105 16.5ZM23.6855 16.5C23.6855 16.3177 23.758 16.1428 23.8869 16.0139C24.0158 15.8849 24.1907 15.8125 24.373 15.8125C24.5554 15.8125 24.7303 15.8849 24.8592 16.0139C24.9881 16.1428 25.0605 16.3177 25.0605 16.5V17.875C25.0605 18.0573 24.9881 18.2322 24.8592 18.3611C24.7303 18.4901 24.5554 18.5625 24.373 18.5625C24.1907 18.5625 24.0158 18.4901 23.8869 18.3611C23.758 18.2322 23.6855 18.0573 23.6855 17.875V16.5ZM27.8105 14.4375H29.1855V19.9375H27.8105V14.4375ZM32.623 14.4375C32.0762 14.4381 31.552 14.6556 31.1653 15.0423C30.7787 15.4289 30.5612 15.9532 30.5605 16.5V17.875C30.5605 18.422 30.7778 18.9466 31.1646 19.3334C31.5514 19.7202 32.076 19.9375 32.623 19.9375C33.1701 19.9375 33.6947 19.7202 34.0815 19.3334C34.4682 18.9466 34.6855 18.422 34.6855 17.875V16.5C34.6849 15.9532 34.4674 15.4289 34.0808 15.0423C33.6941 14.6556 33.1699 14.4381 32.623 14.4375ZM33.3105 17.875C33.3105 18.0573 33.2381 18.2322 33.1092 18.3611C32.9803 18.4901 32.8054 18.5625 32.623 18.5625C32.4407 18.5625 32.2658 18.4901 32.1369 18.3611C32.008 18.2322 31.9355 18.0573 31.9355 17.875V16.5C31.9355 16.3177 32.008 16.1428 32.1369 16.0139C32.2658 15.8849 32.4407 15.8125 32.623 15.8125C32.8054 15.8125 32.9803 15.8849 33.1092 16.0139C33.2381 16.1428 33.3105 16.3177 33.3105 16.5V17.875ZM37.4355 14.4375V19.9375H36.0605V14.4375H37.4355ZM23.6855 21.3125H25.0605V26.8125H23.6855V21.3125ZM26.4355 23.375V24.75C26.4355 25.297 26.6528 25.8216 27.0396 26.2084C27.4264 26.5952 27.951 26.8125 28.498 26.8125C29.0451 26.8125 29.5697 26.5952 29.9565 26.2084C30.3432 25.8216 30.5605 25.297 30.5605 24.75V23.375C30.5605 22.828 30.3432 22.3034 29.9565 21.9166C29.5697 21.5298 29.0451 21.3125 28.498 21.3125C27.951 21.3125 27.4264 21.5298 27.0396 21.9166C26.6528 22.3034 26.4355 22.828 26.4355 23.375ZM27.8105 23.375C27.8105 23.1927 27.883 23.0178 28.0119 22.8889C28.1408 22.7599 28.3157 22.6875 28.498 22.6875C28.6804 22.6875 28.8553 22.7599 28.9842 22.8889C29.1131 23.0178 29.1855 23.1927 29.1855 23.375V24.75C29.1855 24.9323 29.1131 25.1072 28.9842 25.2361C28.8553 25.3651 28.6804 25.4375 28.498 25.4375C28.3157 25.4375 28.1408 25.3651 28.0119 25.2361C27.883 25.1072 27.8105 24.9323 27.8105 24.75V23.375ZM36.0605 23.375C36.0605 22.828 35.8432 22.3034 35.4565 21.9166C35.0697 21.5298 34.5451 21.3125 33.998 21.3125C33.451 21.3125 32.9264 21.5298 32.5396 21.9166C32.1528 22.3034 31.9355 22.828 31.9355 23.375V24.75C31.9355 25.297 32.1528 25.8216 32.5396 26.2084C32.9264 26.5952 33.451 26.8125 33.998 26.8125C34.5451 26.8125 35.0697 26.5952 35.4565 26.2084C35.8432 25.8216 36.0605 25.297 36.0605 24.75V23.375ZM34.6855 24.75C34.6855 24.9323 34.6131 25.1072 34.4842 25.2361C34.3553 25.3651 34.1804 25.4375 33.998 25.4375C33.8157 25.4375 33.6408 25.3651 33.5119 25.2361C33.383 25.1072 33.3105 24.9323 33.3105 24.75V23.375C33.3105 23.1927 33.383 23.0178 33.5119 22.8889C33.6408 22.7599 33.8157 22.6875 33.998 22.6875C34.1804 22.6875 34.3553 22.7599 34.4842 22.8889C34.6131 23.0178 34.6855 23.1927 34.6855 23.375V24.75ZM26.4355 28.875H27.8105V34.375H26.4355V28.875ZM34.6855 28.875H36.0605V34.375H34.6855V28.875ZM29.1855 30.9375V32.3125C29.1855 32.8595 29.4028 33.3841 29.7896 33.7709C30.1764 34.1577 30.701 34.375 31.248 34.375C31.7951 34.375 32.3197 34.1577 32.7065 33.7709C33.0932 33.3841 33.3105 32.8595 33.3105 32.3125V30.9375C33.3105 30.3905 33.0932 29.8659 32.7065 29.4791C32.3197 29.0923 31.7951 28.875 31.248 28.875C30.701 28.875 30.1764 29.0923 29.7896 29.4791C29.4028 29.8659 29.1855 30.3905 29.1855 30.9375ZM31.9355 30.9375V32.3125C31.9355 32.4948 31.8631 32.6697 31.7342 32.7986C31.6053 32.9276 31.4304 33 31.248 33C31.0657 33 30.8908 32.9276 30.7619 32.7986C30.633 32.6697 30.5605 32.4948 30.5605 32.3125V30.9375C30.5605 30.7552 30.633 30.5803 30.7619 30.4514C30.8908 30.3224 31.0657 30.25 31.248 30.25C31.4304 30.25 31.6053 30.3224 31.7342 30.4514C31.8631 30.5803 31.9355 30.7552 31.9355 30.9375Z" fill="#0AA880"/>
</svg>
