<svg width="11" height="11" viewBox="0 0 11 11" fill="none" xmlns="http://www.w3.org/2000/svg">
<path d="M10.78 1.1L10.54 2.96C9.95333 2.92 9.5 3.02667 9.18 3.28C8.86 3.53333 8.64667 3.88667 8.54 4.34C8.43333 4.79333 8.41333 5.30667 8.48 5.88H10.78V10.7H6.36V5.48C6.36 3.90666 6.73333 2.72 7.48 1.92C8.24 1.10667 9.34 0.833333 10.78 1.1ZM4.62 1.1L4.38 2.96C3.79333 2.92 3.34 3.02667 3.02 3.28C2.7 3.53333 2.48667 3.88667 2.38 4.34C2.27333 4.79333 2.25333 5.30667 2.32 5.88H4.62V10.7H0.2V5.48C0.2 3.90666 0.573334 2.72 1.32 1.92C2.08 1.10667 3.18 0.833333 4.62 1.1Z" fill="#0AA880"/>
</svg>
