<svg width="25" height="25" viewBox="0 0 25 25" fill="none" xmlns="http://www.w3.org/2000/svg">
<path d="M10.1546 4.05469L9.57015 4.12504C9.57015 4.12504 6.94775 4.41167 5.03259 5.94964H5.01014L4.98619 5.97209C4.55661 6.36725 4.36951 6.85296 4.07389 7.56319C3.72542 8.41769 3.42877 9.29241 3.18554 10.1826C2.63022 12.1906 2.17969 14.6229 2.17969 16.8479V17.035L2.27324 17.2221C2.96626 18.4382 4.19663 19.2128 5.33719 19.7479C6.47701 20.283 7.46265 20.5667 8.1437 20.5899L8.58824 20.6131L8.82175 20.2157L9.6405 18.7653C10.5086 18.9613 11.5085 19.0931 12.6573 19.0931C13.8061 19.0931 14.806 18.9613 15.6741 18.7653L16.4929 20.2157L16.7271 20.6131L17.1709 20.5899C17.852 20.5667 18.8376 20.283 19.9774 19.7479C21.118 19.2128 22.3483 18.4382 23.0414 17.2221L23.1349 17.035V16.8479C23.1349 14.6229 22.6844 12.1906 22.1291 10.1826C21.8858 9.29241 21.5892 8.41769 21.2407 7.56319C20.9451 6.85221 20.758 6.36725 20.3284 5.97284L20.3052 5.94889H20.2813C18.3676 4.41167 15.7445 4.12504 15.7445 4.12504L15.16 4.05469L14.9489 4.59279C14.9489 4.59279 14.7326 5.13912 14.5987 5.76254C13.9553 5.67377 13.3068 5.62677 12.6573 5.62184C12.2569 5.62184 11.5646 5.64803 10.7159 5.76254C10.6274 5.36464 10.5101 4.97369 10.3649 4.59279L10.1546 4.05469ZM9.1256 5.76254C9.15778 5.86731 9.18996 5.95787 9.21915 6.04319C8.25146 6.28268 7.21942 6.6479 6.27269 7.23539L7.06749 8.49869C9.00885 7.29377 11.7974 7.11864 12.6573 7.11864C13.5165 7.11864 16.3058 7.29377 18.2471 8.49869L19.0419 7.23539C18.0952 6.6479 17.0631 6.28268 16.0955 6.04244C16.1246 5.95787 16.1568 5.86731 16.189 5.76179C16.8873 5.90249 18.2209 6.2243 19.3226 7.09544C19.3166 7.09843 19.6032 7.53101 19.8607 8.14769C20.1241 8.78234 20.416 9.62728 20.6794 10.58C21.1853 12.4068 21.5827 14.6318 21.6149 16.5904C21.1434 17.3096 20.27 17.9585 19.3458 18.3918C18.7661 18.6657 18.1529 18.862 17.5219 18.9756L17.1477 18.3447C17.37 18.2623 17.5893 18.1725 17.7794 18.0872C18.9311 17.5813 19.5568 17.035 19.5568 17.035L18.5742 15.9124C18.5742 15.9124 18.1536 16.2985 17.1709 16.7311C16.1898 17.1637 14.6892 17.5963 12.6573 17.5963C10.6254 17.5963 9.1256 17.1637 8.1437 16.7311C7.16104 16.2985 6.74044 15.9124 6.74044 15.9124L5.75779 17.035C5.75779 17.035 6.38346 17.5813 7.53524 18.0872C7.72534 18.1725 7.94462 18.2631 8.1669 18.3447L7.7927 18.9763C7.1614 18.8623 6.5479 18.6655 5.96809 18.3911C5.04457 17.9585 4.17043 17.3096 3.70044 16.5904C3.73187 14.6318 4.12927 12.4068 4.63594 10.58C4.85982 9.75363 5.13298 8.94141 5.45394 8.14769C5.71139 7.53101 5.99803 7.09843 5.99204 7.09544C7.09369 6.2243 8.42734 5.90249 9.1256 5.76254ZM10.0379 10.8606C9.45938 10.8606 8.94748 11.1907 8.63465 11.609C8.32181 12.0274 8.1669 12.5416 8.1669 13.1058C8.1669 13.6701 8.32181 14.1843 8.63465 14.6026C8.94748 15.021 9.45938 15.3511 10.0379 15.3511C10.6164 15.3511 11.1283 15.021 11.4411 14.6026C11.754 14.1843 11.9089 13.6701 11.9089 13.1058C11.9089 12.5416 11.754 12.0274 11.4411 11.609C11.1283 11.1907 10.6164 10.8606 10.0379 10.8606ZM15.2767 10.8606C14.6982 10.8606 14.1863 11.1907 13.8735 11.609C13.5606 12.0274 13.4057 12.5416 13.4057 13.1058C13.4057 13.6701 13.5606 14.1843 13.8735 14.6026C14.1863 15.021 14.6982 15.3511 15.2767 15.3511C15.8552 15.3511 16.3671 15.021 16.68 14.6026C16.9928 14.1843 17.1477 13.6701 17.1477 13.1058C17.1477 12.5416 16.9928 12.0274 16.68 11.609C16.3671 11.1907 15.8552 10.8606 15.2767 10.8606ZM10.0379 12.3574C10.0791 12.3574 10.1314 12.3724 10.225 12.4981C10.3185 12.6231 10.4121 12.8424 10.4121 13.1058C10.4121 13.3693 10.3185 13.5886 10.225 13.7143C10.1314 13.8393 10.0791 13.8542 10.0379 13.8542C9.99674 13.8542 9.94435 13.8393 9.8508 13.7135C9.72703 13.5352 9.66166 13.3229 9.6637 13.1058C9.6637 12.8424 9.75725 12.6231 9.8508 12.4974C9.94435 12.3724 9.99674 12.3574 10.0379 12.3574ZM15.2767 12.3574C15.3179 12.3574 15.3703 12.3724 15.4638 12.4981C15.5574 12.6231 15.6509 12.8424 15.6509 13.1058C15.6509 13.3693 15.5574 13.5886 15.4638 13.7143C15.3703 13.8393 15.3179 13.8542 15.2767 13.8542C15.2355 13.8542 15.1832 13.8393 15.0896 13.7135C14.9658 13.5352 14.9005 13.3229 14.9025 13.1058C14.9025 12.8424 14.9961 12.6231 15.0896 12.4974C15.1832 12.3724 15.2355 12.3574 15.2767 12.3574Z" fill="white" stroke="url(#paint0_linear_294_3069)" stroke-width="0.4"/>
<defs>
<linearGradient id="paint0_linear_294_3069" x1="1.88033" y1="4.04757" x2="17.7852" y2="22.9362" gradientUnits="userSpaceOnUse">
<stop stop-color="#2D3941"/>
<stop offset="1" stop-color="#13181D"/>
</linearGradient>
</defs>
</svg>
