<svg width="22" height="22" viewBox="0 0 22 22" fill="none" xmlns="http://www.w3.org/2000/svg">
<path fill-rule="evenodd" clip-rule="evenodd" d="M14.2477 4.17001H7.46217C5.58841 4.17001 4.06942 5.68899 4.06942 7.56276V14.3483C4.06942 16.222 5.58841 17.741 7.46217 17.741H14.2477C16.1214 17.741 17.6404 16.222 17.6404 14.3483V7.56276C17.6404 5.68899 16.1214 4.17001 14.2477 4.17001ZM7.46217 2.47363C4.65153 2.47363 2.37305 4.75211 2.37305 7.56276V14.3483C2.37305 17.1589 4.65153 19.4374 7.46217 19.4374H14.2477C17.0583 19.4374 19.3368 17.1589 19.3368 14.3483V7.56276C19.3368 4.75211 17.0583 2.47363 14.2477 2.47363H7.46217Z" fill="white" stroke="url(#paint0_linear_294_3063)" stroke-width="0.4"/>
<path d="M15.0943 7.56259C15.5627 7.56259 15.9425 7.18284 15.9425 6.7144C15.9425 6.24596 15.5627 5.86621 15.0943 5.86621C14.6258 5.86621 14.2461 6.24596 14.2461 6.7144C14.2461 7.18284 14.6258 7.56259 15.0943 7.56259Z" fill="white" stroke="url(#paint1_linear_294_3063)" stroke-width="0.4"/>
<path fill-rule="evenodd" clip-rule="evenodd" d="M15.0952 10.9558C15.0952 13.298 13.1964 15.1967 10.8542 15.1967C8.51202 15.1967 6.61328 13.298 6.61328 10.9558C6.61328 8.61358 8.51202 6.71484 10.8542 6.71484C13.1964 6.71484 15.0952 8.61358 15.0952 10.9558ZM13.3988 10.9558C13.3988 12.3611 12.2596 13.5003 10.8542 13.5003C9.44886 13.5003 8.30966 12.3611 8.30966 10.9558C8.30966 9.55042 9.44886 8.41122 10.8542 8.41122C12.2596 8.41122 13.3988 9.55042 13.3988 10.9558Z" fill="white" stroke="url(#paint2_linear_294_3063)" stroke-width="0.4"/>
<defs>
<linearGradient id="paint0_linear_294_3063" x1="2.13071" y1="2.46634" x2="18.6331" y2="17.9524" gradientUnits="userSpaceOnUse">
<stop stop-color="#2D3941"/>
<stop offset="1" stop-color="#13181D"/>
</linearGradient>
<linearGradient id="paint1_linear_294_3063" x1="14.2219" y1="5.86548" x2="15.8721" y2="7.41408" gradientUnits="userSpaceOnUse">
<stop stop-color="#2D3941"/>
<stop offset="1" stop-color="#13181D"/>
</linearGradient>
<linearGradient id="paint2_linear_294_3063" x1="6.49211" y1="6.7112" x2="14.7433" y2="14.4542" gradientUnits="userSpaceOnUse">
<stop stop-color="#2D3941"/>
<stop offset="1" stop-color="#13181D"/>
</linearGradient>
</defs>
</svg>
