<svg width="26" height="23" viewBox="0 0 26 23" fill="none" xmlns="http://www.w3.org/2000/svg">
<path d="M23.8867 0.625H9.38672C8.90601 0.625 8.445 0.815959 8.10509 1.15587C7.76518 1.49578 7.57422 1.9568 7.57422 2.4375C7.57422 2.91821 7.76518 3.37922 8.10509 3.71913C8.445 4.05904 8.90601 4.25 9.38672 4.25H23.8867C24.3674 4.25 24.8284 4.05904 25.1684 3.71913C25.5083 3.37922 25.6992 2.91821 25.6992 2.4375C25.6992 1.9568 25.5083 1.49578 25.1684 1.15587C24.8284 0.815959 24.3674 0.625 23.8867 0.625Z" fill="white"/>
<path d="M2.13672 4.25C3.13774 4.25 3.94922 3.43852 3.94922 2.4375C3.94922 1.43648 3.13774 0.625 2.13672 0.625C1.1357 0.625 0.324219 1.43648 0.324219 2.4375C0.324219 3.43852 1.1357 4.25 2.13672 4.25Z" fill="white"/>
<path d="M23.8867 9.6875H9.38672C8.90601 9.6875 8.445 9.87846 8.10509 10.2184C7.76518 10.5583 7.57422 11.0193 7.57422 11.5C7.57422 11.9807 7.76518 12.4417 8.10509 12.7816C8.445 13.1215 8.90601 13.3125 9.38672 13.3125H23.8867C24.3674 13.3125 24.8284 13.1215 25.1684 12.7816C25.5083 12.4417 25.6992 11.9807 25.6992 11.5C25.6992 11.0193 25.5083 10.5583 25.1684 10.2184C24.8284 9.87846 24.3674 9.6875 23.8867 9.6875Z" fill="white"/>
<path d="M2.13672 13.3125C3.13774 13.3125 3.94922 12.501 3.94922 11.5C3.94922 10.499 3.13774 9.6875 2.13672 9.6875C1.1357 9.6875 0.324219 10.499 0.324219 11.5C0.324219 12.501 1.1357 13.3125 2.13672 13.3125Z" fill="white"/>
<path d="M23.8867 18.75H9.38672C8.90601 18.75 8.445 18.941 8.10509 19.2809C7.76518 19.6208 7.57422 20.0818 7.57422 20.5625C7.57422 21.0432 7.76518 21.5042 8.10509 21.8441C8.445 22.184 8.90601 22.375 9.38672 22.375H23.8867C24.3674 22.375 24.8284 22.184 25.1684 21.8441C25.5083 21.5042 25.6992 21.0432 25.6992 20.5625C25.6992 20.0818 25.5083 19.6208 25.1684 19.2809C24.8284 18.941 24.3674 18.75 23.8867 18.75Z" fill="white"/>
<path d="M2.13672 22.375C3.13774 22.375 3.94922 21.5635 3.94922 20.5625C3.94922 19.5615 3.13774 18.75 2.13672 18.75C1.1357 18.75 0.324219 19.5615 0.324219 20.5625C0.324219 21.5635 1.1357 22.375 2.13672 22.375Z" fill="white"/>
</svg>
