<svg width="15" height="15" viewBox="0 0 15 15" fill="none" xmlns="http://www.w3.org/2000/svg">
<g clip-path="url(#clip0_282_17159)">
<path d="M0.73256 15.0001C0.58768 15.0001 0.446047 14.9572 0.325576 14.8767C0.205105 14.7962 0.111207 14.6818 0.0557604 14.548C0.000313746 14.4141 -0.0141909 14.2668 0.0140811 14.1248C0.0423531 13.9827 0.112132 13.8521 0.21459 13.7497L13.7498 0.21455C13.8871 0.0771759 14.0735 0 14.2677 0C14.462 0 14.6483 0.0771759 14.7857 0.21455C14.9231 0.351924 15.0003 0.538243 15.0003 0.732519C15.0003 0.926795 14.9231 1.11311 14.7857 1.25049L1.25053 14.7856C1.18257 14.8537 1.10183 14.9077 1.01294 14.9445C0.924051 14.9814 0.828766 15.0002 0.73256 15.0001Z" fill="white"/>
<path d="M14.2677 15.0001C14.1715 15.0002 14.0762 14.9814 13.9873 14.9445C13.8984 14.9077 13.8177 14.8537 13.7497 14.7856L0.21455 1.25049C0.0771759 1.11311 0 0.926795 0 0.732519C0 0.538243 0.0771759 0.351924 0.21455 0.21455C0.351924 0.0771759 0.538243 0 0.732519 0C0.926795 0 1.11311 0.0771759 1.25049 0.21455L14.7856 13.7497C14.8881 13.8521 14.9579 13.9827 14.9862 14.1248C15.0144 14.2668 14.9999 14.4141 14.9445 14.548C14.889 14.6818 14.7951 14.7962 14.6747 14.8767C14.5542 14.9572 14.4126 15.0001 14.2677 15.0001Z" fill="white"/>
</g>
<defs>
<clipPath id="clip0_282_17159">
<rect width="15" height="15" fill="white"/>
</clipPath>
</defs>
</svg>
