<svg width="20" height="20" viewBox="0 0 20 20" fill="none" xmlns="http://www.w3.org/2000/svg">
<path d="M10 16.4636C13.7434 16.4636 17.3275 13.7096 19.6934 10.8504C20.1022 10.3563 20.1022 9.63898 19.6934 9.14487C19.0985 8.42599 17.852 7.03908 16.1868 5.82698C11.9927 2.77416 8.01548 2.76827 3.81325 5.82698C1.85699 7.25092 0.306694 9.11816 0.306694 9.14487C-0.102161 9.63898 -0.102161 10.3563 0.306694 10.8504C2.6722 13.7092 6.25585 16.4636 10 16.4636ZM10 4.76329C14.1469 4.76329 17.7416 8.71796 18.7445 9.93002C18.7769 9.9692 18.7769 10.0261 18.7445 10.0653C17.7415 11.2773 14.1469 15.232 10 15.232C5.85319 15.232 2.25849 11.2773 1.25558 10.0653C1.19711 9.99457 1.25942 9.93002 1.25558 9.93002C2.25853 8.71796 5.85319 4.76329 10 4.76329Z" fill="white"/>
<path d="M9.99991 14.3088C12.3768 14.3088 14.3105 12.3751 14.3105 9.99815C14.3105 7.62125 12.3768 5.6875 9.99991 5.6875C7.62302 5.6875 5.68927 7.62125 5.68927 9.99815C5.68927 12.3751 7.62302 14.3088 9.99991 14.3088ZM9.99991 6.91911C11.6977 6.91911 13.0789 8.30037 13.0789 9.99815C13.0789 11.6959 11.6977 13.0772 9.99991 13.0772C8.30213 13.0772 6.92088 11.6959 6.92088 9.99815C6.92088 8.30037 8.30213 6.91911 9.99991 6.91911Z" fill="white"/>
</svg>
