<svg width="18" height="18" viewBox="0 0 18 18" fill="none" xmlns="http://www.w3.org/2000/svg">
<path d="M16.9207 7.92052L9.92057 7.94169V1.07928C9.92057 0.481349 9.43922 0 8.84128 0C8.24354 0 7.762 0.481349 7.762 1.07928L7.78316 7.92072H1.07928C0.481349 7.92072 0 8.40207 0 9C0 9.59774 0.481349 10.0791 1.07928 10.0791H7.77258V16.9207C7.77258 17.5183 8.25393 18 8.85186 18C9.4498 18 9.93115 17.5183 9.93115 16.9207V10.0793H16.9207C17.5187 10.0793 18 9.59755 18 9C18 8.40187 17.5133 7.92052 16.9207 7.92052Z" fill="#2DB18D"/>
</svg>
