<svg width="1381" height="938" viewBox="0 0 1381 938" fill="none" xmlns="http://www.w3.org/2000/svg">
<path d="M148.999 843C179.833 822.445 185.083 770.53 210.87 733.905C214.6 699.183 220.423 670.75 230.999 657C267.528 609.513 392.454 608.727 543.33 607.426C579.978 590.361 646.206 566.889 684.999 499C700.817 471.32 764.629 437.342 843.946 399.929C852.848 388.551 861.064 374.574 868.999 355C890.526 301.901 1052.1 215.85 1224.41 192.165C1236.53 178.924 1244.43 165.836 1247 153C1271 33.0001 1177 55.0001 1297 15.0001C1417 -24.9999 1465 35.0001 1469 63.0001C1473 91.0001 1649 255 1425 199C1361.73 183.183 1292.24 182.843 1224.41 192.165C1160.57 261.923 979.584 335.949 843.946 399.929C819.193 431.563 789.128 443.104 744.999 499C684.999 575 756.999 605 586.999 607C572.244 607.174 557.67 607.302 543.33 607.426C534.634 611.475 527.603 615.164 522.999 619C498.999 639 378.999 687 280.999 695C245.95 697.861 225.227 713.513 210.87 733.905C200.493 830.496 206.307 975.76 170.999 989C122.999 1007 -7.00059 1079 2.99941 1007C10.9994 949.4 103.666 873.667 148.999 843Z" fill="white" stroke="black" stroke-width="3"/>
</svg>
