<svg width="16" height="10" viewBox="0 0 16 10" fill="none" xmlns="http://www.w3.org/2000/svg">
<path d="M8.00582 10C12.786 10 16 6.18003 16 4.99711C16 3.8142 12.7744 0 8.00582 0C3.29549 0 0 3.8142 0 4.99711C0 6.18003 3.28384 10 8.00582 10ZM8.00582 8.86901C4.29112 8.86901 1.3508 5.80496 1.3508 4.99711C1.3508 4.32199 4.29112 1.13099 8.00582 1.13099C11.7031 1.13099 14.6492 4.32199 14.6492 4.99711C14.6492 5.80496 11.7031 8.86901 8.00582 8.86901ZM8.00582 8.09579C9.7409 8.09579 11.1325 6.68205 11.1325 4.99711C11.1325 3.27178 9.7409 1.90421 8.00582 1.90421C6.2591 1.90421 4.86172 3.27178 4.86754 4.99711C4.87918 6.68205 6.2591 8.09579 8.00582 8.09579ZM8 5.99538C7.44105 5.99538 6.9869 5.5453 6.9869 4.99711C6.9869 4.44893 7.44105 3.99885 8 3.99885C8.55895 3.99885 9.0131 4.44893 9.0131 4.99711C9.0131 5.5453 8.55895 5.99538 8 5.99538Z" fill="#374A5E"/>
</svg>
