<svg width="250" height="142" viewBox="0 0 250 142" fill="none" xmlns="http://www.w3.org/2000/svg">
<g opacity="0.8" clip-path="url(#clip0)">
<path d="M213.306 89.8422C213.532 89.7864 213.743 89.6817 213.924 89.5355C214.105 89.3892 214.252 89.2049 214.355 88.9956C214.457 88.7863 214.512 88.557 214.517 88.3239C214.521 88.0908 214.474 87.8596 214.38 87.6465L218.509 83.7758L215.652 83.0876L212.169 86.8689C211.823 87.0516 211.555 87.3554 211.417 87.7227C211.279 88.0899 211.28 88.4952 211.42 88.8617C211.561 89.2282 211.83 89.5305 212.178 89.7112C212.525 89.8919 212.927 89.9385 213.306 89.8422Z" fill="#FFB6B6"/>
<path d="M215.439 86.7242L213.514 84.0028L220.747 76.5042L222.426 64.6844C222.509 64.1002 222.719 63.5414 223.042 63.0478C223.365 62.5542 223.792 62.1379 224.293 61.8283C224.794 61.5188 225.358 61.3237 225.942 61.2568C226.527 61.19 227.12 61.253 227.678 61.4415C228.685 61.7831 229.516 62.5112 229.989 63.4662C230.461 64.4211 230.536 65.5249 230.197 66.5354L225.913 79.2785L215.439 86.7242Z" fill="#E4E4E4"/>
<path d="M229.02 137.087H226.882L225.865 128.822L229.02 128.822L229.02 137.087Z" fill="#FFB6B6"/>
<path d="M230.17 141.155H228.653L228.382 139.72L227.689 141.155H223.666C223.473 141.155 223.285 141.094 223.13 140.979C222.975 140.865 222.86 140.703 222.803 140.519C222.745 140.334 222.748 140.136 222.811 139.953C222.874 139.771 222.993 139.613 223.152 139.503L226.365 137.279V135.828L229.744 136.03L230.17 141.155Z" fill="#2F2E41"/>
<path d="M242.208 134.907L240.33 135.931L235.496 129.159L238.267 127.647L242.208 134.907Z" fill="#FFB6B6"/>
<path d="M245.158 137.929L243.826 138.656L242.903 137.525L242.979 139.118L239.445 141.045C239.276 141.138 239.081 141.173 238.89 141.147C238.699 141.121 238.521 141.034 238.383 140.9C238.245 140.765 238.153 140.59 238.121 140.399C238.089 140.208 238.119 140.013 238.206 139.84L239.967 136.347L239.275 135.073L242.34 133.631L245.158 137.929Z" fill="#2F2E41"/>
<path d="M229.92 134.144H225.503V118.376L222.768 108.096C220.805 100.744 220.284 93.0805 221.232 85.5298L221.236 85.4989L221.26 85.4789C221.33 85.4197 228.329 79.6183 232.757 84.0563C235.741 87.0478 232.937 97.8044 232.78 98.3948V116.938L229.92 134.144Z" fill="#2F2E41"/>
<path d="M229.91 59.7945L229.886 59.7711L224.254 59.857L221.246 66.9322C218.462 71.2664 221.124 73.7315 221.311 74.122L220.779 79.4401L220.436 82.8709L219.886 88.3947L232.795 84.1673L231.359 78.4014L233.018 70.0846C233.387 68.2454 233.296 66.3435 232.753 64.5482C232.211 62.7528 231.234 61.1198 229.91 59.7945Z" fill="#E4E4E4"/>
<path d="M227.285 118.457L236.36 131.252L239.841 128.771L232.262 113.159L227.285 118.457Z" fill="#2F2E41"/>
<path d="M226.544 58.4195C229.416 58.4195 231.744 56.0858 231.744 53.2071C231.744 50.3283 229.416 47.9946 226.544 47.9946C223.672 47.9946 221.344 50.3283 221.344 53.2071C221.344 56.0858 223.672 58.4195 226.544 58.4195Z" fill="#FFB6B6"/>
<path opacity="0.1" d="M231.559 73.3723L225.887 79.932L220.436 82.8709L220.779 79.4401L223.989 77.6335L231.559 73.3723Z" fill="black"/>
<path d="M222.901 62.9754L222.414 60.8323C222.253 60.1151 222.238 59.373 222.368 58.6497C222.498 57.9264 222.771 57.2365 223.172 56.6207C223.54 56.0402 223.745 55.371 223.765 54.6836C223.786 53.9962 223.621 53.3159 223.289 52.7142C223.044 52.2278 222.671 51.8174 222.211 51.5269C221.751 51.2365 221.221 51.0769 220.678 51.0653H220.548V50.9351C220.548 49.0661 222.001 47.7469 223.352 47.6712C223.401 47.2823 223.676 46.9336 224.155 46.6568C225.299 45.9957 227.51 45.8524 229.182 46.7335C229.213 46.4486 229.32 46.1774 229.492 45.9486C229.664 45.7199 229.895 45.5421 230.16 45.4341C230.434 45.3384 230.73 45.3213 231.014 45.3849C231.038 44.9163 231.231 44.4725 231.557 44.1357C232.018 43.6875 232.758 43.5172 233.588 43.6674C234.727 43.8746 235.849 44.6019 236.749 45.7156C237.546 46.7029 238.1 47.8666 238.636 48.9918C239.162 50.0985 239.706 51.2428 240.496 52.2118C241.36 53.2732 242.431 53.961 243.512 54.1483C244.772 54.3669 246.066 53.8468 246.658 52.8839L246.775 52.6927L246.882 52.89C247.547 54.1148 247.275 55.7977 246.235 56.8916C245.303 57.8727 243.839 58.3725 242.322 58.2273C241.037 58.1049 239.741 57.5576 238.47 56.6009C237.208 55.6507 236.427 54.6003 236.15 53.4789C236.072 53.1319 236.017 52.7803 235.983 52.4263C235.897 51.6848 235.816 50.9843 235.361 50.4688C234.952 50.0052 234.319 49.8044 233.758 49.6527L233.647 49.623C233.627 49.8319 233.562 50.0338 233.456 50.2148C233.35 50.3957 233.206 50.5514 233.034 50.6708C232.931 50.7331 232.817 50.7769 232.699 50.8002C233.35 53.4255 233.082 55.4355 231.903 56.7756C229.913 59.0379 226.088 58.5726 225.926 58.5518L225.818 58.5379L225.813 58.4292C225.798 58.1375 225.763 57.8473 225.706 57.5608C225.159 58.8838 223.316 62.3824 223.069 62.7352L222.901 62.9754Z" fill="#2F2E41"/>
<path d="M39.2609 71.3919C39.1088 71.5924 38.9148 71.757 38.6924 71.8742C38.47 71.9913 38.2247 72.0582 37.9737 72.0701C37.7228 72.0819 37.4722 72.0385 37.2398 71.9428C37.0074 71.8471 36.7988 71.7015 36.6286 71.5163L31.0282 73.9578L31.5737 70.824L36.8083 68.986C37.1377 68.72 37.5531 68.5844 37.9756 68.6049C38.3981 68.6253 38.7984 68.8004 39.1007 69.097C39.403 69.3935 39.5863 69.791 39.6158 70.2139C39.6453 70.6369 39.519 71.056 39.2609 71.3919V71.3919Z" fill="#A0616A"/>
<path d="M35.5236 72.3703L22.5158 78.1782L22.4879 78.1682L7.66218 72.8726C6.55786 72.2941 5.71595 71.3143 5.30881 70.1339C4.90167 68.9534 4.96011 67.6616 5.47216 66.523C5.756 65.8939 6.16953 65.3321 6.68556 64.8748C7.20158 64.4174 7.80839 64.0748 8.46604 63.8694C9.12369 63.6641 9.81727 63.6007 10.5011 63.6834C11.185 63.7661 11.8436 63.9931 12.4337 64.3493L23.4667 71.0113L34.1654 69.6214L35.5236 72.3703Z" fill="#3F3D56"/>
<path d="M40.9734 34.1303C36.0559 23.2274 36.2372 9.40748 43.8689 0.207153C46.4222 12.9649 53.3951 24.4062 63.5539 32.5068C67.483 35.6166 72.1762 38.6654 73.2495 43.5669C73.9175 46.6167 72.9708 49.8426 71.3341 52.4992C69.6973 55.156 67.4159 57.3414 65.1604 59.4952L64.9074 60.2322C55.0931 53.4211 45.8908 45.0332 40.9734 34.1303Z" fill="#F0F0F0"/>
<path d="M44.0813 0.340157C42.325 9.98041 43.6298 20.2455 47.8988 29.0778C48.8217 30.9873 49.9238 32.8439 51.3993 34.3797C52.849 35.8656 54.6692 36.9352 56.6707 37.4775C58.5269 38.0208 60.4883 38.361 62.1804 39.347C63.9639 40.3864 65.0708 42.1303 65.502 44.1302C66.0296 46.5771 65.6485 49.0681 65.1915 51.4911C64.684 54.1814 64.1143 56.9677 64.8497 59.6722C64.9388 59.9999 64.4264 60.1193 64.3374 59.7921C63.0579 55.0868 65.5455 50.4461 65.1978 45.7155C65.0356 43.508 64.2087 41.3363 62.3205 40.0573C60.6693 38.9389 58.647 38.5864 56.7628 38.0526C54.7845 37.4922 53.0077 36.6361 51.4959 35.216C49.9494 33.7634 48.7726 31.9462 47.805 30.0687C45.6425 25.7948 44.1638 21.2067 43.4231 16.4725C42.548 11.074 42.6005 5.56522 43.5786 0.18451C43.6392 -0.148495 44.1416 0.00932259 44.0813 0.340157Z" fill="white"/>
<path d="M46.36 26.2803C44.7669 26.7921 43.0442 26.7195 41.4995 26.0757C39.9548 25.4318 38.6887 24.2585 37.9274 22.7653C37.7744 22.4627 38.2364 22.2101 38.3896 22.5132C39.096 23.9049 40.2754 24.9977 41.7151 25.5944C43.1547 26.191 44.7597 26.2521 46.2404 25.7667C46.5623 25.6616 46.6801 26.1758 46.36 26.2803L46.36 26.2803Z" fill="white"/>
<path d="M55.6935 37.3264C57.2854 34.2925 57.678 30.7687 56.7931 27.4575C56.7052 27.1295 57.2176 27.01 57.3054 27.3376C58.2199 30.785 57.8038 34.4513 56.1403 37.6047C55.9816 37.9052 55.5356 37.6252 55.6935 37.3264Z" fill="white"/>
<path d="M43.2243 11.2453C43.8819 11.176 44.512 10.9441 45.0581 10.5704C45.6042 10.1967 46.0491 9.69289 46.3529 9.10424C46.5078 8.80191 46.9536 9.08221 46.7998 9.38257C46.4611 10.0314 45.969 10.5872 45.3666 11.0014C44.7642 11.4156 44.0698 11.6756 43.344 11.7588C43.2762 11.7724 43.2058 11.7596 43.1471 11.723C43.0885 11.6865 43.0459 11.6289 43.028 11.562C43.0125 11.4939 43.0244 11.4225 43.0612 11.3632C43.0979 11.3038 43.1566 11.2615 43.2243 11.2453Z" fill="white"/>
<path d="M84.2852 0.313904C84.1938 0.505442 84.1024 0.696976 84.0132 0.892429C82.7983 3.47389 81.7946 6.15001 81.012 8.8944C80.9482 9.10561 80.8866 9.32064 80.8289 9.53325C79.0139 16.1652 78.443 23.0774 79.1452 29.9183C79.4272 32.6402 79.9153 35.3366 80.6054 37.9843C81.5586 41.6408 82.8824 45.5293 82.5837 49.1804C82.5568 49.5617 82.5064 49.9409 82.4327 50.3159L65.824 60.4845C65.7747 60.4886 65.7275 60.4966 65.678 60.5008L65.0334 60.9372C64.9883 60.8032 64.9444 60.6632 64.8993 60.5291C64.8728 60.4514 64.85 60.3715 64.8235 60.2939C64.8071 60.2414 64.7907 60.1887 64.7729 60.1423C64.7673 60.1249 64.762 60.1073 64.7587 60.0936C64.7408 60.0472 64.7292 60.0022 64.7136 59.9596C64.466 59.1776 64.2235 58.3926 63.986 57.6044C63.9837 57.6006 63.9837 57.6006 63.9851 57.5945C62.1909 51.5845 60.8815 45.3715 60.5546 39.1568C60.5448 38.9698 60.5325 38.7791 60.5303 38.5875C60.3984 35.7854 60.4953 32.9772 60.8198 30.1909C61.0024 28.6658 61.262 27.1509 61.5974 25.6521C62.4715 21.781 63.9477 18.0719 65.9717 14.6607C70.0076 7.86099 76.168 2.43083 83.7076 0.458914C83.9005 0.408583 84.0899 0.3604 84.2852 0.313904Z" fill="#F0F0F0"/>
<path d="M84.3766 0.548048C77.1839 7.1853 72.06 16.1688 70.1635 25.7973C69.7535 27.8789 69.5183 30.0264 69.7739 32.143C70.0389 34.2043 70.8497 36.1569 72.1221 37.7978C73.2779 39.3518 74.6396 40.8071 75.3984 42.6156C76.1982 44.5218 76.0345 46.5822 75.1775 48.4392C74.129 50.7113 72.3286 52.4703 70.5083 54.1291C68.4872 55.9709 66.3587 57.8518 65.3215 60.455C65.1958 60.7704 64.7149 60.5565 64.8404 60.2416C66.645 55.7125 71.4187 53.5085 73.9825 49.5214C75.1788 47.661 75.823 45.4279 75.0836 43.2672C74.437 41.3778 73.034 39.8758 71.8503 38.3126C70.6073 36.6712 69.7029 34.9154 69.3487 32.8692C68.9863 30.776 69.1383 28.6148 69.4934 26.5318C70.3338 21.8143 71.909 17.2586 74.1613 13.0316C76.7051 8.19303 80.0558 3.82631 84.0686 0.120359C84.3171 -0.108913 84.6234 0.320274 84.3766 0.548044V0.548048Z" fill="white"/>
<path d="M70.6152 22.635C69.0358 22.0822 67.7039 20.9847 66.8573 19.5384C66.0107 18.092 65.7045 16.3912 65.9935 14.7395C66.0531 14.4055 66.5737 14.4827 66.514 14.8171C66.2421 16.3547 66.5274 17.939 67.3185 19.2842C68.1096 20.6294 69.3544 21.6468 70.8282 22.1528C71.1483 22.2631 70.9336 22.7448 70.6153 22.635H70.6152Z" fill="white"/>
<path d="M71.4326 37.0873C74.5259 35.6256 76.956 33.049 78.2382 29.8712C78.365 29.5562 78.846 29.77 78.7193 30.0846C77.3788 33.389 74.8445 36.0653 71.6222 37.5792C71.315 37.7233 71.127 37.2306 71.4326 37.0873Z" fill="white"/>
<path d="M77.1421 8.73802C77.7088 9.07956 78.3512 9.27467 79.0117 9.30585C79.6721 9.33702 80.33 9.20327 80.9261 8.91662C81.2314 8.7687 81.4191 9.26157 81.1158 9.40853C80.4556 9.72216 79.7289 9.86899 78.9991 9.83617C78.2693 9.80335 77.5587 9.59189 76.9292 9.22026C76.867 9.19021 76.8184 9.13753 76.7935 9.07292C76.7686 9.00831 76.7692 8.93662 76.7951 8.87242C76.8237 8.80871 76.8761 8.75886 76.9411 8.73369C77.006 8.70853 77.0783 8.71008 77.1421 8.73802Z" fill="white"/>
<path d="M147.967 39.8571C143.049 28.9542 143.231 15.1342 150.862 5.9339C153.416 18.6917 160.389 30.133 170.547 38.2335C174.477 41.3433 179.17 44.3921 180.243 49.2936C180.911 52.3435 179.964 55.5693 178.328 58.226C176.691 60.8827 174.409 63.0681 172.154 65.2219L171.901 65.959C162.087 59.1479 152.884 50.76 147.967 39.8571Z" fill="#F0F0F0"/>
<path d="M151.075 6.06696C149.319 15.7072 150.623 25.9723 154.892 34.8046C155.815 36.7141 156.917 38.5707 158.393 40.1065C159.842 41.5924 161.663 42.662 163.664 43.2044C165.52 43.7476 167.482 44.0878 169.174 45.0738C170.957 46.1132 172.064 47.8571 172.496 49.857C173.023 52.3039 172.642 54.7949 172.185 57.2179C171.678 59.9082 171.108 62.6945 171.843 65.399C171.932 65.7267 171.42 65.8461 171.331 65.5189C170.051 60.8136 172.539 56.1729 172.191 51.4423C172.029 49.2349 171.202 47.0631 169.314 45.7841C167.663 44.6657 165.641 44.3132 163.756 43.7794C161.778 43.219 160.001 42.3629 158.489 40.9429C156.943 39.4902 155.766 37.673 154.798 35.7955C152.636 31.5216 151.157 26.9335 150.417 22.1993C149.541 16.8008 149.594 11.292 150.572 5.91132C150.633 5.57831 151.135 5.73613 151.075 6.06696Z" fill="white"/>
<path d="M153.354 32.0071C151.76 32.5189 150.038 32.4463 148.493 31.8025C146.948 31.1586 145.682 29.9853 144.921 28.4921C144.768 28.1895 145.23 27.9369 145.383 28.24C146.09 29.6317 147.269 30.7245 148.709 31.3212C150.148 31.9178 151.753 31.9789 153.234 31.4935C153.556 31.3884 153.674 31.9026 153.354 32.0071V32.0071Z" fill="white"/>
<path d="M162.687 43.0531C164.279 40.0193 164.671 36.4954 163.787 33.1843C163.699 32.8563 164.211 32.7367 164.299 33.0643C165.213 36.5117 164.797 40.178 163.134 43.3315C162.975 43.6319 162.529 43.352 162.687 43.0531Z" fill="white"/>
<path d="M150.218 16.9721C150.875 16.9028 151.506 16.6709 152.052 16.2972C152.598 15.9235 153.043 15.4197 153.346 14.831C153.501 14.5287 153.947 14.809 153.793 15.1094C153.455 15.7582 152.963 16.314 152.36 16.7282C151.758 17.1424 151.063 17.4025 150.338 17.4856C150.27 17.4992 150.199 17.4864 150.141 17.4499C150.082 17.4133 150.039 17.3557 150.022 17.2888C150.006 17.2207 150.018 17.1493 150.055 17.09C150.091 17.0307 150.15 16.9883 150.218 16.9721Z" fill="white"/>
<path d="M191.279 6.04071C191.187 6.23225 191.096 6.42378 191.007 6.61924C189.792 9.20069 188.788 11.8768 188.006 14.6212C187.942 14.8324 187.88 15.0474 187.822 15.2601C186.007 21.8921 185.436 28.8042 186.139 35.6451C186.421 38.367 186.909 41.0634 187.599 43.7111C188.552 47.3676 189.876 51.2561 189.577 54.9072C189.55 55.2885 189.5 55.6677 189.426 56.0427L172.818 66.2113C172.768 66.2154 172.721 66.2234 172.672 66.2276L172.027 66.664C171.982 66.53 171.938 66.39 171.893 66.2559C171.866 66.1782 171.844 66.0983 171.817 66.0207C171.801 65.9682 171.784 65.9156 171.766 65.8691C171.761 65.8517 171.755 65.8341 171.752 65.8205C171.734 65.774 171.723 65.729 171.707 65.6864C171.46 64.9045 171.217 64.1194 170.98 63.3312C170.977 63.3274 170.977 63.3274 170.979 63.3214C169.184 57.3113 167.875 51.0983 167.548 44.8836C167.538 44.6966 167.526 44.506 167.524 44.3143C167.392 41.5122 167.489 38.704 167.813 35.9177C167.996 34.3926 168.255 32.8777 168.591 31.3789C169.465 27.5078 170.941 23.7987 172.965 20.3875C177.001 13.5878 183.162 8.15764 190.701 6.18572C190.894 6.13539 191.083 6.08721 191.279 6.04071Z" fill="#F0F0F0"/>
<path d="M191.37 6.27485C184.177 12.9121 179.053 21.8957 177.157 31.5241C176.747 33.6057 176.512 35.7532 176.767 37.8699C177.032 39.9311 177.843 41.8837 179.116 43.5247C180.271 45.0786 181.633 46.5339 182.392 48.3424C183.192 50.2486 183.028 52.309 182.171 54.166C181.123 56.4381 179.322 58.1971 177.502 59.8559C175.481 61.6977 173.352 63.5787 172.315 66.1818C172.189 66.4972 171.708 66.2833 171.834 65.9684C173.639 61.4393 178.412 59.2353 180.976 55.2482C182.172 53.3878 182.817 51.1548 182.077 48.994C181.431 47.1046 180.028 45.6026 178.844 44.0394C177.601 42.398 176.696 40.6422 176.342 38.596C175.98 36.5028 176.132 34.3416 176.487 32.2586C177.327 27.5411 178.903 22.9854 181.155 18.7584C183.699 13.9198 187.049 9.55312 191.062 5.84717C191.311 5.61789 191.617 6.04708 191.37 6.27485V6.27485Z" fill="white"/>
<path d="M177.609 28.3618C176.029 27.809 174.697 26.7114 173.851 25.2651C173.004 23.8188 172.698 22.1179 172.987 20.4662C173.047 20.1322 173.567 20.2094 173.507 20.5438C173.235 22.0814 173.521 23.6657 174.312 25.0109C175.103 26.3561 176.348 27.3735 177.822 27.8796C178.142 27.9899 177.927 28.4715 177.609 28.3618Z" fill="white"/>
<path d="M178.426 42.8141C181.519 41.3525 183.949 38.7758 185.232 35.598C185.359 35.283 185.839 35.4968 185.713 35.8114C184.372 39.1159 181.838 41.7921 178.616 43.306C178.308 43.4501 178.121 42.9574 178.426 42.8141Z" fill="white"/>
<path d="M184.136 14.4648C184.702 14.8064 185.345 15.0015 186.005 15.0327C186.666 15.0638 187.323 14.9301 187.92 14.6434C188.225 14.4955 188.413 14.9884 188.109 15.1353C187.449 15.449 186.722 15.5958 185.993 15.563C185.263 15.5302 184.552 15.3187 183.923 14.9471C183.86 14.917 183.812 14.8643 183.787 14.7997C183.762 14.7351 183.763 14.6634 183.789 14.5992C183.817 14.5355 183.87 14.4857 183.935 14.4605C184 14.4353 184.072 14.4369 184.136 14.4648Z" fill="white"/>
<path d="M48.5121 111.501H175.03V38.081C175.029 37.5309 174.811 37.0035 174.423 36.6146C174.034 36.2256 173.508 36.0068 172.96 36.0062H50.5821C50.0333 36.0068 49.5072 36.2256 49.1191 36.6146C48.731 37.0035 48.5127 37.5309 48.5121 38.081V111.501Z" fill="#CACACA"/>
<path d="M171.121 38.8759H52.421V106.424H171.121V38.8759Z" fill="white"/>
<path d="M48.402 109.514V118.574C48.402 118.95 48.4758 119.322 48.6192 119.669C48.7626 120.016 48.9727 120.331 49.2377 120.596C49.5026 120.862 49.8172 121.073 50.1634 121.216C50.5095 121.36 50.8806 121.434 51.2553 121.434H97.9519V139.314H97.3315C97.2829 139.314 97.2347 139.324 97.1897 139.343C97.1447 139.361 97.1039 139.389 97.0694 139.423C97.035 139.458 97.0077 139.499 96.9891 139.544C96.9705 139.589 96.9609 139.637 96.9609 139.686V140.93C96.9609 140.978 96.9705 141.027 96.9891 141.072C97.0077 141.117 97.035 141.158 97.0694 141.192C97.1039 141.227 97.1447 141.254 97.1897 141.273C97.2347 141.292 97.2829 141.301 97.3315 141.301H126.32C126.369 141.301 126.417 141.292 126.462 141.273C126.507 141.254 126.548 141.227 126.582 141.192C126.617 141.158 126.644 141.117 126.663 141.072C126.681 141.027 126.691 140.978 126.691 140.93V139.686C126.691 139.637 126.681 139.589 126.663 139.544C126.644 139.499 126.617 139.458 126.582 139.423C126.548 139.389 126.507 139.361 126.462 139.343C126.417 139.324 126.369 139.314 126.32 139.314H125.7V121.434H172.396C172.771 121.434 173.142 121.36 173.488 121.216C173.835 121.073 174.149 120.862 174.414 120.596C174.679 120.331 174.889 120.016 175.033 119.669C175.176 119.322 175.25 118.95 175.25 118.574V109.514L48.402 109.514Z" fill="#3F3D56"/>
<path d="M89.3309 72.2807H60.4046C60.203 72.2804 60.0098 72.2001 59.8672 72.0572C59.7247 71.9143 59.6445 71.7206 59.6443 71.5186V59.7537C59.6445 59.5516 59.7247 59.3579 59.8672 59.2151C60.0098 59.0722 60.203 58.9918 60.4046 58.9916H89.3309C89.5324 58.9918 89.7257 59.0722 89.8682 59.215C90.0108 59.3579 90.0909 59.5516 90.0912 59.7537V71.5186C90.0909 71.7206 90.0108 71.9143 89.8682 72.0572C89.7257 72.2001 89.5324 72.2804 89.3309 72.2807Z" fill="#374A5E"/>
<path d="M86.5766 77.9244H63.159C62.917 77.9244 62.6849 77.828 62.5138 77.6565C62.3427 77.485 62.2466 77.2524 62.2466 77.0099C62.2466 76.7673 62.3427 76.5347 62.5138 76.3632C62.6849 76.1917 62.917 76.0953 63.159 76.0953H86.5766C87.7532 76.0789 87.765 77.941 86.5766 77.9244Z" fill="#E4E4E4"/>
<path d="M86.5766 82.116H63.159C62.917 82.116 62.6849 82.0196 62.5138 81.8481C62.3427 81.6766 62.2466 81.444 62.2466 81.2014C62.2466 80.9589 62.3427 80.7263 62.5138 80.5548C62.6849 80.3833 62.917 80.2869 63.159 80.2869H86.5766C87.7532 80.2705 87.765 82.1326 86.5766 82.116Z" fill="#E4E4E4"/>
<path d="M86.5766 86.3076H63.159C62.917 86.3076 62.6849 86.2113 62.5138 86.0398C62.3427 85.8683 62.2466 85.6356 62.2466 85.3931C62.2466 85.1505 62.3427 84.9179 62.5138 84.7464C62.6849 84.5749 62.917 84.4786 63.159 84.4786H86.5766C87.7532 84.4621 87.765 86.3242 86.5766 86.3076Z" fill="#E4E4E4"/>
<path d="M126.234 72.2807H97.3077C97.1061 72.2804 96.9129 72.2001 96.7703 72.0572C96.6278 71.9143 96.5476 71.7206 96.5474 71.5186V59.7537C96.5476 59.5516 96.6278 59.3579 96.7703 59.215C96.9129 59.0722 97.1061 58.9918 97.3077 58.9916H126.234C126.436 58.9918 126.629 59.0722 126.771 59.215C126.914 59.3579 126.994 59.5516 126.994 59.7537V71.5186C126.994 71.7206 126.914 71.9143 126.771 72.0572C126.629 72.2001 126.436 72.2804 126.234 72.2807Z" fill="#374A5E"/>
<path d="M123.48 77.9244H100.062C99.8201 77.9244 99.588 77.828 99.4169 77.6565C99.2458 77.485 99.1497 77.2524 99.1497 77.0099C99.1497 76.7673 99.2458 76.5347 99.4169 76.3632C99.588 76.1917 99.8201 76.0953 100.062 76.0953H123.48C124.656 76.0789 124.668 77.941 123.48 77.9244Z" fill="#E4E4E4"/>
<path d="M123.48 82.116H100.062C99.8201 82.116 99.588 82.0196 99.4169 81.8481C99.2458 81.6766 99.1497 81.444 99.1497 81.2014C99.1497 80.9589 99.2458 80.7263 99.4169 80.5548C99.588 80.3833 99.8201 80.2869 100.062 80.2869H123.48C124.656 80.2705 124.668 82.1326 123.48 82.116Z" fill="#E4E4E4"/>
<path d="M123.48 86.3076H100.062C99.8201 86.3076 99.588 86.2113 99.4169 86.0398C99.2458 85.8683 99.1497 85.6356 99.1497 85.3931C99.1497 85.1505 99.2458 84.9179 99.4169 84.7464C99.588 84.5749 99.8201 84.4786 100.062 84.4786H123.48C124.656 84.4621 124.668 86.3242 123.48 86.3076Z" fill="#E4E4E4"/>
<path d="M163.137 72.2807H134.211C134.009 72.2804 133.816 72.2001 133.674 72.0572C133.531 71.9143 133.451 71.7206 133.451 71.5186V59.7537C133.451 59.5516 133.531 59.3579 133.674 59.215C133.816 59.0722 134.009 58.9918 134.211 58.9916H163.137C163.339 58.9918 163.532 59.0722 163.674 59.215C163.817 59.3579 163.897 59.5516 163.897 59.7537V71.5186C163.897 71.7206 163.817 71.9143 163.674 72.0572C163.532 72.2001 163.339 72.2804 163.137 72.2807Z" fill="#374A5E"/>
<path d="M160.383 77.9244H136.965C136.723 77.9244 136.491 77.828 136.32 77.6565C136.149 77.485 136.053 77.2524 136.053 77.0099C136.053 76.7673 136.149 76.5347 136.32 76.3632C136.491 76.1917 136.723 76.0953 136.965 76.0953H160.383C161.559 76.0789 161.571 77.941 160.383 77.9244Z" fill="#E4E4E4"/>
<path d="M160.383 82.116H136.965C136.723 82.1156 136.492 82.019 136.321 81.8476C136.15 81.6761 136.054 81.4437 136.054 81.2014C136.054 80.9592 136.15 80.7268 136.321 80.5553C136.492 80.3839 136.723 80.2873 136.965 80.2869H160.383C161.559 80.2705 161.571 82.1326 160.383 82.116Z" fill="#E4E4E4"/>
<path d="M160.383 86.3076H136.965C136.723 86.3076 136.491 86.2113 136.32 86.0398C136.149 85.8683 136.053 85.6356 136.053 85.3931C136.053 85.1505 136.149 84.9179 136.32 84.7464C136.491 84.5749 136.723 84.4786 136.965 84.4786H160.383C161.559 84.4621 161.571 86.3242 160.383 86.3076Z" fill="#E4E4E4"/>
<path d="M212.566 59.1505L212.645 73.8967L212.967 73.8785L213.273 79.338L212.675 79.3708L212.692 82.6507L213.171 82.6412L213.268 88.1054L212.722 88.1154L212.982 136.235C212.988 137.495 212.494 138.706 211.61 139.601C210.726 140.497 209.524 141.005 208.267 141.013L155.238 141.301C153.981 141.307 152.773 140.812 151.879 139.926C150.986 139.04 150.479 137.835 150.471 136.575L150.055 59.4904C150.049 58.2304 150.542 57.0196 151.426 56.1238C152.31 55.228 153.513 54.7204 154.77 54.7123L207.799 54.4242C209.056 54.419 210.263 54.9137 211.157 55.7996C212.05 56.6856 212.557 57.8907 212.566 59.1505Z" fill="#3F3D56"/>
<path d="M208.344 137.981L155.128 138.271C154.741 138.272 154.368 138.12 154.093 137.847C153.817 137.574 153.661 137.202 153.659 136.814L153.239 59.217C153.237 58.8286 153.389 58.4554 153.662 58.1793C153.934 57.9032 154.305 57.7467 154.692 57.7442L207.908 57.4549C208.296 57.4532 208.668 57.6057 208.943 57.8788C209.219 58.152 209.375 58.5235 209.377 58.9118L209.797 136.509C209.799 136.897 209.647 137.27 209.374 137.546C209.102 137.822 208.731 137.979 208.344 137.981Z" fill="white"/>
<path d="M181.09 56.4283C181.312 56.4283 181.493 56.2473 181.493 56.024C181.493 55.8007 181.312 55.6198 181.09 55.6198C180.867 55.6198 180.687 55.8007 180.687 56.024C180.687 56.2473 180.867 56.4283 181.09 56.4283Z" fill="white"/>
<path d="M196.918 79.2958H166.118C165.904 79.2956 165.698 79.21 165.546 79.0579C165.394 78.9058 165.309 78.6995 165.309 78.4844V65.9576C165.309 65.7425 165.394 65.5362 165.546 65.3841C165.698 65.2319 165.904 65.1464 166.118 65.1461H196.918C197.132 65.1464 197.338 65.2319 197.49 65.3841C197.642 65.5362 197.727 65.7424 197.727 65.9576V78.4844C197.727 78.6995 197.642 78.9058 197.49 79.0579C197.338 79.21 197.132 79.2956 196.918 79.2958Z" fill="#374A5E"/>
<path d="M193.985 85.305H169.051C168.793 85.305 168.546 85.2024 168.364 85.0198C168.182 84.8372 168.08 84.5895 168.08 84.3312C168.08 84.073 168.182 83.8253 168.364 83.6427C168.546 83.4601 168.793 83.3575 169.051 83.3575H193.985C195.238 83.3399 195.251 85.3227 193.985 85.305Z" fill="#E4E4E4"/>
<path d="M193.985 89.7682H169.051C168.794 89.7677 168.547 89.6649 168.365 89.4824C168.183 89.2998 168.081 89.0524 168.081 88.7944C168.081 88.5364 168.183 88.289 168.365 88.1064C168.547 87.9238 168.794 87.821 169.051 87.8206H193.985C195.238 87.8031 195.251 89.7858 193.985 89.7682Z" fill="#E4E4E4"/>
<path d="M193.985 94.2312H169.051C168.793 94.2312 168.546 94.1286 168.364 93.946C168.182 93.7634 168.08 93.5157 168.08 93.2574C168.08 92.9992 168.182 92.7515 168.364 92.5689C168.546 92.3863 168.793 92.2837 169.051 92.2837H193.985C195.238 92.2661 195.251 94.2489 193.985 94.2312Z" fill="#E4E4E4"/>
<path d="M196.918 115.644H166.118C165.904 115.644 165.698 115.558 165.546 115.406C165.394 115.254 165.309 115.048 165.309 114.833V102.306C165.309 102.091 165.394 101.884 165.546 101.732C165.698 101.58 165.904 101.495 166.118 101.494H196.918C197.132 101.495 197.338 101.58 197.49 101.732C197.642 101.884 197.727 102.091 197.727 102.306V114.833C197.727 115.048 197.642 115.254 197.49 115.406C197.338 115.558 197.132 115.644 196.918 115.644Z" fill="#374A5E"/>
<path d="M193.985 121.653H169.051C168.793 121.653 168.546 121.551 168.364 121.368C168.182 121.185 168.08 120.938 168.08 120.679C168.08 120.421 168.182 120.174 168.364 119.991C168.546 119.808 168.793 119.706 169.051 119.706H193.985C195.238 119.688 195.251 121.671 193.985 121.653Z" fill="#E4E4E4"/>
<path d="M193.985 126.116H169.051C168.794 126.116 168.547 126.013 168.365 125.83C168.183 125.648 168.081 125.4 168.081 125.142C168.081 124.884 168.183 124.637 168.365 124.454C168.547 124.272 168.794 124.169 169.051 124.169H193.985C195.238 124.151 195.251 126.134 193.985 126.116Z" fill="#E4E4E4"/>
<path d="M193.985 130.579H169.051C168.793 130.579 168.546 130.477 168.364 130.294C168.182 130.112 168.08 129.864 168.08 129.606C168.08 129.347 168.182 129.1 168.364 128.917C168.546 128.734 168.793 128.632 169.051 128.632H193.985C195.238 128.614 195.251 130.597 193.985 130.579Z" fill="#E4E4E4"/>
<path d="M60.0716 137.515L59.9692 95.018L60.3556 95.017L60.337 87.2009L59.9505 87.202L59.9189 74.1541C59.9177 73.6668 59.8208 73.1845 59.6337 72.7347C59.4465 72.285 59.1729 71.8765 58.8283 71.5328C58.4837 71.189 58.0749 70.9167 57.6253 70.7313C57.1757 70.5459 56.6941 70.451 56.2079 70.4522L28.6581 70.5189C28.172 70.5201 27.6908 70.6172 27.2421 70.8047C26.7934 70.9923 26.3859 71.2666 26.0429 71.612C25.7 71.9574 25.4283 72.3672 25.2433 72.8178C25.0583 73.2685 24.9637 73.7513 24.9649 74.2386L24.9868 83.3363L24.3712 83.3517L24.5072 88.8165L25 88.8041L25.0029 90.0099L24.4785 90.0231L24.6144 95.4878L25.0161 95.4778L25.1176 137.599C25.1179 138.087 25.2142 138.569 25.401 139.02C25.5878 139.47 25.8614 139.879 26.2062 140.222C26.551 140.566 26.9601 140.839 27.4101 141.024C27.8602 141.209 28.3422 141.303 28.8286 141.301L56.3783 141.234C57.3598 141.231 58.2999 140.837 58.9922 140.14C59.6846 139.443 60.0728 138.498 60.0716 137.515Z" fill="#3F3D56"/>
<path d="M27.9863 139.6C27.6427 139.477 27.3454 139.25 27.1349 138.951C26.9244 138.652 26.8108 138.295 26.8097 137.929L26.6554 73.9002C26.6543 73.4286 26.8401 72.9759 27.172 72.6417C27.5039 72.3074 27.9546 72.119 28.4251 72.1178L34.2868 72.1036L34.2142 72.2831C34.0883 72.5946 34.0407 72.9324 34.0758 73.2666C34.1108 73.6009 34.2273 73.9214 34.415 74.2C34.6027 74.4785 34.8559 74.7064 35.1522 74.8638C35.4485 75.0211 35.7789 75.103 36.1142 75.1022L49.1231 75.0707C49.4469 75.0424 49.7595 74.9381 50.0356 74.7662C50.3118 74.5944 50.5437 74.3598 50.7126 74.0814C50.879 73.8078 50.9786 73.4986 51.0031 73.1791C51.0277 72.8596 50.9765 72.5388 50.8538 72.2429L50.7804 72.0637L56.8352 72.049C57.3055 72.0485 57.7568 72.2349 58.0902 72.5675C58.4235 72.9001 58.6117 73.3515 58.6135 73.823L58.7608 134.912C58.7623 136.163 58.2687 137.363 57.3884 138.25C56.5081 139.137 55.3128 139.637 54.0649 139.642L28.5879 139.703C28.383 139.704 28.1794 139.669 27.9863 139.6Z" fill="white"/>
<path d="M38.022 73.6213C38.2445 73.6213 38.4249 73.4403 38.4249 73.2171C38.4249 72.9938 38.2445 72.8128 38.022 72.8128C37.7994 72.8128 37.619 72.9938 37.619 73.2171C37.619 73.4403 37.7994 73.6213 38.022 73.6213Z" fill="white"/>
<path d="M53.6124 93.2994H32.6817C32.5359 93.2992 32.3961 93.2411 32.2929 93.1377C32.1898 93.0343 32.1318 92.8942 32.1316 92.748V84.2351C32.1318 84.0888 32.1898 83.9487 32.2929 83.8453C32.3961 83.7419 32.5359 83.6838 32.6817 83.6836H53.6124C53.7583 83.6838 53.8981 83.7419 54.0012 83.8453C54.1044 83.9487 54.1624 84.0888 54.1626 84.2351V92.748C54.1624 92.8942 54.1044 93.0343 54.0012 93.1377C53.8981 93.2411 53.7583 93.2992 53.6124 93.2994Z" fill="#374A5E"/>
<path d="M51.6193 97.3831H34.6747C34.5879 97.3833 34.5019 97.3663 34.4216 97.3331C34.3414 97.2999 34.2684 97.2512 34.207 97.1897C34.1456 97.1283 34.0968 97.0553 34.0636 96.9749C34.0303 96.8945 34.0132 96.8084 34.0132 96.7213C34.0132 96.6343 34.0303 96.5482 34.0636 96.4678C34.0968 96.3874 34.1456 96.3144 34.207 96.2529C34.2684 96.1915 34.3414 96.1428 34.4216 96.1096C34.5019 96.0764 34.5879 96.0594 34.6747 96.0596H51.6193C52.4707 96.0477 52.4792 97.3951 51.6193 97.3831Z" fill="#E4E4E4"/>
<path d="M51.6194 100.416H34.6747C34.4996 100.416 34.3317 100.346 34.2079 100.222C34.0841 100.098 34.0145 99.9299 34.0145 99.7544C34.0145 99.5789 34.0841 99.4105 34.2079 99.2864C34.3317 99.1623 34.4996 99.0926 34.6747 99.0926H51.6194C52.4708 99.0807 52.4793 100.428 51.6194 100.416Z" fill="#E4E4E4"/>
<path d="M51.6193 103.449H34.6747C34.5879 103.449 34.5019 103.432 34.4216 103.399C34.3414 103.366 34.2684 103.317 34.207 103.256C34.1456 103.194 34.0968 103.121 34.0636 103.041C34.0303 102.961 34.0132 102.874 34.0132 102.787C34.0132 102.7 34.0303 102.614 34.0636 102.534C34.0968 102.453 34.1456 102.38 34.207 102.319C34.2684 102.258 34.3414 102.209 34.4216 102.176C34.5019 102.142 34.5879 102.125 34.6747 102.126H51.6193C52.4707 102.114 52.4792 103.461 51.6193 103.449Z" fill="#E4E4E4"/>
<path d="M53.6124 118.81H32.6817C32.5359 118.809 32.3961 118.751 32.2929 118.648C32.1898 118.545 32.1318 118.404 32.1316 118.258V109.745C32.1318 109.599 32.1898 109.459 32.2929 109.356C32.3961 109.252 32.5359 109.194 32.6817 109.194H53.6124C53.7583 109.194 53.8981 109.252 54.0012 109.356C54.1044 109.459 54.1624 109.599 54.1626 109.745V118.258C54.1624 118.404 54.1044 118.545 54.0012 118.648C53.8981 118.751 53.7583 118.809 53.6124 118.81Z" fill="#374A5E"/>
<path d="M51.6193 122.893H34.6747C34.5879 122.893 34.5019 122.877 34.4216 122.843C34.3414 122.81 34.2684 122.761 34.207 122.7C34.1456 122.638 34.0968 122.565 34.0636 122.485C34.0303 122.405 34.0132 122.319 34.0132 122.232C34.0132 122.145 34.0303 122.058 34.0636 121.978C34.0968 121.898 34.1456 121.825 34.207 121.763C34.2684 121.702 34.3414 121.653 34.4216 121.62C34.5019 121.587 34.5879 121.57 34.6747 121.57H51.6193C52.4707 121.558 52.4792 122.905 51.6193 122.893Z" fill="#E4E4E4"/>
<path d="M51.6194 125.926H34.6747C34.4996 125.926 34.3317 125.857 34.2079 125.733C34.0841 125.608 34.0145 125.44 34.0145 125.265C34.0145 125.089 34.0841 124.921 34.2079 124.797C34.3317 124.673 34.4996 124.603 34.6747 124.603H51.6194C52.4708 124.591 52.4793 125.938 51.6194 125.926Z" fill="#E4E4E4"/>
<path d="M51.6193 128.959H34.6747C34.5879 128.96 34.5019 128.943 34.4216 128.909C34.3414 128.876 34.2684 128.828 34.207 128.766C34.1456 128.705 34.0968 128.632 34.0636 128.551C34.0303 128.471 34.0132 128.385 34.0132 128.298C34.0132 128.211 34.0303 128.124 34.0636 128.044C34.0968 127.964 34.1456 127.891 34.207 127.829C34.2684 127.768 34.3414 127.719 34.4216 127.686C34.5019 127.653 34.5879 127.636 34.6747 127.636H51.6193C52.4707 127.624 52.4792 128.971 51.6193 128.959Z" fill="#E4E4E4"/>
<path d="M6.82364 138.976L9.09803 138.975L10.1799 130.182H6.82312L6.82364 138.976Z" fill="#A0616A"/>
<path d="M6.24353 138.231L6.88368 138.231L9.38292 137.212L10.7224 138.231H10.7226C11.4796 138.231 12.2056 138.532 12.7409 139.069C13.2762 139.606 13.5769 140.333 13.5769 141.092V141.185L6.24366 141.185L6.24353 138.231Z" fill="#2F2E41"/>
<path d="M15.6372 137.539L17.8555 138.041L20.8433 129.703L17.5691 128.962L15.6372 137.539Z" fill="#A0616A"/>
<path d="M15.2347 136.685L15.8592 136.826L18.5209 136.384L19.6037 137.674L19.6039 137.674C20.3423 137.841 20.9842 138.295 21.3884 138.937C21.7926 139.578 21.926 140.354 21.7593 141.095L21.7389 141.185L14.5857 139.566L15.2347 136.685Z" fill="#2F2E41"/>
<path d="M3.94318 85.219C2.87688 88.4426 2.98961 91.9417 4.19948 95.6972L4.71667 116.842C4.71667 116.842 3.94609 130.708 6.43262 135.587H10.0388L11.8242 115.575L12.0484 102.143L19.7797 113.475L14.8554 135.26L19.2937 135.658L27.2845 112.016L17.4255 89.0802L3.94318 85.219Z" fill="#2F2E41"/>
<path d="M18.0685 89.7575L4.95574 87.6551C4.61183 87.5446 4.29583 87.3609 4.02943 87.1166C3.76304 86.8722 3.55255 86.5729 3.41242 86.2393C3.2723 85.9057 3.20585 85.5457 3.21764 85.1839C3.22944 84.8221 3.3192 84.4672 3.48075 84.1434L4.07541 82.9511L3.84442 70.4249C3.81657 68.7956 4.21731 67.1876 5.00631 65.7628C5.79531 64.3379 6.94475 63.1465 8.33899 62.3084L9.61771 61.542L10.2639 59.897L16.2229 60.0426L16.2402 62.2001L18.3743 65.6111L18.3742 65.6252L18.2403 84.1909L17.6521 86.1068L18.5414 88.3353L18.0685 89.7575Z" fill="#3F3D56"/>
<path d="M13.7892 57.8515C16.7794 57.8515 19.2035 55.4217 19.2035 52.4244C19.2035 49.4271 16.7794 46.9973 13.7892 46.9973C10.7989 46.9973 8.37488 49.4271 8.37488 52.4244C8.37488 55.4217 10.7989 57.8515 13.7892 57.8515Z" fill="#A0616A"/>
<path d="M8.15127 53.6075C7.98978 52.9255 8.06392 51.9659 8.15518 51.2793C8.27205 50.3739 8.57741 49.5032 9.05145 48.7237C9.5255 47.9441 10.1577 47.2731 10.907 46.7541C11.1943 46.5354 11.5357 46.3994 11.8944 46.3608C12.0736 46.3457 12.2531 46.3878 12.4071 46.4811C12.561 46.5745 12.6815 46.7142 12.7514 46.8804C12.8417 46.6545 12.9772 46.4496 13.1496 46.2782C13.322 46.1068 13.5276 45.9727 13.7538 45.8841C14.208 45.7096 14.6965 45.6437 15.1806 45.6914C16.1189 45.7689 17.0188 46.0997 17.7848 46.6485C18.5507 47.1973 19.1541 47.9437 19.531 48.8085C19.6756 49.1529 20.0795 47.8809 20.2628 48.2063C20.4311 48.5445 20.7249 48.8032 21.0812 48.9271C21.4402 49.0275 21.586 50.5102 21.7273 50.1645C21.8369 50.42 21.8803 50.6992 21.8533 50.976C21.8263 51.2528 21.7298 51.5183 21.5729 51.7477C21.416 51.9771 21.2037 52.1629 20.9558 52.288C20.708 52.413 20.4326 52.4731 20.1553 52.4627C19.7928 52.4157 19.4335 52.3468 19.0794 52.2563C18.4291 52.1741 17.7713 52.3335 17.2302 52.7042C16.6891 53.075 16.3022 53.6315 16.1424 54.2686C16.0436 53.8981 15.8857 53.546 15.6749 53.226C15.5679 53.0668 15.4245 52.9355 15.2566 52.8431C15.0888 52.7506 14.9013 52.6997 14.7099 52.6945C14.5269 52.7155 14.3501 52.7739 14.1904 52.8659C14.0308 52.9579 13.8915 53.0817 13.7813 53.2296C13.5429 53.5101 13.3639 53.8374 13.1238 54.1164C12.4192 54.9352 11.4663 56.8445 10.4622 56.7053C9.6698 56.5954 8.37175 54.5385 8.15127 53.6075Z" fill="#2F2E41"/>
<path d="M33.973 85.7961C33.7426 85.8964 33.493 85.9449 33.2419 85.9381C32.9907 85.9313 32.7441 85.8694 32.5194 85.7567C32.2947 85.6441 32.0974 85.4834 31.9414 85.286C31.7853 85.0886 31.6744 84.8594 31.6163 84.6144L25.54 83.999L27.5446 81.5328L33.0074 82.4953C33.4245 82.4247 33.8529 82.51 34.2115 82.735C34.5701 82.9599 34.8338 83.3089 34.9529 83.7157C35.0719 84.1226 35.0379 84.5591 34.8573 84.9425C34.6767 85.3259 34.3621 85.6296 33.973 85.7961Z" fill="#A0616A"/>
<path d="M30.2357 84.8177L16.0558 83.5081L16.0363 83.4857L5.68745 71.5995C5.00638 70.5536 4.74995 69.2863 4.97067 68.0571C5.19138 66.8278 5.87253 65.7296 6.87466 64.9874C7.42915 64.5777 8.0639 64.2904 8.73714 64.1444C9.41038 63.9984 10.1068 63.9969 10.7807 64.1402C11.4545 64.2834 12.0904 64.5681 12.6466 64.9754C13.2028 65.3827 13.6666 65.9035 14.0075 66.5035L20.3816 77.7225L30.3919 81.7541L30.2357 84.8177Z" fill="#3F3D56"/>
<path d="M249.691 141.509H0.309293C0.22744 141.509 0.14902 141.476 0.0912248 141.418C0.0334296 141.36 0.000976562 141.282 0.000976562 141.199C0.000976562 141.117 0.0334296 141.039 0.0912248 140.981C0.14902 140.923 0.22744 140.89 0.309293 140.89H249.691C249.773 140.89 249.852 140.922 249.91 140.98C249.967 141.038 250 141.117 250 141.199C250 141.282 249.967 141.361 249.91 141.419C249.852 141.477 249.773 141.509 249.691 141.509Z" fill="#CCCCCC"/>
<path d="M206.322 86.1093C206.553 86.1316 206.787 86.1028 207.006 86.0248C207.225 85.9468 207.425 85.8217 207.591 85.6581C207.756 85.4945 207.884 85.2964 207.965 85.0779C208.046 84.8594 208.079 84.6258 208.06 84.3934L213.234 82.1101L210.766 80.5134L206.231 82.9264C205.843 82.9839 205.49 83.1818 205.239 83.4826C204.987 83.7834 204.855 84.1662 204.866 84.5586C204.877 84.9509 205.032 85.3255 205.3 85.6113C205.568 85.8971 205.932 86.0743 206.322 86.1093V86.1093Z" fill="#FFB6B6"/>
<path d="M209.364 83.8745L208.445 80.6677L217.746 75.9903L223.232 65.3934C223.504 64.8696 223.887 64.412 224.354 64.0533C224.822 63.6945 225.362 63.4433 225.937 63.3174C226.512 63.1916 227.108 63.1942 227.682 63.3252C228.256 63.4561 228.795 63.7121 229.259 64.075C230.097 64.7314 230.641 65.6941 230.771 66.752C230.902 67.8099 230.608 68.8764 229.955 69.7176L221.705 80.3218L209.364 83.8745Z" fill="#E4E4E4"/>
</g>
<defs>
<clipPath id="clip0">
<rect width="250" height="141.509" fill="white"/>
</clipPath>
</defs>
</svg>
