<svg width="250" height="240" viewBox="0 0 250 240" fill="none" xmlns="http://www.w3.org/2000/svg">
<g opacity="0.8" clip-path="url(#clip0)">
<path d="M188.954 127.392C197.884 122.184 209.783 121.096 218.385 126.826C207.646 130.169 198.439 137.191 192.393 146.65C190.075 150.307 187.878 154.615 183.761 155.978C181.199 156.827 178.339 156.303 175.907 155.136C173.474 153.969 171.389 152.205 169.333 150.46L168.676 150.309C173.644 141.262 180.024 132.599 188.954 127.392Z" fill="#F0F0F0"/>
<path d="M218.29 127.021C209.752 126.375 201.226 128.428 193.925 132.888C192.336 133.821 190.904 134.997 189.683 136.374C188.536 137.753 187.781 139.414 187.496 141.183C187.197 142.827 187.082 144.543 186.387 146.086C186.02 146.87 185.49 147.569 184.833 148.135C184.176 148.701 183.407 149.122 182.575 149.371C180.519 150.045 178.342 149.941 176.218 149.767C173.858 149.573 171.411 149.334 169.152 150.209C168.879 150.315 168.729 149.886 169.003 149.78C172.933 148.257 177.148 149.977 181.185 149.252C183.068 148.914 184.86 148.008 185.789 146.27C186.602 144.751 186.722 142.981 187.01 141.314C187.263 139.584 187.937 137.942 188.973 136.532C190.12 135.098 191.504 133.868 193.065 132.897C196.544 130.654 200.355 128.97 204.359 127.908C208.921 126.669 213.663 126.219 218.378 126.575C218.67 126.597 218.58 127.043 218.29 127.021L218.29 127.021Z" fill="white"/>
<path d="M196.191 131.314C195.607 129.991 195.514 128.504 195.927 127.119C196.341 125.733 197.236 124.54 198.451 123.751C198.697 123.592 198.956 123.967 198.709 124.126C197.576 124.858 196.743 125.97 196.361 127.261C195.978 128.552 196.071 129.936 196.622 131.165C196.742 131.432 196.31 131.58 196.191 131.314H196.191Z" fill="white"/>
<path d="M187.538 140.329C190.291 141.424 193.356 141.444 196.123 140.386C196.397 140.281 196.546 140.71 196.273 140.815C193.391 141.912 190.201 141.884 187.339 140.738C187.066 140.629 187.267 140.22 187.538 140.329Z" fill="white"/>
<path d="M208.835 127.266C208.955 127.825 209.211 128.346 209.582 128.781C209.952 129.217 210.426 129.554 210.96 129.762C211.234 129.868 211.033 130.276 210.761 130.171C210.172 129.938 209.65 129.566 209.239 129.085C208.828 128.605 208.542 128.031 208.405 127.415C208.387 127.358 208.392 127.296 208.418 127.243C208.444 127.189 208.489 127.147 208.545 127.126C208.602 127.106 208.665 127.11 208.719 127.136C208.774 127.163 208.815 127.209 208.835 127.266Z" fill="white"/>
<path d="M221.951 161.568C221.778 161.507 221.605 161.446 221.429 161.387C219.099 160.575 216.707 159.953 214.277 159.528C214.089 159.492 213.899 159.458 213.711 159.428C207.844 158.465 201.849 158.597 196.03 159.816C193.715 160.303 191.441 160.966 189.227 161.797C186.169 162.945 182.945 164.433 179.779 164.505C179.448 164.516 179.118 164.507 178.789 164.477L168.542 151.12C168.534 151.078 168.523 151.038 168.515 150.996L168.081 150.481C168.192 150.43 168.309 150.38 168.42 150.329C168.484 150.299 168.551 150.273 168.616 150.243C168.659 150.224 168.703 150.205 168.741 150.186C168.756 150.179 168.77 150.173 168.782 150.169C168.82 150.15 168.858 150.135 168.893 150.118C169.543 149.835 170.196 149.556 170.852 149.281C170.855 149.279 170.855 149.279 170.861 149.279C175.866 147.196 181.09 145.512 186.404 144.672C186.564 144.646 186.727 144.619 186.891 144.599C189.289 144.234 191.712 144.064 194.137 144.092C195.465 144.112 196.791 144.199 198.111 144.352C201.518 144.755 204.841 145.689 207.957 147.122C214.169 149.978 219.396 154.783 221.774 161.085C221.835 161.246 221.893 161.405 221.951 161.568Z" fill="#F0F0F0"/>
<path d="M221.758 161.668C215.33 156.027 207.284 152.548 198.761 151.727C196.929 151.517 195.076 151.597 193.269 151.963C191.521 152.376 189.915 153.249 188.619 154.49C187.388 155.623 186.26 156.924 184.773 157.739C184.006 158.145 183.162 158.385 182.295 158.442C181.429 158.5 180.56 158.374 179.746 158.074C177.697 157.377 176.022 155.988 174.431 154.573C172.664 153.002 170.854 151.342 168.522 150.685C168.239 150.606 168.38 150.173 168.662 150.253C172.72 151.396 175.047 155.3 178.707 157.144C180.415 158.005 182.393 158.357 184.184 157.527C185.75 156.802 186.915 155.461 188.152 154.303C189.398 153.073 190.928 152.167 192.606 151.663C194.388 151.206 196.236 151.055 198.069 151.217C202.201 151.514 206.261 152.458 210.099 154.013C214.49 155.763 218.548 158.25 222.098 161.365C222.317 161.558 221.976 161.86 221.758 161.668H221.758Z" fill="white"/>
<path d="M201.521 151.83C201.853 150.423 202.676 149.18 203.843 148.322C205.01 147.464 206.445 147.048 207.891 147.148C207.95 147.152 208.005 147.179 208.044 147.224C208.084 147.268 208.104 147.325 208.102 147.384C208.099 147.443 208.074 147.499 208.031 147.539C207.988 147.58 207.931 147.602 207.872 147.602C206.525 147.507 205.189 147.894 204.104 148.695C203.019 149.496 202.256 150.658 201.955 151.97C201.889 152.255 201.455 152.114 201.521 151.83V151.83Z" fill="white"/>
<path d="M189.168 153.833C190.705 156.36 193.14 158.217 195.988 159.032C196.271 159.113 196.13 159.546 195.849 159.465C192.886 158.611 190.355 156.674 188.762 154.041C188.61 153.79 189.017 153.584 189.168 153.833Z" fill="white"/>
<path d="M214.061 156.188C213.818 156.706 213.709 157.275 213.742 157.846C213.775 158.416 213.949 158.97 214.25 159.456C214.404 159.705 213.998 159.911 213.844 159.663C213.514 159.124 213.322 158.513 213.285 157.883C213.247 157.253 213.364 156.623 213.627 156.049C213.647 155.992 213.688 155.946 213.741 155.919C213.794 155.891 213.856 155.886 213.914 155.902C213.971 155.921 214.019 155.961 214.046 156.015C214.074 156.069 214.079 156.131 214.061 156.188Z" fill="white"/>
<path d="M15.0795 208.901C16.1272 198.64 22.2626 188.415 31.9763 184.868C28.3515 195.487 28.6106 207.041 32.7076 217.488C34.3024 221.511 36.4962 225.82 35.1728 229.94C34.3494 232.503 32.2395 234.497 29.8596 235.768C27.4795 237.038 24.8209 237.678 22.1955 238.305L21.6859 238.744C17.2872 229.408 14.0318 219.163 15.0795 208.901Z" fill="#F0F0F0"/>
<path d="M32.078 185.059C26.5201 191.554 23.156 199.63 22.4635 208.139C22.2818 209.969 22.3904 211.815 22.7854 213.611C23.2268 215.347 24.1266 216.934 25.3913 218.207C26.5466 219.417 27.8689 220.522 28.709 221.991C29.1278 222.75 29.3811 223.588 29.4523 224.451C29.5235 225.314 29.4109 226.182 29.122 226.998C28.4551 229.051 27.0881 230.743 25.6937 232.351C24.1455 234.136 22.5089 235.967 21.886 238.302C21.8106 238.585 21.3746 238.451 21.45 238.169C22.5337 234.106 26.4127 231.726 28.2058 228.048C29.0425 226.332 29.3656 224.354 28.5056 222.582C27.7536 221.031 26.3911 219.891 25.2107 218.676C23.9587 217.452 23.0262 215.942 22.4947 214.276C22.0093 212.506 21.8295 210.667 21.963 208.837C22.1976 204.713 23.0812 200.651 24.5814 196.8C26.269 192.396 28.6999 188.312 31.7688 184.725C31.9588 184.503 32.2668 184.839 32.078 185.059Z" fill="white"/>
<path d="M22.5245 205.386C21.1084 205.076 19.8487 204.275 18.9705 203.125C18.0924 201.975 17.6528 200.551 17.7305 199.107C17.7343 199.048 17.7608 198.993 17.8045 198.954C17.8481 198.914 17.9054 198.893 17.9645 198.894C18.0235 198.896 18.0796 198.92 18.1209 198.962C18.1623 199.004 18.1858 199.061 18.1863 199.12C18.1116 200.464 18.5211 201.79 19.3411 202.859C20.161 203.929 21.3374 204.671 22.6578 204.951C22.9447 205.013 22.8098 205.447 22.5245 205.386Z" fill="white"/>
<path d="M24.7243 217.67C27.2345 216.099 29.0585 213.643 29.8327 210.79C29.9092 210.508 30.3451 210.641 30.2687 210.923C29.4575 213.89 27.5541 216.443 24.9384 218.072C24.6889 218.227 24.4762 217.825 24.7243 217.67H24.7243Z" fill="white"/>
<path d="M26.7014 192.817C27.2243 193.051 27.7973 193.152 28.3687 193.11C28.9402 193.068 29.4924 192.886 29.9756 192.578C30.223 192.42 30.4354 192.823 30.1897 192.98C29.6542 193.317 29.0442 193.518 28.4129 193.565C27.7816 193.613 27.1482 193.505 26.5682 193.252C26.5115 193.233 26.4643 193.193 26.4362 193.14C26.408 193.087 26.4011 193.026 26.4168 192.968C26.4347 192.911 26.4747 192.863 26.528 192.834C26.5813 192.806 26.6436 192.8 26.7014 192.817Z" fill="white"/>
<path d="M62.2207 202.483C62.0691 202.586 61.9175 202.689 61.7657 202.796C59.7345 204.193 57.8206 205.753 56.0427 207.459C55.9031 207.589 55.7636 207.723 55.6281 207.856C51.3887 212.013 47.9602 216.918 45.5167 222.323C44.5464 224.474 43.7416 226.696 43.1094 228.969C42.2365 232.109 41.5406 235.582 39.7317 238.174C39.546 238.447 39.3436 238.708 39.1255 238.955L22.2636 239.33C22.2248 239.312 22.186 239.297 22.147 239.279L21.4745 239.325C21.4989 239.205 21.5268 239.082 21.5511 238.962C21.565 238.893 21.5826 238.823 21.5965 238.754C21.6069 238.708 21.6175 238.661 21.6243 238.619C21.6277 238.603 21.6313 238.588 21.6348 238.576C21.6416 238.534 21.6524 238.495 21.6592 238.457C21.8131 237.767 21.9721 237.076 22.1363 236.385C22.1362 236.382 22.1362 236.382 22.1399 236.378C23.4043 231.119 25.1202 225.919 27.573 221.144C27.6469 221 27.7204 220.853 27.802 220.709C28.9196 218.563 30.2113 216.511 31.6641 214.575C32.4631 213.517 33.3152 212.501 34.2172 211.529C36.5529 209.022 39.2694 206.898 42.2672 205.233C48.2438 201.915 55.2182 200.539 61.7249 202.34C61.8913 202.387 62.0542 202.433 62.2207 202.483Z" fill="#F0F0F0"/>
<path d="M62.1875 202.697C53.8281 204.546 46.2656 208.975 40.5742 215.354C39.3245 216.705 38.2963 218.245 37.5274 219.915C36.8311 221.567 36.5912 223.374 36.8325 225.15C37.0241 226.81 37.4128 228.485 37.1964 230.163C37.0729 231.02 36.769 231.841 36.3048 232.573C35.8405 233.305 35.2264 233.93 34.5027 234.409C32.7305 235.648 30.6176 236.178 28.5332 236.625C26.2189 237.121 23.8072 237.599 21.8997 239.09C21.6686 239.271 21.401 238.903 21.6318 238.722C24.9505 236.129 29.485 236.557 33.1373 234.697C34.8415 233.829 36.2938 232.444 36.6776 230.512C37.0132 228.823 36.6138 227.095 36.4052 225.416C36.1444 223.687 36.312 221.921 36.8935 220.272C37.5746 218.568 38.5416 216.991 39.7531 215.611C42.4309 212.458 45.5892 209.745 49.1122 207.571C53.1192 205.068 57.5262 203.266 62.1424 202.245C62.4282 202.182 62.4714 202.634 62.1876 202.697H62.1875Z" fill="white"/>
<path d="M42.2856 213.192C41.3418 212.095 40.8201 210.699 40.8134 209.253C40.8068 207.808 41.3157 206.407 42.2493 205.301C42.439 205.078 42.7957 205.361 42.6057 205.584C41.7344 206.613 41.2605 207.918 41.2694 209.264C41.2784 210.61 41.7696 211.908 42.6545 212.925C42.8465 213.146 42.4765 213.412 42.2856 213.192Z" fill="white"/>
<path d="M36.624 224.321C39.5769 224.573 42.5167 223.707 44.8573 221.894C45.089 221.714 45.3566 222.082 45.1252 222.262C42.686 224.144 39.6248 225.039 36.5526 224.77C36.2598 224.744 36.3328 224.295 36.624 224.321Z" fill="white"/>
<path d="M53.2101 205.664C53.4865 206.164 53.8833 206.588 54.3647 206.898C54.8462 207.208 55.3973 207.394 55.9685 207.439C56.2615 207.461 56.1882 207.91 55.8971 207.888C55.2662 207.835 54.6578 207.629 54.1251 207.288C53.5924 206.947 53.1516 206.481 52.8412 205.931C52.8075 205.882 52.7941 205.821 52.8034 205.762C52.8128 205.703 52.8444 205.65 52.8917 205.613C52.9407 205.578 53.0017 205.564 53.0613 205.573C53.1209 205.583 53.1744 205.615 53.2101 205.664Z" fill="white"/>
<path d="M145.036 28.2042L54.2658 19.3021C53.2143 19.1932 52.1981 18.8625 51.2848 18.3317C50.3424 17.785 49.5071 17.0726 48.8193 16.2292C47.3406 14.4262 46.5294 12.1707 46.522 9.84173C46.5211 9.27445 46.5717 8.70826 46.6732 8.15009C46.7704 7.61544 46.919 7.09134 47.1169 6.58507C47.3085 6.09522 47.5498 5.62622 47.8373 5.18541C48.12 4.75232 48.4489 4.35097 48.8181 3.98834C49.1773 3.63509 49.5754 3.32348 50.0049 3.05946C50.8408 2.54558 51.7859 2.23403 52.7643 2.14976C53.2645 2.107 53.7678 2.11987 54.2651 2.18813L145.036 14.4305C145.729 14.5331 146.385 14.8071 146.944 15.2274C147.557 15.6858 148.081 16.2516 148.49 16.8972C148.946 17.6082 149.295 18.3822 149.526 19.1943C149.778 20.0689 149.905 20.9743 149.905 21.8842C149.905 22.3276 149.874 22.7704 149.812 23.2094C149.753 23.6278 149.663 24.041 149.541 24.4457C149.425 24.8308 149.277 25.2056 149.098 25.566C148.927 25.9102 148.724 26.2374 148.491 26.5432C148.273 26.8299 148.025 27.0919 147.75 27.3248C147.495 27.5404 147.214 27.7235 146.914 27.8696C146.331 28.1531 145.681 28.2688 145.036 28.2038L145.036 28.2042Z" fill="#E4E4E4"/>
<path d="M104.691 24.2477L54.2659 19.3021C53.2143 19.1932 52.1981 18.8625 51.2847 18.3318C50.3424 17.785 49.5071 17.0726 48.8193 16.2292C47.3406 14.4262 46.5294 12.1707 46.522 9.84173C46.5211 9.27445 46.5717 8.70827 46.6732 8.15009C46.7704 7.61544 46.919 7.09135 47.1169 6.58507C47.3084 6.09522 47.5498 5.62622 47.8373 5.18542C48.12 4.75232 48.4489 4.35097 48.8181 3.98834C49.1773 3.63509 49.5754 3.32348 50.0049 3.05946C50.8409 2.54558 51.7859 2.23403 52.7643 2.14976C53.2645 2.107 53.7678 2.11987 54.2651 2.18813L104.69 8.99035L104.691 24.2477Z" fill="#374A5E"/>
<path d="M104.562 25.3714C104.329 25.3472 104.105 25.2683 103.908 25.1412C103.701 25.0077 103.52 24.8369 103.375 24.6375C103.217 24.422 103.095 24.1827 103.013 23.9288C102.925 23.6585 102.88 23.3759 102.88 23.0916V9.722C102.878 9.44788 102.923 9.17544 103.013 8.91628C103.092 8.68704 103.215 8.47529 103.375 8.2928C103.521 8.12489 103.704 7.99347 103.91 7.90912C104.117 7.82703 104.343 7.80057 104.564 7.83239C104.797 7.86681 105.02 7.95423 105.214 8.08792C105.421 8.23024 105.6 8.40826 105.743 8.61355C105.898 8.83296 106.019 9.07498 106.1 9.33104C106.187 9.60106 106.231 9.88282 106.231 10.1663V23.4281C106.233 23.7021 106.188 23.9744 106.1 24.2338C106.022 24.4655 105.901 24.6805 105.743 24.8677C105.599 25.0394 105.418 25.1765 105.213 25.2686C105.008 25.3582 104.784 25.3936 104.562 25.3714Z" fill="#3F3D56"/>
<path d="M23.899 14.3971C23.8092 14.3879 23.7201 14.3727 23.6323 14.3515C23.5425 14.3297 23.4542 14.302 23.368 14.2686C23.2793 14.2343 23.193 14.1945 23.1094 14.1493C23.0229 14.1025 22.9394 14.0505 22.8593 13.9935C22.3749 13.6494 22.0301 13.1438 21.8872 12.5681C21.8399 12.3767 21.816 12.1802 21.8161 11.983V1.94372C21.8154 1.75231 21.8393 1.5616 21.8872 1.37626C21.9323 1.20128 22.0016 1.03341 22.0931 0.877474C22.2726 0.572834 22.5396 0.328909 22.8597 0.177264C23.0205 0.100561 23.1918 0.0479424 23.368 0.021108C23.5439 -0.00539643 23.7227 -0.00694983 23.899 0.0165006C24.0812 0.0408776 24.2594 0.0891293 24.4289 0.159999C24.6083 0.235035 24.7779 0.331672 24.9338 0.447757L32.9755 6.40435C33.1192 6.51098 33.2508 6.63294 33.368 6.76807C33.6001 7.03563 33.7721 7.3496 33.8725 7.6889C33.9228 7.85905 33.9544 8.03414 33.9667 8.21109C33.9667 8.2252 33.9676 8.2393 33.9694 8.25329C33.9712 8.2673 33.9712 8.28149 33.9694 8.2955V8.38029C33.9701 8.56719 33.9473 8.75343 33.9017 8.9347C33.8586 9.10556 33.7926 9.26985 33.7055 9.42312C33.6208 9.5717 33.5152 9.70738 33.3918 9.82599C33.2685 9.94508 33.1282 10.0454 32.9755 10.1237L24.933 14.2064C24.8529 14.247 24.77 14.2818 24.6848 14.3104C24.6008 14.3387 24.5149 14.3609 24.4278 14.3768C24.3408 14.3926 24.2528 14.4022 24.1645 14.4056C24.0759 14.4089 23.9872 14.4061 23.899 14.3971Z" fill="#CACACA"/>
<path d="M145.054 71.9189L54.2931 73.6255C53.2652 73.6445 52.2463 73.4319 51.3123 73.0036C50.3759 72.5713 49.5371 71.954 48.8469 71.1891C48.1217 70.3877 47.5526 69.4586 47.1687 68.4493C46.3437 66.2719 46.3437 63.8691 47.1687 61.6916C47.5527 60.6822 48.1218 59.7528 48.8469 58.951C49.5371 58.1855 50.3758 57.5675 51.3123 57.1343C52.2462 56.7054 53.2651 56.4922 54.2931 56.5104L145.054 58.146C145.73 58.1632 146.389 58.362 146.962 58.7216C147.573 59.1066 148.099 59.6123 148.507 60.2075C148.967 60.8729 149.317 61.6076 149.543 62.3834C150.048 64.1114 150.048 65.947 149.543 67.675C149.317 68.4512 148.967 69.1862 148.507 69.852C148.1 70.4488 147.574 70.956 146.962 71.3426C146.39 71.7024 145.73 71.9014 145.054 71.9189Z" fill="#E4E4E4"/>
<path d="M89.7673 72.9587L54.293 73.6255C53.2652 73.6445 52.2463 73.4319 51.3123 73.0036C50.3759 72.5713 49.5371 71.954 48.8469 71.1892C48.1217 70.3877 47.5526 69.4586 47.1687 68.4493C46.7571 67.3703 46.5473 66.2251 46.55 65.0707C46.5496 64.4976 46.6002 63.9256 46.7012 63.3614C46.7998 62.8103 46.9483 62.2693 47.1449 61.745C47.3382 61.2291 47.5794 60.7324 47.8652 60.2613C48.149 59.7936 48.4773 59.3543 48.8457 58.9495C49.2042 58.5542 49.6018 58.1959 50.0325 57.8802C50.4464 57.5771 50.8915 57.3186 51.36 57.109C52.2815 56.6963 53.2831 56.4919 54.293 56.5104L89.7673 57.1496V72.9587Z" fill="#374A5E"/>
<path d="M90.1817 73.9584C89.9394 73.9634 89.6995 73.9094 89.4829 73.8011C89.2622 73.6897 89.0672 73.5337 88.9103 73.343C88.7407 73.1378 88.6095 72.9039 88.5228 72.6524C88.4277 72.3792 88.3796 72.0921 88.3804 71.8029V57.9675C88.3795 57.6782 88.4277 57.3907 88.5228 57.1173C88.6094 56.8658 88.7407 56.6319 88.9103 56.4267C89.0673 56.2366 89.2623 56.0811 89.4829 55.9701C89.6995 55.8619 89.9394 55.8079 90.1817 55.8128C90.4254 55.8187 90.6642 55.8826 90.8782 55.9993C91.0975 56.1194 91.2905 56.2821 91.4458 56.4777C91.6126 56.687 91.7419 56.9235 91.8279 57.1768C91.9212 57.4499 91.9686 57.7365 91.968 58.0251V71.7454C91.9686 72.0339 91.9212 72.3206 91.8279 72.5937C91.7419 72.8471 91.6126 73.0837 91.4458 73.2931C91.2906 73.4891 91.0976 73.652 90.8782 73.7724C90.6642 73.8889 90.4254 73.9527 90.1817 73.9584Z" fill="#3F3D56"/>
<path d="M23.9297 72.2691C23.7505 72.2717 23.5718 72.2494 23.3987 72.2028C23.3106 72.1791 23.2242 72.1493 23.1401 72.1137C23.0541 72.0772 22.9706 72.0349 22.8904 71.9871C22.7296 71.892 22.5823 71.7759 22.4525 71.6418C22.324 71.5084 22.2136 71.3588 22.1242 71.1967C22.0335 71.0323 21.9644 70.8569 21.9184 70.6749C21.8707 70.4868 21.8468 70.2935 21.8472 70.0994V60.0601C21.8468 59.8661 21.8707 59.6727 21.9184 59.4846C21.9644 59.3029 22.0336 59.1278 22.1242 58.9636C22.304 58.6364 22.5688 58.3635 22.8908 58.1736C23.0494 58.0782 23.2205 58.005 23.3991 57.956C23.7471 57.8621 24.1145 57.8673 24.4596 57.971C24.6373 58.0245 24.807 58.1015 24.9641 58.2L33.0066 63.2163L33.0354 63.2347L33.0643 63.2535L33.0928 63.2727L33.1209 63.2922C33.25 63.3853 33.3679 63.4929 33.4722 63.613C33.5764 63.7326 33.6667 63.8634 33.7416 64.0032C33.817 64.1447 33.8768 64.2941 33.9197 64.4486C33.9639 64.6075 33.991 64.7705 34.0005 64.9351V65.0752C34.0009 65.2646 33.9781 65.4533 33.9328 65.6373C33.8889 65.8151 33.823 65.9867 33.7366 66.1483C33.6514 66.3075 33.5461 66.4551 33.4233 66.5876C33.2992 66.7207 33.1581 66.8368 33.0035 66.9329L24.9641 71.958C24.8846 72.0078 24.8018 72.0523 24.7163 72.0911C24.6329 72.129 24.547 72.1611 24.4592 72.1874C24.373 72.2132 24.285 72.2331 24.196 72.2469C24.1079 72.2604 24.0189 72.2679 23.9297 72.2691Z" fill="#CACACA"/>
<path d="M145.036 115.487L54.2656 127.767C53.2796 127.909 52.2741 127.82 51.3286 127.507C50.3831 127.194 49.5238 126.665 48.8187 125.964C48.0891 125.24 47.5176 124.374 47.1402 123.42C46.7246 122.367 46.5147 121.245 46.5218 120.114C46.5293 117.785 47.3404 115.529 48.8191 113.726C49.5069 112.882 50.3422 112.169 51.2845 111.622C52.1979 111.091 53.2141 110.76 54.2656 110.651L145.036 101.713C145.693 101.648 146.354 101.769 146.944 102.065C147.553 102.377 148.082 102.825 148.49 103.374C148.954 103.993 149.304 104.689 149.526 105.429C149.782 106.273 149.909 107.15 149.905 108.031C149.905 108.941 149.778 109.846 149.526 110.721C149.295 111.533 148.946 112.307 148.49 113.018C148.081 113.664 147.557 114.23 146.944 114.689C146.385 115.11 145.729 115.384 145.036 115.487Z" fill="#E4E4E4"/>
<path d="M130.764 117.417L54.2658 127.767C53.2797 127.908 52.2742 127.819 51.3287 127.506C50.3832 127.193 49.5239 126.665 48.8188 125.963C48.0892 125.24 47.5177 124.374 47.1403 123.419C46.7249 122.367 46.515 121.246 46.5219 120.115C46.5221 119.536 46.5727 118.959 46.6731 118.389C46.9736 116.676 47.7124 115.069 48.818 113.724C49.1767 113.288 49.5738 112.884 50.0048 112.518C50.4166 112.168 50.8611 111.857 51.332 111.591C51.7868 111.334 52.2666 111.124 52.7639 110.963C53.2515 110.806 53.7546 110.701 54.2646 110.651L130.764 103.118V117.417Z" fill="#374A5E"/>
<path d="M23.8986 129.948C23.8102 129.96 23.7211 129.965 23.632 129.965C23.5436 129.964 23.4554 129.957 23.368 129.944C23.1917 129.917 23.0204 129.864 22.8596 129.788C22.5394 129.636 22.2723 129.391 22.0931 129.086C22.0016 128.93 21.9323 128.762 21.8872 128.587C21.8395 128.403 21.8155 128.213 21.816 128.022V117.981C21.816 117.784 21.84 117.588 21.8872 117.397C22.0303 116.822 22.3752 116.316 22.8596 115.972C23.0169 115.859 23.1877 115.767 23.368 115.696C23.5385 115.63 23.7171 115.587 23.899 115.568C24.0757 115.55 24.2541 115.556 24.4289 115.588C24.6043 115.62 24.7741 115.677 24.933 115.758L32.9755 119.837L33.0047 119.852L33.0336 119.868L33.062 119.884L33.0901 119.901C33.2121 119.974 33.3246 120.063 33.4249 120.164C33.5249 120.265 33.6125 120.377 33.6858 120.499C33.7607 120.623 33.8213 120.755 33.8663 120.893C33.9133 121.038 33.9448 121.186 33.9602 121.337C33.9622 121.357 33.964 121.377 33.9656 121.397C33.9671 121.417 33.9684 121.437 33.9694 121.458C33.9694 121.478 33.9702 121.498 33.9717 121.519C33.9733 121.539 33.9733 121.56 33.9717 121.58C33.9717 121.773 33.949 121.964 33.904 122.151C33.8157 122.522 33.6428 122.868 33.3988 123.161C33.2738 123.309 33.1317 123.442 32.9755 123.557L24.933 129.516C24.8536 129.575 24.7707 129.629 24.6848 129.678C24.6018 129.726 24.516 129.768 24.4277 129.805C24.342 129.84 24.2541 129.87 24.1645 129.895C24.0772 129.918 23.9884 129.936 23.8986 129.948Z" fill="#CACACA"/>
<path d="M130.212 107.146C130.772 107.065 131.342 107.108 131.884 107.272C132.425 107.435 132.924 107.715 133.346 108.091C133.767 108.467 134.1 108.931 134.323 109.45C134.545 109.969 134.65 110.53 134.631 111.094L147.464 116.019L141.65 120.161L130.355 114.849C129.407 114.754 128.527 114.316 127.881 113.618C127.236 112.92 126.869 112.01 126.852 111.061C126.834 110.111 127.166 109.188 127.786 108.467C128.405 107.745 129.268 107.275 130.212 107.146H130.212Z" fill="#FFB6B6"/>
<path d="M178.939 104.728L181.11 108.664C180.586 111.16 179.23 113.406 177.263 115.036C173.939 117.832 156.559 128.242 156.559 128.242L134.617 117.259L138.455 112.173L155.682 117.929L165.4 108.78L178.939 104.728Z" fill="#3F3D56"/>
<path d="M180.933 166.442L178.664 166.869L192.345 239.261L194.614 238.835L180.933 166.442Z" fill="#CACACA"/>
<path d="M158.35 238.835L160.619 239.261L174.299 166.869L172.03 166.442L158.35 238.835Z" fill="#CACACA"/>
<path d="M174.902 169.853C184.36 169.853 192.026 167.362 192.026 164.29C192.026 161.217 184.36 158.726 174.902 158.726C165.445 158.726 157.778 161.217 157.778 164.29C157.778 167.362 165.445 169.853 174.902 169.853Z" fill="#CACACA"/>
<path d="M138.532 234.701L133.814 234.701L131.57 216.558L138.533 216.558L138.532 234.701Z" fill="#FFB6B6"/>
<path d="M139.735 239.261L124.524 239.26V239.068C124.524 237.503 125.148 236.001 126.258 234.894C127.368 233.787 128.874 233.165 130.444 233.165H130.445L139.736 233.165L139.735 239.261Z" fill="#2F2E41"/>
<path d="M161.434 210.015L157.313 212.305L146.492 197.547L152.574 194.167L161.434 210.015Z" fill="#FFB6B6"/>
<path d="M164.711 213.413L151.424 220.798L151.331 220.63C150.566 219.263 150.378 217.648 150.807 216.142C151.236 214.636 152.248 213.362 153.619 212.599L153.62 212.599L161.735 208.089L164.711 213.413Z" fill="#2F2E41"/>
<path d="M188.229 150.688C188.229 150.688 190.517 157.754 176.482 166.691L158.407 184.649L139.625 229.443L128.475 224.459L145.622 178.824L155.649 161.319L155.94 151.82L158.407 145.125L176.3 138.794L188.229 150.688Z" fill="#2F2E41"/>
<path d="M151.53 209.721L132.874 181.678C132.018 180.387 131.638 178.84 131.802 177.301C131.965 175.762 132.661 174.327 133.769 173.244L152.658 154.822L155.861 151.628H163.027L159.667 163.991L148.008 177.168L161.486 200.947L151.53 209.721Z" fill="#2F2E41"/>
<path d="M165.24 112.265L170.862 104.244L183.706 103.214C183.706 103.214 194.748 113.587 192.739 127.246C190.73 140.904 188.806 154.333 188.806 154.333C188.806 154.333 168.796 140.137 158.406 145.125L165.24 112.265Z" fill="#3F3D56"/>
<path d="M161.424 154.112C161.524 153.557 161.744 153.03 162.07 152.569C162.396 152.108 162.819 151.724 163.31 151.443C163.801 151.163 164.348 150.994 164.911 150.947C165.475 150.9 166.042 150.977 166.573 151.172L175.3 140.576L177.414 147.383L168.802 156.401C168.414 157.268 167.72 157.963 166.853 158.354C165.985 158.746 165.003 158.806 164.094 158.524C163.184 158.242 162.41 157.637 161.918 156.824C161.426 156.011 161.25 155.046 161.424 154.112Z" fill="#FFB6B6"/>
<path d="M172.411 153.424L168.567 147.888L179.482 133.377L173.859 121.364L174.269 107.074L178.915 106.219L178.973 106.247C181.232 107.544 182.978 109.572 183.921 111.994C185.08 114.884 187.668 125.73 189.107 131.937C189.39 133.14 189.359 134.396 189.017 135.583C188.676 136.771 188.035 137.852 187.156 138.722L172.411 153.424Z" fill="#3F3D56"/>
<path d="M182.21 97.224C184.711 93.0285 183.328 87.6055 179.12 85.1116C174.912 82.6176 169.473 83.9969 166.972 88.1925C164.47 92.388 165.854 97.8109 170.062 100.305C174.27 102.799 179.708 101.42 182.21 97.224Z" fill="#FFB6B6"/>
<path d="M180.257 89.535C180.164 90.8183 181.371 95.5502 181.371 95.5502C182.256 94.0663 180.866 98.9977 180.866 98.9977C195.385 88.9068 183.913 78.7689 179.425 79.6701C179.519 78.3868 175.859 78.8952 175.859 78.8952C174.464 76.7298 171.408 79.6041 171.408 79.6041L171.998 78.6149C169.625 79.2167 167.28 86.5288 167.28 86.5288C168.084 89.6834 180.351 88.2518 180.257 89.535Z" fill="#2F2E41"/>
<path d="M130.423 118.377C130.229 118.405 130.03 118.379 129.849 118.3C129.666 118.219 129.505 118.095 129.38 117.939C129.237 117.765 129.129 117.565 129.06 117.351C128.982 117.106 128.943 116.851 128.945 116.594V104.062C128.944 103.796 128.983 103.532 129.06 103.278C129.132 103.042 129.24 102.818 129.38 102.615C129.505 102.43 129.665 102.271 129.85 102.145C130.02 102.028 130.218 101.956 130.423 101.934C130.619 101.915 130.817 101.95 130.995 102.035C131.177 102.124 131.337 102.254 131.461 102.414C131.601 102.592 131.708 102.795 131.775 103.011C131.853 103.255 131.892 103.51 131.891 103.766V116.203C131.891 116.468 131.852 116.732 131.775 116.986C131.705 117.223 131.599 117.449 131.461 117.656C131.337 117.845 131.179 118.01 130.995 118.143C130.826 118.266 130.63 118.346 130.423 118.377Z" fill="#3F3D56"/>
<path d="M249.542 239.623H0.458196C0.336908 239.623 0.220704 239.575 0.135065 239.489C0.0494252 239.403 0.00134277 239.287 0.00134277 239.166C0.00134277 239.045 0.0494252 238.929 0.135065 238.843C0.220704 238.758 0.336908 238.709 0.458196 238.709H249.542C249.663 238.709 249.78 238.757 249.866 238.843C249.952 238.929 250 239.045 250 239.166C250 239.287 249.952 239.404 249.866 239.489C249.78 239.575 249.663 239.623 249.542 239.623Z" fill="#CACACA"/>
</g>
<defs>
<clipPath id="clip0">
<rect width="250" height="239.623" fill="white"/>
</clipPath>
</defs>
</svg>
