<svg width="14" height="14" viewBox="0 0 14 14" fill="none" xmlns="http://www.w3.org/2000/svg">
<path d="M13.9341 0.510459C13.8506 0.309281 13.6907 0.149412 13.4895 0.0658657C13.3906 0.0236779 13.2843 0.00130084 13.1767 0H9.88339C9.66503 0 9.45562 0.0867426 9.30122 0.241145C9.14681 0.395548 9.06007 0.604963 9.06007 0.823322C9.06007 1.04168 9.14681 1.2511 9.30122 1.4055C9.45562 1.5599 9.66503 1.64664 9.88339 1.64664H11.1925L9.2165 3.62262C8.04979 2.74944 6.5956 2.35066 5.14669 2.50657C3.69777 2.66247 2.36171 3.36148 1.40746 4.46287C0.453208 5.56427 -0.048375 6.98627 0.00368158 8.44262C0.0557382 9.89897 0.657569 11.2815 1.68802 12.312C2.71847 13.3424 4.10103 13.9443 5.55738 13.9963C7.01373 14.0484 8.43573 13.5468 9.53713 12.5925C10.6385 11.6383 11.3375 10.3022 11.4934 8.85331C11.6493 7.4044 11.2506 5.95022 10.3774 4.7835L12.3534 2.80753V4.11661C12.3534 4.33497 12.4401 4.54438 12.5945 4.69879C12.7489 4.85319 12.9583 4.93993 13.1767 4.93993C13.395 4.93993 13.6045 4.85319 13.7589 4.69879C13.9133 4.54438 14 4.33497 14 4.11661V0.823322C13.9987 0.715732 13.9763 0.609441 13.9341 0.510459ZM8.64841 11.1148C8.07602 11.6988 7.3427 12.0991 6.54193 12.2646C5.74117 12.4301 4.90925 12.3534 4.15224 12.0443C3.39523 11.7352 2.74744 11.2076 2.29146 10.5288C1.83547 9.85008 1.59195 9.05091 1.59195 8.23322C1.59195 7.41552 1.83547 6.61635 2.29146 5.9376C2.74744 5.25885 3.39523 4.73127 4.15224 4.42214C4.90925 4.113 5.74117 4.03631 6.54193 4.20185C7.3427 4.36738 8.07602 4.76764 8.64841 5.35159C9.40268 6.1211 9.82517 7.15568 9.82517 8.23322C9.82517 9.31075 9.40268 10.3453 8.64841 11.1148Z" fill="#374A5E"/>
</svg>
