<svg width="20" height="20" viewBox="0 0 20 20" fill="none" xmlns="http://www.w3.org/2000/svg">
<path d="M12.0392 0.917515C11.7558 0.778943 11.4187 0.811145 11.1667 1.00085L4.7225 5.83418H0.833333C0.373096 5.83418 0 6.20728 0 6.66752V13.3342C0 13.7944 0.373096 14.1675 0.833333 14.1675H4.7225L11.1667 19.0008C11.3109 19.109 11.4864 19.1675 11.6667 19.1675C12.1269 19.1675 12.5 18.7944 12.5 18.3342V1.66752C12.5017 1.35016 12.3231 1.05937 12.0392 0.917515Z" fill="#374A5E"/>
<path d="M15.2026 6.46499L14.6134 5.87582L13.4351 7.05416L14.0242 7.64332C15.3255 8.94499 15.3255 11.055 14.0242 12.3567L13.4351 12.9458L14.6134 14.1258L15.2026 13.5367C17.1528 11.5828 17.1528 8.41882 15.2026 6.46499Z" fill="#374A5E"/>
<path d="M16.97 3.51834L15.7916 4.69667L16.3808 5.28584C18.9799 7.89126 18.9799 12.1088 16.3808 14.7142L15.7916 15.3033L16.97 16.4817L17.5591 15.8925C20.8085 12.6358 20.8085 7.36341 17.5591 4.10667L16.97 3.51834Z" fill="#374A5E"/>
</svg>
