<svg width="66" height="66" viewBox="0 0 66 66" fill="none" xmlns="http://www.w3.org/2000/svg">
<g filter="url(#filter0_d)">
<path d="M33 44C26.9247 44 22 39.0753 22 33C22 26.9247 26.9247 22 33 22C39.0753 22 44 26.9247 44 33C44 39.0753 39.0753 44 33 44ZM33 41.8C35.3339 41.8 37.5722 40.8729 39.2225 39.2225C40.8729 37.5722 41.8 35.3339 41.8 33C41.8 30.6661 40.8729 28.4278 39.2225 26.7775C37.5722 25.1271 35.3339 24.2 33 24.2C30.6661 24.2 28.4278 25.1271 26.7775 26.7775C25.1271 28.4278 24.2 30.6661 24.2 33C24.2 35.3339 25.1271 37.5722 26.7775 39.2225C28.4278 40.8729 30.6661 41.8 33 41.8ZM34.1 33H38.5V35.2H31.9V27.5H34.1V33Z" fill="#374A5E"/>
</g>
<defs>
<filter id="filter0_d" x="0" y="0" width="66" height="66" filterUnits="userSpaceOnUse" color-interpolation-filters="sRGB">
<feFlood flood-opacity="0" result="BackgroundImageFix"/>
<feColorMatrix in="SourceAlpha" type="matrix" values="0 0 0 0 0 0 0 0 0 0 0 0 0 0 0 0 0 0 127 0" result="hardAlpha"/>
<feOffset/>
<feGaussianBlur stdDeviation="11"/>
<feColorMatrix type="matrix" values="0 0 0 0 0.12549 0 0 0 0 0.552941 0 0 0 0 0.996078 0 0 0 0.08 0"/>
<feBlend mode="normal" in2="BackgroundImageFix" result="effect1_dropShadow"/>
<feBlend mode="normal" in="SourceGraphic" in2="effect1_dropShadow" result="shape"/>
</filter>
</defs>
</svg>
