<svg width="15" height="17" viewBox="0 0 15 17" fill="none" xmlns="http://www.w3.org/2000/svg">
<path fill-rule="evenodd" clip-rule="evenodd" d="M2.25 16.5C1.00782 16.4989 0.00110269 15.4922 0 14.25V3.75C0.00165264 2.50804 1.00804 1.50165 2.25 1.5H3.75V0.75C3.75 0.335786 4.08579 0 4.5 0C4.91421 0 5.25 0.335786 5.25 0.75V1.5H9.75V0.75C9.75 0.335786 10.0858 0 10.5 0C10.9142 0 11.25 0.335786 11.25 0.75V1.5H12.75C13.992 1.50165 14.9983 2.50804 15 3.75V14.25C14.9989 15.4922 13.9922 16.4989 12.75 16.5H2.25ZM1.5 14.25C1.5 14.6642 1.83579 15 2.25 15H12.75C13.1642 15 13.5 14.6642 13.5 14.25V7.5H1.5V14.25ZM13.5 3.75V6H1.5V3.751C1.5 3.33662 1.83562 3.00055 2.25 3H3.75V3.75C3.75 4.16421 4.08579 4.5 4.5 4.5C4.91421 4.5 5.25 4.16421 5.25 3.75V3H9.75V3.75C9.75 4.16421 10.0858 4.5 10.5 4.5C10.9142 4.5 11.25 4.16421 11.25 3.75V3H12.75C13.164 3.00055 13.4994 3.33601 13.5 3.75Z" fill="#B3B9C5"/>
</svg>
