<svg width="319" height="52" viewBox="0 0 319 52" fill="none" xmlns="http://www.w3.org/2000/svg">
<path d="M0 1.24611H6.92754V25.3601L32.2696 1.24611H41.954L20.3231 21.2176L42.5549 50.7539H33.648L15.3396 25.7979L6.92754 33.5104V50.7539H0V1.24611Z" fill="white"/>
<path d="M53.8036 25.9326C53.8036 29.0311 54.2159 31.8377 55.0406 34.3523C55.8653 36.8446 57.0199 38.9663 58.5044 40.7176C60.0125 42.4689 61.815 43.8273 63.9121 44.7927C66.0328 45.7358 68.3656 46.2073 70.9104 46.2073C73.1253 46.2073 75.1046 45.8256 76.8483 45.0622C78.6155 44.2988 80.1353 43.2997 81.4077 42.0648C82.6801 40.8074 83.7051 39.3929 84.4827 37.8212C85.2603 36.2496 85.7787 34.6554 86.0378 33.0389H90.2403C90.0989 34.4758 92.2821 35.9465 91.7637 37.4508C91.2688 38.9326 90.5855 40.3808 89.7137 41.7953C88.8654 43.1874 87.8404 44.5121 86.6387 45.7694C85.437 47.0043 84.0468 48.082 82.468 49.0026C80.9129 49.9231 79.1692 50.6529 77.237 51.1917C75.3049 51.7306 73.196 52 70.9104 52C69.3316 52 67.6351 51.8428 65.8207 51.5285C64.03 51.2142 62.2392 50.6865 60.4484 49.9456C58.6811 49.2047 56.9728 48.2168 55.3234 46.9819C53.6976 45.7245 52.2602 44.1529 51.0114 42.2668C49.7625 40.3808 48.7611 38.158 48.0071 35.5984C47.2531 33.0164 46.876 30.019 46.876 26.6062C46.876 23.2608 47.2059 20.2746 47.8657 17.6477C48.549 15.0207 49.468 12.7306 50.6226 10.7772C51.8007 8.80138 53.1674 7.12867 54.7225 5.75907C56.3013 4.38946 57.986 3.27807 59.7768 2.42487C61.5676 1.57168 63.4291 0.954231 65.3613 0.572539C67.2934 0.190846 69.2138 0 71.1224 0C73.4787 0 75.623 0.235751 77.5551 0.707254C79.5109 1.1563 81.2545 1.78497 82.7861 2.59326C84.3413 3.3791 85.6962 4.29965 86.8508 5.35492C88.0054 6.41019 88.9714 7.53281 89.749 8.7228C90.5502 9.89033 91.1628 11.0915 91.5869 12.3264C92.0346 13.5613 92.3056 14.7625 92.3999 15.9301H85.6137C85.166 14.3359 84.5062 12.9102 83.6344 11.6529C82.7626 10.3955 81.7022 9.34024 80.4534 8.48705C79.2281 7.6114 77.8379 6.94905 76.2827 6.5C74.7511 6.0285 73.1017 5.79275 71.3345 5.79275C68.6719 5.79275 66.2567 6.26425 64.0889 7.20725C61.9446 8.15026 60.1067 9.49741 58.5751 11.2487C57.0435 13 55.8653 15.1218 55.0406 17.614C54.2159 20.0838 53.8036 22.8567 53.8036 25.9326Z" fill="white"/>
<path d="M97.4466 1.24611H139.719V7.03886H122.046V50.7539H115.084V7.03886H97.4466V1.24611Z" fill="white"/>
<path d="M225.457 1.24611H267.73V7.03886H250.057V50.7539H243.094V7.03886H225.457V1.24611Z" fill="white"/>
<path d="M277.47 1.24611H284.398V41.2902H284.539L310.977 1.24611H319V50.7539H312.037V10.4741H311.896L285.493 50.7539H277.47V1.24611Z" fill="white"/>
<path d="M202.18 44.3979C205.424 44.3979 208.68 43.3724 211.95 41.3213C215.304 39.1874 218.151 36.4027 220.305 33.1485L221.087 33.4483C218.847 37.6099 215.799 41.3259 212.104 44.3979C208.464 47.3956 205.161 48.8945 202.196 48.8945C201.383 48.9365 200.57 48.8181 199.806 48.5466C199.043 48.2752 198.347 47.8566 197.76 47.3168C196.692 46.2649 196.153 44.8134 196.153 42.9674C196.153 39.7698 198.721 34.9962 203.859 28.6466C190.883 34.1968 178.343 39.0195 166.237 43.1147C154.131 47.2099 145.174 49.2592 139.365 49.2627C135.49 49.2627 133.554 48.3125 133.558 46.4122C133.558 44.1156 136.213 40.9426 141.523 36.893C146.833 32.8434 153.319 29.183 160.981 25.9118C168.642 22.6336 175.299 20.9962 180.95 20.9997C183.884 20.9642 186.794 21.5011 189.504 22.5775C192.072 23.6293 193.876 24.6549 194.914 25.6541L196.406 27.2319L195.701 27.6842C195.283 27.2845 194.694 26.7726 193.934 26.1485C193.175 25.5244 191.514 24.6987 188.953 23.6714C186.367 22.6424 183.591 22.1202 180.79 22.1357C176.754 22.1357 172.073 23.0473 166.749 24.8705C161.71 26.5644 156.85 28.711 152.234 31.2815C148.331 33.4443 144.618 35.9067 141.132 38.6444C138.072 41.0987 136.541 42.9236 136.541 44.1192C136.541 44.8204 137.43 45.171 139.206 45.171C144.857 45.171 154.03 43.4179 166.727 39.9118C179.845 36.2758 192.734 31.921 205.328 26.869C209.567 21.722 212.155 18.2159 213.095 16.3506C213.705 15.2632 214.055 14.0595 214.119 12.8269C214.119 8.61956 207.945 6.51588 195.597 6.51588C185.946 6.56132 176.329 7.61951 166.92 9.6714C157.063 11.7751 148.341 14.5485 140.752 17.9915L140.438 17.2394C160.988 7.34859 178.983 2.40146 194.424 2.39795C201.272 2.39795 206.462 3.24817 209.996 4.94865C213.53 6.64912 215.295 8.94738 215.291 11.8434C215.291 13.7438 214.612 15.8054 213.254 18.0283C211.483 20.813 209.518 23.4802 207.37 26.0118C212.599 23.9081 217.542 21.7588 222.199 19.564L222.59 20.2424C219.5 21.743 213.955 24.2411 205.956 27.7367C204.121 29.9351 202.736 31.6338 201.8 32.8329C200.755 34.1866 199.822 35.6162 199.009 37.1087C198.096 38.7548 197.639 40.1327 197.639 41.2319C197.628 43.325 199.141 44.3804 202.18 44.3979Z" fill="white"/>
<path fill-rule="evenodd" clip-rule="evenodd" d="M140.514 17.2676L140.784 17.9147C148.363 14.4817 157.071 11.7158 166.906 9.61665C176.319 7.56385 185.94 6.50519 195.596 6.45973L195.596 6.45972C201.772 6.45973 206.411 6.9856 209.508 8.04081C211.056 8.56852 212.224 9.22997 213.004 10.0278C213.786 10.827 214.178 11.7611 214.178 12.8278V12.8292L214.178 12.8306C214.114 14.0712 213.762 15.2827 213.147 16.3773C212.204 18.2494 209.611 21.7601 205.375 26.9051L205.365 26.9167L205.351 26.9224C192.754 31.9753 179.864 36.3308 166.743 39.9674C154.046 43.4736 144.865 45.2289 139.205 45.2289C138.315 45.2289 137.639 45.1412 137.184 44.9616C136.956 44.8715 136.78 44.757 136.661 44.6159C136.541 44.4739 136.481 44.3078 136.481 44.12C136.481 43.5017 136.875 42.7334 137.642 41.819C138.41 40.9024 139.561 39.8299 141.093 38.6016L141.093 38.6012C144.582 35.8616 148.297 33.3975 152.203 31.2331C156.822 28.6608 161.685 26.5127 166.728 24.8176C172.057 22.9931 176.744 22.0796 180.79 22.0796C180.79 22.0796 180.79 22.0796 180.79 22.0796L180.79 22.1366L180.789 22.0796C180.789 22.0796 180.789 22.0796 180.79 22.0796C183.599 22.064 186.382 22.5877 188.975 23.6196L188.976 23.6197C191.536 24.6466 193.205 25.4754 193.973 26.1062C194.712 26.7135 195.291 27.2154 195.708 27.6115L195.667 27.6377L195.701 27.685L195.743 27.6448C195.731 27.6337 195.72 27.6227 195.708 27.6115L196.315 27.2221L196.361 27.2709L196.405 27.2327L196.372 27.1854L196.315 27.2221L194.871 25.6951L194.914 25.655L194.869 25.6931L194.87 25.6942C193.84 24.7033 192.045 23.6816 189.48 22.6309C189.48 22.6309 189.48 22.6309 189.48 22.631L189.503 22.5784L189.479 22.6307C189.479 22.6308 189.479 22.6308 189.48 22.6309C186.778 21.5575 183.876 21.0222 180.95 21.0576L180.949 21.0576C175.31 21.0541 168.662 22.6883 161.004 25.9647C153.346 29.2344 146.865 32.8924 141.56 36.9384C138.906 38.9619 136.919 40.7645 135.595 42.3464C134.271 43.9297 133.617 45.2844 133.617 46.413C133.616 46.8784 133.734 47.2832 133.969 47.6292C134.203 47.9754 134.557 48.2662 135.034 48.5002C135.989 48.969 137.43 49.2065 139.365 49.2065C145.162 49.203 154.111 47.1568 166.216 43.0618C178.32 38.9672 190.859 34.1451 203.834 28.5955L204.051 28.5025L203.905 28.6823C201.338 31.8556 199.414 34.6333 198.132 37.0159C196.849 39.3994 196.212 41.3827 196.212 42.9683C196.212 44.803 196.748 46.2387 197.802 47.2773C197.801 47.2771 197.801 47.2769 197.801 47.2766L197.759 47.3176L197.802 47.278C197.802 47.2778 197.802 47.2776 197.802 47.2773C198.382 47.8114 199.071 48.2255 199.827 48.4941C200.582 48.7628 201.388 48.88 202.192 48.8385L202.194 48.8384H202.196C205.14 48.8384 208.429 47.3497 212.064 44.3558L212.103 44.3988L212.064 44.3556C212.064 44.3557 212.064 44.3557 212.064 44.3558C215.737 41.3022 218.77 37.6114 221.003 33.4787L221.064 33.502L221.086 33.4491L221.033 33.4231C221.023 33.4416 221.013 33.4602 221.003 33.4787L220.329 33.22C220.338 33.2066 220.346 33.1932 220.355 33.1797L220.305 33.1493L220.282 33.2022L220.329 33.22C218.173 36.4637 215.33 39.24 211.982 41.3696L211.982 41.3698C208.705 43.4257 205.437 44.4558 202.179 44.4558L202.179 44.4558C200.654 44.447 199.501 44.178 198.73 43.6401C197.955 43.0997 197.573 42.2937 197.578 41.2324C197.578 41.2325 197.578 41.2326 197.578 41.2327H197.638L197.578 41.2324C197.578 40.1197 198.04 38.7321 198.956 37.0829C198.956 37.083 198.956 37.0831 198.956 37.0833L199.009 37.1095L198.956 37.0829C199.77 35.5879 200.704 34.1559 201.751 32.8L201.751 32.7998C202.688 31.5999 204.073 29.9006 205.908 27.7021L205.917 27.6914L205.93 27.6858C213.883 24.2108 219.408 21.722 222.507 20.2191L222.536 20.2707L222.589 20.2432L222.562 20.1924C222.544 20.2013 222.525 20.2102 222.507 20.2191L222.173 19.6402C222.19 19.6321 222.208 19.624 222.225 19.6159L222.198 19.5648L222.146 19.5923L222.173 19.6402C217.531 21.8271 212.604 23.9688 207.393 26.0651L207.173 26.1535L207.323 25.9768C209.469 23.4473 211.433 20.7823 213.202 17.9999C213.202 18.0001 213.202 18.0003 213.202 18.0005L213.254 18.0291L213.203 17.9996C213.202 17.9997 213.202 17.9998 213.202 17.9999C214.556 15.783 215.231 13.7315 215.231 11.8442C215.234 8.97644 213.489 6.69463 209.968 5.0004C206.447 3.30589 201.267 2.45582 194.424 2.45582C179.007 2.45932 161.038 7.39472 140.514 17.2676ZM140.411 17.1894C160.965 7.29635 178.969 2.34531 194.424 2.3418C201.274 2.3418 206.476 3.19218 210.022 4.89862C213.569 6.60534 215.354 8.92004 215.35 11.8444C215.35 13.7577 214.667 15.8292 213.305 18.0578L213.305 18.0587C211.574 20.7809 209.656 23.3909 207.566 25.8718C212.713 23.7967 217.581 21.6773 222.172 19.5137L222.223 19.4895L222.671 20.2673L222.616 20.294C219.527 21.7944 213.986 24.2911 205.993 27.7837C204.163 29.9766 202.781 31.6712 201.848 32.8676C200.804 34.2188 199.873 35.6459 199.062 37.1358L199.062 37.1362C198.15 38.779 197.698 40.1472 197.698 41.2327L197.698 41.233C197.692 42.2649 198.062 43.0331 198.8 43.5481C199.543 44.0655 200.666 44.333 202.179 44.3417C205.409 44.3417 208.654 43.3208 211.916 41.2747C215.263 39.1453 218.104 36.3664 220.254 33.1189L220.281 33.0787L221.169 33.4196L221.14 33.4751C218.896 37.6432 215.843 41.365 212.143 44.4417L212.143 44.4419C208.499 47.4428 205.183 48.9519 202.197 48.9524C201.376 48.9946 200.555 48.8749 199.785 48.6009C199.014 48.3267 198.31 47.9039 197.718 47.3586L197.717 47.358L197.716 47.3573C196.635 46.2923 196.092 44.8251 196.092 42.9683C196.092 41.3563 196.739 39.3539 198.025 36.9639C199.288 34.618 201.168 31.894 203.666 28.7922C190.766 34.304 178.296 39.0964 166.256 43.1693C154.15 47.2646 145.184 49.317 139.365 49.3205C137.424 49.3205 135.96 49.0829 134.979 48.6016C134.488 48.3605 134.116 48.0574 133.868 47.691C133.62 47.3244 133.497 46.8977 133.498 46.413C133.498 45.2451 134.172 43.865 135.502 42.2753C136.833 40.6841 138.828 38.8754 141.485 36.8494C146.799 32.7962 153.29 29.1334 160.955 25.8606C168.621 22.5806 175.286 20.9401 180.949 20.9436C183.891 20.908 186.809 21.4464 189.526 22.5257L189.526 22.526C192.097 23.5786 193.909 24.6076 194.956 25.6148L194.957 25.6158L194.958 25.6168L196.496 27.2433L195.693 27.7586L195.658 27.7253C195.241 27.327 194.654 26.8162 193.895 26.1925C193.143 25.5752 191.492 24.7525 188.929 23.7248C186.351 22.6988 183.583 22.1781 180.79 22.1936H180.79C176.762 22.1936 172.089 23.1032 166.769 24.925L166.768 24.9251C161.732 26.6178 156.876 28.7629 152.264 31.3316L152.264 31.3316C148.363 33.4928 144.653 35.9533 141.17 38.6889C139.641 39.9149 138.497 40.9819 137.735 41.8902C136.972 42.8008 136.601 43.5427 136.601 44.12C136.601 44.2829 136.652 44.4235 136.754 44.5444C136.857 44.6663 137.014 44.771 137.23 44.8562C137.663 45.0272 138.319 45.1148 139.205 45.1148C144.847 45.1148 154.013 43.364 166.71 39.8579C166.71 39.8579 166.71 39.8579 166.71 39.8579C179.821 36.2239 192.702 31.8718 205.29 26.8231C205.287 26.8269 205.284 26.8308 205.281 26.8347L205.328 26.8699L205.304 26.8173C205.3 26.8192 205.295 26.8211 205.29 26.8231C209.524 21.6814 212.105 18.184 213.04 16.3268L213.041 16.3257L213.041 16.3246C213.648 15.245 213.995 14.05 214.058 12.8263C214.058 12.8268 214.058 12.8273 214.058 12.8278H214.118L214.058 12.825C214.058 12.8254 214.058 12.8258 214.058 12.8263C214.058 11.7899 213.678 10.8838 212.917 10.1056C212.154 9.32567 211.006 8.67231 209.467 8.14818C206.39 7.09972 201.768 6.57376 195.596 6.57375C195.596 6.57375 195.596 6.57375 195.596 6.57375L195.596 6.51744V6.57375C195.596 6.57375 195.596 6.57375 195.596 6.57375C185.949 6.61918 176.337 7.67688 166.932 9.72783L166.932 9.72789C157.079 11.8308 148.361 14.603 140.777 18.0438L140.72 18.07L140.362 17.2129L140.411 17.1894Z" fill="white"/>
</svg>
