<svg width="252" height="43" viewBox="0 0 252 43" fill="none" xmlns="http://www.w3.org/2000/svg">
<path d="M0 1.03044H5.45855V20.9709L25.4268 1.03044H33.0576L16.0136 17.5453L33.5311 41.9696H26.513L12.0868 21.3329L5.45855 27.7105V41.9696H0V1.03044Z" fill="black"/>
<path d="M42.3945 21.4443C42.3945 24.0065 42.7194 26.3273 43.3692 28.4067C44.0191 30.4676 44.9288 32.2222 46.0985 33.6703C47.2868 35.1185 48.7071 36.2418 50.3595 37.0402C52.0305 37.82 53.8686 38.2098 55.8738 38.2098C57.619 38.2098 59.1786 37.8942 60.5525 37.263C61.945 36.6317 63.1426 35.8055 64.1451 34.7843C65.1477 33.7446 65.9554 32.5749 66.5681 31.2753C67.1808 29.9756 67.5892 28.6574 67.7935 27.3206H71.1048C70.9934 28.5089 72.7136 29.725 72.3051 30.9689C71.9152 32.1943 71.3768 33.3918 70.6898 34.5615C70.0214 35.7127 69.2138 36.8081 68.2669 37.8478C67.32 38.869 66.2246 39.7601 64.9806 40.5214C63.7552 41.2826 62.3813 41.886 60.8589 42.3316C59.3364 42.7772 57.6747 43 55.8738 43C54.6298 43 53.293 42.87 51.8634 42.6101C50.4524 42.3502 49.0413 41.9139 47.6303 41.3012C46.2378 40.6885 44.8917 39.8716 43.592 38.8504C42.311 37.8107 41.1784 36.511 40.1944 34.9514C39.2103 33.3918 38.4213 31.5538 37.8271 29.4372C37.233 27.302 36.9359 24.8234 36.9359 22.0013C36.9359 19.2349 37.1959 16.7655 37.7157 14.5933C38.2542 12.421 38.9783 10.5272 39.888 8.91192C40.8163 7.27807 41.8932 5.89486 43.1186 4.76231C44.3625 3.62975 45.6901 2.71071 47.1011 2.00518C48.5122 1.29965 49.9789 0.789076 51.5014 0.473446C53.0238 0.157815 54.537 0 56.0409 0C57.8975 0 59.5871 0.194948 61.1095 0.584845C62.6505 0.956174 64.0245 1.47604 65.2313 2.14443C66.4567 2.79426 67.5242 3.55548 68.434 4.42811C69.3438 5.30073 70.105 6.22906 70.7177 7.21308C71.3489 8.17854 71.8317 9.17185 72.1659 10.193C72.5186 11.2142 72.7322 12.2075 72.8064 13.1729H67.4593C67.1065 11.8547 66.5866 10.6757 65.8997 9.63601C65.2127 8.59629 64.3772 7.72366 63.3932 7.01813C62.4277 6.29404 61.3323 5.74633 60.1069 5.375C58.9001 4.9851 57.6005 4.79016 56.208 4.79016C54.11 4.79016 52.2069 5.18005 50.4988 5.95984C48.8092 6.73964 47.361 7.85363 46.1542 9.30181C44.9474 10.75 44.0191 12.5045 43.3692 14.5654C42.7194 16.6077 42.3945 18.9007 42.3945 21.4443Z" fill="black"/>
<path d="M76.783 1.03044H110.091V5.8206H96.1664V41.9696H90.68V5.8206H76.783V1.03044Z" fill="black"/>
<path d="M177.649 1.03044H210.957V5.8206H197.032V41.9696H191.546V5.8206H177.649V1.03044Z" fill="black"/>
<path d="M218.632 1.03044H224.091V34.1438H224.202L245.034 1.03044H251.356V41.9696H245.869V8.66127H245.758L224.954 41.9696H218.632V1.03044Z" fill="black"/>
<path d="M159.308 36.7137C161.864 36.7137 164.43 35.8656 167.006 34.1695C169.649 32.405 171.892 30.1023 173.59 27.4113L174.206 27.6592C172.441 31.1005 170.039 34.1734 167.128 36.7137C164.259 39.1926 161.657 40.432 159.321 40.432C158.68 40.4668 158.039 40.3688 157.438 40.1444C156.836 39.9199 156.287 39.5737 155.825 39.1274C154.984 38.2576 154.559 37.0573 154.559 35.5308C154.559 32.8866 156.583 28.9392 160.631 23.6886C150.407 28.2782 140.525 32.2662 130.987 35.6526C121.448 39.0389 114.39 40.7336 109.813 40.7365C106.76 40.7365 105.234 39.9507 105.237 38.3793C105.237 36.4803 107.329 33.8564 111.513 30.5077C115.697 27.159 120.808 24.1321 126.845 21.4271C132.882 18.7162 138.127 17.3623 142.58 17.3652C144.891 17.3358 147.185 17.7798 149.319 18.6699C151.343 19.5397 152.765 20.3877 153.583 21.214L154.758 22.5187L154.203 22.8927C153.873 22.5622 153.409 22.1389 152.811 21.6228C152.212 21.1068 150.904 20.4239 148.886 19.5744C146.848 18.7235 144.661 18.2917 142.454 18.3046C139.273 18.3046 135.585 19.0584 131.39 20.566C127.419 21.9667 123.59 23.7418 119.953 25.8674C116.877 27.6559 113.952 29.6921 111.205 31.9559C108.794 33.9855 107.588 35.4945 107.588 36.4832C107.588 37.063 108.288 37.353 109.687 37.353C114.14 37.353 121.368 35.9033 131.373 33.004C141.709 29.9973 151.865 26.3963 161.789 22.2186C165.128 17.9625 167.168 15.0632 167.908 13.5207C168.389 12.6215 168.665 11.6262 168.715 10.6069C168.715 7.12773 163.85 5.38815 154.121 5.38815C146.516 5.42573 138.939 6.30077 131.525 7.99752C123.758 9.7371 116.885 12.0305 110.906 14.8776L110.659 14.2557C126.85 6.07674 141.03 1.98584 153.197 1.98294C158.592 1.98294 162.682 2.68601 165.466 4.09217C168.251 5.49833 169.642 7.39882 169.639 9.79364C169.639 11.3651 169.104 13.0699 168.034 14.908C166.638 17.2107 165.09 19.4163 163.398 21.5098C167.518 19.7702 171.413 17.9929 175.082 16.1779L175.39 16.7389C172.955 17.9798 168.586 20.0456 162.283 22.9362C160.837 24.754 159.746 26.1588 159.008 27.1503C158.185 28.2697 157.45 29.4518 156.81 30.686C156.09 32.0473 155.73 33.1867 155.73 34.0956C155.721 35.8265 156.914 36.6992 159.308 36.7137Z" fill="black"/>
<path fill-rule="evenodd" clip-rule="evenodd" d="M110.718 14.279L110.931 14.8141C116.903 11.9752 123.764 9.688 131.513 7.95221C138.931 6.2547 146.512 5.37927 154.12 5.34167L154.12 5.34167C158.986 5.34167 162.641 5.77653 165.082 6.64911C166.302 7.08549 167.222 7.63245 167.837 8.29221C168.453 8.95304 168.761 9.72551 168.761 10.6076V10.6087L168.761 10.6099C168.711 11.6357 168.434 12.6376 167.95 13.5427C167.206 15.0908 165.163 17.9939 161.825 22.2484L161.817 22.258L161.806 22.2627C151.881 26.4411 141.724 30.0428 131.385 33.0499C121.381 35.9493 114.147 37.4008 109.687 37.4008C108.985 37.4008 108.453 37.3283 108.094 37.1797C107.914 37.1053 107.776 37.0106 107.682 36.8939C107.587 36.7765 107.54 36.6391 107.54 36.4838C107.54 35.9725 107.851 35.3372 108.455 34.5811C109.06 33.8231 109.967 32.9362 111.174 31.9205L111.175 31.9202C113.923 29.6548 116.851 27.6171 119.929 25.8274C123.568 23.7003 127.4 21.9239 131.374 20.5223C135.572 19.0135 139.265 18.2581 142.453 18.2581C142.453 18.2581 142.453 18.2581 142.453 18.2581L142.453 18.3052L142.453 18.2581C142.453 18.2581 142.453 18.2581 142.453 18.2581C144.667 18.2452 146.86 18.6783 148.903 19.5316L148.903 19.5316C150.921 20.3808 152.236 21.0661 152.841 21.5878C153.423 22.09 153.879 22.505 154.208 22.8326L154.176 22.8542L154.202 22.8934L154.236 22.8601C154.227 22.851 154.217 22.8418 154.208 22.8326L154.686 22.5106L154.722 22.5509L154.758 22.5193L154.731 22.4802L154.686 22.5106L153.549 21.2478L153.582 21.2147L153.547 21.2462L153.548 21.2471C152.736 20.4277 151.322 19.5828 149.3 18.714C149.3 18.714 149.301 18.714 149.301 18.7141L149.319 18.6705L149.3 18.7139C149.3 18.7139 149.3 18.7139 149.3 18.714C147.172 17.8264 144.885 17.3837 142.58 17.413L142.579 17.413C138.135 17.4101 132.897 18.7614 126.863 21.4708C120.829 24.1745 115.722 27.1995 111.542 30.5452C109.451 32.2185 107.885 33.7091 106.842 35.0172C105.799 36.3265 105.284 37.4467 105.284 38.38C105.283 38.7648 105.376 39.0995 105.561 39.3856C105.746 39.672 106.024 39.9124 106.4 40.1059C107.153 40.4936 108.288 40.69 109.812 40.69C114.381 40.6871 121.432 38.995 130.97 35.6088C140.508 32.2229 150.388 28.2354 160.611 23.6462L160.782 23.5694L160.667 23.718C158.644 26.3421 157.128 28.6391 156.118 30.6093C155.107 32.5803 154.605 34.2203 154.605 35.5314C154.605 37.0486 155.027 38.2358 155.858 39.0947C155.858 39.0945 155.857 39.0943 155.857 39.0941L155.824 39.128L155.858 39.0952C155.858 39.0951 155.858 39.0949 155.858 39.0947C156.315 39.5363 156.858 39.8788 157.453 40.1009C158.049 40.3231 158.683 40.42 159.318 40.3856L159.319 40.3856H159.32C161.64 40.3856 164.231 39.1545 167.096 36.6788L167.127 36.7143L167.096 36.6787C167.096 36.6787 167.096 36.6788 167.096 36.6788C169.99 34.1538 172.38 31.1017 174.139 27.6843L174.187 27.7036L174.205 27.6598L174.163 27.6383C174.155 27.6536 174.147 27.669 174.139 27.6843L173.608 27.4703C173.615 27.4593 173.622 27.4482 173.629 27.4371L173.589 27.4119L173.572 27.4557L173.608 27.4703C171.91 30.1527 169.669 32.4485 167.032 34.2094L167.031 34.2096C164.449 35.9097 161.874 36.7615 159.307 36.7615L159.307 36.7615C158.105 36.7542 157.197 36.5318 156.589 36.087C155.978 35.6401 155.677 34.9736 155.682 34.096C155.682 34.0961 155.682 34.0962 155.682 34.0963H155.729L155.682 34.096C155.682 33.1759 156.046 32.0285 156.767 30.6646C156.767 30.6648 156.767 30.6649 156.767 30.665L156.809 30.6867L156.767 30.6646C157.408 29.4284 158.145 28.2443 158.97 27.1231L158.97 27.1229C159.708 26.1307 160.8 24.7255 162.246 22.9075L162.253 22.8987L162.263 22.894C168.529 20.0204 172.882 17.9624 175.324 16.7196L175.348 16.7623L175.389 16.7396L175.368 16.6976C175.353 16.7049 175.339 16.7122 175.324 16.7196L175.061 16.2409C175.075 16.2342 175.088 16.2275 175.102 16.2209L175.081 16.1786L175.04 16.2013L175.061 16.2409C171.403 18.0493 167.521 19.8203 163.415 21.5538L163.242 21.6269L163.36 21.4808C165.051 19.3891 166.598 17.1853 167.993 14.8845C167.993 14.8847 167.993 14.8848 167.993 14.885L168.033 14.9087L167.993 14.8842C167.993 14.8843 167.993 14.8844 167.993 14.8845C169.06 13.0513 169.591 11.3548 169.591 9.79425C169.594 7.42281 168.219 5.53592 165.445 4.13492C162.67 2.73369 158.589 2.03075 153.196 2.03075C141.049 2.03365 126.89 6.11484 110.718 14.279ZM110.637 14.2143C126.832 6.0335 141.019 1.93936 153.196 1.93646C158.594 1.93646 162.693 2.63966 165.487 4.05076C168.282 5.46208 169.688 7.37617 169.685 9.79437C169.685 11.3765 169.147 13.0895 168.074 14.9324L168.074 14.9331C166.709 17.1842 165.199 19.3425 163.551 21.394C167.607 19.678 171.443 17.9255 175.06 16.1363L175.101 16.1163L175.454 16.7595L175.41 16.7816C172.976 18.0223 168.61 20.0869 162.312 22.975C160.87 24.7883 159.781 26.1896 159.046 27.1789C158.224 28.2963 157.49 29.4764 156.851 30.7084L156.851 30.7087C156.132 32.0673 155.776 33.1986 155.776 34.0963L155.776 34.0965C155.772 34.9498 156.063 35.5851 156.645 36.0109C157.23 36.4388 158.115 36.66 159.307 36.6672C161.852 36.6671 164.409 35.8229 166.979 34.131C169.617 32.3701 171.855 30.0722 173.549 27.3868L173.57 27.3535L174.27 27.6354L174.247 27.6814C172.479 31.128 170.074 34.2056 167.158 36.7499L167.158 36.75C164.286 39.2315 161.674 40.4794 159.321 40.4799C158.675 40.5147 158.027 40.4158 157.42 40.1892C156.813 39.9625 156.259 39.6128 155.792 39.1619L155.791 39.1614L155.791 39.1608C154.939 38.2801 154.511 37.0669 154.511 35.5314C154.511 34.1984 155.021 32.5427 156.034 30.5663C157.029 28.6264 158.51 26.3739 160.478 23.8089C150.314 28.3667 140.489 32.3297 131.002 35.6976C121.463 39.0842 114.398 40.7814 109.812 40.7843C108.283 40.7843 107.129 40.5878 106.357 40.1897C105.97 39.9904 105.677 39.7397 105.481 39.4368C105.286 39.1336 105.189 38.7807 105.189 38.3799C105.189 37.4142 105.721 36.2729 106.769 34.9584C107.818 33.6426 109.39 32.147 111.483 30.4716C115.671 27.1199 120.785 24.091 126.825 21.3847C132.865 18.6724 138.117 17.3159 142.579 17.3187C144.897 17.2893 147.196 17.7345 149.337 18.627L149.337 18.6272C151.363 19.4977 152.791 20.3486 153.616 21.1815L153.616 21.1823L153.617 21.1831L154.829 22.5281L154.196 22.9542L154.169 22.9266C153.84 22.5973 153.377 22.1749 152.779 21.6592C152.187 21.1487 150.886 20.4684 148.867 19.6186C146.835 18.7701 144.654 18.3396 142.453 18.3524H142.453C139.28 18.3524 135.597 19.1046 131.405 20.611L131.405 20.6111C127.437 22.0108 123.61 23.7847 119.976 25.9088L119.976 25.9088C116.903 27.6959 113.979 29.7306 111.235 31.9927C110.03 33.0065 109.129 33.8889 108.528 34.64C107.927 35.3929 107.634 36.0065 107.634 36.4838C107.634 36.6185 107.675 36.7348 107.755 36.8348C107.836 36.9356 107.96 37.0221 108.13 37.0926C108.471 37.234 108.989 37.3065 109.687 37.3065C114.132 37.3065 121.355 35.8587 131.359 32.9594C131.359 32.9594 131.359 32.9594 131.359 32.9594C141.69 29.9544 151.84 26.3555 161.758 22.1806C161.756 22.1838 161.753 22.187 161.751 22.1902L161.788 22.2193L161.77 22.1758C161.766 22.1774 161.762 22.179 161.758 22.1806C165.094 17.9288 167.128 15.0368 167.865 13.501L167.865 13.5001L167.866 13.4991C168.344 12.6064 168.617 11.6182 168.667 10.6063C168.667 10.6067 168.667 10.6071 168.667 10.6076H168.714L168.667 10.6053C168.667 10.6056 168.667 10.606 168.667 10.6063C168.667 9.7493 168.368 9.00006 167.768 8.35651C167.166 7.71159 166.262 7.17131 165.05 6.7379C162.625 5.8709 158.983 5.43597 154.12 5.43596C154.12 5.43596 154.12 5.43596 154.12 5.43596L154.12 5.3894V5.43596C154.12 5.43596 154.12 5.43596 154.12 5.43596C146.519 5.47353 138.945 6.34817 131.534 8.04415L131.534 8.0442C123.771 9.78315 116.901 12.0755 110.926 14.9208L110.88 14.9425L110.598 14.2337L110.637 14.2143Z" fill="black"/>
</svg>
