<svg width="1895" height="325" viewBox="0 0 1895 325" fill="none" xmlns="http://www.w3.org/2000/svg">
<path d="M0.690918 7.76577H41.8285V158.044L192.317 7.76577H249.825L121.375 132.228L253.393 316.298H200.502L91.7814 160.772L41.8285 208.836V316.298H0.690918V7.76577Z" fill="black"/>
<path d="M320.191 161.612C320.191 180.922 322.64 198.412 327.537 214.083C332.435 229.615 339.291 242.838 348.106 253.752C357.061 264.666 367.765 273.131 380.219 279.148C392.812 285.025 406.664 287.963 421.776 287.963C434.929 287.963 446.682 285.585 457.037 280.827C467.531 276.07 476.556 269.843 484.112 262.147C491.668 254.312 497.755 245.496 502.372 235.702C506.99 225.907 510.068 215.972 511.607 205.898H536.563C535.723 214.853 548.687 224.018 545.609 233.393C542.67 242.628 538.612 251.653 533.435 260.468C528.398 269.144 522.311 277.399 515.175 285.235C508.039 292.931 499.784 299.647 490.409 305.384C481.174 311.121 470.819 315.668 459.346 319.026C447.872 322.385 435.349 324.064 421.776 324.064C412.401 324.064 402.327 323.084 391.552 321.125C380.918 319.166 370.284 315.878 359.65 311.261C349.156 306.643 339.011 300.486 329.216 292.791C319.562 284.955 311.026 275.16 303.61 263.407C296.194 251.653 290.248 237.801 285.77 221.849C281.292 205.758 279.054 187.078 279.054 165.81C279.054 144.961 281.013 126.351 284.93 109.98C288.988 93.6091 294.445 79.3368 301.302 67.1634C308.298 54.8501 316.413 44.4258 325.648 35.8905C335.023 27.3551 345.028 20.4289 355.662 15.1118C366.296 9.79467 377.35 5.94676 388.824 3.56806C400.298 1.18935 411.702 0 423.035 0C437.028 0 449.761 1.4692 461.235 4.4076C472.848 7.20608 483.203 11.1239 492.298 16.1612C501.533 21.0585 509.578 26.7954 516.435 33.3718C523.291 39.9483 529.028 46.9444 533.645 54.3604C538.403 61.6365 542.041 69.1224 544.559 76.8182C547.218 84.514 548.827 91.9999 549.387 99.276H509.088C506.43 89.3414 502.512 80.4562 497.335 72.6205C492.158 64.7847 485.861 58.2083 478.445 52.8912C471.169 47.4342 462.914 43.3064 453.679 40.508C444.584 37.5696 434.789 36.1004 424.295 36.1004C408.483 36.1004 394.141 39.0388 381.268 44.9156C368.535 50.7924 357.621 59.1878 348.526 70.1018C339.431 81.0159 332.435 94.2387 327.537 109.77C322.64 125.162 320.191 142.442 320.191 161.612Z" fill="black"/>
<path d="M579.356 7.76577H830.379V43.8661H725.436V316.298H684.089V43.8661H579.356V7.76577Z" fill="black"/>
<path d="M1339.52 7.76577H1590.54V43.8661H1485.6V316.298H1444.25V43.8661H1339.52V7.76577Z" fill="black"/>
<path d="M1648.38 7.76577H1689.52V257.32H1690.36L1847.36 7.76577H1895V316.298H1853.65V65.2745H1852.81L1696.03 316.298H1648.38V7.76577Z" fill="black"/>
<path d="M1197.51 276.688C1216.71 276.688 1235.99 270.296 1255.35 257.514C1275.21 244.216 1292.06 226.862 1304.81 206.581L1309.44 208.45C1296.18 234.385 1278.13 257.543 1256.26 276.688C1234.71 295.369 1215.16 304.711 1197.61 304.711C1192.8 304.972 1187.98 304.234 1183.46 302.542C1178.94 300.851 1174.82 298.242 1171.35 294.878C1165.03 288.323 1161.83 279.277 1161.83 267.773C1161.83 247.845 1177.04 218.096 1207.45 178.526C1130.64 213.115 1056.4 243.169 984.738 268.691C913.075 294.212 860.05 306.983 825.663 307.005C802.724 307.005 791.264 301.083 791.286 289.24C791.286 274.928 807.003 255.154 838.436 229.917C869.869 204.68 908.264 181.868 953.621 161.482C998.978 141.052 1038.38 130.848 1071.83 130.87C1089.2 130.649 1106.43 133.995 1122.47 140.703C1137.68 147.258 1148.35 153.649 1154.5 159.876L1163.33 169.709L1159.16 172.528C1156.68 170.037 1153.2 166.847 1148.7 162.957C1144.2 159.068 1134.37 153.922 1119.21 147.52C1103.9 141.107 1087.47 137.853 1070.89 137.95C1046.99 137.95 1019.29 143.631 987.769 154.993C957.936 165.549 929.166 178.927 901.844 194.946C878.737 208.425 856.758 223.77 836.123 240.832C818.006 256.127 808.946 267.499 808.946 274.95C808.946 279.32 814.204 281.505 824.718 281.505C858.171 281.505 912.478 270.58 987.638 248.73C1065.3 226.071 1141.59 198.932 1216.15 167.448C1241.24 135.372 1256.56 113.521 1262.13 101.897C1265.74 95.1203 1267.81 87.6188 1268.19 79.9373C1268.19 53.7171 1231.64 40.607 1158.54 40.607C1101.41 40.8902 1044.48 47.4848 988.779 60.2721C930.432 73.3823 878.797 90.666 833.875 112.123L832.016 107.436C953.663 45.7964 1060.19 14.9659 1151.6 14.9441C1192.14 14.9441 1222.86 20.2427 1243.78 30.84C1264.7 41.4373 1275.15 55.7601 1275.13 73.8084C1275.13 85.6512 1271.11 98.4991 1263.07 112.352C1252.59 129.706 1240.95 146.329 1228.24 162.105C1259.19 148.995 1288.45 135.601 1316.02 121.923L1318.33 126.15C1300.04 135.502 1267.22 151.071 1219.86 172.855C1209 186.555 1200.8 197.142 1195.26 204.615C1189.07 213.051 1183.55 221.96 1178.74 231.261C1173.33 241.52 1170.63 250.107 1170.63 256.957C1170.56 270.001 1179.52 276.578 1197.51 276.688Z" fill="black"/>
<path fill-rule="evenodd" clip-rule="evenodd" d="M832.46 107.612L834.059 111.644C878.93 90.2494 930.476 73.0123 988.696 59.9307C1044.42 47.1377 1101.38 40.5401 1158.53 40.2568L1158.54 40.2568C1195.1 40.2568 1222.56 43.534 1240.89 50.1101C1250.06 53.3988 1256.97 57.5209 1261.59 62.4931C1266.22 67.4733 1268.54 73.295 1268.54 79.9424V79.9511L1268.54 79.9598C1268.16 87.6912 1266.07 95.2415 1262.44 102.063C1256.85 113.73 1241.5 135.609 1216.42 167.672L1216.37 167.744L1216.28 167.78C1141.71 199.27 1065.4 226.413 987.732 249.076C912.571 270.927 858.221 281.866 824.713 281.866C819.443 281.866 815.443 281.32 812.749 280.2C811.399 279.639 810.357 278.925 809.652 278.046C808.942 277.161 808.588 276.125 808.588 274.955C808.588 271.102 810.921 266.314 815.459 260.616C820.01 254.903 826.823 248.219 835.89 240.565L835.893 240.562C856.542 223.489 878.537 208.133 901.661 194.644C929.001 178.614 957.792 165.227 987.645 154.663C1019.19 143.293 1046.94 137.6 1070.88 137.6C1070.88 137.6 1070.88 137.6 1070.88 137.6L1070.89 137.955L1070.88 137.6C1070.88 137.6 1070.88 137.6 1070.88 137.6C1087.51 137.503 1103.99 140.766 1119.34 147.197L1119.34 147.198C1134.5 153.597 1144.38 158.762 1148.93 162.693C1153.3 166.478 1156.73 169.606 1159.2 172.074L1158.96 172.238L1159.15 172.533L1159.41 172.282C1159.34 172.213 1159.27 172.144 1159.2 172.074L1162.79 169.648L1163.06 169.952L1163.33 169.714L1163.13 169.419L1162.79 169.648L1154.24 160.131L1154.5 159.881L1154.23 160.119L1154.24 160.126C1148.14 153.95 1137.52 147.583 1122.33 141.035C1122.33 141.035 1122.33 141.036 1122.33 141.036L1122.47 140.708L1122.33 141.034C1122.33 141.035 1122.33 141.035 1122.33 141.035C1106.33 134.346 1089.15 131.01 1071.83 131.231L1071.83 131.231C1038.45 131.209 999.093 141.393 953.761 161.811C908.425 182.188 870.057 204.985 838.653 230.2C822.946 242.81 811.181 254.044 803.346 263.902C795.503 273.77 791.636 282.212 791.636 289.245C791.63 292.146 792.327 294.668 793.715 296.824C795.105 298.982 797.2 300.794 800.022 302.253C805.676 305.174 814.208 306.654 825.658 306.654C859.98 306.633 912.955 293.881 984.615 268.361C1056.27 242.843 1130.5 212.792 1207.3 178.207L1208.59 177.627L1207.73 178.748C1192.53 198.523 1181.14 215.834 1173.55 230.683C1165.95 245.537 1162.18 257.896 1162.18 267.778C1162.18 279.212 1165.35 288.159 1171.59 294.632C1171.59 294.63 1171.59 294.629 1171.59 294.627L1171.34 294.883L1171.6 294.636C1171.6 294.635 1171.59 294.633 1171.59 294.632C1175.03 297.96 1179.11 300.541 1183.58 302.215C1188.05 303.889 1192.82 304.62 1197.59 304.361L1197.6 304.36H1197.6C1215.03 304.36 1234.5 295.083 1256.02 276.425L1256.26 276.693L1256.02 276.424C1256.02 276.424 1256.02 276.424 1256.02 276.425C1277.76 257.395 1295.72 234.394 1308.94 208.639L1309.3 208.784L1309.43 208.455L1309.12 208.292C1309.06 208.408 1309 208.523 1308.94 208.639L1304.95 207.026C1305 206.943 1305.05 206.859 1305.11 206.776L1304.81 206.586L1304.67 206.916L1304.95 207.026C1292.19 227.242 1275.36 244.543 1255.54 257.815L1255.54 257.816C1236.14 270.628 1216.79 277.048 1197.51 277.048H1197.5C1188.48 276.993 1181.65 275.317 1177.09 271.965C1172.5 268.597 1170.24 263.574 1170.27 256.96C1170.27 256.961 1170.27 256.961 1170.27 256.962H1170.62L1170.27 256.96C1170.27 250.025 1173.01 241.378 1178.43 231.1C1178.42 231.101 1178.42 231.102 1178.42 231.102L1178.74 231.266L1178.43 231.1C1183.24 221.783 1188.77 212.859 1194.97 204.409L1194.97 204.408C1200.52 196.93 1208.72 186.34 1219.58 172.639L1219.64 172.573L1219.71 172.537C1266.79 150.881 1299.5 135.371 1317.84 126.005L1318.02 126.326L1318.33 126.155L1318.17 125.839C1318.06 125.894 1317.95 125.95 1317.84 126.005L1315.87 122.397C1315.97 122.347 1316.07 122.297 1316.17 122.246L1316.01 121.928L1315.7 122.099L1315.87 122.397C1288.38 136.026 1259.22 149.373 1228.37 162.438L1227.07 162.989L1227.96 161.887C1240.66 146.123 1252.29 129.515 1262.76 112.175C1262.76 112.176 1262.76 112.177 1262.76 112.178L1263.07 112.357L1262.76 112.173C1262.76 112.174 1262.76 112.175 1262.76 112.175C1270.78 98.3593 1274.77 85.5742 1274.77 73.813C1274.79 55.941 1264.46 41.7207 1243.62 31.1623C1222.77 20.6021 1192.11 15.3045 1151.6 15.3045C1060.34 15.3263 953.96 46.0836 832.46 107.612ZM831.852 107.124C953.526 45.4706 1060.11 14.6157 1151.6 14.5939C1192.15 14.5939 1222.94 19.8934 1243.94 30.528C1264.93 41.1642 1275.5 55.5895 1275.48 73.8139C1275.48 85.7374 1271.43 98.6471 1263.37 112.536L1263.37 112.541C1253.12 129.506 1241.77 145.772 1229.39 161.233C1259.86 148.301 1288.68 135.093 1315.86 121.609L1316.16 121.458L1318.81 126.306L1318.49 126.472C1300.2 135.823 1267.4 151.382 1220.08 173.148C1209.25 186.814 1201.07 197.374 1195.54 204.83C1189.37 213.251 1183.85 222.145 1179.05 231.43L1179.05 231.432C1173.65 241.67 1170.98 250.197 1170.98 256.962L1170.98 256.964C1170.95 263.394 1173.13 268.182 1177.51 271.391C1181.9 274.616 1188.55 276.283 1197.51 276.337C1216.63 276.337 1235.84 269.974 1255.15 257.224C1274.96 243.953 1291.78 226.635 1304.51 206.397L1304.66 206.146L1309.92 208.27L1309.75 208.617C1296.47 234.592 1278.39 257.786 1256.49 276.96L1256.49 276.961C1234.92 295.663 1215.29 305.068 1197.61 305.071C1192.75 305.334 1187.89 304.588 1183.33 302.88C1178.77 301.172 1174.6 298.537 1171.1 295.139L1171.09 295.134L1171.09 295.13C1164.69 288.493 1161.47 279.35 1161.47 267.778C1161.47 257.732 1165.3 245.253 1172.92 230.358C1180.39 215.739 1191.52 198.763 1206.31 179.432C1129.94 213.782 1056.13 243.648 984.852 269.03C913.185 294.553 860.111 307.343 825.659 307.365C814.17 307.365 805.502 305.884 799.697 302.884C796.79 301.382 794.59 299.493 793.12 297.21C791.649 294.925 790.922 292.266 790.927 289.245C790.927 281.967 794.918 273.366 802.792 263.459C810.674 253.543 822.484 242.271 838.21 229.645C869.671 204.385 908.093 181.559 953.471 161.163C998.853 140.722 1038.31 130.499 1071.83 130.52C1089.24 130.298 1106.52 133.653 1122.6 140.38L1122.61 140.381C1137.82 146.941 1148.55 153.354 1154.75 159.631L1154.75 159.637L1154.76 159.644L1163.86 169.78L1159.11 172.991L1158.9 172.783C1156.44 170.302 1152.96 167.118 1148.46 163.232C1144.02 159.384 1134.24 154.257 1119.07 147.853C1103.81 141.459 1087.42 138.214 1070.89 138.31H1070.89C1047.04 138.31 1019.38 143.979 987.884 155.332L987.882 155.333C958.071 165.882 929.321 179.25 902.018 195.258L902.018 195.258C878.928 208.727 856.965 224.061 836.346 241.109C827.296 248.749 820.521 255.399 816.013 261.059C811.493 266.734 809.296 271.358 809.296 274.955C809.296 275.97 809.599 276.847 810.204 277.6C810.813 278.36 811.742 279.012 813.021 279.543C815.584 280.609 819.47 281.155 824.713 281.155C858.111 281.155 912.375 270.244 987.535 248.394C987.535 248.394 987.535 248.394 987.535 248.394C1065.15 225.747 1141.41 198.625 1215.92 167.161C1215.9 167.185 1215.89 167.209 1215.87 167.233L1216.14 167.453L1216.01 167.125C1215.98 167.137 1215.95 167.149 1215.92 167.161C1240.98 135.118 1256.26 113.323 1261.8 101.748L1261.8 101.741L1261.81 101.734C1265.4 95.0065 1267.45 87.5592 1267.83 79.933C1267.83 79.9361 1267.83 79.9393 1267.83 79.9424H1268.18L1267.83 79.925C1267.83 79.9277 1267.83 79.9303 1267.83 79.933C1267.83 73.4743 1265.58 67.8277 1261.07 62.9777C1256.55 58.1173 1249.76 54.0456 1240.65 50.7792C1222.44 44.2452 1195.07 40.9675 1158.54 40.9674C1158.54 40.9674 1158.54 40.9674 1158.54 40.9674L1158.54 40.6165V40.9674C1158.54 40.9674 1158.54 40.9674 1158.54 40.9674C1101.43 41.2505 1044.53 47.8421 988.853 60.6236L988.852 60.624C930.525 73.7294 878.916 91.0053 834.022 112.449L833.68 112.612L831.563 107.27L831.852 107.124Z" fill="black"/>
</svg>
