<svg id="SvgjsSvg1009" xmlns="http://www.w3.org/2000/svg" viewBox="0 0 17.02 17.03"><defs></defs><title>edit</title><path id="SvgjsPath1011" d="M11.2,4.55a1.16,1.16,0,0,0-1.62,0L9.18,5,3.52,10.62h0l-0.18.18s-0.57.57-1.85,4.72l0,0.08-0.07.23L1.33,16l-0.05.18-0.12.42a1.63,1.63,0,0,0-.06,1.27,1.66,1.66,0,0,0,1.27-.06l0.41-.13L3,17.66l0.2-.06,0.24-.07,0.07,0c3.94-1.22,4.65-1.8,4.71-1.85h0l0.18-.18h0L14,9.81l0.4-.4a1.15,1.15,0,0,0,0-1.62ZM7.52,14.91H7.46a12.74,12.74,0,0,1-2.08.89L4.87,16,3,14.11l0.18-.51A12.68,12.68,0,0,1,4,11.52v0h0v0l0.14-.14,3.45,3.46ZM17.66,6.17L16.86,7a1.14,1.14,0,0,1-1.62,0L12,3.75a1.15,1.15,0,0,1,0-1.62l0.81-.81a1.14,1.14,0,0,1,1.62,0l3.23,3.23A1.15,1.15,0,0,1,17.66,6.17Z" transform="translate(-0.97 -0.98)"/><path id="SvgjsPath1012" class="cls-1" d="M11.2,4.55a1.16,1.16,0,0,0-1.62,0L9.18,5,3.52,10.62h0l-0.18.18s-0.57.57-1.85,4.72l0,0.08-0.07.23L1.33,16l-0.05.18-0.12.42a1.63,1.63,0,0,0-.06,1.27,1.66,1.66,0,0,0,1.27-.06l0.41-.13L3,17.66l0.2-.06,0.24-.07,0.07,0c3.94-1.22,4.65-1.8,4.71-1.85h0l0.18-.18h0L14,9.81l0.4-.4a1.15,1.15,0,0,0,0-1.62ZM7.52,14.91H7.46a12.74,12.74,0,0,1-2.08.89L4.87,16,3,14.11l0.18-.51A12.68,12.68,0,0,1,4,11.52v0h0v0l0.14-.14,3.45,3.46ZM17.66,6.17L16.86,7a1.14,1.14,0,0,1-1.62,0L12,3.75a1.15,1.15,0,0,1,0-1.62l0.81-.81a1.14,1.14,0,0,1,1.62,0l3.23,3.23A1.15,1.15,0,0,1,17.66,6.17Z" transform="translate(-0.97 -0.98)"/></svg>