<svg id="SvgjsSvg1037" xmlns="http://www.w3.org/2000/svg" viewBox="0 0 25 18"><defs></defs><title>lk-nav-pay</title><path id="SvgjsPath1039" class="cls-1" d="M2,3H3V2A2,2,0,0,1,5,0H23a2,2,0,0,1,2,2V13a2,2,0,0,1-2,2H22v1a2,2,0,0,1-2,2H2a2,2,0,0,1-2-2V5A2,2,0,0,1,2,3ZM5,3H20a2,2,0,0,1,2,2v8h1V2H5V3ZM2,14a2,2,0,0,0,2,2H18a2,2,0,0,0,2-2V7a2,2,0,0,0-2-2H4A2,2,0,0,0,2,7H18.5a1.5,1.5,0,1,1,0,3H2v4Zm2.5-3h5a0.5,0.5,0,0,1,0,1h-5A0.5,0.5,0,0,1,4.5,11Zm0,2h3a0.5,0.5,0,0,1,0,1h-3A0.5,0.5,0,0,1,4.5,13Z" transform="translate(0 0)"/><path id="SvgjsPath1040" class="cls-2" d="M2,3H3V2A2,2,0,0,1,5,0H23a2,2,0,0,1,2,2V13a2,2,0,0,1-2,2H22v1a2,2,0,0,1-2,2H2a2,2,0,0,1-2-2V5A2,2,0,0,1,2,3ZM5,3H20a2,2,0,0,1,2,2v8h1V2H5V3ZM2,14a2,2,0,0,0,2,2H18a2,2,0,0,0,2-2V7a2,2,0,0,0-2-2H4A2,2,0,0,0,2,7H18.5a1.5,1.5,0,1,1,0,3H2v4Zm2.5-3h5a0.5,0.5,0,0,1,0,1h-5A0.5,0.5,0,0,1,4.5,11Zm0,2h3a0.5,0.5,0,0,1,0,1h-3A0.5,0.5,0,0,1,4.5,13Z" transform="translate(0 0)"/></svg>