<svg id="SvgjsSvg1033" xmlns="http://www.w3.org/2000/svg" viewBox="0 0 22 18.01"><defs></defs><title>lk-nav-mail</title><path id="SvgjsPath1035" d="M2.11,5.55L4.63,7.37,7.84,9.7l0.52,0.39L9,10.58,9.64,11a3.64,3.64,0,0,0,.71.35,1.9,1.9,0,0,0,.61.12h0a1.9,1.9,0,0,0,.61-0.12A3.64,3.64,0,0,0,12.33,11L13,10.58l0.66-.49,0.52-.39L19.9,5.55A6,6,0,0,0,21.4,4,3.47,3.47,0,0,0,22,2,2,2,0,0,0,21.42.56,1.86,1.86,0,0,0,20,0H2A1.72,1.72,0,0,0,.55.66,2.65,2.65,0,0,0,0,2.32,3.06,3.06,0,0,0,.68,4.06,6.22,6.22,0,0,0,2.11,5.55ZM20.77,6.91q-4,2.84-6.11,4.41-0.71.54-1.14,0.84a7,7,0,0,1-1.16.61,3.42,3.42,0,0,1-1.35.31h0a3.42,3.42,0,0,1-1.35-.31,7,7,0,0,1-1.16-.61q-0.43-.3-1.14-0.84Q5.7,10.06,1.26,6.91A6.59,6.59,0,0,1,0,5.8V16a2,2,0,0,0,.58,1.45A1.85,1.85,0,0,0,2,18H20a1.85,1.85,0,0,0,1.39-.6A2,2,0,0,0,22,16V5.8A6.89,6.89,0,0,1,20.77,6.91Z" transform="translate(0 0)"/><path id="SvgjsPath1036" class="cls-1" d="M2.11,5.55L4.63,7.37,7.84,9.7l0.52,0.39L9,10.58,9.64,11a3.64,3.64,0,0,0,.71.35,1.9,1.9,0,0,0,.61.12h0a1.9,1.9,0,0,0,.61-0.12A3.64,3.64,0,0,0,12.33,11L13,10.58l0.66-.49,0.52-.39L19.9,5.55A6,6,0,0,0,21.4,4,3.47,3.47,0,0,0,22,2,2,2,0,0,0,21.42.56,1.86,1.86,0,0,0,20,0H2A1.72,1.72,0,0,0,.55.66,2.65,2.65,0,0,0,0,2.32,3.06,3.06,0,0,0,.68,4.06,6.22,6.22,0,0,0,2.11,5.55ZM20.77,6.91q-4,2.84-6.11,4.41-0.71.54-1.14,0.84a7,7,0,0,1-1.16.61,3.42,3.42,0,0,1-1.35.31h0a3.42,3.42,0,0,1-1.35-.31,7,7,0,0,1-1.16-.61q-0.43-.3-1.14-0.84Q5.7,10.06,1.26,6.91A6.59,6.59,0,0,1,0,5.8V16a2,2,0,0,0,.58,1.45A1.85,1.85,0,0,0,2,18H20a1.85,1.85,0,0,0,1.39-.6A2,2,0,0,0,22,16V5.8A6.89,6.89,0,0,1,20.77,6.91Z" transform="translate(0 0)"/></svg>