<svg id="SvgjsSvg1029" xmlns="http://www.w3.org/2000/svg" viewBox="0 0 16.09 18.04"><defs></defs><title>lk-nav-like</title><path id="SvgjsPath1031" d="M14.54,9.95a1.44,1.44,0,0,0,.18-2.88L9.6,6.43A9.34,9.34,0,0,0,10.67,2a1.8,1.8,0,0,0-2-2C8.08,0,7.93,1.13,7.93,1.13h0A8.09,8.09,0,0,1,7,3.65C6.36,5,5.45,4.83,4.38,6a6,6,0,0,0-.69,1,0.32,0.32,0,0,0-.06.1l-0.07.13-0.12.23A2.87,2.87,0,0,1,1.33,8,1.21,1.21,0,0,0,0,9.33v6.1a1.08,1.08,0,0,0,1.33,1.24H2.67a6.56,6.56,0,0,1,2,.67,17.21,17.21,0,0,0,5.57.67h2a1.62,1.62,0,0,0,1.12-.47A0.86,0.86,0,0,0,13.65,17V16.75a1.08,1.08,0,0,0-.72-1.18H13.8a1.44,1.44,0,0,0,1.53-1.35s0-.08,0-0.11A1.4,1.4,0,0,0,14,12.77h0.46A1.42,1.42,0,0,0,14.54,9.95Z" transform="translate(0.02 0.01)"/><path id="SvgjsPath1032" class="cls-1" d="M14.54,9.95a1.44,1.44,0,0,0,.18-2.88L9.6,6.43A9.34,9.34,0,0,0,10.67,2a1.8,1.8,0,0,0-2-2C8.08,0,7.93,1.13,7.93,1.13h0A8.09,8.09,0,0,1,7,3.65C6.36,5,5.45,4.83,4.38,6a6,6,0,0,0-.69,1,0.32,0.32,0,0,0-.06.1l-0.07.13-0.12.23A2.87,2.87,0,0,1,1.33,8,1.21,1.21,0,0,0,0,9.33v6.1a1.08,1.08,0,0,0,1.33,1.24H2.67a6.56,6.56,0,0,1,2,.67,17.21,17.21,0,0,0,5.57.67h2a1.62,1.62,0,0,0,1.12-.47A0.86,0.86,0,0,0,13.65,17V16.75a1.08,1.08,0,0,0-.72-1.18H13.8a1.44,1.44,0,0,0,1.53-1.35s0-.08,0-0.11A1.4,1.4,0,0,0,14,12.77h0.46A1.42,1.42,0,0,0,14.54,9.95Z" transform="translate(0.02 0.01)"/></svg>