<svg id="SvgjsSvg1021" xmlns="http://www.w3.org/2000/svg" viewBox="0 0 21.85 18.97"><defs></defs><title>lk-nav-heart</title><path id="SvgjsPath1023" d="M22,5.92A5.92,5.92,0,0,0,11,2.83a5.92,5.92,0,1,0-9,7.55l8.4,8.4a0.76,0.76,0,0,0,1.07,0h0l8.4-8.4A5.9,5.9,0,0,0,22,5.92Z" transform="translate(-0.1 -0.03)"/><path id="SvgjsPath1024" class="cls-1" d="M22,5.92A5.92,5.92,0,0,0,11,2.83a5.92,5.92,0,1,0-9,7.55l8.4,8.4a0.76,0.76,0,0,0,1.07,0h0l8.4-8.4A5.9,5.9,0,0,0,22,5.92Z" transform="translate(-0.1 -0.03)"/></svg>