<svg id="SvgjsSvg1000" xmlns="http://www.w3.org/2000/svg" xmlns:xlink="http://www.w3.org/1999/xlink" viewBox="0 0 33 21"><defs><linearGradient id="Безымянный_градиент" x1="788.5" y1="-4496.11" x2="788.5" y2="-4475.11" gradientTransform="matrix(1, 0, 0, -1, -772, -4475.11)" gradientUnits="userSpaceOnUse"><stop offset="0" stop-color="#fff"/><stop offset="1" stop-color="#fff"/></linearGradient></defs><title>photo-load</title><path id="SvgjsPath1007" d="M30.13,10.6a8.93,8.93,0,0,0,.18-1.77A8.78,8.78,0,0,0,13.47,5.29,6.63,6.63,0,0,0,3.21,10.43,5.54,5.54,0,0,0,5.5,21h8a0.43,0.43,0,0,0,.41-0.43V17a0.55,0.55,0,0,0-.55-0.55h-1.5c-0.3,0-.4-0.2-0.22-0.44l4.59-6.23a0.39,0.39,0,0,1,.65,0L21.41,16c0.18,0.24.08,0.44-.22,0.44h-1.5a0.55,0.55,0,0,0-.55.55v3.56a0.44,0.44,0,0,0,.43.43H27.5A5.54,5.54,0,0,0,30.13,10.6Z" transform="translate(0 0)"/><path id="SvgjsPath1008" d="M30.13,10.6a8.93,8.93,0,0,0,.18-1.77A8.78,8.78,0,0,0,13.47,5.29,6.63,6.63,0,0,0,3.21,10.43,5.54,5.54,0,0,0,5.5,21h8a0.43,0.43,0,0,0,.41-0.43V17a0.55,0.55,0,0,0-.55-0.55h-1.5c-0.3,0-.4-0.2-0.22-0.44l4.59-6.23a0.39,0.39,0,0,1,.65,0L21.41,16c0.18,0.24.08,0.44-.22,0.44h-1.5a0.55,0.55,0,0,0-.55.55v3.56a0.44,0.44,0,0,0,.43.43H27.5A5.54,5.54,0,0,0,30.13,10.6Z" transform="translate(0 0)"/><path id="SvgjsPath1009" class="cls-1" d="M30.13,10.6a8.93,8.93,0,0,0,.18-1.77A8.78,8.78,0,0,0,13.47,5.29,6.63,6.63,0,0,0,3.21,10.43,5.54,5.54,0,0,0,5.5,21h8a0.43,0.43,0,0,0,.41-0.43V17a0.55,0.55,0,0,0-.55-0.55h-1.5c-0.3,0-.4-0.2-0.22-0.44l4.59-6.23a0.39,0.39,0,0,1,.65,0L21.41,16c0.18,0.24.08,0.44-.22,0.44h-1.5a0.55,0.55,0,0,0-.55.55v3.56a0.44,0.44,0,0,0,.43.43H27.5A5.54,5.54,0,0,0,30.13,10.6Z" transform="translate(0 0)"/><path id="SvgjsPath1013" class="cls-2" d="M30.13,10.6a8.93,8.93,0,0,0,.18-1.77A8.78,8.78,0,0,0,13.47,5.29,6.63,6.63,0,0,0,3.21,10.43,5.54,5.54,0,0,0,5.5,21h8a0.43,0.43,0,0,0,.41-0.43V17a0.55,0.55,0,0,0-.55-0.55h-1.5c-0.3,0-.4-0.2-0.22-0.44l4.59-6.23a0.39,0.39,0,0,1,.65,0L21.41,16c0.18,0.24.08,0.44-.22,0.44h-1.5a0.55,0.55,0,0,0-.55.55v3.56a0.44,0.44,0,0,0,.43.43H27.5A5.54,5.54,0,0,0,30.13,10.6Z" transform="translate(0 0)"/></svg>