<svg id="SvgjsSvg1000" xmlns="http://www.w3.org/2000/svg" viewBox="0 0 20.97 20.97"><title>smile-happy</title><path id="SvgjsPath1007" d="M17.9,4.06a10.49,10.49,0,1,0,0,14.83A10.5,10.5,0,0,0,17.9,4.06ZM16.76,17.75a8.87,8.87,0,1,1,0-12.55A8.89,8.89,0,0,1,16.76,17.75Zm-9-7.89A1.23,1.23,0,1,0,6.57,8.64,1.23,1.23,0,0,0,7.8,9.87Zm5.56,0a1.23,1.23,0,1,0-1.23-1.23A1.23,1.23,0,0,0,13.36,9.87ZM15,13.66a4.9,4.9,0,0,1-4.54,2.89,4.85,4.85,0,0,1-4.55-2.91,0.58,0.58,0,0,1,.32-0.78,0.58,0.58,0,0,1,.22,0,0.58,0.58,0,0,1,.55.37,3.68,3.68,0,0,0,3.46,2.18,3.71,3.71,0,0,0,3.45-2.18A0.59,0.59,0,0,1,15,13.66Z" transform="translate(0 -1)"/></svg>