<svg id="SvgjsSvg1013" xmlns="http://www.w3.org/2000/svg" viewBox="0 0 28 16.18"><defs></defs><title>vk</title><path id="SvgjsPath1015" d="M26.79,12.8a23.57,23.57,0,0,0-2-2l-0.72-.69c-0.68-.67-0.71-0.92-0.17-1.68,0.37-.52.77-1,1.15-1.55s0.71-.93,1-1.41l0.07-.09a10.72,10.72,0,0,0,1.7-3,1.35,1.35,0,0,0,0-1.11,1.33,1.33,0,0,0-1-.53,2.3,2.3,0,0,0-.45,0H22.1a1.33,1.33,0,0,0-1.34.93c-0.24.61-.5,1.25-0.8,1.86a15.25,15.25,0,0,1-2.46,3.79l0,0a0.79,0.79,0,0,1-.39.29H17a1.15,1.15,0,0,1-.37-0.89h0v-5a0.31,0.31,0,0,0,0,0A1.45,1.45,0,0,0,15.36.18H10.8A1.79,1.79,0,0,0,9.29.92a0.67,0.67,0,0,0-.21.66A0.68,0.68,0,0,0,9.65,2a1.13,1.13,0,0,1,1,1.05,14.7,14.7,0,0,1,.06,3.49,2.85,2.85,0,0,1-.2.91,0.4,0.4,0,0,1-.2.25A0.5,0.5,0,0,1,10,7.56a3.84,3.84,0,0,1-.9-1,23.79,23.79,0,0,1-2.59-4.8A1.53,1.53,0,0,0,5.11.71l-2,0-1.91,0a1.21,1.21,0,0,0-1.08.47,1.2,1.2,0,0,0,0,1.17,47.89,47.89,0,0,0,5.07,9,12.73,12.73,0,0,0,3.94,3.68,10.16,10.16,0,0,0,5.2,1.29l0.69,0a1.42,1.42,0,0,0,1.63-1.59,3.8,3.8,0,0,1,.37-1.68,0.45,0.45,0,0,1,.4-0.33,0.74,0.74,0,0,1,.38.14,3.47,3.47,0,0,1,.64.58L19,14c0.35,0.4.72,0.81,1.1,1.2a3.43,3.43,0,0,0,2.82,1.14h4a1.13,1.13,0,0,0,.93-0.6,1.58,1.58,0,0,0,0-1.5A8.32,8.32,0,0,0,26.79,12.8Z" transform="translate(0 -0.18)"/><path id="SvgjsPath1016" class="cls-1" d="M26.79,12.8a23.57,23.57,0,0,0-2-2l-0.72-.69c-0.68-.67-0.71-0.92-0.17-1.68,0.37-.52.77-1,1.15-1.55s0.71-.93,1-1.41l0.07-.09a10.72,10.72,0,0,0,1.7-3,1.35,1.35,0,0,0,0-1.11,1.33,1.33,0,0,0-1-.53,2.3,2.3,0,0,0-.45,0H22.1a1.33,1.33,0,0,0-1.34.93c-0.24.61-.5,1.25-0.8,1.86a15.25,15.25,0,0,1-2.46,3.79l0,0a0.79,0.79,0,0,1-.39.29H17a1.15,1.15,0,0,1-.37-0.89h0v-5a0.31,0.31,0,0,0,0,0A1.45,1.45,0,0,0,15.36.18H10.8A1.79,1.79,0,0,0,9.29.92a0.67,0.67,0,0,0-.21.66A0.68,0.68,0,0,0,9.65,2a1.13,1.13,0,0,1,1,1.05,14.7,14.7,0,0,1,.06,3.49,2.85,2.85,0,0,1-.2.91,0.4,0.4,0,0,1-.2.25A0.5,0.5,0,0,1,10,7.56a3.84,3.84,0,0,1-.9-1,23.79,23.79,0,0,1-2.59-4.8A1.53,1.53,0,0,0,5.11.71l-2,0-1.91,0a1.21,1.21,0,0,0-1.08.47,1.2,1.2,0,0,0,0,1.17,47.89,47.89,0,0,0,5.07,9,12.73,12.73,0,0,0,3.94,3.68,10.16,10.16,0,0,0,5.2,1.29l0.69,0a1.42,1.42,0,0,0,1.63-1.59,3.8,3.8,0,0,1,.37-1.68,0.45,0.45,0,0,1,.4-0.33,0.74,0.74,0,0,1,.38.14,3.47,3.47,0,0,1,.64.58L19,14c0.35,0.4.72,0.81,1.1,1.2a3.43,3.43,0,0,0,2.82,1.14h4a1.13,1.13,0,0,0,.93-0.6,1.58,1.58,0,0,0,0-1.5A8.32,8.32,0,0,0,26.79,12.8Z" transform="translate(0 -0.18)"/></svg>