<svg width="20" height="22" viewBox="0 0 20 22" fill="none" xmlns="http://www.w3.org/2000/svg">
<path d="M2.12517 7.94865C2.14509 7.70039 2.25779 7.46874 2.44083 7.29984C2.62387 7.13094 2.8638 7.03718 3.11286 7.03723H16.8871C17.1362 7.03718 17.3761 7.13094 17.5591 7.29984C17.7422 7.46874 17.8549 7.70039 17.8748 7.94865L18.7436 18.7667C18.7655 19.0394 18.7307 19.3136 18.6414 19.5721C18.5521 19.8306 18.4103 20.0678 18.2248 20.2688C18.0393 20.4698 17.8143 20.6303 17.5637 20.74C17.3132 20.8498 17.0427 20.9065 16.7692 20.9066H3.23075C2.95725 20.9065 2.68673 20.8498 2.43621 20.74C2.1857 20.6303 1.96063 20.4698 1.77516 20.2688C1.58969 20.0678 1.44785 19.8306 1.35856 19.5721C1.26927 19.3136 1.23447 19.0394 1.25635 18.7667L2.12418 7.94865H2.12517Z" stroke="white" stroke-width="1.35" stroke-linecap="round" stroke-linejoin="round"/>
<path d="M13.9626 10.0093V5.05593C13.9626 4.00497 13.5451 2.99705 12.8019 2.2539C12.0588 1.51076 11.0509 1.09326 9.9999 1.09326C8.94894 1.09326 7.94102 1.51076 7.19787 2.2539C6.45473 2.99705 6.03723 4.00497 6.03723 5.05593V10.0093" stroke="white" stroke-width="1.35" stroke-linecap="round" stroke-linejoin="round"/>
</svg>
