<svg width="21" height="20" viewBox="0 0 21 20" fill="none" xmlns="http://www.w3.org/2000/svg">
<path d="M12.037 5.80958C12.0684 5.73335 12.1182 5.66606 12.1819 5.61371C12.2455 5.56137 12.3212 5.52558 12.4021 5.50955C12.4829 5.49351 12.5665 5.49772 12.6454 5.52181C12.7242 5.54589 12.7959 5.58909 12.854 5.64758L16.854 9.64758C16.9006 9.69402 16.9375 9.7492 16.9627 9.80994C16.9879 9.87069 17.0009 9.93581 17.0009 10.0016C17.0009 10.0673 16.9879 10.1325 16.9627 10.1932C16.9375 10.254 16.9006 10.3091 16.854 10.3556L12.854 14.3556C12.7601 14.4495 12.6328 14.5022 12.5 14.5022C12.3672 14.5022 12.2399 14.4495 12.146 14.3556C12.0521 14.2617 11.9994 14.1344 11.9994 14.0016C11.9994 13.8688 12.0521 13.7415 12.146 13.6476L15.293 10.5016H4.5C4.36739 10.5016 4.24021 10.4489 4.14645 10.3551C4.05268 10.2614 4 10.1342 4 10.0016C4 9.86897 4.05268 9.74179 4.14645 9.64802C4.24021 9.55426 4.36739 9.50158 4.5 9.50158H15.293L12.146 6.35558C12.0757 6.28563 12.0279 6.19637 12.0085 6.09915C11.9891 6.00193 11.999 5.90114 12.037 5.80958Z" fill="#F2F2F2"/>
</svg>
