<svg width="30" height="30" viewBox="0 0 30 30" fill="none" xmlns="http://www.w3.org/2000/svg">
<path fill-rule="evenodd" clip-rule="evenodd" d="M19.455 8.25H24.75C24.9489 8.25 25.1397 8.32902 25.2803 8.46967C25.421 8.61032 25.5 8.80109 25.5 9C25.5 9.19891 25.421 9.38968 25.2803 9.53033C25.1397 9.67098 24.9489 9.75 24.75 9.75H22.875V24.75C22.875 24.9489 22.796 25.1397 22.6553 25.2803C22.5147 25.421 22.3239 25.5 22.125 25.5H9.375C8.955 25.5 8.625 25.17 8.625 24.75V9.75H6.75C6.55109 9.75 6.36032 9.67098 6.21967 9.53033C6.07902 9.38968 6 9.19891 6 9C6 8.80109 6.07902 8.61032 6.21967 8.46967C6.36032 8.32902 6.55109 8.25 6.75 8.25H12.045C12.0968 7.3548 12.4097 6.49438 12.945 5.775C13.59 4.98 14.55 4.5 15.75 4.5C16.95 4.5 17.91 4.98 18.555 5.775C19.0895 6.4948 19.4023 7.35498 19.455 8.25ZM15.75 6C14.985 6 14.46 6.285 14.115 6.72C13.83 7.08 13.65 7.62 13.575 8.25H17.925C17.835 7.62 17.685 7.08 17.385 6.72C17.025 6.285 16.515 6 15.75 6ZM10.125 9.75V24H21.375V9.75H10.125ZM13.0447 11.8447C13.1853 11.704 13.3761 11.625 13.575 11.625C13.7739 11.625 13.9647 11.704 14.1053 11.8447C14.246 11.9853 14.325 12.1761 14.325 12.375V21.375C14.325 21.5739 14.246 21.7647 14.1053 21.9053C13.9647 22.046 13.7739 22.125 13.575 22.125C13.3761 22.125 13.1853 22.046 13.0447 21.9053C12.904 21.7647 12.825 21.5739 12.825 21.375V12.375C12.825 12.1761 12.904 11.9853 13.0447 11.8447ZM17.3947 11.8447C17.5353 11.704 17.7261 11.625 17.925 11.625C18.1239 11.625 18.3147 11.704 18.4553 11.8447C18.596 11.9853 18.675 12.1761 18.675 12.375V21.375C18.675 21.5739 18.596 21.7647 18.4553 21.9053C18.3147 22.046 18.1239 22.125 17.925 22.125C17.7261 22.125 17.5353 22.046 17.3947 21.9053C17.254 21.7647 17.175 21.5739 17.175 21.375V12.375C17.175 12.1761 17.254 11.9853 17.3947 11.8447Z" fill="#F3F3F3"/>
</svg>
