<svg width="30" height="30" viewBox="0 0 30 30" fill="none" xmlns="http://www.w3.org/2000/svg">
<path fill-rule="evenodd" clip-rule="evenodd" d="M23.0537 14.954C23.0669 15.1616 22.9942 15.3736 22.8355 15.5323L18.773 19.5948C18.4801 19.8877 18.0052 19.8877 17.7124 19.5948C17.4194 19.3019 17.4194 18.827 17.7124 18.5341L20.4965 15.75L12.555 15.75C12.1408 15.75 11.805 15.4142 11.805 15C11.805 14.5858 12.1408 14.25 12.555 14.25L20.4926 14.25L17.7124 11.4698C17.4194 11.1769 17.4194 10.702 17.7124 10.4091C18.0052 10.1162 18.4801 10.1162 18.773 10.4091L22.8033 14.4394C22.947 14.5673 23.0413 14.7496 23.0537 14.954ZM12.555 8.4375C12.9693 8.4375 13.305 8.10171 13.305 7.6875C13.305 7.27329 12.9693 6.9375 12.555 6.9375L9.30499 6.9375C8.67507 6.9375 8.07108 7.18778 7.6257 7.63308C7.18017 8.07854 6.93004 8.68267 6.93004 9.31249L6.93004 20.6875C6.93004 21.3174 7.1802 21.9214 7.62566 22.3669C8.07111 22.8123 8.67513 23.0625 9.30499 23.0625L12.555 23.0625C12.9693 23.0625 13.305 22.7267 13.305 22.3125C13.305 21.8983 12.9693 21.5625 12.555 21.5625L9.30499 21.5625C9.07295 21.5625 8.85046 21.4704 8.68632 21.3062C8.52217 21.1421 8.43004 20.9196 8.43004 20.6875L8.43004 9.31249C8.43004 9.08039 8.52221 8.85787 8.68628 8.69382C8.85049 8.52965 9.07302 8.4375 9.30499 8.4375L12.555 8.4375Z" fill="#F2F2F2"/>
</svg>
