<svg width="30" height="30" viewBox="0 0 30 30" fill="none" xmlns="http://www.w3.org/2000/svg">
<path d="M25 7.5C25 7.16848 24.8683 6.85054 24.6339 6.61612C24.3995 6.3817 24.0815 6.25 23.75 6.25H6.25C5.91848 6.25 5.60054 6.3817 5.36612 6.61612C5.13169 6.85054 5 7.16848 5 7.5C5 7.83152 5.13169 8.14946 5.36612 8.38388C5.60054 8.6183 5.91848 8.75 6.25 8.75H23.75C24.0815 8.75 24.3995 8.6183 24.6339 8.38388C24.8683 8.14946 25 7.83152 25 7.5Z" fill="white"/>
<path d="M25 22.5C25 22.1685 24.8683 21.8505 24.6339 21.6161C24.3995 21.3817 24.0815 21.25 23.75 21.25H6.25C5.91848 21.25 5.60054 21.3817 5.36612 21.6161C5.13169 21.8505 5 22.1685 5 22.5C5 22.8315 5.13169 23.1495 5.36612 23.3839C5.60054 23.6183 5.91848 23.75 6.25 23.75H23.75C24.0815 23.75 24.3995 23.6183 24.6339 23.3839C24.8683 23.1495 25 22.8315 25 22.5Z" fill="white"/>
<path d="M16.25 13.75C16.5815 13.75 16.8995 13.8817 17.1339 14.1161C17.3683 14.3505 17.5 14.6685 17.5 15C17.5 15.3315 17.3683 15.6495 17.1339 15.8839C16.8995 16.1183 16.5815 16.25 16.25 16.25H6.25C5.91848 16.25 5.60054 16.1183 5.36612 15.8839C5.13169 15.6495 5 15.3315 5 15C5 14.6685 5.13169 14.3505 5.36612 14.1161C5.60054 13.8817 5.91848 13.75 6.25 13.75H16.25Z" fill="white"/>
</svg>
