<svg width="30" height="30" viewBox="0 0 30 30" fill="none" xmlns="http://www.w3.org/2000/svg">
<path fill-rule="evenodd" clip-rule="evenodd" d="M14.954 6.94647C15.1616 6.93325 15.3736 7.00597 15.5323 7.16463L19.5948 11.2271C19.8877 11.52 19.8877 11.9949 19.5948 12.2878C19.3019 12.5807 18.827 12.5807 18.5341 12.2878L15.75 9.50366V17.4451C15.75 17.8593 15.4142 18.1951 15 18.1951C14.5858 18.1951 14.25 17.8593 14.25 17.4451V9.50756L11.4698 12.2878C11.1769 12.5807 10.702 12.5807 10.4091 12.2878C10.1162 11.9949 10.1162 11.52 10.4091 11.2271L14.4394 7.19684C14.5673 7.05309 14.7496 6.95884 14.954 6.94647ZM8.4375 17.4451C8.4375 17.0309 8.10171 16.6951 7.6875 16.6951C7.27329 16.6951 6.9375 17.0309 6.9375 17.4451V20.6951C6.9375 21.3251 7.18778 21.929 7.63308 22.3744C8.07854 22.82 8.68267 23.0701 9.31249 23.0701H20.6876C21.3174 23.0701 21.9214 22.8199 22.3669 22.3745C22.8123 21.929 23.0625 21.325 23.0625 20.6951V17.4451C23.0625 17.0309 22.7267 16.6951 22.3125 16.6951C21.8983 16.6951 21.5625 17.0309 21.5625 17.4451V20.6951C21.5625 20.9272 21.4704 21.1497 21.3062 21.3138C21.1421 21.4779 20.9196 21.5701 20.6876 21.5701H9.31249C9.08039 21.5701 8.85787 21.4779 8.69382 21.3138C8.52965 21.1496 8.4375 20.9271 8.4375 20.6951V17.4451Z" fill="#F2F2F2"/>
</svg>
