<svg width="30" height="30" viewBox="0 0 30 30" fill="none" xmlns="http://www.w3.org/2000/svg">
<path fill-rule="evenodd" clip-rule="evenodd" d="M23.0535 14.954C23.0667 15.1616 22.994 15.3736 22.8353 15.5323L18.7728 19.5948C18.4799 19.8877 18.0051 19.8877 17.7122 19.5948C17.4193 19.3019 17.4193 18.827 17.7122 18.5341L20.4963 15.75L12.5549 15.75C12.1406 15.75 11.8049 15.4142 11.8049 15C11.8049 14.5858 12.1406 14.25 12.5549 14.25L20.4924 14.25L17.7122 11.4698C17.4193 11.1769 17.4193 10.702 17.7122 10.4091C18.0051 10.1162 18.4799 10.1162 18.7728 10.4091L22.8031 14.4394C22.9469 14.5673 23.0411 14.7496 23.0535 14.954ZM12.5549 8.4375C12.9691 8.4375 13.3049 8.10171 13.3049 7.6875C13.3049 7.27329 12.9691 6.9375 12.5549 6.9375L9.3048 6.9375C8.67488 6.9375 8.0709 7.18778 7.62551 7.63308C7.17999 8.07854 6.92986 8.68267 6.92986 9.31249L6.92985 20.6875C6.92985 21.3174 7.18002 21.9214 7.62547 22.3669C8.07093 22.8123 8.67495 23.0625 9.3048 23.0625L12.5549 23.0625C12.9691 23.0625 13.3049 22.7267 13.3049 22.3125C13.3049 21.8983 12.9691 21.5625 12.5549 21.5625L9.3048 21.5625C9.07276 21.5625 8.85028 21.4704 8.68613 21.3062C8.52199 21.1421 8.42985 20.9196 8.42985 20.6875L8.42986 9.31249C8.42986 9.08039 8.52203 8.85787 8.6861 8.69382C8.85031 8.52965 9.07283 8.4375 9.3048 8.4375L12.5549 8.4375Z" fill="#F2F2F2"/>
</svg>
