<svg width="24" height="24" viewBox="0 0 24 24" fill="none" xmlns="http://www.w3.org/2000/svg">
<path d="M12 3.14594C14.8837 3.14594 15.2253 3.15691 16.3641 3.20887C17.4171 3.25693 17.9889 3.43287 18.3695 3.58073C18.8736 3.77665 19.2334 4.01072 19.6113 4.38863C19.9892 4.76653 20.2233 5.12635 20.4192 5.63042C20.5671 6.01103 20.743 6.58288 20.7911 7.63582C20.8431 8.77468 20.854 9.11623 20.854 12C20.854 14.8837 20.8431 15.2253 20.7911 16.3641C20.743 17.4171 20.5671 17.9889 20.4192 18.3695C20.2233 18.8736 19.9892 19.2334 19.6113 19.6113C19.2334 19.9892 18.8736 20.2233 18.3695 20.4192C17.9889 20.5671 17.4171 20.743 16.3641 20.7911C15.2254 20.843 14.8839 20.854 12 20.854C9.11608 20.854 8.77453 20.843 7.63588 20.7911C6.5829 20.743 6.01104 20.5671 5.63048 20.4192C5.12636 20.2233 4.76655 19.9892 4.38865 19.6113C4.01074 19.2334 3.77667 18.8736 3.58079 18.3695C3.43289 17.9889 3.25695 17.4171 3.20889 16.3641C3.15693 15.2253 3.14595 14.8837 3.14595 12C3.14595 9.11623 3.15693 8.77468 3.20889 7.63587C3.25695 6.58288 3.43289 6.01103 3.58079 5.63042C3.77667 5.12635 4.01074 4.76653 4.38865 4.38863C4.76655 4.01072 5.12636 3.77665 5.63048 3.58073C6.01104 3.43287 6.5829 3.25693 7.63584 3.20887C8.7747 3.15691 9.11625 3.14594 12 3.14594ZM12 1.19995C9.06686 1.19995 8.69912 1.21238 7.54719 1.26494C6.39761 1.31742 5.61256 1.49996 4.92556 1.76696C4.21536 2.04296 3.61307 2.41225 3.01267 3.01265C2.41227 3.61305 2.04298 4.21535 1.76698 4.92554C1.49998 5.61254 1.31743 6.39759 1.26496 7.54717C1.2124 8.69906 1.20001 9.06685 1.20001 12C1.20001 14.9331 1.2124 15.3009 1.26496 16.4528C1.31743 17.6024 1.49998 18.3874 1.76698 19.0744C2.04298 19.7846 2.41227 20.3869 3.01267 20.9873C3.61307 21.5877 4.21536 21.957 4.92556 22.233C5.61256 22.5 6.39761 22.6825 7.54719 22.735C8.69912 22.7876 9.06686 22.7999 12 22.7999C14.9331 22.7999 15.3009 22.7876 16.4528 22.735C17.6024 22.6825 18.3874 22.5 19.0744 22.233C19.7846 21.957 20.3869 21.5877 20.9873 20.9873C21.5877 20.3869 21.957 19.7846 22.233 19.0744C22.5 18.3874 22.6825 17.6024 22.735 16.4528C22.7876 15.3009 22.8 14.9331 22.8 12C22.8 9.06685 22.7876 8.69906 22.735 7.54717C22.6825 6.39759 22.5 5.61254 22.233 4.92554C21.957 4.21535 21.5877 3.61305 20.9873 3.01265C20.3869 2.41225 19.7846 2.04296 19.0744 1.76696C18.3874 1.49996 17.6024 1.31742 16.4528 1.26494C15.3009 1.21238 14.9331 1.19995 12 1.19995ZM12 6.45401C8.93705 6.45401 6.45403 8.93704 6.45403 12C6.45403 15.0629 8.93705 17.5459 12 17.5459C15.0629 17.5459 17.546 15.0629 17.546 12C17.546 8.93704 15.0629 6.45401 12 6.45401ZM12 15.6C10.0118 15.6 8.39997 13.9882 8.39997 12C8.39997 10.0118 10.0118 8.39995 12 8.39995C13.9882 8.39995 15.6 10.0118 15.6 12C15.6 13.9882 13.9882 15.6 12 15.6ZM19.061 6.2349C19.061 6.95066 18.4808 7.53092 17.7651 7.53092C17.0493 7.53092 16.469 6.95066 16.469 6.2349C16.469 5.51913 17.0493 4.93892 17.7651 4.93892C18.4808 4.93892 19.061 5.51913 19.061 6.2349Z" fill="#F2F2F2"/>
</svg>
