<svg width="24" height="24" viewBox="0 0 24 24" fill="none" xmlns="http://www.w3.org/2000/svg">
<path d="M19.5625 5.49972H16.8309C15.7854 5.49972 14.8918 5.87068 14.1498 6.6126C13.4416 7.35452 13.0875 8.24819 13.0875 9.29363V11.9747H10.9124V15.2121H13.0875V22.7494H16.325V15.2121H19.5625V11.9747H16.325V9.79948C16.325 9.52969 16.4262 9.29363 16.6285 9.09129C16.8309 8.85522 17.0838 8.73719 17.3873 8.73719H19.5625V5.49972ZM1.19995 2.19995C1.19995 1.64766 1.64767 1.19995 2.19995 1.19995H21.7999C22.3522 1.19995 22.7999 1.64767 22.7999 2.19995V21.7494C22.7999 22.3017 22.3522 22.7494 21.7999 22.7494H2.19995C1.64767 22.7494 1.19995 22.3017 1.19995 21.7494V2.19995Z" fill="#F2F2F2"/>
</svg>
