<svg width="21" height="22" viewBox="0 0 21 22" fill="none" xmlns="http://www.w3.org/2000/svg">
<path d="M18.1331 10.936C18.1331 8.47521 18.1236 8.18375 18.0787 7.21196C18.0372 6.31341 17.8851 5.82543 17.7574 5.50065C17.588 5.07051 17.3858 4.76346 17.0592 4.44099C16.7326 4.11851 16.4216 3.91876 15.986 3.75162C15.6571 3.62541 15.1629 3.47527 14.253 3.43426C13.2688 3.38992 12.9736 3.38056 10.4815 3.38056C7.98935 3.38056 7.69418 3.38992 6.71002 3.43426C5.80003 3.47527 5.30583 3.62541 4.97692 3.75162C4.5413 3.91876 4.23035 4.11851 3.90376 4.44099C3.57718 4.76346 3.37489 5.07051 3.20562 5.50065C3.0778 5.82543 2.92575 6.31341 2.88422 7.21196C2.83932 8.18361 2.82983 8.47506 2.82983 10.936C2.82983 13.3969 2.83932 13.6884 2.88422 14.66C2.92575 15.5586 3.0778 16.0466 3.20562 16.3713C3.37489 16.8015 3.57718 17.1085 3.90376 17.431C4.23035 17.7535 4.5413 17.9532 4.97692 18.1204C5.30583 18.2466 5.80003 18.3967 6.70998 18.4377C7.69418 18.4821 7.98935 18.4914 10.4815 18.4914C12.9736 18.4914 13.2688 18.4821 14.2529 18.4377C15.1629 18.3967 15.6571 18.2466 15.986 18.1204C16.4216 17.9532 16.7326 17.7535 17.0592 17.431C17.3858 17.1085 17.588 16.8015 17.7574 16.3713C17.8851 16.0466 18.0372 15.5586 18.0787 14.6601C18.1236 13.6882 18.1331 13.3968 18.1331 10.936ZM19.8148 10.936C19.8148 13.4389 19.8041 13.7527 19.7587 14.7357C19.7133 15.7167 19.5556 16.3866 19.3248 16.9728C19.0863 17.5789 18.7672 18.0928 18.2483 18.6052C17.7294 19.1175 17.2089 19.4326 16.5952 19.6682C16.0015 19.896 15.323 20.0518 14.3296 20.0966C13.3341 20.1414 13.0163 20.152 10.4815 20.152C7.94667 20.152 7.62883 20.1414 6.63336 20.0966C5.6399 20.0518 4.96147 19.896 4.36776 19.6682C3.75405 19.4326 3.23351 19.1175 2.71465 18.6052C2.19578 18.0928 1.87664 17.5789 1.63812 16.9728C1.40738 16.3866 1.24963 15.7167 1.20428 14.7357C1.15886 13.7527 1.14815 13.4389 1.14815 10.936C1.14815 8.43306 1.15886 8.11922 1.20428 7.13627C1.24963 6.1553 1.40738 5.48539 1.63812 4.89915C1.87664 4.29312 2.19578 3.77916 2.71465 3.26682C3.23351 2.75447 3.75401 2.43935 4.36776 2.20383C4.96147 1.97599 5.6399 1.82022 6.63336 1.77544C7.62883 1.73059 7.94667 1.71998 10.4815 1.71998C13.0163 1.71998 13.3341 1.73059 14.3296 1.77544C15.323 1.82022 16.0015 1.97599 16.5952 2.20383C17.2089 2.43935 17.7294 2.75447 18.2483 3.26682C18.7672 3.77916 19.0863 4.29312 19.3248 4.89915C19.5556 5.48539 19.7133 6.1553 19.7587 7.13627C19.8041 8.11922 19.8148 8.43307 19.8148 10.936ZM15.2743 10.936C15.2743 13.5497 13.1285 15.6686 10.4815 15.6686C7.83448 15.6686 5.68866 13.5497 5.68866 10.936C5.68866 8.32229 7.83448 6.20344 10.4815 6.20344C13.1285 6.20344 15.2743 8.32229 15.2743 10.936ZM7.37034 10.936C7.37034 12.6326 8.76326 14.008 10.4815 14.008C12.1997 14.008 13.5926 12.6326 13.5926 10.936C13.5926 9.23939 12.1997 7.86398 10.4815 7.86398C8.76326 7.86398 7.37034 9.23939 7.37034 10.936ZM15.4636 4.91056C14.8451 4.91056 14.3436 5.40568 14.3436 6.01647C14.3436 6.62726 14.8451 7.12241 15.4636 7.12241C16.0822 7.12241 16.5836 6.62726 16.5836 6.01647C16.5836 5.40568 16.0822 4.91056 15.4636 4.91056Z" fill="white"/>
</svg>
