<svg width="21" height="21" viewBox="0 0 21 21" fill="none" xmlns="http://www.w3.org/2000/svg">
<path d="M17.8913 7.30434C17.8913 7.47701 17.8913 7.63528 17.8913 7.77917C17.8913 9.07416 17.6436 10.3548 17.1481 11.621C16.6818 12.8584 15.9969 13.9951 15.0935 15.0311C14.2192 16.0671 13.068 16.916 11.6399 17.5779C10.241 18.211 8.6964 18.5276 7.00606 18.5276C4.87855 18.5276 2.92591 17.9664 1.14813 16.8441C1.43957 16.8729 1.74558 16.8873 2.06617 16.8873C3.84394 16.8873 5.43229 16.3549 6.83119 15.2901C5.98602 15.2613 5.22828 15.0023 4.55797 14.5131C3.9168 14.0239 3.47964 13.4052 3.24649 12.657C3.47964 12.7145 3.7128 12.7433 3.94595 12.7433C4.29567 12.7433 4.63083 12.6857 4.95141 12.5706C4.07709 12.398 3.3485 11.9663 2.76562 11.2756C2.18274 10.585 1.8913 9.79359 1.8913 8.90149C1.8913 8.87271 1.8913 8.85833 1.8913 8.85833C2.44504 9.1461 3.02791 9.30438 3.63994 9.33315C2.50332 8.55616 1.93502 7.50578 1.93502 6.18202C1.93502 5.49136 2.10988 4.85825 2.45961 4.2827C3.42136 5.4338 4.57254 6.35468 5.91316 7.04534C7.28292 7.736 8.75469 8.1245 10.3285 8.21083C10.2702 7.92306 10.241 7.63528 10.241 7.34751C10.241 6.31152 10.6053 5.4338 11.3339 4.71436C12.0917 3.96615 12.9951 3.59204 14.0443 3.59204C15.1518 3.59204 16.0844 3.98054 16.8421 4.75753C17.7164 4.58487 18.5325 4.2827 19.2902 3.85104C18.9988 4.74314 18.4305 5.4338 17.5853 5.92302C18.3722 5.83669 19.1153 5.64963 19.8148 5.36186C19.2902 6.11007 18.649 6.75757 17.8913 7.30434Z" fill="white"/>
</svg>
