<svg width="24" height="24" viewBox="0 0 24 24" fill="none" xmlns="http://www.w3.org/2000/svg">
<path d="M20.5742 7.95045C20.5742 8.15279 20.5742 8.33827 20.5742 8.50689C20.5742 10.0245 20.2876 11.5252 19.7143 13.009C19.1747 14.4591 18.3822 15.7912 17.3368 17.0053C16.3251 18.2193 14.993 19.2142 13.3405 19.9898C11.7218 20.7317 9.93444 21.1027 7.97847 21.1027C5.51664 21.1027 3.25715 20.4451 1.20001 19.1298C1.53725 19.1636 1.89135 19.1804 2.26231 19.1804C4.31945 19.1804 6.15739 18.5565 7.77612 17.3088C6.79814 17.275 5.92132 16.9715 5.14568 16.3982C4.40376 15.8249 3.8979 15.0999 3.62811 14.223C3.8979 14.2905 4.16769 14.3242 4.43748 14.3242C4.84217 14.3242 5.22999 14.2568 5.60095 14.1219C4.58924 13.9195 3.74615 13.4137 3.07167 12.6043C2.3972 11.7949 2.05997 10.8675 2.05997 9.82211C2.05997 9.78839 2.05997 9.77153 2.05997 9.77153C2.70071 10.1088 3.37519 10.2942 4.08338 10.328C2.76816 9.41743 2.11055 8.18651 2.11055 6.63523C2.11055 5.82586 2.31289 5.08394 2.71758 4.40947C3.83046 5.75841 5.16254 6.83757 6.71383 7.64694C8.29884 8.4563 10.0019 8.91157 11.823 9.01274C11.7555 8.67551 11.7218 8.33827 11.7218 8.00103C11.7218 6.78698 12.1433 5.75841 12.9864 4.91532C13.8632 4.03851 14.9087 3.6001 16.1227 3.6001C17.4042 3.6001 18.4834 4.05537 19.3602 4.96591C20.3719 4.76356 21.3162 4.40947 22.193 3.90361C21.8557 4.94904 21.1981 5.75841 20.2201 6.33171C21.1307 6.23054 21.9906 6.01134 22.8 5.6741C22.193 6.55092 21.4511 7.3097 20.5742 7.95045Z" fill="#F2F2F2"/>
</svg>
