<svg width="21" height="22" viewBox="0 0 21 22" fill="none" xmlns="http://www.w3.org/2000/svg">
<path d="M17.017 5.30121L14.6563 5.30121C13.7529 5.30121 12.9806 5.61777 12.3394 6.25087C11.7274 6.88398 11.4214 7.64658 11.4214 8.53868V10.8265H9.54158V13.5891H11.4214L11.4214 20.0209L14.2192 20.0209L14.2192 13.5891H17.017V10.8265H14.2192V8.97035C14.2192 8.74013 14.3066 8.53868 14.4815 8.36602C14.6563 8.16458 14.8749 8.06385 15.1372 8.06385H17.017V5.30121ZM1.14813 2.63208C1.14813 2.07979 1.59585 1.63208 2.14813 1.63208L18.8148 1.63208C19.3671 1.63208 19.8148 2.0798 19.8148 2.63208L19.8148 19.0209C19.8148 19.5732 19.3671 20.0209 18.8148 20.0209L2.14813 20.0209C1.59585 20.0209 1.14813 19.5732 1.14813 19.0209L1.14813 2.63208Z" fill="white"/>
</svg>
