<svg width="22" height="24" viewBox="0 0 22 24" fill="none" xmlns="http://www.w3.org/2000/svg">
<path fill-rule="evenodd" clip-rule="evenodd" d="M3.19794 7.03078C3.63967 3.02815 7 0 11 0C15 0 18.3603 3.02815 18.8021 7.03078L19.1094 9.8151C19.2439 10.995 19.6253 12.1327 20.2286 13.1533L20.9796 14.4137C21.2675 14.8966 21.5283 15.3342 21.702 15.7055C21.8785 16.0829 22.0673 16.5943 21.9764 17.1741C21.8866 17.7471 21.5937 18.268 21.1518 18.6404C20.7048 19.0171 20.1722 19.1172 19.7599 19.159C19.3542 19.2001 18.8474 19.2 18.2879 19.2L15.591 19.2C15.3421 20.4427 14.8312 21.5965 14.0764 22.4711C13.2774 23.397 12.2042 24 11 24C9.79583 24 8.72256 23.397 7.92357 22.4711C7.16879 21.5965 6.65791 20.4427 6.40904 19.2L3.71208 19.2C3.15263 19.2 2.64578 19.2001 2.2401 19.159C1.82784 19.1172 1.29522 19.0171 0.848188 18.6404C0.40633 18.268 0.113394 17.7471 0.0235875 17.1741C-0.0672716 16.5943 0.121487 16.0829 0.298025 15.7055C0.471745 15.3342 0.732545 14.8966 1.02041 14.4137L1.77144 13.1533C2.37469 12.1327 2.75613 10.995 2.89061 9.8151L3.19794 7.03078ZM8.86015 19.2C9.06 19.9032 9.36651 20.4839 9.72303 20.8971C10.173 21.4185 10.6299 21.6 11 21.6C11.3701 21.6 11.827 21.4185 12.277 20.8971C12.6335 20.4839 12.94 19.9032 13.1398 19.2H8.86015ZM11 2.4C8.21464 2.4 5.8747 4.50862 5.56711 7.29582L5.25882 10.0887C5.08592 11.6057 4.59549 13.0685 3.81989 14.3807L3.09324 15.6002C2.76726 16.1472 2.57081 16.4796 2.45457 16.7281C2.44822 16.7417 2.44239 16.7545 2.43704 16.7665C2.44999 16.768 2.46387 16.7695 2.47872 16.7711C2.75016 16.7985 3.13439 16.8 3.76798 16.8H18.232C18.8656 16.8 19.2498 16.7985 19.5213 16.7711C19.5361 16.7695 19.55 16.768 19.563 16.7665C19.5576 16.7545 19.5518 16.7417 19.5454 16.7281C19.4292 16.4796 19.2327 16.1472 18.9068 15.6002L18.1801 14.3807C17.4045 13.0685 16.9141 11.6057 16.7412 10.0887L16.4329 7.29582C16.1253 4.50862 13.7854 2.4 11 2.4Z" fill="#D6D0DA"/>
</svg>
