<svg width="69" height="69" viewBox="0 0 69 69" fill="none" xmlns="http://www.w3.org/2000/svg">
<g clip-path="url(#clip0_360_14)">
<path d="M14.3961 24.4886C14.4502 24.6193 14.5767 24.7046 14.718 24.7083C17.1593 24.7745 24.063 26.2332 24.063 26.2332L29.6575 17.7167L31.9772 23.2891C31.9772 23.2891 28.7373 29.0039 25.2759 29.6935C22.5222 30.2418 16.0409 26.8444 14.1931 26.3633C14.1931 26.3633 12.6853 25.8337 12.3835 25.0011C12.0817 24.1686 14.3961 24.4891 14.3961 24.4891V24.4886Z" fill="#F7A491"/>
<path d="M1.60184 57.7394C1.60184 59.1405 1.73095 60.4488 1.99394 61.5955C2.26968 62.7982 2.63947 63.7113 3.27702 64.3828C3.64946 64.7743 4.11223 65.0825 4.7025 65.3188C4.74447 65.3359 4.7875 65.3524 4.8316 65.3695C5.9181 65.7732 7.41476 65.9471 9.52135 65.9471H60.9259C61.3265 65.8932 61.7101 65.8169 62.0761 65.722C62.1372 65.706 62.1973 65.6895 62.2578 65.6729C62.558 65.5892 62.8465 65.4916 63.1233 65.3839C63.4007 65.2761 63.6663 65.1577 63.9197 65.0319C64.0207 64.9812 64.1195 64.9295 64.2167 64.8767C65.1433 64.3726 65.8983 63.7614 66.4838 63.163C67.1622 62.4718 67.6133 61.7966 67.838 61.3256C67.879 61.2398 67.913 61.1608 67.9385 61.0904C70.4584 54.2071 67.4204 42.5951 64.2481 35.9982C59.8479 26.8492 61.6426 18.6724 58.2232 15.282C57.4868 14.5513 56.4672 13.963 55.3207 13.5241C52.244 12.3427 48.2539 12.2387 46.3864 13.3593C44.0328 14.7721 42.5377 16.6617 41.414 19.201C40.174 22.0058 39.2373 25.0934 37.0436 27.206C34.9662 29.2055 23.5518 33.4045 18.6421 34.7267C14.9661 35.7171 11.3878 37.1688 8.53686 39.7364C4.33537 43.5199 1.92806 50.6406 1.63319 56.5319V56.533C1.62788 56.6354 1.62363 56.7367 1.61938 56.8381C1.61566 56.9394 1.61247 57.0413 1.60982 57.1421C1.60982 57.1496 1.60982 57.1575 1.60928 57.165C1.60503 57.3581 1.60238 57.5501 1.60238 57.741L1.60184 57.7394Z" fill="#C859FF"/>
<path d="M54.5286 43.0138C54.8633 44.4965 55.2326 43.8127 53.7747 44.225C52.3168 44.6373 48.0282 44.4922 46.5368 44.225C43.2045 43.6276 41.7653 45.2575 38.3804 45.2869C37.9787 45.2906 37.4915 45.3525 37.3305 45.7216C37.2434 45.921 37.2801 46.168 37.1531 46.3445C37.0596 46.4746 36.898 46.5349 36.7429 46.5749C35.2595 46.9605 33.7645 46.153 32.2827 45.7616C31.1027 45.4501 29.8722 45.4021 28.6529 45.3557C22.0791 45.1055 15.3354 44.8783 9.10062 46.9851C10.8077 44.4389 13.5529 42.7279 16.4607 41.7807C19.3685 40.8329 22.4537 40.5865 25.5086 40.4761C25.1707 39.8094 25.6898 38.9603 26.3853 38.6905C27.0802 38.4206 27.8607 38.5689 28.5833 38.7529C30.2664 39.1817 31.9044 39.7892 33.4611 40.5614C33.4829 39.9609 34.1778 39.6574 34.7575 39.507C38.3719 38.5726 36.8545 21.7456 38.1678 25.3035C44.6518 42.8623 53.7736 39.6702 54.5286 43.0138Z" fill="#8B2EFF"/>
<path d="M1.60194 60.2269C1.60194 61.7075 1.73105 63.0894 1.99404 64.3011C2.26978 65.5721 2.63956 66.5364 3.27712 67.2457C3.64902 67.6586 4.11232 67.985 4.70259 68.2346C4.74457 68.2522 4.7876 68.2703 4.8317 68.2884C5.9182 68.714 7.41486 68.8981 9.52039 68.8981H60.9254C61.326 68.841 61.7096 68.7604 62.0757 68.6607C62.1368 68.6436 62.1968 68.6266 62.2574 68.6084C62.5576 68.5188 62.8461 68.4164 63.1229 68.3028C63.4002 68.1892 63.6659 68.0639 63.9193 67.9306C64.0202 67.8767 64.1191 67.8223 64.2163 67.7663C65.1429 67.234 65.8978 66.5881 66.4833 65.9556C67.1618 65.2233 67.6118 64.5108 67.8376 64.0142C67.8785 63.923 67.9125 63.8403 67.938 63.7657C70.458 56.4924 68.1054 44.3066 64.933 37.3363C60.5328 27.6689 61.6422 18.9466 58.2227 15.3636C57.4864 14.5918 56.4668 13.9699 55.3203 13.5059C55.749 15.4926 56.5258 17.5385 56.8658 19.1823C57.6521 22.9797 57.319 27.071 58.1053 30.8679C59.4973 37.5854 60.8431 44.8645 58.2164 51.1382C56.1762 56.0114 51.9476 59.5224 47.337 61.4947C42.7264 63.4675 37.7189 64.0681 32.771 64.4468C25.3567 65.0137 17.9117 65.1246 10.4852 64.779C8.17036 64.6718 5.69187 64.4542 3.88546 62.8899C2.71395 61.8755 2.02645 60.4947 1.63329 58.949C1.62798 59.0573 1.62373 59.1645 1.61948 59.2717C1.61576 59.3789 1.61257 59.4861 1.60991 59.5928C1.60991 59.6008 1.60991 59.6088 1.60938 59.6173C1.60513 59.8221 1.60247 60.0253 1.60247 60.2259L1.60194 60.2269Z" fill="#8B2EFF"/>
<path d="M9.69889 46.1392C10.0692 45.9845 10.4432 45.8405 10.8205 45.7072C14.012 44.5781 17.408 44.1567 20.7839 43.9279C25.0209 43.6404 29.2777 43.6458 33.5137 43.9429C33.4802 42.9823 34.6974 42.5498 35.6532 42.4879C38.1201 42.3284 40.7733 41.4431 43.2194 41.8025C45.826 42.1855 49.8861 42.0249 52.4927 42.4079C53.067 42.4921 53.8013 42.6943 54.5206 43.0052C55.2071 43.3023 55.2485 44.2639 54.5987 44.6351C54.0706 44.9365 53.5292 45.2042 53.2471 45.2842C51.7892 45.6965 50.0636 45.7786 48.5728 45.5114C45.2405 44.9141 41.7982 45.1781 38.4133 45.208C38.0117 45.2117 37.5245 45.2736 37.3635 45.6426C37.2764 45.8421 37.313 46.089 37.186 46.2656C37.0925 46.3957 36.931 46.456 36.7759 46.496C35.2925 46.8816 33.7974 46.0741 32.3156 45.6826C31.1356 45.3712 29.9052 45.3232 28.6858 45.2768C22.1121 45.0266 15.3684 44.7999 9.13359 46.9061C9.31104 46.6411 9.50072 46.3861 9.69942 46.1392H9.69889Z" fill="#7426EF"/>
<path d="M20.6765 45.8144C20.6765 45.8144 26.482 48.4635 33.1918 47.7067C39.902 46.9498 43.8979 45.209 45.6315 45.209C47.3657 45.209 42.9926 43.7711 42.9926 43.7711L31.3816 43.09L21.1404 43.9738L20.676 45.8149L20.6765 45.8144Z" fill="#7426EF"/>
<path d="M27.9143 47.328C27.9143 47.328 23.843 47.2523 22.5615 48.9931C21.28 50.7339 16.6806 48.9931 16.6806 48.9931L17.3468 44.2666L23.3005 44.6767L27.9143 47.328Z" fill="#7426EF"/>
<path d="M41.7116 33.629C41.7116 33.629 41.2594 21.4437 42.39 15.9945C43.5212 10.5453 36.2079 17.7354 36.2079 17.7354L36.9012 32.4893L41.7116 33.6296V33.629Z" fill="#8B2EFF"/>
<path d="M32.2024 3.81292C32.2024 3.81292 32.0398 0.917393 35.6989 0.691254C39.3579 0.465116 41.9517 2.85717 43.3023 4.59481C44.6528 6.33244 43.0079 10.7624 45.3339 11.259C47.66 11.7555 49.6029 13.1651 48.722 15.6974C47.8411 18.2298 50.4838 17.4602 49.8712 19.9701C49.2586 22.4795 46.973 24.447 42.0468 23.7366C37.1206 23.0261 28.8085 19.0751 28.6783 18.7162C28.5482 18.3578 23.8595 14.9502 27.7268 12.8206C31.5287 10.7267 26.4256 4.77668 32.2019 3.81346L32.2024 3.81292Z" fill="#1F2B35"/>
<path d="M30.9199 13.4953C28.0355 14.4772 26.3948 22.3499 26.3948 22.3499C26.3948 22.3499 30.9204 23.6181 32.0802 22.9531C32.0802 22.9531 33.3968 17.0964 33.868 17.3012L30.9199 13.4953Z" fill="#683F7B"/>
<path d="M33.6556 13.4729C33.5812 13.4734 33.4738 13.4473 33.3644 13.4126C32.8289 13.3166 31.6573 13.1758 30.7462 13.5619C29.6379 14.0313 27.9197 18.418 28.0222 22.9205C28.0631 23.6091 28.1051 24.2251 28.1402 24.655C28.4202 28.0561 29.3919 34.4381 29.4445 34.4723C30.7669 35.3267 38.7448 32.0141 39.2931 31.2866C39.8414 30.5591 40.165 21.7189 40.4317 21.2778L40.9556 13.5897C40.0306 13.3123 35.0741 13.4633 33.6556 13.4734V13.4729Z" fill="#805299"/>
<path d="M53.9372 41.8228C53.9 41.7274 53.8166 41.7257 53.7316 41.7231C52.906 41.6975 52.0809 41.6607 51.2622 41.5375C51.1256 41.5172 50.9912 41.4863 50.8653 41.4356C50.6373 41.3444 50.4126 41.3465 50.1826 41.4105C50.0582 41.4452 49.9313 41.4516 49.8032 41.4511C49.3883 41.4495 48.2035 41.0447 47.5951 40.938C47.4559 40.9135 47.346 40.8084 47.3114 40.6708C46.7127 38.2942 45.4285 32.9613 45.2622 31.2082C45.0492 28.966 43.5068 18.8559 43.5068 18.8559L39.3797 20.0112C39.3797 20.0112 41.0783 27.4737 41.5479 31.0925C41.9108 33.8866 44.6927 39.8158 45.5645 41.5209C45.9906 42.7898 46.9464 42.825 47.1685 42.8522C47.2955 42.8676 47.4124 42.9306 47.4958 43.0282C47.6467 43.2042 47.8188 43.3578 48.0165 43.4831C48.1626 43.5759 48.2757 43.6965 48.3719 43.8378C48.5472 44.0949 48.704 44.3631 48.8591 44.6325C48.9622 44.8112 49.0695 44.8677 49.2225 44.8256C49.3861 44.7802 49.4642 44.6591 49.4611 44.4586C49.4563 44.1626 49.3622 43.8949 49.2145 43.6426C49.0759 43.4063 49.086 43.2687 49.2475 43.0511C49.3405 42.9263 49.4356 42.8047 49.5578 42.7055C49.6815 42.6042 49.8117 42.5274 49.9796 42.5514C50.2761 42.6255 50.5752 42.6858 50.8796 42.7199L51.1293 42.7711C51.1378 42.7727 51.2653 42.8004 51.2653 42.8004C51.2866 42.8058 51.7254 42.8543 51.8758 42.8543C51.9964 42.8543 52.1925 42.8623 52.3587 42.8708C52.5096 42.8783 52.8279 42.7994 52.8385 42.7988C52.9851 42.7956 53.1148 42.7423 53.2242 42.6436C53.2689 42.6031 53.3119 42.5578 53.289 42.4895C53.2683 42.4266 53.2189 42.3999 53.1552 42.3882C53.0558 42.37 52.5436 42.3076 52.549 42.2858C52.7014 42.2858 53.178 42.2746 53.33 42.2703C53.535 42.265 53.713 42.1908 53.8543 42.0388C53.9101 41.9786 53.975 41.9188 53.9378 41.8234L53.9372 41.8228Z" fill="#F7A491"/>
<path d="M41.006 13.5726C43.043 13.2009 44.7235 22.3499 44.7235 22.3499C44.7235 22.3499 40.1979 23.6182 39.0381 22.9531C39.0381 22.9531 37.7216 17.0964 37.2503 17.3012L41.006 13.5726Z" fill="#805299"/>
<path d="M23.9626 59.9827C23.9626 59.9827 26.9447 63.5721 26.9644 63.8846C26.984 64.1972 26.8459 67.6058 26.4915 67.9183C26.1366 68.2308 25.0948 68.4522 25.43 68.8037C25.6829 69.0693 27.6306 69.0122 28.9217 68.9413C29.2984 68.9205 29.7712 65.9028 29.92 65.4591C30.1368 64.8148 30.6638 63.3635 30.4667 62.915C30.3705 62.6963 29.9115 62.2467 29.2644 61.827C28.5838 61.3854 25.9799 57.7485 25.9799 57.7485L23.9631 59.9837L23.9626 59.9827Z" fill="#F48C7F"/>
<path d="M10.2722 61.4808C10.2722 61.4808 7.88719 65.1529 8.1013 66.2415C8.21606 66.8244 8.72663 67.5876 8.43389 68.1364C8.14062 68.6853 7.8059 68.8223 7.8059 68.8223L0.209428 68.945C-0.204453 68.9519 0.0691662 68.6847 0.40282 68.4394C0.948992 68.0372 1.38944 67.7711 3.13421 66.9257C3.24791 66.8708 3.66232 66.6068 3.81162 66.5151C4.19043 66.2831 4.57084 65.9188 4.89811 65.5535C5.44375 64.9449 7.55832 59.9672 7.55832 59.9672L10.2727 61.4808H10.2722Z" fill="#F7A491"/>
<path d="M14.9088 40.474C14.9088 40.474 18.0046 43.8303 18.6932 44.4762C23.6661 49.1398 26.9899 59.1235 26.9899 59.1235L24.7351 60.923C24.7351 60.923 17.6173 52.3377 14.5193 47.9211C11.9 44.1866 12.8649 44.4234 11.3241 42.1503C10.4762 40.8991 10.6685 39.2068 11.7863 38.1913C11.9255 38.0649 12.0764 37.9331 12.2411 37.7955C14.5214 35.8878 30.1506 33.741 30.1506 33.741L40.1475 34.724C40.1475 34.724 31.9798 40.4735 31.6749 40.6265C31.3699 40.7796 20.3955 42.386 20.167 42.386C19.9385 42.386 14.9082 40.4735 14.9082 40.4735L14.9088 40.474Z" fill="#F48C7F"/>
<path d="M17.4271 42.921C17.4271 42.921 16.4851 48.8726 16.4352 49.8176C16.3858 50.7627 10.2722 61.4808 10.2722 61.4808L6.35173 63.1459C6.35173 63.1459 12.3724 40.4793 13.0206 39.4174C13.6687 38.3555 22.3639 41.9561 17.4266 42.921H17.4271Z" fill="#F7A491"/>
<path d="M30.1511 33.7416C30.1511 33.7416 24.0768 34.1634 22.3601 34.4386C20.643 34.7139 11.4314 36.204 10.602 37.9145C9.77267 39.6249 4.43421 50.8097 4.77477 51.7169C5.11533 52.6246 9.68023 48.7867 13.9524 50.751C18.2245 52.7153 24.5252 50.8241 24.5252 50.8241C24.5252 50.8241 22.086 45.817 23.1937 45.736C24.3015 45.6549 46.9783 49.7494 41.1638 34.8125C35.3498 19.8757 30.1511 33.7416 30.1511 33.7416Z" fill="#805299"/>
<path d="M17.2836 51.5804C17.2836 51.5804 13.1592 46.7605 12.3755 43.7253C12.3755 43.7253 11.0866 47.7552 11.9372 50.1979C11.9372 50.1979 13.6565 50.5371 14.7239 51.1451C15.7912 51.7532 17.2842 51.5804 17.2842 51.5804H17.2836Z" fill="#683F7B"/>
<path d="M42.0367 38.0435C41.9124 44.2207 32.848 44.7279 29.4514 44.6938C26.0548 44.6597 22.8081 42.8826 21.9293 42.7327C21.05 42.5828 23.0137 45.8208 23.0137 45.8213C23.0583 45.7717 23.1173 45.7418 23.1938 45.7365C24.2128 45.6618 43.4872 49.1211 42.0373 38.0441L42.0367 38.0435Z" fill="#683F7B"/>
<path d="M30.1511 33.7416C30.1511 33.7416 34.5045 33.5042 37.381 34.54C37.381 34.54 34.351 32.7511 31.7949 32.8215C30.5501 32.8557 33.7772 31.8941 33.7772 31.8941L28.9647 31.4375L29.3217 33.8008L30.1511 33.741V33.7416Z" fill="#683F7B"/>
<path d="M39.7469 28.726C39.7469 28.726 39.3575 30.7826 39.8484 31.8834L37.7657 30.2866C37.7657 30.2866 38.5759 28.9271 38.8241 28.8935C39.0722 28.8598 39.7464 28.7254 39.7464 28.7254L39.7469 28.726Z" fill="#805299"/>
<path d="M34.3229 17.2052C36.5155 17.194 36.5777 15.4644 36.4815 14.3982L36.5846 10.3181L33.5079 12.987L33.5594 13.8265C33.5594 13.8265 32.1052 17.2169 34.3229 17.2057V17.2052Z" fill="#F7A491"/>
<path d="M33.4181 11.756L33.5079 13.2137C36.4337 13.3454 36.5846 10.6205 36.5846 10.6205L33.4181 11.756Z" fill="#F48C7F"/>
<path d="M30.7105 3.98467C30.6866 3.37185 30.6935 2.02036 31.4458 1.13127C32.0951 0.363788 33.0998 -0.0164866 34.4317 0.000580429C36.5505 0.0283144 38.0594 0.73393 38.9525 1.32061C39.9227 1.95849 40.5448 2.84064 40.564 2.86678L40.2978 2.71051C40.2792 2.68544 38.4186 0.209652 34.4275 0.157384C33.1354 0.140317 32.3363 0.452857 31.7152 1.18727C30.9996 2.03316 31.032 2.97825 31.0548 3.56599C31.0559 3.59533 30.7839 3.83266 30.7833 3.83853L31.3088 4.1084C31.3088 4.1084 30.7116 4.00173 30.7111 3.9852L30.7105 3.98467Z" fill="#1F2B35"/>
<path d="M48.7869 15.4974L48.5393 15.1124C48.9723 14.1902 49.0074 13.3081 48.475 12.4654C48.0138 11.7357 47.3997 11.3325 46.574 11.332C44.5843 11.332 44.2974 10.8371 44.2879 10.8077L44.138 10.9181L44.1949 10.6979L44.3452 10.5149C44.3474 10.5213 44.7039 11.1939 46.574 11.1944C47.448 11.1944 48.2279 11.6365 48.7146 12.4067C49.2719 13.2889 49.2395 14.5326 48.7869 15.4969V15.4974Z" fill="#1F2B35"/>
<path d="M31.8231 12.035C31.8231 12.035 35.2213 13.9998 36.5968 10.9443C37.9723 7.88874 39.7383 6.27644 36.6988 4.68387C33.6587 3.0913 32.5276 3.98199 31.8215 4.88974C31.1154 5.7975 30.5963 11.3603 31.8231 12.035Z" fill="#F7A491"/>
<path d="M31.3449 5.8295C30.0931 6.16071 30.3949 1.95209 33.2783 1.04327C36.2004 0.12218 39.5237 1.263 40.6665 2.09502C42.5536 3.46892 38.7379 10.4141 38.5408 10.4461C38.3437 10.4781 36.66 12.3614 36.66 12.3614C36.66 12.3614 36.5075 10.2285 36.7795 10.0264C37.6583 9.37251 37.6928 7.77141 36.6483 7.93035C35.7658 8.06475 34.6129 4.96442 31.3449 5.8295Z" fill="#1F2B35"/>
<path d="M31.8278 10.4632L34.675 10.8243C34.675 10.8243 34.4705 11.9181 33.2135 11.796C31.6812 11.6472 31.8278 10.4626 31.8278 10.4626V10.4632Z" fill="white"/>
<path d="M15.5399 25.8625L14.6202 21.2789C14.5676 21.0165 14.3684 20.8229 14.1282 20.8L12.9073 20.6832C12.5354 20.6474 12.2395 21.0256 12.3213 21.432L13.2776 26.1713C13.3356 26.4587 13.5683 26.6604 13.8329 26.6513L15.0171 26.6124C15.364 26.6012 15.6153 26.2401 15.5399 25.8625Z" fill="#1F2B35"/>
<path d="M12.7336 23.3653C12.7336 23.3653 14.2212 23.8229 13.6873 23.9995C13.1528 24.176 12.5158 23.9488 12.5158 23.9488C12.5158 23.9488 12.2916 23.7093 12.3814 23.5621C12.4711 23.4149 12.7336 23.3648 12.7336 23.3648V23.3653Z" fill="#F7A491"/>
<path d="M12.6449 23.9611C12.6449 23.9611 14.0348 24.2443 13.5693 24.4715C13.1039 24.6987 12.5057 24.5472 12.5057 24.5472C12.5057 24.5472 12.24 24.32 12.3065 24.1686C12.3729 24.0171 12.6454 23.9611 12.6454 23.9611H12.6449Z" fill="#F7A491"/>
<path d="M12.6258 24.4907C12.6258 24.4907 13.9391 24.7739 13.4992 25.0011C13.0593 25.2283 12.494 25.0769 12.494 25.0769C12.494 25.0769 12.2427 24.8496 12.3054 24.6982C12.3681 24.5467 12.6258 24.4907 12.6258 24.4907Z" fill="#F7A491"/>
<path d="M12.6342 24.9446C12.6342 24.9446 13.7303 25.2278 13.3631 25.455C12.996 25.6822 12.5242 25.5307 12.5242 25.5307C12.5242 25.5307 12.2618 25.3035 12.3144 25.1526C12.367 25.0011 12.6342 24.9451 12.6342 24.9451V24.9446Z" fill="#F7A491"/>
<path d="M16.0117 25.1718C16.0117 25.1718 15.814 24.064 15.551 23.7872C15.2875 23.5104 15.0219 23.1845 15.0219 23.1845C15.0219 23.1845 14.0374 23.0256 13.9715 23.1643C13.9056 23.303 14.498 23.7872 14.761 23.7872C15.024 23.7872 15.6164 25.3793 15.6164 25.3793L16.077 25.3099L16.0111 25.1713L16.0117 25.1718Z" fill="#F7A491"/>
</g>
<defs>
<clipPath id="clip0_360_14">
<rect width="69" height="69" fill="white" transform="matrix(-1 0 0 1 69 0)"/>
</clipPath>
</defs>
</svg>
