<svg width="96" height="96" viewBox="0 0 96 96" fill="none" xmlns="http://www.w3.org/2000/svg">
<g filter="url(#filter0_d_399_100)">
<circle cx="48" cy="48" r="38" fill="#EFE6FA"/>
</g>
<path d="M47.9855 78C64.4282 78 78 64.4282 78 47.9855C78 31.5718 64.3992 18 47.9565 18C31.5428 18 18 31.5718 18 47.9855C18 64.4282 31.5718 78 47.9855 78ZM34.8777 61.4993C31.6588 61.4993 29.9768 59.8463 29.9768 56.6854V41.0836C29.9768 37.8647 31.6588 36.2407 34.8777 36.2407H38.3867C39.5176 36.2407 39.8946 36.0087 40.6196 35.2837L41.8086 34.0077C42.5626 33.1667 43.3746 32.7898 44.8536 32.7898H51.0014C52.5094 32.7898 53.2924 33.1957 54.0464 34.0077L55.2354 35.2837C55.9604 36.0377 56.3374 36.2407 57.4973 36.2407H61.0643C64.2542 36.2407 65.9652 37.8647 65.9652 41.0836V56.6854C65.9652 59.8463 64.2542 61.4993 61.0643 61.4993H34.8777ZM47.9855 57.4973C52.8574 57.4973 56.7144 53.6984 56.7144 48.7395C56.7144 43.8966 52.8574 39.9816 47.9855 39.9816C43.1426 39.9816 39.2276 43.8966 39.2276 48.7395C39.2276 53.6114 43.1426 57.4973 47.9855 57.4973ZM59.8463 44.7666C60.9773 44.7666 61.9053 43.8676 61.8763 42.7076C61.8763 41.5766 60.9773 40.6486 59.8463 40.6486C58.6863 40.6486 57.7583 41.5766 57.7583 42.7076C57.7583 43.8676 58.6863 44.7666 59.8463 44.7666ZM47.9855 54.5104C44.7956 54.5104 42.2146 51.9584 42.2146 48.7395C42.2146 45.5205 44.7956 42.9686 47.9855 42.9686C51.1464 42.9686 53.7274 45.5495 53.7274 48.7395C53.7274 51.9584 51.1464 54.5104 47.9855 54.5104Z" fill="#8B2EFF"/>
<defs>
<filter id="filter0_d_399_100" x="0" y="0" width="96" height="96" filterUnits="userSpaceOnUse" color-interpolation-filters="sRGB">
<feFlood flood-opacity="0" result="BackgroundImageFix"/>
<feColorMatrix in="SourceAlpha" type="matrix" values="0 0 0 0 0 0 0 0 0 0 0 0 0 0 0 0 0 0 127 0" result="hardAlpha"/>
<feOffset/>
<feGaussianBlur stdDeviation="5"/>
<feComposite in2="hardAlpha" operator="out"/>
<feColorMatrix type="matrix" values="0 0 0 0 0 0 0 0 0 0 0 0 0 0 0 0 0 0 0.1 0"/>
<feBlend mode="normal" in2="BackgroundImageFix" result="effect1_dropShadow_399_100"/>
<feBlend mode="normal" in="SourceGraphic" in2="effect1_dropShadow_399_100" result="shape"/>
</filter>
</defs>
</svg>
