<svg width="18" height="18" viewBox="0 0 18 18" fill="none" xmlns="http://www.w3.org/2000/svg">
<path d="M2.25 9.74996H6.75V8.24996H2.25V1.38446C2.25001 1.31929 2.267 1.25526 2.2993 1.19866C2.3316 1.14206 2.37809 1.09486 2.43418 1.0617C2.49028 1.02854 2.55405 1.01057 2.6192 1.00957C2.68436 1.00856 2.74866 1.02455 2.80575 1.05596L16.6522 8.67146C16.711 8.70383 16.7601 8.75139 16.7942 8.80917C16.8284 8.86695 16.8464 8.93284 16.8464 8.99996C16.8464 9.06707 16.8284 9.13296 16.7942 9.19075C16.7601 9.24853 16.711 9.29609 16.6522 9.32846L2.80575 16.944C2.74866 16.9754 2.68436 16.9914 2.6192 16.9903C2.55405 16.9893 2.49028 16.9714 2.43418 16.9382C2.37809 16.9051 2.3316 16.8579 2.2993 16.8013C2.267 16.7447 2.25001 16.6806 2.25 16.6155V9.74996Z" fill="white"/>
</svg>
