<svg width="72" height="72" viewBox="0 0 72 72" fill="none" xmlns="http://www.w3.org/2000/svg">
<path d="M2.79845 2.67188H5.18907V30.1359H2.79845V2.67188ZM40.8797 68.0344V65.6437H68.3438V68.0344H40.8797Z" fill="#FF5E00"/>
<path d="M56.475 62.8594L68.3438 50.9907V62.8594H56.475Z" fill="#FFEFE6"/>
<path d="M50.0344 9.30937C50.0344 9.91406 49.5422 10.4062 48.9375 10.4062H42.4125C41.8078 10.4062 41.3156 9.91406 41.3156 9.30937C41.3156 8.70469 41.8078 8.2125 42.4125 8.2125H48.9375C49.5422 8.2125 50.0344 8.70469 50.0344 9.30937ZM15.525 8.17031H6.65155C6.0328 8.17031 5.52655 8.67656 5.52655 9.29531C5.52655 9.91406 6.0328 10.4203 6.65155 10.4203H15.525C16.1437 10.4203 16.65 9.91406 16.65 9.29531C16.65 8.67656 16.1437 8.17031 15.525 8.17031ZM56.3625 4.42969H48.9234C48.3047 4.42969 47.7984 4.93594 47.7984 5.55469C47.7984 6.17344 48.3047 6.67969 48.9234 6.67969H56.3625C56.9812 6.67969 57.4875 6.17344 57.4875 5.55469C57.4875 4.93594 56.9812 4.42969 56.3625 4.42969ZM64.2234 46.1812L58.964 51.4406C58.5281 51.8766 58.5281 52.5938 58.964 53.0297C59.189 53.2547 59.4703 53.3531 59.7656 53.3531C60.0609 53.3531 60.3422 53.2406 60.5672 53.0297L65.8265 47.7703C66.2625 47.3344 66.2625 46.6172 65.8265 46.1812C65.3625 45.7453 64.6594 45.7453 64.2234 46.1812ZM10.0828 56.5594C10.2234 56.7844 10.2797 57.0516 10.2234 57.3047C10.125 57.7687 9.71718 58.0922 9.25312 58.0922C9.1828 58.0922 9.11249 58.0781 9.04218 58.0641C8.78905 58.0078 8.56405 57.8531 8.42343 57.6281C8.2828 57.4031 8.22655 57.1359 8.2828 56.8828C8.33905 56.6297 8.49374 56.4047 8.71874 56.2641C8.94374 56.1234 9.21093 56.0672 9.46405 56.1234C9.71718 56.1797 9.94218 56.3344 10.0828 56.5594ZM9.88593 56.6859C9.77343 56.5172 9.60468 56.3906 9.4078 56.3484C8.99999 56.2641 8.59218 56.5172 8.49374 56.9391L9.35155 57.1219L8.49374 56.9391C8.45155 57.1359 8.49374 57.3469 8.59218 57.5156C8.69062 57.6844 8.87343 57.8109 9.0703 57.8531C9.26718 57.8953 9.47812 57.8531 9.64687 57.7547C9.81562 57.6422 9.94218 57.4734 9.98437 57.2766C10.0406 57.0656 9.99843 56.8547 9.88593 56.6859ZM3.43124 45C3.59999 45.1688 3.82499 45.2531 4.04999 45.2531C4.27499 45.2531 4.49999 45.1688 4.66874 45L5.89218 43.7766L7.11562 45C7.28437 45.1688 7.50937 45.2531 7.73437 45.2531C7.95937 45.2531 8.18437 45.1688 8.35312 45C8.69062 44.6625 8.69062 44.1 8.35312 43.7625L7.12968 42.5391L8.35312 41.3156C8.69062 40.9781 8.69062 40.4156 8.35312 40.0781C8.01562 39.7406 7.45311 39.7406 7.11562 40.0781L5.89218 41.3016L4.66874 40.0781C4.33124 39.7406 3.76874 39.7406 3.43124 40.0781C3.09374 40.4156 3.09374 40.9781 3.43124 41.3156L4.65468 42.5391L3.43124 43.7625C3.09374 44.1 3.09374 44.6625 3.43124 45ZM48.9094 56.0391H47.8547V54.9844C47.8547 54.3656 47.3484 53.8594 46.7297 53.8594C46.1109 53.8594 45.6047 54.3656 45.6047 54.9844V56.0391H44.55C43.9312 56.0391 43.425 56.5453 43.425 57.1641C43.425 57.7828 43.9312 58.2891 44.55 58.2891H45.6047V59.3438C45.6047 59.9625 46.1109 60.4688 46.7297 60.4688C47.3484 60.4688 47.8547 59.9625 47.8547 59.3438V58.2891H48.9094C49.5281 58.2891 50.0344 57.7828 50.0344 57.1641C50.0344 56.5453 49.5281 56.0391 48.9094 56.0391ZM8.6203 61.8609L3.36093 67.1203C3.02343 67.4578 3.02343 68.0203 3.36093 68.3578C3.52968 68.5266 3.75468 68.6109 3.97968 68.6109C4.20468 68.6109 4.42968 68.5266 4.59843 68.3578L9.8578 63.0984C10.1953 62.7609 10.1953 62.1984 9.8578 61.8609C9.5203 61.5234 8.97187 61.5234 8.6203 61.8609ZM67.4297 15.3281H65.2078V13.1062C65.2078 12.4875 64.7015 11.9812 64.0828 11.9812C63.464 11.9812 62.9578 12.4875 62.9578 13.1062V15.3281H60.7359C60.1172 15.3281 59.6109 15.8344 59.6109 16.4531C59.6109 17.0719 60.1172 17.5781 60.7359 17.5781H62.9578V19.8C62.9578 20.4188 63.464 20.925 64.0828 20.925C64.7015 20.925 65.2078 20.4188 65.2078 19.8V17.5781H67.4297C68.0484 17.5781 68.5547 17.0719 68.5547 16.4531C68.5547 15.8344 68.0484 15.3281 67.4297 15.3281Z" fill="#4D1C00"/>
<path d="M31.3312 36.3938C31.0922 36.4078 30.8531 36.4219 30.6 36.4219C29.0812 36.4219 27.6047 36.1688 26.2406 35.7188L24.5672 39.7547L22.5703 38.925L24.2437 34.875C23.1328 34.3125 22.1062 33.5953 21.1781 32.7656C20.6016 32.2453 20.9672 32.4141 21.7406 32.4141H27.6047C30.6 32.4141 30.5859 30.9797 30.5859 28.3078H30.6C33.8906 28.3078 36.5625 25.636 36.5625 22.3453C36.5625 16.4813 33.0891 17.6906 31.4437 16.8047C30.9234 16.5235 30.5859 15.975 30.5859 15.3703V10.125C30.5859 9.08439 31.5 8.28283 32.5406 8.42345H32.5547C33.3844 8.53595 34.1859 8.73283 34.9594 8.98595L36.6328 4.95001L38.6297 5.7797L36.9562 9.8297C39.6141 11.1797 41.7797 13.3453 43.1297 16.0031L47.1797 14.3297L48.0094 16.3266L43.9734 18C44.4234 19.3781 44.6766 20.8406 44.6766 22.3594C44.6766 23.1891 43.4672 22.2891 43.3266 23.0766C43.1578 23.0766 41.85 25.0313 41.7797 25.186C39.0234 30.7828 41.0625 36.2813 31.3312 36.3938Z" fill="url(#paint0_linear)"/>
<path d="M27.6187 55.2516L23.8641 54.3234L15.75 62.4656C14.8219 60.7922 14.3016 58.8656 14.3016 56.8125C14.2875 50.3156 19.575 45.0141 26.0719 45C26.0859 45 26.0859 45 26.1 45C27.2672 45 28.125 46.0688 27.9141 47.2078C27.6891 48.4594 28.3359 49.8938 30.8391 50.3438H30.8531C31.5984 50.4703 32.3578 50.2313 32.8922 49.6969L35.1 47.475L38.8406 43.7203L42.5812 39.9656L47.8406 34.8609C49.3875 33.3562 51.5953 32.7656 53.6766 33.2859L54.0844 33.3844L62.1984 25.2422C63.1265 26.9156 63.6469 28.8422 63.6469 30.8953C63.6609 37.3922 58.3734 42.6938 51.8766 42.7078C51.8766 42.7078 50.3297 42.5813 48.7547 41.7656L42.8344 47.7141L36.9141 53.6625C37.7437 55.2234 37.8703 56.7703 37.8703 56.7703C37.8844 63.2672 32.5969 68.5688 26.1 68.5828C24.0469 68.5828 22.1203 68.0625 20.4469 67.1484L28.5609 59.0063L27.6187 55.2516Z" fill="url(#paint1_linear)"/>
<path d="M30.6 29.4328C34.5094 29.4328 37.6875 26.2547 37.6875 22.3453C37.6875 18.4359 34.5094 15.2578 30.6 15.2578C26.6906 15.2578 23.5125 18.4359 23.5125 22.3453C23.5125 26.2547 26.6906 29.4328 30.6 29.4328ZM30.6 17.5078C33.2719 17.5078 35.4375 19.6734 35.4375 22.3453C35.4375 25.0172 33.2719 27.1828 30.6 27.1828C27.9281 27.1828 25.7625 25.0172 25.7625 22.3453C25.7625 19.6734 27.9422 17.5078 30.6 17.5078ZM27.3516 22.3312C27.3516 20.5312 28.8141 19.0687 30.6141 19.0687C31.2328 19.0687 31.7391 19.575 31.7391 20.1937C31.7391 20.8125 31.2328 21.3187 30.6141 21.3187C30.0516 21.3187 29.6016 21.7687 29.6016 22.3312C29.6016 22.8937 30.0516 23.3437 30.6141 23.3437C31.1766 23.3437 31.6266 22.8937 31.6266 22.3312C31.6266 21.7125 32.1328 21.2062 32.7516 21.2062C33.3703 21.2062 33.8766 21.7125 33.8766 22.3312C33.8766 24.1312 32.4141 25.5937 30.6141 25.5937C28.8141 25.5937 27.3516 24.1312 27.3516 22.3312ZM13.3453 32.0484C13.0641 31.9359 12.8531 31.725 12.7266 31.4437L11.6016 28.7859C11.4891 28.5047 11.4891 28.1953 11.6016 27.9281C11.7141 27.6468 11.925 27.4359 12.2063 27.3093L15.7922 25.7906C15.525 24.6656 15.3984 23.5125 15.3984 22.3453C15.3984 21.2484 15.5109 20.1515 15.75 19.0828L12.1359 17.6203C11.5594 17.3812 11.2781 16.7343 11.5172 16.1578L12.6 13.4859C12.7125 13.2047 12.9234 12.9937 13.2047 12.8672C13.4859 12.7547 13.7953 12.7547 14.0625 12.8672L17.6766 14.3437C18.2953 13.3593 19.0125 12.4453 19.8422 11.6297C20.2781 11.1937 20.9953 11.1937 21.4312 11.6297L22.9641 13.1625C23.4 13.5984 23.4 14.3156 22.9641 14.7515C22.7391 14.9765 22.4578 15.075 22.1625 15.075C21.8672 15.075 21.5859 14.9625 21.3609 14.7515L20.6578 14.0484C20.0812 14.7375 19.5609 15.4968 19.1391 16.2843C18.8719 16.7906 18.2531 17.0156 17.7188 16.7906L14.2453 15.3703L14.0062 15.9609L17.4797 17.3812C18.0141 17.5922 18.2953 18.1828 18.1406 18.7453C17.8031 19.9125 17.6203 21.1359 17.6203 22.3593C17.6203 23.639 17.8031 24.9187 18.1828 26.1281C18.3516 26.6765 18.0703 27.2672 17.55 27.4922L14.0906 28.9547L14.3297 29.5312L17.7891 28.0687C18.3234 27.8437 18.9281 28.0547 19.2094 28.5609C20.4328 30.7687 22.2469 32.5687 24.4687 33.764C24.975 34.0312 25.2 34.65 24.975 35.1843L23.5688 38.6578L24.1594 38.8968L25.5656 35.4375C25.7766 34.9031 26.3672 34.6218 26.9297 34.7765C28.0969 35.114 29.3203 35.2968 30.5437 35.2968C31.95 35.2265 33.4687 34.9875 33.7922 34.7906C34.3125 34.439 35.0016 34.5797 35.3531 35.1C35.7047 35.6203 35.5641 36.3093 35.0437 36.6609C34.0453 37.3218 31.6125 37.5047 30.6281 37.5468C30.6141 37.5468 30.6 37.5468 30.5719 37.5468C29.4609 37.5468 28.3641 37.4203 27.2953 37.1953L25.8609 40.7812C25.7484 41.0625 25.5375 41.2734 25.2562 41.4C25.1156 41.4562 24.9609 41.4843 24.8203 41.4843C24.6797 41.4843 24.5391 41.4562 24.3984 41.4L21.7266 40.3172C21.15 40.0781 20.8688 39.4312 21.1078 38.8547L22.5703 35.2406C20.6437 34.0453 19.0266 32.4281 17.8031 30.5297L14.2031 32.0484C13.9359 32.1609 13.6266 32.1609 13.3453 32.0484ZM65.1516 30.7968C65.1516 37.9125 59.3578 43.7203 52.2281 43.7203C51.6094 43.7203 51.1031 43.214 51.1031 42.5953C51.1031 41.9765 51.6094 41.4703 52.2281 41.4703C58.1062 41.4703 62.9016 36.689 62.9016 30.7968C62.9016 29.5312 62.6766 28.2656 62.2406 27.0843L55.2516 34.0734C54.9703 34.3547 54.5625 34.4672 54.1828 34.3687L50.4281 33.4265C50.0203 33.3281 49.7109 33.0047 49.6125 32.6109L48.6703 28.8562C48.5719 28.4765 48.6844 28.0687 48.9656 27.7875L55.9547 20.7984C54.7734 20.3625 53.5078 20.1375 52.2422 20.1375C46.3641 20.1375 41.5687 24.9187 41.5687 30.8109C41.5687 31.6968 41.6953 32.5968 41.9344 33.5109C42.0328 33.9047 41.9203 34.3125 41.6391 34.5937L39.1781 37.0547L29.9109 46.3218C29.6859 46.5468 29.4047 46.6453 29.1094 46.6453C28.8281 46.6453 28.5328 46.5328 28.3078 46.3218C27.8719 45.8859 27.8719 45.1687 28.3078 44.7328L39.5859 33.4547C39.4031 32.5687 39.3047 31.6828 39.3047 30.8109C39.3047 27.0422 40.9219 23.639 43.5094 21.2765C43.4812 21.2062 43.4672 21.1218 43.4672 21.0515C43.3828 20.2218 43.2141 19.3781 42.975 18.5765C42.8062 18.0281 43.0875 17.4375 43.6078 17.2125L47.0391 15.764L46.8 15.1875L43.3687 16.6359C42.8344 16.8609 42.2297 16.65 41.9484 16.1437C40.725 13.9218 38.8969 12.1359 36.675 10.9406C36.1687 10.6734 35.9438 10.0547 36.1687 9.52028L37.575 6.06091L36.9844 5.82184L35.5781 9.28122C35.3672 9.81559 34.7766 10.0968 34.2281 9.94216C33.0609 9.60466 31.8375 9.43591 30.6141 9.43591C29.3203 9.43591 28.0406 9.63278 26.8172 9.99841C26.2687 10.1672 25.6781 9.88591 25.4531 9.36559L24.0047 5.92028L22.3875 6.60934C21.8109 6.84841 21.15 6.58122 20.9109 6.00466C20.6719 5.42809 20.9391 4.76716 21.5156 4.52809L24.1734 3.4031C24.4547 3.2906 24.7641 3.2906 25.0312 3.4031C25.3125 3.5156 25.5234 3.72653 25.65 4.00778L27.1406 7.55153C29.3344 7.03122 31.6547 7.01716 33.8625 7.49528L35.325 3.90934C35.5641 3.33278 36.2109 3.05153 36.7875 3.29059L39.4594 4.37341C39.7406 4.48591 39.9516 4.69685 40.0781 4.97809C40.2047 5.25935 40.1906 5.56872 40.0781 5.83591L38.6156 9.42184C40.5422 10.6172 42.1734 12.2343 43.4109 14.1468L46.9687 12.6562C47.25 12.5437 47.5594 12.5437 47.8266 12.6562C48.1078 12.7687 48.3187 12.9797 48.4453 13.2609L49.5703 15.9187C49.8094 16.4953 49.5422 17.1562 48.9656 17.3953L45.4078 18.9C45.4781 19.1812 45.5344 19.4625 45.5766 19.7437C47.5312 18.5625 49.8094 17.8875 52.2422 17.8875C54.4078 17.8875 56.5453 18.4359 58.4297 19.4625C58.7391 19.6312 58.95 19.9406 59.0062 20.2922C59.0625 20.6437 58.9359 20.9953 58.6828 21.2484L51.0047 28.9265L51.6234 31.4156L54.1125 32.0343L61.7906 24.3562C62.0437 24.1031 62.3953 23.9906 62.7469 24.0328C63.0984 24.089 63.4078 24.3 63.5766 24.6093C64.6172 26.4937 65.1516 28.6312 65.1516 30.7968ZM38.9531 56.9953C38.9531 64.1109 33.1594 69.9187 26.0297 69.9187C23.8641 69.9187 21.7266 69.3703 19.8422 68.3437C19.5328 68.175 19.3219 67.8656 19.2656 67.514C19.2094 67.1625 19.3359 66.8109 19.5891 66.5578L27.2672 58.8797L26.6484 56.3906L24.1594 55.7718L16.4812 63.45C16.2281 63.7031 15.8766 63.8156 15.525 63.7734C15.1734 63.7172 14.8641 63.5062 14.6953 63.1968C13.6547 61.3125 13.1203 59.1609 13.1203 57.0093C13.1203 49.8937 18.9141 44.0859 26.0437 44.0859C26.6625 44.0859 27.1687 44.5922 27.1687 45.2109C27.1687 45.8297 26.6625 46.3359 26.0437 46.3359C20.1656 46.3359 15.3703 51.1172 15.3703 57.0093C15.3703 58.275 15.5953 59.5406 16.0312 60.7218L23.0203 53.7328C23.3016 53.4515 23.7094 53.339 24.0891 53.4375L27.8437 54.3797C28.2516 54.4781 28.5609 54.8015 28.6594 55.1953L29.6016 58.95C29.7 59.3297 29.5875 59.7375 29.3062 60.0187L22.3172 67.0078C23.4984 67.4437 24.7641 67.6687 26.0297 67.6687C31.9078 67.6687 36.7031 62.8875 36.7031 56.9953C36.7031 56.3765 37.2094 55.8703 37.8281 55.8703C38.4469 55.8703 38.9531 56.3765 38.9531 56.9953ZM50.2453 41.7937C50.6812 42.2297 50.6812 42.9468 50.2453 43.3828L44.6906 48.9375C44.4656 49.1625 44.1844 49.2609 43.8891 49.2609C43.5937 49.2609 43.3125 49.1484 43.0875 48.9375C42.6516 48.5015 42.6516 47.7843 43.0875 47.3484L48.6422 41.7937C49.0922 41.3437 49.8094 41.3437 50.2453 41.7937Z" fill="#4D1C00"/>
<defs>
<linearGradient id="paint0_linear" x1="20.8979" y1="22.3513" x2="48.0089" y2="22.3513" gradientUnits="userSpaceOnUse">
<stop stop-color="#FFEFE6"/>
<stop offset="1" stop-color="#FF5E00"/>
</linearGradient>
<linearGradient id="paint1_linear" x1="38.9694" y1="67.0884" x2="38.9694" y2="26.8115" gradientUnits="userSpaceOnUse">
<stop stop-color="#FFEFE6"/>
<stop offset="1" stop-color="#FF5E00"/>
</linearGradient>
</defs>
</svg>
