<svg width="72" height="72" viewBox="0 0 72 72" fill="none" xmlns="http://www.w3.org/2000/svg">
<path d="M56.2078 35.339C55.1812 43.9875 47.6718 47.0672 44.4234 48.0094C45.9 47.9953 47.3062 47.7562 48.3468 47.1515C51.8343 45.1125 48.3468 49.6547 48.3468 49.6547L42.975 51.8062L37.1812 48.375H37.6031L37.1812 46.9687C37.1812 46.9687 39.9515 47.7703 42.9328 47.9812V16.2C42.9328 16.2 42.4546 15.1594 42.9328 14.8781C43.4109 14.6109 56.2078 16.3687 56.2078 16.3687C56.2078 16.3687 57.5156 24.2719 56.2078 35.339Z" fill="url(#paint0_linear)"/>
<path d="M45.8156 67.9781H40.2468L42.075 62.8312L38.475 59.4562L40.2187 56.4047L32.2593 52.8047V47.25L42.989 52.1016L50.414 48.7406L53.7187 47.25V51.8766C54.4781 52.3406 55.3781 52.8187 56.4609 53.2969C63.9562 56.5594 68.5828 58.7391 69.3984 68.0062H45.8156V67.9781Z" fill="url(#paint1_linear)"/>
<path d="M70.3266 62.8734C69.1454 59.8218 66.5016 55.6734 60.6094 53.2968C58.3032 52.3687 56.3766 51.4265 54.8578 50.5125V46.9687C54.8578 46.589 54.661 46.2375 54.3375 46.0265C54.0141 45.8156 53.6063 45.7875 53.2688 45.9421L51.6797 46.6593C52.3547 46.1812 53.0157 45.6328 53.6203 45.014C55.8422 42.764 57.1078 40.0781 57.7828 38.2078C58.2328 36.9562 58.4719 35.6484 58.4719 34.2984V14.9906C58.4719 14.625 58.2891 14.2734 57.9797 14.0625C57.6703 13.8515 57.2907 13.8093 56.9391 13.9359C54.5063 14.864 52.1297 14.2734 49.6266 13.6406C46.35 12.825 42.6375 11.8968 38.7141 14.6671C38.2078 15.0328 38.0813 15.7359 38.4469 16.2421C38.8125 16.7484 39.5157 16.875 40.0219 16.5093C43.1016 14.3296 45.8719 15.0187 49.0782 15.8203C51.3563 16.3968 53.7047 16.9734 56.2219 16.4671V34.2843C56.2219 35.3671 56.0391 36.4218 55.6735 37.4203C54.3938 40.9359 51.1313 46.8562 43.5938 46.8562C36.1969 46.8562 32.8922 41.3859 31.5703 38.1234C31.1344 37.0406 30.9235 35.9015 30.9235 34.7062V16.6921C30.9235 14.1046 32.4563 12.2484 33.736 11.1375C36.5766 8.67652 40.9219 7.53746 45.0703 8.15621C46.5047 8.36715 47.8125 8.74683 49.0782 9.0984C52.2422 9.9984 55.2375 10.8421 59.2594 9.16871C59.836 8.92965 60.1032 8.26871 59.8641 7.69215C59.625 7.11558 58.9641 6.8484 58.3875 7.08746C55.0828 8.46558 52.7063 7.79058 49.6828 6.93277C48.3469 6.55308 46.9688 6.15933 45.3938 5.93433C40.6266 5.21715 35.5781 6.55308 32.2453 9.4359C29.925 11.4328 28.6453 14.0062 28.6453 16.6921V34.7203C28.6453 36.1968 28.9125 37.6312 29.461 38.9671C30.1641 40.739 31.486 43.2703 33.736 45.3656C36.4078 47.8546 39.7125 49.1062 43.5657 49.1062C44.8032 49.1062 45.9703 48.9656 47.0813 48.6984L42.961 50.5546L32.6953 45.914C32.3438 45.7593 31.936 45.7875 31.6266 45.9984C31.3031 46.2093 31.1063 46.5609 31.1063 46.9406V51.2718C29.8547 51.9328 28.3922 52.6078 26.7469 53.2687C20.8547 55.6453 18.211 59.7937 17.0297 62.8453C15.75 66.15 15.8625 68.9062 15.8766 69.0187C15.9047 69.6234 16.3969 70.0875 17.0016 70.0875C17.0156 70.0875 17.0438 70.0875 17.0578 70.0875C17.6766 70.0593 18.1547 69.525 18.1266 68.9062C18.1266 68.8078 17.775 59.3156 27.6047 55.35C29.1235 54.7312 30.5016 54.1125 31.711 53.4937C31.7391 53.5078 31.7531 53.5218 31.7813 53.5359L38.6157 56.6296L37.4907 58.6125C37.2375 59.0625 37.3219 59.639 37.7016 59.9906L40.7672 62.8593L39.1922 67.3171C39.136 67.5 39.1078 67.6828 39.136 67.8515H21.136C20.5172 67.8515 20.011 68.3578 20.011 68.9765C20.011 69.5953 20.5172 70.1015 21.136 70.1015H70.3547C70.9594 70.1015 71.4516 69.6375 71.4797 69.0328C71.4797 68.9343 71.6063 66.1921 70.3266 62.8734ZM45.5063 55.0125H44.1V52.5515L52.5938 48.7125V51.8062L45.5063 55.0125ZM33.3703 48.7125L41.85 52.5515V55.0125H40.4438L33.3563 51.8203V48.7125H33.3703ZM40.8657 57.2625H45.0985L46.0688 58.9781L43.1438 61.7062L42.975 61.8609L39.8813 58.964L40.8657 57.2625ZM42.6375 64.4765C42.6516 64.4765 42.6657 64.4906 42.6938 64.4906C42.7078 64.4906 42.7219 64.5046 42.736 64.5046C42.75 64.5046 42.7782 64.5187 42.7922 64.5187C42.8063 64.5187 42.8203 64.5187 42.8344 64.5187C42.8485 64.5187 42.8766 64.5187 42.8907 64.5328C42.9047 64.5328 42.9188 64.5328 42.9328 64.5328C42.9469 64.5328 42.961 64.5328 42.975 64.5328H42.9891C43.0032 64.5328 43.0172 64.5328 43.0313 64.5328C43.0594 64.5328 43.0735 64.5328 43.1016 64.5328C43.1157 64.5328 43.1297 64.5328 43.1438 64.5328C43.1719 64.5328 43.186 64.5328 43.2141 64.5187C43.2281 64.5187 43.2422 64.5187 43.2563 64.5046C43.2844 64.5046 43.2985 64.4906 43.3266 64.4906C43.3407 64.4906 43.3547 64.4765 43.3547 64.4765C43.3828 64.4625 43.3969 64.4625 43.425 64.4484H43.4391L44.2266 66.5859H41.8641L42.6094 64.4765C42.6094 64.4625 42.6235 64.4765 42.6375 64.4765ZM46.9266 67.8656C46.9547 67.6828 46.9407 67.4859 46.8703 67.3171L45.225 62.8453L48.2485 60.0046C48.6282 59.6531 48.7125 59.0765 48.4594 58.6265L47.3344 56.6437L54.1688 53.55C54.4078 53.4375 54.5907 53.2546 54.7172 53.0296C56.1375 53.8171 57.825 54.6046 59.7516 55.3781C63.8438 57.0375 66.6844 59.7937 68.1891 63.6046C68.8641 65.3203 69.1032 66.8812 69.1875 67.8656H46.9266Z" fill="#4D1C00"/>
<path d="M65.5453 29.025H67.8516V31.3312H65.5453V29.025Z" fill="#FFEFE6"/>
<path d="M65.5453 34.65H67.8516V36.9562H65.5453V34.65Z" fill="#FF5E00"/>
<path d="M65.5453 9.19684H67.8516V25.2843H65.5453V9.19684Z" fill="#FFEFE6"/>
<path d="M10.1672 38.686C10.1672 41.5406 7.84686 43.8609 4.99218 43.8609C4.37343 43.8609 3.86718 43.3547 3.86718 42.7359C3.86718 42.1172 4.37343 41.611 4.99218 41.611C6.5953 41.611 7.91718 40.3031 7.91718 38.686C7.91718 38.0672 8.42343 37.561 9.04218 37.561C9.66093 37.561 10.1672 38.0672 10.1672 38.686ZM16.0734 41.611C14.4703 41.611 13.1484 40.3031 13.1484 38.686C13.1484 38.0672 12.6422 37.561 12.0234 37.561C11.4047 37.561 10.8984 38.0672 10.8984 38.686C10.8984 41.5406 13.2187 43.8609 16.0734 43.8609C16.6922 43.8609 17.1984 43.3547 17.1984 42.7359C17.1984 42.1172 16.6922 41.611 16.0734 41.611ZM16.0734 44.5922C13.2187 44.5922 10.8984 46.9125 10.8984 49.7672C10.8984 50.3859 11.4047 50.8922 12.0234 50.8922C12.6422 50.8922 13.1484 50.3859 13.1484 49.7672C13.1484 48.1641 14.4562 46.8422 16.0734 46.8422C16.6922 46.8422 17.1984 46.3359 17.1984 45.7172C17.1984 45.0984 16.6922 44.5922 16.0734 44.5922ZM4.99218 44.5922C4.37343 44.5922 3.86718 45.0984 3.86718 45.7172C3.86718 46.3359 4.37343 46.8422 4.99218 46.8422C6.5953 46.8422 7.91718 48.15 7.91718 49.7672C7.91718 50.3859 8.42343 50.8922 9.04218 50.8922C9.66093 50.8922 10.1672 50.3859 10.1672 49.7672C10.1672 46.9125 7.84686 44.5922 4.99218 44.5922ZM23.7515 27.5344H9.53436C8.91561 27.5344 8.40936 28.0406 8.40936 28.6594C8.40936 29.2781 8.91561 29.7844 9.53436 29.7844H23.7515C24.3703 29.7844 24.8765 29.2781 24.8765 28.6594C24.8765 28.0406 24.3703 27.5344 23.7515 27.5344ZM4.37343 23.6109C4.37343 24.2297 4.87968 24.7359 5.49843 24.7359H14.9062C15.525 24.7359 16.0312 24.2297 16.0312 23.6109C16.0312 22.9922 15.525 22.4859 14.9062 22.4859H5.49843C4.87968 22.4859 4.37343 22.9922 4.37343 23.6109ZM4.87968 12.2344C5.49843 12.2344 6.00468 11.7281 6.00468 11.1094V10.5609H6.55311C7.17186 10.5609 7.67811 10.0547 7.67811 9.43595C7.67811 8.8172 7.17186 8.31095 6.55311 8.31095H6.00468V7.76251C6.00468 7.14376 5.49843 6.63751 4.87968 6.63751C4.26093 6.63751 3.75468 7.14376 3.75468 7.76251V8.31095H3.20624C2.58749 8.31095 2.08124 8.8172 2.08124 9.43595C2.08124 10.0547 2.58749 10.5609 3.20624 10.5609H3.75468V11.1094C3.75468 11.7281 4.26093 12.2344 4.87968 12.2344Z" fill="#4D1C00"/>
<defs>
<linearGradient id="paint0_linear" x1="57.1907" y1="33.3287" x2="37.269" y2="33.3287" gradientUnits="userSpaceOnUse">
<stop stop-color="#FFEFE6"/>
<stop offset="1" stop-color="#FF5E00"/>
</linearGradient>
<linearGradient id="paint1_linear" x1="50.8167" y1="70.9291" x2="50.8167" y2="48.396" gradientUnits="userSpaceOnUse">
<stop stop-color="#FFEFE6"/>
<stop offset="1" stop-color="#FF5E00"/>
</linearGradient>
</defs>
</svg>
