<svg width="72" height="72" viewBox="0 0 72 72" fill="none" xmlns="http://www.w3.org/2000/svg">
<path d="M62.775 30.2063C62.5922 29.6156 62.0437 29.2219 61.425 29.2219H43.9594L38.5594 12.6281C38.3625 12.0375 37.7719 11.4188 37.2094 11.6438C37.125 11.6719 37.2656 50.0625 37.2656 50.0625L51.3422 60.2719C51.5953 60.4547 51.8906 60.5391 52.1859 60.5391C52.4812 60.5391 52.7766 60.4406 53.0297 60.2719C53.5219 59.9063 53.7328 59.2594 53.55 58.6828L48.15 42.0891L62.2828 31.8234C62.7609 31.4438 62.9719 30.7969 62.775 30.2063Z" fill="url(#paint0_linear)"/>
<path d="M69.3984 14.3578L60.8344 5.7937H69.3984V14.3578Z" fill="#FF5E00"/>
<path d="M14.8781 7.0453V3.97968H22.8797V7.0453H14.8781ZM4.06406 22.5422H7.12968V14.5406H4.06406V22.5422ZM12.3187 3.97968H7.12968H4.31718H4.06406V11.9812H7.12968V7.0453H12.3187V3.97968Z" fill="#FFEFE6"/>
<path d="M28.6453 44.5078C28.6453 45.1266 28.1391 45.6328 27.5203 45.6328H21.4734C20.8547 45.6328 20.3484 45.1266 20.3484 44.5078C20.3484 43.8891 20.8547 43.3828 21.4734 43.3828H27.5203C28.1391 43.3828 28.6453 43.8891 28.6453 44.5078ZM24.4969 47.6016H14.1188C13.5 47.6016 12.9938 48.1078 12.9938 48.7266C12.9938 49.3453 13.5 49.8516 14.1188 49.8516H24.4969C25.1156 49.8516 25.6219 49.3453 25.6219 48.7266C25.6219 48.1078 25.1297 47.6016 24.4969 47.6016ZM68.189 62.4094H65.9672V60.1875C65.9672 59.5688 65.4609 59.0625 64.8422 59.0625C64.2234 59.0625 63.7172 59.5688 63.7172 60.1875V62.4094H61.4953C60.8765 62.4094 60.3703 62.9157 60.3703 63.5344C60.3703 64.1532 60.8765 64.6594 61.4953 64.6594H63.7172V66.8813C63.7172 67.5 64.2234 68.0063 64.8422 68.0063C65.4609 68.0063 65.9672 67.5 65.9672 66.8813V64.6594H68.189C68.8078 64.6594 69.314 64.1532 69.314 63.5344C69.314 62.9157 68.8078 62.4094 68.189 62.4094ZM10.4906 56.2782C9.87188 56.2782 9.36563 56.7844 9.36563 57.4032C9.36563 59.0063 8.05781 60.3282 6.44063 60.3282C5.82188 60.3282 5.31563 60.8344 5.31563 61.4532C5.31563 62.0719 5.82188 62.5782 6.44063 62.5782C9.29531 62.5782 11.6156 60.2578 11.6156 57.4032C11.6156 56.7703 11.1094 56.2782 10.4906 56.2782ZM17.5219 60.3141C15.9187 60.3141 14.5969 59.0063 14.5969 57.3891C14.5969 56.7703 14.0906 56.2641 13.4719 56.2641C12.8531 56.2641 12.3469 56.7703 12.3469 57.3891C12.3469 60.2438 14.6672 62.5641 17.5219 62.5641C18.1406 62.5641 18.6469 62.0578 18.6469 61.4391C18.6469 60.8203 18.1406 60.3141 17.5219 60.3141ZM17.5219 63.3094C14.6672 63.3094 12.3469 65.6297 12.3469 68.4844C12.3469 69.1032 12.8531 69.6094 13.4719 69.6094C14.0906 69.6094 14.5969 69.1032 14.5969 68.4844C14.5969 66.8813 15.9047 65.5594 17.5219 65.5594C18.1406 65.5594 18.6469 65.0532 18.6469 64.4344C18.6469 63.8157 18.1406 63.3094 17.5219 63.3094ZM6.44063 63.3094C5.82188 63.3094 5.31563 63.8157 5.31563 64.4344C5.31563 65.0532 5.82188 65.5594 6.44063 65.5594C8.04375 65.5594 9.36563 66.8672 9.36563 68.4844C9.36563 69.1032 9.87188 69.6094 10.4906 69.6094C11.1094 69.6094 11.6156 69.1032 11.6156 68.4844C11.6156 65.6157 9.29531 63.3094 6.44063 63.3094ZM16.0734 23.2594C16.9031 23.2594 17.5922 22.5844 17.5922 21.7407C17.5922 20.8969 16.9172 20.2219 16.0734 20.2219C15.2297 20.2219 14.5547 20.8969 14.5547 21.7407C14.5547 22.5844 15.2437 23.2594 16.0734 23.2594ZM58.5984 17.2969C58.5984 19.35 56.939 21.0094 54.8859 21.0094C52.8328 21.0094 51.1734 19.35 51.1734 17.2969C51.1734 15.2438 52.8328 13.5844 54.8859 13.5844C56.939 13.5844 58.5984 15.2578 58.5984 17.2969ZM56.3484 17.2969C56.3484 16.4953 55.6875 15.8344 54.8859 15.8344C54.0844 15.8344 53.4234 16.4953 53.4234 17.2969C53.4234 18.0985 54.0844 18.7594 54.8859 18.7594C55.6875 18.7594 56.3484 18.1125 56.3484 17.2969ZM61.3828 48.0797H61.9312V48.6282C61.9312 49.2469 62.4375 49.7532 63.0562 49.7532C63.675 49.7532 64.1812 49.2469 64.1812 48.6282V48.0797H64.7297C65.3484 48.0797 65.8547 47.5735 65.8547 46.9547C65.8547 46.336 65.3484 45.8297 64.7297 45.8297H64.1812V45.2813C64.1812 44.6625 63.675 44.1563 63.0562 44.1563C62.4375 44.1563 61.9312 44.6625 61.9312 45.2813V45.8297H61.3828C60.764 45.8297 60.2578 46.336 60.2578 46.9547C60.2578 47.5735 60.764 48.0797 61.3828 48.0797Z" fill="#4D1C00"/>
<path d="M63.8438 29.8687C63.5063 28.814 62.5219 28.1109 61.425 28.1109H44.775L39.6422 12.2766C39.3047 11.2219 38.3203 10.5187 37.2234 10.5187C36.1125 10.5187 35.1422 11.2219 34.8047 12.2766L29.6719 28.1109H12.9938C11.8828 28.1109 10.9125 28.814 10.575 29.8687C10.2375 30.9234 10.6031 32.0625 11.5031 32.7234L24.975 42.5109L24.4406 44.1703C24.2438 44.7609 24.5672 45.3937 25.1578 45.5906C25.7484 45.7875 26.3813 45.4641 26.5781 44.8734L27.3656 42.4266C27.5203 41.9625 27.3516 41.4562 26.9578 41.175L12.825 30.9094C12.7125 30.8391 12.6703 30.6984 12.7125 30.5719C12.7547 30.4453 12.8672 30.3609 12.9938 30.3609H30.4594C30.9516 30.3609 31.3734 30.0515 31.5281 29.5875L36.0844 15.5672V49.4437L22.4156 59.3719C22.3172 59.4422 22.1766 59.4422 22.0641 59.3719C21.9656 59.3016 21.9234 59.1609 21.9516 59.0344L25.1859 49.0922C25.3828 48.5015 25.0594 47.8687 24.4688 47.6719C23.8781 47.475 23.2453 47.7984 23.0484 48.389L19.8141 58.3312C19.4766 59.3859 19.8422 60.525 20.7422 61.1859C21.1922 61.5094 21.7125 61.6781 22.2469 61.6781C22.7672 61.6781 23.3016 61.5094 23.7375 61.1859L36.8859 51.6375C36.9844 51.6656 37.0969 51.6797 37.2094 51.6797C37.3219 51.6797 37.4203 51.6656 37.5328 51.6375L50.6813 61.1859C51.1172 61.5094 51.6375 61.6641 52.1719 61.6641C52.7203 61.6641 53.2406 61.4953 53.6766 61.1719C54.5766 60.525 54.9422 59.3719 54.6047 58.3172L49.4578 42.4969L62.9297 32.7094C63.8156 32.0625 64.1953 30.9234 63.8438 29.8687ZM61.5938 30.8953L47.461 41.1609C47.0672 41.4422 46.8985 41.9625 47.0531 42.4125L52.4531 59.0062C52.4953 59.1328 52.4531 59.2594 52.3406 59.3437C52.2844 59.3859 52.2141 59.4 52.1719 59.4C52.1297 59.4 52.0594 59.3859 51.9891 59.3437L38.3203 49.4156V15.5531L42.8766 29.5734C43.0313 30.0375 43.4531 30.3469 43.9453 30.3469H61.411C61.5375 30.3469 61.65 30.4312 61.6922 30.5578C61.7485 30.6844 61.7063 30.825 61.5938 30.8953Z" fill="#4D1C00"/>
<defs>
<linearGradient id="paint0_linear" x1="50.0158" y1="61.5497" x2="50.0158" y2="17.3971" gradientUnits="userSpaceOnUse">
<stop stop-color="#FFEFE6"/>
<stop offset="1" stop-color="#FF5E00"/>
</linearGradient>
</defs>
</svg>
