<svg width="48" height="48" viewBox="0 0 48 48" fill="none" xmlns="http://www.w3.org/2000/svg">
<path d="M35.625 2.10001H39.7969V6.27188H35.625V2.10001ZM46.0687 6.27188V2.10001H41.8969V6.27188H46.0687ZM46.0687 12.675V8.51251H41.8969V12.6844H46.0687V12.675Z" fill="#FF5E00"/>
<path d="M2.88752 10.0313C2.49377 9.63751 2.49377 9.00001 2.88752 8.60626C3.28127 8.21251 3.91877 8.21251 4.31252 8.60626C4.70627 9.00001 4.70627 9.63751 4.31252 10.0313C3.91877 10.425 3.28127 10.425 2.88752 10.0313ZM4.25627 43.5563H3.89065V43.1906C3.89065 42.7781 3.55315 42.4406 3.14065 42.4406C2.72815 42.4406 2.39065 42.7781 2.39065 43.1906V43.5563H2.02502C1.61252 43.5563 1.27502 43.8938 1.27502 44.3063C1.27502 44.7188 1.61252 45.0563 2.02502 45.0563H2.39065V45.4219C2.39065 45.8344 2.72815 46.1719 3.14065 46.1719C3.55315 46.1719 3.89065 45.8344 3.89065 45.4219V45.0563H4.25627C4.66877 45.0563 5.00627 44.7188 5.00627 44.3063C5.00627 43.8938 4.67815 43.5563 4.25627 43.5563ZM19.425 2.46563H19.0594V2.10001C19.0594 1.68751 18.7219 1.35001 18.3094 1.35001C17.8969 1.35001 17.5594 1.68751 17.5594 2.10001V2.46563H17.1938C16.7813 2.46563 16.4438 2.80313 16.4438 3.21563C16.4438 3.62813 16.7813 3.96563 17.1938 3.96563H17.5594V4.33126C17.5594 4.74376 17.8969 5.08126 18.3094 5.08126C18.7219 5.08126 19.0594 4.74376 19.0594 4.33126V3.96563H19.425C19.8375 3.96563 20.175 3.62813 20.175 3.21563C20.175 2.80313 19.8375 2.46563 19.425 2.46563ZM45.0656 16.2563C44.6719 15.8625 44.0344 15.8625 43.6406 16.2563C43.2469 16.65 43.2469 17.2875 43.6406 17.6813C44.0344 18.075 44.6719 18.075 45.0656 17.6813C45.4594 17.2875 45.4594 16.65 45.0656 16.2563ZM3.7219 4.37813H8.55002C8.96252 4.37813 9.30002 4.04063 9.30002 3.62813C9.30002 3.21563 8.96252 2.87813 8.55002 2.87813H3.7219C3.3094 2.87813 2.9719 3.21563 2.9719 3.62813C2.9719 4.04063 3.3094 4.37813 3.7219 4.37813ZM11.8875 17.1375H7.0594C6.6469 17.1375 6.3094 17.475 6.3094 17.8875C6.3094 18.3 6.6469 18.6375 7.0594 18.6375H11.8875C12.3 18.6375 12.6375 18.3 12.6375 17.8875C12.6375 17.475 12.3 17.1375 11.8875 17.1375ZM3.02815 14.8875C3.02815 15.3 3.36565 15.6375 3.77815 15.6375H11.1938C11.6063 15.6375 11.9438 15.3 11.9438 14.8875C11.9438 14.475 11.6063 14.1375 11.1938 14.1375H3.77815C3.36565 14.1375 3.02815 14.475 3.02815 14.8875Z" fill="black"/>
<path d="M43.35 23.7938V28.35H28.2563C26.4188 25.6031 26.8313 26.0719 24.4125 23.7938H43.35ZM41.0719 19.2375H16.0313V14.6813H38.7938V16.8469H41.0719V19.2375ZM29.7375 32.8969C29.7844 33.2719 29.8031 33.6469 29.8031 34.0313C29.8031 35.2219 29.5969 36.375 29.2125 37.4438H40.875V35.625L38.7938 35.5219V32.8875H29.7375V32.8969ZM25.1344 34.0406C25.1344 29.6438 21.5719 26.0719 17.1656 26.0719C12.7688 26.0719 9.1969 29.6438 9.1969 34.0406C9.1969 38.4375 12.7594 42.0094 17.1656 42.0094C21.5719 42.0094 25.1344 38.4375 25.1344 34.0406Z" fill="url(#paint0_linear)"/>
<path d="M17.175 47.3063C9.86249 47.3063 3.90936 41.3531 3.90936 34.0406C3.90936 31.0969 4.85624 28.3031 6.64686 25.9781C8.38124 23.7281 10.8375 22.0594 13.5562 21.2906C13.9594 21.1781 14.3719 21.4125 14.4844 21.8063C14.5969 22.2 14.3625 22.6219 13.9687 22.7344C8.92499 24.1594 5.40936 28.8188 5.40936 34.05C5.40936 40.5375 10.6875 45.8156 17.175 45.8156C20.7 45.8156 24.0094 44.2594 26.25 41.5313C26.3906 41.3625 26.6062 41.2594 26.8312 41.2594H40.3219V35.9344H38.7937C38.3812 35.9344 38.0437 35.5969 38.0437 35.1844V32.9063C38.0437 32.4938 38.3812 32.1563 38.7937 32.1563H42.6V29.1H31.9687C31.5562 29.1 31.2187 28.7625 31.2187 28.35C31.2187 27.9375 31.5562 27.6 31.9687 27.6H42.6V24.5438H38.7937C38.3812 24.5438 38.0437 24.2063 38.0437 23.7938C38.0437 23.3813 38.3812 23.0438 38.7937 23.0438H42.6V22.2656H41.0719C40.6594 22.2656 40.3219 21.9281 40.3219 21.5156V17.7188H38.7937C38.3812 17.7188 38.0437 17.3813 38.0437 16.9688V13.1625H34.2375C33.825 13.1625 33.4875 12.825 33.4875 12.4125C33.4875 12 33.825 11.6625 34.2375 11.6625H38.0437V8.60626H16.7812V13.9313H25.1344C25.5469 13.9313 25.8844 14.2688 25.8844 14.6813C25.8844 15.0938 25.5469 15.4313 25.1344 15.4313H16.7812V18.4875H18.3094C18.7219 18.4875 19.0594 18.825 19.0594 19.2375V21.5719C19.0594 21.7781 18.975 21.9844 18.8156 22.125C18.6562 22.2656 18.45 22.3406 18.2437 22.3219C17.8312 22.2844 17.4937 22.2656 17.175 22.2656C16.8562 22.2656 16.5187 22.2844 16.1062 22.3219C15.6937 22.3594 15.3281 22.0594 15.2906 21.6469C15.2531 21.2344 15.5531 20.8688 15.9656 20.8313C16.425 20.7938 16.8 20.775 17.175 20.775C17.3062 20.775 17.4281 20.775 17.5594 20.7844V19.9969H16.0312C15.6187 19.9969 15.2812 19.6594 15.2812 19.2469V7.85626C15.2812 7.44376 15.6187 7.10626 16.0312 7.10626H38.7937C39.2062 7.10626 39.5437 7.44376 39.5437 7.85626V16.2188H41.0719C41.4844 16.2188 41.8219 16.5563 41.8219 16.9688V20.775H43.35C43.7625 20.775 44.1 21.1125 44.1 21.525V32.9063C44.1 33.3188 43.7625 33.6563 43.35 33.6563H39.5437V34.4344H41.0719C41.4844 34.4344 41.8219 34.7719 41.8219 35.1844V42.0094C41.8219 42.4219 41.4844 42.7594 41.0719 42.7594H27.1781C24.6469 45.6563 21.0281 47.3063 17.175 47.3063ZM28.3125 40.4813C28.2 40.4813 28.0781 40.4531 27.975 40.3969C27.6094 40.2094 27.4594 39.7594 27.6469 39.3844C27.9937 38.7094 28.275 37.9875 28.4906 37.2469C28.5844 36.9281 28.875 36.7031 29.2125 36.7031H31.9687C32.3812 36.7031 32.7187 37.0406 32.7187 37.4531C32.7187 37.8656 32.3812 38.2031 31.9687 38.2031H29.7656C29.55 38.85 29.2875 39.4688 28.9875 40.0688C28.8469 40.3313 28.5844 40.4813 28.3125 40.4813ZM29.6344 35.925C29.6156 35.925 29.5875 35.925 29.5687 35.925C29.1562 35.8875 28.8562 35.5219 28.8937 35.1094C28.9312 34.7063 28.95 34.3594 28.95 34.0406C28.95 32.175 28.5094 30.375 27.6562 28.6875C27.4687 28.3219 27.6094 27.8625 27.9844 27.675C28.35 27.4875 28.8094 27.6281 28.9969 28.0031C29.9625 29.8969 30.4594 31.9219 30.4594 34.0313C30.4594 34.3969 30.4406 34.7813 30.3937 35.2406C30.3469 35.6344 30.0187 35.925 29.6344 35.925ZM26.8312 26.8219C26.6156 26.8219 26.4 26.7281 26.25 26.55C25.5937 25.7531 24.8062 25.0313 23.925 24.4125C23.6531 24.225 23.5406 23.8875 23.6437 23.5688C23.7469 23.2594 24.0281 23.0438 24.3562 23.0438H31.9687C32.3812 23.0438 32.7187 23.3813 32.7187 23.7938C32.7187 24.2063 32.3812 24.5438 31.9687 24.5438H26.4375C26.7844 24.8813 27.1031 25.2281 27.4031 25.5938C27.6656 25.9125 27.6187 26.3813 27.3 26.6531C27.1687 26.7656 27 26.8219 26.8312 26.8219ZM29.6906 19.9969H20.5875C20.175 19.9969 19.8375 19.6594 19.8375 19.2469C19.8375 18.8344 20.175 18.4969 20.5875 18.4969H29.6906C30.1031 18.4969 30.4406 18.8344 30.4406 19.2469C30.4406 19.6594 30.1031 19.9969 29.6906 19.9969ZM17.175 42.7594C12.3656 42.7594 8.45624 38.85 8.45624 34.0406C8.45624 29.2313 12.3656 25.3219 17.175 25.3219C21.9844 25.3219 25.8937 29.2313 25.8937 34.0406C25.8844 38.8406 21.975 42.7594 17.175 42.7594ZM17.175 26.8219C13.2 26.8219 9.95624 30.0563 9.95624 34.0406C9.95624 38.025 13.1906 41.2594 17.175 41.2594C21.1594 41.2594 24.3937 38.025 24.3937 34.0406C24.3937 30.0563 21.15 26.8219 17.175 26.8219Z" fill="black"/>
<defs>
<linearGradient id="paint0_linear" x1="26.2763" y1="42.1302" x2="26.2763" y2="13.1407" gradientUnits="userSpaceOnUse">
<stop stop-color="#FFEFE6"/>
<stop offset="1" stop-color="#FF5E00"/>
</linearGradient>
</defs>
</svg>
