<svg width="48" height="48" viewBox="0 0 48 48" fill="none" xmlns="http://www.w3.org/2000/svg">
<path d="M32.6438 37.5C35.3344 37.5844 37.8281 36.6375 39.5625 35.1281C41.0062 33.8625 42.5062 31.275 41.8875 27.3656C41.1656 22.7719 37.8844 19.5094 33.4312 17.6625C33.4031 17.6531 33.3844 17.6438 33.3562 17.6344C32.3906 17.1563 32.8781 15.6656 33.9469 15.8156C40.6781 16.7438 45.8719 22.5188 45.8719 29.5125C45.8719 37.1531 39.6375 44.175 32.0437 43.3406C25.0406 42.5719 25.4063 36.6375 32.6438 37.5Z" fill="url(#paint0_linear)"/>
<path d="M39.6937 40.9594C39.9094 41.3156 39.7969 41.775 39.45 41.9906C37.275 43.3219 35.0531 43.9125 32.2406 43.9125C31.8281 43.9125 31.4906 43.575 31.4906 43.1625C31.4906 42.75 31.8281 42.4125 32.2406 42.4125C34.7625 42.4125 36.7406 41.8875 38.6625 40.7062C39.0187 40.4906 39.4781 40.6031 39.6937 40.9594ZM33.4687 14.1656C33.4687 14.5781 33.8062 14.9156 34.2187 14.9156C34.6312 14.9156 34.9687 14.5781 34.9687 14.1656V12.2437C34.9687 11.8312 34.6312 11.4937 34.2187 11.4937H31.0687C30.6562 11.4937 30.3187 11.8312 30.3187 12.2437C30.3187 12.6562 30.6562 12.9937 31.0687 12.9937H33.4687V14.1656ZM28.8562 12.6656C29.2781 12.6656 29.6062 12.3281 29.6062 11.9062L29.5969 10.5469L37.0969 10.4719C37.5094 10.4719 37.8469 10.125 37.8375 9.71249C37.8375 9.29999 37.5 8.97186 37.0875 8.97186H37.0781L28.8281 9.05624C28.4156 9.05624 28.0781 9.40311 28.0875 9.81561L28.1062 11.925C28.1062 12.3375 28.4437 12.6656 28.8562 12.6656ZM40.425 23.9719C40.1719 23.6437 39.7031 23.5781 39.375 23.8219L32.9812 28.65V20.2219C32.9812 19.8094 32.6437 19.4719 32.2312 19.4719C31.8187 19.4719 31.4812 19.8094 31.4812 20.2219V30.1594C31.4812 30.4406 31.6406 30.7031 31.8938 30.8344C31.9969 30.8906 32.1094 30.9094 32.2312 30.9094C32.3906 30.9094 32.55 30.8625 32.6812 30.7594L40.275 25.0219C40.6125 24.7687 40.6781 24.3 40.425 23.9719ZM32.2406 14.9625C31.8281 14.9625 31.4906 15.3 31.4906 15.7125C31.4906 16.125 31.8281 16.4625 32.2406 16.4625C39.3937 16.4625 45.2156 22.2844 45.2156 29.4375C45.2156 33.1875 43.5844 36.7594 40.7531 39.225C40.4437 39.4969 40.4062 39.975 40.6781 40.2844C40.8281 40.4531 41.0344 40.5375 41.2406 40.5375C41.4187 40.5375 41.5875 40.4812 41.7281 40.35C44.8969 37.5937 46.7062 33.6187 46.7062 29.4281C46.7156 21.4594 40.2281 14.9625 32.2406 14.9625ZM29.6625 17.5125H24.2812C23.8687 17.5125 23.5312 17.85 23.5312 18.2625C23.5312 18.675 23.8687 19.0125 24.2812 19.0125H29.6719C30.0844 19.0125 30.4219 18.675 30.4219 18.2625C30.4219 17.85 30.0844 17.5125 29.6625 17.5125ZM29.6625 20.325H21.3563C20.9438 20.325 20.6063 20.6625 20.6063 21.075C20.6063 21.4875 20.9438 21.825 21.3563 21.825H29.6625C30.075 21.825 30.4125 21.4875 30.4125 21.075C30.4125 20.6625 30.0844 20.325 29.6625 20.325ZM29.6625 23.1375H19.6875C19.275 23.1375 18.9375 23.475 18.9375 23.8875C18.9375 24.3 19.275 24.6375 19.6875 24.6375H29.6625C30.075 24.6375 30.4125 24.3 30.4125 23.8875C30.4125 23.475 30.0844 23.1375 29.6625 23.1375ZM29.6625 25.95H18.7313C18.3188 25.95 17.9813 26.2875 17.9813 26.7C17.9813 27.1125 18.3188 27.45 18.7313 27.45H29.6625C30.075 27.45 30.4125 27.1125 30.4125 26.7C30.4125 26.2875 30.0844 25.95 29.6625 25.95ZM29.6625 28.7625H18.5156C18.1031 28.7625 17.7656 29.1 17.7656 29.5125C17.7656 29.925 18.1031 30.2625 18.5156 30.2625H29.6625C30.075 30.2625 30.4125 29.925 30.4125 29.5125C30.4125 29.1 30.0844 28.7625 29.6625 28.7625ZM29.6625 31.575H18.825C18.4125 31.575 18.075 31.9125 18.075 32.325C18.075 32.7375 18.4125 33.075 18.825 33.075H29.6719C30.0844 33.075 30.4219 32.7375 30.4219 32.325C30.4219 31.9125 30.0844 31.575 29.6625 31.575ZM29.6625 34.3875H19.7531C19.3406 34.3875 19.0031 34.725 19.0031 35.1375C19.0031 35.55 19.3406 35.8875 19.7531 35.8875H29.6625C30.075 35.8875 30.4125 35.55 30.4125 35.1375C30.4125 34.725 30.0844 34.3875 29.6625 34.3875ZM29.6625 37.2H21.4781C21.0656 37.2 20.7281 37.5375 20.7281 37.95C20.7281 38.3625 21.0656 38.7 21.4781 38.7H29.6625C30.075 38.7 30.4125 38.3625 30.4125 37.95C30.4125 37.5375 30.0844 37.2 29.6625 37.2ZM29.6625 40.0125H24.4875C24.075 40.0125 23.7375 40.35 23.7375 40.7625C23.7375 41.175 24.075 41.5125 24.4875 41.5125H29.6625C30.075 41.5125 30.4125 41.175 30.4125 40.7625C30.4125 40.35 30.0844 40.0125 29.6625 40.0125Z" fill="black"/>
<path d="M2.13751 2.09064H19.2656L2.13751 19.2281V2.09064Z" fill="#FFEFE6"/>
<path d="M3.26251 34.8188V32.775H15.6V34.8188H3.26251Z" fill="#FFEFE6"/>
<path d="M46.6969 2.09064V7.80001L40.9875 2.09064H46.6969ZM15.6 38.1844V36.1406H3.26251V38.1844H15.6Z" fill="#FF5E00"/>
<path d="M37.7719 45.9563C37.7719 46.3688 37.4344 46.7063 37.0219 46.7063H12.3375C11.925 46.7063 11.5875 46.3688 11.5875 45.9563C11.5875 45.5438 11.925 45.2063 12.3375 45.2063H37.0219C37.4344 45.2063 37.7719 45.5438 37.7719 45.9563ZM45.4406 11.4938H43.9688V10.0125C43.9688 9.60001 43.6313 9.26251 43.2188 9.26251C42.8063 9.26251 42.4688 9.60001 42.4688 10.0125V11.4938H40.9875C40.575 11.4938 40.2375 11.8313 40.2375 12.2438C40.2375 12.6563 40.575 12.9938 40.9875 12.9938H42.4688V14.475C42.4688 14.8875 42.8063 15.225 43.2188 15.225C43.6313 15.225 43.9688 14.8875 43.9688 14.475V12.9938H45.45C45.8625 12.9938 46.2 12.6563 46.2 12.2438C46.2 11.8313 45.8625 11.4938 45.4406 11.4938ZM10.2938 21.9656C11.3625 21.9656 12.2438 22.8375 12.2438 23.9156C12.2438 24.3281 12.5813 24.6656 12.9938 24.6656C13.4063 24.6656 13.7438 24.3281 13.7438 23.9156C13.7438 22.0125 12.1969 20.4656 10.2938 20.4656C9.88126 20.4656 9.54376 20.8031 9.54376 21.2156C9.54376 21.6281 9.87189 21.9656 10.2938 21.9656ZM17.6719 21.9656C18.0844 21.9656 18.4219 21.6281 18.4219 21.2156C18.4219 20.8031 18.0844 20.4656 17.6719 20.4656C15.7688 20.4656 14.2219 22.0125 14.2219 23.9156C14.2219 24.3281 14.5594 24.6656 14.9719 24.6656C15.3844 24.6656 15.7219 24.3281 15.7219 23.9156C15.7313 22.8375 16.6031 21.9656 17.6719 21.9656ZM17.6719 18.4781C16.6031 18.4781 15.7219 17.6063 15.7219 16.5281C15.7219 16.1156 15.3844 15.7781 14.9719 15.7781C14.5594 15.7781 14.2219 16.1156 14.2219 16.5281C14.2219 18.4313 15.7688 19.9781 17.6719 19.9781C18.0844 19.9781 18.4219 19.6406 18.4219 19.2281C18.4219 18.8156 18.0844 18.4781 17.6719 18.4781ZM10.2938 19.9781C12.1969 19.9781 13.7438 18.4313 13.7438 16.5281C13.7438 16.1156 13.4063 15.7781 12.9938 15.7781C12.5813 15.7781 12.2438 16.1156 12.2438 16.5281C12.2438 17.5969 11.3719 18.4781 10.2938 18.4781C9.88126 18.4781 9.54376 18.8156 9.54376 19.2281C9.54376 19.6406 9.87189 19.9781 10.2938 19.9781ZM19.9594 1.80938C19.8469 1.52813 19.5656 1.35001 19.2656 1.35001H2.13751C1.72501 1.35001 1.38751 1.68751 1.38751 2.10001V19.2281C1.38751 19.6406 1.72501 19.9781 2.13751 19.9781C2.55001 19.9781 2.88751 19.6406 2.88751 19.2281V2.84063H17.4563L6.66564 13.6313C6.37501 13.9219 6.37501 14.4 6.66564 14.6906C6.95626 14.9813 7.43439 14.9813 7.72501 14.6906L19.8 2.62501C20.0156 2.40938 20.0813 2.08126 19.9594 1.80938ZM19.3969 10.8188C19.3969 11.2313 19.7344 11.5688 20.1469 11.5688H20.5125V11.9344C20.5125 12.3469 20.85 12.6844 21.2625 12.6844C21.675 12.6844 22.0125 12.3469 22.0125 11.9344V11.5688H22.3781C22.7906 11.5688 23.1281 11.2313 23.1281 10.8188C23.1281 10.4063 22.7906 10.0688 22.3781 10.0688H22.0125V9.70313C22.0125 9.29063 21.675 8.95313 21.2625 8.95313C20.85 8.95313 20.5125 9.29063 20.5125 9.70313V10.0688H20.1469C19.7344 10.0688 19.3969 10.4063 19.3969 10.8188ZM30.7969 5.70001H36.3469C36.7594 5.70001 37.0969 5.36251 37.0969 4.95001C37.0969 4.53751 36.7594 4.20001 36.3469 4.20001H30.7969C30.3844 4.20001 30.0469 4.53751 30.0469 4.95001C30.0469 5.36251 30.3844 5.70001 30.7969 5.70001ZM5.16564 41.8313C5.16564 42.3469 4.75314 42.7594 4.23751 42.7594C3.72189 42.7594 3.30939 42.3469 3.30939 41.8313C3.30939 41.3156 3.72189 40.9031 4.23751 40.9031C4.75314 40.9031 5.16564 41.3156 5.16564 41.8313ZM10.3594 41.8313C10.3594 42.3469 9.94689 42.7594 9.43126 42.7594C8.91564 42.7594 8.50314 42.3469 8.50314 41.8313C8.50314 41.3156 8.91564 40.9031 9.43126 40.9031C9.94689 40.9031 10.3594 41.3156 10.3594 41.8313ZM13.6875 41.8313C13.6875 41.3156 14.1 40.9031 14.6156 40.9031C15.1313 40.9031 15.5438 41.3156 15.5438 41.8313C15.5438 42.3469 15.1313 42.7594 14.6156 42.7594C14.1 42.7594 13.6875 42.3469 13.6875 41.8313Z" fill="black"/>
<defs>
<linearGradient id="paint0_linear" x1="36.4333" y1="43.6421" x2="36.4333" y2="15.8276" gradientUnits="userSpaceOnUse">
<stop stop-color="#FFEFE6"/>
<stop offset="1" stop-color="#FF5E00"/>
</linearGradient>
</defs>
</svg>
