<svg width="24" height="26" viewBox="0 0 24 26" fill="none" xmlns="http://www.w3.org/2000/svg">
<path fill-rule="evenodd" clip-rule="evenodd" d="M22.7424 23.3304C22.5878 22.3913 22.1756 21.4 21.815 21.1913C21.2482 20.8783 21.0937 18.687 21.0937 10.913V1H2.54567V10.913C2.54567 19.2609 2.44262 20.9304 1.77283 21.1391C1.30913 21.3478 1 22.1304 1 23.2261V25H23L22.7424 23.3304ZM22.1756 21.8696L22.0211 23.0696C21.8666 24.2166 21.8151 24.2174 11.7377 24.3736L11.7166 24.3739L1.51522 24.4783V21.8696H22.1756ZM3.06089 1.52174V21.3478H20.5785V1.52174H3.06089ZM17.4871 19.2609V7.31304L6.40984 7.52174L6.1007 19.2609H17.4871ZM16.9719 18.7391H15.4778C14.0351 18.7391 13.9836 18.6348 14.2412 17.0174C14.3958 15.8696 14.1382 14.513 13.3653 12.8435C12.0773 10.0783 11.2014 9.6087 11.6651 11.9565C11.8712 13.2087 11.8197 13.4696 11.2014 13.2609C9.91335 12.7391 9.08899 14.3565 9.39813 16.6522C9.65574 18.687 9.60422 18.7391 8.16159 18.7391H6.66745V8.30435H16.9719V18.7391ZM12.8501 15.087C11.8712 14.4609 10.274 15.6609 10.274 17.0174C10.274 18.8435 12.6955 18.687 13.1593 16.8609C13.3653 15.9739 13.2623 15.3478 12.8501 15.087Z" fill="#4D1C00"/>
<path d="M11.7166 24.3739L1.51522 24.4783V21.8696H22.1756L22.0211 23.0696C21.8666 24.2166 21.8151 24.2174 11.7377 24.3736M11.7166 24.3739L11.7377 24.3736M11.7166 24.3739C11.7237 24.3738 11.7307 24.3737 11.7377 24.3736M22.7424 23.3304C22.5878 22.3913 22.1756 21.4 21.815 21.1913C21.2482 20.8783 21.0937 18.687 21.0937 10.913V1H2.54567V10.913C2.54567 19.2609 2.44262 20.9304 1.77283 21.1391C1.30913 21.3478 1 22.1304 1 23.2261V25H23L22.7424 23.3304ZM3.06089 1.52174V21.3478H20.5785V1.52174H3.06089ZM17.4871 7.31304V19.2609H6.1007L6.40984 7.52174L17.4871 7.31304ZM6.66745 8.30435V18.7391H8.16159C9.60422 18.7391 9.65574 18.687 9.39813 16.6522C9.08899 14.3565 9.91335 12.7391 11.2014 13.2609C11.8197 13.4696 11.8712 13.2087 11.6651 11.9565C11.2014 9.6087 12.0773 10.0783 13.3653 12.8435C14.1382 14.513 14.3958 15.8696 14.2412 17.0174C13.9836 18.6348 14.0351 18.7391 15.4778 18.7391H16.9719V8.30435H6.66745ZM10.274 17.0174C10.274 15.6609 11.8712 14.4609 12.8501 15.087C13.2623 15.3478 13.3653 15.9739 13.1592 16.8609C12.6955 18.687 10.274 18.8435 10.274 17.0174Z" stroke="#4D1C00" stroke-width="0.4"/>
</svg>
