<svg width="24" height="24" viewBox="0 0 24 24" fill="none" xmlns="http://www.w3.org/2000/svg">
<path fill-rule="evenodd" clip-rule="evenodd" d="M14.5116 20.6523C8.47955 20.6523 7.0044 20.6523 6.55448 21.3212C6.40884 21.5378 6.37063 21.8244 6.32006 22.2038L6.30698 22.3014C6.19535 23.2909 5.74884 23.8406 5.02326 23.9506C3.57209 24.1705 3.06977 23.6757 3.06977 22.0816C3.06977 21.147 2.67907 20.8172 1.56279 20.6523L0 20.4874V6.74458L1.50698 6.57967C2.7907 6.41475 3.01395 6.1399 3.1814 4.38082L3.34884 2.34688L6.69767 2.29191C10.0497 2.21423 11.0334 2.19144 11.322 1.73877C11.4419 1.55078 11.4419 1.28864 11.4419 0.91763C11.4419 0.257975 11.7209 -0.126824 12.1674 0.0380897C12.5023 0.148032 12.7814 0.642773 12.6698 1.13751C12.5581 1.85214 13.2279 2.07203 16.5767 2.18197L20.6512 2.34688L20.5954 4.27087C20.5954 5.97498 20.7628 6.24984 22.2698 6.46972L24 6.74458V20.4874L22.493 20.6523C21.3209 20.8172 20.986 21.147 20.8186 22.3014C20.707 23.4558 20.3721 23.7857 19.2558 23.7857C18.1954 23.7857 17.8047 23.4558 17.5814 22.1915C17.3023 20.7073 17.1349 20.6523 14.5116 20.6523ZM5.30233 3.17145C4.68837 3.17145 4.18605 3.44631 4.18605 3.72116C4.18605 4.05099 4.68837 4.27087 5.30233 4.27087C5.91628 4.27087 6.4186 4.05099 6.4186 3.72116C6.4186 3.44631 5.91628 3.17145 5.30233 3.17145ZM6.97674 3.72116C6.97674 3.44631 7.5907 3.17145 8.37209 3.17145C9.15349 3.17145 9.76744 3.44631 9.76744 3.72116C9.76744 4.05099 9.15349 4.27087 8.37209 4.27087C7.5907 4.27087 6.97674 4.05099 6.97674 3.72116ZM13.1163 3.39133C13.1163 2.34688 10.8279 2.5118 10.4372 3.61122C10.3256 3.99602 10.7721 4.27087 11.6651 4.27087C12.614 4.27087 13.1163 3.99602 13.1163 3.39133ZM13.6744 3.72116C13.6744 3.44631 14.2884 3.17145 15.0698 3.17145C15.8512 3.17145 16.4651 3.44631 16.4651 3.72116C16.4651 4.05099 15.8512 4.27087 15.0698 4.27087C14.2884 4.27087 13.6744 4.05099 13.6744 3.72116ZM18.4186 3.17145C17.6372 3.17145 17.0233 3.44631 17.0233 3.72116C17.0233 4.05099 17.6372 4.27087 18.4186 4.27087C19.2 4.27087 19.814 4.05099 19.814 3.72116C19.814 3.44631 19.2 3.17145 18.4186 3.17145ZM4.18605 5.97498C4.18605 5.20538 5.86047 4.9855 11.4419 5.09544C19.0326 5.20538 19.814 5.31533 19.814 5.92001C19.814 6.24984 16.8558 6.46972 12 6.46972C7.70233 6.46972 4.18605 6.24984 4.18605 5.97498ZM4.18605 10.8674V15.5949C4.18605 19.6628 4.29767 20.2675 5.07907 19.9926C5.5814 19.8277 6.8093 19.6628 7.81395 19.6628C8.73283 19.6628 9.19329 19.6628 9.36167 19.4444C9.53079 19.225 9.40521 18.7852 9.15349 17.9037C8.87442 16.9143 8.65116 16.0897 8.65116 16.0347C8.65116 15.9797 9.43256 15.1552 10.3814 14.2207L12.1116 12.4066L13.7302 13.9458C15.4047 15.485 15.4605 16.1447 14.4558 18.7833C14.1767 19.4979 14.5674 19.6628 16.9674 19.6628H19.814V10.8674H4.18605ZM18.6977 15.2651C18.6977 13.7809 18.4744 12.5166 18.1395 12.5166C17.8605 12.5166 17.5814 13.7809 17.5814 15.2651C17.5814 16.8043 17.8605 18.0137 18.1395 18.0137C18.4744 18.0137 18.6977 16.8043 18.6977 15.2651ZM4.18605 21.8617C4.18605 21.257 4.46512 20.7622 4.74419 20.7622C5.07907 20.7622 5.30233 21.257 5.30233 21.8617C5.30233 22.4664 5.07907 22.9611 4.74419 22.9611C4.46512 22.9611 4.18605 22.4664 4.18605 21.8617ZM19.9814 20.5424C19.4233 19.9926 18.6977 20.8172 18.6977 21.9166C18.6977 22.4664 18.9209 22.9611 19.2 22.9611C19.7581 22.9611 20.3721 20.9821 19.9814 20.5424ZM10.3256 18.7833C10.3256 17.7938 12.614 15.7599 13.2279 16.1996C13.507 16.3096 13.6744 17.1341 13.6744 18.0687C13.6744 19.4979 13.507 19.6628 12 19.6628C10.8279 19.6628 10.3256 19.388 10.3256 18.7833ZM0.837209 7.56915V13.616C0.837209 19.278 0.893023 19.6628 1.95349 19.6628C2.90233 19.6628 3.01395 19.2231 3.1814 14.8803L3.34884 10.0429H20.6512L20.8186 14.8803C20.986 19.2231 21.0977 19.6628 22.0465 19.6628C23.107 19.6628 23.1628 19.278 23.1628 13.616V7.56915H0.837209Z" fill="#FF5E00"/>
</svg>
