<svg width="24" height="26" viewBox="0 0 24 26" fill="none" xmlns="http://www.w3.org/2000/svg">
<path fill-rule="evenodd" clip-rule="evenodd" d="M18.6348 15.1913C19.7304 15.3478 19.7826 15.6087 19.9391 20.2L20.0957 25H4.3913V20.3043C4.3913 15.7652 4.44348 15.5565 5.69565 15.087C6.68696 14.7217 7 14.2 7 13C7 12.3823 7 12.0084 6.81724 11.782C6.53687 11.4348 5.82641 11.4348 4.02609 11.4348L1 11.3826L4.3913 8.2C6.26957 6.47826 8.87826 4.13044 10.2348 3.03478L12.6348 1L18.0609 6.16522L23.4348 11.3826L20.4609 11.4348H17.4348V13.2087C17.4348 14.6696 17.6435 15.0348 18.6348 15.1913ZM12.2696 2.04348C12.113 2.09565 9.97391 3.97391 7.52174 6.21739L3.08696 10.3913L12.2174 10.3391H21.3478L16.9652 6.21739C14.5652 3.92174 12.4261 2.04348 12.2696 2.04348ZM7.52174 15.087V11.4348H16.913V15.087H7.52174ZM5.17391 15.8696L4.86087 24.4783H19.5739L19.2609 15.8696H5.17391Z" fill="#4D1C00" stroke="#4D1C00" stroke-width="0.4"/>
</svg>
