<svg width="24" height="24" viewBox="0 0 24 24" fill="none" xmlns="http://www.w3.org/2000/svg">
<path fill-rule="evenodd" clip-rule="evenodd" d="M21.757 14.0701C21.8666 4.70849 21.9214 4.26534 23.0177 3.98837C23.8948 3.76679 24.114 3.32364 23.9496 1.828L23.7851 0H0.214873L0.0504293 1.828C-0.114014 3.32364 0.105244 3.76679 0.982277 3.98837C2.07857 4.26534 2.13338 4.65309 2.13338 13.7931C2.13338 19.0555 2.29783 23.5424 2.51708 23.764C2.73634 23.9302 7.12151 24.041 12.2193 23.9856L21.5925 23.8194L21.757 14.0701ZM10.3556 22.1022C10.3556 21.1051 11.8356 19.7203 12.9867 19.6649C13.3704 19.6649 13.6444 20.3296 13.6444 21.3267C13.6444 22.8223 13.48 22.9885 12 22.9885C10.8489 22.9885 10.3556 22.7115 10.3556 22.1022ZM15.7274 22.9885H17.4266L17.7555 11.9097H6.51855V22.9885H8.16298C9.69779 22.9885 9.7526 22.8777 9.20446 21.5483C8.6015 19.831 8.9852 18.2246 10.1363 17.7815C10.5748 17.6153 11.123 16.9506 11.3422 16.3412C11.7259 15.3441 11.8356 15.3441 13.5348 16.9506C15.3437 18.6678 15.4533 19.3325 14.4118 22.1022C14.1378 22.7669 14.4667 22.9885 15.7274 22.9885ZM3.22967 17.4491C3.22967 12.2975 3.28449 11.9097 4.32596 11.9097C5.36744 11.9097 5.42226 12.2975 5.42226 17.4491C5.42226 22.6007 5.36744 22.9885 4.32596 22.9885C3.28449 22.9885 3.22967 22.6007 3.22967 17.4491ZM4.32596 4.15455C3.3393 4.15455 3.22967 4.54231 3.22967 7.47819C3.22967 10.4141 3.3393 10.8018 4.32596 10.8018C5.31263 10.8018 5.42226 10.4141 5.42226 7.47819C5.42226 4.54231 5.31263 4.15455 4.32596 4.15455ZM6.51855 10.8018V4.15455H17.4815V10.8018H6.51855ZM13.0963 7.03504C14.7955 5.98255 15.6726 6.31491 14.2474 7.47819C12.603 8.91843 10.7941 8.86304 9.53335 7.47819C8.43706 6.25952 9.20446 5.98255 10.9037 7.03504C11.7807 7.58897 12.2193 7.58897 13.0963 7.03504ZM12.0548 0.83091C1.53042 0.83091 -0.114014 1.05249 0.763019 2.49273C0.982277 2.82509 5.31263 3.04667 12.0548 3.04667C22.5792 3.04667 22.9629 2.99127 22.9629 1.93879C22.9629 0.886304 22.5792 0.83091 12.0548 0.83091ZM18.5777 7.47819C18.5777 4.54231 18.6874 4.15455 19.674 4.15455C20.6607 4.15455 20.7703 4.54231 20.7703 7.47819C20.7703 10.4141 20.6607 10.8018 19.674 10.8018C18.6874 10.8018 18.5777 10.4141 18.5777 7.47819ZM19.674 11.9097C18.6326 11.9097 18.5777 12.2975 18.5777 17.4491C18.5777 22.6007 18.6326 22.9885 19.674 22.9885C20.7155 22.9885 20.7703 22.6007 20.7703 17.4491C20.7703 12.2975 20.7155 11.9097 19.674 11.9097Z" fill="#4D1C00"/>
</svg>
