<svg width="22" height="34" viewBox="0 0 22 34" fill="none" xmlns="http://www.w3.org/2000/svg">
<path fill-rule="evenodd" clip-rule="evenodd" d="M1 33H21L20.6308 8.38462H13.3077V1H8.38462V8.38462H1V33ZM1.73846 20.8769L1.92308 9.30769L20.0769 8.93846V32.3846H1.61538L1.73846 20.8769ZM14.2923 13.6769L16.3846 14.6615V28.6923H5.30769V14.6L7.15385 13.6154C9.43077 12.4462 11.6462 12.4462 14.2923 13.6769ZM5.92308 15.1538V21.6154C5.92308 27.7692 5.98462 28.0769 7.21538 28.0769C8.38462 28.0769 8.44615 27.8308 8.07692 25.6769C7.64615 22.9692 8.50769 20.6923 9.98462 20.6923C10.7231 20.6923 10.9077 20.3231 10.6 19.0923C10.2923 17.9846 10.4154 17.6154 10.9077 17.9231C12.0769 18.7231 13.3077 22.3538 13.3077 25.3077C13.3077 27.7077 13.4923 28.0769 14.5385 28.0769C15.7692 28.0769 15.8308 27.7692 15.6462 21.4923L15.4615 14.8462L12.8769 13.9231C10.5385 13.1231 10.0462 13.1846 8.07692 14.1077L5.92308 15.1538ZM9 26.5385C9 25.3692 10.7846 22.5385 11.5231 22.5385C11.8308 22.5385 12.0769 23.6462 12.0769 25C12.0769 27.2154 11.9538 27.4615 10.5385 27.4615C9.55385 27.4615 9 27.0923 9 26.5385ZM11.0308 1.73846C9.43077 1.92308 9.30769 2.16923 9.12308 5.18462L8.93846 8.38462H10.7846C11.5528 8.38462 12.0117 8.38462 12.2858 8.15957C12.6923 7.82577 12.6923 6.99686 12.6923 4.93846C12.6923 1.61538 12.6923 1.55385 11.0308 1.73846Z" fill="#4D1C00" stroke="#4D1C00" stroke-width="0.3"/>
</svg>
