<svg width="24" height="23" viewBox="0 0 24 23" fill="none" xmlns="http://www.w3.org/2000/svg">
<path fill-rule="evenodd" clip-rule="evenodd" d="M24 6.80807L21.3419 6.64267C19.0714 6.47727 18.4069 6.14647 16.9117 4.49246C15.9149 3.38979 15.1397 2.17686 15.1397 1.79092C15.1397 0.467719 13.9214 -0.13875 11.7617 0.0266504C10.1557 0.136917 9.54658 0.467719 9.32507 1.34985C9.15894 2.01146 8.27291 3.38979 7.27612 4.49246C5.78094 6.14647 5.11642 6.47727 2.84596 6.64267L0.187856 6.80807L0.0217246 14.196C-0.0336525 18.2758 0.021725 21.9698 0.132479 22.3557C0.353988 22.9622 2.84596 23.0724 12.2047 22.9622L24 22.7968V6.80807ZM8.32829 4.5476C9.65734 3.38979 10.2665 2.39739 10.1004 1.84606C9.82347 1.18445 10.2665 1.01905 12.0939 1.01905C13.9214 1.01905 14.3644 1.18445 14.0875 1.84606C13.9214 2.39739 14.5859 3.38979 15.8596 4.60273L17.9085 6.47727H12.0939L6.27933 6.42214L8.32829 4.5476ZM17.5763 18.6618H20.9543V9.84041H3.2336V18.6618H9.82347L9.2697 16.8975C8.99281 15.9051 8.7713 15.0781 8.7713 15.023C8.7713 14.9678 9.54658 14.1408 10.488 13.2036L12.2047 11.3841L13.8106 12.9279C14.8074 13.9203 15.3058 14.8024 15.1397 15.464C14.9735 16.0154 14.6967 16.9526 14.5305 17.5591C14.2536 18.5515 14.4751 18.6618 17.5763 18.6618ZM1.01851 7.63507L4.50727 7.57994C6.39009 7.5248 9.54658 7.41454 11.5402 7.30427C13.5337 7.13887 16.9671 7.194 19.1822 7.41454L23.1693 7.74534V21.9698H1.01851V7.63507ZM2.23681 13.6446L2.40294 9.01341H21.7849V19.4888L12.2047 19.6542C4.56265 19.7644 2.62445 19.6542 2.34756 19.0477C2.18143 18.6066 2.12605 16.1808 2.23681 13.6446ZM13.3122 15.1884C12.7031 14.7473 10.4326 16.7872 10.4326 17.7796C10.4326 18.3861 10.931 18.6618 12.0939 18.6618C13.5891 18.6618 13.7552 18.4964 13.7552 17.0629C13.7552 16.1256 13.5891 15.2986 13.3122 15.1884Z" fill="#4D1C00"/>
</svg>
