<svg width="26" height="24" viewBox="0 0 26 24" fill="none" xmlns="http://www.w3.org/2000/svg">
<path fill-rule="evenodd" clip-rule="evenodd" d="M25 14.0763C25 16.4788 24.6569 17.3941 22.8273 19.7966L20.6546 22.6568L6.41778 23L4.30227 20.8263C3.21592 19.625 1.95805 18.0805 1.61499 17.3941C0.700176 15.6208 0.814528 11.3877 1.90087 9.90046C2.75851 8.69919 3.10157 8.64199 12.993 8.64199C22.8845 8.64199 23.2275 8.69919 24.0852 9.90046C24.6569 10.6441 25 12.3602 25 14.0763ZM6.64648 4.63776C2.3011 4.63776 2.01523 4.69496 2.30111 5.78183C2.47263 6.41106 2.52981 6.92589 2.47263 6.92589C2.01523 6.92589 1.55782 6.01064 1.55782 5.15259C1.55782 4.23734 2.18675 4.06573 6.24625 3.95132C10.706 3.77971 10.9919 3.72251 11.678 2.23523C12.5356 0.461925 14.1937 0.633535 14.9942 2.52124C15.5088 3.66531 16.0805 3.77971 20.0257 3.95132C24.2567 4.12293 24.4282 4.18014 24.4282 5.49581C24.4282 6.29665 24.1995 6.92589 23.9137 6.92589C23.6278 6.92589 23.5134 6.41106 23.6849 5.78183C23.9708 4.69496 23.6849 4.63776 19.6826 4.63776C15.6803 4.63776 15.2801 4.52336 14.3081 3.15048L13.2217 1.66319L12.2497 3.15048C11.3349 4.52336 10.9919 4.63776 6.64648 4.63776ZM1.8437 12.6462C1.38629 15.2776 2.30111 17.5657 4.87403 20.2542L6.93236 22.3708H13.2789C20.3116 22.3708 20.5403 22.2564 23.2275 17.7945C24.5998 15.5636 24.6569 14.4195 23.7993 11.3877L23.2275 9.21402H13.3361C2.47263 9.21402 2.47263 9.21402 1.8437 12.6462Z" fill="#4D1C00" stroke="#4D1C00" stroke-width="0.5"/>
</svg>
