<svg width="22" height="26" viewBox="0 0 22 26" fill="none" xmlns="http://www.w3.org/2000/svg">
<path fill-rule="evenodd" clip-rule="evenodd" d="M20.5733 12.6308C19.6446 12.7692 19.5982 13 19.5982 18.9077V25H3.1606L2.882 12.7692L1.67472 12.6308C0.513875 12.4923 0.653176 12.3077 3.67137 9.44615L6.82887 6.4V1H16.2085L15.837 7.04615L18.7159 9.76923C21.1305 12.0769 21.4091 12.4923 20.5733 12.6308ZM7.29321 1.46154V6.53846H15.187V1.46154H7.29321ZM1.99976 12.0769L7.01461 7H15.0012L20.0161 12.0769H1.99976ZM4.87865 24.4462L6.13236 24.3077V14.6154L16.1156 14.3385V24.5385H18.9017V12.5385H3.57851V24.5846L4.87865 24.4462ZM15.6513 24.5385H14.3976C13.1439 24.5385 13.0974 24.4462 13.051 22.0923C13.051 19.8308 11.8902 16.6923 11.0543 16.6923C10.8686 16.6923 10.8222 17.3385 10.915 18.1692C11.1008 19.3231 11.0079 19.5538 10.4507 19.3231C9.38273 18.9538 8.50049 20.8923 8.87196 22.8769C9.15056 24.4462 9.10413 24.5385 7.98972 24.5385H6.82887V14.8462H15.6513V24.5385ZM11.7509 20.8462C11.1008 20.8462 9.6149 22.7385 9.6149 23.6154C9.6149 23.8462 10.265 24.0769 11.0079 24.0769C12.3081 24.0769 12.4009 23.9385 12.4009 22.4615C12.4009 21.4 12.1688 20.8462 11.7509 20.8462Z" fill="#4D1C00" stroke="#4D1C00" stroke-width="0.4"/>
</svg>
