<svg width="26" height="26" viewBox="0 0 26 26" fill="none" xmlns="http://www.w3.org/2000/svg">
<path fill-rule="evenodd" clip-rule="evenodd" d="M24.311 2.88571C23.9665 3.91429 23.5646 9.22857 23.4498 14.8857L23.2775 25H2.72249L2.55024 14.8857C2.43541 9.22857 2.03349 3.91429 1.689 2.88571L1 1H25L24.311 2.88571ZM7.25837 7.28571V14.7143H18.7416V7.28571H7.25837ZM3.52632 23.7429C3.35407 23.3429 3.18182 18.7143 3.1244 13.4L2.95215 3.85714H22.7608V24.4286H13.2871C6.16746 24.4286 3.69856 24.2571 3.52632 23.7429ZM17.9378 17.2857C19.1435 17.2857 19.3158 17.5714 19.3158 19.4571V21.5714H6.68421V17.5714L11.4498 17.6286C14.0335 17.6857 15.6986 17.8 15.1818 17.9714C14.6651 18.0857 14.0909 18.6571 13.9761 19.1714C13.7464 19.9714 13.689 19.9714 13.6316 19.2286C13.5742 18.5429 12.8278 18.3143 10.3589 18.2571C7.43062 18.2 7.20096 18.3143 7.37321 19.4571C7.54545 20.5429 7.94737 20.6571 13.1722 20.8286L18.7416 21V19.5714C18.7416 18.7143 18.3971 18.1429 17.9378 18.1429C17.4785 18.1429 16.9617 17.9714 16.8469 17.7429C16.6746 17.4571 17.1914 17.2857 17.9378 17.2857ZM19.3158 6.71429V15.2857H6.68421V6.71429H19.3158ZM13.0574 1.57143C3.00957 1.57143 1.3445 1.8 2.49282 2.94286C2.72249 3.11429 7.54545 3.22857 13.2297 3.17143C20.866 3.05714 23.5646 2.82857 23.7943 2.31429C23.9665 1.74286 21.555 1.57143 13.0574 1.57143Z" fill="#4D1C00" stroke="#4D1C00" stroke-width="0.3"/>
</svg>
