<svg width="26" height="26" viewBox="0 0 26 26" fill="none" xmlns="http://www.w3.org/2000/svg">
<path fill-rule="evenodd" clip-rule="evenodd" d="M6.86467 22.0236C9.71372 18.9029 10.2616 17.4794 8.94667 16.4392C8.07004 15.6727 6.64551 16.5487 3.24856 19.8336C0.618665 22.2973 0.509086 22.6805 1.82403 24.104C3.19377 25.637 3.85125 25.3632 6.86467 22.0236ZM22.6441 10.5811C23.959 7.29612 25 4.23018 25 3.79219C25 2.69721 23.3563 1 22.2605 1C21.4387 1 14.7544 3.51845 9.54936 5.76315L7.46735 6.63913L9.98767 9.32183L12.508 12.0593L11.0287 13.5922C9.65894 15.0157 9.60415 15.2347 10.426 15.5632C11.1383 15.8369 12.1793 15.1252 14.2613 13.0995C15.7954 11.5665 17.2747 10.3073 17.4938 10.3073C17.713 10.3073 17.3843 11.3475 16.7268 12.552L15.5762 14.7967L17.3843 16.6582C17.4871 16.7662 17.5843 16.8698 17.6767 16.9682C18.2767 17.6073 18.6696 18.0258 19.0413 18.0078C19.7467 17.9737 20.3758 16.3682 22.1986 11.7168C22.3397 11.3567 22.488 10.9784 22.6441 10.5811ZM2.15277 23.0638C1.87882 22.4068 2.64588 21.4213 4.67309 19.5051C9.43978 15.1252 10.9191 16.4392 6.59072 21.2023C3.96082 24.104 2.75546 24.6515 2.15277 23.0638ZM17.6034 12.4973C16.8912 14.1397 16.7816 14.7967 17.2747 15.7274C18.48 17.9174 19.3567 16.9319 21.8222 10.4716C24.4521 3.68269 24.5069 2.09498 22.1509 2.09498C21.1099 2.09498 9.8233 6.20114 9.16583 6.80338C9.05625 6.91288 9.8233 7.9531 10.8643 9.10283C11.9601 10.3073 12.9463 11.5665 13.0559 12.0045C13.2203 12.552 13.9873 12.1688 15.7406 10.5811C17.7678 8.77434 18.1513 8.55534 18.3157 9.43132C18.4253 9.97881 18.0965 11.3475 17.6034 12.4973Z" fill="#4D1C00" stroke="#4D1C00" stroke-width="0.3"/>
</svg>
