<svg width="26" height="25" viewBox="0 0 26 25" fill="none" xmlns="http://www.w3.org/2000/svg">
<path fill-rule="evenodd" clip-rule="evenodd" d="M23.7281 4.99762C23.1198 5.32619 22.9539 7.46191 22.9539 14.6905V24H3.04608V14.6905C3.04608 7.46191 2.88018 5.32619 2.27189 4.99762C1.88479 4.77857 1.4424 3.7381 1.2765 2.80714L1 1H25L24.7235 2.80714C24.5576 3.7381 24.1152 4.77857 23.7281 4.99762ZM23.9493 2.80714L24.1152 1.54762H1.94009V4.28571L12.8894 4.17619L12.912 4.17585C23.7282 4.0119 23.7835 4.01107 23.9493 2.80714ZM19.0829 23.4524V17.7571C19.0829 17.5341 19.0832 17.3189 19.0835 17.1113C19.0869 14.209 19.0886 12.7811 18.3685 12.0793C17.6711 11.3996 16.2965 11.4012 13.5906 11.4043L13.5888 11.4043C13.3992 11.4045 13.203 11.4048 13 11.4048C12.797 11.4048 12.6008 11.4045 12.4112 11.4043L12.4094 11.4043C9.70348 11.4012 8.32891 11.3996 7.63147 12.0793C6.91142 12.7811 6.91311 14.209 6.91655 17.1113V17.1126C6.9168 17.3198 6.91705 17.5346 6.91705 17.7571V23.4524H3.59908V4.83333H22.4009V23.4524H19.0829ZM8.46544 12.5C7.58064 12.5 7.47005 13.1571 7.47005 17.9762V23.4524H9.01843C10.5115 23.4524 10.5668 23.3429 10.5668 20.8786C10.5115 18.6333 10.7327 18.1405 11.7834 17.7024C12.7788 17.2643 12.9447 16.881 12.7235 15.5119C12.3917 13.9238 12.447 13.9238 13.3318 14.9643C15.4885 17.5929 16.5945 22.3571 14.9908 22.3571C14.5484 22.3571 14.2719 21.7548 14.2719 20.9881C14.2719 19.1262 13.8848 18.8524 12.5023 19.7286C11.0092 20.6048 10.9539 22.9048 12.3917 22.9048C12.9447 22.9048 14.5484 23.069 15.9862 23.2333L18.53 23.6167V12.5548L16.0968 12.2262C14.7696 12.0071 12.7235 12.0071 11.5622 12.1714C10.6941 12.2887 9.74142 12.378 9.0861 12.4395C8.82309 12.4641 8.60798 12.4843 8.46544 12.5Z" fill="#4D1C00"/>
<path d="M12.8894 4.17619L1.94009 4.28571V1.54762H24.1152L23.9493 2.80714C23.7835 4.01107 23.7282 4.0119 12.912 4.17585M12.8894 4.17619L12.912 4.17585M12.8894 4.17619C12.897 4.17608 12.9045 4.17596 12.912 4.17585M22.9539 14.6905C22.9539 7.4619 23.1198 5.32619 23.7281 4.99762C24.1152 4.77857 24.5576 3.7381 24.7235 2.80714L25 1H1L1.2765 2.80714C1.4424 3.7381 1.88479 4.77857 2.27189 4.99762C2.88018 5.32619 3.04608 7.4619 3.04608 14.6905V24H22.9539V14.6905ZM3.59908 4.83333V23.4524H6.91705V17.7571C6.91705 17.5346 6.9168 17.3198 6.91655 17.1126V17.1113C6.91311 14.209 6.91142 12.7811 7.63147 12.0793C8.32891 11.3996 9.70348 11.4012 12.4094 11.4043L12.4112 11.4043C12.6008 11.4045 12.797 11.4048 13 11.4048C13.203 11.4048 13.3992 11.4045 13.5888 11.4043L13.5906 11.4043C16.2965 11.4012 17.6711 11.3996 18.3685 12.0793C19.0886 12.7811 19.0869 14.209 19.0835 17.1113C19.0832 17.3189 19.0829 17.5341 19.0829 17.7571V23.4524H22.4009V4.83333H3.59908ZM7.47005 17.9762C7.47005 13.1571 7.58064 12.5 8.46544 12.5C8.60798 12.4843 8.82309 12.4641 9.0861 12.4395C9.74142 12.378 10.6941 12.2887 11.5622 12.1714C12.7235 12.0071 14.7696 12.0071 16.0968 12.2262L18.53 12.5548V23.6167L15.9862 23.2333C14.5484 23.069 12.9447 22.9048 12.3917 22.9048C10.9539 22.9048 11.0092 20.6048 12.5023 19.7286C13.8848 18.8524 14.2719 19.1262 14.2719 20.9881C14.2719 21.7548 14.5484 22.3571 14.9908 22.3571C16.5945 22.3571 15.4885 17.5929 13.3318 14.9643C12.447 13.9238 12.3917 13.9238 12.7235 15.5119C12.9447 16.881 12.7788 17.2643 11.7834 17.7024C10.7327 18.1405 10.5115 18.6333 10.5668 20.8786C10.5668 23.3429 10.5115 23.4524 9.01843 23.4524H7.47005V17.9762Z" stroke="#4D1C00" stroke-width="0.3"/>
</svg>
