<svg width="25" height="24" viewBox="0 0 25 24" fill="none" xmlns="http://www.w3.org/2000/svg">
<path d="M22.5 12C22.5 10.6868 22.2413 9.38647 21.7388 8.1731C21.2362 6.95996 20.4997 5.85742 19.5711 4.92896C18.6425 4.00024 17.5401 3.26367 16.3268 2.76123C15.1136 2.25854 13.8132 2 12.5 2V4C13.5506 4 14.5909 4.20703 15.5615 4.60889C16.5321 5.01099 17.414 5.60034 18.1569 6.34326C18.8997 7.08594 19.489 7.96802 19.891 8.93848C20.2931 9.90918 20.5 10.9495 20.5 12H22.5Z" fill="#4D1C00"/>
<path d="M2.5 10V5C2.5 4.44775 2.94772 4 3.5 4H8.5C9.05228 4 9.5 4.44775 9.5 5V9C9.5 9.55225 9.05228 10 8.5 10H6.5C6.5 14.4182 10.0817 18 14.5 18V16C14.5 15.4478 14.9477 15 15.5 15H19.5C20.0523 15 20.5 15.4478 20.5 16V21C20.5 21.5522 20.0523 22 19.5 22H14.5C7.87259 22 2.5 16.6274 2.5 10Z" fill="#4D1C00"/>
<path d="M18.0433 9.70386C18.3448 10.4319 18.5 11.2122 18.5 12H16.7C16.7 11.4485 16.5914 10.9023 16.3803 10.3928C16.1692 9.88306 15.8599 9.42017 15.4698 9.03027C15.0798 8.64014 14.6169 8.33081 14.1073 8.11963C13.5977 7.90869 13.0515 7.80005 12.5 7.80005V6C13.2879 6 14.0681 6.15527 14.7961 6.45679C15.524 6.7583 16.1855 7.2002 16.7426 7.75732C17.2998 8.31445 17.7418 8.97583 18.0433 9.70386Z" fill="#4D1C00"/>
</svg>
