<svg width="19" height="22" viewBox="0 0 19 22" fill="none" xmlns="http://www.w3.org/2000/svg">
<path d="M14.5 4H4.5V6H14.5V4Z" fill="#4D1C00"/>
<path d="M4.5 8H6.5V10H4.5V8Z" fill="#4D1C00"/>
<path d="M6.5 12H4.5V14H6.5V12Z" fill="#4D1C00"/>
<path d="M4.5 16H6.5V18H4.5V16Z" fill="#4D1C00"/>
<path d="M10.5 8H8.5V10H10.5V8Z" fill="#4D1C00"/>
<path d="M8.5 12H10.5V14H8.5V12Z" fill="#4D1C00"/>
<path d="M10.5 16H8.5V18H10.5V16Z" fill="#4D1C00"/>
<path d="M12.5 8H14.5V10H12.5V8Z" fill="#4D1C00"/>
<path d="M14.5 12H12.5V18H14.5V12Z" fill="#4D1C00"/>
<path fill-rule="evenodd" clip-rule="evenodd" d="M0.5 2C0.5 0.89543 1.39543 0 2.5 0H16.5C17.6046 0 18.5 0.89543 18.5 2V20C18.5 21.1046 17.6046 22 16.5 22H2.5C1.39543 22 0.5 21.1046 0.5 20V2ZM2.5 2H16.5V20H2.5V2Z" fill="#4D1C00"/>
</svg>
