<svg width="16" height="16" viewBox="0 0 16 16" fill="none" xmlns="http://www.w3.org/2000/svg">
<path d="M4 2C4 3.10457 3.10457 4 2 4C0.89543 4 0 3.10457 0 2C0 0.89543 0.89543 0 2 0C3.10457 0 4 0.89543 4 2Z" fill="#4D1C00"/>
<path d="M4 8C4 9.1046 3.10457 10 2 10C0.89543 10 0 9.1046 0 8C0 6.8954 0.89543 6 2 6C3.10457 6 4 6.8954 4 8Z" fill="#4D1C00"/>
<path d="M2 16C3.10457 16 4 15.1046 4 14C4 12.8954 3.10457 12 2 12C0.89543 12 0 12.8954 0 14C0 15.1046 0.89543 16 2 16Z" fill="#4D1C00"/>
<path d="M10 2C10 3.10457 9.1046 4 8 4C6.8954 4 6 3.10457 6 2C6 0.89543 6.8954 0 8 0C9.1046 0 10 0.89543 10 2Z" fill="#4D1C00"/>
<path d="M8 10C9.1046 10 10 9.1046 10 8C10 6.8954 9.1046 6 8 6C6.8954 6 6 6.8954 6 8C6 9.1046 6.8954 10 8 10Z" fill="#4D1C00"/>
<path d="M10 14C10 15.1046 9.1046 16 8 16C6.8954 16 6 15.1046 6 14C6 12.8954 6.8954 12 8 12C9.1046 12 10 12.8954 10 14Z" fill="#4D1C00"/>
<path d="M14 4C15.1046 4 16 3.10457 16 2C16 0.89543 15.1046 0 14 0C12.8954 0 12 0.89543 12 2C12 3.10457 12.8954 4 14 4Z" fill="#4D1C00"/>
<path d="M16 8C16 9.1046 15.1046 10 14 10C12.8954 10 12 9.1046 12 8C12 6.8954 12.8954 6 14 6C15.1046 6 16 6.8954 16 8Z" fill="#4D1C00"/>
<path d="M14 16C15.1046 16 16 15.1046 16 14C16 12.8954 15.1046 12 14 12C12.8954 12 12 12.8954 12 14C12 15.1046 12.8954 16 14 16Z" fill="#4D1C00"/>
</svg>
