<svg width="15" height="15" viewBox="0 0 15 15" fill="none" xmlns="http://www.w3.org/2000/svg">
<path d="M1.70699 0.29289C1.31646 -0.09763 0.683298 -0.09763 0.292768 0.29289C-0.0977521 0.68342 -0.0977521 1.31658 0.292768 1.70711L6.06749 7.48181L0.292828 13.2565C-0.097692 13.647 -0.097692 14.2802 0.292828 14.6707C0.683358 15.0612 1.31652 15.0612 1.70704 14.6707L7.48169 8.89601L13.2564 14.6707C13.6469 15.0612 14.2801 15.0612 14.6706 14.6707C15.0611 14.2802 15.0611 13.647 14.6706 13.2565L8.89589 7.48181L14.6707 1.70711C15.0612 1.31658 15.0612 0.68342 14.6707 0.29289C14.2802 -0.09763 13.647 -0.09763 13.2565 0.29289L7.48169 6.06761L1.70699 0.29289Z" fill="#3B1616"/>
</svg>
