<svg width="20" height="16" viewBox="0 0 20 16" fill="none" xmlns="http://www.w3.org/2000/svg">
<path d="M0 1.96774C0 1.41546 0.44772 0.967743 1 0.967743H19C19.5523 0.967743 20 1.41546 20 1.96774C20 2.52002 19.5523 2.96774 19 2.96774H1C0.44772 2.96774 0 2.52002 0 1.96774Z" fill="#4D1C00"/>
<path d="M0 7.99994C0 7.44764 0.44772 6.99994 1 6.99994H19C19.5523 6.99994 20 7.44764 20 7.99994C20 8.55224 19.5523 8.99994 19 8.99994H1C0.44772 8.99994 0 8.55224 0 7.99994Z" fill="#4D1C00"/>
<path d="M1 13.0322C0.44772 13.0322 0 13.4799 0 14.0322C0 14.5844 0.44772 15.0322 1 15.0322H19C19.5523 15.0322 20 14.5844 20 14.0322C20 13.4799 19.5523 13.0322 19 13.0322H1Z" fill="#4D1C00"/>
</svg>
