<svg width="16" height="16" viewBox="0 0 16 16" fill="none" xmlns="http://www.w3.org/2000/svg">
<path fill-rule="evenodd" clip-rule="evenodd" d="M14 1H2C1.73478 1 1.48043 1.10536 1.29289 1.29289C1.10536 1.48043 1 1.73478 1 2V14C1 14.2652 1.10536 14.5196 1.29289 14.7071C1.48043 14.8946 1.73478 15 2 15H14C14.2652 15 14.5196 14.8946 14.7071 14.7071C14.8946 14.5196 15 14.2652 15 14V2C15 1.73478 14.8946 1.48043 14.7071 1.29289C14.5196 1.10536 14.2652 1 14 1ZM2 0C1.46957 0 0.960859 0.210714 0.585786 0.585786C0.210714 0.960859 0 1.46957 0 2V14C0 14.5304 0.210714 15.0391 0.585786 15.4142C0.960859 15.7893 1.46957 16 2 16H14C14.5304 16 15.0391 15.7893 15.4142 15.4142C15.7893 15.0391 16 14.5304 16 14V2C16 1.46957 15.7893 0.960859 15.4142 0.585786C15.0391 0.210714 14.5304 0 14 0H2Z" fill="#4D1C00"/>
<path fill-rule="evenodd" clip-rule="evenodd" d="M7.646 11.354C7.59944 11.3076 7.56249 11.2524 7.53729 11.1916C7.51208 11.1309 7.49911 11.0658 7.49911 11C7.49911 10.9342 7.51208 10.8691 7.53729 10.8084C7.56249 10.7476 7.59944 10.6924 7.646 10.646L10.293 8L7.646 5.354C7.59951 5.30751 7.56264 5.25232 7.53748 5.19158C7.51232 5.13084 7.49937 5.06574 7.49937 5C7.49937 4.93426 7.51232 4.86916 7.53748 4.80842C7.56264 4.74768 7.59951 4.69249 7.646 4.646C7.69249 4.59951 7.74768 4.56264 7.80842 4.53748C7.86916 4.51232 7.93426 4.49937 8 4.49937C8.06574 4.49937 8.13084 4.51232 8.19158 4.53748C8.25232 4.56264 8.30751 4.59951 8.354 4.646L11.354 7.646C11.4006 7.69245 11.4375 7.74762 11.4627 7.80837C11.4879 7.86911 11.5009 7.93423 11.5009 8C11.5009 8.06577 11.4879 8.13089 11.4627 8.19163C11.4375 8.25238 11.4006 8.30755 11.354 8.354L8.354 11.354C8.30755 11.4006 8.25238 11.4375 8.19163 11.4627C8.13089 11.4879 8.06577 11.5009 8 11.5009C7.93423 11.5009 7.86911 11.4879 7.80837 11.4627C7.74762 11.4375 7.69245 11.4006 7.646 11.354Z" fill="#4D1C00"/>
<path fill-rule="evenodd" clip-rule="evenodd" d="M4.5 8C4.5 7.86739 4.55268 7.74021 4.64645 7.64645C4.74021 7.55268 4.86739 7.5 5 7.5H10C10.1326 7.5 10.2598 7.55268 10.3536 7.64645C10.4473 7.74021 10.5 7.86739 10.5 8C10.5 8.13261 10.4473 8.25979 10.3536 8.35355C10.2598 8.44732 10.1326 8.5 10 8.5H5C4.86739 8.5 4.74021 8.44732 4.64645 8.35355C4.55268 8.25979 4.5 8.13261 4.5 8Z" fill="#4D1C00"/>
</svg>
