<svg width="16" height="15" viewBox="0 0 16 15" fill="none" xmlns="http://www.w3.org/2000/svg">
<path fill-rule="evenodd" clip-rule="evenodd" d="M8.29107 14.7062C8.19796 14.6133 8.12408 14.5029 8.07367 14.3815C8.02326 14.26 7.99732 14.1298 7.99732 13.9982C7.99732 13.8667 8.02326 13.7365 8.07367 13.615C8.12408 13.4935 8.19796 13.3832 8.29107 13.2903L13.5845 7.9989L8.29107 2.70749C8.19811 2.61453 8.12436 2.50416 8.07405 2.3827C8.02374 2.26123 7.99784 2.13105 7.99784 1.99957C7.99784 1.8681 8.02374 1.73791 8.07405 1.61645C8.12436 1.49498 8.19811 1.38462 8.29107 1.29165C8.38404 1.19869 8.49441 1.12494 8.61587 1.07463C8.73734 1.02432 8.86752 0.998422 8.999 0.998422C9.13047 0.998422 9.26065 1.02432 9.38212 1.07463C9.50359 1.12494 9.61395 1.19869 9.70692 1.29165L15.7062 7.29098C15.7994 7.38386 15.8732 7.4942 15.9236 7.61568C15.9741 7.73716 16 7.86738 16 7.9989C16 8.13042 15.9741 8.26065 15.9236 8.38213C15.8732 8.5036 15.7994 8.61394 15.7062 8.70682L9.70692 14.7062C9.61403 14.7993 9.5037 14.8731 9.38222 14.9236C9.26074 14.974 9.13051 14.9999 8.99899 14.9999C8.86747 14.9999 8.73725 14.974 8.61577 14.9236C8.49429 14.8731 8.38395 14.7993 8.29107 14.7062Z" fill="#4D1C00"/>
<path fill-rule="evenodd" clip-rule="evenodd" d="M14.9983 7.9989C14.9983 8.26409 14.893 8.51842 14.7055 8.70593C14.5179 8.89345 14.2636 8.99879 13.9984 8.99879L0.999889 8.99879C0.734702 8.99879 0.480376 8.89345 0.292861 8.70593C0.105345 8.51841 5.88864e-07 8.26409 6.12047e-07 7.9989C6.35231e-07 7.73372 0.105345 7.47939 0.292861 7.29187C0.480376 7.10436 0.734702 6.99901 0.999889 6.99901L13.9984 6.99901C14.2636 6.99901 14.5179 7.10436 14.7055 7.29187C14.893 7.47939 14.9983 7.73372 14.9983 7.9989Z" fill="#4D1C00"/>
</svg>
