<svg width="16" height="15" viewBox="0 0 16 15" fill="none" xmlns="http://www.w3.org/2000/svg">
<path fill-rule="evenodd" clip-rule="evenodd" d="M7.70893 0.293846C7.80204 0.386727 7.87592 0.497066 7.92633 0.618542C7.97674 0.740019 8.00268 0.870247 8.00268 1.00177C8.00268 1.13329 7.97674 1.26351 7.92633 1.38499C7.87592 1.50647 7.80204 1.61681 7.70893 1.70969L2.41552 7.0011L7.70893 12.2925C7.80189 12.3855 7.87564 12.4958 7.92595 12.6173C7.97626 12.7388 8.00216 12.869 8.00216 13.0004C8.00216 13.1319 7.97626 13.2621 7.92595 13.3836C7.87564 13.505 7.80189 13.6154 7.70893 13.7083C7.61596 13.8013 7.5056 13.8751 7.38413 13.9254C7.26266 13.9757 7.13248 14.0016 7.00101 14.0016C6.86953 14.0016 6.73935 13.9757 6.61788 13.9254C6.49642 13.8751 6.38605 13.8013 6.29308 13.7083L0.293755 7.70902C0.200639 7.61614 0.126761 7.5058 0.0763536 7.38432C0.0259463 7.26284 0 7.13262 0 7.0011C0 6.86958 0.0259463 6.73935 0.0763536 6.61787C0.126761 6.4964 0.200639 6.38606 0.293755 6.29318L6.29308 0.293846C6.38597 0.20073 6.4963 0.126852 6.61778 0.0764447C6.73926 0.0260374 6.86949 9.15527e-05 7.00101 9.15527e-05C7.13253 9.15527e-05 7.26275 0.0260374 7.38423 0.0764447C7.50571 0.126852 7.61605 0.20073 7.70893 0.293846Z" fill="#4D1C00"/>
<path fill-rule="evenodd" clip-rule="evenodd" d="M1.00168 7.0011C1.00168 6.73591 1.10702 6.48158 1.29454 6.29407C1.48205 6.10655 1.73638 6.00121 2.00156 6.00121H15.0001C15.2653 6.00121 15.5196 6.10655 15.7071 6.29407C15.8947 6.48158 16 6.73591 16 7.0011C16 7.26628 15.8947 7.52061 15.7071 7.70813C15.5196 7.89564 15.2653 8.00099 15.0001 8.00099H2.00156C1.73638 8.00099 1.48205 7.89564 1.29454 7.70813C1.10702 7.52061 1.00168 7.26628 1.00168 7.0011Z" fill="#4D1C00"/>
</svg>
