<svg width="48" height="48" viewBox="0 0 48 48" fill="none" xmlns="http://www.w3.org/2000/svg">
<path d="M9.32812 40.8656V45.2062H7.21875V40.8656H9.32812Z" fill="#FF5E00"/>
<path d="M5.0719 40.8656V45.2062H3.05627V40.8656H5.0719Z" fill="#FFEFE6"/>
<path d="M26.9438 15.9656C26.9438 16.3781 26.6063 16.7156 26.1938 16.7156H16.0688C15.6563 16.7156 15.3188 16.3781 15.3188 15.9656C15.3188 15.5531 15.6563 15.2156 16.0688 15.2156H26.1938C26.6063 15.2156 26.9438 15.5531 26.9438 15.9656ZM14.6063 20.3625H6.4688C6.0563 20.3625 5.7188 20.7 5.7188 21.1125C5.7188 21.525 6.0563 21.8625 6.4688 21.8625H14.6063C15.0188 21.8625 15.3563 21.525 15.3563 21.1125C15.3563 20.7 15.0188 20.3625 14.6063 20.3625ZM9.52505 7.32185H12.2157C12.6282 7.32185 12.9657 6.98435 12.9657 6.57185C12.9657 6.15935 12.6282 5.82185 12.2157 5.82185H9.52505C9.11255 5.82185 8.77505 6.15935 8.77505 6.57185C8.77505 6.98435 9.11255 7.32185 9.52505 7.32185ZM4.17192 4.7156H3.8063V4.34998C3.8063 3.93748 3.4688 3.59998 3.0563 3.59998C2.6438 3.59998 2.3063 3.93748 2.3063 4.34998V4.7156H1.94067C1.52817 4.7156 1.19067 5.0531 1.19067 5.4656C1.19067 5.8781 1.52817 6.2156 1.94067 6.2156H2.3063V6.58123C2.3063 6.99373 2.6438 7.33123 3.0563 7.33123C3.4688 7.33123 3.8063 6.99373 3.8063 6.58123V6.2156H4.17192C4.58442 6.2156 4.92192 5.8781 4.92192 5.4656C4.92192 5.0531 4.58442 4.7156 4.17192 4.7156ZM10.6594 12.1406C10.6594 12.5531 10.9969 12.8906 11.4094 12.8906H18.1032C18.5157 12.8906 18.8532 12.5531 18.8532 12.1406C18.8532 11.7281 18.5157 11.3906 18.1032 11.3906H11.4094C10.9969 11.3906 10.6594 11.7281 10.6594 12.1406Z" fill="black"/>
<path d="M42.5344 14.5875C42.5344 18.075 39.7031 20.9063 36.2156 20.9063C32.85 20.9063 30.0938 18.2719 29.9062 14.9438C30.2063 14.8407 30.6563 14.8594 30.8063 15.2157C31.65 17.25 33.1406 18.75 35.2406 19.0782C37.0313 19.3594 38.8688 18.1032 39.45 17.4375C41.1188 15.525 40.9594 11.6438 36.2906 9.87191C35.5781 9.60004 36.0187 8.43754 36.7781 8.42816H36.8063C37.275 8.42816 37.725 8.47504 38.175 8.55941C40.6969 9.39379 42.5344 11.775 42.5344 14.5875Z" fill="url(#paint0_linear)"/>
<path d="M45.2062 2.6344V39.7125C45.2062 40.8563 44.7468 41.8781 43.9968 42.6281C43.2656 43.3688 42.2437 43.8281 41.1187 43.8375C38.8312 43.8563 36.9656 41.9344 36.9656 39.6563H15.4875C12.9375 39.6563 10.8656 37.5844 10.8656 35.0344V34.2188H36.9562V27.7031L41.5125 30.4406C41.5968 30.4969 41.7094 30.525 41.8125 30.525C41.9344 30.525 42.0469 30.4875 42.1594 30.4219C42.3469 30.2813 42.4406 30.0469 42.3937 29.8219L40.3219 19.4625C40.3219 19.4625 43.6312 16.875 42.1594 12.7688C41.3906 10.0406 38.8781 8.0344 35.8969 8.0344C34.6125 8.0344 33.4219 8.4094 32.4187 9.0469H22.8937C20.4187 9.0469 18.4219 7.04065 18.4219 4.57502V2.6344H45.2062Z" fill="url(#paint1_linear)"/>
<path d="M45.9563 2.6344V39.7125C45.9563 41.0156 45.45 42.2438 44.5219 43.1531C43.6125 44.0719 42.3938 44.5781 41.0813 44.5781H14.9906C12.3094 44.5781 10.125 42.3938 10.125 39.7125V34.2188C10.125 33.8063 10.4625 33.4688 10.875 33.4688H15.6188C16.0313 33.4688 16.3688 33.8063 16.3688 34.2188C16.3688 34.6313 16.0313 34.9688 15.6188 34.9688H11.625V39.7125C11.625 41.5688 13.1344 43.0781 14.9906 43.0781H37.575C37.5563 43.0594 37.5469 43.0406 37.5281 43.0313C37.5 43.0031 37.4813 42.975 37.4531 42.9469C37.425 42.9188 37.3969 42.8906 37.3781 42.8531C37.35 42.825 37.3313 42.7969 37.3031 42.7688C37.275 42.7406 37.2563 42.7031 37.2281 42.675C37.2094 42.6469 37.1813 42.6188 37.1625 42.5906C37.1344 42.5625 37.1156 42.525 37.0969 42.4969C37.0781 42.4688 37.05 42.4313 37.0313 42.4031C37.0125 42.3656 36.9844 42.3375 36.9656 42.3C36.9469 42.2719 36.9281 42.2344 36.9094 42.2063C36.8906 42.1688 36.8719 42.1406 36.8531 42.1031C36.8344 42.075 36.8156 42.0375 36.7969 42.0094C36.7781 41.9719 36.7594 41.9344 36.7406 41.8969C36.7219 41.8594 36.7031 41.8313 36.6938 41.7938C36.675 41.7563 36.6563 41.7188 36.6469 41.6813C36.6281 41.6438 36.6188 41.6156 36.6 41.5781C36.5813 41.5406 36.5719 41.5031 36.5531 41.4656C36.5438 41.4281 36.525 41.4 36.5156 41.3625C36.4969 41.325 36.4875 41.2875 36.4781 41.2406C36.4688 41.2031 36.45 41.175 36.4406 41.1375C36.4313 41.1 36.4125 41.0531 36.4031 41.0156C36.3938 40.9781 36.3844 40.95 36.375 40.9125C36.3656 40.875 36.3563 40.8281 36.3469 40.7813C36.3375 40.7438 36.3281 40.7156 36.3188 40.6781C36.3094 40.6313 36.3 40.5844 36.2906 40.5469C36.2813 40.5094 36.2813 40.4813 36.2719 40.4438C36.2625 40.3969 36.2625 40.35 36.2531 40.3031C36.2531 40.275 36.2438 40.2375 36.2438 40.2094C36.2344 40.1531 36.2344 40.1063 36.2344 40.05C36.2344 40.0219 36.225 39.9938 36.225 39.9656C36.225 39.8813 36.2156 39.7969 36.2156 39.7219V34.9688H18.4219C18.0094 34.9688 17.6719 34.6313 17.6719 34.2188V16.0219C17.6719 15.6094 18.0094 15.2719 18.4219 15.2719C18.8344 15.2719 19.1719 15.6094 19.1719 16.0219V33.4688H36.9656C37.3781 33.4688 37.7156 33.8063 37.7156 34.2188V39.7125C37.7156 41.5688 39.225 43.0781 41.0813 43.0781C41.9813 43.0781 42.8344 42.7313 43.4625 42.0938C44.1 41.4563 44.4563 40.6125 44.4563 39.7125V3.3844H19.1719V12.8813C19.1719 13.2938 18.8344 13.6313 18.4219 13.6313C18.0094 13.6313 17.6719 13.2938 17.6719 12.8813V2.6344C17.6719 2.2219 18.0094 1.8844 18.4219 1.8844H45.2063C45.6188 1.8844 45.9563 2.2219 45.9563 2.6344ZM29.2031 31.0219C29.2125 31.0313 29.2219 31.0313 29.2219 31.0406C29.6625 31.3313 30.2156 31.35 30.6656 31.0875L35.8969 27.9469L41.1281 31.0875C41.3344 31.2094 41.5688 31.275 41.8125 31.275C42.0844 31.275 42.3469 31.1906 42.5719 31.0406C42.5813 31.0313 42.5906 31.0313 42.5906 31.0219C43.0219 30.7125 43.2281 30.1781 43.125 29.6625L41.1563 19.7719C42.3844 18.6563 43.1625 17.0531 43.1625 15.2625C43.1625 15.0281 43.1531 14.8031 43.125 14.5781C43.0781 14.1656 42.7031 13.875 42.2906 13.9219C41.8781 13.9688 41.5875 14.3438 41.6344 14.7563C41.6531 14.925 41.6625 15.0844 41.6625 15.2625C41.6625 16.6594 41.025 17.9156 40.0313 18.7594C39.9094 18.8063 39.8063 18.8906 39.7313 18.9938C38.9813 19.5281 38.0719 19.8469 37.0781 19.8469C36.4875 19.8469 35.9063 19.7344 35.3531 19.5094C34.9688 19.35 34.5281 19.5375 34.3781 19.9219C34.2281 20.3063 34.4063 20.7469 34.7906 20.8969C35.5219 21.1969 36.3 21.3469 37.0875 21.3469C38.0719 21.3469 38.9906 21.1125 39.8156 20.7L41.5969 29.6156L36.2906 26.4281C36.0563 26.2875 35.7563 26.2875 35.5219 26.4281L30.2156 29.6156L32.2406 19.4813C32.2875 19.2281 32.2031 18.9563 32.0156 18.7781C30.8344 17.6906 30.15 16.1438 30.15 14.5313C30.15 11.3531 32.7375 8.76565 35.9156 8.76565C38.4844 8.76565 40.7625 10.4906 41.4563 12.9563C41.5688 13.3594 41.9813 13.5844 42.3844 13.4719C42.7875 13.3594 43.0125 12.9469 42.9 12.5438C42.0188 9.43127 39.15 7.26565 35.9156 7.26565C31.9125 7.26565 28.65 10.5188 28.65 14.5313C28.65 16.4156 29.3906 18.2344 30.6938 19.575L28.6781 29.6531C28.5656 30.1781 28.7719 30.7125 29.2031 31.0219Z" fill="black"/>
<defs>
<linearGradient id="paint0_linear" x1="29.9" y1="14.6747" x2="42.5317" y2="14.6747" gradientUnits="userSpaceOnUse">
<stop stop-color="#FFEFE6"/>
<stop offset="1" stop-color="#FF5E00"/>
</linearGradient>
<linearGradient id="paint1_linear" x1="28.0362" y1="43.8333" x2="28.0362" y2="2.63277" gradientUnits="userSpaceOnUse">
<stop stop-color="#FFEFE6"/>
<stop offset="1" stop-color="#FF5E00"/>
</linearGradient>
</defs>
</svg>
