<svg width="48" height="48" viewBox="0 0 48 48" fill="none" xmlns="http://www.w3.org/2000/svg">
<path d="M38.3438 26.1094C37.7344 31.2375 33.2813 33.0656 31.3594 33.6187C32.2313 33.6094 33.0751 33.4687 33.6938 33.1125C35.7563 31.9031 33.6938 34.6031 33.6938 34.6031L30.5063 35.8781L27.0751 33.8344H27.3282L27.0751 33C27.0751 33 28.7157 33.4781 30.4782 33.6V14.7563C30.4782 14.7563 30.1876 14.1375 30.4782 13.9781C30.7688 13.8188 38.3438 14.8594 38.3438 14.8594C38.3438 14.8594 39.1219 19.5375 38.3438 26.1094Z" fill="url(#paint0_linear)"/>
<path d="M32.1844 45.2906H28.8751L29.9532 42.2438L27.8157 40.2469L28.847 38.4375L24.1219 36.3V33L30.4876 35.8781L34.8938 33.8906L36.8532 33.0094V35.7469C37.3032 36.0281 37.8376 36.3094 38.4751 36.5813C42.9188 38.5219 45.6563 39.8156 46.1438 45.3H32.1844V45.2906Z" fill="url(#paint1_linear)"/>
<path d="M18.0282 16.7344H1.68756C1.27506 16.7344 1.31256 17.0719 1.31256 17.4844V26.3719H11.8594L16.4532 31.425V26.3719H18.7782V17.4844C18.7782 17.0719 18.4407 16.7344 18.0282 16.7344Z" fill="url(#paint2_linear)"/>
<path d="M46.7906 42.4031C46.0875 40.575 44.5031 38.1 40.9781 36.675C39.6375 36.1313 38.5031 35.5875 37.6219 35.0531V33C37.6219 32.7469 37.4906 32.5125 37.275 32.3719C37.0594 32.2313 36.7875 32.2125 36.5625 32.3156L36.2625 32.4469C36.4688 32.2781 36.6656 32.0906 36.8625 31.8938C38.1938 30.5531 38.9531 28.9406 39.3563 27.8344C39.6281 27.0844 39.7688 26.2969 39.7688 25.4906V14.0344C39.7688 13.7906 39.6469 13.5563 39.4406 13.4156C39.2344 13.275 38.9813 13.2469 38.7469 13.3313C37.3313 13.875 35.9344 13.5281 34.4625 13.1531C32.5031 12.6656 30.2813 12.1125 27.9281 13.7813C27.5906 14.025 27.5063 14.4938 27.75 14.8313C27.9938 15.1688 28.4625 15.2531 28.8 15.0094C30.5906 13.7344 32.2219 14.1469 34.1063 14.6156C35.4375 14.9531 36.8156 15.2906 38.2781 15.0188V25.4813C38.2781 26.1094 38.175 26.7281 37.9594 27.3094C37.2094 29.3813 35.2875 32.85 30.8813 32.85C26.5406 32.85 24.6 29.6344 23.8313 27.7219C23.5781 27.0938 23.4469 26.4188 23.4469 25.725V15.0375C23.4469 13.5375 24.3375 12.45 25.0875 11.8125C26.7563 10.3688 29.3156 9.70314 31.7438 10.0688C32.5875 10.1906 33.3563 10.4156 34.1063 10.6219C35.9156 11.1375 37.7813 11.6625 40.2 10.6594C40.5844 10.5 40.7625 10.0594 40.6031 9.67501C40.4438 9.29063 40.0031 9.11251 39.6188 9.27189C37.6875 10.0781 36.2906 9.67501 34.5094 9.17814C33.7125 8.95314 32.8969 8.71876 31.9594 8.57813C29.1094 8.14688 26.0906 8.95314 24.1031 10.6688C22.7063 11.8688 21.9375 13.4156 21.9375 15.0375V25.3688H16.4344C16.2375 25.3688 16.0406 25.4531 15.9 25.5938C15.7594 25.7344 15.6844 25.9313 15.6844 26.1281L15.7031 29.55L11.9063 25.6125C11.7656 25.4625 11.5688 25.3781 11.3625 25.3781H2.4469V12.2344H20.8688C21.2813 12.2344 21.6188 11.8969 21.6188 11.4844C21.6188 11.0719 21.2813 10.7344 20.8688 10.7344H1.6969C1.2844 10.7344 0.946899 11.0719 0.946899 11.4844V26.1281C0.946899 26.5406 1.2844 26.8781 1.6969 26.8781H11.0438L15.9094 31.9594C16.05 32.1094 16.2469 32.1938 16.4531 32.1938C16.5469 32.1938 16.6406 32.175 16.7344 32.1375C17.0156 32.025 17.2031 31.7438 17.2031 31.4344L17.175 26.8781H22.0219C22.1063 27.3656 22.2281 27.8344 22.4156 28.2938C22.8375 29.3438 23.625 30.8719 24.975 32.1188C25.4344 32.55 25.9313 32.9156 26.4563 33.225L24.45 32.3156C24.2156 32.2125 23.9438 32.2313 23.7375 32.3719C23.5219 32.5125 23.3906 32.7469 23.3906 33V35.5219C22.6594 35.9063 21.8156 36.2906 20.8594 36.6844C17.3344 38.1094 15.7594 40.5844 15.0469 42.4125C14.2781 44.3906 14.3531 46.0313 14.3531 46.1063C14.3719 46.5094 14.7 46.8188 15.1031 46.8188C15.1125 46.8188 15.1313 46.8188 15.1406 46.8188C15.5531 46.8 15.8719 46.4438 15.8531 46.0313C15.8531 45.975 15.6469 40.4063 21.4219 38.0719C22.3125 37.7156 23.1188 37.35 23.8313 36.9844C23.8313 36.9844 23.8313 36.9844 23.8406 36.9844L27.8156 38.775L27.1875 39.8719C27.0188 40.1719 27.075 40.5563 27.3281 40.7906L29.1 42.45L28.1813 45.0375C28.1531 45.1219 28.1344 45.2156 28.1344 45.3H17.5594C17.1469 45.3 16.8094 45.6375 16.8094 46.05C16.8094 46.4625 17.1469 46.8 17.5594 46.8H46.7344C47.1375 46.8 47.4656 46.4906 47.4844 46.0875C47.4844 46.0219 47.5594 44.3813 46.7906 42.4031ZM31.9875 37.6781H31.2563V36.3563L36.1219 34.1625V35.8125L31.9875 37.6781ZM30.8531 34.3594C31.3406 34.3594 31.8094 34.3219 32.2688 34.2563L30.5063 35.0531L28.0125 33.9281C28.8938 34.2094 29.8406 34.3594 30.8531 34.3594ZM24.8906 34.1531L29.7563 36.3469V37.6688H29.025L24.8906 35.8125V34.1531ZM29.2969 39.1781H31.7063L32.2313 40.0969L30.5438 41.6719L30.4969 41.7094L28.7719 40.0875L29.2969 39.1781ZM30.3375 43.4719C30.3656 43.4813 30.3844 43.4813 30.4125 43.4813C30.4219 43.4813 30.4219 43.4813 30.4313 43.4813C30.4594 43.4813 30.4875 43.4813 30.5063 43.4813H30.5156C30.525 43.4813 30.525 43.4813 30.5344 43.4813C30.5625 43.4813 30.5813 43.4813 30.6094 43.4719C30.6188 43.4719 30.6188 43.4719 30.6281 43.4719C30.6563 43.4625 30.6844 43.4625 30.7219 43.4531L31.1156 44.5313H29.9438L30.3188 43.4625C30.3281 43.4719 30.3375 43.4719 30.3375 43.4719ZM32.9344 45.3094C32.9344 45.2156 32.925 45.1219 32.8875 45.0375L31.9313 42.4406L33.6844 40.8C33.9375 40.5656 33.9938 40.1813 33.825 39.8813L33.1969 38.7844L37.1719 36.9938C37.3031 36.9375 37.4156 36.8344 37.4906 36.7219C38.325 37.1719 39.3 37.6313 40.4156 38.0813C42.825 39.0563 44.4844 40.6781 45.3656 42.9C45.75 43.8656 45.8906 44.7375 45.9469 45.3188H32.9344V45.3094ZM18.2344 22.7344C18.2344 23.1469 17.8969 23.4844 17.4844 23.4844H4.5844C4.1719 23.4844 3.8344 23.1469 3.8344 22.7344C3.8344 22.3219 4.1719 21.9844 4.5844 21.9844H17.4844C17.8969 21.9844 18.2344 22.3219 18.2344 22.7344ZM18.2344 18.9844C18.2344 19.3969 17.8969 19.7344 17.4844 19.7344H4.5844C4.1719 19.7344 3.8344 19.3969 3.8344 18.9844C3.8344 18.5719 4.1719 18.2344 4.5844 18.2344H17.4844C17.8969 18.2344 18.2344 18.5719 18.2344 18.9844ZM18.2344 15.2344C18.2344 15.6469 17.8969 15.9844 17.4844 15.9844H4.5844C4.1719 15.9844 3.8344 15.6469 3.8344 15.2344C3.8344 14.8219 4.1719 14.4844 4.5844 14.4844H17.4844C17.8969 14.4844 18.2344 14.8219 18.2344 15.2344Z" fill="black"/>
<path d="M39.075 3.12188V1.75313H40.4437V3.12188H39.075Z" fill="#FFEFE6"/>
<path d="M27.3187 3.12188V1.75313H36.8625V3.12188H27.3187Z" fill="#FFEFE6"/>
<path d="M4.15312 39.4969C3.74062 39.4969 3.40312 39.1594 3.40312 38.7469C3.40312 38.3344 3.74062 37.9969 4.15312 37.9969C5.22187 37.9969 6.10312 37.125 6.10312 36.0469C6.10312 35.6344 6.44062 35.2969 6.85312 35.2969C7.26562 35.2969 7.60312 35.6344 7.60312 36.0469C7.59375 37.95 6.04688 39.4969 4.15312 39.4969ZM12.2812 38.7469C12.2812 38.3344 11.9438 37.9969 11.5312 37.9969C10.4625 37.9969 9.58125 37.125 9.58125 36.0469C9.58125 35.6344 9.24375 35.2969 8.83125 35.2969C8.41875 35.2969 8.08125 35.6344 8.08125 36.0469C8.08125 37.95 9.62813 39.4969 11.5312 39.4969C11.9438 39.4969 12.2812 39.1594 12.2812 38.7469ZM9.59063 43.4344C9.59063 42.3656 10.4625 41.4844 11.5406 41.4844C11.9531 41.4844 12.2906 41.1469 12.2906 40.7344C12.2906 40.3219 11.9531 39.9844 11.5406 39.9844C9.6375 39.9844 8.09063 41.5312 8.09063 43.4344C8.09063 43.8469 8.42813 44.1844 8.84063 44.1844C9.25313 44.1844 9.59063 43.8469 9.59063 43.4344ZM7.59375 43.4344C7.59375 41.5312 6.04688 39.9844 4.14375 39.9844C3.73125 39.9844 3.39375 40.3219 3.39375 40.7344C3.39375 41.1469 3.73125 41.4844 4.14375 41.4844C5.2125 41.4844 6.09375 42.3562 6.09375 43.4344C6.09375 43.8469 6.43125 44.1844 6.84375 44.1844C7.25625 44.1844 7.59375 43.8469 7.59375 43.4344ZM45.2812 12.8625C45.2812 12.3937 44.8969 12.0187 44.4375 12.0187C43.9781 12.0187 43.5938 12.4031 43.5938 12.8625C43.5938 13.3219 43.9781 13.7062 44.4375 13.7062C44.8969 13.7062 45.2812 13.3312 45.2812 12.8625ZM45.2812 15.675C45.2812 15.2062 44.8969 14.8312 44.4375 14.8312C43.9781 14.8312 43.5938 15.2156 43.5938 15.675C43.5938 16.1344 43.9781 16.5187 44.4375 16.5187C44.8969 16.5187 45.2812 16.1437 45.2812 15.675ZM45.2812 18.4875C45.2812 18.0187 44.8969 17.6437 44.4375 17.6437C43.9781 17.6437 43.5938 18.0281 43.5938 18.4875C43.5938 18.9469 43.9781 19.3312 44.4375 19.3312C44.8969 19.3312 45.2812 18.9562 45.2812 18.4875ZM45.1875 9.96563V1.75313C45.1875 1.34063 44.85 1.00313 44.4375 1.00313C44.025 1.00313 43.6875 1.34063 43.6875 1.75313V9.96563C43.6875 10.3781 44.025 10.7156 44.4375 10.7156C44.85 10.7156 45.1875 10.3781 45.1875 9.96563ZM45.1875 29.4562V21.2437C45.1875 20.8312 44.85 20.4937 44.4375 20.4937C44.025 20.4937 43.6875 20.8312 43.6875 21.2437V29.4562C43.6875 29.8687 44.025 30.2062 44.4375 30.2062C44.85 30.2062 45.1875 29.8687 45.1875 29.4562ZM23.8781 6.35625C23.8781 5.94375 23.5406 5.60625 23.1281 5.60625H14.7C14.2875 5.60625 13.95 5.94375 13.95 6.35625C13.95 6.76875 14.2875 7.10625 14.7 7.10625H23.1281C23.5406 7.10625 23.8781 6.76875 23.8781 6.35625ZM16.9125 3.35625C16.9125 2.94375 16.575 2.60625 16.1625 2.60625H10.5938C10.1812 2.60625 9.84375 2.94375 9.84375 3.35625C9.84375 3.76875 10.1812 4.10625 10.5938 4.10625H16.1719C16.5844 4.10625 16.9125 3.77813 16.9125 3.35625ZM4.95 6.35625C4.95 5.94375 4.6125 5.60625 4.2 5.60625H1.96875C1.55625 5.60625 1.21875 5.94375 1.21875 6.35625C1.21875 6.76875 1.55625 7.10625 1.96875 7.10625H4.2C4.6125 7.10625 4.95 6.76875 4.95 6.35625ZM3.83438 7.47188V5.24063C3.83438 4.82813 3.49688 4.49063 3.08438 4.49063C2.67188 4.49063 2.33437 4.82813 2.33437 5.24063V7.47188C2.33437 7.88438 2.67188 8.22188 3.08438 8.22188C3.49688 8.22188 3.83438 7.88438 3.83438 7.47188Z" fill="black"/>
<defs>
<linearGradient id="paint0_linear" x1="38.9288" y1="24.9116" x2="27.1176" y2="24.9116" gradientUnits="userSpaceOnUse">
<stop stop-color="#FFEFE6"/>
<stop offset="1" stop-color="#FF5E00"/>
</linearGradient>
<linearGradient id="paint1_linear" x1="35.1498" y1="47.0374" x2="35.1498" y2="33.6779" gradientUnits="userSpaceOnUse">
<stop stop-color="#FFEFE6"/>
<stop offset="1" stop-color="#FF5E00"/>
</linearGradient>
<linearGradient id="paint2_linear" x1="10.0441" y1="31.4365" x2="10.0441" y2="16.7389" gradientUnits="userSpaceOnUse">
<stop stop-color="#FFEFE6"/>
<stop offset="1" stop-color="#FF5E00"/>
</linearGradient>
</defs>
</svg>
