<svg width="48" height="48" viewBox="0 0 48 48" fill="none" xmlns="http://www.w3.org/2000/svg">
<path d="M31.7062 32.1937L31.0781 34.6969L36.4968 40.1156C35.3812 40.725 34.0968 41.0812 32.7281 41.0812C28.3968 41.0812 24.8625 37.5562 24.8625 33.2156C24.8625 33.2062 24.8625 33.2062 24.8625 33.1969C24.8625 32.4187 25.575 31.8562 26.3437 31.9875C27.3 32.1562 28.4062 31.575 28.5281 29.2406C28.7156 25.6687 32.7281 25.35 32.7281 25.35C37.0593 25.35 40.5937 28.875 40.5937 33.2156C40.5937 34.5844 40.2468 35.8687 39.6281 36.9844L34.2093 31.5656L31.7062 32.1937ZM25.4062 27C24.6468 26.2406 23.4281 26.1937 22.6218 26.8969L10.8562 37.0687C9.77809 37.9969 9.93746 39.7219 11.1656 40.425C12.9281 41.4375 15.4781 42.0562 17.7281 39.3656C21.6562 34.6781 23.1562 33.1125 24.4125 30.1875C25.6687 27.2625 25.6687 27.2625 25.6687 27.2625L25.4062 27ZM39.3468 11.2594L38.85 10.9406L33.9562 15.7594L35.9906 17.9719L39.3468 11.2594Z" fill="url(#paint0_linear)"/>
<path d="M6.65625 15.75C6.65625 14.3062 7.02187 12.8812 7.70625 11.625C7.81875 11.4187 8.025 11.2781 8.25937 11.2406C8.49375 11.2031 8.72813 11.2875 8.89688 11.4562L14.0156 16.575L15.675 16.1625L16.0875 14.5031L10.9688 9.38436C10.8 9.21561 10.725 8.98124 10.7531 8.74686C10.7906 8.51249 10.9313 8.30624 11.1375 8.19374C12.3938 7.49999 13.8281 7.14374 15.2625 7.14374C20.0063 7.14374 23.8781 11.0062 23.8781 15.7594C23.8781 16.3406 23.8125 16.9219 23.6906 17.5219L25.0312 18.8625C25.3219 19.1531 25.3219 19.6312 25.0312 19.9219C24.7406 20.2125 24.2625 20.2125 23.9719 19.9219L22.3312 18.2812C22.1437 18.0937 22.0688 17.8219 22.1344 17.5594C22.2938 16.95 22.3781 16.3406 22.3781 15.7594C22.3781 11.8406 19.1906 8.64374 15.2625 8.64374C14.4188 8.64374 13.575 8.79374 12.7875 9.08436L17.4469 13.7437C17.6344 13.9312 17.7094 14.2031 17.6437 14.4562L17.0156 16.9594C16.95 17.2312 16.7344 17.4375 16.4719 17.5031L13.9688 18.1312C13.7156 18.1969 13.4437 18.1219 13.2562 17.9344L8.59687 13.275C8.30625 14.0625 8.15625 14.9062 8.15625 15.75C8.15625 19.6687 11.3437 22.8656 15.2719 22.8656C15.6844 22.8656 16.0219 23.2031 16.0219 23.6156C16.0219 24.0281 15.6844 24.3656 15.2719 24.3656C10.5187 24.3656 6.65625 20.5031 6.65625 15.75ZM32.7375 24.6094C32.325 24.6094 31.9875 24.9469 31.9875 25.3594C31.9875 25.7719 32.325 26.1094 32.7375 26.1094C36.6563 26.1094 39.8531 29.2969 39.8531 33.225C39.8531 34.0687 39.7031 34.9125 39.4125 35.7L34.7531 31.0406C34.5656 30.8531 34.2938 30.7781 34.0406 30.8437L31.5375 31.4719C31.2656 31.5375 31.0594 31.7531 30.9938 32.0156L30.3656 34.5187C30.3 34.7719 30.375 35.0437 30.5625 35.2312L35.2219 39.8906C34.4344 40.1812 33.5906 40.3312 32.7469 40.3312C28.8281 40.3312 25.6312 37.1437 25.6312 33.2156C25.6312 32.8031 25.2937 32.4656 24.8812 32.4656C24.4688 32.4656 24.1312 32.8031 24.1312 33.2156C24.1312 37.9594 27.9937 41.8312 32.7469 41.8312C34.1906 41.8312 35.6156 41.4656 36.8719 40.7812C37.0781 40.6687 37.2188 40.4625 37.2562 40.2281C37.2937 39.9937 37.2094 39.7594 37.0406 39.5906L31.9219 34.4719L32.3344 32.8125L33.9938 32.4L39.1125 37.5187C39.2812 37.6875 39.5156 37.7625 39.75 37.7344C39.9844 37.6969 40.1906 37.5562 40.3031 37.35C40.9969 36.0937 41.3531 34.6594 41.3531 33.225C41.3438 28.4719 37.4813 24.6094 32.7375 24.6094ZM26.3906 27.4969C26.475 27.225 26.4094 26.9344 26.2031 26.7375L25.125 25.65L27.4219 23.3531L30.15 26.0812C30.3 26.2312 30.4875 26.2969 30.6844 26.2969C30.8812 26.2969 31.0688 26.2219 31.2188 26.0812C31.5094 25.7906 31.5094 25.3125 31.2188 25.0219L28.4906 22.2937L33.975 16.8094L35.5406 18.3656C35.7094 18.5344 35.9531 18.6094 36.1875 18.5719C36.4219 18.5344 36.6281 18.3844 36.7406 18.1687L40.0312 11.5875C40.1719 11.2969 40.1156 10.95 39.8906 10.725L37.7719 8.60624C37.5469 8.38124 37.1906 8.32499 36.9094 8.46561L30.3187 11.7562C30.1031 11.8594 29.9531 12.0656 29.9156 12.3094C29.8781 12.5437 29.9531 12.7875 30.1219 12.9562L31.6875 14.5219L22.8563 23.3531L21.75 22.2656C21.5437 22.0594 21.2531 21.9937 20.9813 22.0875L20.4656 22.2656C19.3781 22.6312 17.6156 23.5219 15.8531 24.6C15.6563 24.7219 15.525 24.9187 15.4969 25.1531C15.4688 25.3875 15.5531 25.6125 15.7125 25.7719L21.4594 31.5187C21.75 31.8094 22.2281 31.8094 22.5187 31.5187C22.8094 31.2281 22.8094 30.75 22.5187 30.4594L17.4562 25.3969C19.0594 24.4687 20.2875 23.9156 20.9437 23.6906L21.0187 23.6625L22.3031 24.9562C22.4437 25.0969 22.6313 25.1812 22.8375 25.1812C23.0344 25.1812 23.2313 25.1062 23.3719 24.9656L33.2625 15.075C33.4031 14.9344 33.4781 14.7469 33.4781 14.5406C33.4781 14.3437 33.4031 14.1469 33.2625 14.0062L31.9031 12.6469L37.0875 10.0594L38.4469 11.4187L35.8594 16.5937L34.5 15.2344C34.2094 14.9437 33.7313 14.9437 33.4406 15.2344L23.5312 25.125C23.3906 25.2656 23.3156 25.4531 23.3156 25.6594C23.3156 25.8656 23.3906 26.0531 23.5312 26.1937L24.825 27.4875L24.8063 27.5625C24.1313 29.5781 21.1031 34.9875 17.4656 38.6156C16.4719 39.6187 15.3844 40.1812 14.2313 40.2844H14.2219C13.9781 40.3125 13.7062 40.3125 13.3969 40.2844C13.0125 40.2469 12.6281 40.1719 12.2438 40.0406C10.8469 39.5719 9.88125 38.625 9.87188 38.6156C9.8625 38.6062 9.84375 38.5969 9.83438 38.5781C9.77813 38.5125 9.68437 38.4094 9.57187 38.2594C9.5625 38.25 9.5625 38.2406 9.55313 38.2406C9.45938 38.1281 9.34688 37.9781 9.225 37.8C8.75625 37.0969 8.19375 35.9812 8.19375 34.6875C8.19375 33.375 8.75625 32.1469 9.87188 31.0312C11.6344 29.2687 13.7062 27.7687 15.1312 26.8312C15.4781 26.6062 15.5719 26.1375 15.3469 25.7906C15.1219 25.4437 14.6531 25.35 14.3063 25.575C12.825 26.5594 10.6594 28.1156 8.8125 29.9719C7.40625 31.3781 6.69375 32.9625 6.69375 34.6875C6.69375 36.3562 7.39687 37.7531 7.9875 38.6437C8.1375 38.8594 8.26875 39.0375 8.39062 39.1875C8.54062 39.3844 8.67187 39.5344 8.7375 39.6L8.74688 39.6187C8.78438 39.675 8.84063 39.7219 8.8875 39.7594C9.1875 40.0406 10.2469 40.9687 11.7656 41.475C12.2531 41.6437 12.7594 41.7469 13.2562 41.7937C13.4531 41.8125 13.65 41.8219 13.8281 41.8219C14.0156 41.8219 14.1937 41.8125 14.3625 41.7937C15.8719 41.6531 17.2688 40.95 18.5156 39.6937C22.3219 35.8969 25.5 30.1875 26.2219 28.05L26.3906 27.4969Z" fill="black"/>
<path d="M27.0094 2.47501C27.0094 4.37814 25.4625 5.92501 23.5594 5.92501C23.1469 5.92501 22.8094 5.58751 22.8094 5.17501C22.8094 4.76251 23.1469 4.42501 23.5594 4.42501C24.6281 4.42501 25.5094 3.55314 25.5094 2.47501C25.5094 2.06251 25.8469 1.72501 26.2594 1.72501C26.6719 1.72501 27.0094 2.06251 27.0094 2.47501ZM30.9469 4.41564C29.8781 4.41564 28.9969 3.54376 28.9969 2.46564C28.9969 2.05314 28.6594 1.71564 28.2469 1.71564C27.8344 1.71564 27.4969 2.05314 27.4969 2.46564C27.4969 4.36876 29.0438 5.91564 30.9469 5.91564C31.3594 5.91564 31.6969 5.57814 31.6969 5.16564C31.6969 4.75314 31.3594 4.41564 30.9469 4.41564ZM30.9469 6.41251C29.0438 6.41251 27.4969 7.95939 27.4969 9.86251C27.4969 10.275 27.8344 10.6125 28.2469 10.6125C28.6594 10.6125 28.9969 10.275 28.9969 9.86251C28.9969 8.79376 29.8688 7.91251 30.9469 7.91251C31.3594 7.91251 31.6969 7.57501 31.6969 7.16251C31.6969 6.75001 31.3594 6.41251 30.9469 6.41251ZM23.5687 6.41251C23.1562 6.41251 22.8187 6.75001 22.8187 7.16251C22.8187 7.57501 23.1562 7.91251 23.5687 7.91251C24.6375 7.91251 25.5188 8.78439 25.5188 9.86251C25.5188 10.275 25.8563 10.6125 26.2688 10.6125C26.6813 10.6125 27.0188 10.275 27.0188 9.86251C27.0094 7.95939 25.4625 6.41251 23.5687 6.41251ZM44.5875 19.125H43.1062V17.6438C43.1062 17.2313 42.7687 16.8938 42.3562 16.8938C41.9437 16.8938 41.6062 17.2313 41.6062 17.6438V19.125H40.125C39.7125 19.125 39.375 19.4625 39.375 19.875C39.375 20.2875 39.7125 20.625 40.125 20.625H41.6062V22.1063C41.6062 22.5188 41.9437 22.8563 42.3562 22.8563C42.7687 22.8563 43.1062 22.5188 43.1062 22.1063V20.625H44.5875C45 20.625 45.3375 20.2875 45.3375 19.875C45.3375 19.4625 45.0094 19.125 44.5875 19.125ZM42.9844 40.9875H42.6188V40.6219C42.6188 40.2094 42.2812 39.8719 41.8688 39.8719C41.4562 39.8719 41.1188 40.2094 41.1188 40.6219V40.9875H40.7531C40.3406 40.9875 40.0031 41.325 40.0031 41.7375C40.0031 42.15 40.3406 42.4875 40.7531 42.4875H41.1188V42.8531C41.1188 43.2656 41.4562 43.6031 41.8688 43.6031C42.2812 43.6031 42.6188 43.2656 42.6188 42.8531V42.4875H42.9844C43.3969 42.4875 43.7344 42.15 43.7344 41.7375C43.7344 41.325 43.3969 40.9875 42.9844 40.9875ZM5.78438 24.3375H5.41875V23.9719C5.41875 23.5594 5.08125 23.2219 4.66875 23.2219C4.25625 23.2219 3.91875 23.5594 3.91875 23.9719V24.3375H3.5625C3.15 24.3375 2.8125 24.675 2.8125 25.0875C2.8125 25.5 3.15 25.8375 3.5625 25.8375H3.92813V26.2031C3.92813 26.6156 4.26563 26.9531 4.67813 26.9531C5.09063 26.9531 5.42813 26.6156 5.42813 26.2031V25.8375H5.79375C6.20625 25.8375 6.54375 25.5 6.54375 25.0875C6.54375 24.675 6.20625 24.3375 5.78438 24.3375Z" fill="black"/>
<path d="M5.05308 5.79376H1.80933V2.55001H5.06245V5.79376H5.05308ZM10.2375 2.55001H6.98433V5.80314H10.2375V2.55001ZM44.7375 14.9625H46.7812V9.62813H44.7375V14.9625ZM34.4062 2.41876V4.46251H39.7406V2.41876H34.4062Z" fill="#FFEFE6"/>
<path d="M46.7812 2.41876V2.58751V4.46251V7.92189H44.7375V4.46251H41.4469V2.41876H46.7812ZM2.00623 44.5406V45.75H24.2344V44.5406H2.00623Z" fill="#FF5E00"/>
<defs>
<linearGradient id="paint0_linear" x1="10.1411" y1="26.1199" x2="40.5945" y2="26.1199" gradientUnits="userSpaceOnUse">
<stop stop-color="#FFEFE6"/>
<stop offset="1" stop-color="#FF5E00"/>
</linearGradient>
</defs>
</svg>
