<svg width="48" height="48" viewBox="0 0 48 48" fill="none" xmlns="http://www.w3.org/2000/svg">
<path d="M24.9 43.7344H20.1562C19.3219 43.7344 18.6469 43.0594 18.6469 42.225V40.9781C18.6469 39 20.25 37.3969 22.2281 37.3969H26.8968C27.7312 37.3969 28.4062 36.7219 28.4062 35.8875V23.5031C28.4062 20.1844 31.0969 17.4937 34.4156 17.4937H38.9625C39.7969 17.4937 40.4719 18.1687 40.4719 19.0031V27.45L40.4437 27.4781L37.0969 30.825L26.175 41.7375C25.5937 42.3187 25.1906 42.975 24.9 43.7344ZM28.4812 43.7344H38.9437C39.7781 43.7344 40.4531 43.0594 40.4531 42.225V31.7531L28.4812 43.7344Z" fill="url(#paint0_linear)"/>
<path d="M33.3281 30.4406H20.2781C19.8187 30.4406 19.4437 30.0656 19.4437 29.6062C19.4437 29.1469 19.8187 28.7719 20.2781 28.7719H33.3281C33.7874 28.7719 34.1624 29.1469 34.1624 29.6062C34.1624 30.0656 33.7781 30.4406 33.3281 30.4406ZM35.2312 23.55C35.2312 23.0906 34.8562 22.7156 34.3968 22.7156H20.2781C19.8187 22.7156 19.4437 23.0906 19.4437 23.55C19.4437 24.0094 19.8187 24.3844 20.2781 24.3844H34.4062C34.8656 24.3844 35.2312 24.0094 35.2312 23.55ZM20.2781 34.8281C19.8187 34.8281 19.4437 35.2031 19.4437 35.6625C19.4437 36.1219 19.8187 36.4969 20.2781 36.4969H27.2718C27.7312 36.4969 28.1062 36.1219 28.1062 35.6625C28.1062 35.2031 27.7312 34.8281 27.2718 34.8281H20.2781ZM46.9968 26.3906L30.4875 42.9H39.6281V35.0437C39.6281 34.5844 40.0031 34.2094 40.4624 34.2094C40.9218 34.2094 41.2968 34.5844 41.2968 35.0437V43.725C41.2968 44.1844 40.9218 44.5594 40.4624 44.5594H28.8187C27.7312 45.5625 26.2968 46.2 24.5531 46.4437C24.5156 46.4531 24.4781 46.4531 24.4406 46.4531C24.225 46.4531 24.0093 46.3687 23.8499 46.2094C23.6624 46.0219 23.5781 45.7687 23.6156 45.5062C23.6624 45.1781 23.7187 44.8594 23.7843 44.5594H14.2218C13.7625 44.5594 13.3875 44.1844 13.3875 43.725V9.4125C13.3875 8.95313 13.7625 8.57812 14.2218 8.57812H31.3781C32.5875 8.57812 33.6937 9.1125 34.4156 10.0406C34.7906 10.5281 38.5875 14.4094 41.0437 16.9031C41.2781 17.1375 41.3437 17.4937 41.2218 17.8031C41.0906 18.1125 40.7906 18.3094 40.4531 18.3094H20.2781C19.8187 18.3094 19.4437 17.9344 19.4437 17.475C19.4437 17.0156 19.8187 16.6406 20.2781 16.6406H33.5718V11.5781C33.3468 11.3344 33.1781 11.1469 33.1031 11.0531C32.6906 10.5188 32.0718 10.2281 31.3687 10.2281H15.0562V42.8812H24.3562C24.6749 42.2156 25.0781 41.6438 25.5937 41.1281L36.5062 30.2156C36.8343 29.8875 37.3593 29.8875 37.6781 30.2156C38.0062 30.5437 38.0062 31.0687 37.6781 31.3875L26.7656 42.3281C26.1656 42.9281 25.7718 43.6219 25.5093 44.55C26.4562 44.2688 27.225 43.8187 27.8531 43.2L45.7687 25.2844C45.7968 25.1625 45.8062 24.8344 45.5156 24.5437C45.3281 24.3562 44.8781 24.2719 44.7468 24.3469L41.3062 27.7875C41.2781 27.8156 41.25 27.8344 41.2218 27.8625C41.0906 28.1438 40.8 28.3313 40.4718 28.3313C40.0125 28.3313 39.6374 27.9562 39.6374 27.4969V20.6531C39.6374 20.1938 40.0125 19.8187 40.4718 19.8187C40.9312 19.8187 41.3062 20.1938 41.3062 20.6531V25.4437L43.5843 23.1656C43.9124 22.8375 44.3812 22.6594 44.9156 22.6594C44.9249 22.6594 44.9249 22.6594 44.9343 22.6594C45.5999 22.6594 46.2843 22.9406 46.7156 23.3812C47.6156 24.3281 47.6156 25.7719 46.9968 26.3906ZM35.2312 16.6688H38.4656C37.5281 15.7125 36.2812 14.4469 35.2312 13.35V16.6688Z" fill="black"/>
<path d="M6.00932 19.6313V23.3156H2.51245V19.6313H6.00932ZM6.00932 38.0719V34.3875H2.51245V38.0719H6.00932Z" fill="#FF5E00"/>
<path d="M5.94365 24.7125V28.0688H2.5874V24.7125H5.94365ZM5.94365 32.9813V29.625H2.5874V32.9813H5.94365Z" fill="#FFEFE6"/>
<path d="M23.9344 4.05938C23.9344 4.47188 23.5969 4.80938 23.1844 4.80938H19.1531C18.7406 4.80938 18.4031 4.47188 18.4031 4.05938C18.4031 3.64688 18.7406 3.30938 19.1531 3.30938H23.1844C23.5969 3.30938 23.9344 3.64688 23.9344 4.05938ZM11.0906 14.1656H4.17188C3.75937 14.1656 3.42188 14.5031 3.42188 14.9156C3.42188 15.3281 3.75937 15.6656 4.17188 15.6656H11.0906C11.5031 15.6656 11.8406 15.3281 11.8406 14.9156C11.8406 14.5031 11.5031 14.1656 11.0906 14.1656ZM7.36875 42.9844H5.8875V41.5031C5.8875 41.0906 5.55 40.7531 5.1375 40.7531C4.725 40.7531 4.3875 41.0906 4.3875 41.5031V42.9844H2.90625C2.49375 42.9844 2.15625 43.3219 2.15625 43.7344C2.15625 44.1469 2.49375 44.4844 2.90625 44.4844H4.3875V45.9656C4.3875 46.3781 4.725 46.7156 5.1375 46.7156C5.55 46.7156 5.8875 46.3781 5.8875 45.9656V44.4844H7.36875C7.78125 44.4844 8.11875 44.1469 8.11875 43.7344C8.11875 43.3219 7.78125 42.9844 7.36875 42.9844ZM43.05 12.6563C43.4625 12.6563 43.8 12.3188 43.8 11.9063C43.8 10.8375 44.6719 9.95626 45.75 9.95626C46.1625 9.95626 46.5 9.61876 46.5 9.20626C46.5 8.79376 46.1625 8.45626 45.75 8.45626C43.8469 8.45626 42.3 10.0031 42.3 11.9063C42.3 12.3188 42.6375 12.6563 43.05 12.6563ZM38.3625 9.95626C39.4313 9.95626 40.3125 10.8281 40.3125 11.9063C40.3125 12.3188 40.65 12.6563 41.0625 12.6563C41.475 12.6563 41.8125 12.3188 41.8125 11.9063C41.8125 10.0031 40.2656 8.45626 38.3625 8.45626C37.95 8.45626 37.6125 8.79376 37.6125 9.20626C37.6125 9.61876 37.95 9.95626 38.3625 9.95626ZM38.3625 7.96876C40.2656 7.96876 41.8125 6.42188 41.8125 4.51876C41.8125 4.10626 41.475 3.76876 41.0625 3.76876C40.65 3.76876 40.3125 4.10626 40.3125 4.51876C40.3125 5.58751 39.4406 6.46876 38.3625 6.46876C37.95 6.46876 37.6125 6.80626 37.6125 7.21876C37.6125 7.63126 37.95 7.96876 38.3625 7.96876ZM45.75 7.96876C46.1625 7.96876 46.5 7.63126 46.5 7.21876C46.5 6.80626 46.1625 6.46876 45.75 6.46876C44.6813 6.46876 43.8 5.59688 43.8 4.51876C43.8 4.10626 43.4625 3.76876 43.05 3.76876C42.6375 3.76876 42.3 4.10626 42.3 4.51876C42.3 6.42188 43.8469 7.96876 45.75 7.96876ZM2.91563 4.05938C2.91563 3.54376 3.32812 3.13126 3.84375 3.13126C4.35938 3.13126 4.77188 3.54376 4.77188 4.05938C4.77188 4.57501 4.35938 4.98751 3.84375 4.98751C3.32812 4.98751 2.91563 4.57501 2.91563 4.05938ZM8.1 4.05938C8.1 3.54376 8.5125 3.13126 9.02813 3.13126C9.54375 3.13126 9.95625 3.54376 9.95625 4.05938C9.95625 4.57501 9.54375 4.98751 9.02813 4.98751C8.5125 4.98751 8.1 4.57501 8.1 4.05938ZM15.15 4.05938C15.15 4.57501 14.7375 4.98751 14.2219 4.98751C13.7062 4.98751 13.2938 4.57501 13.2938 4.05938C13.2938 3.54376 13.7062 3.13126 14.2219 3.13126C14.7375 3.13126 15.15 3.55313 15.15 4.05938ZM46.5938 19.8281H37.9031C37.4437 19.8281 37.0687 20.2031 37.0687 20.6625C37.0687 21.1219 37.4437 21.4969 37.9031 21.4969H46.5938C47.0531 21.4969 47.4281 21.1219 47.4281 20.6625C47.4281 20.2031 47.0531 19.8281 46.5938 19.8281Z" fill="black"/>
<defs>
<linearGradient id="paint0_linear" x1="18.6399" y1="30.615" x2="40.4602" y2="30.615" gradientUnits="userSpaceOnUse">
<stop stop-color="#FFEFE6"/>
<stop offset="1" stop-color="#FF5E00"/>
</linearGradient>
</defs>
</svg>
