<svg width="48" height="48" viewBox="0 0 48 48" fill="none" xmlns="http://www.w3.org/2000/svg">
<path d="M46.4718 16.2563V45.5063H26.2218H5.97182C4.72494 45.5063 3.59994 45 2.79369 44.1844C1.98744 43.3781 1.48119 42.2719 1.47182 41.0438C1.45307 38.55 3.55307 36.5063 6.03745 36.5063V13.05C6.03745 10.2656 8.29682 8.00626 11.0812 8.00626H11.9718V36.5063H34.5937C37.2937 36.5063 39.4781 34.3219 39.4781 31.6219V21.1406C39.4781 18.4406 41.6624 16.2563 44.3624 16.2563H46.4718Z" fill="url(#paint0_linear)"/>
<path d="M24 45.5062H46.425V27.7031C46.425 25.3313 43.5 24.1969 41.8969 25.95L24 45.5062ZM42.6 41.0062H33.6L42.6 32.0062V41.0062Z" fill="url(#paint1_linear)"/>
<path d="M47.2219 16.2563V45.5063C47.2219 45.9188 46.8844 46.2563 46.4719 46.2563H5.97192C4.56567 46.2563 3.24379 45.7125 2.25942 44.7188C1.26567 43.7344 0.721916 42.4219 0.721916 41.0063V12.5063C0.721916 9.60939 3.07504 7.25626 5.97192 7.25626H11.9719C12.3844 7.25626 12.7219 7.59376 12.7219 8.00626V13.1906C12.7219 13.6031 12.3844 13.9406 11.9719 13.9406C11.5594 13.9406 11.2219 13.6031 11.2219 13.1906V8.75626H5.97192C3.90004 8.75626 2.22192 10.4344 2.22192 12.5063V37.3313C2.23129 37.3219 2.23129 37.3219 2.24067 37.3125C2.26879 37.2844 2.30629 37.2469 2.33442 37.2188C2.36254 37.1906 2.39067 37.1625 2.41879 37.1344C2.44692 37.1063 2.48442 37.0781 2.52192 37.05C2.55004 37.0219 2.57817 36.9938 2.61567 36.975C2.65317 36.9469 2.68129 36.9188 2.71879 36.8906C2.74692 36.8625 2.78442 36.8438 2.81254 36.8156C2.85004 36.7875 2.88754 36.7594 2.92504 36.7406C2.95317 36.7125 2.99067 36.6938 3.02817 36.675C3.06567 36.6469 3.10317 36.6281 3.14067 36.6C3.17817 36.5813 3.20629 36.5531 3.24379 36.5344C3.28129 36.5156 3.31879 36.4875 3.35629 36.4688C3.39379 36.45 3.42192 36.4313 3.45942 36.4031C3.49692 36.3844 3.53442 36.3656 3.58129 36.3375C3.61879 36.3188 3.65629 36.3 3.69379 36.2813C3.73129 36.2625 3.77817 36.2438 3.81567 36.225C3.85317 36.2063 3.89067 36.1875 3.92817 36.1781C3.96567 36.1594 4.01254 36.1406 4.05942 36.1313C4.09692 36.1125 4.13442 36.1031 4.17192 36.0844C4.21879 36.0656 4.25629 36.0563 4.30317 36.0375C4.34067 36.0281 4.37817 36.0094 4.41567 36C4.46254 35.9906 4.50942 35.9719 4.54692 35.9625C4.58442 35.9531 4.62192 35.9438 4.65942 35.9344C4.70629 35.925 4.75317 35.9156 4.80004 35.8969C4.83754 35.8875 4.87504 35.8781 4.91254 35.8688C4.95942 35.8594 5.00629 35.85 5.06254 35.8406C5.10004 35.8313 5.13754 35.8219 5.17504 35.8219C5.23129 35.8125 5.27817 35.8125 5.33442 35.8031C5.37192 35.8031 5.40942 35.7938 5.43754 35.7938C5.49379 35.7844 5.55942 35.7844 5.61567 35.7844C5.64379 35.7844 5.67192 35.775 5.70942 35.775C5.80317 35.775 5.88754 35.7656 5.98129 35.7656H11.2313V16.2656C11.2313 15.8531 11.5688 15.5156 11.9813 15.5156H31.8563C32.2688 15.5156 32.6063 15.8531 32.6063 16.2656C32.6063 16.6781 32.2688 17.0156 31.8563 17.0156H12.7313V36.5156C12.7313 36.9281 12.3938 37.2656 11.9813 37.2656H5.98129C3.90942 37.2656 2.23129 38.9438 2.23129 41.0156C2.23129 42.0188 2.62504 42.9656 3.32817 43.6594C4.03129 44.3719 4.97817 44.7656 5.98129 44.7656H23.6813L43.125 23.4938C43.4063 23.1844 43.875 23.1656 44.1844 23.4469C44.4938 23.7281 44.5125 24.1969 44.2313 24.5063L25.6969 44.7563H45.7125V17.0063H39.9844L28.5469 28.4438C28.3688 28.6219 28.1813 28.7906 27.9844 28.95H29.8594C30.2719 28.95 30.6094 29.2875 30.6094 29.7C30.6094 30.1125 30.2719 30.45 29.8594 30.45H16.9594C16.5469 30.45 16.2094 30.1125 16.2094 29.7C16.2094 29.2875 16.5469 28.95 16.9594 28.95H23.25C23.5594 27.3563 24.15 26.1938 25.1157 25.2281L36.0282 14.3156C36.3563 13.9875 36.8813 13.9875 37.2 14.3156C37.5282 14.6438 37.5282 15.1688 37.2 15.4875L26.2875 26.4C25.6875 27 25.2938 27.6938 25.0313 28.6219C25.9782 28.3406 26.7469 27.8906 27.375 27.2719L45.2813 9.35626C45.3094 9.23439 45.3188 8.90626 45.0282 8.61564C44.8407 8.41876 44.3907 8.34376 44.2594 8.41876L40.8188 11.8594C40.4907 12.1875 39.9657 12.1875 39.6469 11.8594C39.3282 11.5313 39.3188 11.0063 39.6469 10.6875L43.0969 7.23751C43.425 6.90939 43.8938 6.73126 44.4282 6.73126C44.4375 6.73126 44.4375 6.73126 44.4469 6.73126C45.1125 6.73126 45.7969 7.01251 46.2282 7.45314C47.1469 8.40001 47.1469 9.84376 46.5282 10.4625L41.4844 15.5063H46.4625C46.8844 15.5063 47.2219 15.8438 47.2219 16.2563ZM17.8032 34.0313C17.8032 33.5625 17.4188 33.1875 16.9594 33.1875C16.5 33.1875 16.1157 33.5719 16.1157 34.0313C16.1157 34.4906 16.5 34.875 16.9594 34.875C17.4188 34.875 17.8032 34.5 17.8032 34.0313ZM42.8813 31.3125C43.1625 31.425 43.3407 31.7063 43.3407 32.0063V41.0063C43.3407 41.4188 43.0032 41.7563 42.5907 41.7563H33.5907C33.2907 41.7563 33.0094 41.5781 32.8969 41.2969C32.7844 41.0156 32.8407 40.6969 33.0563 40.4813L42.0563 31.4813C42.2813 31.2656 42.6 31.2 42.8813 31.3125ZM41.85 33.825L35.4188 40.2563H41.85V33.825Z" fill="black"/>
<path d="M15.8344 8.80312V13.2656C15.8344 13.6781 15.4969 14.0156 15.0844 14.0156C14.6719 14.0156 14.3344 13.6781 14.3344 13.2656V8.80312C14.3344 8.39062 14.6719 8.05312 15.0844 8.05312C15.4969 8.05312 15.8344 8.39062 15.8344 8.80312ZM33.1312 8.57812H20.2406C19.8281 8.57812 19.4906 8.91562 19.4906 9.32812C19.4906 9.74062 19.8281 10.0781 20.2406 10.0781H33.1406C33.5531 10.0781 33.8906 9.74062 33.8906 9.32812C33.8906 8.91562 33.5437 8.57812 33.1312 8.57812ZM36.8812 5.8125C36.8812 6.28125 36.4968 6.65625 36.0375 6.65625C35.5781 6.65625 35.1937 6.27187 35.1937 5.8125C35.1937 5.35312 35.5781 4.96875 36.0375 4.96875C36.4968 4.96875 36.8812 5.34375 36.8812 5.8125ZM42.5062 5.8125C42.5062 6.28125 42.1218 6.65625 41.6625 6.65625C41.2031 6.65625 40.8187 6.27187 40.8187 5.8125C40.8187 5.35312 41.2031 4.96875 41.6625 4.96875C42.1218 4.96875 42.5062 5.34375 42.5062 5.8125ZM32.5687 12.9375C32.5687 13.4062 32.1844 13.7812 31.725 13.7812C31.2656 13.7812 30.8812 13.3969 30.8812 12.9375C30.8812 12.4781 31.2656 12.0937 31.725 12.0937C32.1844 12.0937 32.5687 12.4688 32.5687 12.9375ZM3.50623 4.12499C3.50623 4.59374 3.12185 4.96875 2.66248 4.96875C2.2031 4.96875 1.81873 4.58437 1.81873 4.12499C1.81873 3.66562 2.2031 3.28124 2.66248 3.28124C3.12185 3.28124 3.50623 3.65624 3.50623 4.12499ZM18.4031 3.51562H18.0375V3.14999C18.0375 2.73749 17.7 2.39999 17.2875 2.39999C16.875 2.39999 16.5375 2.73749 16.5375 3.14999V3.51562H16.1719C15.7594 3.51562 15.4219 3.85312 15.4219 4.26562C15.4219 4.67812 15.7594 5.01562 16.1719 5.01562H16.5375V5.38125C16.5375 5.79375 16.875 6.13125 17.2875 6.13125C17.7 6.13125 18.0375 5.79375 18.0375 5.38125V5.01562H18.4031C18.8156 5.01562 19.1531 4.67812 19.1531 4.26562C19.1531 3.85312 18.825 3.51562 18.4031 3.51562Z" fill="black"/>
<defs>
<linearGradient id="paint0_linear" x1="1.46738" y1="26.7576" x2="46.4674" y2="26.7576" gradientUnits="userSpaceOnUse">
<stop stop-color="#FFEFE6"/>
<stop offset="1" stop-color="#FF5E00"/>
</linearGradient>
<linearGradient id="paint1_linear" x1="35.214" y1="25.0916" x2="35.214" y2="45.5071" gradientUnits="userSpaceOnUse">
<stop stop-color="#FFEFE6"/>
<stop offset="1" stop-color="#FF5E00"/>
</linearGradient>
</defs>
</svg>
