<svg width="48" height="48" viewBox="0 0 48 48" fill="none" xmlns="http://www.w3.org/2000/svg">
<path d="M20.6531 21.2437H17.3343V24.5625H13.9593L11.3812 22.0781V21.2437H14.7C15.6093 21.2437 16.3593 20.4937 16.3593 19.5844V17.7562C16.3593 16.9312 17.025 16.2656 17.85 16.2656H19.6781C21.4968 16.2656 22.9968 14.775 22.9968 12.9469C22.9968 12.9469 23.175 10.0312 21.6843 8.39061C21.45 8.33436 21.2156 8.28749 20.9718 8.24999C21.9468 8.07186 22.9406 7.97811 23.9625 7.97811C25.2187 7.97811 26.4468 8.12811 27.6281 8.39061C29.1187 10.0312 28.9406 12.9469 28.9406 12.9469C28.9406 14.775 27.4499 16.2656 25.6218 16.2656H22.3125V19.5844C22.3125 20.4937 21.5625 21.2437 20.6531 21.2437ZM3.6937 22.6219C3.5062 22.6219 3.32808 22.65 3.1687 22.7156C3.7687 22.9312 4.19995 23.5031 4.19995 24.1781C4.19995 24.8531 3.7687 25.425 3.1687 25.6406C3.33745 25.6969 3.5062 25.7344 3.6937 25.7344C4.54683 25.7344 5.24995 25.0312 5.24995 24.1781C5.24995 23.325 4.54683 22.6219 3.6937 22.6219ZM23.5312 5.28749C23.7 5.34374 23.8687 5.38124 24.0562 5.38124C24.9093 5.38124 25.6125 4.67811 25.6125 3.82499C25.6125 2.97186 24.9093 2.26874 24.0562 2.26874C23.8687 2.26874 23.6906 2.29686 23.5312 2.36249C24.1312 2.57811 24.5625 3.14999 24.5625 3.82499C24.5625 4.49061 24.1312 5.07186 23.5312 5.28749ZM23.9343 42.9656C23.7468 42.9656 23.5687 42.9937 23.4093 43.0594C24.0093 43.275 24.4406 43.8469 24.4406 44.5219C24.4406 45.1969 24.0093 45.7687 23.4093 45.9844C23.5781 46.0406 23.7468 46.0781 23.9343 46.0781C24.7875 46.0781 25.4906 45.375 25.4906 44.5219C25.4906 43.6687 24.7968 42.9656 23.9343 42.9656ZM44.2593 22.6219C44.0718 22.6219 43.8937 22.65 43.7343 22.7156C44.3343 22.9312 44.7656 23.5031 44.7656 24.1781C44.7656 24.8531 44.3343 25.425 43.7343 25.6406C43.9031 25.6969 44.0718 25.7344 44.2593 25.7344C45.1125 25.7344 45.8156 25.0312 45.8156 24.1781C45.8156 23.325 45.1125 22.6219 44.2593 22.6219ZM33.75 33.4969C33.3187 32.1562 32.0906 31.1906 30.6 31.1906H28.9406V26.2125C28.9406 25.3031 28.1906 24.5531 27.2812 24.5531H21.3281C22.2375 24.5531 22.9874 25.3031 22.9874 26.2125V29.55C22.9874 30.45 23.7187 31.1906 24.6281 31.1906H24.6468C26.1375 31.1906 27.3656 32.1562 27.7968 33.4969C27.8062 33.4875 27.8062 33.4781 27.8156 33.4781C28.0218 34.1062 28.1437 35.0719 28.2093 35.9344C28.2937 36.9656 27.8062 37.9687 26.9437 38.5219C25.5375 39.4219 23.9906 40.1156 22.3406 40.5656V41.0531C22.875 41.1 23.4187 41.1375 23.9625 41.1375C27.8437 41.1375 31.425 39.7969 34.2375 37.5562C34.2187 36.825 34.1343 34.6031 33.7593 33.4781C33.7593 33.4781 33.7593 33.4875 33.75 33.4969Z" fill="url(#paint0_linear)"/>
<path d="M41.475 24.1687C41.475 25.7062 42.7313 26.9625 44.2688 26.9625C45.8063 26.9625 47.0625 25.7062 47.0625 24.1687C47.0625 22.8844 46.1907 21.8062 45.0188 21.4781C45.0188 21.4594 45.0188 21.4312 45.0094 21.4125C45 21.375 44.9813 21.2156 44.9438 21.0469C44.8875 20.6906 44.8688 20.5687 44.8594 20.5219C44.5688 19.0219 44.1282 17.5687 43.5469 16.2C42.075 12.7594 39.7219 9.75937 36.7407 7.52812C33.8438 5.3625 30.4219 3.96562 26.85 3.47812C26.8032 3.46875 26.7469 3.46875 26.7 3.46875C26.5219 2.1 25.3407 1.03125 23.9157 1.03125C22.4907 1.03125 21.3094 2.1 21.1407 3.4875C21.0938 3.4875 21.0469 3.4875 20.9907 3.49687C19.1719 3.74062 17.3625 4.24687 15.6094 4.99687C12.2438 6.43125 9.29067 8.72812 7.07817 11.6156C4.9313 14.4187 3.5063 17.7469 2.9438 21.2344C2.93442 21.3094 2.93442 21.3844 2.9438 21.45C1.69692 21.7312 0.768799 22.8469 0.768799 24.1781C0.768799 25.4625 1.64067 26.5406 2.81255 26.8687C2.81255 26.9062 2.81255 26.9344 2.81255 26.9719C2.96255 28.3219 3.25317 29.6625 3.66567 30.9562C3.89067 31.6781 4.13442 32.3156 4.38755 32.9156C6.26255 37.3031 9.60005 40.9781 13.7907 43.2469C15.9938 44.4469 18.3657 45.2437 20.85 45.6187C20.8875 45.6281 20.925 45.6281 21.3375 45.6656C21.3469 45.6656 21.3563 45.6656 21.3563 45.6656C21.7969 46.6406 22.7719 47.325 23.9063 47.325C25.0407 47.325 26.0157 46.65 26.4563 45.6844C26.4657 45.6844 26.4844 45.6844 26.4938 45.6844C26.8875 45.6562 26.9157 45.6469 26.9625 45.6469C28.7907 45.3844 30.5907 44.8781 32.3157 44.1469C35.4844 42.7969 38.2969 40.6781 40.4532 38.025C42.5438 35.4562 44.025 32.3906 44.7375 29.1469C44.8313 28.7437 44.5688 28.3406 44.1657 28.2562C43.7625 28.1625 43.3594 28.425 43.275 28.8281C41.8969 35.0531 37.5844 40.2656 31.725 42.7687C30.1313 43.4531 28.4625 43.9219 26.7657 44.1656C26.7469 44.1656 26.7188 44.1656 26.6813 44.175C26.5407 43.1062 25.7813 42.2156 24.7782 41.8969C28.3782 41.7281 31.8844 40.4156 34.7063 38.175C38.8875 34.875 41.2875 29.925 41.2875 24.5906C41.2875 21.5812 40.5094 18.6281 39.0282 16.0312C37.5938 13.5094 35.5313 11.3719 33.0657 9.85312C32.7094 9.6375 32.25 9.74062 32.0344 10.0969C31.8188 10.4531 31.9219 10.9125 32.2782 11.1281C36.9844 14.0344 39.7969 19.0687 39.7969 24.6C39.7969 28.9594 38.0344 33.0469 34.9219 36.0187C34.8563 35.0812 34.725 33.9937 34.4813 33.2812C34.4625 33.2156 34.425 33.15 34.3875 33.0937C33.7875 31.5281 32.2969 30.4875 30.6 30.4875H29.6907V26.2687C29.6907 24.9375 28.6125 23.8594 27.2813 23.8594H18.0844V22.0406H20.6532C21.9844 22.0406 23.0625 20.9625 23.0625 19.6312V17.0625H25.6313C27.8625 17.0625 29.6813 15.2531 29.7 13.0219C29.7188 12.6937 29.8219 9.73125 28.2 7.94062C28.2 7.94062 28.2 7.94062 28.1907 7.93125C28.1813 7.92187 28.1719 7.9125 28.1625 7.90312C28.1532 7.89375 28.1438 7.88437 28.1344 7.875C28.125 7.86562 28.1157 7.86562 28.1157 7.85625C28.1063 7.84687 28.0969 7.8375 28.0782 7.82812C28.0688 7.82812 28.0688 7.81875 28.0594 7.81875C28.0407 7.80937 28.0313 7.8 28.0125 7.79062C28.0125 7.79062 28.0032 7.79062 28.0032 7.78125C27.9844 7.77187 27.9657 7.7625 27.9469 7.75312H27.9375C27.9188 7.74375 27.9 7.73437 27.8813 7.73437C27.8719 7.73437 27.8719 7.73437 27.8625 7.73437C27.8438 7.725 27.825 7.725 27.8063 7.71562C26.5313 7.425 25.2469 7.28437 23.9813 7.28437C16.5938 7.22812 10.0219 11.9062 7.61255 18.8719C6.96567 20.6625 6.63755 22.575 6.63755 24.5625C6.63755 28.8937 8.24067 33.0375 11.1657 36.2344C14.0625 39.4125 18 41.3812 22.2563 41.8031H22.2657C22.5375 41.8312 22.8094 41.85 23.0625 41.8594C22.0594 42.1781 21.2907 43.0594 21.1407 44.1281C21.1032 44.1281 21.075 44.1187 21.0563 44.1187C18.7594 43.7719 16.5563 43.0312 14.5032 41.9156C10.6032 39.8062 7.50005 36.3937 5.76567 32.3156C5.5313 31.7625 5.3063 31.1625 5.09067 30.4969C4.71567 29.3156 4.45317 28.0875 4.31255 26.8594C5.48442 26.5312 6.34692 25.4531 6.34692 24.1687C6.34692 22.9312 5.5313 21.8719 4.4063 21.5062C4.4063 21.4875 4.41567 21.4781 4.41567 21.4594C5.4938 14.6906 9.89067 9.04688 16.1907 6.35625C17.8125 5.6625 19.5 5.19375 21.1875 4.96875C21.2438 4.95937 21.2907 4.95 21.3469 4.93125C21.7782 5.91562 22.7625 6.60937 23.9063 6.60937C25.05 6.60937 26.0438 5.91562 26.475 4.92187C26.5219 4.94062 26.5782 4.95 26.6344 4.95937C33.4969 5.89687 39.4407 10.425 42.1594 16.7812C42.7032 18.0469 43.1157 19.3969 43.3782 20.7937C43.3875 20.8406 43.425 21.0656 43.4625 21.2812C43.4719 21.3469 43.4813 21.4219 43.4907 21.4781C42.3282 21.825 41.475 22.9031 41.475 24.1687ZM23.9719 8.72812C25.05 8.72812 26.1375 8.84062 27.225 9.075C28.3219 10.4906 28.2 12.8812 28.1907 12.9094C28.1907 12.9281 28.1907 12.9375 28.1907 12.9562C28.1907 14.3719 27.0375 15.525 25.6219 15.525H22.3125C21.9 15.525 21.5625 15.8625 21.5625 16.275V19.5937C21.5625 20.0906 21.1594 20.5031 20.6532 20.5031H17.3344C16.9219 20.5031 16.5844 20.8406 16.5844 21.2531V24.5719C16.5844 24.9844 16.9219 25.3219 17.3344 25.3219H27.2813C27.7782 25.3219 28.1907 25.725 28.1907 26.2312V31.2C28.1907 31.6125 28.5282 31.95 28.9407 31.95H30.6C31.7157 31.95 32.6907 32.6719 33.0375 33.7312C33.0563 33.7875 33.0844 33.8437 33.1125 33.9C33.3282 34.6875 33.4407 36.0469 33.4875 37.2094C30.7594 39.2719 27.3938 40.3969 23.9719 40.3969C23.6907 40.3969 23.4 40.3875 23.0907 40.3687L23.0625 34.5C23.0625 34.0875 22.7344 33.7594 22.3219 33.75C22.3125 33.75 21.0938 33.7219 20.3438 32.8219C19.7438 32.1094 19.5563 31.0125 19.7907 29.5594C19.8282 29.3156 19.7438 29.0719 19.5657 28.9031L9.18755 18.9187C11.5125 12.8062 17.3907 8.72812 23.9719 8.72812ZM8.13755 24.5531C8.13755 23.1562 8.31567 21.7969 8.67192 20.4937L18.2532 29.7187C18.0469 31.4437 18.375 32.8125 19.2094 33.8062C19.95 34.6687 20.9063 35.025 21.5625 35.1562L21.5907 40.2C13.8657 39.0562 8.13755 32.4656 8.13755 24.5531ZM23.9157 43.2281C24.6282 43.2281 25.2094 43.8094 25.2094 44.5219C25.2094 45.2344 24.6282 45.8156 23.9157 45.8156C23.2032 45.8156 22.6219 45.2344 22.6219 44.5219C22.6219 43.8094 23.2032 43.2281 23.9157 43.2281ZM4.86567 24.1687C4.86567 24.8812 4.28442 25.4625 3.57192 25.4625C2.85942 25.4625 2.27817 24.8812 2.27817 24.1687C2.27817 23.4562 2.85942 22.875 3.57192 22.875C4.28442 22.875 4.86567 23.4562 4.86567 24.1687ZM23.9157 5.11875C23.2032 5.11875 22.6219 4.5375 22.6219 3.825C22.6219 3.1125 23.2032 2.53125 23.9157 2.53125C24.6282 2.53125 25.2094 3.1125 25.2094 3.825C25.2094 4.5375 24.6282 5.11875 23.9157 5.11875ZM44.2688 22.875C44.9813 22.875 45.5625 23.4562 45.5625 24.1687C45.5625 24.8812 44.9813 25.4625 44.2688 25.4625C43.5563 25.4625 42.975 24.8812 42.975 24.1687C42.975 23.4562 43.5563 22.875 44.2688 22.875Z" fill="black"/>
<path d="M3.16872 5.81249L3.41247 5.56874L3.16872 5.32499C2.8781 5.03436 2.8781 4.55624 3.16872 4.26561C3.45935 3.97499 3.93747 3.97499 4.2281 4.26561L4.47185 4.50936L4.7156 4.26561C5.00622 3.97499 5.48435 3.97499 5.77497 4.26561C6.0656 4.55624 6.0656 5.03436 5.77497 5.32499L5.53122 5.56874L5.77497 5.81249C6.0656 6.10312 6.0656 6.58124 5.77497 6.87187C5.62497 7.02187 5.43747 7.08749 5.2406 7.08749C5.04372 7.08749 4.85622 7.01249 4.70622 6.87187L4.46247 6.62811L4.21872 6.87187C4.06872 7.02187 3.88122 7.08749 3.68435 7.08749C3.48747 7.08749 3.29997 7.01249 3.14997 6.87187C2.86872 6.58124 2.86872 6.11249 3.16872 5.81249ZM45.3656 42.5062H45.0187V42.1594C45.0187 41.7469 44.6812 41.4094 44.2687 41.4094C43.8562 41.4094 43.5187 41.7469 43.5187 42.1594V42.5062H43.1718C42.7593 42.5062 42.4218 42.8437 42.4218 43.2562C42.4218 43.6687 42.7593 44.0062 43.1718 44.0062H43.5187V44.3531C43.5187 44.7656 43.8562 45.1031 44.2687 45.1031C44.6812 45.1031 45.0187 44.7656 45.0187 44.3531V44.0062H45.3656C45.7781 44.0062 46.1156 43.6687 46.1156 43.2562C46.1156 42.8437 45.7781 42.5062 45.3656 42.5062ZM47.5875 14.475C45.0375 8.49374 40.3593 3.74061 34.4062 1.09686C33.9468 0.890614 33.4125 1.09686 33.2156 1.55624C33.0093 2.01561 33.2156 2.54999 33.675 2.74686C39.1968 5.20311 43.5562 9.61874 45.9281 15.1781C46.0781 15.525 46.4062 15.7312 46.7625 15.7312C46.8843 15.7312 46.9968 15.7031 47.1187 15.6562C47.5687 15.4687 47.7843 14.9344 47.5875 14.475ZM12.5625 45.5156C7.85622 42.9656 4.1156 38.85 2.0156 33.9281C1.81872 33.4687 1.28435 33.2531 0.824972 33.45C0.365597 33.6469 0.149972 34.1812 0.346847 34.6406C2.60622 39.9375 6.63747 44.3719 11.7 47.1094C11.8406 47.1844 11.9812 47.2219 12.1312 47.2219C12.45 47.2219 12.7687 47.0531 12.9281 46.7437C13.1625 46.3031 13.0031 45.75 12.5625 45.5156ZM44.2687 5.22187C44.8218 5.22187 45.2625 4.78124 45.2625 4.22811C45.2625 3.67499 44.8218 3.23436 44.2687 3.23436C43.7156 3.23436 43.275 3.67499 43.275 4.22811C43.275 4.77186 43.7156 5.22187 44.2687 5.22187Z" fill="black"/>
<path d="M40.1438 44.6813V46.6969H34.875V44.6813H40.1438Z" fill="#FF5E00"/>
<path d="M46.8188 38.8032H44.8032V33.5344H46.8188V38.8032ZM1.8938 43.6407L4.37817 46.125H1.8938V43.6407Z" fill="#FFEFE6"/>
<defs>
<linearGradient id="paint0_linear" x1="24.4908" y1="44.7095" x2="24.4908" y2="3.10076" gradientUnits="userSpaceOnUse">
<stop stop-color="#FFEFE6"/>
<stop offset="1" stop-color="#FF5E00"/>
</linearGradient>
</defs>
</svg>
