<svg width="60" height="60" viewBox="0 0 60 60" fill="none" xmlns="http://www.w3.org/2000/svg">
<path d="M11 34.767L7.663 37.748C7.486 37.905 7.254 38 7 38C6.745 38 6.514 37.905 6.336 37.748L2.148 34.005C1.443 33.375 1 32.459 1 31.439C1 29.54 2.54 28 4.439 28C5.462 28 6.325 28.553 7 29.235C7.674 28.553 8.538 28 9.561 28C10.077 28 10.566 28.113 11.004 28.316" stroke="#8B2EFF" stroke-width="2" stroke-miterlimit="10"/>
<path d="M38.336 26C37.547 26 37 25.404 37 24.67V8C37 6.896 37.896 6 39 6H56C57.104 6 58 6.896 58 8V20C58 21.104 57.104 22 56 22H42L39.399 25.468C39.147 25.803 38.749 26 38.336 26Z" stroke="#8B2EFF" stroke-width="2" stroke-miterlimit="10"/>
<path d="M40.992 33.264L26.99 25.263C26.698 25.096 26.36 25 26 25C24.896 25 24 25.896 24 27V43C24 44.104 24.896 45 26 45C26.36 45 26.699 44.904 26.99 44.737L40.99 36.737C41.594 36.394 42 35.744 42 35C42 34.257 41.595 33.608 40.992 33.264V33.264Z" stroke="#8B2EFF" stroke-width="2" stroke-miterlimit="10"/>
<path d="M38 49H13C11.896 49 11 48.104 11 47V23C11 21.896 11.896 21 13 21H34" stroke="#8B2EFF" stroke-width="2" stroke-miterlimit="10"/>
<path d="M42 49H40" stroke="#8B2EFF" stroke-width="2" stroke-miterlimit="10"/>
<path d="M51 22V47C51 48.104 50.104 49 49 49H44.004" stroke="#8B2EFF" stroke-width="2" stroke-miterlimit="10"/>
<path d="M12 55H21" stroke="#8B2EFF" stroke-width="2" stroke-miterlimit="10"/>
<path d="M21 52V58" stroke="#8B2EFF" stroke-width="2" stroke-miterlimit="10"/>
<path d="M24 55H50" stroke="#8B2EFF" stroke-width="2" stroke-miterlimit="10"/>
<path d="M16.627 4.729C17.583 3.774 18.807 3 20.255 3C22.945 3 25.127 5.156 25.127 7.815C25.127 9.242 24.499 10.525 23.501 11.406L17.566 16.647C17.316 16.867 16.988 17 16.627 17C16.267 17 15.938 16.867 15.688 16.647L9.75401 11.406C8.75601 10.525 8.12701 9.242 8.12701 7.815C8.12701 5.156 10.309 3 13 3C14.448 3 15.672 3.774 16.627 4.729V4.729Z" stroke="#8B2EFF" stroke-width="2" stroke-miterlimit="10"/>
<path d="M40 10H53" stroke="#8B2EFF" stroke-width="2" stroke-miterlimit="10"/>
<path d="M40 14H55" stroke="#8B2EFF" stroke-width="2" stroke-miterlimit="10"/>
<path d="M40 18H49" stroke="#8B2EFF" stroke-width="2" stroke-miterlimit="10"/>
<path d="M51 18H53" stroke="#8B2EFF" stroke-width="2" stroke-miterlimit="10"/>
<path d="M4 40V46" stroke="#8B2EFF" stroke-width="2" stroke-miterlimit="10"/>
<path d="M4 48V50" stroke="#8B2EFF" stroke-width="2" stroke-miterlimit="10"/>
<path d="M4 19V21" stroke="#8B2EFF" stroke-width="2" stroke-miterlimit="10"/>
<path d="M4 23V25" stroke="#8B2EFF" stroke-width="2" stroke-miterlimit="10"/>
<path d="M31 6V8" stroke="#8B2EFF" stroke-width="2" stroke-miterlimit="10"/>
<path d="M31 10V12" stroke="#8B2EFF" stroke-width="2" stroke-miterlimit="10"/>
<path d="M31 14V16" stroke="#8B2EFF" stroke-width="2" stroke-miterlimit="10"/>
<path d="M55 31V39" stroke="#8B2EFF" stroke-width="2" stroke-miterlimit="10"/>
<path d="M55 41V43" stroke="#8B2EFF" stroke-width="2" stroke-miterlimit="10"/>
</svg>
