<svg width="11" height="10" viewBox="0 0 11 10" fill="none" xmlns="http://www.w3.org/2000/svg">
<path fill-rule="evenodd" clip-rule="evenodd" d="M8.88889 8.88889C8.58222 8.88889 8.33333 8.64 8.33333 8.33333C8.33333 8.02667 8.58222 7.77778 8.88889 7.77778C9.19556 7.77778 9.44444 8.02667 9.44444 8.33333C9.44444 8.64 9.19556 8.88889 8.88889 8.88889ZM1.66667 5.55556C1.36 5.55556 1.11111 5.30667 1.11111 5C1.11111 4.69333 1.36 4.44444 1.66667 4.44444C1.97333 4.44444 2.22222 4.69333 2.22222 5C2.22222 5.30667 1.97333 5.55556 1.66667 5.55556ZM8.88889 1.11111C9.19556 1.11111 9.44444 1.36 9.44444 1.66667C9.44444 1.97333 9.19556 2.22222 8.88889 2.22222C8.58222 2.22222 8.33333 1.97333 8.33333 1.66667C8.33333 1.36 8.58222 1.11111 8.88889 1.11111ZM8.88889 6.66667C8.435 6.66667 8.02389 6.85 7.72278 7.145L3.31444 5.18611C3.32167 5.12444 3.33333 5.06333 3.33333 5C3.33333 4.93667 3.32167 4.87556 3.31444 4.81389L7.72278 2.855C8.02389 3.15 8.435 3.33333 8.88889 3.33333C9.80778 3.33333 10.5556 2.58556 10.5556 1.66667C10.5556 0.747778 9.80778 0 8.88889 0C7.97 0 7.22222 0.747778 7.22222 1.66667C7.22222 1.73 7.23389 1.79111 7.24111 1.85278L2.83278 3.81167C2.53167 3.51667 2.12056 3.33333 1.66667 3.33333C0.747778 3.33333 0 4.08111 0 5C0 5.91889 0.747778 6.66667 1.66667 6.66667C2.12056 6.66667 2.53167 6.48333 2.83278 6.18833L7.24111 8.14722C7.23389 8.20889 7.22222 8.27 7.22222 8.33333C7.22222 9.25222 7.97 10 8.88889 10C9.80778 10 10.5556 9.25222 10.5556 8.33333C10.5556 7.41444 9.80778 6.66667 8.88889 6.66667Z" fill="#57585A"/>
</svg>
