<svg width="116" height="25" viewBox="0 0 116 25" fill="none" xmlns="http://www.w3.org/2000/svg">
<path fill-rule="evenodd" clip-rule="evenodd" d="M94.8114 17.6415L97.9478 12.4338H97.6588H96.8865V10.6011H99.0516H99.1632H100.678H100.813H100.924L100.981 10.6948L105.231 17.6397L105.41 17.9335H105.062H103.129H103.016L102.958 17.8348L102.132 16.4063H97.6935L96.8672 17.8348L96.8105 17.9335H96.6967H94.9801H94.6349L94.8109 17.6411L94.8114 17.6415ZM74.497 17.9339H73.1138H72.9793L72.9304 17.8096L69.6143 9.33794L69.511 9.0744H69.7972H71.8636H71.9994L72.0479 9.20009L74.0507 14.4128L76.1468 9.19739L76.1962 9.07485H76.3297H77.7298H77.8625L77.9123 9.19604L80.0532 14.4083L81.9614 9.20324L82.0085 9.0744H82.1456H83.929H84.2152L84.1119 9.33794L80.7953 17.8096L80.7469 17.9339H80.6124H79.2626H79.13L79.0801 17.8114L76.8949 12.3986L74.6785 17.8118L74.6287 17.9339H74.4961H74.497ZM85.9492 17.7402V13.7209H91.4757V14.7525V14.9462H91.279H88.043V16.2328H93.7954H93.992V16.4265V17.7398V17.9335H93.7954H86.1462H85.9496V17.7398L85.9492 17.7402ZM85.9492 12.2207V10.7953V10.6016H86.1458H93.7117H93.9083V10.7953V12.0265V12.2202H93.7117H91.7528H88.0425H85.9492V12.2207ZM106.527 10.6016H108.227H108.423V10.7953V13.2334L112.231 10.6363L112.282 10.6016H112.342H114.825H115.471L114.935 10.9561L110.306 14.0168L115.487 17.5821L116 17.9344H115.375H112.659H112.597L112.544 17.8974L108.423 14.9818V17.7402V17.9339H108.226H106.526H106.33V17.7402V10.7953V10.6016H106.526H106.527ZM99.9122 12.4856L98.5843 14.7881H101.227L99.9122 12.4856Z" fill="#8B2EFF"/>
<path fill-rule="evenodd" clip-rule="evenodd" d="M63.9602 12.7717L66.0567 10.6597L66.1148 10.6012H66.1976H68.1807H68.6535L68.3197 10.9314L65.2442 13.9772L69.0664 17.6006L69.4181 17.934H68.9302H66.5803H66.5012L66.4436 17.879L63.8866 15.422L61.5408 17.8727L61.4823 17.934H61.3977H59.3647H58.9028L59.2234 17.606L62.5706 14.1822L59.1621 10.9346L58.8123 10.6012H59.2984H61.5979H61.6766L61.7338 10.6557L63.9597 12.7717H63.9602ZM47.9363 17.7402V12.4077H50.3296H52.5345H54.0993H54.2959V12.6014V14.0461V14.2403H54.0993H50.3296V16.0031H57.0153H57.2119V16.1973V17.7407V17.9344H57.0153H48.1329H47.9363V17.7407V17.7402ZM47.9363 10.9075V9.2686V9.07489H48.1329H56.932H57.1287V9.2686V10.7134V10.9075H56.932H52.5345H50.3296H47.9363Z" fill="#8B2EFF"/>
<path fill-rule="evenodd" clip-rule="evenodd" d="M8.22983 6.55161L2.17886 15.444L0 13.0555L3.85016 7.37512L8.22983 6.55161ZM43.055 0L26.0773 25L23.8984 22.6115L38.701 0.819458L43.055 0V0ZM34.2939 1.64838L21.7191 20.222L19.5403 17.8335L29.9357 2.46829L34.2939 1.64838ZM25.7407 3.25756L10.8961 25L8.71728 22.6115L21.3844 4.07702L25.7407 3.25756ZM16.9448 4.91224L6.53796 20.222L4.3591 17.8335L12.6196 5.72584L16.9448 4.91224Z" fill="#8B2EFF"/>
<path d="M49.0063 22.0988L49.1097 22.6101L49.2359 22.1213L49.9616 19.6936H50.2163L50.9328 22.1213L51.0563 22.6146L51.1669 22.0984L51.7705 19.6936H52.0604L51.2039 22.9877H50.9328L50.1746 20.4112L50.0901 20.0851L50.0068 20.4112L49.2313 22.9877H48.9606L48.1064 19.6936H48.3959L49.0063 22.0988Z" fill="#8B2EFF"/>
<path d="M53.8954 21.7285C53.8954 21.4929 53.9416 21.2816 54.0339 21.0928C54.1263 20.9036 54.2571 20.7567 54.4267 20.6527C54.5959 20.5477 54.787 20.495 55.002 20.495C55.3321 20.495 55.6001 20.6094 55.8054 20.8378C56.0107 21.0662 56.1136 21.369 56.1136 21.7465V21.8028C56.1136 22.0398 56.0665 22.2524 55.9741 22.4421C55.8817 22.6313 55.7514 22.7772 55.5831 22.8799C55.4149 22.9827 55.2228 23.0336 55.007 23.0336C54.6778 23.0336 54.4098 22.9191 54.2045 22.6907C53.9983 22.4623 53.8958 22.1596 53.8958 21.7821V21.728L53.8954 21.7285ZM54.1707 21.8041C54.1707 22.097 54.2475 22.3375 54.402 22.5254C54.5557 22.7133 54.7569 22.8074 55.007 22.8074C55.2548 22.8074 55.4551 22.7133 55.6088 22.5254C55.7633 22.338 55.8401 22.0898 55.8401 21.7821V21.7303C55.8401 21.5429 55.8049 21.3712 55.7345 21.2162C55.6641 21.0608 55.5653 20.9405 55.4382 20.8558C55.3111 20.7703 55.1661 20.7275 55.0024 20.7275C54.7573 20.7275 54.557 20.8225 54.4029 21.0117C54.2484 21.2009 54.1711 21.4487 54.1711 21.755V21.8046L54.1707 21.8041Z" fill="#8B2EFF"/>
<path d="M58.5078 20.5414L58.5165 20.9383C58.6089 20.791 58.7232 20.6797 58.8613 20.6063C58.9994 20.5319 59.1521 20.495 59.3204 20.495C59.7123 20.495 59.9606 20.6531 60.0666 20.9698C60.1554 20.8176 60.2742 20.7004 60.4224 20.6184C60.5715 20.536 60.7352 20.495 60.914 20.495C61.4467 20.495 61.7178 20.7815 61.7288 21.3545V22.9876H61.4535V21.3753C61.4522 21.1568 61.4041 20.9955 61.3095 20.8896C61.2153 20.7838 61.0617 20.7315 60.8495 20.7315C60.6519 20.7347 60.485 20.7973 60.3488 20.9198C60.2134 21.0433 60.1371 21.1924 60.1215 21.3694V22.9876H59.8462V21.3554C59.8449 21.146 59.7946 20.9896 59.6958 20.8869C59.597 20.7833 59.4452 20.7315 59.2395 20.7315C59.0671 20.7315 58.918 20.7802 58.7945 20.8775C58.6706 20.9748 58.5792 21.1189 58.5188 21.3104V22.9876H58.2435V20.5414H58.5078Z" fill="#8B2EFF"/>
<path d="M65.5717 22.9876C65.5442 22.9106 65.5264 22.797 65.5191 22.6461C65.4226 22.7696 65.2996 22.8655 65.1501 22.9326C65.001 22.9998 64.8428 23.0336 64.6759 23.0336C64.4376 23.0336 64.2442 22.9678 64.0965 22.8367C63.9484 22.7056 63.8748 22.5394 63.8748 22.3389C63.8748 22.101 63.9749 21.9118 64.1765 21.7735C64.3777 21.6343 64.6585 21.5649 65.0184 21.5649H65.5168V21.2861C65.5168 21.1108 65.4619 20.9725 65.3522 20.8721C65.2433 20.7716 65.0833 20.7216 64.8734 20.7216C64.6823 20.7216 64.5241 20.7693 64.3983 20.8658C64.273 20.9617 64.2104 21.0775 64.2104 21.2126L63.9347 21.2104C63.9347 21.0167 64.0266 20.8491 64.2104 20.7072C64.3937 20.5657 64.6196 20.495 64.8876 20.495C65.1652 20.495 65.3828 20.563 65.5429 20.6995C65.7034 20.836 65.7857 21.0261 65.7898 21.2708V22.4281C65.7898 22.6651 65.8158 22.8425 65.8657 22.9601V22.9872H65.5717V22.9876ZM64.7088 22.7975C64.8922 22.7975 65.0559 22.7533 65.2008 22.6655C65.3449 22.5781 65.4509 22.461 65.5168 22.3141V21.7735H65.0252C64.7509 21.7767 64.5369 21.8262 64.3819 21.9226C64.2273 22.0186 64.1505 22.1506 64.1505 22.3186C64.1505 22.456 64.2012 22.5704 64.305 22.6614C64.4084 22.752 64.5433 22.7975 64.7088 22.7975Z" fill="#8B2EFF"/>
<path d="M68.3604 20.5414L68.37 20.9586C68.4633 20.8081 68.5795 20.6928 68.7189 20.6144C68.8584 20.5347 69.012 20.4955 69.1803 20.4955C69.4469 20.4955 69.6449 20.5698 69.7752 20.7171C69.9055 20.8644 69.9709 21.0861 69.9727 21.3821V22.9881H69.6993V21.3807C69.6979 21.1622 69.6508 20.9991 69.558 20.8928C69.4656 20.7856 69.3175 20.732 69.1135 20.732C68.9434 20.732 68.793 20.7847 68.6622 20.8888C68.5314 20.9937 68.435 21.1352 68.3723 21.3127V22.9881H68.0989V20.5419H68.3609L68.3604 20.5414Z" fill="#8B2EFF"/>
<path d="M75.824 22.0988L75.9273 22.6101L76.0535 22.1213L76.7792 19.6936H77.0339L77.75 22.1213L77.8739 22.6146L77.9845 22.0984L78.5877 19.6936H78.878L78.0211 22.9877H77.75L76.9923 20.4112L76.9077 20.0851L76.8245 20.4112L76.0485 22.9877H75.7782L74.9241 19.6936H75.2131L75.824 22.0988Z" fill="#8B2EFF"/>
<path d="M81.8273 23.034C81.6156 23.034 81.4253 22.9831 81.2543 22.8804C81.0833 22.7777 80.9512 22.6349 80.856 22.4511C80.7614 22.2682 80.7134 22.0628 80.7134 21.8348V21.7375C80.7134 21.5019 80.7596 21.2906 80.8519 21.1014C80.9443 20.9131 81.0737 20.7649 81.2392 20.6577C81.4048 20.5495 81.5831 20.4955 81.7761 20.4955C82.0779 20.4955 82.317 20.5968 82.494 20.7996C82.6709 21.0027 82.7587 21.2798 82.7587 21.6321V21.7835H80.9868V21.8353C80.9868 22.1132 81.0678 22.3448 81.2292 22.5304C81.3906 22.7151 81.5936 22.8074 81.8387 22.8074C81.985 22.8074 82.1154 22.7813 82.2274 22.7277C82.3403 22.6745 82.4423 22.5894 82.5338 22.4727L82.7061 22.6016C82.504 22.8894 82.2109 23.034 81.8268 23.034H81.8273ZM81.7765 20.727C81.5703 20.727 81.3965 20.8018 81.2543 20.9509C81.1126 21.1001 81.0262 21.3001 80.9955 21.5515H82.4862V21.5222C82.4784 21.2875 82.4103 21.096 82.2818 20.9487C82.1533 20.8014 81.9846 20.727 81.7765 20.727Z" fill="#8B2EFF"/>
<path d="M85.1786 22.9876H84.9033V20.5414H85.1786V22.9876ZM84.8549 19.8337C84.8549 19.7836 84.8722 19.7404 84.9056 19.7048C84.9395 19.6701 84.9847 19.6521 85.0428 19.6521C85.1018 19.6521 85.148 19.6697 85.1823 19.7048C85.2166 19.7404 85.2339 19.7836 85.2339 19.8337C85.2339 19.8846 85.2166 19.9278 85.1823 19.962C85.148 19.9967 85.1013 20.0139 85.0428 20.0139C84.9847 20.0139 84.9395 19.9967 84.9056 19.962C84.8718 19.9283 84.8549 19.885 84.8549 19.8337Z" fill="#8B2EFF"/>
<path d="M87.3936 21.742C87.3936 21.3582 87.48 21.055 87.6524 20.8311C87.8248 20.6072 88.0584 20.495 88.3538 20.495C88.6922 20.495 88.9496 20.6279 89.1252 20.8932L89.1394 20.5409H89.3964V22.9363C89.3964 23.2512 89.3072 23.5007 89.1275 23.6845C88.9487 23.8683 88.7059 23.9602 88.4 23.9602C88.2267 23.9602 88.0616 23.9224 87.9048 23.8467C87.7479 23.7701 87.624 23.6692 87.5339 23.5431L87.6876 23.3809C87.8819 23.6156 88.1133 23.7332 88.3812 23.7332C88.6108 23.7332 88.7905 23.667 88.919 23.5332C89.0475 23.4003 89.1142 23.2151 89.1188 22.9786V22.6714C88.9423 22.9128 88.6862 23.0336 88.3492 23.0336C88.0616 23.0336 87.8302 22.92 87.6556 22.6939C87.4813 22.4677 87.394 22.1627 87.394 21.778V21.7415L87.3936 21.742ZM87.6716 21.7893C87.6716 22.101 87.7351 22.3474 87.8622 22.5272C87.9894 22.7069 88.1686 22.7975 88.4 22.7975C88.7379 22.7975 88.9775 22.6484 89.1188 22.3497V21.2131C89.0543 21.0563 88.9611 20.9365 88.8408 20.8549C88.7201 20.7725 88.5742 20.7315 88.4041 20.7315C88.1727 20.7315 87.9935 20.8212 87.865 20.9996C87.7365 21.178 87.672 21.441 87.672 21.7893H87.6716Z" fill="#8B2EFF"/>
<path d="M91.9631 20.9545C92.0532 20.8077 92.1693 20.695 92.3101 20.6149C92.4505 20.5351 92.6046 20.495 92.7711 20.495C93.0377 20.495 93.2357 20.5694 93.366 20.7167C93.4963 20.864 93.5621 21.0856 93.5635 21.3816V22.9876H93.2901V21.3803C93.2892 21.1618 93.2416 20.9987 93.1488 20.8924C93.0564 20.7851 92.9083 20.7315 92.7043 20.7315C92.5351 20.7315 92.3847 20.7842 92.2539 20.8883C92.1231 20.9933 92.0257 21.1347 91.9631 21.3122V22.9876H91.6906V19.5129H91.9631V20.9545Z" fill="#8B2EFF"/>
<path d="M96.2745 19.9161V20.5414H96.7885V20.764H96.2745V22.3948C96.2745 22.5308 96.2997 22.6317 96.3491 22.6984C96.3994 22.7646 96.4821 22.798 96.5983 22.798C96.6444 22.798 96.7181 22.7903 96.8209 22.7755L96.8328 22.9962C96.7606 23.021 96.6627 23.034 96.5388 23.034C96.3509 23.034 96.2137 22.98 96.1282 22.8728C96.0418 22.7646 95.9997 22.6065 95.9997 22.3966V20.7644H95.542V20.5419H95.9997V19.9166H96.275L96.2745 19.9161Z" fill="#8B2EFF"/>
<path d="M102.167 22.7516H103.819V22.9877H101.883V19.6936H102.167V22.7516Z" fill="#8B2EFF"/>
<path d="M105.723 21.7285C105.723 21.4929 105.769 21.2816 105.861 21.0928C105.953 20.9036 106.084 20.7567 106.254 20.6527C106.423 20.5477 106.614 20.495 106.829 20.495C107.159 20.495 107.427 20.6094 107.633 20.8378C107.838 21.0662 107.941 21.369 107.941 21.7465V21.8028C107.941 22.0398 107.894 22.2524 107.801 22.4421C107.709 22.6313 107.579 22.7772 107.41 22.8799C107.242 22.9827 107.05 23.0336 106.834 23.0336C106.505 23.0336 106.237 22.9191 106.032 22.6907C105.825 22.4623 105.723 22.1596 105.723 21.7821V21.728L105.723 21.7285ZM105.998 21.8041C105.998 22.097 106.075 22.3375 106.229 22.5254C106.383 22.7133 106.584 22.8074 106.834 22.8074C107.082 22.8074 107.282 22.7133 107.436 22.5254C107.59 22.338 107.667 22.0898 107.667 21.7821V21.7303C107.667 21.5429 107.632 21.3712 107.562 21.2162C107.491 21.0608 107.392 20.9405 107.265 20.8558C107.138 20.7703 106.993 20.7275 106.83 20.7275C106.584 20.7275 106.384 20.8225 106.23 21.0117C106.076 21.2009 105.998 21.4487 105.998 21.755V21.8046L105.998 21.8041Z" fill="#8B2EFF"/>
<path d="M111.572 22.3669C111.572 22.2326 111.518 22.1245 111.408 22.0434C111.298 21.9614 111.134 21.8974 110.914 21.8519C110.693 21.8055 110.522 21.7533 110.4 21.6938C110.279 21.6343 110.188 21.5609 110.129 21.4753C110.07 21.3897 110.041 21.2852 110.041 21.1627C110.041 20.9694 110.123 20.8104 110.287 20.6847C110.45 20.559 110.66 20.4955 110.916 20.4955C111.192 20.4955 111.415 20.5626 111.583 20.6978C111.75 20.8329 111.833 21.0091 111.833 21.2257H111.558C111.558 21.0829 111.497 20.964 111.376 20.8689C111.254 20.7739 111.1 20.727 110.916 20.727C110.735 20.727 110.59 20.7662 110.48 20.846C110.371 20.9257 110.316 21.0284 110.316 21.155C110.316 21.278 110.362 21.3726 110.453 21.4397C110.544 21.5069 110.71 21.5681 110.951 21.6244C111.192 21.6798 111.373 21.7393 111.492 21.8028C111.613 21.8664 111.702 21.9425 111.76 22.0312C111.818 22.12 111.847 22.2272 111.847 22.3542C111.847 22.5606 111.763 22.7255 111.593 22.8493C111.424 22.9728 111.204 23.0345 110.931 23.0345C110.642 23.0345 110.408 22.9656 110.228 22.8277C110.048 22.6894 109.958 22.5151 109.958 22.3033H110.233C110.244 22.4624 110.311 22.5858 110.437 22.6745C110.561 22.7633 110.726 22.8074 110.931 22.8074C111.122 22.8074 111.277 22.7655 111.395 22.6831C111.513 22.5998 111.572 22.4948 111.572 22.3673V22.3669Z" fill="#8B2EFF"/>
<path d="M115.53 22.3669C115.53 22.2326 115.476 22.1245 115.367 22.0434C115.257 21.9614 115.092 21.8974 114.872 21.8519C114.652 21.8055 114.481 21.7533 114.359 21.6938C114.237 21.6343 114.147 21.5609 114.088 21.4753C114.029 21.3897 113.999 21.2852 113.999 21.1627C113.999 20.9694 114.081 20.8104 114.245 20.6847C114.409 20.559 114.618 20.4955 114.874 20.4955C115.151 20.4955 115.374 20.5626 115.541 20.6978C115.708 20.8329 115.792 21.0091 115.792 21.2257H115.517C115.517 21.0829 115.455 20.964 115.334 20.8689C115.213 20.7739 115.059 20.727 114.874 20.727C114.693 20.727 114.548 20.7662 114.438 20.846C114.33 20.9257 114.275 21.0284 114.275 21.155C114.275 21.278 114.32 21.3726 114.411 21.4397C114.502 21.5069 114.668 21.5681 114.909 21.6244C115.151 21.6798 115.331 21.7393 115.451 21.8028C115.572 21.8664 115.66 21.9425 115.719 22.0312C115.777 22.12 115.806 22.2272 115.806 22.3542C115.806 22.5606 115.721 22.7255 115.552 22.8493C115.383 22.9728 115.162 23.0345 114.89 23.0345C114.601 23.0345 114.366 22.9656 114.186 22.8277C114.007 22.6894 113.916 22.5151 113.916 22.3033H114.192C114.203 22.4624 114.27 22.5858 114.395 22.6745C114.52 22.7633 114.684 22.8074 114.89 22.8074C115.081 22.8074 115.235 22.7655 115.354 22.6831C115.471 22.5998 115.53 22.4948 115.53 22.3673V22.3669Z" fill="#8B2EFF"/>
</svg>
